<svg viewBox="0 0 1592 685" fill="none" xmlns="http://www.w3.org/2000/svg">
<g filter="url(#filter0_d)">
<path d="M543.499 480.544H463.489V583.716H352.597V480.544H88V404.043L319.61 92.4221H438.924L224.158 387.9H356.106V295.958H463.489V387.9H543.499V480.544Z" fill="white"/>
<path d="M788.06 592.138C747.353 592.138 711.091 582.078 679.274 561.958C647.457 541.839 622.424 512.829 604.176 474.929C586.396 436.562 577.506 390.941 577.506 338.069C577.506 285.196 586.396 239.81 604.176 201.91C622.424 163.543 647.457 134.299 679.274 114.179C711.091 94.0598 747.353 84 788.06 84C828.768 84 865.03 94.0598 896.847 114.179C928.664 134.299 953.462 163.543 971.243 201.91C989.491 239.81 998.615 285.196 998.615 338.069C998.615 390.941 989.491 436.562 971.243 474.929C953.462 512.829 928.664 541.839 896.847 561.958C865.03 582.078 828.768 592.138 788.06 592.138ZM788.06 495.985C818.006 495.985 841.401 483.117 858.245 457.383C875.557 431.649 884.214 391.877 884.214 338.069C884.214 284.261 875.557 244.489 858.245 218.755C841.401 193.02 818.006 180.153 788.06 180.153C758.583 180.153 735.188 193.02 717.876 218.755C701.031 244.489 692.609 284.261 692.609 338.069C692.609 391.877 701.031 431.649 717.876 457.383C735.188 483.117 758.583 495.985 788.06 495.985Z" fill="white"/>
<path d="M1503.74 480.544H1423.73V583.716H1312.84V480.544H1048.24V404.043L1279.85 92.4221H1399.17L1184.4 387.9H1316.35V295.958H1423.73V387.9H1503.74V480.544Z" fill="white"/>
</g>
<path d="M725.913 246.442C731.623 243.813 737.333 241.185 743.039 238.554C743.993 241.233 744.925 243.914 745.9 246.582C747.7 251.507 749.336 256.504 751.402 261.317C752.941 264.902 757.05 267.021 760.443 266.611C763.913 266.193 767.125 263.311 767.944 259.72C768.605 256.826 767.676 254.133 766.76 251.405C764.445 244.486 761.472 237.783 759.879 230.623C768.923 226.323 777.714 221.334 787.068 217.877C802.695 212.105 817.077 216.008 830.14 225.757C830.576 226.083 830.971 226.469 831.397 226.807C839.582 233.307 840.799 236.942 837.933 246.968C835.83 254.326 831.953 260.736 827.123 266.606C826.367 267.522 825.332 268.229 824.979 269.448C823.837 270.449 822.632 271.39 821.556 272.465C767.058 326.888 712.559 381.33 658.059 435.769C657.133 436.695 656.167 437.58 655.223 438.486C644.859 440.987 634.408 442.136 623.76 440.716C610.787 438.987 599.607 433.75 590.4 424.258C577.746 411.21 567.911 396.194 559.188 380.364C562.5 378.983 566.032 379.497 569.454 379.328C590.175 378.305 610.905 377.55 631.621 376.489C647.98 375.656 657.917 358.281 650.118 344.017C647.291 338.851 644.032 333.913 641.774 328.445C632.369 305.659 630.425 283.673 648.873 263.978C649.859 262.925 649.626 262.181 648.798 261.185C644.188 255.643 639.549 250.124 635.102 244.45C633.252 242.091 632.09 242.277 630.052 244.331C611.563 262.956 592.939 281.447 574.437 300.055C572.722 301.781 571.288 302.102 569.009 301.308C558.386 297.607 547.697 294.098 537.033 290.511C533.236 289.231 533.233 289.209 536.093 286.351C559.687 262.778 583.283 239.212 606.873 215.635C607.876 214.633 608.799 213.558 609.764 212.515C611.729 210.631 613.753 208.8 615.642 206.839C616.77 205.664 617.577 205.36 618.716 206.847C625.332 215.509 631.977 224.152 638.682 232.742C640.042 234.487 639.053 235.387 637.921 236.529C633.812 240.674 633.885 240.654 637.433 245.144C641.684 250.523 646.238 255.66 650.076 261.362C650.318 261.723 651.01 261.784 651.494 261.984C651.84 262.156 652.611 263.071 653.382 263.698C669.981 264.071 675.545 264.71 690.49 263.071C696.845 260.15 703.199 257.227 709.551 254.307C712.167 262.2 714.701 270.119 717.425 277.972C719.431 283.76 725.731 286.807 731.111 284.818C735.225 283.298 736.838 278.153 734.967 272.421C733.233 267.117 731.543 261.798 729.687 256.535C728.483 253.153 727.893 249.535 725.913 246.442Z" fill="#B6B6B6"/>
<path d="M675.415 446.893C676.486 446.137 677.566 445.402 678.619 444.622C740.507 398.796 802.391 352.963 864.287 307.143C865.508 306.237 866.841 305.487 868.116 304.665C872.689 303.565 877.214 304.224 881.693 305.211C882.419 305.37 882.882 305.363 883.439 305.025C887.885 306.391 892.368 307.655 896.773 309.141C907.474 312.746 917.649 317.378 926.27 324.904C935.986 333.387 933.415 350.13 921.584 355.204C913.672 358.599 906.681 356.782 900.529 351.084C899.518 350.147 898.733 349.444 897.184 349.674C883.081 351.784 871.055 357.803 862.268 369.186C857.983 374.738 853.922 380.313 858.104 388.6C861.287 394.907 856.701 404.714 850.798 408.366C843.386 412.951 834.137 412.057 827.608 405.775C825.927 404.159 824.442 403.815 822.385 404.234C812.469 406.251 803.31 409.748 795.519 416.563C789.707 421.646 785.5 427.687 782.613 434.77C782.127 435.968 782.091 436.932 782.788 438.139C787.483 446.252 785.606 456.261 778.411 461.985C771.984 467.101 761.156 466.786 754.948 460.682C752.664 458.439 750.617 458.269 747.998 458.685C729.861 461.578 717.624 472.107 709.719 488.305C708.864 490.061 708.901 491.319 709.902 493.096C713.973 500.314 712.467 509.406 705.897 515.507C701.112 519.955 693.386 521.75 685.744 517.937C678.644 514.396 675.888 507.692 673.923 500.667C670.386 488.009 669.816 475.064 670.848 462.017C671.636 456.756 672.186 451.418 675.415 446.893ZM908.667 331.299C904.352 334.491 903.519 339.62 906.617 343.94C909.774 348.351 915.207 349.159 919.509 345.863C923.762 342.599 924.475 337.492 921.278 333.184C918.076 328.872 912.978 328.11 908.667 331.299ZM833.309 398.282C836.516 402.676 841.623 403.507 845.955 400.335C850.277 397.176 851.111 391.927 847.981 387.618C844.837 383.288 839.616 382.466 835.308 385.624C830.909 388.853 830.11 393.902 833.309 398.282ZM701.173 496.474C697.954 491.985 693.007 491.114 688.609 494.268C684.167 497.454 683.319 502.461 686.467 506.888C689.633 511.339 694.671 512.224 699.073 509.103C703.485 505.978 704.33 500.881 701.173 496.474ZM761.864 440.016C757.498 443.241 756.741 448.289 759.966 452.673C763.178 457.043 768.323 457.848 772.615 454.655C776.968 451.413 777.708 446.374 774.474 441.98C771.23 437.565 766.234 436.786 761.864 440.016Z" fill="#838383"/>
<path d="M870.929 359.038C867.783 361.507 864.883 364.404 862.273 367.782C857.989 373.335 853.927 378.909 858.109 387.196C861.292 393.503 856.706 403.311 850.803 406.962C843.391 411.547 834.142 410.654 827.613 404.372C825.932 402.756 824.447 402.412 822.39 402.831C812.474 404.847 803.315 408.344 795.524 415.159C789.712 420.242 785.506 426.284 782.618 433.367C782.132 434.565 782.096 435.528 782.793 436.736C787.488 444.848 785.611 454.858 778.416 460.581C771.989 465.698 761.161 465.382 754.953 459.279C752.669 457.036 750.622 456.865 748.003 457.281C729.866 460.174 717.629 470.703 709.724 486.901C708.869 488.658 708.906 489.915 709.907 491.693C713.978 498.911 712.472 508.003 705.902 514.103C701.117 518.552 693.391 520.346 685.749 516.534C678.649 512.992 675.893 506.289 673.928 499.264C670.391 486.605 669.821 473.66 670.853 460.614C669.854 461.283 668.842 461.934 667.852 462.616C640.015 481.862 642.02 523.677 671.57 540.25C689.248 550.164 710.339 547.421 725.487 533.238C739.8 519.837 743.575 498.946 735.05 480.436C734.776 479.844 733.857 479.27 734.799 478.466C751.535 493.088 770.366 497.146 789.618 485.438C814.063 470.572 818.487 448.594 807.1 422.644C822.46 438.359 844.437 441.948 862.504 431.69C873.505 425.444 881.13 416.342 884.671 404.032C887.868 392.921 886.548 382.292 882.072 371.992C881.057 369.823 880.435 368.28 879.135 365.771C873.698 356.884 875.811 356.672 870.929 359.038Z" fill="#BABABA"/>
<path d="M609.755 212.517C608.794 213.559 607.867 214.638 606.863 215.637C583.277 239.213 559.678 262.78 536.083 286.353C533.227 289.207 533.226 289.233 537.023 290.513C547.684 294.104 558.373 297.61 568.999 301.31C571.279 302.104 572.713 301.783 574.428 300.057C592.933 281.449 611.554 262.958 630.042 244.333C632.08 242.279 634.569 239.362 636.419 241.725C640.867 247.399 644.915 253.531 649.526 259.072C650.358 260.072 649.853 262.926 648.863 263.98C630.416 283.675 632.359 305.664 641.764 328.447C644.022 333.911 647.281 338.849 650.108 344.019C657.908 358.283 647.97 375.658 631.612 376.491C610.895 377.548 590.161 378.307 569.445 379.33C566.026 379.499 562.491 378.985 559.178 380.366C554.324 373.963 549.518 367.524 544.606 361.165C538.698 353.511 532.677 345.939 526.753 338.295C523.094 333.578 519.599 328.728 515.887 324.055C510.788 317.637 508.395 310.084 506.606 302.292C505.803 298.801 505.441 295.211 504.879 291.664C505.721 279.664 511.502 270.674 521.055 263.566C541.307 248.491 562.039 234.111 582.856 219.844C589.215 215.485 595.881 211.557 601.89 206.69C603.402 206.337 604.512 206.236 605.502 208.078C606.446 209.814 608.302 211.057 609.755 212.517ZM620.369 363.759C625.471 368.851 634.561 368.872 639.668 363.811C644.709 358.818 644.775 349.527 639.805 344.419C634.755 339.231 625.354 339.236 620.233 344.434C615.186 349.559 615.246 358.651 620.369 363.759Z" fill="#E6E6E6"/>
<path d="M579.408 187.439C574.759 193.624 569.248 199.06 564.139 204.84C547.413 223.753 530.798 242.756 514.816 262.316C507.274 271.543 503.853 281.674 505.949 293.519C497.564 287.437 489.43 281.028 481.626 274.223C474.329 267.866 473.412 258.796 478.662 250.237C494.911 223.748 514.193 199.756 536.865 178.494C545.632 170.271 556.35 168.555 564.131 174.587C567.747 177.391 571.21 180.405 574.719 183.346C576.306 184.681 577.844 186.075 579.408 187.439Z" fill="#B6B6B6"/>
<path d="M654.205 262.154C652.706 251.016 651.218 239.878 649.699 228.743C648.549 220.301 647.376 211.859 646.163 203.425C645.903 201.625 646.389 200.422 647.921 199.274C657.623 191.996 667.255 184.628 676.866 177.23C678.608 175.891 679.285 175.501 679.68 178.314C683.745 207.198 687.946 236.061 692.118 264.931C692.286 266.097 692.509 267.256 692.71 268.419C686.834 269.143 680.969 268.278 675.099 268.239C669.64 268.202 664.183 267.744 658.726 267.803C655.883 267.835 654.479 267.018 654.612 264.056C654.639 263.432 654.346 262.788 654.205 262.154Z" fill="#8A8A8A"/>
<path d="M725.912 246.442C727.892 249.535 728.483 253.157 729.676 256.541C731.531 261.803 733.222 267.123 734.955 272.426C736.827 278.159 735.214 283.304 731.099 284.823C725.719 286.812 719.423 283.765 717.414 277.978C714.69 270.124 712.155 262.202 709.539 254.312C714.738 251.14 720.44 249.03 725.912 246.442Z" fill="#8A8A8A"/>
<path d="M759.88 230.621C761.473 237.78 764.445 244.484 766.76 251.402C767.672 254.127 768.605 256.82 767.944 259.717C767.122 263.312 763.914 266.19 760.443 266.609C757.046 267.019 752.941 264.9 751.402 261.315C749.336 256.501 747.7 251.505 745.9 246.58C744.925 243.912 743.989 241.227 743.039 238.552C747.852 236.044 752.66 233.533 757.474 231.037C758.22 230.654 758.949 230.011 759.88 230.621Z" fill="#8A8A8A"/>
<path d="M908.662 331.3C912.976 328.111 918.071 328.873 921.272 333.185C924.47 337.494 923.757 342.601 919.503 345.864C915.206 349.163 909.773 348.352 906.611 343.942C903.514 339.621 904.347 334.492 908.662 331.3Z" fill="#FEFEFE"/>
<path d="M833.307 398.282C830.112 393.902 830.907 388.853 835.307 385.627C839.614 382.47 844.832 383.292 847.98 387.621C851.11 391.931 850.272 397.18 845.954 400.339C841.621 403.504 836.515 402.675 833.307 398.282Z" fill="#FEFEFE"/>
<path d="M701.168 496.474C704.328 500.881 703.48 505.978 699.071 509.103C694.666 512.224 689.627 511.339 686.465 506.887C683.317 502.46 684.166 497.457 688.608 494.268C693.001 491.114 697.948 491.984 701.168 496.474Z" fill="#FEFEFE"/>
<path d="M761.864 440.015C766.23 436.786 771.23 437.567 774.477 441.979C777.711 446.373 776.971 451.411 772.618 454.653C768.327 457.85 763.182 457.042 759.969 452.672C756.744 448.288 757.502 443.239 761.864 440.015Z" fill="#FEFEFE"/>
<path d="M620.364 363.759C615.241 358.651 615.181 349.558 620.232 344.433C625.353 339.236 634.754 339.23 639.804 344.418C644.774 349.527 644.708 358.818 639.667 363.81C634.556 368.872 625.465 368.847 620.364 363.759Z" fill="#8A8A8A"/>
<path d="M471.434 330.08C466.311 324.972 466.251 315.88 471.302 310.754C476.423 305.557 485.824 305.552 490.875 310.74C495.844 315.848 495.779 325.139 490.738 330.132C485.627 335.197 476.536 335.172 471.434 330.08Z" fill="#8A8A8A"/>
<path d="M949.526 353.839C926.551 364.72 916.737 392.205 927.604 415.232C938.474 438.26 965.908 448.107 988.883 437.23C1011.86 426.349 1021.67 398.864 1010.81 375.837C999.935 352.806 972.501 342.958 949.526 353.839ZM976.844 411.719C967.926 415.944 957.274 412.119 953.053 403.182C948.832 394.244 952.644 383.571 961.561 379.347C970.479 375.122 981.131 378.946 985.352 387.884C989.573 396.826 985.765 407.498 976.844 411.719Z" fill="#BABABA"/>
<g clip-path="url(#clip0)">
<path d="M906.501 464.313C905.137 465.582 903.442 466.455 901.63 466.936C900.399 467.265 899.106 467.41 897.826 467.37C894.982 467.286 892.176 466.297 890.143 464.397C885.84 460.374 885.846 453.157 890.159 449.049C891.567 447.711 893.351 446.794 895.262 446.305C896.499 445.988 897.788 445.851 899.069 445.894C901.945 445.988 904.753 446.992 906.744 448.91C910.922 452.936 910.804 460.312 906.501 464.313Z" fill="#898989"/>
<path d="M899.069 445.894L901.63 466.936C900.399 467.265 899.106 467.41 897.825 467.37L895.262 446.305C896.499 445.988 897.788 445.851 899.069 445.894Z" fill="#757575"/>
</g>
<g clip-path="url(#clip1)">
<path d="M926.152 295.235C924.29 295.177 922.472 294.606 920.846 293.673C919.739 293.041 918.718 292.235 917.835 291.306C915.874 289.246 914.574 286.569 914.466 283.789C914.236 277.902 919.317 272.777 925.271 272.89C927.214 272.929 929.127 273.532 930.829 274.529C931.932 275.173 932.944 275.983 933.824 276.915C935.803 279.003 937.092 281.693 937.159 284.456C937.297 290.257 932.026 295.417 926.152 295.235Z" fill="#898989"/>
<path d="M933.824 276.913L920.845 293.671C919.738 293.039 918.717 292.233 917.835 291.304L930.828 274.527C931.931 275.171 932.944 275.981 933.824 276.913Z" fill="#757575"/>
</g>
<g clip-path="url(#clip2)">
<path d="M794.827 175.708C793.712 175.674 792.623 175.332 791.649 174.773C790.986 174.395 790.375 173.912 789.846 173.356C788.672 172.122 787.893 170.519 787.829 168.854C787.691 165.328 790.734 162.259 794.3 162.327C795.463 162.35 796.609 162.711 797.628 163.308C798.288 163.694 798.895 164.179 799.422 164.737C800.607 165.988 801.379 167.598 801.419 169.253C801.502 172.727 798.345 175.818 794.827 175.708Z" fill="#898989"/>
<path d="M799.423 164.735L791.65 174.771C790.988 174.392 790.376 173.91 789.848 173.353L797.629 163.306C798.289 163.692 798.896 164.177 799.423 164.735Z" fill="#757575"/>
</g>
<path d="M687.774 406.079L707.179 386.694L711.691 393.757L695.338 409.991L687.774 406.079Z" fill="#8C8C8C"/>
<path d="M790.544 303.375L809.953 283.99L814.461 291.053L798.111 307.286L790.544 303.375Z" fill="#8C8C8C"/>
<path d="M914.204 214.848L914.232 211.107L916.575 211.13L916.589 209.296L918.018 209.31L918.383 160.823L918.413 156.736C918.436 153.71 916.001 151.233 912.975 151.204L908.888 151.165L830.019 150.41L822.982 153.86C821.938 154.37 821.927 155.857 822.963 156.387L829.948 159.971L905.496 160.694C907.33 160.712 908.803 162.21 908.789 164.044L908.451 209.213L910.505 209.233L910.492 211.066L912.835 211.088L912.807 214.829L914.204 214.848Z" fill="#B4B4B4"/>
<path d="M1118.16 323.281L1099.52 245.294C1099.06 243.357 1100.25 241.41 1102.18 240.944L1115.51 237.729C1117.45 237.263 1119.39 238.454 1119.85 240.392L1138.5 318.378C1138.96 320.316 1137.77 322.263 1135.83 322.729L1122.5 325.944C1120.57 326.411 1118.63 325.219 1118.16 323.281Z" fill="#747474"/>
<path d="M1112.07 272.891L1036.32 291.153L1040.84 310.045L1116.58 291.783L1112.07 272.891Z" fill="#747474"/>
<path d="M1024.83 313.582L1020.45 295.302C1019.91 292.996 1021.32 290.68 1023.63 290.123L1043.25 285.39C1045.56 284.836 1047.87 286.253 1048.42 288.56L1052.79 306.84C1053.34 309.146 1051.92 311.462 1049.62 312.018L1029.99 316.752C1027.69 317.305 1025.38 315.884 1024.83 313.582Z" fill="#747474"/>
<path d="M1102 240.988L1100.2 233.466C1099.67 231.21 1101.05 228.94 1103.31 228.395L1109.59 226.879C1111.84 226.337 1114.11 227.726 1114.65 229.983L1116.45 237.505L1102 240.988Z" fill="#B4B4B4"/>
<path d="M1124.08 333.317L1122.32 325.989L1136.77 322.506L1138.52 329.834C1139.06 332.089 1137.67 334.359 1135.41 334.905L1129.13 336.421C1126.88 336.962 1124.61 335.572 1124.08 333.317Z" fill="#B4B4B4"/>
<path d="M1014.53 298.75L1020.91 297.212L1024.36 311.675L1017.98 313.212C1015.73 313.755 1013.47 312.365 1012.92 310.108L1011.42 303.819C1010.88 301.565 1012.27 299.295 1014.53 298.75Z" fill="#B4B4B4"/>
<path d="M1058.12 285.891L1055.5 286.522L1060.02 305.414L1062.64 304.782L1058.12 285.891Z" fill="#666666"/>
<path d="M1062.72 284.787L1060.1 285.419L1064.61 304.31L1067.23 303.678L1062.72 284.787Z" fill="#666666"/>
<path d="M1067.3 283.68L1064.68 284.312L1069.2 303.203L1071.82 302.571L1067.3 283.68Z" fill="#666666"/>
<path d="M1095.2 276.954L1092.58 277.586L1097.09 296.477L1099.71 295.845L1095.2 276.954Z" fill="#666666"/>
<path d="M1099.79 275.848L1097.17 276.479L1101.69 295.371L1104.31 294.739L1099.79 275.848Z" fill="#666666"/>
<path d="M1104.36 274.742L1101.74 275.374L1106.26 294.265L1108.88 293.633L1104.36 274.742Z" fill="#666666"/>
<defs>
<filter id="filter0_d" x="0" y="0" width="1591.74" height="684.138" filterUnits="userSpaceOnUse" color-interpolation-filters="sRGB">
<feFlood flood-opacity="0" result="BackgroundImageFix"/>
<feColorMatrix in="SourceAlpha" type="matrix" values="0 0 0 0 0 0 0 0 0 0 0 0 0 0 0 0 0 0 127 0" result="hardAlpha"/>
<feOffset dy="4"/>
<feGaussianBlur stdDeviation="44"/>
<feColorMatrix type="matrix" values="0 0 0 0 0.887294 0 0 0 0 0.855 0 0 0 0 0.9 0 0 0 0.51 0"/>
<feBlend mode="normal" in2="BackgroundImageFix" result="effect1_dropShadow"/>
<feBlend mode="normal" in="SourceGraphic" in2="effect1_dropShadow" result="shape"/>
</filter>
<clipPath id="clip0">
<rect width="22.9199" height="21.4874" fill="white" transform="translate(885.693 447.354) rotate(-6.9396)"/>
</clipPath>
<clipPath id="clip1">
<rect width="22.9199" height="21.4874" fill="white" transform="translate(923.287 268.542) rotate(37.756)"/>
</clipPath>
<clipPath id="clip2">
<rect width="13.7261" height="12.8682" fill="white" transform="translate(793.111 159.722) rotate(37.756)"/>
</clipPath>
</defs>
</svg>
