<svg width="768" height="39" viewBox="0 0 768 39" fill="none" xmlns="http://www.w3.org/2000/svg">
<path d="M0.5 7C0.5 3.41015 3.41015 0.5 7 0.5H761C764.59 0.5 767.5 3.41015 767.5 7V38.5H0.5V7Z" fill="url(#paint0_linear)" stroke="#D1D1D1"/>
<rect x="739.347" y="10" width="2.83346" height="17.5269" fill="#B9B9B9"/>
<rect x="749.527" y="17.3464" width="2.83346" height="17.5269" transform="rotate(90 749.527 17.3464)" fill="#B9B9B9"/>
<rect x="99" y="6" width="550" height="26" fill="white"/>
<path d="M327.235 23.8084C326.518 23.8084 325.828 23.6934 325.166 23.4635C324.513 23.2335 324.007 22.93 323.648 22.553L324.048 21.7666C324.398 22.1161 324.862 22.4012 325.442 22.6219C326.021 22.8335 326.619 22.9392 327.235 22.9392C328.1 22.9392 328.748 22.7829 329.18 22.4702C329.613 22.1483 329.829 21.7344 329.829 21.2286C329.829 20.8423 329.709 20.5342 329.47 20.3043C329.24 20.0744 328.955 19.8996 328.615 19.7801C328.274 19.6513 327.801 19.5134 327.194 19.3662C326.467 19.1823 325.888 19.0075 325.456 18.842C325.023 18.6672 324.651 18.4051 324.338 18.0556C324.035 17.7061 323.883 17.2325 323.883 16.6347C323.883 16.1473 324.012 15.7058 324.269 15.3103C324.527 14.9057 324.922 14.5838 325.456 14.3446C325.989 14.1055 326.651 13.986 327.442 13.986C327.994 13.986 328.532 14.0641 329.056 14.2205C329.59 14.3676 330.05 14.5746 330.436 14.8413L330.091 15.6552C329.686 15.3885 329.254 15.1908 328.794 15.062C328.334 14.9241 327.884 14.8551 327.442 14.8551C326.596 14.8551 325.957 15.0206 325.525 15.3517C325.102 15.6736 324.89 16.0921 324.89 16.6071C324.89 16.9934 325.005 17.3061 325.235 17.5452C325.474 17.7751 325.768 17.9545 326.118 18.0832C326.476 18.2028 326.955 18.3361 327.553 18.4833C328.261 18.658 328.831 18.8328 329.263 19.0075C329.705 19.1731 330.077 19.4306 330.381 19.7801C330.684 20.1204 330.836 20.5848 330.836 21.1734C330.836 21.6609 330.702 22.1069 330.436 22.5116C330.178 22.9071 329.778 23.2243 329.236 23.4635C328.693 23.6934 328.026 23.8084 327.235 23.8084ZM335.543 20.0836L333.833 21.6563V23.7256H332.853V13.4893H333.833V20.4285L338.164 16.4692H339.378L336.275 19.4352L339.668 23.7256H338.468L335.543 20.0836ZM343.542 16.414C344.49 16.414 345.216 16.6531 345.722 17.1313C346.228 17.6004 346.481 18.2994 346.481 19.2283V23.7256H345.543V22.5944C345.322 22.9714 344.995 23.2657 344.563 23.4773C344.14 23.6888 343.634 23.7946 343.046 23.7946C342.236 23.7946 341.592 23.6014 341.114 23.2152C340.636 22.8289 340.397 22.3184 340.397 21.6839C340.397 21.0677 340.618 20.571 341.059 20.1939C341.51 19.8169 342.222 19.6283 343.197 19.6283H345.501V19.1869C345.501 18.5615 345.326 18.0878 344.977 17.7659C344.628 17.4348 344.117 17.2693 343.446 17.2693C342.986 17.2693 342.544 17.3475 342.121 17.5038C341.698 17.651 341.335 17.8579 341.031 18.1246L340.59 17.3934C340.958 17.0808 341.399 16.8416 341.914 16.6761C342.429 16.5013 342.972 16.414 343.542 16.414ZM343.197 23.022C343.749 23.022 344.223 22.8979 344.618 22.6495C345.014 22.392 345.308 22.0241 345.501 21.5459V20.3595H343.225C341.983 20.3595 341.363 20.7917 341.363 21.6563C341.363 22.0793 341.524 22.415 341.845 22.6633C342.167 22.9025 342.618 23.022 343.197 23.022ZM352.962 23.2841C352.778 23.4497 352.549 23.5784 352.273 23.6704C352.006 23.7532 351.725 23.7946 351.431 23.7946C350.751 23.7946 350.226 23.6106 349.858 23.2427C349.491 22.8749 349.307 22.3552 349.307 21.6839V17.2969H348.01V16.4692H349.307V14.8827H350.286V16.4692H352.493V17.2969H350.286V21.6287C350.286 22.0609 350.392 22.392 350.603 22.6219C350.824 22.8427 351.137 22.953 351.541 22.953C351.744 22.953 351.937 22.9208 352.121 22.8565C352.314 22.7921 352.48 22.7001 352.618 22.5806L352.962 23.2841ZM360.808 20.4009H354.738C354.793 21.155 355.083 21.7666 355.607 22.2357C356.131 22.6955 356.793 22.9254 357.594 22.9254C358.044 22.9254 358.458 22.8473 358.835 22.6909C359.212 22.5254 359.539 22.2863 359.815 21.9736L360.366 22.6082C360.045 22.9944 359.64 23.2887 359.152 23.4911C358.674 23.6934 358.145 23.7946 357.566 23.7946C356.821 23.7946 356.159 23.6382 355.579 23.3255C355.009 23.0036 354.563 22.5622 354.241 22.0011C353.919 21.4401 353.758 20.8055 353.758 20.0974C353.758 19.3892 353.91 18.7546 354.214 18.1936C354.526 17.6326 354.949 17.1957 355.483 16.883C356.025 16.5703 356.632 16.414 357.304 16.414C357.975 16.414 358.578 16.5703 359.111 16.883C359.644 17.1957 360.063 17.6326 360.366 18.1936C360.67 18.7454 360.822 19.38 360.822 20.0974L360.808 20.4009ZM357.304 17.2555C356.605 17.2555 356.016 17.4808 355.538 17.9315C355.069 18.3729 354.802 18.9523 354.738 19.6697H359.884C359.819 18.9523 359.548 18.3729 359.07 17.9315C358.601 17.4808 358.012 17.2555 357.304 17.2555ZM362.412 19.5593H366.026V20.4147H362.412V19.5593ZM369.856 14.9516H366.463V14.0687H374.271V14.9516H370.877V23.7256H369.856V14.9516ZM377.906 23.7946C377.207 23.7946 376.577 23.6382 376.016 23.3255C375.455 23.0036 375.014 22.5622 374.692 22.0011C374.37 21.4401 374.209 20.8055 374.209 20.0974C374.209 19.3892 374.37 18.7546 374.692 18.1936C375.014 17.6326 375.455 17.1957 376.016 16.883C376.577 16.5703 377.207 16.414 377.906 16.414C378.605 16.414 379.235 16.5703 379.796 16.883C380.357 17.1957 380.794 17.6326 381.107 18.1936C381.429 18.7546 381.59 19.3892 381.59 20.0974C381.59 20.8055 381.429 21.4401 381.107 22.0011C380.794 22.5622 380.357 23.0036 379.796 23.3255C379.235 23.6382 378.605 23.7946 377.906 23.7946ZM377.906 22.9254C378.421 22.9254 378.881 22.8105 379.286 22.5806C379.7 22.3414 380.022 22.0057 380.252 21.5735C380.481 21.1412 380.596 20.6492 380.596 20.0974C380.596 19.5455 380.481 19.0535 380.252 18.6212C380.022 18.189 379.7 17.8579 379.286 17.628C378.881 17.3889 378.421 17.2693 377.906 17.2693C377.391 17.2693 376.927 17.3889 376.513 17.628C376.108 17.8579 375.786 18.189 375.547 18.6212C375.317 19.0535 375.202 19.5455 375.202 20.0974C375.202 20.6492 375.317 21.1412 375.547 21.5735C375.786 22.0057 376.108 22.3414 376.513 22.5806C376.927 22.8105 377.391 22.9254 377.906 22.9254ZM394.037 16.4692L391.292 23.7256H390.368L388.078 17.7797L385.788 23.7256H384.863L382.132 16.4692H383.07L385.346 22.6357L387.678 16.4692H388.519L390.837 22.6357L393.141 16.4692H394.037ZM399.209 16.414C400.12 16.414 400.842 16.6807 401.375 17.2141C401.918 17.7383 402.189 18.5063 402.189 19.518V23.7256H401.21V19.6145C401.21 18.8604 401.021 18.2856 400.644 17.8901C400.267 17.4946 399.729 17.2969 399.03 17.2969C398.248 17.2969 397.628 17.5314 397.168 18.0005C396.717 18.4603 396.492 19.0995 396.492 19.918V23.7256H395.512V16.4692H396.45V17.8073C396.717 17.3659 397.085 17.0256 397.554 16.7864C398.032 16.5381 398.584 16.414 399.209 16.414ZM404.945 23.7946C404.743 23.7946 404.568 23.721 404.421 23.5738C404.283 23.4267 404.214 23.2473 404.214 23.0358C404.214 22.8243 404.283 22.6495 404.421 22.5116C404.568 22.3644 404.743 22.2909 404.945 22.2909C405.147 22.2909 405.322 22.3644 405.469 22.5116C405.616 22.6495 405.69 22.8243 405.69 23.0358C405.69 23.2473 405.616 23.4267 405.469 23.5738C405.322 23.721 405.147 23.7946 404.945 23.7946ZM408.71 17.8901C408.94 17.4026 409.28 17.0348 409.731 16.7864C410.191 16.5381 410.756 16.414 411.428 16.414V17.3659L411.193 17.3521C410.43 17.3521 409.832 17.5866 409.4 18.0556C408.968 18.5247 408.751 19.1823 408.751 20.0284V23.7256H407.772V16.4692H408.71V17.8901ZM419.848 16.4692V23.7256H418.91V22.4012C418.652 22.8427 418.298 23.1876 417.848 23.4359C417.397 23.675 416.882 23.7946 416.303 23.7946C415.355 23.7946 414.606 23.5324 414.054 23.0082C413.511 22.4748 413.24 21.6976 413.24 20.6768V16.4692H414.22V20.5802C414.22 21.3436 414.408 21.923 414.785 22.3184C415.162 22.7139 415.7 22.9117 416.399 22.9117C417.163 22.9117 417.765 22.6817 418.206 22.2219C418.648 21.7528 418.869 21.1044 418.869 20.2767V16.4692H419.848Z" fill="#484848"/>
<circle cx="28.3773" cy="19.0031" r="7.37729" fill="#B9B9B9"/>
<circle cx="46.6439" cy="19.0028" r="7.37729" fill="#B9B9B9"/>
<circle cx="64.9115" cy="19.0028" r="7.37729" fill="#B9B9B9"/>
<defs>
<linearGradient id="paint0_linear" x1="384" y1="0" x2="384" y2="39" gradientUnits="userSpaceOnUse">
<stop offset="0.0001" stop-color="#F1F1F1"/>
<stop offset="0.0002" stop-color="#F9F9F9"/>
<stop offset="1" stop-color="#E9E9E9"/>
</linearGradient>
</defs>
</svg>
