<svg width="831" height="34" viewBox="0 0 831 34" fill="none" xmlns="http://www.w3.org/2000/svg">
<path d="M0.623047 6.24514C0.623047 3.25934 3.04352 0.838867 6.02932 0.838867H824.743C827.729 0.838867 830.149 3.25934 830.149 6.24514V33.5247H0.623047V6.24514Z" fill="url(#paint0_linear)"/>
<rect x="109.057" y="5.55322" width="674.489" height="22.51" fill="#F0E1F7"/>
<path d="M133.332 20.9267C132.73 20.9267 132.15 20.8301 131.594 20.6371C131.046 20.444 130.621 20.1891 130.32 19.8725L130.656 19.2121C130.949 19.5056 131.339 19.745 131.826 19.9304C132.312 20.108 132.814 20.1968 133.332 20.1968C134.058 20.1968 134.602 20.0655 134.965 19.803C135.328 19.5326 135.51 19.1851 135.51 18.7603C135.51 18.4359 135.41 18.1772 135.209 17.9841C135.016 17.791 134.776 17.6443 134.49 17.5439C134.205 17.4358 133.807 17.3199 133.297 17.1964C132.687 17.0419 132.2 16.8952 131.837 16.7561C131.475 16.6094 131.162 16.3893 130.899 16.0958C130.644 15.8023 130.517 15.4046 130.517 14.9026C130.517 14.4932 130.625 14.1225 130.841 13.7904C131.057 13.4506 131.39 13.1803 131.837 12.9795C132.285 12.7787 132.842 12.6783 133.506 12.6783C133.969 12.6783 134.421 12.7439 134.861 12.8752C135.309 12.9988 135.695 13.1725 136.02 13.3965L135.73 14.08C135.39 13.8561 135.027 13.69 134.641 13.5819C134.255 13.466 133.876 13.4081 133.506 13.4081C132.795 13.4081 132.258 13.5471 131.895 13.8252C131.54 14.0955 131.363 14.4469 131.363 14.8794C131.363 15.2038 131.459 15.4664 131.652 15.6672C131.853 15.8602 132.1 16.0108 132.394 16.119C132.695 16.2194 133.096 16.3314 133.598 16.4549C134.193 16.6017 134.672 16.7484 135.035 16.8952C135.406 17.0342 135.718 17.2504 135.973 17.5439C136.228 17.8297 136.356 18.2197 136.356 18.714C136.356 19.1233 136.244 19.4979 136.02 19.8377C135.803 20.1698 135.467 20.4363 135.012 20.6371C134.556 20.8301 133.996 20.9267 133.332 20.9267ZM140.309 17.7988L138.872 19.1194V20.8572H138.05V12.2612H138.872V18.0884L142.51 14.7635H143.529L140.923 17.2543L143.773 20.8572H142.765L140.309 17.7988ZM147.026 14.7172C147.821 14.7172 148.432 14.918 148.856 15.3196C149.281 15.7135 149.493 16.3005 149.493 17.0805V20.8572H148.706V19.9072C148.52 20.2239 148.246 20.471 147.883 20.6487C147.528 20.8263 147.103 20.9151 146.609 20.9151C145.929 20.9151 145.389 20.7529 144.987 20.4285C144.585 20.1042 144.385 19.6755 144.385 19.1426C144.385 18.6252 144.57 18.2081 144.941 17.8915C145.319 17.5748 145.918 17.4165 146.736 17.4165H148.671V17.0458C148.671 16.5206 148.524 16.1228 148.231 15.8525C147.937 15.5745 147.509 15.4355 146.945 15.4355C146.559 15.4355 146.188 15.5011 145.833 15.6324C145.477 15.756 145.172 15.9297 144.917 16.1537L144.547 15.5397C144.856 15.2771 145.226 15.0763 145.659 14.9373C146.091 14.7906 146.547 14.7172 147.026 14.7172ZM146.736 20.2663C147.2 20.2663 147.597 20.1621 147.93 19.9536C148.262 19.7373 148.509 19.4284 148.671 19.0268V18.0305H146.759C145.717 18.0305 145.195 18.3935 145.195 19.1194C145.195 19.4747 145.331 19.7566 145.601 19.9651C145.871 20.1659 146.25 20.2663 146.736 20.2663ZM154.937 20.4865C154.782 20.6255 154.589 20.7336 154.357 20.8108C154.133 20.8803 153.898 20.9151 153.651 20.9151C153.079 20.9151 152.639 20.7606 152.33 20.4517C152.021 20.1428 151.867 19.7064 151.867 19.1426V15.4586H150.778V14.7635H151.867V13.4313H152.689V14.7635H154.543V15.4586H152.689V19.0963C152.689 19.4593 152.778 19.7373 152.956 19.9304C153.141 20.1157 153.403 20.2084 153.743 20.2084C153.913 20.2084 154.075 20.1814 154.23 20.1273C154.392 20.0733 154.531 19.996 154.647 19.8956L154.937 20.4865ZM161.525 18.0652H156.427C156.474 18.6985 156.717 19.2121 157.157 19.606C157.598 19.9922 158.154 20.1853 158.826 20.1853C159.204 20.1853 159.552 20.1196 159.868 19.9883C160.185 19.8493 160.459 19.6485 160.691 19.3859L161.154 19.9188C160.884 20.2432 160.544 20.4903 160.135 20.6602C159.733 20.8301 159.289 20.9151 158.802 20.9151C158.177 20.9151 157.621 20.7838 157.134 20.5212C156.655 20.2509 156.281 19.8802 156.01 19.4091C155.74 18.938 155.605 18.405 155.605 17.8104C155.605 17.2157 155.732 16.6828 155.987 16.2116C156.25 15.7405 156.605 15.3737 157.053 15.1111C157.509 14.8485 158.018 14.7172 158.582 14.7172C159.146 14.7172 159.652 14.8485 160.1 15.1111C160.548 15.3737 160.899 15.7405 161.154 16.2116C161.409 16.675 161.536 17.2079 161.536 17.8104L161.525 18.0652ZM158.582 15.4239C157.995 15.4239 157.501 15.6131 157.099 15.9915C156.706 16.3622 156.482 16.8488 156.427 17.4512H160.749C160.695 16.8488 160.467 16.3622 160.065 15.9915C159.671 15.6131 159.177 15.4239 158.582 15.4239ZM162.872 17.3585H165.907V18.0768H162.872V17.3585ZM169.123 13.4892H166.273V12.7478H172.83V13.4892H169.981V20.8572H169.123V13.4892ZM175.883 20.9151C175.296 20.9151 174.767 20.7838 174.296 20.5212C173.825 20.2509 173.454 19.8802 173.184 19.4091C172.914 18.938 172.779 18.405 172.779 17.8104C172.779 17.2157 172.914 16.6828 173.184 16.2116C173.454 15.7405 173.825 15.3737 174.296 15.1111C174.767 14.8485 175.296 14.7172 175.883 14.7172C176.47 14.7172 176.999 14.8485 177.47 15.1111C177.942 15.3737 178.308 15.7405 178.571 16.2116C178.841 16.6828 178.977 17.2157 178.977 17.8104C178.977 18.405 178.841 18.938 178.571 19.4091C178.308 19.8802 177.942 20.2509 177.47 20.5212C176.999 20.7838 176.47 20.9151 175.883 20.9151ZM175.883 20.1853C176.316 20.1853 176.702 20.0887 177.042 19.8956C177.389 19.6948 177.66 19.4129 177.853 19.0499C178.046 18.6869 178.142 18.2738 178.142 17.8104C178.142 17.347 178.046 16.9338 177.853 16.5708C177.66 16.2078 177.389 15.9297 177.042 15.7367C176.702 15.5359 176.316 15.4355 175.883 15.4355C175.451 15.4355 175.061 15.5359 174.713 15.7367C174.373 15.9297 174.103 16.2078 173.902 16.5708C173.709 16.9338 173.613 17.347 173.613 17.8104C173.613 18.2738 173.709 18.6869 173.902 19.0499C174.103 19.4129 174.373 19.6948 174.713 19.8956C175.061 20.0887 175.451 20.1853 175.883 20.1853ZM189.43 14.7635L187.124 20.8572H186.348L184.425 15.8641L182.502 20.8572H181.726L179.432 14.7635H180.22L182.131 19.942L184.089 14.7635H184.796L186.742 19.942L188.677 14.7635H189.43ZM193.773 14.7172C194.537 14.7172 195.144 14.9412 195.592 15.3891C196.047 15.8293 196.275 16.4742 196.275 17.3238V20.8572H195.453V17.4049C195.453 16.7716 195.294 16.2889 194.978 15.9568C194.661 15.6247 194.209 15.4586 193.622 15.4586C192.966 15.4586 192.444 15.6556 192.058 16.0495C191.68 16.4356 191.491 16.9724 191.491 17.6598V20.8572H190.668V14.7635H191.456V15.8873C191.68 15.5166 191.989 15.2308 192.383 15.03C192.784 14.8215 193.248 14.7172 193.773 14.7172ZM198.589 20.9151C198.419 20.9151 198.273 20.8533 198.149 20.7297C198.033 20.6062 197.975 20.4556 197.975 20.2779C197.975 20.1003 198.033 19.9536 198.149 19.8377C198.273 19.7141 198.419 19.6524 198.589 19.6524C198.759 19.6524 198.906 19.7141 199.03 19.8377C199.153 19.9536 199.215 20.1003 199.215 20.2779C199.215 20.4556 199.153 20.6062 199.03 20.7297C198.906 20.8533 198.759 20.9151 198.589 20.9151ZM201.751 15.9568C201.944 15.5474 202.23 15.2385 202.608 15.03C202.994 14.8215 203.469 14.7172 204.033 14.7172V15.5166L203.836 15.505C203.195 15.505 202.693 15.7019 202.33 16.0958C201.967 16.4897 201.786 17.0419 201.786 17.7524V20.8572H200.963V14.7635H201.751V15.9568ZM211.104 14.7635V20.8572H210.317V19.745C210.1 20.1157 209.803 20.4054 209.424 20.6139C209.046 20.8147 208.614 20.9151 208.127 20.9151C207.331 20.9151 206.702 20.695 206.239 20.2548C205.783 19.8068 205.555 19.1542 205.555 18.2969V14.7635H206.378V18.2158C206.378 18.8569 206.536 19.3434 206.853 19.6755C207.169 20.0076 207.621 20.1737 208.208 20.1737C208.849 20.1737 209.355 19.9806 209.726 19.5944C210.096 19.2005 210.282 18.6561 210.282 17.961V14.7635H211.104Z" fill="#484848"/>
<circle cx="20.0799" cy="16.8082" r="6.19513" fill="#F0E1F7"/>
<circle cx="35.4217" cy="16.8082" r="6.19513" fill="#F0E1F7"/>
<circle cx="50.7596" cy="16.8079" r="6.19513" fill="#F0E1F7"/>
<rect x="807.02" y="9.44922" width="2.37942" height="14.7183" fill="#F0E1F7"/>
<rect x="815.57" y="15.6187" width="2.37942" height="14.7183" transform="rotate(90 815.57 15.6187)" fill="#F0E1F7"/>
<defs>
<linearGradient id="paint0_linear" x1="415.386" y1="0.838867" x2="415.386" y2="33.5247" gradientUnits="userSpaceOnUse">
<stop stop-color="#CF9AE3"/>
<stop offset="1" stop-color="#A86BC0"/>
</linearGradient>
</defs>
</svg>
