<svg width="417" height="33" viewBox="0 0 417 33" fill="none" xmlns="http://www.w3.org/2000/svg">
<path d="M0 5.40627C0 2.42047 2.42047 0 5.40627 0H411.594C414.58 0 417 2.42047 417 5.40627V33H0V5.40627Z" fill="url(#paint0_linear)"/>
<rect x="71" y="5" width="272" height="22" fill="#F0E1F7"/>
<path d="M95.2753 19.9269C94.6729 19.9269 94.0936 19.8304 93.5376 19.6373C92.9892 19.4442 92.5644 19.1894 92.2632 18.8727L92.5992 18.2124C92.8927 18.5059 93.2827 18.7453 93.7693 18.9306C94.2558 19.1083 94.7578 19.1971 95.2753 19.1971C96.0013 19.1971 96.5458 19.0658 96.9088 18.8032C97.2718 18.5329 97.4533 18.1853 97.4533 17.7606C97.4533 17.4362 97.3529 17.1775 97.1521 16.9844C96.959 16.7913 96.7196 16.6446 96.4338 16.5441C96.148 16.436 95.7503 16.3202 95.2406 16.1966C94.6304 16.0421 94.1439 15.8954 93.7809 15.7564C93.4179 15.6096 93.1051 15.3895 92.8425 15.096C92.5876 14.8026 92.4602 14.4048 92.4602 13.9028C92.4602 13.4935 92.5683 13.1227 92.7846 12.7906C93.0008 12.4508 93.3329 12.1805 93.7809 11.9797C94.2288 11.7789 94.7849 11.6785 95.4491 11.6785C95.9125 11.6785 96.3643 11.7441 96.8045 11.8754C97.2525 11.999 97.6386 12.1728 97.963 12.3968L97.6734 13.0803C97.3336 12.8563 96.9706 12.6902 96.5844 12.5821C96.1982 12.4663 95.8198 12.4083 95.4491 12.4083C94.7385 12.4083 94.2018 12.5474 93.8388 12.8254C93.4835 13.0957 93.3059 13.4471 93.3059 13.8796C93.3059 14.204 93.4024 14.4666 93.5955 14.6674C93.7963 14.8605 94.0434 15.0111 94.3369 15.1192C94.6381 15.2196 95.0397 15.3316 95.5418 15.4552C96.1364 15.6019 96.6153 15.7487 96.9783 15.8954C97.349 16.0344 97.6618 16.2507 97.9167 16.5441C98.1715 16.8299 98.299 17.2199 98.299 17.7142C98.299 18.1236 98.187 18.4981 97.963 18.838C97.7467 19.1701 97.4108 19.4365 96.9551 19.6373C96.4994 19.8304 95.9395 19.9269 95.2753 19.9269ZM102.252 16.799L100.816 18.1197V19.8574H99.9931V11.2614H100.816V17.0886L104.453 13.7638H105.473L102.866 16.2545L105.716 19.8574H104.708L102.252 16.799ZM108.969 13.7174C109.765 13.7174 110.375 13.9182 110.8 14.3199C111.224 14.7137 111.437 15.3007 111.437 16.0808V19.8574H110.649V18.9075C110.464 19.2241 110.19 19.4713 109.827 19.6489C109.471 19.8265 109.046 19.9153 108.552 19.9153C107.873 19.9153 107.332 19.7532 106.93 19.4288C106.529 19.1044 106.328 18.6758 106.328 18.1429C106.328 17.6254 106.513 17.2083 106.884 16.8917C107.262 16.575 107.861 16.4167 108.68 16.4167H110.614V16.046C110.614 15.5208 110.468 15.1231 110.174 14.8528C109.881 14.5747 109.452 14.4357 108.888 14.4357C108.502 14.4357 108.131 14.5013 107.776 14.6326C107.421 14.7562 107.116 14.93 106.861 15.154L106.49 14.54C106.799 14.2774 107.17 14.0766 107.602 13.9376C108.035 13.7908 108.49 13.7174 108.969 13.7174ZM108.68 19.2666C109.143 19.2666 109.541 19.1623 109.873 18.9538C110.205 18.7376 110.452 18.4286 110.614 18.027V17.0307H108.703C107.66 17.0307 107.139 17.3937 107.139 18.1197C107.139 18.475 107.274 18.7569 107.544 18.9654C107.815 19.1662 108.193 19.2666 108.68 19.2666ZM116.88 19.4867C116.725 19.6257 116.532 19.7338 116.301 19.8111C116.077 19.8806 115.841 19.9153 115.594 19.9153C115.022 19.9153 114.582 19.7609 114.273 19.452C113.964 19.143 113.81 18.7067 113.81 18.1429V14.4589H112.721V13.7638H113.81V12.4315H114.632V13.7638H116.486V14.4589H114.632V18.0965C114.632 18.4595 114.721 18.7376 114.899 18.9306C115.084 19.116 115.347 19.2087 115.687 19.2087C115.857 19.2087 116.019 19.1816 116.173 19.1276C116.335 19.0735 116.474 18.9963 116.59 18.8959L116.88 19.4867ZM123.468 17.0655H118.371C118.417 17.6988 118.66 18.2124 119.101 18.6063C119.541 18.9924 120.097 19.1855 120.769 19.1855C121.147 19.1855 121.495 19.1199 121.812 18.9886C122.128 18.8495 122.402 18.6487 122.634 18.3861L123.097 18.919C122.827 19.2434 122.487 19.4906 122.078 19.6605C121.676 19.8304 121.232 19.9153 120.746 19.9153C120.12 19.9153 119.564 19.7841 119.078 19.5215C118.599 19.2511 118.224 18.8804 117.954 18.4093C117.683 17.9382 117.548 17.4053 117.548 16.8106C117.548 16.2159 117.676 15.683 117.931 15.2119C118.193 14.7408 118.548 14.3739 118.996 14.1113C119.452 13.8487 119.962 13.7174 120.526 13.7174C121.089 13.7174 121.595 13.8487 122.043 14.1113C122.491 14.3739 122.843 14.7408 123.097 15.2119C123.352 15.6753 123.48 16.2082 123.48 16.8106L123.468 17.0655ZM120.526 14.4241C119.939 14.4241 119.444 14.6133 119.043 14.9918C118.649 15.3625 118.425 15.8491 118.371 16.4515H122.692C122.638 15.8491 122.41 15.3625 122.008 14.9918C121.615 14.6133 121.12 14.4241 120.526 14.4241ZM124.815 16.3588H127.851V17.0771H124.815V16.3588ZM131.067 12.4894H128.217V11.748H134.774V12.4894H131.924V19.8574H131.067V12.4894ZM137.827 19.9153C137.24 19.9153 136.711 19.7841 136.24 19.5215C135.768 19.2511 135.398 18.8804 135.127 18.4093C134.857 17.9382 134.722 17.4053 134.722 16.8106C134.722 16.2159 134.857 15.683 135.127 15.2119C135.398 14.7408 135.768 14.3739 136.24 14.1113C136.711 13.8487 137.24 13.7174 137.827 13.7174C138.414 13.7174 138.943 13.8487 139.414 14.1113C139.885 14.3739 140.252 14.7408 140.514 15.2119C140.785 15.683 140.92 16.2159 140.92 16.8106C140.92 17.4053 140.785 17.9382 140.514 18.4093C140.252 18.8804 139.885 19.2511 139.414 19.5215C138.943 19.7841 138.414 19.9153 137.827 19.9153ZM137.827 19.1855C138.259 19.1855 138.645 19.089 138.985 18.8959C139.333 18.6951 139.603 18.4132 139.796 18.0502C139.989 17.6872 140.086 17.274 140.086 16.8106C140.086 16.3472 139.989 15.934 139.796 15.571C139.603 15.208 139.333 14.93 138.985 14.7369C138.645 14.5361 138.259 14.4357 137.827 14.4357C137.394 14.4357 137.004 14.5361 136.657 14.7369C136.317 14.93 136.047 15.208 135.846 15.571C135.653 15.934 135.556 16.3472 135.556 16.8106C135.556 17.274 135.653 17.6872 135.846 18.0502C136.047 18.4132 136.317 18.6951 136.657 18.8959C137.004 19.089 137.394 19.1855 137.827 19.1855ZM151.373 13.7638L149.068 19.8574H148.291L146.368 14.8643L144.445 19.8574H143.669L141.375 13.7638H142.163L144.074 18.9422L146.032 13.7638H146.739L148.685 18.9422L150.62 13.7638H151.373ZM155.716 13.7174C156.481 13.7174 157.087 13.9414 157.535 14.3894C157.991 14.8296 158.219 15.4745 158.219 16.324V19.8574H157.396V16.4051C157.396 15.7718 157.238 15.2891 156.921 14.957C156.604 14.6249 156.153 14.4589 155.566 14.4589C154.909 14.4589 154.388 14.6558 154.002 15.0497C153.623 15.4359 153.434 15.9726 153.434 16.66V19.8574H152.611V13.7638H153.399V14.8875C153.623 14.5168 153.932 14.231 154.326 14.0302C154.728 13.8217 155.191 13.7174 155.716 13.7174ZM160.533 19.9153C160.363 19.9153 160.216 19.8536 160.092 19.73C159.977 19.6064 159.919 19.4558 159.919 19.2782C159.919 19.1005 159.977 18.9538 160.092 18.838C160.216 18.7144 160.363 18.6526 160.533 18.6526C160.703 18.6526 160.849 18.7144 160.973 18.838C161.097 18.9538 161.158 19.1005 161.158 19.2782C161.158 19.4558 161.097 19.6064 160.973 19.73C160.849 19.8536 160.703 19.9153 160.533 19.9153ZM163.694 14.957C163.887 14.5477 164.173 14.2388 164.552 14.0302C164.938 13.8217 165.413 13.7174 165.977 13.7174V14.5168L165.78 14.5052C165.139 14.5052 164.637 14.7022 164.274 15.096C163.911 15.4899 163.729 16.0421 163.729 16.7527V19.8574H162.907V13.7638H163.694V14.957ZM173.048 13.7638V19.8574H172.26V18.7453C172.044 19.116 171.746 19.4056 171.368 19.6141C170.989 19.8149 170.557 19.9153 170.07 19.9153C169.275 19.9153 168.645 19.6952 168.182 19.255C167.726 18.8071 167.498 18.1544 167.498 17.2972V13.7638H168.321V17.2161C168.321 17.8571 168.479 18.3437 168.796 18.6758C169.113 19.0079 169.564 19.1739 170.151 19.1739C170.792 19.1739 171.298 18.9808 171.669 18.5947C172.04 18.2008 172.225 17.6563 172.225 16.9612V13.7638H173.048Z" fill="#484848"/>
<circle cx="19.076" cy="15.8084" r="6.19513" fill="#F0E1F7"/>
<circle cx="34.4178" cy="15.8079" r="6.19513" fill="#F0E1F7"/>
<circle cx="49.7557" cy="15.8079" r="6.19513" fill="#F0E1F7"/>
<rect x="381.168" y="8.44922" width="2.37942" height="14.7183" fill="#F0E1F7"/>
<rect x="389.719" y="14.6187" width="2.37942" height="14.7183" transform="rotate(90 389.719 14.6187)" fill="#F0E1F7"/>
<defs>
<linearGradient id="paint0_linear" x1="208.5" y1="0" x2="208.5" y2="33" gradientUnits="userSpaceOnUse">
<stop stop-color="#CF9AE3"/>
<stop offset="1" stop-color="#A86BC0"/>
</linearGradient>
</defs>
</svg>
