<svg viewBox="0 0 320 40" fill="none" xmlns="http://www.w3.org/2000/svg">
<path d="M0.5 7.57764C0.5 3.98779 3.41015 1.07764 7 1.07764H313C316.59 1.07764 319.5 3.98779 319.5 7.57764V39.0776H0.5V7.57764Z" fill="url(#paint0_linear)" stroke="#D1D1D1"/>
<rect x="92" y="6.57764" width="172" height="26" fill="white"/>
<circle cx="27.5" cy="19.7035" r="7.5" fill="#B9B9B9"/>
<circle cx="45.7666" cy="19.7031" r="7.5" fill="#B9B9B9"/>
<circle cx="64.0342" cy="19.7031" r="7.5" fill="#B9B9B9"/>
<rect x="289.347" y="10.5776" width="2.83346" height="17.5269" fill="#B9B9B9"/>
<rect x="299.527" y="17.9241" width="2.83346" height="17.5269" transform="rotate(90 299.527 17.9241)" fill="#B9B9B9"/>
<path d="M132.684 23.6496C132.06 23.6496 131.46 23.5496 130.884 23.3496C130.316 23.1496 129.876 22.8856 129.564 22.5576L129.912 21.8736C130.216 22.1776 130.62 22.4256 131.124 22.6176C131.628 22.8016 132.148 22.8936 132.684 22.8936C133.436 22.8936 134 22.7576 134.376 22.4856C134.752 22.2056 134.94 21.8456 134.94 21.4056C134.94 21.0696 134.836 20.8016 134.628 20.6016C134.428 20.4016 134.18 20.2496 133.884 20.1456C133.588 20.0336 133.176 19.9136 132.648 19.7856C132.016 19.6256 131.512 19.4736 131.136 19.3296C130.76 19.1776 130.436 18.9496 130.164 18.6456C129.9 18.3416 129.768 17.9296 129.768 17.4096C129.768 16.9856 129.88 16.6016 130.104 16.2576C130.328 15.9056 130.672 15.6256 131.136 15.4176C131.6 15.2096 132.176 15.1056 132.864 15.1056C133.344 15.1056 133.812 15.1736 134.268 15.3096C134.732 15.4376 135.132 15.6176 135.468 15.8496L135.168 16.5576C134.816 16.3256 134.44 16.1536 134.04 16.0416C133.64 15.9216 133.248 15.8616 132.864 15.8616C132.128 15.8616 131.572 16.0056 131.196 16.2936C130.828 16.5736 130.644 16.9376 130.644 17.3856C130.644 17.7216 130.744 17.9936 130.944 18.2016C131.152 18.4016 131.408 18.5576 131.712 18.6696C132.024 18.7736 132.44 18.8896 132.96 19.0176C133.576 19.1696 134.072 19.3216 134.448 19.4736C134.832 19.6176 135.156 19.8416 135.42 20.1456C135.684 20.4416 135.816 20.8456 135.816 21.3576C135.816 21.7816 135.7 22.1696 135.468 22.5216C135.244 22.8656 134.896 23.1416 134.424 23.3496C133.952 23.5496 133.372 23.6496 132.684 23.6496ZM139.911 20.4096L138.423 21.7776V23.5776H137.571V14.6736H138.423V20.7096L142.191 17.2656H143.247L140.547 19.8456L143.499 23.5776H142.455L139.911 20.4096ZM146.869 17.2176C147.693 17.2176 148.325 17.4256 148.765 17.8416C149.205 18.2496 149.425 18.8576 149.425 19.6656V23.5776H148.609V22.5936C148.417 22.9216 148.133 23.1776 147.757 23.3616C147.389 23.5456 146.949 23.6376 146.437 23.6376C145.733 23.6376 145.173 23.4696 144.757 23.1336C144.341 22.7976 144.133 22.3536 144.133 21.8016C144.133 21.2656 144.325 20.8336 144.709 20.5056C145.101 20.1776 145.721 20.0136 146.569 20.0136H148.573V19.6296C148.573 19.0856 148.421 18.6736 148.117 18.3936C147.813 18.1056 147.369 17.9616 146.785 17.9616C146.385 17.9616 146.001 18.0296 145.633 18.1656C145.265 18.2936 144.949 18.4736 144.685 18.7056L144.301 18.0696C144.621 17.7976 145.005 17.5896 145.453 17.4456C145.901 17.2936 146.373 17.2176 146.869 17.2176ZM146.569 22.9656C147.049 22.9656 147.461 22.8576 147.805 22.6416C148.149 22.4176 148.405 22.0976 148.573 21.6816V20.6496H146.593C145.513 20.6496 144.973 21.0256 144.973 21.7776C144.973 22.1456 145.113 22.4376 145.393 22.6536C145.673 22.8616 146.065 22.9656 146.569 22.9656ZM155.063 23.1936C154.903 23.3376 154.703 23.4496 154.463 23.5296C154.231 23.6016 153.987 23.6376 153.731 23.6376C153.139 23.6376 152.683 23.4776 152.363 23.1576C152.043 22.8376 151.883 22.3856 151.883 21.8016V17.9856H150.755V17.2656H151.883V15.8856H152.735V17.2656H154.655V17.9856H152.735V21.7536C152.735 22.1296 152.827 22.4176 153.011 22.6176C153.203 22.8096 153.475 22.9056 153.827 22.9056C154.003 22.9056 154.171 22.8776 154.331 22.8216C154.499 22.7656 154.643 22.6856 154.763 22.5816L155.063 23.1936ZM161.887 20.6856H156.607C156.655 21.3416 156.907 21.8736 157.363 22.2816C157.819 22.6816 158.395 22.8816 159.091 22.8816C159.483 22.8816 159.843 22.8136 160.171 22.6776C160.499 22.5336 160.783 22.3256 161.023 22.0536L161.503 22.6056C161.223 22.9416 160.871 23.1976 160.447 23.3736C160.031 23.5496 159.571 23.6376 159.067 23.6376C158.419 23.6376 157.843 23.5016 157.339 23.2296C156.843 22.9496 156.455 22.5656 156.175 22.0776C155.895 21.5896 155.755 21.0376 155.755 20.4216C155.755 19.8056 155.887 19.2536 156.151 18.7656C156.423 18.2776 156.791 17.8976 157.255 17.6256C157.727 17.3536 158.255 17.2176 158.839 17.2176C159.423 17.2176 159.947 17.3536 160.411 17.6256C160.875 17.8976 161.239 18.2776 161.503 18.7656C161.767 19.2456 161.899 19.7976 161.899 20.4216L161.887 20.6856ZM158.839 17.9496C158.231 17.9496 157.719 18.1456 157.303 18.5376C156.895 18.9216 156.663 19.4256 156.607 20.0496H161.083C161.027 19.4256 160.791 18.9216 160.375 18.5376C159.967 18.1456 159.455 17.9496 158.839 17.9496ZM163.283 19.9536H166.427V20.6976H163.283V19.9536ZM169.758 15.9456H166.806V15.1776H173.598V15.9456H170.646V23.5776H169.758V15.9456ZM176.76 23.6376C176.152 23.6376 175.604 23.5016 175.116 23.2296C174.628 22.9496 174.244 22.5656 173.964 22.0776C173.684 21.5896 173.544 21.0376 173.544 20.4216C173.544 19.8056 173.684 19.2536 173.964 18.7656C174.244 18.2776 174.628 17.8976 175.116 17.6256C175.604 17.3536 176.152 17.2176 176.76 17.2176C177.368 17.2176 177.916 17.3536 178.404 17.6256C178.892 17.8976 179.272 18.2776 179.544 18.7656C179.824 19.2536 179.964 19.8056 179.964 20.4216C179.964 21.0376 179.824 21.5896 179.544 22.0776C179.272 22.5656 178.892 22.9496 178.404 23.2296C177.916 23.5016 177.368 23.6376 176.76 23.6376ZM176.76 22.8816C177.208 22.8816 177.608 22.7816 177.96 22.5816C178.32 22.3736 178.6 22.0816 178.8 21.7056C179 21.3296 179.1 20.9016 179.1 20.4216C179.1 19.9416 179 19.5136 178.8 19.1376C178.6 18.7616 178.32 18.4736 177.96 18.2736C177.608 18.0656 177.208 17.9616 176.76 17.9616C176.312 17.9616 175.908 18.0656 175.548 18.2736C175.196 18.4736 174.916 18.7616 174.708 19.1376C174.508 19.5136 174.408 19.9416 174.408 20.4216C174.408 20.9016 174.508 21.3296 174.708 21.7056C174.916 22.0816 175.196 22.3736 175.548 22.5816C175.908 22.7816 176.312 22.8816 176.76 22.8816ZM190.792 17.2656L188.404 23.5776H187.6L185.608 18.4056L183.616 23.5776H182.812L180.436 17.2656H181.252L183.232 22.6296L185.26 17.2656H185.992L188.008 22.6296L190.012 17.2656H190.792ZM195.291 17.2176C196.083 17.2176 196.711 17.4496 197.175 17.9136C197.647 18.3696 197.883 19.0376 197.883 19.9176V23.5776H197.031V20.0016C197.031 19.3456 196.867 18.8456 196.539 18.5016C196.211 18.1576 195.743 17.9856 195.135 17.9856C194.455 17.9856 193.915 18.1896 193.515 18.5976C193.123 18.9976 192.927 19.5536 192.927 20.2656V23.5776H192.075V17.2656H192.891V18.4296C193.123 18.0456 193.443 17.7496 193.851 17.5416C194.267 17.3256 194.747 17.2176 195.291 17.2176ZM200.28 23.6376C200.104 23.6376 199.952 23.5736 199.824 23.4456C199.704 23.3176 199.644 23.1616 199.644 22.9776C199.644 22.7936 199.704 22.6416 199.824 22.5216C199.952 22.3936 200.104 22.3296 200.28 22.3296C200.456 22.3296 200.608 22.3936 200.736 22.5216C200.864 22.6416 200.928 22.7936 200.928 22.9776C200.928 23.1616 200.864 23.3176 200.736 23.4456C200.608 23.5736 200.456 23.6376 200.28 23.6376ZM203.555 18.5016C203.755 18.0776 204.051 17.7576 204.443 17.5416C204.843 17.3256 205.335 17.2176 205.919 17.2176V18.0456L205.715 18.0336C205.051 18.0336 204.531 18.2376 204.155 18.6456C203.779 19.0536 203.591 19.6256 203.591 20.3616V23.5776H202.739V17.2656H203.555V18.5016ZM213.243 17.2656V23.5776H212.427V22.4256C212.203 22.8096 211.895 23.1096 211.503 23.3256C211.111 23.5336 210.663 23.6376 210.159 23.6376C209.335 23.6376 208.683 23.4096 208.203 22.9536C207.731 22.4896 207.495 21.8136 207.495 20.9256V17.2656H208.347V20.8416C208.347 21.5056 208.511 22.0096 208.839 22.3536C209.167 22.6976 209.635 22.8696 210.243 22.8696C210.907 22.8696 211.431 22.6696 211.815 22.2696C212.199 21.8616 212.391 21.2976 212.391 20.5776V17.2656H213.243Z" fill="#484848"/>
<defs>
<linearGradient id="paint0_linear" x1="160" y1="0.577637" x2="160" y2="39.5776" gradientUnits="userSpaceOnUse">
<stop offset="0.0001" stop-color="#F1F1F1"/>
<stop offset="0.0002" stop-color="#F9F9F9"/>
<stop offset="1" stop-color="#E9E9E9"/>
</linearGradient>
</defs>
</svg>
