<svg width="1160" height="39" viewBox="0 0 1160 39" fill="none" xmlns="http://www.w3.org/2000/svg">
<path d="M0.5 6.4379C0.5 3.15849 3.15849 0.5 6.4379 0.5H1153.56C1156.84 0.5 1159.5 3.15849 1159.5 6.4379V38.5H0.5V6.4379Z" fill="url(#paint0_linear)" stroke="#D1D1D1"/>
<rect x="175.392" y="5.84473" width="833.834" height="26.8054" fill="white"/>
<path d="M520.234 24.0527C519.517 24.0527 518.827 23.9378 518.165 23.7079C517.512 23.4779 517.006 23.1744 516.647 22.7974L517.047 22.011C517.397 22.3605 517.861 22.6456 518.441 22.8663C519.02 23.0779 519.618 23.1836 520.234 23.1836C521.099 23.1836 521.747 23.0273 522.179 22.7146C522.612 22.3927 522.828 21.9788 522.828 21.473C522.828 21.0867 522.708 20.7786 522.469 20.5487C522.239 20.3188 521.954 20.144 521.614 20.0245C521.274 19.8957 520.8 19.7577 520.193 19.6106C519.466 19.4267 518.887 19.2519 518.455 19.0864C518.022 18.9116 517.65 18.6495 517.337 18.3C517.034 17.9505 516.882 17.4769 516.882 16.8791C516.882 16.3916 517.011 15.9502 517.268 15.5547C517.526 15.15 517.921 14.8282 518.455 14.589C518.988 14.3499 519.65 14.2303 520.441 14.2303C520.993 14.2303 521.531 14.3085 522.055 14.4649C522.589 14.612 523.049 14.819 523.435 15.0857L523.09 15.8996C522.685 15.6329 522.253 15.4352 521.793 15.3064C521.333 15.1684 520.883 15.0995 520.441 15.0995C519.595 15.0995 518.956 15.265 518.524 15.5961C518.101 15.918 517.889 16.3365 517.889 16.8515C517.889 17.2378 518.004 17.5505 518.234 17.7896C518.473 18.0195 518.767 18.1989 519.117 18.3276C519.475 18.4472 519.954 18.5805 520.552 18.7277C521.26 18.9024 521.83 19.0772 522.262 19.2519C522.704 19.4175 523.076 19.675 523.38 20.0245C523.683 20.3647 523.835 20.8292 523.835 21.4178C523.835 21.9052 523.702 22.3513 523.435 22.756C523.177 23.1514 522.777 23.4687 522.235 23.7079C521.692 23.9378 521.025 24.0527 520.234 24.0527ZM528.542 20.328L526.832 21.9006V23.97H525.852V13.7337H526.832V20.6728L531.164 16.7135H532.378L529.274 19.6796L532.667 23.97H531.467L528.542 20.328ZM536.541 16.6584C537.489 16.6584 538.215 16.8975 538.721 17.3757C539.227 17.8448 539.48 18.5437 539.48 19.4726V23.97H538.542V22.8387C538.321 23.2158 537.994 23.5101 537.562 23.7217C537.139 23.9332 536.633 24.0389 536.045 24.0389C535.235 24.0389 534.592 23.8458 534.113 23.4595C533.635 23.0733 533.396 22.5628 533.396 21.9282C533.396 21.312 533.617 20.8154 534.058 20.4383C534.509 20.0612 535.222 19.8727 536.196 19.8727H538.5V19.4312C538.5 18.8059 538.325 18.3322 537.976 18.0103C537.627 17.6792 537.116 17.5137 536.445 17.5137C535.985 17.5137 535.543 17.5918 535.12 17.7482C534.697 17.8954 534.334 18.1023 534.03 18.369L533.589 17.6378C533.957 17.3251 534.398 17.086 534.913 16.9205C535.428 16.7457 535.971 16.6584 536.541 16.6584ZM536.196 23.2664C536.748 23.2664 537.222 23.1422 537.617 22.8939C538.013 22.6364 538.307 22.2685 538.5 21.7903V20.6039H536.224C534.982 20.6039 534.362 21.0361 534.362 21.9006C534.362 22.3237 534.523 22.6594 534.844 22.9077C535.166 23.1468 535.617 23.2664 536.196 23.2664ZM545.961 23.5285C545.778 23.6941 545.548 23.8228 545.272 23.9148C545.005 23.9976 544.724 24.0389 544.43 24.0389C543.75 24.0389 543.225 23.855 542.857 23.4871C542.49 23.1192 542.306 22.5996 542.306 21.9282V17.5413H541.009V16.7135H542.306V15.1271H543.285V16.7135H545.492V17.5413H543.285V21.8731C543.285 22.3053 543.391 22.6364 543.602 22.8663C543.823 23.0871 544.136 23.1974 544.541 23.1974C544.743 23.1974 544.936 23.1652 545.12 23.1009C545.313 23.0365 545.479 22.9445 545.617 22.8249L545.961 23.5285ZM553.807 20.6453H547.737C547.792 21.3994 548.082 22.011 548.606 22.4801C549.13 22.9399 549.792 23.1698 550.593 23.1698C551.043 23.1698 551.457 23.0917 551.834 22.9353C552.211 22.7698 552.538 22.5306 552.814 22.2179L553.365 22.8525C553.044 23.2388 552.639 23.5331 552.151 23.7354C551.673 23.9378 551.144 24.0389 550.565 24.0389C549.82 24.0389 549.158 23.8826 548.578 23.5699C548.008 23.248 547.562 22.8065 547.24 22.2455C546.918 21.6845 546.757 21.0499 546.757 20.3418C546.757 19.6336 546.909 18.999 547.213 18.438C547.525 17.877 547.948 17.4401 548.482 17.1274C549.024 16.8147 549.631 16.6584 550.303 16.6584C550.974 16.6584 551.577 16.8147 552.11 17.1274C552.643 17.4401 553.062 17.877 553.365 18.438C553.669 18.9898 553.821 19.6244 553.821 20.3418L553.807 20.6453ZM550.303 17.4999C549.604 17.4999 549.015 17.7252 548.537 18.1759C548.068 18.6173 547.801 19.1967 547.737 19.9141H552.883C552.818 19.1967 552.547 18.6173 552.069 18.1759C551.6 17.7252 551.011 17.4999 550.303 17.4999ZM555.411 19.8037H559.025V20.659H555.411V19.8037ZM562.855 15.196H559.462V14.3131H567.27V15.196H563.876V23.97H562.855V15.196ZM570.905 24.0389C570.206 24.0389 569.576 23.8826 569.015 23.5699C568.454 23.248 568.013 22.8065 567.691 22.2455C567.369 21.6845 567.208 21.0499 567.208 20.3418C567.208 19.6336 567.369 18.999 567.691 18.438C568.013 17.877 568.454 17.4401 569.015 17.1274C569.576 16.8147 570.206 16.6584 570.905 16.6584C571.604 16.6584 572.234 16.8147 572.795 17.1274C573.356 17.4401 573.793 17.877 574.106 18.438C574.428 18.999 574.589 19.6336 574.589 20.3418C574.589 21.0499 574.428 21.6845 574.106 22.2455C573.793 22.8065 573.356 23.248 572.795 23.5699C572.234 23.8826 571.604 24.0389 570.905 24.0389ZM570.905 23.1698C571.42 23.1698 571.88 23.0549 572.285 22.8249C572.699 22.5858 573.021 22.2501 573.251 21.8179C573.48 21.3856 573.595 20.8936 573.595 20.3418C573.595 19.7899 573.48 19.2979 573.251 18.8656C573.021 18.4334 572.699 18.1023 572.285 17.8724C571.88 17.6332 571.42 17.5137 570.905 17.5137C570.39 17.5137 569.926 17.6332 569.512 17.8724C569.107 18.1023 568.785 18.4334 568.546 18.8656C568.316 19.2979 568.201 19.7899 568.201 20.3418C568.201 20.8936 568.316 21.3856 568.546 21.8179C568.785 22.2501 569.107 22.5858 569.512 22.8249C569.926 23.0549 570.39 23.1698 570.905 23.1698ZM587.036 16.7135L584.291 23.97H583.367L581.077 18.0241L578.787 23.97H577.862L575.131 16.7135H576.069L578.345 22.8801L580.677 16.7135H581.518L583.836 22.8801L586.14 16.7135H587.036ZM592.209 16.6584C593.119 16.6584 593.841 16.9251 594.374 17.4585C594.917 17.9827 595.188 18.7507 595.188 19.7623V23.97H594.209V19.8589C594.209 19.1048 594.02 18.5299 593.643 18.1345C593.266 17.739 592.728 17.5413 592.029 17.5413C591.247 17.5413 590.627 17.7758 590.167 18.2448C589.716 18.7047 589.491 19.3439 589.491 20.1624V23.97H588.511V16.7135H589.449V18.0517C589.716 17.6102 590.084 17.27 590.553 17.0308C591.031 16.7825 591.583 16.6584 592.209 16.6584ZM597.944 24.0389C597.742 24.0389 597.567 23.9654 597.42 23.8182C597.282 23.6711 597.213 23.4917 597.213 23.2802C597.213 23.0687 597.282 22.8939 597.42 22.756C597.567 22.6088 597.742 22.5352 597.944 22.5352C598.146 22.5352 598.321 22.6088 598.468 22.756C598.615 22.8939 598.689 23.0687 598.689 23.2802C598.689 23.4917 598.615 23.6711 598.468 23.8182C598.321 23.9654 598.146 24.0389 597.944 24.0389ZM601.709 18.1345C601.939 17.647 602.279 17.2792 602.73 17.0308C603.19 16.7825 603.755 16.6584 604.427 16.6584V17.6102L604.192 17.5964C603.429 17.5964 602.831 17.831 602.399 18.3C601.967 18.7691 601.75 19.4267 601.75 20.2728V23.97H600.771V16.7135H601.709V18.1345ZM612.847 16.7135V23.97H611.909V22.6456C611.652 23.0871 611.297 23.4319 610.847 23.6803C610.396 23.9194 609.881 24.0389 609.302 24.0389C608.354 24.0389 607.605 23.7768 607.053 23.2526C606.51 22.7192 606.239 21.942 606.239 20.9212V16.7135H607.219V20.8246C607.219 21.5879 607.407 22.1674 607.784 22.5628C608.161 22.9583 608.699 23.156 609.398 23.156C610.162 23.156 610.764 22.9261 611.205 22.4663C611.647 21.9972 611.868 21.3488 611.868 20.5211V16.7135H612.847Z" fill="#484848"/>
<circle cx="69.4369" cy="19.2472" r="7.37729" fill="#B9B9B9"/>
<circle cx="87.7035" cy="19.2469" r="7.37729" fill="#B9B9B9"/>
<circle cx="105.971" cy="19.2469" r="7.37729" fill="#B9B9B9"/>
<rect x="1126.35" y="10.4844" width="2.83346" height="17.5269" fill="#B9B9B9"/>
<rect x="1136.53" y="17.8308" width="2.83346" height="17.5269" transform="rotate(90 1136.53 17.8308)" fill="#B9B9B9"/>
<defs>
<linearGradient id="paint0_linear" x1="580" y1="0" x2="580" y2="39" gradientUnits="userSpaceOnUse">
<stop offset="0.0001" stop-color="#F1F1F1"/>
<stop offset="0.0002" stop-color="#F9F9F9"/>
<stop offset="1" stop-color="#E9E9E9"/>
</linearGradient>
</defs>
</svg>
