<svg viewBox="0 0 186 251" fill="none" xmlns="http://www.w3.org/2000/svg">
<path fill-rule="evenodd" clip-rule="evenodd" d="M184.183 234.158C183.165 235.95 170.103 235.751 169.29 234.573C168.909 236.434 168.658 237.936 168.596 238.732C168.294 242.663 185.259 242.919 184.986 238.607C185.02 237.862 184.713 236.223 184.183 234.158Z" fill="white" stroke="black" stroke-width="1.2514" stroke-miterlimit="10"/>
<path fill-rule="evenodd" clip-rule="evenodd" d="M181.663 225.903L181.601 225.932C181.026 226.791 175.542 227.781 171.275 226.501C170.484 229.311 169.79 232.212 169.312 234.545C170.12 235.722 183.188 235.922 184.206 234.13L181.663 225.903Z" fill="#25B6E5" stroke="black" stroke-width="1.2514" stroke-miterlimit="10"/>
<path fill-rule="evenodd" clip-rule="evenodd" d="M176.213 216.158C174.706 216.124 172.84 221.011 171.332 226.307L171.275 226.507C175.542 227.787 181.021 226.797 181.601 225.938L181.635 225.835C179.814 220.772 177.658 216.187 176.213 216.158Z" fill="#FEFEFE" stroke="black" stroke-width="1.2514" stroke-miterlimit="10"/>
<path fill-rule="evenodd" clip-rule="evenodd" d="M144.371 234.159C143.353 235.951 130.291 235.752 129.477 234.574C129.096 236.435 128.846 237.937 128.783 238.733C128.482 242.664 145.446 242.92 145.173 238.608C145.207 237.863 144.9 236.224 144.371 234.159Z" fill="white" stroke="black" stroke-width="1.2514" stroke-miterlimit="10"/>
<path fill-rule="evenodd" clip-rule="evenodd" d="M141.851 225.904L141.788 225.933C141.214 226.792 135.729 227.782 131.463 226.502C130.672 229.312 129.978 232.213 129.5 234.546C130.308 235.723 143.375 235.923 144.394 234.131L141.851 225.904Z" fill="#25B6E5" stroke="black" stroke-width="1.2514" stroke-miterlimit="10"/>
<path fill-rule="evenodd" clip-rule="evenodd" d="M136.401 216.159C134.893 216.125 133.027 221.012 131.52 226.308L131.463 226.508C135.73 227.788 141.208 226.798 141.788 225.939L141.822 225.836C140.002 220.773 137.846 216.188 136.401 216.159Z" fill="#FEFEFE" stroke="black" stroke-width="1.2514" stroke-miterlimit="10"/>
<path fill-rule="evenodd" clip-rule="evenodd" d="M107.859 29.6205C110.554 22.3361 110.192 16.8152 106.926 11.6522C99.8502 0.533925 90.2863 0.585044 76.9901 0.406129C63.8754 0.227213 55.1927 6.36146 50.346 25.2243C50.2941 25.4287 50.4496 25.6332 50.4237 25.761C48.117 34.17 55.2186 36.5982 56.4627 45.6462C57.4476 52.7517 56.1776 57.0201 50.9162 59.0649C39.849 62.0298 37.1276 51.3204 40.9117 47.6398C42.0521 46.5152 43.6849 45.9274 45.0845 45.1095C37.8274 43.6015 34.5876 50.1447 34.5357 58.1192C34.4839 64.9691 33.3694 70.8222 45.0845 75.3717C53.6635 78.26 65.7674 77.9021 71.4695 68.5218L66.1821 40.8666L82.5626 27.7291L107.859 29.6205Z" fill="#962420" stroke="black" stroke-width="0.4799" stroke-miterlimit="22.9256"/>
<path fill-rule="evenodd" clip-rule="evenodd" d="M83.3932 91.2707C79.7646 89.3793 81.9159 82.4271 83.8338 79.0021L77.1728 73.6858C82.6157 79.6667 89.51 82.5805 96.9486 79.5645C106.461 75.7305 108.223 65.5068 113.044 56.7655L114.34 56.9444C111.126 54.3629 110.53 50.4268 110.011 48.8676L110.219 47.6152C102.677 55.922 90.469 58.9125 79.7128 54.6696C78.8316 54.3118 77.9504 53.9284 77.095 53.4683C75.4363 52.5993 73.9071 51.6025 72.5075 50.4779L72.9999 51.8581C72.4297 52.5482 72.1187 53.4428 72.1965 54.414C72.3261 56.101 73.622 57.43 75.2289 57.7112C75.5399 57.7623 75.0475 57.839 75.0475 57.839C75.0216 58.1201 73.5701 57.4556 73.5183 57.7879C73.4665 58.1201 71.5744 55.053 71.2634 54.823C68.6197 52.676 64.5764 48.4587 63.6952 50.759C63.3842 51.5769 65.4577 57.8901 65.3799 58.9125L71.4967 67.7305C71.8595 68.9062 71.6003 66.0691 73.285 70.9765C74.3995 74.2481 73.7256 77.5197 73.0777 80.0245C71.5744 85.8521 68.1532 88.7147 59.7815 86.8489C57.5785 87.0022 55.0644 88.3569 53.587 90.0182C52.7836 90.9384 51.9542 91.5007 52.4207 93.0087C52.965 94.7212 56.1011 96.9959 58.9781 98.6573C82.823 116.012 83.3932 91.2707 83.3932 91.2707Z" fill="#FDD491"/>
<path fill-rule="evenodd" clip-rule="evenodd" d="M109.363 30.8472C109.648 29.9015 110.296 28.9814 110.218 27.9846C109.907 24.4574 106.564 22.3871 104.568 24.5085L102.287 26.9622L109.363 30.8472Z" fill="#F77924" stroke="black" stroke-width="0.4799" stroke-miterlimit="22.9256"/>
<path fill-rule="evenodd" clip-rule="evenodd" d="M93.2134 74.9885C90.9844 73.8383 89.6885 71.7424 89.196 69.7232C89.0924 69.3654 89.3256 68.982 89.7144 68.8798C90.0773 68.7775 90.466 69.0076 90.5697 69.3909C90.8807 70.6434 92.3063 74.7073 97.5677 74.5028C97.9565 74.4773 98.2675 74.784 98.2934 75.1674C98.3193 75.5508 98.0083 75.8575 97.6195 75.883C95.8571 75.9342 94.4056 75.6019 93.2134 74.9885Z" fill="#431F20"/>
<path fill-rule="evenodd" clip-rule="evenodd" d="M83.1071 79.3591C80.7485 78.1322 78.4677 76.3431 76.3424 73.9916C76.0832 73.7105 76.1091 73.276 76.3942 73.0204C76.6793 72.7648 77.1199 72.7903 77.3791 73.0715C83.1071 79.3847 89.8459 81.4038 96.3514 78.7968C103.142 76.0619 105.863 69.851 108.766 63.3078C109.777 60.9819 110.84 58.6049 112.11 56.3046C112.291 55.9723 112.706 55.8445 113.043 56.0234C113.38 56.2023 113.509 56.6113 113.328 56.9691C112.11 59.1928 111.047 61.5698 110.036 63.8701C107.03 70.6945 104.179 77.1354 96.8698 80.0748C92.2822 81.915 87.5392 81.6594 83.1071 79.3591Z" fill="#431F20"/>
<path fill-rule="evenodd" clip-rule="evenodd" d="M113.691 57.4291C113.639 57.4035 113.613 57.378 113.561 57.3524C110.71 55.0521 109.803 51.806 109.285 49.8635C109.181 49.5057 109.103 49.199 109.025 48.9434C108.896 48.5856 109.103 48.2022 109.466 48.0744C109.829 47.9466 110.218 48.1511 110.347 48.5089C110.425 48.79 110.529 49.1223 110.632 49.5057C111.125 51.2949 111.928 54.2597 114.442 56.2789C114.753 56.509 114.779 56.9435 114.546 57.2502C114.339 57.5058 113.976 57.5569 113.691 57.4291Z" fill="#431F20"/>
<path fill-rule="evenodd" clip-rule="evenodd" d="M83.3148 91.8314C82.4594 91.3713 81.5782 90.3745 81.0858 89.2499C80.5933 86.694 80.4378 84.7259 83.4184 79.3329C83.5999 79.0006 84.0146 78.8728 84.3515 79.0517C84.6884 79.2306 84.818 79.6396 84.6366 79.9974C81.8892 84.9815 81.7337 86.8729 82.3039 88.7898C82.4854 89.3521 83.4703 90.579 83.9627 90.8601C84.1182 90.8857 83.9886 92.1637 83.3148 91.8314Z" fill="#431F20"/>
<path fill-rule="evenodd" clip-rule="evenodd" d="M107.886 67.8056L109.363 63.0516L111.566 58.6809L113.303 56.2017L111.048 52.7L109.908 49.3006L109.001 48.6361L105.035 51.8054L97.3113 55.256L89.3285 56.6106L80.9827 55.0004L75.6435 52.7L73.1813 51.0387L72.0149 53.2368L71.8076 55.256L72.948 57.0196L72.7407 61.9525L72.6629 65.8631L72.5074 68.828L66.1574 60.7512L63.8506 53.1345L63.9543 47.2303L64.4468 41.8884L66.0278 36.9043L68.9306 31.8436L73.4923 27.9074L80.9568 24.048L87.566 22.8467L95.3415 23L103.998 26.425L108.353 29.8499L113.07 36.2653L115.273 40.406L116.646 47.2048V52.1633L115.351 56.7895L113.018 62.6426L111.618 64.6107L109.856 66.5532L107.886 67.8056Z" fill="#962420" stroke="black" stroke-width="0.5669" stroke-miterlimit="22.9256"/>
<path fill-rule="evenodd" clip-rule="evenodd" d="M65.7423 87.5637C65.6127 87.487 61.5694 87.6148 61.4398 87.5126C61.388 87.487 60.6623 86.4391 61.4398 86.3113C62.8135 86.5413 67.9194 86.5669 69.656 85.2378C71.6258 84.0621 73.2068 78.8224 73.3364 70.9757C73.3364 70.9501 72.1441 69.7999 72.1441 69.7744C72.2219 65.6849 72.2219 61.2375 72.3255 56.8924C72.2996 56.7647 73.3882 57.7359 73.3882 57.7359C73.3623 62.1577 73.4141 66.7839 73.3364 70.9757C73.3364 71.0523 74.6582 72.1769 74.6582 72.2792C74.6064 75.5763 73.1549 84.7266 70.3817 86.388C68.8006 87.3592 67.2715 87.487 65.7423 87.5637Z" fill="#431F20"/>
<path fill-rule="evenodd" clip-rule="evenodd" d="M73.5426 57.8375C72.2467 57.173 71.3395 55.8694 71.21 54.3359C71.1322 53.2368 71.4691 52.1633 72.143 51.2943C72.3763 50.9876 72.8169 50.962 73.1279 51.1921C73.4389 51.4221 73.4908 51.8566 73.2316 52.1633C72.7651 52.7512 72.5318 53.4924 72.5836 54.2336C72.6873 55.5883 73.6981 56.6873 75.0459 56.9174C75.2791 56.9685 75.5383 56.9685 75.7975 56.9429C76.1863 56.9174 76.5232 57.1985 76.5491 57.5819C76.5751 57.9653 76.29 58.2976 75.9012 58.3231C75.5383 58.3487 75.1755 58.3231 74.8126 58.272C74.372 58.1954 73.9314 58.042 73.5426 57.8375Z" fill="#431F20"/>
<path fill-rule="evenodd" clip-rule="evenodd" d="M74.5545 56.1256C73.9324 55.8188 73.4918 55.1799 73.44 54.4131C73.3622 53.2629 74.1657 52.2661 75.2802 52.1894C76.3947 52.1127 77.3537 52.9562 77.4573 54.1064C77.4833 54.4898 77.1982 54.822 76.8094 54.8476C76.4206 54.8731 76.0837 54.592 76.0578 54.2086C76.0318 53.8252 75.7208 53.5185 75.3839 53.5441C75.0469 53.5696 74.7877 53.9019 74.8137 54.2853C74.8396 54.6687 75.1506 54.9754 75.4875 54.9498C75.8763 54.9243 76.2133 55.2054 76.2392 55.5888C76.2651 55.9722 75.98 56.3045 75.5912 56.33C75.2284 56.3556 74.8655 56.2789 74.5545 56.1256Z" fill="#431F20"/>
<path fill-rule="evenodd" clip-rule="evenodd" d="M76.4477 53.9525C74.7889 53.0835 73.2079 52.0611 71.7565 50.8853C71.4714 50.6553 71.4195 50.2208 71.6528 49.9141C71.912 49.6074 72.3526 49.5818 72.6377 49.8119C74.7371 51.4988 77.1475 52.9045 79.6357 53.8758C89.9771 57.9653 101.926 55.2049 109.364 47.0003C109.623 46.7192 110.064 46.6936 110.349 46.9492C110.634 47.2048 110.66 47.6393 110.401 47.9205C102.573 56.534 90.003 59.4477 79.1173 55.1538C78.2361 54.8215 77.3289 54.4125 76.4477 53.9525Z" fill="#431F20"/>
<path fill-rule="evenodd" clip-rule="evenodd" d="M99.2272 58.7334C99.0977 58.6567 98.994 58.5545 98.9162 58.4267C98.7607 58.0944 98.8903 57.6599 99.2272 57.5065C104.022 55.1806 107.106 52.0113 109.232 47.2061C109.387 46.8483 109.802 46.6949 110.165 46.8483C110.502 47.0016 110.683 47.4106 110.528 47.7684C108.273 52.8292 104.877 56.3052 99.8493 58.7589C99.6419 58.8612 99.4087 58.8356 99.2272 58.7334Z" fill="#431F20"/>
<path fill-rule="evenodd" clip-rule="evenodd" d="M100.5 70.7458C100.319 70.6436 100.189 70.4902 100.137 70.2857C100.06 69.9023 100.293 69.5445 100.656 69.4678C101.355 69.3145 101.796 68.5988 101.641 67.9087C101.485 67.2186 100.759 66.7841 100.06 66.9375C99.6967 67.0141 99.3079 66.7841 99.2301 66.4263C99.1524 66.0429 99.3856 65.6851 99.7485 65.6084C101.2 65.2761 102.651 66.1707 102.988 67.602C103.325 69.0333 102.418 70.4647 100.967 70.7969C100.811 70.848 100.63 70.8225 100.5 70.7458Z" fill="#431F20"/>
<path fill-rule="evenodd" clip-rule="evenodd" d="M76.2641 73.863C68.5664 66.6042 58.2249 56.2526 65.5857 36.2907C68.8515 30.1821 74.2943 25.5814 80.9035 23.3321L81.8625 23.0766C88.0052 21.1852 94.6662 21.543 100.627 24.0478C106.07 26.3482 110.502 30.2076 113.457 35.2173C113.483 35.2428 114.235 36.6997 114.416 37.032C118.2 44.7253 118.071 53.85 114.027 61.4156C112.498 64.2783 110.476 66.8342 108.04 68.9812C107.755 69.2368 107.314 69.2112 107.055 68.9301C106.796 68.6489 106.822 68.2144 107.107 67.9588C109.414 65.9141 111.332 63.5115 112.783 60.7766C116.619 53.5944 116.749 44.9554 113.146 37.6454C112.991 37.3131 112.239 35.9074 112.239 35.9074C109.44 31.1789 105.215 27.4983 100.083 25.3258C94.433 22.9488 88.1089 22.6165 82.2513 24.4056L81.3182 24.6357C75.0719 26.7571 69.9141 31.1022 66.8298 36.9042C61.0241 53.4155 65.0155 61.799 77.275 72.9173C77.3786 73.4541 76.4196 74.0164 76.2641 73.863Z" fill="#431F20"/>
<path fill-rule="evenodd" clip-rule="evenodd" d="M107.705 59.0133C107.575 58.9366 107.471 58.8344 107.42 58.7066C107.16 58.1954 106.694 57.8887 106.175 57.8631C105.787 57.8375 105.502 57.5053 105.527 57.1474C105.553 56.764 105.89 56.4829 106.253 56.5084C107.29 56.5596 108.197 57.173 108.664 58.1187C108.845 58.451 108.69 58.8855 108.353 59.0388C108.119 59.1155 107.886 59.1155 107.705 59.0133Z" fill="#431F20"/>
<path fill-rule="evenodd" clip-rule="evenodd" d="M103.065 62.0309C102.546 63.0022 102.572 63.999 103.117 64.3057C103.661 64.5868 104.542 64.0501 105.06 63.0788C105.579 62.1076 105.553 61.1108 105.009 60.8041C104.464 60.5229 103.583 61.0596 103.065 62.0309Z" fill="#431F20"/>
<path fill-rule="evenodd" clip-rule="evenodd" d="M94.486 58.58C93.9158 59.5257 93.9158 60.548 94.46 60.8548C95.0043 61.1615 95.8856 60.6503 96.4558 59.7046C97.026 58.7589 97.026 57.7365 96.4817 57.4298C95.9374 57.1231 95.0562 57.6343 94.486 58.58Z" fill="#431F20"/>
<path fill-rule="evenodd" clip-rule="evenodd" d="M88.135 70.5929C88.1091 70.5929 88.1091 70.5673 88.1091 70.5673C87.7722 70.3628 87.6685 69.9539 87.8758 69.6216C88.1609 69.1616 88.7311 68.7015 89.3791 68.4203C90.1567 68.0881 90.8565 68.0625 91.3748 68.3692C91.7118 68.5737 91.8154 68.9826 91.6081 69.3149C91.4007 69.6472 90.986 69.7239 90.6491 69.545C90.4158 69.4172 89.3791 69.8261 89.0681 70.3117C88.8607 70.644 88.446 70.7718 88.135 70.5929Z" fill="#431F20"/>
<path fill-rule="evenodd" clip-rule="evenodd" d="M61.2578 86.9245H57.7329C54.8041 88.1769 53.4045 89.8894 52.4974 92.1642L51.5384 94.5156C51.5384 105.813 44.1516 113.89 32.6957 113.89C23.6502 113.89 15.9524 108.19 13.1273 100.215C13.1273 100.215 12.894 99.7297 13.3605 99.0652C15.0712 95.9981 13.2569 89.3015 13.2569 89.3015L11.1834 80.458C11.0279 79.6912 10.2503 79.18 9.47278 79.3334L9.05809 78.6177C8.90258 77.8509 8.12503 77.3397 7.34747 77.4931C7.06237 77.5442 6.82911 77.672 6.62176 77.8509L6.38849 78.311C6.23298 77.5442 5.45543 77.033 4.67788 77.1864C3.90033 77.3397 3.38195 78.1065 3.53746 78.8733L3.69297 79.6656L4.54827 80.7391C4.39277 79.9724 3.61522 79.4612 2.83766 79.6145C2.06011 79.7679 1.54174 80.5347 1.69725 81.3014L1.77501 81.6593L2.68216 85.621L2.24154 85.7232C1.98235 85.5954 2.29337 85.5443 1.95643 85.621C1.02337 85.7999 0.790112 86.6434 0.971539 87.5635L1.15297 88.4581L2.78582 95.1546L2.96725 95.9725C3.35603 97.8639 4.5742 99.5253 6.67359 100.675C7.08828 100.957 7.63258 102.03 7.63258 102.03L7.58074 102.081C10.9761 112.663 20.9806 120.331 32.8253 120.331C40.8859 120.331 52.7047 115.168 56.9813 105.711L59.6249 98.784L61.2578 86.9245Z" fill="#FDD491"/>
<path fill-rule="evenodd" clip-rule="evenodd" d="M33.0326 120.919C40.9637 120.919 48.48 117.494 53.6378 111.538C55.0374 110.107 57.5256 105.915 57.5515 105.864C57.7847 105.353 57.4737 102.925 57.396 103.462C57.2404 104.458 53.7155 109.903 52.7306 110.772C47.8061 116.471 40.6267 119.717 33.0585 119.717C21.7063 119.717 11.8054 112.561 8.3842 101.903C8.28052 101.596 7.94358 101.417 7.60664 101.519C7.26971 101.621 7.1142 101.954 7.21787 102.286C10.7428 113.404 21.1361 120.919 33.0326 120.919Z" fill="#431F20"/>
<path fill-rule="evenodd" clip-rule="evenodd" d="M32.8256 114.503C44.5926 114.503 49.1024 108.905 51.8238 97.6845L52.0571 95.3586C52.0571 93.2883 54.5452 89.531 55.9189 88.8665C57.6814 88.0486 59.5475 87.5374 61.3877 87.5374C61.7247 87.5374 62.0098 87.2562 62.0098 86.924C62.0098 86.5917 61.7247 86.3105 61.3877 86.3105C59.2883 86.3105 57.3444 86.8729 55.4265 87.7163C53.6122 88.5087 50.813 92.5982 50.813 95.333L50.5797 97.6589C47.8583 108.343 43.8928 113.276 32.7997 113.276C24.2725 113.276 16.6266 107.934 13.8015 100.01C13.8015 99.9848 13.7755 99.9593 13.7755 99.9337C13.7755 99.9337 13.7237 99.7292 13.957 99.397C14.1384 99.1158 14.0866 98.7324 13.8015 98.5535C13.5164 98.3746 13.1276 98.4257 12.9462 98.7069C12.3759 99.5503 12.5574 100.215 12.6351 100.419C15.6935 108.854 23.7801 114.503 32.8256 114.503Z" fill="#431F20"/>
<path fill-rule="evenodd" clip-rule="evenodd" d="M7.81395 102.618C7.91763 102.618 7.99539 102.592 8.09906 102.541C8.41008 102.388 8.51375 102.03 8.35824 101.723C8.20273 101.442 7.68436 100.471 7.11415 100.164C5.24803 99.1672 4.08169 97.6847 3.71883 95.87L3.56333 95.0521L1.93046 88.33L1.74903 87.4354C1.67128 87.0776 1.69719 86.7709 1.77495 86.5664C1.82678 86.4642 1.90454 86.3364 2.11189 86.2597H2.1378C2.44883 86.413 2.81168 86.2852 2.96719 85.9785C3.09679 85.7229 3.01904 85.4162 2.81169 85.2629C2.78577 85.2117 2.75986 85.1862 2.73394 85.1606C2.50067 84.9306 2.21556 84.9817 2.11189 85.0073L2.03414 85.0328C1.41209 85.1606 0.919642 85.5185 0.686376 86.0808C0.479029 86.5153 0.453108 87.0776 0.5827 87.691L0.764129 88.5856L2.52659 96.1512C2.9672 98.3237 4.36679 100.087 6.54395 101.263C6.69946 101.34 7.0364 101.851 7.29558 102.311C7.37334 102.515 7.60661 102.618 7.81395 102.618Z" fill="#431F20"/>
<path fill-rule="evenodd" clip-rule="evenodd" d="M37.6453 245.827C40.4704 245.776 42.6994 243.502 42.6476 240.716C42.5957 237.93 40.289 235.731 37.4639 235.783C34.6647 235.834 32.4098 238.109 32.4616 240.894C32.5134 243.655 34.8202 245.879 37.6453 245.827Z" fill="#FEFEFE"/>
<path fill-rule="evenodd" clip-rule="evenodd" d="M13.4903 99.6791C13.6976 99.6791 13.9309 99.5769 14.0345 99.3724C15.8488 96.1263 14.0605 89.4298 14.0086 89.1486L11.9352 80.3307C11.8574 79.9984 11.5464 79.7939 11.2094 79.8706C10.8725 79.9473 10.6652 80.2795 10.7429 80.5863L12.8164 89.4298C12.8423 89.5065 14.527 95.9474 12.9719 98.7845C12.8164 99.0657 12.9201 99.4491 13.2052 99.6024C13.3088 99.6535 13.4125 99.6791 13.4903 99.6791Z" fill="#431F20"/>
<path fill-rule="evenodd" clip-rule="evenodd" d="M1.87785 81.94C1.92969 81.94 1.95561 81.94 2.00745 81.94C2.34439 81.8634 2.55174 81.5567 2.4999 81.2244C2.44807 80.9944 2.4999 80.7899 2.62949 80.611C2.75909 80.432 2.94052 80.3042 3.17378 80.2531C3.40705 80.202 3.6144 80.2531 3.79583 80.3809C3.97726 80.5087 4.10685 80.6876 4.15869 80.9177C4.23645 81.2499 4.54747 81.4544 4.88441 81.4033C5.22135 81.3266 5.42869 81.0199 5.37686 80.6876C5.27318 80.1509 4.96216 79.6908 4.49562 79.3841C4.02909 79.0774 3.4848 78.9752 2.94051 79.0774C2.39623 79.1796 1.9297 79.4864 1.61867 79.9464C1.30765 80.4065 1.20397 80.9432 1.30764 81.48C1.33356 81.7611 1.59275 81.94 1.87785 81.94Z" fill="#431F20"/>
<path fill-rule="evenodd" clip-rule="evenodd" d="M3.84784 80.3046C3.89967 80.3046 3.9256 80.3046 3.97744 80.3046C4.31437 80.228 4.52172 79.9212 4.46988 79.589L4.31437 78.7966C4.26253 78.5666 4.31438 78.3621 4.44397 78.1832C4.57356 78.0043 4.75499 77.8765 4.98825 77.8254C5.45478 77.7231 5.8954 78.0299 5.97315 78.4644C6.05091 78.7966 6.36192 79.0011 6.69886 78.9244C7.0358 78.8477 7.24315 78.541 7.19131 78.2088C6.95804 77.1097 5.86948 76.3941 4.75499 76.6241C4.2107 76.7263 3.74416 77.033 3.43314 77.4931C3.12212 77.9532 3.01845 78.4899 3.12213 79.0267L3.27764 79.819C3.30356 80.1002 3.56273 80.3046 3.84784 80.3046Z" fill="#431F20"/>
<path fill-rule="evenodd" clip-rule="evenodd" d="M9.2138 79.2314C9.26564 79.2314 9.29156 79.2314 9.34339 79.2314C9.68033 79.1547 9.88768 78.848 9.83584 78.5158C9.73217 77.979 9.42115 77.5189 8.95462 77.2122C8.48809 76.9055 7.9438 76.8033 7.39952 76.9055C7.01074 76.9822 6.67381 77.1611 6.3887 77.4167C6.15544 77.6467 6.12952 78.0301 6.36278 78.2602C6.59605 78.4902 6.98483 78.5158 7.21809 78.2857C7.32176 78.1835 7.47727 78.1068 7.63278 78.0812C7.86605 78.0301 8.07339 78.0813 8.25482 78.209C8.43625 78.3368 8.56584 78.5158 8.61767 78.7458C8.66951 79.0269 8.9287 79.2314 9.2138 79.2314Z" fill="#431F20"/>
<path fill-rule="evenodd" clip-rule="evenodd" d="M11.3388 81.0459C11.3906 81.0459 11.4166 81.0459 11.4684 81.0459C11.8053 80.9692 12.0127 80.6625 11.9608 80.3302C11.8572 79.7935 11.5461 79.3334 11.0796 79.0267C10.6131 78.72 10.0688 78.6177 9.52451 78.72C9.18757 78.7967 8.98021 79.1034 9.03205 79.4356C9.10981 79.7679 9.42083 79.9724 9.75777 79.9213C10.2243 79.819 10.6649 80.1257 10.7427 80.5603C10.7945 80.867 11.0537 81.0459 11.3388 81.0459Z" fill="#431F20"/>
<path fill-rule="evenodd" clip-rule="evenodd" d="M11.5184 89.2763C11.5703 89.2763 11.5962 89.2763 11.648 89.2507C11.9849 89.1741 12.1923 88.8418 12.1145 88.5351L9.88556 78.8736C9.8078 78.5414 9.47087 78.3369 9.15985 78.4136C8.82291 78.4902 8.61556 78.8225 8.69332 79.1292L10.9223 88.7907C10.9741 89.0718 11.2333 89.2763 11.5184 89.2763Z" fill="#431F20"/>
<path fill-rule="evenodd" clip-rule="evenodd" d="M8.77427 88.5859C8.82611 88.5859 8.85203 88.5859 8.90386 88.5603C9.2408 88.4836 9.44815 88.1513 9.3704 87.8446L7.14141 78.1832C7.06366 77.8509 6.75264 77.6464 6.4157 77.7231C6.07876 77.7998 5.87141 78.1321 5.94917 78.4388L8.17815 88.1002C8.25591 88.3814 8.48917 88.5859 8.77427 88.5859Z" fill="#431F20"/>
<path fill-rule="evenodd" clip-rule="evenodd" d="M6.59654 89.3526C6.64838 89.3526 6.70021 89.3526 6.72613 89.327C7.06307 89.2504 7.27042 88.9181 7.19266 88.6114L5.24879 80.4068C5.17104 80.0746 4.8341 79.8701 4.52308 79.9468C4.18614 80.0234 3.9788 80.3557 4.05655 80.6624L6.00042 88.867C6.07818 89.1737 6.33736 89.3526 6.59654 89.3526Z" fill="#431F20"/>
<path fill-rule="evenodd" clip-rule="evenodd" d="M4.41881 93.1861C4.47064 93.1861 4.49656 93.1861 4.5484 93.1605C4.88533 93.0838 5.09268 92.7516 5.01493 92.4449L2.55268 81.5821C2.47492 81.2499 2.1639 81.0454 1.82697 81.1221C1.49003 81.1987 1.28268 81.531 1.36043 81.8377L3.8486 92.7004C3.90043 92.9816 4.15962 93.1861 4.41881 93.1861Z" fill="#431F20"/>
<path fill-rule="evenodd" clip-rule="evenodd" d="M75.4593 104.638C77.5587 106.785 86.656 103.564 94.1465 106.734C97.8528 108.293 102.233 116.318 103.036 117.647C112.989 134.005 114 153.149 107.494 169.405L107.702 170.197C106.821 169.507 105.602 169.226 104.436 169.533C103.684 169.737 103.036 170.146 102.57 170.683C102.414 170.862 99.7708 174.185 95.0795 173.341L94.7426 173.392C93.8873 173.648 93.3689 174.517 93.6281 175.386C93.7577 175.846 94.0687 176.204 94.4834 176.383C94.8203 176.562 99.0451 177.814 100.885 174.696L99.7189 176.076C99.7189 176.076 95.9089 181.853 95.9089 181.878C95.5979 182.543 95.8052 183.335 96.4273 183.744C97.0752 184.153 97.9046 184.025 98.3971 183.463C98.423 183.437 100.341 180.472 100.341 180.447L101.87 178.453C101.87 178.479 101.844 178.479 101.844 178.504C101.818 178.53 100.548 180.396 100.522 180.447C100.185 181.111 100.367 181.929 101.015 182.338C101.637 182.747 102.492 182.645 102.985 182.108C103.011 182.083 104.281 180.242 104.306 180.217C104.332 180.191 104.358 180.14 104.384 180.114L104.358 180.191C104.358 180.217 104.332 180.217 104.332 180.242C104.306 180.268 103.036 182.134 103.011 182.185C102.674 182.849 102.855 183.667 103.503 184.076C104.125 184.511 104.98 184.383 105.473 183.846C105.499 183.821 106.769 181.98 106.795 181.955C106.821 181.929 106.847 181.904 106.872 181.853L105.602 183.667C105.576 183.693 105.291 184.102 105.265 184.127C104.929 184.792 105.369 185.38 106.017 185.814C106.639 186.223 107.287 186.07 107.78 185.533C107.805 185.508 112.497 178.479 112.497 178.479C113.119 177.38 113.326 176.025 112.937 174.721C112.497 173.188 111.356 172.012 109.957 171.475L112.678 174.21C121.465 155.629 121.05 133.239 109.568 114.35C100.289 94.6184 92.7728 92.7015 81.7056 92.1392L75.4593 104.638Z" fill="#FDD491"/>
<path fill-rule="evenodd" clip-rule="evenodd" d="M116.594 137.634C116.517 137.506 116.413 137.404 116.309 137.302C115.946 136.97 115.48 136.765 114.987 136.765C114.495 136.765 114.028 136.97 113.666 137.327C113.329 137.685 113.121 138.145 113.121 138.631C113.121 138.912 113.355 139.117 113.614 139.117C113.873 139.117 114.106 138.887 114.106 138.631C114.106 138.401 114.184 138.171 114.365 138.018C114.521 137.839 114.754 137.762 114.987 137.762C115.221 137.762 115.454 137.839 115.609 138.018C115.791 138.171 115.869 138.401 115.869 138.631C115.869 138.887 116.102 139.117 116.361 139.117C116.62 139.117 116.853 138.887 116.853 138.631C116.879 138.248 116.776 137.941 116.594 137.634Z" fill="#431F20"/>
<path fill-rule="evenodd" clip-rule="evenodd" d="M109.001 112.612C106.59 108.855 101.355 91.7556 83.497 91.6023C83.1341 91.6023 83.6525 91.5256 83.2896 91.5512C82.8231 91.0911 83.1082 91.6789 83.1082 92.0623C83.6266 92.0368 82.3825 92.1135 82.7972 92.2924C82.9268 92.3435 82.7713 92.3691 83.0045 92.3691C101.173 92.9569 106.487 110.337 109.001 114.478C119.99 132.548 121.26 154.529 112.215 173.673C112.111 173.903 112.215 174.312 112.474 174.415C112.733 174.517 112.888 174.542 113.018 174.287C122.219 154.862 121.027 132.318 109.882 113.967C109.571 113.507 109.286 113.072 109.001 112.612Z" fill="#431F20"/>
<path fill-rule="evenodd" clip-rule="evenodd" d="M102.597 115.985C100.368 112.535 97.7757 109.289 94.9247 106.375C94.9247 106.375 94.3804 105.761 93.6547 105.736C93.4214 105.736 92.8253 106.247 92.9289 106.426C92.9549 106.452 94.2249 107.039 94.2508 107.065C97.3869 110.285 100.186 113.864 102.545 117.749C112.109 133.493 113.716 152.203 106.977 169.098C106.873 169.353 107.003 169.634 107.262 169.737C107.521 169.839 107.806 169.711 107.91 169.455C114.778 152.279 113.145 133.263 103.4 117.263C103.141 116.829 102.882 116.394 102.597 115.985Z" fill="#431F20"/>
<path fill-rule="evenodd" clip-rule="evenodd" d="M104.256 180.063L104.67 180.344C104.981 179.884 105.603 179.782 106.07 180.089C106.536 180.396 106.64 181.009 106.329 181.469C106.303 181.495 106.303 181.52 106.277 181.52C106.251 181.546 106.044 181.852 105.785 182.236C105.422 182.747 105.007 183.386 104.955 183.437C104.644 183.769 104.074 183.846 103.659 183.565C103.245 183.284 103.089 182.722 103.323 182.287C103.348 182.261 103.763 181.648 104.126 181.137C104.385 180.753 104.618 180.396 104.644 180.396L104.256 180.063ZM107.184 179.833C107.055 179.603 106.847 179.424 106.614 179.271C105.707 178.658 104.463 178.888 103.841 179.782L103.815 179.808C103.763 179.884 103.556 180.191 103.297 180.549C102.467 181.75 102.467 181.75 102.441 181.801C101.975 182.696 102.26 183.769 103.089 184.332C103.919 184.868 105.033 184.741 105.681 184.025C105.707 183.999 105.707 183.999 106.562 182.747C106.796 182.389 107.003 182.108 107.029 182.083C107.055 182.057 107.081 182.031 107.107 181.98C107.599 181.316 107.599 180.472 107.184 179.833Z" fill="#431F20"/>
<path fill-rule="evenodd" clip-rule="evenodd" d="M100.939 181.494C100.758 181.213 100.732 180.83 100.888 180.498C100.913 180.446 101.38 179.782 101.743 179.245C101.976 178.887 102.183 178.606 102.183 178.581L102.209 178.555C102.52 178.095 103.142 177.993 103.609 178.299C103.842 178.453 103.972 178.683 104.024 178.938C104.075 179.194 104.024 179.475 103.868 179.68C103.842 179.705 103.842 179.731 103.816 179.731C103.79 179.756 103.635 180.012 103.402 180.319C103.039 180.855 102.52 181.571 102.469 181.648C102.158 181.98 101.587 182.057 101.173 181.776C101.095 181.724 101.017 181.622 100.939 181.494ZM104.723 178.095C104.568 177.865 104.387 177.686 104.153 177.533C103.246 176.919 102.002 177.149 101.38 178.044L101.328 178.121C101.302 178.146 101.121 178.427 100.888 178.734C100.006 180.038 100.006 180.038 99.9804 180.063C99.5138 180.958 99.7989 182.031 100.628 182.593C101.458 183.156 102.572 183.002 103.22 182.287C103.246 182.261 103.246 182.261 104.205 180.881C104.412 180.6 104.568 180.37 104.568 180.344C104.594 180.344 104.62 180.293 104.646 180.242C104.931 179.807 105.06 179.296 104.957 178.76C104.957 178.53 104.853 178.299 104.723 178.095Z" fill="#431F20"/>
<path fill-rule="evenodd" clip-rule="evenodd" d="M112.913 173.162C112.394 172.498 111.98 172.293 111.695 172.038C111.435 171.935 111.15 172.063 111.047 172.319C110.943 172.574 111.072 172.856 111.332 172.958C112.187 173.674 111.954 173.392 112.342 174.721C112.679 175.872 112.524 177.073 111.954 178.121C109.828 181.316 107.625 184.817 107.314 185.278C106.977 185.635 106.615 185.814 106.2 185.533C105.941 185.38 105.604 185.584 105.448 185.405C105.267 185.175 105.241 184.843 105.889 183.795C106.018 183.565 105.967 183.258 105.733 183.131C105.5 183.003 105.215 183.054 105.059 183.284C104.619 183.923 104.049 184.69 104.282 184.562C105.137 184.076 104.748 185.073 105.941 185.84C106.77 186.377 107.366 186.453 108.04 185.738C108.066 185.686 106.252 188.421 112.783 178.632C113.509 177.329 113.69 175.872 113.276 174.466C113.12 173.955 113.198 173.597 112.913 173.162Z" fill="#431F20"/>
<path fill-rule="evenodd" clip-rule="evenodd" d="M100.058 175.64C100.032 175.589 99.9798 175.538 99.9021 175.487C99.6688 175.334 99.3578 175.41 99.2282 175.64C95.4182 181.442 95.3923 181.468 95.3923 181.493C94.9516 182.388 95.2627 183.436 96.0921 183.998C96.9214 184.561 98.0619 184.407 98.7098 183.64C98.7357 183.589 98.7357 183.589 100.006 181.647C100.369 181.11 100.654 180.624 100.68 180.599C100.835 180.369 100.757 180.088 100.55 179.934C100.343 179.781 100.032 179.832 99.8761 180.037C99.8502 180.062 99.8502 180.062 99.1764 181.136C98.6321 181.954 97.9841 182.976 97.9323 183.053C97.6212 183.41 97.051 183.487 96.6363 183.206C96.2216 182.925 96.0661 182.388 96.2735 181.954C96.3253 181.877 98.7876 178.145 100.058 176.203C100.187 175.998 100.161 175.794 100.058 175.64Z" fill="#431F20"/>
<path fill-rule="evenodd" clip-rule="evenodd" d="M101.225 174.287C101.173 174.236 101.121 174.159 101.044 174.133C100.81 174.006 100.499 174.082 100.37 174.312C98.6591 177.201 94.6417 175.82 94.5899 175.82C94.3048 175.693 94.0974 175.437 93.9937 175.13C93.8123 174.542 94.1752 173.903 94.7713 173.75C95.0305 173.673 95.186 173.418 95.1082 173.162C95.0305 172.907 94.7713 172.753 94.5121 172.83C93.3976 173.137 92.7237 174.312 93.0607 175.411C93.2162 175.974 93.6309 176.459 94.1752 176.715C94.7713 176.996 99.2552 178.172 101.225 174.824C101.329 174.619 101.329 174.415 101.225 174.287Z" fill="#431F20"/>
<path fill-rule="evenodd" clip-rule="evenodd" d="M108.066 169.788C108.04 169.737 107.988 169.712 107.962 169.66C106.9 168.843 105.552 168.561 104.256 168.919C103.426 169.124 102.701 169.584 102.131 170.197C101.457 170.99 99.0462 173.392 95.1066 172.702C94.8474 172.651 94.5883 172.83 94.5364 173.085C94.4846 173.341 94.666 173.597 94.9252 173.648C99.3832 174.44 102.131 171.705 102.856 170.862C103.297 170.351 103.867 170.018 104.489 169.865C105.474 169.609 106.511 169.814 107.34 170.453C107.547 170.606 107.858 170.581 108.04 170.376C108.17 170.197 108.17 169.967 108.066 169.788Z" fill="#431F20"/>
<path fill-rule="evenodd" clip-rule="evenodd" d="M106.717 181.724L107.131 182.006C107.442 181.546 108.064 181.443 108.531 181.75C108.997 182.057 109.101 182.67 108.79 183.13C108.764 183.156 108.764 183.181 108.738 183.181C108.712 183.207 108.505 183.514 108.246 183.897C107.883 184.408 107.468 185.047 107.416 185.098C107.105 185.431 106.535 185.507 106.12 185.226C105.706 184.945 105.55 184.383 105.783 183.948C105.809 183.923 106.224 183.309 106.587 182.798C106.846 182.415 107.079 182.057 107.105 182.057L106.717 181.724ZM109.645 181.494C109.516 181.264 109.308 181.085 109.075 180.932C108.168 180.319 106.924 180.549 106.302 181.443L106.276 181.469C106.224 181.546 106.017 181.852 105.758 182.21C104.928 183.411 104.928 183.411 104.902 183.462C104.436 184.357 104.721 185.431 105.55 185.993C106.38 186.53 107.494 186.402 108.142 185.686C108.168 185.661 108.168 185.661 109.023 184.408C109.257 184.076 109.464 183.769 109.49 183.744C109.516 183.718 109.542 183.693 109.568 183.641C110.06 183.002 110.06 182.159 109.645 181.494Z" fill="#431F20"/>
<path fill-rule="evenodd" clip-rule="evenodd" d="M57.6288 173.443C47.2096 170.248 38.7861 166.286 39.1231 165.008C39.5378 163.475 50.3976 165.315 64.7305 168.945C65.6117 169.175 66.4929 169.405 67.3742 169.635C82.8993 173.724 95.1587 178.376 94.6922 180.012C94.3553 181.29 86.3724 180.37 75.5126 177.941L71.9358 177.149L57.6288 173.443Z" fill="#40A4CE"/>
<path fill-rule="evenodd" clip-rule="evenodd" d="M63.616 178.785C64.3677 187.347 67.0632 197.085 71.7285 206.466L64.9379 206.593C58.1991 192.996 55.5295 178.683 57.0068 168.178L57.3956 165.699C57.9658 163.245 58.6397 160.766 59.4691 158.337L65.1971 159.794L63.616 178.785Z" fill="#FDD491"/>
<path fill-rule="evenodd" clip-rule="evenodd" d="M65.1965 207.284C65.2743 207.284 65.3261 207.258 65.4038 207.233C65.6371 207.13 65.7149 206.849 65.6112 206.645C59.1575 193.61 56.2028 179.347 57.732 168.51L58.1208 166.057C58.6651 163.628 59.3649 161.175 60.1683 158.772C60.2461 158.542 60.1165 158.286 59.8832 158.21C59.65 158.133 59.3908 158.261 59.313 158.491C58.4836 160.919 57.7838 163.398 57.2395 165.903L56.8508 168.408C55.2957 179.45 58.2763 193.891 64.8077 207.079C64.8596 207.207 65.0151 207.284 65.1965 207.284Z" fill="#431F20"/>
<path fill-rule="evenodd" clip-rule="evenodd" d="M71.9885 207.155C72.0404 207.155 72.1181 207.13 72.1699 207.104C72.3773 207.002 72.481 206.746 72.3773 206.516C68.0748 197.826 65.2756 188.318 64.5499 179.756C63.8761 170.887 66.1828 161.481 66.1569 161.455C66.0014 161.097 65.5089 161.123 65.3534 161.455C65.3275 161.506 62.8134 170.631 63.6687 179.832C64.4203 188.497 67.2455 198.107 71.5997 206.9C71.6516 207.053 71.8071 207.155 71.9885 207.155Z" fill="#431F20"/>
<path fill-rule="evenodd" clip-rule="evenodd" d="M77.4578 248.485C80.2829 248.434 82.5119 246.159 82.4601 243.373C82.4082 240.587 80.1015 238.389 77.2764 238.44C74.4513 238.491 72.2223 240.766 72.2741 243.552C72.3259 246.338 74.6586 248.536 77.4578 248.485Z" fill="#FEFEFE"/>
<path fill-rule="evenodd" clip-rule="evenodd" d="M56.568 210.913C56.568 210.913 56.4384 213.674 55.9978 214.491C55.7127 215.028 54.3909 215.667 54.3909 215.667L51.1511 217.865C51.1511 217.865 42.3906 220.702 39.5137 221.699C37.2588 222.491 35.911 223.309 35.2112 224.638C33.8635 227.169 34.8743 230.313 37.4402 231.642C38.5547 232.23 40.2912 232.204 40.2912 232.204C48.5851 232.255 73.3891 231.335 73.3891 231.335C74.6332 231.156 75.7736 230.415 76.3956 229.239C76.7844 228.472 77.225 227.092 77.1213 226.3L76.2401 213.213L56.568 210.913Z" fill="#BD7E00"/>
<path fill-rule="evenodd" clip-rule="evenodd" d="M56.5407 210.632C56.5407 210.632 62.0873 209.814 66.2861 215.59C66.7008 216.178 67.1673 216.715 67.8671 217.073C69.7591 218.044 72.1177 217.328 73.1026 215.437C73.1026 215.437 75.0724 212.37 78.1049 212.856L78.8047 200.204L56.1261 199.002L56.5407 210.632Z" fill="#AEAB92"/>
<path fill-rule="evenodd" clip-rule="evenodd" d="M77.4582 212.14C74.4517 212.14 72.6115 214.951 72.5337 215.079C71.6784 216.664 69.7605 217.277 68.1795 216.485C67.6092 216.204 67.1945 215.692 66.8576 215.207C63.3586 210.35 58.9525 209.916 57.2159 209.942L56.8272 199.692L78.1062 200.817L77.4582 212.14ZM55.8941 210.811C55.92 210.938 55.9978 211.041 56.1015 211.117C56.257 211.245 56.4384 211.296 56.6198 211.271C56.8531 211.245 61.8554 210.606 65.7172 215.948C66.1578 216.536 66.7021 217.2 67.5315 217.635C69.7605 218.785 72.5078 217.916 73.6482 215.718C73.6482 215.718 75.4107 213.085 77.9507 213.469C78.1321 213.494 78.3395 213.443 78.4691 213.341C78.6246 213.213 78.7023 213.06 78.7283 212.855L79.4281 200.203C79.454 199.846 79.1689 199.539 78.806 199.513L56.1274 198.312C55.9459 198.312 55.7645 198.363 55.6349 198.491C55.5053 198.619 55.4276 198.798 55.4276 198.977L55.8682 210.606C55.8682 210.708 55.8941 210.759 55.8941 210.811Z" fill="#431F20"/>
<path fill-rule="evenodd" clip-rule="evenodd" d="M56.5673 207.436L65.5869 208.356C66.6236 208.459 67.5567 207.717 67.6604 206.695C67.764 205.673 67.0124 204.778 65.9757 204.676L56.4377 203.705L56.5673 207.436Z" fill="#BD7E00"/>
<path fill-rule="evenodd" clip-rule="evenodd" d="M56.5687 220.447C59.99 222.415 61.7265 218.479 54.7026 215.59C52.8624 214.824 50.7371 216.868 51.5406 217.303C53.8214 218.555 55.8171 220.012 56.5687 220.447Z" fill="#FEFEFE"/>
<path fill-rule="evenodd" clip-rule="evenodd" d="M38.3724 240.561C38.3983 240.638 38.3983 240.714 38.4242 240.791C38.4242 241.021 38.3465 241.226 38.191 241.404C38.0355 241.558 37.8281 241.66 37.5949 241.66C37.3616 241.66 37.1543 241.583 36.9728 241.43C36.8173 241.277 36.7136 241.072 36.7136 240.842C36.7136 240.382 37.0765 239.973 37.5689 239.973C37.9318 239.948 38.2687 240.203 38.3724 240.561ZM35.4696 241.456C35.5732 241.788 35.7806 242.095 36.0398 242.35C36.4545 242.759 37.0247 242.964 37.5949 242.964C38.191 242.964 38.7353 242.708 39.124 242.299C39.5387 241.89 39.7461 241.328 39.7461 240.765C39.7202 239.564 38.7353 238.619 37.5171 238.644C36.2989 238.67 35.34 239.666 35.3659 240.842C35.3659 241.072 35.3918 241.277 35.4696 241.456Z" fill="#431F20"/>
<path fill-rule="evenodd" clip-rule="evenodd" d="M37.6214 245.188C35.1851 245.239 33.1634 243.297 33.1116 240.894C33.0857 239.719 33.5263 238.62 34.3557 237.776C35.185 236.933 36.2736 236.473 37.4659 236.447C39.9022 236.396 41.9238 238.338 41.9757 240.741C42.0275 243.144 40.0836 245.137 37.6214 245.188ZM32.0489 242.505C32.8005 244.831 35.0295 246.517 37.6473 246.492C40.8353 246.441 43.3753 243.859 43.3234 240.715C43.2716 237.572 40.6538 235.067 37.4659 235.118C35.9367 235.144 34.4852 235.757 33.4226 236.856C32.3599 237.955 31.7897 239.386 31.7897 240.894C31.8157 241.457 31.8934 242.019 32.0489 242.505Z" fill="#431F20"/>
<path fill-rule="evenodd" clip-rule="evenodd" d="M34.4856 228.677C34.9521 230.108 35.937 231.361 37.3885 232.102C38.6326 232.741 40.4728 232.741 40.5505 232.741C48.7667 232.792 73.4151 231.872 73.6484 231.872C73.6743 231.872 73.7002 231.872 73.7261 231.872C75.2035 231.642 76.5253 230.747 77.2251 229.418C77.6398 228.626 78.1582 227.092 78.0286 226.096L77.1473 213.06C77.1214 212.703 76.8104 212.421 76.4475 212.447C76.0847 212.472 75.7996 212.779 75.8255 213.137L76.7067 226.223C76.7845 226.837 76.4216 228.115 76.0588 228.805C75.5663 229.725 74.6592 230.39 73.5965 230.543C72.482 230.594 48.6112 231.463 40.5764 231.412C40.5505 231.412 38.9954 231.412 38.0364 230.926C35.7815 229.776 34.9262 227.041 36.0926 224.818C36.6628 223.719 37.8032 222.977 40.0322 222.211C42.8832 221.214 51.5918 218.402 51.6695 218.377C52.0065 218.274 52.2138 217.891 52.1101 217.559C51.9805 217.201 51.6177 217.022 51.2548 217.15C51.1771 217.175 42.4685 219.987 39.5915 220.984C37.0256 221.878 35.6779 222.824 34.9262 224.23C34.1227 225.636 34.0191 227.246 34.4856 228.677Z" fill="#431F20"/>
<path fill-rule="evenodd" clip-rule="evenodd" d="M58.6943 220.114C58.7203 220.191 58.7462 220.268 58.7462 220.344C58.7721 220.651 58.6166 220.728 58.5647 220.779C58.2796 220.958 57.6058 220.932 56.7505 220.447C56.5172 220.319 56.1543 220.063 55.6878 219.757C54.7807 219.169 53.4588 218.274 51.9815 217.456C52.1111 217.303 52.3703 217.073 52.7331 216.894C53.0441 216.741 53.6662 216.51 54.2882 216.766C57.3207 218.018 58.4611 219.373 58.6943 220.114ZM50.5819 217.891C50.6596 218.146 50.8411 218.325 51.0484 218.453C52.5776 219.271 53.9513 220.191 54.9362 220.856C55.4286 221.188 55.8174 221.443 56.0766 221.597C57.2688 222.287 58.4611 222.415 59.2645 221.904C59.8347 221.546 60.1198 220.958 60.0421 220.242C59.9125 218.581 57.9427 216.843 54.7807 215.565C53.07 214.875 51.178 215.999 50.6596 217.047C50.53 217.38 50.5041 217.661 50.5819 217.891Z" fill="#431F20"/>
<path fill-rule="evenodd" clip-rule="evenodd" d="M53.871 216.331C53.871 216.356 53.8969 216.382 53.8969 216.407C54.0524 216.74 54.4671 216.867 54.7781 216.714C55.141 216.535 56.3332 215.947 56.6961 215.257C57.1886 214.337 57.3181 211.883 57.3441 211.398C57.37 211.04 57.0849 210.733 56.722 210.708C56.3592 210.682 56.0481 210.963 56.0222 211.321C55.9704 212.395 55.763 214.158 55.5039 214.644C55.4002 214.823 54.7781 215.257 54.2079 215.513C53.9228 215.692 53.7673 216.024 53.871 216.331Z" fill="#431F20"/>
<path fill-rule="evenodd" clip-rule="evenodd" d="M55.9201 207.642C55.9979 207.897 56.2052 208.076 56.4903 208.102L65.5099 209.022C66.9095 209.175 68.1795 208.153 68.3091 206.798C68.4387 205.418 67.4279 204.191 66.0283 204.038L56.4903 203.067C56.1275 203.041 55.7905 203.297 55.7646 203.655C55.7387 204.012 55.9979 204.345 56.3607 204.37L65.8987 205.341C66.5726 205.418 67.065 206.006 66.9873 206.645C66.9095 207.31 66.3134 207.77 65.6395 207.719L56.6199 206.798C56.257 206.747 55.9201 207.028 55.8942 207.386C55.8942 207.463 55.8942 207.54 55.9201 207.642Z" fill="#431F20"/>
<path fill-rule="evenodd" clip-rule="evenodd" d="M58.1217 184.076C58.1994 184.076 58.3031 184.05 58.3549 183.999C58.6659 183.794 59.0288 183.769 59.3139 183.922C59.5472 184.024 59.8063 183.948 59.91 183.718C60.0137 183.488 59.9359 183.232 59.7027 183.13C59.1066 182.823 58.4068 182.874 57.8366 183.258C57.6292 183.385 57.5774 183.667 57.707 183.871C57.8366 183.999 57.9661 184.076 58.1217 184.076Z" fill="#431F20"/>
<path fill-rule="evenodd" clip-rule="evenodd" d="M76.4445 181.444C77.1962 190.108 79.9176 199.923 84.6348 209.406L77.7664 209.559C70.9498 195.808 68.2802 181.393 69.7576 170.785L70.1464 168.281C70.7166 165.801 71.4164 163.322 72.2458 160.843L78.0256 162.3L76.4445 181.444Z" fill="#FDD491"/>
<path fill-rule="evenodd" clip-rule="evenodd" d="M78.0539 210.248C78.1317 210.248 78.1835 210.223 78.2613 210.197C78.4945 210.095 78.5723 209.814 78.4686 209.609C71.9372 196.446 68.9825 182.056 70.5117 171.091L70.9004 168.612C71.4706 166.159 72.1704 163.679 72.9739 161.251C73.0517 161.021 72.9221 160.765 72.6888 160.689C72.4555 160.612 72.1964 160.74 72.1186 160.97C71.2892 163.424 70.5894 165.928 70.0192 168.433L69.6045 170.964C68.0494 182.108 71.0559 196.702 77.6392 210.018C77.717 210.146 77.8725 210.248 78.0539 210.248Z" fill="#431F20"/>
<path fill-rule="evenodd" clip-rule="evenodd" d="M84.8928 210.096C84.9706 210.096 85.0224 210.07 85.0742 210.045C85.2816 209.942 85.3853 209.687 85.2816 209.457C80.9273 200.664 78.1022 191.08 77.3765 182.415C76.6767 173.469 79.0353 163.961 79.0093 163.936C78.8538 163.578 78.3355 163.603 78.2059 163.936C78.1799 163.987 75.6399 173.214 76.4952 182.492C77.2469 191.259 80.0979 200.946 84.504 209.84C84.5818 210.019 84.7373 210.096 84.8928 210.096Z" fill="#431F20"/>
<path fill-rule="evenodd" clip-rule="evenodd" d="M70.8994 186.785C70.9771 186.785 71.0808 186.759 71.1586 186.708C71.4696 186.504 71.8324 186.478 72.1435 186.631C72.3767 186.734 72.6359 186.657 72.7655 186.427C72.8692 186.197 72.7914 185.941 72.5581 185.813C71.962 185.507 71.2622 185.558 70.6661 185.941C70.4588 186.069 70.4069 186.35 70.5365 186.555C70.6143 186.734 70.7698 186.785 70.8994 186.785Z" fill="#431F20"/>
<path fill-rule="evenodd" clip-rule="evenodd" d="M97.6735 134.746C102.546 150.21 100.913 166.082 94.3559 179.475L94.4078 179.705C94.8484 178.069 82.6149 173.418 67.0897 169.328C66.1826 169.098 65.3014 168.868 64.4201 168.638C50.0872 165.009 39.2274 163.168 38.8127 164.702L39.1237 164.088C49.828 157.417 49.4652 150.542 51.4609 138.376L52.368 133.136C53.1456 132.983 57.6554 103.538 58.3034 101.289C59.3919 97.4296 59.9103 86.848 60.4546 86.8736C62.6317 87.0269 64.1091 87.0014 65.6642 86.2857C65.9234 86.1835 66.4418 86.5413 66.4418 86.9503C66.7269 94.0813 71.0034 97.5574 74.3728 97.4807C79.7379 98.1197 83.0814 93.9024 83.6257 91.5509C83.7034 91.1931 91.479 92.5478 91.3753 93.059C90.6755 96.535 91.1679 103.896 93.0341 106.657C93.6043 107.474 93.9671 128.51 97.0514 134.235L97.6735 134.746Z" fill="#2AB6E4"/>
<path fill-rule="evenodd" clip-rule="evenodd" d="M93.7852 180.804C94.4591 180.625 94.6923 180.318 94.7701 179.986C94.9256 179.372 95.2366 178.248 86.7354 175.002C81.5517 173.034 74.5537 170.861 67.0115 168.867C66.1043 168.637 65.2231 168.407 64.3419 168.177C38.7863 161.736 38.1902 163.934 38.0087 164.676C37.3348 167.206 51.4345 172.139 56.9033 173.826C57.2143 173.928 56.7996 173.621 56.9033 173.289C57.0069 172.982 57.4216 172.676 57.0847 172.574C47.1061 169.506 40.2118 166.209 39.2528 164.982C40.4451 164.548 46.7692 164.982 64.0308 169.328C64.9121 169.558 65.7933 169.788 66.6745 170.018C82.718 174.235 92.4374 178.273 93.5001 179.628C92.4115 180.037 88.6274 180.139 76.9641 177.558C76.0829 177.353 76.7568 176.842 76.5235 177.915C76.2643 178.989 76.0052 178.554 76.9123 178.759C82.3293 179.96 84.9989 180.369 88.4719 180.753C91.3748 181.085 92.9299 181.034 93.7852 180.804Z" fill="#431F20"/>
<path fill-rule="evenodd" clip-rule="evenodd" d="M96.7126 174.542C96.8422 174.517 96.9718 174.415 97.0496 174.312C97.231 174.031 97.1532 173.673 96.894 173.495C95.3389 172.472 92.2806 171.143 88.0559 169.635C87.7448 169.533 87.382 169.686 87.2783 169.993C87.1487 170.3 87.3301 170.657 87.6412 170.76C91.7363 172.217 94.7687 173.546 96.2202 174.491C96.3757 174.568 96.5571 174.594 96.7126 174.542Z" fill="#431F20"/>
<path fill-rule="evenodd" clip-rule="evenodd" d="M84.4305 169.532C84.6119 169.481 84.7674 169.353 84.8452 169.149C84.9489 168.842 84.7934 168.51 84.4564 168.408C80.2317 167.002 75.385 165.596 70.4345 164.293C70.0976 164.216 69.7866 164.395 69.6829 164.727C69.6051 165.034 69.7866 165.366 70.1235 165.468C75.0739 166.772 79.8948 168.178 84.0936 169.558C84.1972 169.558 84.3268 169.558 84.4305 169.532Z" fill="#431F20"/>
<path fill-rule="evenodd" clip-rule="evenodd" d="M67.7901 164.728C67.9974 164.677 68.153 164.523 68.2048 164.293C68.2826 163.961 68.1011 163.654 67.7642 163.578C66.9866 163.373 66.2091 163.194 65.4315 162.99C59.5739 161.559 54.3903 160.434 50.4766 159.795C50.1396 159.744 49.8286 159.948 49.7768 160.281C49.7249 160.613 49.9323 160.92 50.2692 160.971C54.157 161.635 59.3148 162.734 65.1464 164.166C65.8981 164.344 66.6756 164.549 67.4532 164.753C67.5827 164.753 67.6864 164.753 67.7901 164.728Z" fill="#431F20"/>
<path fill-rule="evenodd" clip-rule="evenodd" d="M39.0715 164.803C39.1233 164.778 39.1751 164.752 39.227 164.727C49.5425 158.286 51.279 149.263 53.4562 136.1C56.074 116.982 58.4584 103.103 58.4584 103.001C59.7544 95.3842 61.154 86.234 61.1021 86.2595C60.7393 86.3362 60.6874 86.464 60.3505 86.1062C60.2987 86.055 58.4584 95.7932 57.4735 102.848C57.4735 102.924 54.8817 119.384 51.8492 135.998C49.7498 148.778 48.6094 157.468 38.579 163.704C38.2939 163.883 38.2162 164.241 38.3976 164.522C38.5531 164.778 38.8123 164.855 39.0715 164.803Z" fill="#431F20"/>
<path fill-rule="evenodd" clip-rule="evenodd" d="M94.3045 180.165C94.46 180.114 94.6155 180.011 94.6933 179.858C101.588 165.775 102.78 149.749 98.0367 134.695C94.6155 127.001 94.3304 107.167 94.2526 107.09C94.2526 107.09 90.1316 100.726 91.8422 93.1606C91.8941 92.9305 91.7645 92.8027 91.7645 92.8027C90.9092 93.544 91.3757 92.9817 90.9869 92.8283C90.9869 92.8283 91.0388 92.9305 91.0128 93.0839C89.5355 101.697 93.0086 106.707 93.0086 106.733C92.9826 106.809 93.3455 128.484 96.8963 135.052C101.562 149.826 100.395 165.545 93.6047 179.347C93.4492 179.653 93.5788 180.011 93.8898 180.139C94.0194 180.19 94.1749 180.19 94.3045 180.165Z" fill="#431F20"/>
<path fill-rule="evenodd" clip-rule="evenodd" d="M63.7956 91.193C63.7438 91.2185 63.7179 91.2185 63.6661 91.2441C63.355 91.2952 63.044 91.0907 62.9922 90.784C62.6811 89.0715 62.4738 88.8159 62.9662 86.7967C63.2773 86.4645 64.0548 86.669 64.1067 87.0779C63.6401 88.9437 63.8734 89.046 64.1326 90.5795C64.1844 90.8096 64.0289 91.0652 63.7956 91.193Z" fill="#431F20"/>
<path fill-rule="evenodd" clip-rule="evenodd" d="M80.9307 100.215C75.4619 102.669 68.9304 101.007 65.3537 96.2276C65.1723 95.9721 65.2241 95.6142 65.4833 95.4097C65.7425 95.2053 66.1053 95.2819 66.3127 95.5375C69.5525 99.8571 75.4878 101.391 80.4641 99.1414C83.1337 97.9401 85.3627 95.1797 86.5031 91.5503C87.0474 91.6525 87.4362 91.7548 88.0841 91.857C88.0841 91.8826 91.8164 92.7005 91.8164 92.726C91.6868 93.135 91.6609 93.2883 91.5572 93.6717C91.5054 93.8506 87.4103 92.5727 87.3844 92.6493C85.0517 96.9689 83.5225 99.0392 80.9307 100.215Z" fill="#431F20"/>
<path fill-rule="evenodd" clip-rule="evenodd" d="M79.5561 97.2248C77.1975 98.2983 74.4501 98.3494 72.0138 97.4037C69.7071 96.5091 67.9446 94.7967 67.0375 92.573C66.0526 90.196 66.234 87.9979 66.4154 86.9755C64.0309 87.5378 63.5385 87.819 59.9617 87.1544C60.0395 86.6177 60.1691 86.8988 60.3246 86.0809C62.9424 86.6432 63.5644 86.4132 67.193 85.9787C67.4003 85.9531 67.6336 85.9276 67.7891 85.8765C67.8669 86.0043 67.6854 86.541 67.6336 86.6944C67.6336 86.7199 66.9338 89.3014 68.1001 92.1385C68.8777 94.0555 70.4328 95.5379 72.4285 96.3047C74.5538 97.1481 76.9642 97.0715 79.0377 96.1513C81.1889 95.1801 82.7181 92.0618 83.4179 89.8382C83.7808 89.9148 83.4179 89.8382 84.3769 90.4005C85.284 90.8605 86.9428 91.6784 87.0465 91.704C87.0983 91.704 86.2689 92.1385 86.1394 92.4452C86.1394 92.4708 84.2214 91.6018 84.1955 91.6273C83.3402 93.851 81.7851 96.228 79.5561 97.2248Z" fill="#431F20"/>
<path fill-rule="evenodd" clip-rule="evenodd" d="M76.366 245.035C79.1911 244.984 81.4201 242.709 81.3683 239.923C81.3164 237.137 79.0097 234.939 76.1846 234.99C73.3595 235.041 71.1305 237.316 71.1823 240.102C71.2342 242.862 73.5668 245.086 76.366 245.035Z" fill="#FEFEFE"/>
<path fill-rule="evenodd" clip-rule="evenodd" d="M63.5652 245.24C66.3903 245.188 68.6193 242.914 68.5675 240.128C68.5156 237.342 66.2089 235.144 63.3838 235.195C60.5587 235.246 58.3297 237.521 58.3815 240.307C58.4074 243.093 60.7401 245.291 63.5652 245.24Z" fill="#FEFEFE"/>
<path fill-rule="evenodd" clip-rule="evenodd" d="M50.7332 245.469C53.5583 245.418 55.7873 243.143 55.7354 240.357C55.6836 237.571 53.3769 235.373 50.5518 235.424C47.7526 235.475 45.4977 237.75 45.5495 240.536C45.6013 243.297 47.934 245.495 50.7332 245.469Z" fill="#FEFEFE"/>
<path fill-rule="evenodd" clip-rule="evenodd" d="M70.4858 212.855C70.4858 212.855 70.3303 215.59 69.8638 216.434C69.5787 216.971 68.2568 217.584 68.2568 217.584L65.017 219.756C65.017 219.756 56.2307 222.517 53.3278 223.514C51.047 224.28 49.7251 225.098 48.9994 226.402C47.6257 228.932 48.6106 232.076 51.1766 233.405C52.2911 233.993 54.0017 233.993 54.0017 233.993C62.2956 234.095 87.0995 233.38 87.0995 233.38C88.3436 233.201 89.484 232.485 90.1061 231.309C90.5208 230.568 90.9614 229.162 90.8577 228.37L90.0802 215.284L70.4858 212.855Z" fill="#FFAA00"/>
<path fill-rule="evenodd" clip-rule="evenodd" d="M89.5609 247.54C92.386 247.514 94.6409 245.239 94.615 242.479C94.5891 239.693 92.2823 237.469 89.4832 237.495C86.658 237.52 84.4031 239.795 84.4291 242.556C84.455 245.316 86.7358 247.54 89.5609 247.54Z" fill="#FEFEFE"/>
<path fill-rule="evenodd" clip-rule="evenodd" d="M75.9276 242.198C75.9535 242.121 76.0053 242.07 76.0831 241.994C76.2386 241.84 76.446 241.738 76.6792 241.738C76.9125 241.738 77.1198 241.815 77.3013 241.994C77.4568 242.147 77.5605 242.377 77.5605 242.581C77.5605 242.811 77.4827 243.016 77.3013 243.195C77.1458 243.348 76.9125 243.45 76.7051 243.45C76.2386 243.45 75.8498 243.067 75.8498 242.607C75.8498 242.479 75.8758 242.326 75.9276 242.198ZM78.649 243.629C78.8305 243.323 78.9082 242.965 78.9082 242.607C78.9082 242.019 78.6749 241.482 78.2602 241.073C77.8455 240.664 77.2753 240.46 76.7051 240.46C76.109 240.46 75.5647 240.69 75.15 241.099C74.7353 241.508 74.528 242.07 74.528 242.632C74.528 243.22 74.7613 243.757 75.176 244.166C75.5907 244.575 76.1349 244.805 76.7311 244.779C77.3272 244.779 77.8715 244.549 78.2862 244.14C78.4158 243.962 78.5453 243.808 78.649 243.629Z" fill="#391D1D"/>
<path fill-rule="evenodd" clip-rule="evenodd" d="M63.1234 242.325C63.2789 242.07 63.5381 241.865 63.8751 241.865C64.3416 241.865 64.7304 242.248 64.7304 242.709C64.7304 243.169 64.3416 243.552 63.8751 243.552C63.6418 243.552 63.4344 243.475 63.253 243.296C63.0975 243.143 62.9938 242.913 62.9938 242.709C63.0198 242.581 63.0716 242.427 63.1234 242.325ZM65.8189 243.731C65.9744 243.424 66.0781 243.066 66.0781 242.709C66.0781 241.507 65.0673 240.562 63.8491 240.562C62.631 240.587 61.672 241.558 61.672 242.76C61.672 243.347 61.9053 243.884 62.32 244.293C62.7346 244.702 63.3048 244.907 63.8751 244.907C64.7304 244.881 65.4561 244.395 65.8189 243.731Z" fill="#391D1D"/>
<path fill-rule="evenodd" clip-rule="evenodd" d="M50.1913 242.3C50.2172 242.224 50.269 242.172 50.3468 242.096C50.5023 241.942 50.7096 241.84 50.9429 241.84C51.4094 241.84 51.7982 242.224 51.7982 242.684C51.7982 242.914 51.7204 243.118 51.539 243.297C51.3835 243.45 51.1502 243.553 50.9429 243.553C50.7096 243.553 50.5023 243.476 50.3208 243.297C50.1653 243.144 50.0617 242.914 50.0617 242.709C50.0876 242.581 50.1394 242.428 50.1913 242.3ZM52.9127 243.706C53.0941 243.399 53.1719 243.041 53.1719 242.684C53.1719 241.482 52.1611 240.537 50.9688 240.537C50.3727 240.537 49.8284 240.767 49.4137 241.176C48.999 241.585 48.7917 242.147 48.7917 242.709C48.7917 243.297 49.0249 243.834 49.4396 244.243C49.8543 244.652 50.3986 244.882 50.9947 244.856C51.5909 244.856 52.1351 244.626 52.5498 244.217C52.6794 244.064 52.809 243.91 52.9127 243.706Z" fill="#391D1D"/>
<path fill-rule="evenodd" clip-rule="evenodd" d="M76.7308 247.641C79.5559 247.616 81.8109 245.341 81.7849 242.58C81.759 239.794 79.4523 237.571 76.6531 237.596C73.828 237.622 71.5731 239.897 71.599 242.657C71.6249 245.418 73.9317 247.667 76.7308 247.641Z" fill="#FEFEFE"/>
<path fill-rule="evenodd" clip-rule="evenodd" d="M50.9945 247.718C53.8196 247.693 56.0745 245.418 56.0486 242.658C56.0227 239.872 53.7159 237.648 50.9167 237.674C48.0916 237.699 45.8367 239.974 45.8626 242.734C45.8886 245.52 48.1953 247.744 50.9945 247.718Z" fill="#FEFEFE"/>
<path fill-rule="evenodd" clip-rule="evenodd" d="M63.9262 247.744C66.7513 247.719 69.0062 245.444 68.9802 242.684C68.9543 239.898 66.6476 237.674 63.8484 237.699C61.0233 237.725 58.7684 240 58.7943 242.76C58.8202 245.521 61.127 247.77 63.9262 247.744Z" fill="#FEFEFE"/>
<path fill-rule="evenodd" clip-rule="evenodd" d="M70.1223 222.491C73.5176 224.485 75.3059 220.549 68.282 217.635C66.4418 216.868 64.3165 218.887 65.0941 219.322C67.4267 220.6 69.3965 222.057 70.1223 222.491Z" fill="#FEFEFE"/>
<path fill-rule="evenodd" clip-rule="evenodd" d="M70.1979 212.676C70.1979 212.676 75.7704 211.884 79.8914 217.712C80.3061 218.299 80.7726 218.862 81.4465 219.22C83.3386 220.216 85.6712 219.501 86.682 217.635C86.682 217.635 88.6777 214.593 91.7102 215.079L92.5137 202.427L69.861 201.047L70.1979 212.676Z" fill="#FEFEFE"/>
<path fill-rule="evenodd" clip-rule="evenodd" d="M70.2269 209.507L79.2465 210.478C80.2833 210.581 81.2163 209.865 81.3459 208.843C81.4496 207.82 80.698 206.9 79.6612 206.798L70.1232 205.75L70.2269 209.507Z" fill="#FFAA00"/>
<path fill-rule="evenodd" clip-rule="evenodd" d="M85.6463 240.51C85.8537 240.153 86.087 239.795 86.398 239.488C87.2274 238.645 88.3419 238.185 89.5082 238.185C91.9445 238.159 93.9403 240.102 93.9662 242.504C93.9921 244.907 92.0223 246.875 89.586 246.9C88.3937 246.9 87.2792 246.466 86.4498 245.648C85.5945 244.83 85.128 243.731 85.128 242.581C85.128 241.865 85.3094 241.149 85.6463 240.51ZM94.666 245.239C95.1066 244.421 95.3398 243.501 95.3398 242.53C95.3139 239.386 92.6962 236.855 89.5341 236.881C88.0049 236.907 86.5535 237.494 85.4649 238.568C84.3763 239.641 83.8061 241.073 83.8061 242.606C83.8061 244.114 84.4282 245.546 85.5168 246.619C86.6053 247.693 88.0568 248.255 89.6119 248.255C91.1411 248.255 92.5925 247.642 93.6811 246.568C94.0698 246.159 94.4068 245.699 94.666 245.239Z" fill="#431F20"/>
<path fill-rule="evenodd" clip-rule="evenodd" d="M88.809 242.171C88.8608 242.095 88.8867 242.044 88.9645 241.967C89.12 241.813 89.3273 241.711 89.5606 241.711C90.0271 241.711 90.4159 242.095 90.4159 242.555C90.4159 243.015 90.0271 243.398 89.5606 243.398C89.0941 243.398 88.7053 243.015 88.7053 242.555C88.7053 242.427 88.7312 242.299 88.809 242.171ZM91.5045 243.577C91.66 243.27 91.7637 242.913 91.7637 242.555C91.7637 241.353 90.7529 240.408 89.5606 240.408C88.9645 240.408 88.4202 240.638 88.0055 241.047C87.5908 241.456 87.3835 242.018 87.3835 242.58C87.3835 243.782 88.3943 244.727 89.5865 244.727C90.4159 244.727 91.1416 244.267 91.5045 243.577Z" fill="#431F20"/>
<path fill-rule="evenodd" clip-rule="evenodd" d="M75.9803 242.274C76.0322 242.198 76.0581 242.147 76.1358 242.07C76.2913 241.917 76.5246 241.814 76.732 241.814C76.9652 241.814 77.1726 241.891 77.354 242.07C77.5095 242.223 77.6132 242.453 77.6132 242.658C77.6132 242.888 77.5354 243.092 77.354 243.271C77.1985 243.425 76.9652 243.527 76.7579 243.527C76.2913 243.527 75.9026 243.143 75.9026 242.683C75.9026 242.53 75.9285 242.402 75.9803 242.274ZM78.7018 243.68C78.8832 243.373 78.9609 243.016 78.9609 242.658C78.9609 242.07 78.7277 241.533 78.313 241.124C77.8983 240.715 77.3281 240.511 76.7579 240.511C76.1617 240.511 75.6175 240.741 75.2028 241.15C74.7881 241.559 74.5807 242.121 74.5807 242.683C74.5807 243.271 74.814 243.808 75.2287 244.217C75.6434 244.626 76.1877 244.856 76.7838 244.83C77.3799 244.83 77.9242 244.6 78.3389 244.191C78.4685 244.038 78.5981 243.859 78.7018 243.68Z" fill="#431F20"/>
<path fill-rule="evenodd" clip-rule="evenodd" d="M63.1742 242.376C63.3297 242.12 63.5889 241.916 63.9258 241.916C64.3924 241.916 64.7811 242.299 64.7811 242.759C64.7811 243.219 64.3924 243.603 63.9258 243.603C63.6926 243.603 63.4852 243.526 63.3038 243.347C63.1483 243.194 63.0446 242.964 63.0446 242.759C63.0705 242.631 63.1224 242.504 63.1742 242.376ZM65.8697 243.782C66.0252 243.475 66.1289 243.117 66.1289 242.759C66.1289 241.558 65.1181 240.612 63.8999 240.612C62.6818 240.612 61.7228 241.609 61.7228 242.81C61.7228 243.398 61.956 243.935 62.3707 244.344C62.7854 244.753 63.3556 244.957 63.9258 244.957C64.7811 244.932 65.5069 244.472 65.8697 243.782Z" fill="#431F20"/>
<path fill-rule="evenodd" clip-rule="evenodd" d="M50.2401 242.376C50.266 242.299 50.3178 242.248 50.3956 242.171C50.5511 242.018 50.7585 241.916 50.9917 241.916C51.4583 241.916 51.847 242.299 51.847 242.759C51.847 242.989 51.7693 243.194 51.5878 243.373C51.4323 243.526 51.1991 243.628 50.9917 243.628C50.7585 243.628 50.5511 243.552 50.3697 243.373C50.2142 243.219 50.1105 242.989 50.1105 242.785C50.1364 242.631 50.1882 242.504 50.2401 242.376ZM52.9615 243.782C53.1429 243.475 53.2207 243.117 53.2207 242.759C53.2207 241.558 52.2099 240.612 51.0176 240.612C50.4215 240.612 49.8772 240.842 49.4625 241.251C49.0478 241.66 48.8405 242.223 48.8405 242.785C48.8405 243.373 49.0738 243.909 49.4884 244.318C49.9031 244.727 50.4734 244.957 51.0436 244.932C51.6397 244.932 52.184 244.702 52.5987 244.293C52.7282 244.14 52.8578 243.961 52.9615 243.782Z" fill="#431F20"/>
<path fill-rule="evenodd" clip-rule="evenodd" d="M72.8441 240.639C73.5699 239.259 75.0472 238.339 76.7319 238.313C79.1682 238.288 81.164 240.23 81.1899 242.633C81.1899 243.808 80.7493 244.907 79.9199 245.725C79.0905 246.569 77.976 247.029 76.8097 247.029C74.3733 247.054 72.3517 245.112 72.3517 242.684C72.3258 241.968 72.5072 241.252 72.8441 240.639ZM81.8378 245.342C82.2785 244.524 82.5117 243.604 82.5117 242.633C82.4858 239.489 79.868 236.959 76.706 236.984C73.518 237.01 70.9521 239.591 71.0039 242.709C71.0298 245.853 73.6476 248.384 76.8097 248.358C78.3388 248.358 79.7903 247.745 80.8789 246.671C81.2676 246.262 81.5787 245.802 81.8378 245.342Z" fill="#431F20"/>
<path fill-rule="evenodd" clip-rule="evenodd" d="M47.1059 240.715C47.3132 240.357 47.5465 239.999 47.8575 239.692C48.6869 238.849 49.8014 238.389 50.9677 238.389C53.404 238.363 55.3998 240.306 55.4257 242.708C55.4257 243.884 54.9851 244.983 54.1557 245.801C53.3263 246.644 52.2118 247.104 51.0455 247.104C48.6091 247.13 46.5875 245.187 46.5875 242.785C46.5875 242.069 46.743 241.354 47.1059 240.715ZM56.0996 245.417C56.5402 244.6 56.7734 243.679 56.7734 242.708C56.7734 241.2 56.1514 239.769 55.0628 238.695C53.9742 237.622 52.5228 237.06 50.9677 237.06C49.4385 237.06 47.9871 237.673 46.8985 238.746C45.8099 239.82 45.2397 241.251 45.2397 242.785C45.2656 245.903 47.8834 248.433 51.0455 248.408C52.5747 248.408 54.0261 247.794 55.1147 246.695C55.5294 246.363 55.8404 245.903 56.0996 245.417Z" fill="#431F20"/>
<path fill-rule="evenodd" clip-rule="evenodd" d="M60.0394 240.741C60.7652 239.36 62.2425 238.44 63.9272 238.415C66.3636 238.389 68.3852 240.332 68.3852 242.734C68.3852 243.91 67.9446 245.009 67.1152 245.827C66.2858 246.67 65.1713 247.13 64.005 247.13C62.8127 247.13 61.6982 246.696 60.8688 245.878C60.0135 245.06 59.547 243.961 59.547 242.811C59.4952 242.07 59.7025 241.354 60.0394 240.741ZM69.0332 245.444C69.4738 244.626 69.707 243.706 69.707 242.734C69.6811 239.59 67.0634 237.06 63.9013 237.086C60.7133 237.111 58.1733 239.693 58.1992 242.811C58.1992 244.319 58.8213 245.75 59.9099 246.824C60.9984 247.897 62.4499 248.46 64.005 248.46C65.5342 248.434 66.9856 247.846 68.0742 246.773C68.437 246.364 68.774 245.929 69.0332 245.444Z" fill="#431F20"/>
<path fill-rule="evenodd" clip-rule="evenodd" d="M90.7527 231.693C91.1674 230.926 91.7117 229.367 91.5821 228.371L90.8305 215.335C90.8045 214.977 90.4935 214.696 90.1307 214.722C89.7678 214.747 89.4827 215.054 89.5086 215.412L90.2862 228.498C90.3639 229.112 89.9751 230.39 89.6123 231.08C89.1198 232 88.1868 232.665 87.1241 232.818C86.0096 232.843 62.1388 233.534 54.104 233.431C54.0781 233.431 52.523 233.406 51.564 232.92C49.335 231.744 48.4797 229.01 49.672 226.811C50.2681 225.738 51.4085 224.971 53.6375 224.23C56.5145 223.259 65.223 220.524 65.3008 220.498C65.6637 220.396 65.8451 220.013 65.7414 219.68C65.6377 219.323 65.249 219.144 64.912 219.246C64.8343 219.271 56.0998 222.032 53.2228 223.003C50.6569 223.872 49.2832 224.792 48.5316 226.224C47.0024 229.061 48.091 232.613 50.9938 234.121C52.2379 234.786 54.0522 234.786 54.13 234.786C62.3461 234.888 86.9945 234.198 87.2537 234.173C87.2796 234.173 87.3055 234.173 87.3315 234.173C88.757 233.917 90.0529 232.997 90.7527 231.693Z" fill="#431F20"/>
<path fill-rule="evenodd" clip-rule="evenodd" d="M65.7679 218.964C65.8975 218.811 66.1567 218.581 66.5195 218.402C66.8306 218.248 67.4526 218.044 68.0747 218.3C71.444 219.705 72.429 221.239 72.4808 221.903C72.5067 222.21 72.3512 222.287 72.2994 222.338C72.0142 222.517 71.3404 222.466 70.511 221.98C70.2777 221.852 69.9149 221.597 69.4742 221.29C68.593 220.702 67.2453 219.782 65.7679 218.964ZM73.6471 222.824C73.8026 222.542 73.8804 222.185 73.8545 221.801C73.7249 220.165 71.781 218.376 68.6449 217.073C66.9342 216.357 65.0422 217.482 64.4979 218.53C64.161 219.194 64.4461 219.731 64.8608 219.961C66.3899 220.804 67.7377 221.724 68.7485 222.389C69.241 222.721 69.6038 222.977 69.863 223.105C71.0553 223.795 72.2475 223.923 73.051 223.437C73.2843 223.309 73.4916 223.079 73.6471 222.824Z" fill="#431F20"/>
<path fill-rule="evenodd" clip-rule="evenodd" d="M70.5115 216.817C71.0039 215.897 71.1853 213.443 71.2113 212.957C71.2372 212.6 70.9521 212.293 70.5892 212.267C70.2263 212.242 69.9153 212.523 69.8894 212.881C69.8376 213.954 69.6043 215.718 69.3451 216.203C69.2414 216.382 68.6194 216.791 68.0233 217.072C67.6863 217.226 67.5568 217.635 67.7123 217.941C67.8678 218.274 68.2566 218.401 68.5935 218.248C68.9564 218.095 70.1486 217.481 70.5115 216.817Z" fill="#431F20"/>
<path fill-rule="evenodd" clip-rule="evenodd" d="M91.8669 203.092L91.1671 214.414C88.1605 214.389 86.2944 217.2 86.2167 217.328C85.3613 218.913 83.4175 219.501 81.8624 218.683C81.2922 218.376 80.9034 217.89 80.5405 217.379C77.0674 212.497 72.6613 212.012 70.9507 212.037L70.6397 201.788L91.8669 203.092ZM92.3593 215.437C92.4112 215.36 92.4371 215.258 92.4371 215.156L93.2406 202.529C93.2665 202.171 92.9814 201.865 92.6185 201.839L69.9399 200.459C69.7584 200.459 69.577 200.51 69.4215 200.638C69.2919 200.766 69.2142 200.945 69.2142 201.124L69.5511 212.753C69.5511 212.932 69.6548 213.111 69.7844 213.239C69.9399 213.366 70.1213 213.418 70.3027 213.392C70.5101 213.366 75.5383 212.753 79.3742 218.146C79.7889 218.76 80.3591 219.424 81.1626 219.859C83.3656 221.009 86.1389 220.191 87.3052 217.993C87.3052 218.018 89.0677 215.36 91.6336 215.795C91.815 215.82 92.0224 215.769 92.152 215.667C92.2556 215.59 92.3075 215.513 92.3593 215.437Z" fill="#431F20"/>
<path fill-rule="evenodd" clip-rule="evenodd" d="M81.7847 209.864C81.9402 209.583 82.018 209.302 82.0698 208.97C82.1476 208.305 81.9402 207.641 81.5255 207.129C81.0849 206.618 80.4888 206.286 79.8149 206.209L70.2769 205.161C69.9141 205.11 69.5771 205.391 69.5512 205.749C69.5253 206.107 69.7845 206.439 70.1473 206.465L79.6853 207.513C80.0223 207.538 80.3074 207.717 80.5147 207.947C80.7221 208.203 80.8257 208.51 80.7739 208.816C80.748 209.123 80.5666 209.404 80.3333 209.609C80.0741 209.813 79.7631 209.89 79.4261 209.864L70.4065 208.867C70.0437 208.816 69.7067 209.097 69.6808 209.455C69.629 209.813 69.9141 210.145 70.2769 210.171L79.2966 211.168C79.9704 211.244 80.6443 211.065 81.1886 210.631C81.396 210.427 81.6033 210.171 81.7847 209.864Z" fill="#431F20"/>
<path fill-rule="evenodd" clip-rule="evenodd" d="M29.7405 250.249H49.3607C49.7495 250.249 50.0605 249.942 50.0605 249.559C50.0605 249.175 49.7495 248.869 49.3607 248.869H29.7405C29.3517 248.869 29.0407 249.175 29.0407 249.559C29.0407 249.942 29.3517 250.249 29.7405 250.249Z" fill="#431F20"/>
<path fill-rule="evenodd" clip-rule="evenodd" d="M52.9127 250.249H61.3881C61.7769 250.249 62.0879 249.942 62.0879 249.559C62.0879 249.175 61.7769 248.869 61.3881 248.869H52.9127C52.524 248.869 52.2129 249.175 52.2129 249.559C52.2129 249.942 52.524 250.249 52.9127 250.249Z" fill="#431F20"/>
<path fill-rule="evenodd" clip-rule="evenodd" d="M64.5237 250.249H69.7592C70.148 250.249 70.459 249.942 70.459 249.559C70.459 249.175 70.148 248.869 69.7592 248.869H64.5237C64.1349 248.869 63.8239 249.175 63.8239 249.559C63.8239 249.942 64.1349 250.249 64.5237 250.249Z" fill="#431F20"/>
<path fill-rule="evenodd" clip-rule="evenodd" d="M85.2323 250.249H108.611C109 250.249 109.311 249.942 109.311 249.559C109.311 249.175 109 248.869 108.611 248.869H85.2323C84.8435 248.869 84.5325 249.175 84.5325 249.559C84.5325 249.942 84.8435 250.249 85.2323 250.249Z" fill="#431F20"/>
<path fill-rule="evenodd" clip-rule="evenodd" d="M131.367 250.402H154.746C155.134 250.402 155.445 250.095 155.445 249.712C155.445 249.329 155.134 249.022 154.746 249.022H131.367C130.978 249.022 130.667 249.329 130.667 249.712C130.667 250.095 130.978 250.402 131.367 250.402Z" fill="#431F20"/>
</svg>
