<svg viewBox="0 0 700 254" fill="none" xmlns="http://www.w3.org/2000/svg">
<path fill-rule="evenodd" clip-rule="evenodd" d="M736.723 190.025C736.763 190.859 736.874 190.681 734.481 193.625C732.703 195.811 729.892 199.423 728.342 201.512C725.398 205.48 723.916 207.764 721.136 212.614C718.322 217.522 717.188 219.241 715.203 221.607C713.848 223.223 713.672 223.408 713.166 223.753C711.976 224.566 710.653 225.139 709.512 225.335C708.121 225.573 708.184 225.54 707.37 226.459C706.972 226.908 706.586 227.383 706.511 227.515C706.426 227.666 706.379 228.12 706.385 228.735C706.396 229.995 706.353 230.41 706.118 231.319C705.829 232.433 705.449 233.169 704.685 234.09C702.561 236.652 699.204 237.53 695.919 236.385C695.428 236.213 692.921 234.21 692.424 233.591C692.079 233.163 691.595 232.135 691.394 231.405C690.84 229.393 691.151 227.131 692.251 225.177C692.785 224.23 692.804 224.369 692.047 223.732L691.385 223.175L690.92 223.634C689.643 224.892 688.035 225.605 686.137 225.755C684.905 225.852 683.408 225.612 682.475 225.168C681.945 224.915 679.741 223.096 679.277 222.529C678.451 221.517 677.865 219.357 677.952 217.646C678.01 216.503 678.664 214.538 679.198 213.904C679.311 213.769 679.439 213.56 679.48 213.441C679.554 213.228 679.542 213.211 678.953 212.715C678.546 212.373 678.306 212.216 678.218 212.234C678.146 212.249 677.902 212.441 677.676 212.662C676.773 213.544 675.157 214.36 673.86 214.589C672.288 214.866 670.194 214.618 669.165 214.032C668.894 213.878 668.191 213.317 667.36 212.592L665.999 211.405L665.694 210.79C665.216 209.826 664.937 208.848 664.844 207.813C664.676 205.944 665.062 204.284 665.971 202.963C666.526 202.157 666.543 202.274 665.779 201.632L665.109 201.068L664.872 201.28C664.132 201.941 663.445 202.448 662.924 202.717C661.25 203.582 658.921 203.851 657.124 203.387C656.139 203.133 655.819 202.929 654.233 201.551L652.831 200.332L652.495 199.648C651.582 197.794 651.376 196.049 651.844 194.13C652.168 192.803 652.497 192.153 653.383 191.092C654.726 189.483 656.178 188.711 658.488 188.379C658.963 188.311 659.421 188.186 659.57 188.084C659.909 187.852 660.927 186.64 661.098 186.264C661.172 186.102 661.235 185.736 661.238 185.449C661.251 184.129 661.286 183.663 661.42 183.019C661.898 180.717 663.336 178.746 665.476 177.459C666.861 176.626 668.503 176.181 670.317 176.148C674.088 176.078 677.793 177.351 684.831 181.135C690.574 184.223 693.261 185.116 697.045 185.195C698.338 185.221 700.339 185.033 701.069 184.816C701.959 184.551 702.988 183.877 704.328 182.679C705.258 181.848 707.075 179.722 707.818 178.596C708.312 177.846 708.574 177.384 709.877 174.954C710.348 174.077 710.571 173.736 710.863 173.447C711.931 172.388 713.5 172.271 715.151 173.126C715.856 173.491 717.286 174.666 717.875 175.364C719.793 177.637 721.037 180.372 721.431 183.182C721.508 183.728 721.621 184.274 721.684 184.394C721.85 184.715 722.459 184.917 724.269 185.253C726.552 185.677 727.471 185.767 730.147 185.831L732.586 185.889L734.638 187.616L736.691 189.343L736.723 190.025ZM730.759 189.753C730.461 189.723 729.665 189.682 728.989 189.66C725.29 189.542 721.061 188.673 718.471 187.498C717.254 186.947 715.776 186.111 714.92 185.491C714.289 185.034 714.147 184.962 713.903 184.975C713.59 184.992 712.142 185.567 712.007 185.728C711.822 185.948 712.464 187.002 713.328 187.895C713.906 188.493 714.151 188.962 714.203 189.566C714.259 190.21 714.088 190.741 713.663 191.246C713.227 191.764 712.756 192.001 712.041 192.061C711.333 192.12 710.903 191.99 710.39 191.56C709.837 191.097 709.627 190.776 709.496 190.186C709.259 189.125 708.583 187.63 708.19 187.299C707.963 187.109 707.742 187.146 705.886 187.684L704.56 188.069L704.653 188.573C704.936 190.102 705.205 190.956 705.652 191.744C706.102 192.539 705.98 193.673 705.366 194.404C704.853 195.013 703.965 195.311 703.099 195.164C702.705 195.097 702.585 195.032 702.105 194.629C701.614 194.216 701.54 194.12 701.373 193.674C701.25 193.346 701.195 192.947 701.212 192.497C701.248 191.552 701.161 190.648 700.947 189.716L700.765 188.924L699.886 188.957C699.402 188.975 698.515 189.036 697.913 189.092L696.819 189.195L696.676 190.458C696.585 191.262 696.567 191.986 696.628 192.447C696.745 193.344 696.683 193.887 696.397 194.449C695.537 196.136 692.948 196.09 692.224 194.374C691.909 193.63 691.907 192.768 692.217 192.232C692.437 191.853 692.782 190.52 692.901 189.589C692.986 188.925 692.976 188.852 692.789 188.75C692.511 188.597 690.221 187.968 689.685 187.897L689.253 187.84L689.009 188.2C688.649 188.734 688.25 189.766 688.155 190.409C688.109 190.72 687.972 191.151 687.851 191.367C687.432 192.113 686.439 192.625 685.57 192.544C685.049 192.495 684.722 192.342 684.207 191.909C683.635 191.428 683.382 190.847 683.426 190.115C683.478 189.24 683.49 189.215 684.411 188.085C685.22 187.094 685.662 186.37 685.637 186.079C685.621 185.891 679.584 182.684 677.771 181.9C674.781 180.608 671.98 179.913 670.124 180.002C668.221 180.093 666.46 181.111 665.678 182.572C664.957 183.921 664.941 185.225 665.626 186.841L666.037 187.809L685.844 204.474L705.651 221.138L706.588 221.372C708.246 221.786 709.802 221.496 710.894 220.567C711.198 220.308 711.767 219.658 712.661 218.545C714.462 216.303 715.596 214.58 717.45 211.268C721.109 204.734 725.659 198.184 730.715 192.172L732.167 190.446L731.734 190.127C731.371 189.859 731.213 189.798 730.759 189.753ZM713.436 176.641C713.367 176.679 712.973 177.323 712.56 178.071C712.147 178.819 711.472 179.987 711.061 180.666C710.65 181.346 710.289 181.968 710.26 182.049C710.222 182.155 710.587 182.042 711.542 181.653C713.845 180.715 714.599 180.546 715.227 180.829C715.39 180.902 715.922 181.247 716.409 181.596C716.896 181.945 717.32 182.229 717.35 182.226C717.442 182.218 716.403 179.991 715.967 179.261C715.377 178.276 714.961 177.769 714.217 177.133C713.674 176.669 713.539 176.584 713.436 176.641ZM662.421 190.694C661.94 191.266 661.856 191.543 661.897 192.421L661.931 193.129L681.497 209.591L701.064 226.053L701.794 225.982C702.721 225.891 702.838 225.839 703.397 225.26L703.857 224.784L683.329 207.513L662.801 190.242L662.421 190.694ZM701.639 229.926C700.281 230.005 699.201 229.5 696.68 227.606L695.806 226.95L695.552 227.285C695.223 227.719 695.082 228.157 695.02 228.937C694.959 229.698 695.054 230.212 695.391 230.939C696.211 232.711 698.492 233.501 700.382 232.667C700.957 232.413 701.003 232.376 701.602 231.664C702.129 231.037 702.242 230.859 702.34 230.5C702.412 230.236 702.414 230.042 702.346 229.984C702.286 229.933 701.968 229.907 701.639 229.926ZM657.439 192.65C656.143 193.342 655.247 195.029 655.456 196.384C655.626 197.489 656.267 198.551 657.112 199.127C657.755 199.565 658.72 199.777 659.683 199.693C660.618 199.611 661.178 199.378 661.665 198.869L662.022 198.497L661.073 197.623C659.882 196.526 659.123 195.678 658.677 194.947C658.282 194.298 658.135 193.886 658.041 193.162C658.005 192.882 657.928 192.613 657.87 192.565C657.807 192.511 657.635 192.545 657.439 192.65ZM682.368 216.055C682.265 216.224 682.088 216.738 681.976 217.196C681.726 218.212 681.785 218.893 682.204 219.817C682.488 220.443 682.531 220.497 683.175 221.039C683.821 221.582 683.879 221.614 684.55 221.788C685.669 222.079 686.769 221.892 687.914 221.218C688.269 221.009 688.328 220.868 688.172 220.596C688.103 220.475 686.919 219.431 685.305 218.068L682.555 215.746L682.368 216.055ZM669.55 204.904C669.38 204.829 669.321 204.852 669.157 205.061C668.622 205.738 668.516 207.632 668.956 208.622C669.932 210.817 672.752 211.537 674.77 210.107C674.993 209.949 675.207 209.783 675.245 209.737C675.301 209.671 674.764 209.194 672.532 207.324C671.001 206.042 669.659 204.953 669.55 204.904Z" fill="#BF74DD"/>
<path d="M460.358 304.728C477.878 264.568 521 239.752 540.371 232.364C553.563 226.946 581.234 203.657 586.386 153.841C592.826 91.5708 530.849 81.4077 518.883 79.2032C506.918 76.9986 492.643 70.37 469.056 45.0253C445.47 19.6806 427.182 23.1944 398.537 53.4432C369.892 83.6919 344.413 93.709 295.631 88.9803C246.848 84.2516 211.738 91.0391 190.892 131.602C170.046 172.165 222.859 210.156 254.465 239.103C279.751 262.26 267.208 303.202 257.775 320.778C251.869 336.251 244.187 378.007 260.712 421.244C281.369 475.291 334.331 476.239 375.64 459.503C416.95 442.767 438.459 354.927 460.358 304.728Z" fill="#773D8D"/>
<path fill-rule="evenodd" clip-rule="evenodd" d="M412.171 137.455C413.005 137.505 412.825 137.614 415.799 135.258C418.007 133.508 421.655 130.742 423.763 129.219C427.768 126.326 430.071 124.872 434.955 122.154C439.899 119.402 441.632 118.29 444.023 116.335C445.655 115 445.842 114.827 446.194 114.326C447.022 113.145 447.611 111.83 447.821 110.692C448.078 109.304 448.044 109.367 448.973 108.564C449.427 108.172 449.907 107.792 450.04 107.719C450.192 107.636 450.647 107.594 451.261 107.607C452.521 107.635 452.936 107.597 453.849 107.373C454.966 107.099 455.706 106.727 456.638 105.975C459.225 103.885 460.147 100.538 459.042 97.2391C458.877 96.7456 456.906 94.2141 456.293 93.7087C455.87 93.3592 454.847 92.8619 454.12 92.6517C452.115 92.0724 449.849 92.3552 447.882 93.4303C446.928 93.9516 447.067 93.973 446.44 93.2082L445.891 92.5387L446.356 92.0793C447.63 90.8187 448.363 89.2198 448.537 87.324C448.65 86.0935 448.429 84.593 447.996 83.655C447.75 83.1217 445.959 80.8946 445.398 80.4237C444.397 79.5847 442.245 78.9712 440.532 79.0367C439.388 79.0804 437.415 79.71 436.774 80.2356C436.638 80.3474 436.428 80.4719 436.308 80.5122C436.095 80.5836 436.077 80.5705 435.589 79.9752C435.252 79.5645 435.098 79.3223 435.117 79.2344C435.133 79.1625 435.328 78.9213 435.552 78.6983C436.445 77.8062 437.281 76.2011 437.527 74.9063C437.824 73.3388 437.602 71.2419 437.029 70.2051C436.879 69.9322 436.327 69.2218 435.613 68.3821L434.443 67.0063L433.832 66.6936C432.874 66.2034 431.899 65.9117 430.866 65.8058C428.999 65.6144 427.334 65.979 426.001 66.8716C425.188 67.4161 425.306 67.4345 424.673 66.6632L424.118 65.986L424.333 65.7515C425.003 65.0195 425.518 64.3388 425.794 63.822C426.68 62.1587 426.979 59.8336 426.538 58.0309C426.296 57.0428 426.096 56.7195 424.738 55.117L423.537 53.6996L422.857 53.3543C421.014 52.4183 419.272 52.1906 417.348 52.6344C416.017 52.9414 415.363 53.2623 414.291 54.1343C412.665 55.4571 411.874 56.8996 411.513 59.2048C411.439 59.6786 411.308 60.1357 411.204 60.2836C410.968 60.6191 409.743 61.6214 409.365 61.7883C409.203 61.86 408.835 61.9182 408.549 61.9176C407.229 61.9143 406.762 61.9434 406.117 62.0689C403.809 62.518 401.82 63.9307 400.506 66.0548C399.655 67.4289 399.19 69.0651 399.133 70.8781C399.016 74.648 400.242 78.3691 403.937 85.4546C406.952 91.2354 407.811 93.9344 407.842 97.719C407.853 99.0118 407.639 101.011 407.413 101.738C407.137 102.625 406.449 103.644 405.235 104.969C404.392 105.889 402.243 107.679 401.108 108.407C400.352 108.892 399.886 109.148 397.44 110.421C396.557 110.88 396.214 111.098 395.921 111.387C394.849 112.442 394.712 114.009 395.546 115.671C395.902 116.381 397.058 117.825 397.749 118.423C399.998 120.369 402.717 121.648 405.521 122.077C406.067 122.161 406.611 122.281 406.73 122.345C407.049 122.516 407.244 123.127 407.557 124.941C407.952 127.23 408.031 128.149 408.06 130.826L408.087 133.265L409.788 135.34L411.489 137.414L412.171 137.455ZM411.975 131.488C411.949 131.19 411.917 130.393 411.904 129.717C411.832 126.016 411.017 121.777 409.875 119.172C409.339 117.949 408.522 116.46 407.913 115.596C407.464 114.959 407.394 114.816 407.41 114.572C407.431 114.26 408.024 112.819 408.186 112.686C408.409 112.504 409.454 113.159 410.337 114.035C410.927 114.62 411.393 114.871 411.996 114.931C412.64 114.994 413.173 114.83 413.683 114.412C414.207 113.983 414.449 113.515 414.518 112.8C414.587 112.093 414.462 111.661 414.039 111.143C413.583 110.584 413.264 110.371 412.676 110.232C411.618 109.982 410.132 109.287 409.806 108.889C409.618 108.66 409.658 108.439 410.22 106.59L410.621 105.269L411.124 105.369C412.649 105.671 413.5 105.951 414.282 106.407C415.072 106.868 416.207 106.76 416.945 106.155C417.561 105.65 417.87 104.766 417.734 103.898C417.673 103.504 417.609 103.382 417.212 102.897C416.805 102.401 416.71 102.326 416.266 102.153C415.94 102.026 415.542 101.967 415.091 101.978C414.146 102.001 413.243 101.904 412.314 101.677L411.524 101.485L411.569 100.607C411.593 100.124 411.665 99.2368 411.729 98.6359L411.845 97.5436L413.11 97.4161C413.915 97.335 414.639 97.3266 415.099 97.393C415.995 97.5221 416.539 97.4663 417.104 97.1873C418.802 96.3493 418.788 93.7599 417.082 93.0136C416.341 92.6899 415.48 92.6763 414.94 92.9799C414.558 93.195 413.221 93.5231 412.289 93.6305C411.624 93.7071 411.551 93.6966 411.451 93.5083C411.301 93.2283 410.701 90.9305 410.637 90.3932L410.585 89.9603L410.949 89.7215C411.487 89.368 412.524 88.9818 413.168 88.8951C413.48 88.8532 413.913 88.7218 414.13 88.6032C414.881 88.1935 415.406 87.2074 415.336 86.3375C415.293 85.8162 415.145 85.4865 414.718 84.9663C414.245 84.3886 413.667 84.1281 412.934 84.1626C412.059 84.2038 412.033 84.2157 410.892 85.1226C409.89 85.9187 409.161 86.3516 408.87 86.3229C408.682 86.3043 405.552 80.2272 404.792 78.4047C403.537 75.3986 402.877 72.5891 402.989 70.7346C403.105 68.8323 404.145 67.0845 405.616 66.3214C406.974 65.6172 408.278 65.6177 409.885 66.3231L410.848 66.7458L427.261 86.7617L443.674 106.778L443.896 107.718C444.289 109.381 443.979 110.933 443.037 112.013C442.774 112.314 442.117 112.874 440.992 113.755C438.728 115.527 436.991 116.639 433.656 118.451C427.076 122.027 420.469 126.494 414.394 131.474L412.65 132.904L412.336 132.467C412.073 132.101 412.014 131.942 411.975 131.488ZM399.083 114C399.121 113.932 399.77 113.546 400.523 113.142C401.276 112.739 402.453 112.079 403.137 111.676C403.822 111.274 404.449 110.921 404.53 110.893C404.636 110.856 404.519 111.22 404.118 112.169C403.15 114.461 402.972 115.213 403.247 115.844C403.318 116.008 403.657 116.544 404 117.036C404.342 117.527 404.62 117.954 404.618 117.984C404.608 118.076 402.394 117.009 401.67 116.564C400.692 115.962 400.191 115.539 399.564 114.787C399.107 114.238 399.024 114.103 399.083 114ZM413.778 63.167C414.356 62.6927 414.634 62.6122 415.512 62.665L416.22 62.7076L432.433 82.4803L448.647 102.253L448.566 102.982C448.464 103.908 448.41 104.025 447.825 104.576L447.342 105.03L430.332 84.2855L413.322 63.5412L413.778 63.167ZM452.512 102.877C452.609 101.52 452.117 100.434 450.255 97.8892L449.61 97.0073L449.948 96.7578C450.386 96.4341 450.826 96.2983 451.606 96.2459C452.369 96.1946 452.881 96.2962 453.603 96.6421C455.365 97.485 456.126 99.7759 455.268 101.655C455.008 102.227 454.97 102.272 454.25 102.862C453.617 103.381 453.437 103.492 453.077 103.585C452.812 103.654 452.618 103.654 452.561 103.585C452.511 103.524 452.489 103.205 452.512 102.877ZM415.797 58.2101C416.506 56.923 418.204 56.0485 419.556 56.274C420.658 56.4578 421.713 57.113 422.278 57.9653C422.707 58.6131 422.907 59.5807 422.811 60.5426C422.717 61.4771 422.477 62.0339 421.963 62.5146L421.586 62.8665L420.723 61.9065C419.642 60.7022 418.803 59.9317 418.078 59.4771C417.434 59.0735 417.025 58.9216 416.301 58.8187C416.022 58.7791 415.754 58.6986 415.706 58.64C415.654 58.5759 415.69 58.4046 415.797 58.2101ZM438.885 83.4323C439.056 83.3315 439.572 83.1615 440.031 83.0547C441.051 82.8176 441.731 82.8855 442.649 83.3161C443.272 83.608 443.325 83.6512 443.859 84.3028C444.394 84.9552 444.425 85.0141 444.591 85.6869C444.867 86.8091 444.666 87.9073 443.978 89.0431C443.764 89.3957 443.623 89.4527 443.353 89.2938C443.233 89.2228 442.204 88.0255 440.861 86.3943L438.574 83.6158L438.885 83.4323ZM427.898 70.4743C427.824 70.3042 427.848 70.2453 428.059 70.0834C428.743 69.5577 430.638 69.4749 431.623 69.9276C433.805 70.9313 434.489 73.7605 433.034 75.76C432.873 75.9809 432.704 76.1925 432.658 76.2303C432.591 76.2853 432.121 75.7428 430.279 73.4867C429.017 71.94 427.945 70.5845 427.898 70.4743Z" fill="#BF74DD"/>
<path d="M423.194 86.4433C386.924 111.024 337.215 108.953 316.894 104.845C302.848 102.374 267.013 107.27 236.036 146.622C197.314 195.812 244.266 237.524 253.201 245.782C262.136 254.04 270.659 267.271 277.05 301.298C283.441 335.325 300.776 342.129 341.153 331.871C381.53 321.614 408.418 326.764 447.122 356.831C485.826 386.899 519.13 399.926 558.427 376.782C597.725 353.638 573.39 293.303 562.146 251.946C553.15 218.86 585.632 190.959 602.998 181.144C616.26 171.222 645.068 140.035 654.208 94.6588C665.633 37.9385 634.184 0.900837 577.516 0.900969C524.219 0.901094 468.532 55.7173 423.194 86.4433Z" fill="url(#paint0_linear)"/>
<g clip-path="url(#clip0)">
<path d="M445.214 116.914L373.294 136.537C348.87 143.201 334.422 168.493 341.085 192.917L360.708 264.837C367.372 289.262 392.664 303.711 417.088 297.047L489.008 277.425C513.434 270.761 527.882 245.468 521.219 221.044L501.596 149.124C494.933 124.7 469.64 110.25 445.214 116.914ZM506.978 224.929C511.5 241.501 501.695 258.662 485.123 263.183L413.202 282.806C396.631 287.328 379.471 277.524 374.949 260.952L355.327 189.032C350.805 172.46 360.609 155.299 377.18 150.778L449.1 131.156C465.672 126.634 482.833 136.438 487.355 153.009L506.977 224.93L506.978 224.929Z" fill="white"/>
<path d="M419.863 165.623C397.057 171.845 383.566 195.461 389.788 218.267C396.01 241.072 419.626 254.562 442.432 248.34C465.238 242.118 478.729 218.503 472.507 195.698C466.285 172.892 442.669 159.4 419.863 165.623ZM438.546 234.098C423.594 238.177 408.109 229.333 404.029 214.38C399.95 199.427 408.795 183.943 423.749 179.863C438.702 175.783 454.186 184.629 458.266 199.582C462.345 214.535 453.498 230.018 438.546 234.098Z" fill="white"/>
<path d="M459.67 141.791C456.926 142.54 454.534 144.386 453.127 146.861C451.708 149.329 451.325 152.331 452.076 155.084C452.825 157.829 454.681 160.219 457.158 161.634C459.623 163.042 462.625 163.427 465.369 162.678C468.122 161.927 470.504 160.074 471.921 157.606C473.337 155.129 473.712 152.129 472.963 149.385C472.212 146.632 470.366 144.239 467.891 142.833C465.423 141.415 462.423 141.04 459.67 141.791Z" fill="white"/>
</g>
<path fill-rule="evenodd" clip-rule="evenodd" d="M155.669 152.741C154.864 152.962 154.999 152.802 152.945 155.992C151.421 158.361 148.862 162.156 147.358 164.279C144.503 168.31 142.793 170.43 139.048 174.581C135.258 178.781 133.977 180.394 132.346 183.016C131.232 184.807 131.111 185.031 130.94 185.619C130.537 187.004 130.405 188.439 130.574 189.584C130.779 190.98 130.791 190.91 130.171 191.969C129.868 192.487 129.537 193.002 129.434 193.114C129.318 193.242 128.9 193.428 128.314 193.614C127.114 193.995 126.732 194.164 125.941 194.671C124.973 195.292 124.392 195.882 123.753 196.895C121.979 199.709 122.188 203.174 124.299 205.94C124.615 206.353 127.298 208.112 128.041 208.393C128.555 208.587 129.683 208.727 130.439 208.691C132.524 208.592 134.577 207.593 136.091 205.94C136.826 205.138 136.687 205.163 137.528 205.684L138.264 206.14L137.972 206.725C137.174 208.33 136.996 210.08 137.444 211.93C137.734 213.131 138.428 214.48 139.141 215.228C139.546 215.653 141.96 217.183 142.643 217.447C143.862 217.918 146.097 217.803 147.697 217.188C148.765 216.777 150.429 215.544 150.866 214.84C150.959 214.69 151.117 214.504 151.218 214.427C151.396 214.291 151.417 214.297 152.071 214.703C152.523 214.983 152.747 215.162 152.757 215.252C152.766 215.325 152.658 215.616 152.519 215.9C151.962 217.033 151.689 218.822 151.875 220.126C152.1 221.706 152.987 223.619 153.864 224.415C154.095 224.624 154.846 225.119 155.793 225.683L157.345 226.607L158.024 226.705C159.089 226.86 160.106 226.821 161.118 226.588C162.947 226.166 164.404 225.283 165.377 224.008C165.971 223.23 165.854 223.25 166.702 223.776L167.446 224.238L167.319 224.529C166.921 225.438 166.653 226.249 166.559 226.827C166.257 228.687 166.726 230.984 167.725 232.548C168.273 233.405 168.567 233.646 170.37 234.724L171.964 235.678L172.719 235.785C174.765 236.076 176.488 235.728 178.165 234.687C179.326 233.967 179.841 233.452 180.574 232.28C181.686 230.503 181.968 228.883 181.565 226.584C181.482 226.112 181.459 225.637 181.509 225.464C181.624 225.07 182.46 223.726 182.764 223.445C182.894 223.325 183.223 223.151 183.495 223.059C184.745 222.636 185.177 222.458 185.747 222.131C187.787 220.96 189.213 218.981 189.77 216.546C190.131 214.971 190.043 213.272 189.511 211.538C188.405 207.932 186.042 204.807 180.257 199.294C175.537 194.797 173.852 192.52 172.6 188.949C172.173 187.728 171.729 185.768 171.709 185.007C171.683 184.078 172.004 182.891 172.726 181.245C173.226 180.102 174.682 177.714 175.521 176.658C176.08 175.955 176.438 175.563 178.342 173.568C179.029 172.848 179.284 172.53 179.468 172.163C180.142 170.818 179.766 169.291 178.439 167.987C177.873 167.43 176.312 166.437 175.465 166.094C172.708 164.979 169.722 164.647 166.929 165.146C166.386 165.243 165.832 165.305 165.699 165.283C165.341 165.224 164.96 164.709 164.078 163.094C162.965 161.055 162.593 160.21 161.701 157.686L160.887 155.386L158.607 153.973L156.328 152.559L155.669 152.741ZM157.782 158.324C157.903 158.598 158.191 159.342 158.421 159.977C159.684 163.457 161.825 167.206 163.747 169.302C164.65 170.287 165.904 171.432 166.76 172.053C167.39 172.51 167.502 172.623 167.566 172.859C167.647 173.161 167.551 174.716 167.44 174.895C167.289 175.139 166.087 174.857 164.969 174.313C164.222 173.95 163.7 173.862 163.11 174.001C162.48 174.148 162.028 174.476 161.68 175.037C161.324 175.612 161.245 176.134 161.411 176.832C161.575 177.523 161.832 177.892 162.4 178.246C163.012 178.627 163.383 178.726 163.984 178.668C165.066 178.563 166.697 178.741 167.134 179.012C167.385 179.167 167.419 179.389 167.485 181.321L167.532 182.701L167.023 182.769C165.482 182.976 164.587 182.985 163.699 182.806C162.803 182.625 161.763 183.093 161.26 183.905C160.84 184.582 160.833 185.518 161.242 186.296C161.428 186.649 161.528 186.744 162.06 187.074C162.606 187.412 162.72 187.452 163.195 187.473C163.545 187.488 163.941 187.416 164.364 187.259C165.251 186.932 166.137 186.733 167.089 186.647L167.899 186.574L168.141 187.419C168.274 187.884 168.492 188.747 168.626 189.336L168.869 190.407L167.712 190.937C166.977 191.273 166.294 191.515 165.837 191.601C164.948 191.768 164.451 191.997 164.006 192.443C162.67 193.785 163.519 196.231 165.376 196.386C166.181 196.453 167 196.188 167.413 195.726C167.706 195.399 168.865 194.657 169.712 194.254C170.317 193.967 170.389 193.953 170.545 194.099C170.777 194.316 172.087 196.297 172.321 196.784L172.51 197.177L172.243 197.521C171.848 198.029 170.991 198.73 170.409 199.02C170.128 199.16 169.761 199.424 169.593 199.607C169.015 200.237 168.837 201.34 169.184 202.14C169.393 202.62 169.64 202.884 170.211 203.239C170.846 203.632 171.478 203.692 172.16 203.423C172.975 203.101 172.995 203.082 173.782 201.855C174.473 200.778 175.023 200.133 175.308 200.066C175.492 200.023 180.417 204.763 181.725 206.242C183.883 208.682 185.415 211.128 185.908 212.919C186.414 214.757 185.994 216.747 184.848 217.944C183.79 219.05 182.556 219.47 180.807 219.322L179.759 219.233L157.761 205.591L135.763 191.949L135.249 191.131C134.339 189.683 134.132 188.115 134.675 186.788C134.826 186.418 135.267 185.676 136.048 184.479C137.618 182.071 138.903 180.457 141.474 177.665C146.546 172.155 151.356 165.794 155.497 159.118L156.686 157.202L157.124 157.514C157.491 157.775 157.599 157.907 157.782 158.324ZM175.632 170.711C175.617 170.788 175.128 171.362 174.546 171.988C173.963 172.613 173.063 173.617 172.545 174.22C172.027 174.822 171.547 175.358 171.48 175.411C171.391 175.48 171.385 175.098 171.458 174.07C171.633 171.588 171.559 170.82 171.095 170.311C170.975 170.179 170.481 169.781 169.998 169.426C169.515 169.072 169.114 168.757 169.107 168.728C169.086 168.638 171.525 168.933 172.354 169.12C173.475 169.374 174.085 169.612 174.921 170.122C175.531 170.494 175.654 170.595 175.632 170.711ZM178.142 223.566C177.748 224.202 177.511 224.368 176.664 224.601L175.98 224.789L154.249 211.313L132.518 197.837L132.359 197.121C132.156 196.211 132.17 196.083 132.546 195.373L132.856 194.788L155.654 208.926L178.453 223.064L178.142 223.566ZM128.658 198.495C129.005 199.81 129.821 200.679 132.406 202.486L133.301 203.112L133.062 203.458C132.751 203.906 132.379 204.176 131.657 204.478C130.952 204.773 130.435 204.842 129.639 204.748C127.7 204.519 126.24 202.597 126.444 200.541C126.507 199.916 126.528 199.861 127.019 199.07C127.45 198.375 127.585 198.211 127.895 198.007C128.123 197.856 128.307 197.793 128.383 197.841C128.45 197.882 128.574 198.176 128.658 198.495ZM177.832 228.909C177.577 230.356 176.253 231.732 174.9 231.956C173.797 232.138 172.588 231.858 171.778 231.234C171.162 230.76 170.66 229.909 170.441 228.967C170.228 228.052 170.275 227.448 170.607 226.827L170.85 226.372L171.976 227.002C173.389 227.793 174.431 228.251 175.264 228.447C176.004 228.621 176.441 228.632 177.159 228.496C177.436 228.443 177.715 228.433 177.779 228.473C177.85 228.517 177.871 228.691 177.832 228.909ZM147.835 212.496C147.706 212.647 147.273 212.974 146.873 213.223C145.984 213.777 145.319 213.933 144.31 213.822C143.627 213.746 143.563 213.723 142.847 213.279C142.13 212.834 142.081 212.788 141.707 212.205C141.084 211.232 140.918 210.128 141.203 208.831C141.291 208.428 141.407 208.328 141.713 208.392C141.85 208.42 143.211 209.221 145.008 210.331L148.07 212.222L147.835 212.496ZM162.419 221.211C162.544 221.348 162.54 221.411 162.393 221.633C161.915 222.351 160.148 223.042 159.07 222.931C156.681 222.686 155.119 220.23 155.851 217.867C155.932 217.606 156.023 217.351 156.055 217.301C156.1 217.227 156.721 217.588 159.192 219.129C160.886 220.185 162.339 221.122 162.419 221.211Z" fill="#BF74DD"/>
<circle cx="76.9299" cy="224.304" r="6.36736" stroke="#BF74DD" stroke-width="4"/>
<circle cx="9.26189" cy="164.611" r="6.36736" stroke="#BF74DD" stroke-width="4"/>
<circle cx="124.106" cy="131.367" r="6.36736" stroke="#BF74DD" stroke-width="4"/>
<circle cx="632.949" cy="67.2389" r="6.36736" stroke="#BF74DD" stroke-width="4"/>
<circle cx="597.399" cy="215.57" r="6.36736" stroke="#BF74DD" stroke-width="4"/>
<circle cx="699.633" cy="127" r="6.36736" stroke="#BF74DD" stroke-width="4"/>
<circle cx="205.203" cy="85.196" r="6.36736" stroke="#BF74DD" stroke-width="4"/>
<defs>
<linearGradient id="paint0_linear" x1="671.781" y1="89.1657" x2="211.509" y2="163.123" gradientUnits="userSpaceOnUse">
<stop stop-color="#5D54A6"/>
<stop offset="0.479167" stop-color="#CF3662"/>
<stop offset="1" stop-color="#FDB545"/>
</linearGradient>
<clipPath id="clip0">
<rect width="166.379" height="166.379" fill="white" transform="translate(329 148.622) rotate(-15.261)"/>
</clipPath>
</defs>
</svg>
