<svg viewBox="0 0 320 426" fill="none" xmlns="http://www.w3.org/2000/svg">
<path d="M243.713 304.206C256.169 275.654 286.827 258.01 300.599 252.758C309.978 248.906 329.652 232.348 333.315 196.931C337.893 152.659 293.829 145.433 285.323 143.866C276.816 142.298 266.667 137.586 249.897 119.566C233.128 101.547 220.126 104.045 199.76 125.551C179.395 147.057 161.28 154.179 126.598 150.817C91.9151 147.455 66.9528 152.281 52.132 181.12C37.3112 209.959 74.8591 236.969 97.3303 257.549C115.307 274.012 106.39 303.121 99.6837 315.617C95.4842 326.618 90.0226 356.305 101.772 387.045C116.458 425.47 154.112 426.145 183.482 414.246C212.852 402.347 228.144 339.896 243.713 304.206Z" fill="#773D8D"/>
<path fill-rule="evenodd" clip-rule="evenodd" d="M209.467 185.28C210.059 185.316 209.932 185.393 212.046 183.718C213.616 182.474 216.209 180.508 217.708 179.425C220.555 177.368 222.193 176.334 225.666 174.402C229.18 172.446 230.412 171.655 232.112 170.265C233.273 169.316 233.406 169.192 233.656 168.836C234.245 167.997 234.663 167.062 234.813 166.253C234.995 165.266 234.971 165.311 235.631 164.74C235.954 164.461 236.295 164.191 236.39 164.139C236.498 164.08 236.822 164.05 237.259 164.06C238.154 164.079 238.449 164.053 239.098 163.893C239.892 163.698 240.419 163.434 241.081 162.899C242.921 161.413 243.576 159.034 242.791 156.688C242.673 156.337 241.272 154.538 240.836 154.178C240.535 153.93 239.808 153.576 239.291 153.427C237.866 153.015 236.255 153.216 234.856 153.98C234.178 154.351 234.277 154.366 233.831 153.822L233.44 153.346L233.771 153.02C234.677 152.124 235.198 150.987 235.322 149.639C235.402 148.764 235.245 147.697 234.937 147.03C234.762 146.651 233.489 145.068 233.09 144.733C232.378 144.137 230.848 143.7 229.63 143.747C228.817 143.778 227.414 144.226 226.959 144.599C226.862 144.679 226.712 144.767 226.627 144.796C226.476 144.847 226.463 144.837 226.116 144.414C225.877 144.122 225.767 143.95 225.781 143.888C225.792 143.836 225.931 143.665 226.09 143.506C226.725 142.872 227.319 141.731 227.494 140.81C227.705 139.696 227.547 138.205 227.14 137.468C227.033 137.274 226.64 136.769 226.133 136.172L225.301 135.194L224.867 134.971C224.186 134.623 223.493 134.416 222.758 134.34C221.43 134.204 220.247 134.463 219.3 135.098C218.721 135.485 218.805 135.498 218.355 134.95L217.96 134.468L218.113 134.302C218.59 133.781 218.956 133.297 219.152 132.93C219.782 131.747 219.994 130.094 219.681 128.813C219.509 128.11 219.367 127.88 218.401 126.741L217.547 125.733L217.064 125.488C215.754 124.822 214.515 124.66 213.147 124.976C212.201 125.194 211.736 125.422 210.974 126.042C209.818 126.983 209.256 128.008 208.999 129.647C208.946 129.984 208.853 130.309 208.779 130.414C208.611 130.653 207.741 131.365 207.472 131.484C207.356 131.535 207.095 131.576 206.891 131.576C205.953 131.574 205.621 131.594 205.162 131.683C203.521 132.003 202.107 133.007 201.173 134.517C200.568 135.494 200.237 136.658 200.197 137.946C200.114 140.627 200.986 143.272 203.613 148.31C205.756 152.42 206.367 154.339 206.389 157.029C206.396 157.949 206.245 159.37 206.084 159.887C205.887 160.517 205.399 161.242 204.535 162.184C203.936 162.838 202.408 164.111 201.601 164.628C201.064 164.973 200.733 165.155 198.994 166.06C198.366 166.386 198.122 166.542 197.913 166.747C197.151 167.497 197.053 168.611 197.646 169.793C197.9 170.297 198.722 171.324 199.213 171.749C200.812 173.133 202.745 174.042 204.739 174.347C205.127 174.407 205.513 174.493 205.598 174.538C205.825 174.659 205.963 175.093 206.186 176.383C206.467 178.011 206.523 178.664 206.544 180.567L206.563 182.302L207.773 183.776L208.982 185.251L209.467 185.28ZM209.327 181.038C209.309 180.826 209.286 180.259 209.277 179.779C209.226 177.148 208.646 174.134 207.834 172.282C207.453 171.412 206.872 170.353 206.439 169.739C206.12 169.287 206.07 169.185 206.082 169.012C206.097 168.789 206.518 167.765 206.634 167.671C206.792 167.541 207.535 168.007 208.163 168.629C208.582 169.045 208.913 169.224 209.342 169.267C209.8 169.312 210.179 169.195 210.542 168.898C210.914 168.592 211.086 168.26 211.136 167.752C211.184 167.249 211.095 166.942 210.795 166.573C210.47 166.176 210.244 166.024 209.826 165.926C209.073 165.748 208.017 165.254 207.785 164.971C207.652 164.808 207.68 164.651 208.079 163.337L208.365 162.397L208.723 162.468C209.807 162.683 210.411 162.882 210.968 163.207C211.529 163.534 212.336 163.458 212.861 163.027C213.299 162.668 213.519 162.039 213.422 161.422C213.378 161.142 213.333 161.056 213.05 160.711C212.761 160.358 212.694 160.305 212.378 160.182C212.146 160.092 211.863 160.049 211.543 160.057C210.87 160.074 210.229 160.005 209.569 159.844L209.007 159.707L209.038 159.082C209.056 158.739 209.107 158.109 209.152 157.681L209.235 156.905L210.134 156.814C210.707 156.756 211.222 156.75 211.548 156.798C212.185 156.889 212.572 156.85 212.974 156.651C214.181 156.056 214.171 154.215 212.958 153.684C212.432 153.454 211.819 153.444 211.435 153.66C211.164 153.813 210.213 154.046 209.55 154.123C209.077 154.177 209.026 154.17 208.954 154.036C208.848 153.837 208.422 152.203 208.376 151.821L208.339 151.513L208.598 151.343C208.98 151.092 209.718 150.818 210.176 150.756C210.397 150.726 210.705 150.633 210.86 150.548C211.394 150.257 211.767 149.556 211.717 148.938C211.687 148.567 211.581 148.333 211.278 147.963C210.941 147.552 210.53 147.367 210.009 147.391C209.387 147.421 209.369 147.429 208.557 148.074C207.845 148.64 207.327 148.948 207.12 148.927C206.986 148.914 204.761 144.593 204.22 143.298C203.328 141.16 202.859 139.163 202.939 137.844C203.021 136.492 203.76 135.249 204.806 134.707C205.772 134.206 206.699 134.207 207.842 134.708L208.526 135.009L220.195 149.239L231.864 163.47L232.022 164.138C232.302 165.321 232.081 166.424 231.411 167.192C231.225 167.406 230.757 167.804 229.958 168.43C228.348 169.69 227.113 170.481 224.742 171.769C220.063 174.312 215.366 177.488 211.047 181.028L209.807 182.045L209.584 181.734C209.397 181.474 209.355 181.361 209.327 181.038ZM200.161 168.605C200.189 168.556 200.65 168.282 201.185 167.995C201.721 167.708 202.557 167.239 203.044 166.953C203.531 166.666 203.976 166.416 204.034 166.396C204.11 166.369 204.026 166.628 203.741 167.303C203.053 168.932 202.927 169.467 203.122 169.916C203.173 170.032 203.413 170.413 203.657 170.763C203.901 171.112 204.098 171.416 204.096 171.437C204.09 171.503 202.516 170.744 202.001 170.428C201.306 170 200.949 169.699 200.504 169.164C200.179 168.774 200.12 168.678 200.161 168.605ZM210.609 132.464C211.02 132.127 211.218 132.07 211.842 132.107L212.345 132.138L223.872 146.195L235.4 160.253L235.343 160.771C235.27 161.43 235.231 161.513 234.815 161.904L234.472 162.227L222.378 147.479L210.285 132.73L210.609 132.464ZM238.148 160.697C238.216 159.732 237.867 158.96 236.543 157.15L236.084 156.523L236.325 156.346C236.636 156.116 236.949 156.019 237.504 155.982C238.046 155.946 238.41 156.018 238.924 156.264C240.176 156.863 240.717 158.492 240.107 159.828C239.922 160.234 239.895 160.266 239.383 160.686C238.933 161.055 238.805 161.134 238.549 161.2C238.361 161.249 238.223 161.249 238.183 161.2C238.147 161.157 238.131 160.93 238.148 160.697ZM212.045 128.94C212.549 128.025 213.756 127.403 214.717 127.563C215.501 127.694 216.251 128.16 216.652 128.766C216.958 129.226 217.1 129.914 217.031 130.598C216.964 131.263 216.794 131.659 216.428 132L216.16 132.251L215.547 131.568C214.778 130.712 214.182 130.164 213.666 129.841C213.209 129.554 212.917 129.446 212.403 129.373C212.205 129.344 212.014 129.287 211.98 129.246C211.943 129.2 211.968 129.078 212.045 128.94ZM228.459 146.872C228.581 146.8 228.948 146.68 229.274 146.604C229.999 146.435 230.483 146.483 231.136 146.789C231.578 146.997 231.616 147.028 231.996 147.491C232.376 147.955 232.398 147.997 232.516 148.475C232.712 149.273 232.57 150.054 232.08 150.861C231.928 151.112 231.828 151.152 231.636 151.039C231.551 150.989 230.819 150.138 229.864 148.978L228.238 147.003L228.459 146.872ZM220.648 137.659C220.595 137.538 220.613 137.497 220.762 137.381C221.249 137.008 222.596 136.949 223.296 137.271C224.847 137.984 225.334 139.996 224.3 141.417C224.185 141.574 224.065 141.725 224.032 141.752C223.985 141.791 223.65 141.405 222.341 139.801C221.443 138.701 220.681 137.738 220.648 137.659Z" fill="#BF74DD"/>
<path d="M217.292 149.013C191.505 166.489 156.163 165.017 141.716 162.096C131.73 160.339 106.252 163.82 84.2284 191.798C56.6984 226.77 90.08 256.426 96.4325 262.297C102.785 268.168 108.844 277.576 113.388 301.768C117.932 325.96 130.256 330.797 158.963 323.504C187.67 316.211 206.787 319.873 234.304 341.25C261.821 362.626 285.499 371.888 313.438 355.434C341.377 338.979 324.076 296.083 316.082 266.68C309.686 243.157 332.78 223.32 345.126 216.342C354.555 209.288 375.037 187.115 381.535 154.854C389.657 114.528 367.298 88.1952 327.009 88.1953C289.117 88.1954 249.525 127.168 217.292 149.013Z" fill="url(#paint0_linear)"/>
<g clip-path="url(#clip0)">
<path d="M232.96 170.677L181.828 184.628C164.463 189.366 154.191 207.348 158.928 224.713L172.879 275.845C177.617 293.211 195.599 303.483 212.963 298.746L264.096 284.795C281.462 280.057 291.734 262.074 286.997 244.71L273.046 193.577C268.309 176.212 250.326 165.939 232.96 170.677ZM276.872 247.472C280.087 259.254 273.116 271.455 261.334 274.669L210.201 288.621C198.419 291.836 186.219 284.865 183.004 273.083L169.053 221.95C165.839 210.168 172.809 197.968 184.59 194.753L235.723 180.802C247.505 177.588 259.706 184.558 262.921 196.339L276.872 247.472L276.872 247.472Z" fill="white"/>
<path d="M214.936 205.307C198.722 209.731 189.13 226.521 193.554 242.735C197.978 258.949 214.768 268.54 230.982 264.116C247.196 259.692 256.788 242.903 252.364 226.69C247.941 210.475 231.151 200.883 214.936 205.307ZM228.219 253.991C217.588 256.891 206.579 250.603 203.679 239.972C200.778 229.341 207.067 218.332 217.699 215.432C228.33 212.531 239.339 218.82 242.239 229.451C245.14 240.082 238.85 251.09 228.219 253.991Z" fill="white"/>
<path d="M243.238 188.364C241.287 188.896 239.586 190.209 238.586 191.968C237.577 193.723 237.304 195.857 237.838 197.815C238.371 199.766 239.69 201.465 241.451 202.471C243.204 203.473 245.338 203.746 247.289 203.214C249.247 202.68 250.94 201.362 251.948 199.608C252.954 197.846 253.221 195.714 252.688 193.763C252.154 191.805 250.842 190.104 249.082 189.104C247.328 188.096 245.195 187.83 243.238 188.364Z" fill="white"/>
</g>
<circle cx="75.9181" cy="184.367" r="6.36736" stroke="#BF74DD" stroke-width="4"/>
<circle cx="48.3674" cy="123.539" r="6.36736" stroke="#BF74DD" stroke-width="4"/>
<circle cx="129.465" cy="77.3674" r="6.36736" stroke="#BF74DD" stroke-width="4"/>
<path fill-rule="evenodd" clip-rule="evenodd" d="M13.9305 221.463C13.1258 221.685 13.2604 221.524 11.207 224.714C9.68222 227.083 7.12326 230.879 5.61999 233.002C2.7646 237.033 1.05477 239.153 -2.69016 243.303C-6.47987 247.504 -7.761 249.116 -9.39206 251.739C-10.5059 253.529 -10.6272 253.754 -10.7982 254.342C-11.2009 255.726 -11.3335 257.161 -11.1647 258.306C-10.9588 259.703 -10.9469 259.632 -11.5671 260.692C-11.87 261.209 -12.2016 261.725 -12.3039 261.837C-12.4207 261.964 -12.8381 262.151 -13.4242 262.336C-14.6247 262.717 -15.0059 262.887 -15.7969 263.394C-16.7657 264.014 -17.3467 264.605 -17.985 265.618C-19.7588 268.432 -19.5498 271.897 -17.4392 274.662C-17.1236 275.076 -14.4404 276.835 -13.6973 277.116C-13.1834 277.309 -12.0552 277.45 -11.299 277.414C-9.21455 277.315 -7.16149 276.315 -5.64709 274.662C-4.91264 273.861 -5.05096 273.886 -4.21039 274.407L-3.47467 274.863L-3.76583 275.448C-4.56458 277.052 -4.74234 278.803 -4.29454 280.653C-4.00387 281.854 -3.30995 283.202 -2.59767 283.951C-2.19268 284.376 0.221578 285.905 0.905146 286.169C2.12326 286.64 4.35851 286.526 5.95837 285.91C7.02627 285.5 8.69054 284.267 9.12733 283.562C9.2203 283.412 9.37879 283.227 9.47943 283.15C9.658 283.013 9.67883 283.02 10.3331 283.426C10.7844 283.706 11.0087 283.885 11.0189 283.975C11.0273 284.048 10.9201 284.339 10.7807 284.622C10.2232 285.755 9.95056 287.544 10.1364 288.849C10.3614 290.428 11.2486 292.341 12.1254 293.138C12.3562 293.347 13.1081 293.841 14.055 294.405L15.6064 295.329L16.2859 295.428C17.3509 295.583 18.3674 295.544 19.3799 295.31C21.2086 294.888 22.6659 294.006 23.639 292.73C24.2327 291.953 24.1158 291.973 24.9635 292.499L25.7077 292.96L25.5802 293.252C25.1823 294.161 24.9142 294.972 24.8206 295.55C24.5191 297.41 24.9875 299.707 25.987 301.271C26.5349 302.128 26.8284 302.369 28.6313 303.447L30.226 304.4L30.981 304.508C33.0271 304.798 34.7495 304.451 36.4269 303.41C37.5874 302.689 38.1029 302.174 38.8359 301.003C39.9478 299.226 40.2297 297.605 39.8268 295.307C39.7439 294.835 39.7203 294.36 39.771 294.186C39.886 293.792 40.7215 292.448 41.0254 292.168C41.156 292.048 41.4849 291.874 41.7565 291.782C43.0067 291.359 43.4388 291.181 44.0089 290.853C46.0483 289.683 47.4743 287.704 48.0321 285.269C48.3931 283.694 48.3052 281.995 47.773 280.261C46.6666 276.655 44.3041 273.53 38.5186 268.017C33.7984 263.52 32.1135 261.243 30.8619 257.671C30.4344 256.451 29.9909 254.49 29.9703 253.729C29.9451 252.801 30.2661 251.614 30.9875 249.967C31.4882 248.825 32.9439 246.437 33.783 245.381C34.3419 244.678 34.7 244.285 36.6037 242.291C37.291 241.571 37.5457 241.253 37.7299 240.886C38.4036 239.541 38.0273 238.013 36.7012 236.71C36.1349 236.153 34.5737 235.16 33.7271 234.817C30.9697 233.702 27.9835 233.37 25.1909 233.869C24.6477 233.966 24.094 234.027 23.9603 234.006C23.6032 233.947 23.222 233.432 22.3397 231.816C21.2265 229.778 20.855 228.933 19.9623 226.409L19.1488 224.109L16.8692 222.695L14.5894 221.282L13.9305 221.463ZM16.0441 227.047C16.165 227.321 16.4525 228.065 16.6831 228.7C17.9459 232.179 20.087 235.928 22.0086 238.024C22.9115 239.009 24.1657 240.155 25.0212 240.775C25.6519 241.233 25.7642 241.345 25.8275 241.582C25.9084 241.884 25.8127 243.439 25.7021 243.617C25.5505 243.862 24.3492 243.579 23.2309 243.036C22.4837 242.673 21.9617 242.585 21.3713 242.723C20.7419 242.871 20.29 243.199 19.9421 243.76C19.5853 244.335 19.507 244.856 19.6725 245.555C19.8363 246.246 20.0939 246.614 20.6615 246.968C21.2737 247.35 21.6445 247.449 22.2454 247.39C23.3282 247.285 24.9587 247.463 25.3957 247.734C25.647 247.89 25.6807 248.112 25.7464 250.043L25.7933 251.424L25.2847 251.492C23.7442 251.698 22.8487 251.708 21.9606 251.529C21.0649 251.347 20.0252 251.816 19.5219 252.628C19.1021 253.305 19.0952 254.241 19.5042 255.019C19.6899 255.372 19.7893 255.466 20.3219 255.797C20.8673 256.135 20.9813 256.175 21.4572 256.195C21.8067 256.21 22.2031 256.138 22.6259 255.982C23.5132 255.654 24.3988 255.455 25.3508 255.369L26.1606 255.296L26.4025 256.142C26.5355 256.607 26.7538 257.469 26.8875 258.059L27.1305 259.13L25.9739 259.659C25.2385 259.996 24.5557 260.238 24.099 260.324C23.21 260.491 22.713 260.719 22.2681 261.166C20.9317 262.507 21.7812 264.954 23.6374 265.109C24.4426 265.176 25.262 264.911 25.6749 264.449C25.9674 264.122 27.1267 263.38 27.9741 262.977C28.5788 262.689 28.6511 262.676 28.8067 262.822C29.0384 263.039 30.3485 265.019 30.5828 265.507L30.7717 265.9L30.5046 266.244C30.1095 266.752 29.2526 267.452 28.671 267.743C28.3895 267.883 28.0223 268.147 27.8549 268.329C27.2764 268.96 27.0984 270.062 27.4461 270.863C27.6544 271.343 27.9013 271.607 28.4731 271.961C29.108 272.355 29.7393 272.415 30.4214 272.146C31.2366 271.824 31.2567 271.805 32.0438 270.578C32.7347 269.501 33.2851 268.855 33.5695 268.789C33.7533 268.746 38.6788 273.486 39.9871 274.965C42.145 277.405 43.6771 279.851 44.17 281.642C44.6755 283.48 44.2555 285.47 43.1095 286.667C42.0518 287.772 40.8172 288.193 39.0685 288.044L38.0207 287.955L16.0225 274.313L-5.97562 260.671L-6.48934 259.853C-7.39881 258.406 -7.60616 256.837 -7.0636 255.511C-6.91221 255.141 -6.4708 254.398 -5.69076 253.202C-4.12048 250.794 -2.83555 249.18 -0.264684 246.388C4.80789 240.878 9.618 234.517 13.7591 227.841L14.9477 225.925L15.3861 226.237C15.753 226.498 15.8603 226.63 16.0441 227.047ZM33.8933 239.433C33.8786 239.51 33.3899 240.085 32.8074 240.71C32.2248 241.336 31.3244 242.34 30.8065 242.942C30.2885 243.544 29.8092 244.081 29.7413 244.134C29.6529 244.203 29.6468 243.82 29.7195 242.792C29.8949 240.311 29.8207 239.542 29.3565 239.033C29.2363 238.901 28.7426 238.503 28.2594 238.149C27.7762 237.794 27.3752 237.48 27.3683 237.451C27.3472 237.361 29.7872 237.655 30.6162 237.843C31.7363 238.096 32.347 238.335 33.1832 238.844C33.7932 239.216 33.9155 239.318 33.8933 239.433ZM36.4038 292.289C36.0096 292.924 35.7727 293.09 34.9254 293.324L34.2413 293.512L12.5104 280.036L-9.22038 266.56L-9.37959 265.844C-9.58187 264.934 -9.56813 264.806 -9.19226 264.096L-8.88254 263.51L13.9162 277.649L36.7149 291.787L36.4038 292.289ZM-13.0803 267.217C-12.733 268.532 -11.9169 269.402 -9.33262 271.209L-8.43715 271.835L-8.6765 272.18C-8.98711 272.628 -9.35951 272.899 -10.0809 273.2C-10.7859 273.495 -11.3033 273.564 -12.099 273.471C-14.0386 273.242 -15.4986 271.32 -15.2939 269.264C-15.2317 268.639 -15.2102 268.584 -14.7197 267.793C-14.2884 267.097 -14.1538 266.934 -13.8435 266.729C-13.6152 266.579 -13.431 266.516 -13.355 266.563C-13.288 266.605 -13.1644 266.899 -13.0803 267.217ZM36.0941 297.632C35.839 299.079 34.5146 300.455 33.1619 300.678C32.0592 300.86 30.8496 300.581 30.0396 299.957C29.4239 299.483 28.922 298.631 28.7028 297.69C28.4898 296.775 28.5367 296.171 28.8687 295.549L29.1118 295.095L30.2378 295.725C31.6503 296.515 32.693 296.974 33.5261 297.17C34.2656 297.344 34.7025 297.355 35.4203 297.219C35.6973 297.166 35.9766 297.156 36.041 297.196C36.1115 297.239 36.1326 297.413 36.0941 297.632ZM6.09703 281.219C5.96784 281.369 5.53472 281.697 5.13456 281.946C4.24586 282.5 3.5805 282.655 2.57215 282.544C1.88877 282.469 1.82481 282.445 1.10863 282.001C0.39159 281.557 0.34309 281.511 -0.0308806 280.928C-0.654771 279.955 -0.819813 278.851 -0.535268 277.553C-0.446886 277.151 -0.331041 277.051 -0.0248135 277.114C0.112087 277.143 1.47272 277.943 3.27016 279.054L6.33195 280.945L6.09703 281.219ZM20.681 289.933C20.8055 290.071 20.8016 290.134 20.6545 290.355C20.177 291.074 18.41 291.764 17.3322 291.654C14.9428 291.409 13.3809 288.952 14.1125 286.59C14.1932 286.329 14.2851 286.074 14.3164 286.023C14.3622 285.95 14.9826 286.311 17.4539 287.852C19.1481 288.908 20.6003 289.844 20.681 289.933Z" fill="#BF74DD"/>
<path fill-rule="evenodd" clip-rule="evenodd" d="M297.901 2.46323C298.706 2.68489 298.572 2.52423 300.625 5.71439C302.15 8.08345 304.709 11.8791 306.212 14.0016C309.067 18.033 310.777 20.1527 314.522 24.3034C318.312 28.5038 319.593 30.1162 321.224 32.7386C322.338 34.5293 322.459 34.7539 322.63 35.3415C323.033 36.7262 323.166 38.1612 322.997 39.3065C322.791 40.7029 322.779 40.6322 323.399 41.692C323.702 42.2095 324.034 42.7246 324.136 42.8365C324.253 42.9643 324.67 43.1505 325.256 43.3365C326.457 43.7172 326.838 43.8871 327.629 44.3939C328.598 45.0145 329.179 45.6051 329.817 46.6177C331.591 49.4321 331.382 52.8966 329.271 55.6623C328.956 56.076 326.272 57.8351 325.529 58.1155C325.015 58.3095 323.887 58.4499 323.131 58.4139C321.047 58.3147 318.994 57.3152 317.479 55.6624C316.745 54.8609 316.883 54.8855 316.042 55.4068L315.307 55.863L315.598 56.4478C316.397 58.0524 316.574 59.8026 316.127 61.6529C315.836 62.8539 315.142 64.2025 314.43 64.9506C314.025 65.3759 311.61 66.9052 310.927 67.1694C309.709 67.6402 307.474 67.5257 305.874 66.9105C304.806 66.4998 303.141 65.2666 302.705 64.5622C302.612 64.4123 302.453 64.2267 302.353 64.1497C302.174 64.0134 302.153 64.0201 301.499 64.4258C301.048 64.7057 300.823 64.8851 300.813 64.9745C300.805 65.0477 300.912 65.3391 301.051 65.6222C301.609 66.7552 301.881 68.5442 301.696 69.8489C301.471 71.4284 300.583 73.3413 299.707 74.1375C299.476 74.3471 298.724 74.8412 297.777 75.4053L296.226 76.3295L295.546 76.4281C294.481 76.5826 293.465 76.5439 292.452 76.3103C290.623 75.8884 289.166 75.0057 288.193 73.7305C287.599 72.9525 287.716 72.973 286.869 73.4987L286.124 73.9603L286.252 74.2515C286.65 75.1608 286.918 75.9715 287.011 76.5496C287.313 78.4099 286.845 80.7069 285.845 82.2705C285.297 83.1276 285.004 83.3691 283.201 84.447L281.606 85.4005L280.851 85.5077C278.805 85.7984 277.082 85.4511 275.405 84.4098C274.245 83.6894 273.729 83.1743 272.996 82.0029C271.884 80.2257 271.602 78.6052 272.005 76.307C272.088 75.8347 272.112 75.3597 272.061 75.1862C271.946 74.7924 271.111 73.4483 270.807 73.1681C270.676 73.0478 270.347 72.8741 270.076 72.7821C268.825 72.3588 268.393 72.1807 267.823 71.8535C265.784 70.683 264.358 68.7036 263.8 66.2688C263.439 64.6937 263.527 62.9949 264.059 61.2608C265.165 57.6551 267.528 54.5295 273.313 49.0171C278.034 44.5198 279.719 42.243 280.97 38.6712C281.398 37.4512 281.841 35.4905 281.862 34.7293C281.887 33.8008 281.566 32.6136 280.845 30.9675C280.344 29.825 278.888 27.4365 278.049 26.3807C277.49 25.6775 277.132 25.2853 275.228 23.2909C274.541 22.5709 274.286 22.2531 274.102 21.8856C273.428 20.5407 273.805 19.0132 275.131 17.7097C275.697 17.1531 277.258 16.1596 278.105 15.8171C280.862 14.7016 283.849 14.3699 286.641 14.8689C287.184 14.966 287.738 15.0275 287.872 15.0056C288.229 14.9471 288.61 14.432 289.492 12.8162C290.605 10.7776 290.977 9.93279 291.87 7.40911L292.683 5.10912L294.963 3.69542L297.243 2.28168L297.901 2.46323ZM295.788 8.0469C295.667 8.32077 295.38 9.06473 295.149 9.70006C293.886 13.1792 291.745 16.9282 289.823 19.0244C288.921 20.0094 287.666 21.1546 286.811 21.7753C286.18 22.2329 286.068 22.3452 286.005 22.5817C285.924 22.8841 286.019 24.4391 286.13 24.6174C286.282 24.8619 287.483 24.5792 288.601 24.0358C289.348 23.6728 289.87 23.5851 290.461 23.7235C291.09 23.8711 291.542 24.1987 291.89 24.7597C292.247 25.335 292.325 25.8563 292.16 26.5547C291.996 27.246 291.738 27.6143 291.171 27.9682C290.558 28.35 290.188 28.4489 289.587 28.3905C288.504 28.2853 286.873 28.4632 286.436 28.7342C286.185 28.8901 286.151 29.112 286.086 31.0434L286.039 32.4236L286.547 32.4917C288.088 32.6982 288.983 32.7081 289.871 32.5285C290.767 32.3474 291.807 32.816 292.31 33.6277C292.73 34.3045 292.737 35.2411 292.328 36.0185C292.142 36.3717 292.043 36.4662 291.51 36.7965C290.965 37.1347 290.851 37.1748 290.375 37.1954C290.025 37.2105 289.629 37.1382 289.206 36.982C288.319 36.6544 287.433 36.4552 286.481 36.3694L285.671 36.2964L285.43 37.1419C285.296 37.6069 285.078 38.4695 284.945 39.0587L284.701 40.13L285.858 40.6595C286.594 40.9961 287.276 41.2381 287.733 41.3237C288.622 41.4907 289.119 41.7193 289.564 42.1659C290.9 43.5074 290.051 45.9536 288.195 46.1086C287.389 46.1759 286.57 45.9106 286.157 45.4489C285.865 45.1218 284.705 44.3795 283.858 43.9768C283.253 43.6895 283.181 43.676 283.025 43.8218C282.794 44.0386 281.484 46.0194 281.249 46.5071L281.06 46.9001L281.327 47.2436C281.723 47.7519 282.579 48.4524 283.161 48.7425C283.442 48.8829 283.81 49.147 283.977 49.3294C284.556 49.9598 284.734 51.0625 284.386 51.863C284.178 52.3427 283.931 52.6068 283.359 52.9614C282.724 53.3551 282.093 53.4149 281.411 53.1457C280.595 52.824 280.575 52.8045 279.788 51.5776C279.097 50.5007 278.547 49.8554 278.263 49.7887C278.079 49.7456 273.153 54.4859 271.845 55.9651C269.687 58.4051 268.155 60.8507 267.662 62.6421C267.157 64.4796 267.577 66.4697 268.723 67.6671C269.78 68.7722 271.015 69.1929 272.764 69.0444L273.811 68.9553L295.809 55.3134L317.808 41.6714L318.321 40.8535C319.231 39.4058 319.438 37.8375 318.896 36.5108C318.744 36.1407 318.303 35.3984 317.523 34.202C315.953 31.7936 314.668 30.1799 312.097 27.3876C307.024 21.878 302.214 15.5167 298.073 8.84098L296.884 6.92486L296.446 7.23688C296.079 7.49811 295.972 7.6301 295.788 8.0469ZM277.939 20.4334C277.953 20.5104 278.442 21.0851 279.025 21.7104C279.607 22.3358 280.508 23.3401 281.026 23.9423C281.544 24.5445 282.023 25.0806 282.091 25.1338C282.179 25.2029 282.185 24.8204 282.113 23.7924C281.937 21.3112 282.011 20.5424 282.475 20.0333C282.596 19.9015 283.089 19.5034 283.573 19.1488C284.056 18.7942 284.457 18.48 284.464 18.4506C284.485 18.3606 282.045 18.6555 281.216 18.843C280.096 19.0965 279.485 19.3348 278.649 19.8443C278.039 20.2162 277.917 20.3176 277.939 20.4334ZM275.428 73.2886C275.822 73.9243 276.059 74.0902 276.907 74.3236L277.591 74.512L299.322 61.0358L321.052 47.5596L321.212 46.8437C321.414 45.9341 321.4 45.806 321.024 45.0956L320.715 44.5102L297.916 58.6486L275.117 72.7871L275.428 73.2886ZM324.912 48.2173C324.565 49.5324 323.749 50.4016 321.165 52.2088L320.269 52.835L320.509 53.1803C320.819 53.6283 321.192 53.8989 321.913 54.2005C322.618 54.4952 323.135 54.5645 323.931 54.4706C325.871 54.2419 327.331 52.3195 327.126 50.2637C327.064 49.6389 327.042 49.5838 326.552 48.7928C326.12 48.0974 325.986 47.9339 325.676 47.7294C325.447 47.5787 325.263 47.5161 325.187 47.5632C325.12 47.6048 324.996 47.8991 324.912 48.2173ZM275.738 78.632C275.993 80.079 277.317 81.455 278.67 81.6784C279.773 81.8604 280.982 81.5809 281.792 80.9568C282.408 80.4825 282.91 79.6314 283.129 78.6898C283.342 77.7751 283.295 77.1708 282.963 76.5495L282.72 76.0947L281.594 76.7248C280.182 77.5153 279.139 77.9735 278.306 78.1696C277.566 78.3437 277.13 78.3551 276.412 78.2188C276.135 78.1662 275.855 78.1558 275.791 78.1958C275.721 78.2395 275.699 78.4132 275.738 78.632ZM305.735 62.2186C305.864 62.3692 306.297 62.6966 306.697 62.946C307.586 63.4999 308.252 63.6552 309.26 63.5443C309.943 63.4691 310.007 63.4453 310.723 63.0012C311.44 62.5565 311.489 62.5109 311.863 61.9277C312.487 60.9548 312.652 59.8507 312.367 58.5535C312.279 58.1507 312.163 58.051 311.857 58.1144C311.72 58.1427 310.359 58.9435 308.562 60.0536L305.5 61.9445L305.735 62.2186ZM291.151 70.9333C291.026 71.0705 291.03 71.1341 291.178 71.3554C291.655 72.0738 293.422 72.7644 294.5 72.6538C296.889 72.4087 298.451 69.9523 297.72 67.5899C297.639 67.3289 297.547 67.074 297.516 67.0234C297.47 66.9496 296.849 67.3111 294.378 68.8516C292.684 69.9077 291.232 70.8444 291.151 70.9333Z" fill="#BF74DD"/>
<circle cx="40.3674" cy="332.698" r="6.36736" stroke="#BF74DD" stroke-width="4"/>
<circle cx="142.602" cy="244.129" r="6.36736" stroke="#BF74DD" stroke-width="4"/>
<defs>
<linearGradient id="paint0_linear" x1="394.029" y1="150.949" x2="66.7911" y2="203.53" gradientUnits="userSpaceOnUse">
<stop stop-color="#5D54A6"/>
<stop offset="0.479167" stop-color="#CF3662"/>
<stop offset="1" stop-color="#FDB545"/>
</linearGradient>
<clipPath id="clip0">
<rect width="118.289" height="118.289" fill="white" transform="translate(150.336 193.22) rotate(-15.261)"/>
</clipPath>
</defs>
</svg>
