<svg viewBox="0 0 295 355" fill="none" xmlns="http://www.w3.org/2000/svg">
<path d="M238.179 216.252C239.61 216.816 241.121 217.231 242.465 217.967C245.307 219.51 246.661 222.801 245.885 225.837C245.104 228.888 242.34 231.124 239.17 231.26C237.712 231.321 236.305 231.039 234.904 230.669C188.634 218.453 142.354 206.241 96.0861 194.017C94.9976 193.729 93.9023 193.376 92.8946 192.875C89.5718 191.212 87.9637 187.741 88.8944 184.43C89.8031 181.202 92.7794 179.086 96.3738 179.257C97.6997 179.323 99.0109 179.661 100.331 179.872C103.719 180.766 107.104 181.667 110.499 182.563C112.293 183.012 114.088 183.461 115.883 183.91C138.003 189.779 160.118 195.663 182.244 201.51C195.701 205.06 209.165 208.556 222.631 212.077C224.422 212.574 226.22 213.072 228.01 213.569C231.397 214.463 234.792 215.359 238.179 216.252Z" fill="#324C60"/>
<path d="M143.145 17.6648C141.716 17.0933 140.214 16.6482 138.869 15.9126C136.06 14.3693 134.694 11.0597 135.441 8.01562C136.183 4.98671 138.95 2.76767 142.156 2.5925C143.519 2.51485 144.816 2.78409 146.118 3.12754C192.616 15.4047 239.093 27.733 285.62 39.8718C292.485 41.6587 294.86 48.2083 290.529 52.5588C287.714 55.3892 284.342 54.7751 280.967 54.0222C277.595 53.1325 274.217 52.2331 270.845 51.3434C269.037 50.8825 267.229 50.4217 265.421 49.9608C255.762 47.3798 246.109 44.776 236.44 42.2329C210.525 35.4113 184.607 28.6048 158.688 21.7983C156.888 21.3072 155.088 20.816 153.288 20.3249C149.899 19.4387 146.527 18.5489 143.145 17.6648Z" fill="#324C60"/>
<path d="M143.145 17.6648C146.517 18.5546 149.898 19.4388 153.27 20.3285C141.605 64.4792 129.931 108.628 118.271 152.788C115.652 162.711 113.072 172.645 110.477 182.574C107.089 181.68 103.704 180.779 100.309 179.883C110.116 142.777 119.929 105.681 129.728 68.5729C134.223 51.6013 138.677 34.6273 143.145 17.6648Z" fill="#2B3B4E"/>
<path d="M270.835 51.3488C274.207 52.2385 277.585 53.1379 280.957 54.0276C266.698 108.1 252.436 162.18 238.177 216.252C234.79 215.359 231.4 214.472 228.006 213.577C228.368 212.295 228.746 211.017 229.088 209.722C243.009 156.93 256.921 104.143 270.835 51.3488Z" fill="#2B3B4E"/>
<path d="M158.679 21.7963C184.598 28.6027 210.517 35.4092 236.431 42.2308C246.1 44.774 255.753 47.3777 265.412 49.9588C262.738 59.138 258.169 67.38 252.704 75.1341C241.323 91.2688 226.439 103.028 207.916 110.156C204.898 111.321 202.075 112.731 200.209 115.544C197.13 120.209 197.501 125.436 201.733 130.596C209.939 140.596 216.186 151.635 219.958 163.998C224.784 179.807 225.953 195.834 222.626 212.085C209.16 208.564 195.696 205.068 182.238 201.517C160.113 195.671 137.997 189.787 115.878 183.918C116.304 182.548 116.623 181.125 117.175 179.804C128.008 153.867 145.818 134.599 172.345 124.349C183.579 120.004 186.282 110.654 178.322 101.481C168.624 90.3169 162.641 77.1034 159.389 62.7385C156.307 49.1478 155.709 35.4915 158.679 21.7963ZM204.314 66.2307C193.132 63.2803 181.945 60.3203 170.761 57.3774C166.932 56.3672 166.894 56.3895 167.776 60.3575C169.651 68.7438 172.848 76.6204 176.876 84.2217C180.903 91.823 187.296 97.7717 191.283 105.403C192.406 107.563 194.791 107.536 196.707 106.17C200.283 103.629 204.406 102.262 208.362 100.535C220.163 95.4004 230.354 88.0344 238.918 78.4728C241.075 76.0683 241.016 75.923 237.865 75.0915C226.681 72.1164 215.495 69.1811 204.314 66.2307ZM171.369 188.959C183.137 192.064 194.926 195.118 206.67 198.314C209.146 198.991 209.453 198.384 208.959 196.09C207.839 190.86 206.627 185.671 204.738 180.643C204.168 179.131 203.305 178.361 201.737 177.947C184.766 173.518 167.804 169.05 150.861 164.515C149.158 164.058 147.978 164.394 146.663 165.49C142.609 168.852 139.123 172.745 135.586 176.616C133.708 178.673 134.217 179.212 136.634 179.834C148.241 182.808 159.799 185.906 171.369 188.959Z" fill="#FEFEFE"/>
<path d="M204.317 66.2307C215.499 69.1811 226.69 72.126 237.868 75.0916C241.025 75.9326 241.078 76.0684 238.922 78.4728C230.355 88.042 220.166 95.4005 208.366 100.535C204.401 102.26 200.289 103.622 196.71 106.17C194.794 107.536 192.41 107.563 191.286 105.403C187.299 97.7718 180.908 91.8155 176.879 84.2218C172.851 76.6205 169.654 68.7439 167.779 60.3576C166.897 56.3895 166.928 56.3652 170.764 57.3775C181.948 60.3203 193.128 63.2783 204.317 66.2307Z" fill="#FECF5B"/>
<path d="M171.372 188.959C159.802 185.906 148.236 182.806 136.644 179.836C134.227 179.214 133.718 178.675 135.596 176.618C139.133 172.747 142.619 168.854 146.674 165.492C147.987 164.404 149.167 164.067 150.872 164.517C167.815 169.052 184.776 173.52 201.747 177.949C203.317 178.355 204.178 179.133 204.748 180.645C206.638 185.673 207.851 190.855 208.969 196.092C209.463 198.386 209.156 198.993 206.681 198.316C194.929 195.118 183.147 192.066 171.372 188.959Z" fill="#FECF5B"/>
<path fill-rule="evenodd" clip-rule="evenodd" d="M192.509 198.173L185.276 168.339C184.694 165.939 183.189 163.998 181.229 162.803C179.269 161.608 176.855 161.158 174.454 161.74C132.754 171.85 55.2536 190.64 13.5597 200.748C11.1593 201.33 9.21865 202.835 8.02364 204.795C6.8243 206.762 6.3749 209.177 6.95549 211.571L14.1886 241.406L16.3147 240.89C16.5137 240.788 16.7297 240.705 16.9526 240.651C17.8271 240.439 18.753 240.215 19.7417 239.975C35.6548 236.123 65.7547 228.862 96.2618 221.508L192.509 198.173Z" fill="#25B6E5"/>
<path fill-rule="evenodd" clip-rule="evenodd" d="M13.752 239.606L39.5736 346.112C40.1556 348.513 41.6609 350.453 43.6208 351.648C45.5806 352.843 47.9952 353.293 50.3956 352.711L211.29 313.703C213.69 313.121 215.631 311.616 216.826 309.656C218.021 307.696 218.47 305.282 217.888 302.881L192.067 196.375L190.072 196.858C189.839 196.993 189.585 197.097 189.311 197.164C189.277 197.172 188.299 197.409 186.521 197.834C175.59 200.472 134.307 210.426 94.8764 219.938L13.752 239.606Z" fill="#E2E2E2"/>
<path d="M100.895 242.739L76.1357 248.741L79.2396 261.544L103.999 255.541L100.895 242.739Z" fill="#A7AAAA"/>
<path d="M140.799 233.064L116.04 239.066L119.144 251.869L143.903 245.866L140.799 233.064Z" fill="#A7AAAA"/>
<path d="M180.711 223.388L155.952 229.39L159.056 242.193L183.815 236.19L180.711 223.388Z" fill="#3B3C3C"/>
<path d="M67.8451 280.711L43.0859 286.714L46.1898 299.516L70.9489 293.514L67.8451 280.711Z" fill="#A7AAAA"/>
<path d="M107.755 271.035L82.9961 277.038L86.1 289.84L110.859 283.838L107.755 271.035Z" fill="#A7AAAA"/>
<path d="M147.66 261.361L122.9 267.363L126.004 280.166L150.763 274.163L147.66 261.361Z" fill="#A7AAAA"/>
<path d="M187.571 251.685L162.812 257.687L165.915 270.49L190.675 264.487L187.571 251.685Z" fill="#A7AAAA"/>
<path d="M74.7054 309.008L49.9463 315.011L53.0502 327.814L77.8093 321.811L74.7054 309.008Z" fill="#A7AAAA"/>
<path d="M114.615 299.332L89.8555 305.335L92.9593 318.138L117.718 312.135L114.615 299.332Z" fill="#A7AAAA"/>
<path d="M154.521 289.658L129.762 295.66L132.866 308.463L157.625 302.46L154.521 289.658Z" fill="#A7AAAA"/>
<path d="M194.431 279.982L169.672 285.984L172.776 298.787L197.535 292.784L194.431 279.982Z" fill="#A7AAAA"/>
<path d="M191.717 194.904L13.3965 238.137L14.8791 244.252L193.2 201.02L191.717 194.904Z" fill="#16596F"/>
<path fill-rule="evenodd" clip-rule="evenodd" d="M145.84 171.812C150.653 170.646 155.495 173.599 156.662 178.411C157.829 183.223 154.876 188.066 150.064 189.233C145.251 190.4 140.408 187.447 139.242 182.634C138.075 177.822 141.028 172.979 145.84 171.812Z" fill="#28A3AC"/>
<path fill-rule="evenodd" clip-rule="evenodd" d="M43.6038 196.599C48.4162 195.432 53.2591 198.385 54.4258 203.198C55.5926 208.01 52.6397 212.853 47.8273 214.02C43.0149 215.186 38.172 212.233 37.0053 207.421C35.8386 202.609 38.7915 197.766 43.6038 196.599Z" fill="#28A3AC"/>
<path fill-rule="evenodd" clip-rule="evenodd" d="M38.9363 177.35C42.3313 176.526 45.7824 178.631 46.6054 182.026L51.512 202.264C52.3351 205.659 50.2309 209.11 46.8359 209.933C43.441 210.756 39.9899 208.652 39.1668 205.257L34.2602 185.019C33.4428 181.622 35.5414 178.173 38.9363 177.35Z" fill="#3B3C3C"/>
<path fill-rule="evenodd" clip-rule="evenodd" d="M141.173 152.563C144.568 151.74 148.019 153.844 148.842 157.239L153.748 177.477C154.571 180.872 152.467 184.323 149.072 185.146C145.677 185.969 142.226 183.865 141.403 180.47L136.497 160.232C135.673 156.837 137.778 153.386 141.173 152.563Z" fill="#3B3C3C"/>
</svg>
