<svg width="362" height="233" viewBox="0 0 362 233" fill="none" xmlns="http://www.w3.org/2000/svg">
<path d="M305.66 215.202C307.09 215.766 308.601 216.181 309.946 216.917C312.787 218.46 314.142 221.751 313.365 224.787C312.584 227.838 309.82 230.074 306.65 230.21C305.193 230.271 303.785 229.989 302.385 229.619C256.115 217.402 209.835 205.191 163.567 192.966C162.478 192.679 161.383 192.325 160.375 191.825C157.052 190.162 155.444 186.691 156.375 183.38C157.284 180.152 160.26 178.036 163.854 178.207C165.18 178.273 166.491 178.611 167.812 178.822C171.199 179.715 174.584 180.617 177.979 181.513C179.774 181.962 181.569 182.411 183.363 182.86C205.483 188.729 227.599 194.613 249.724 200.459C263.182 204.01 276.646 207.506 290.112 211.027C291.902 211.524 293.7 212.022 295.49 212.519C298.878 213.413 302.272 214.309 305.66 215.202Z" fill="#324C60"/>
<path d="M210.626 16.6146C209.197 16.0432 207.694 15.598 206.349 14.8624C203.541 13.3191 202.175 10.0095 202.921 6.96545C203.663 3.93654 206.431 1.7175 209.636 1.54233C211 1.46468 212.297 1.73392 213.598 2.07737C260.097 14.3546 306.574 26.6828 353.101 38.8216C359.965 40.6085 362.34 47.1581 358.009 51.5086C355.194 54.3391 351.823 53.725 348.447 52.972C345.075 52.0823 341.697 51.183 338.325 50.2932C336.517 49.8324 334.709 49.3715 332.901 48.9107C323.242 46.3296 313.589 43.7259 303.92 41.1827C278.006 34.3611 252.087 27.5546 226.169 20.7482C224.369 20.257 222.569 19.7659 220.769 19.2747C217.379 18.3885 214.007 17.4988 210.626 16.6146Z" fill="#324C60"/>
<path d="M210.625 16.6146C213.997 17.5044 217.379 18.3885 220.751 19.2783C209.085 63.429 197.412 107.578 185.751 151.738C183.133 161.661 180.553 171.594 177.957 181.524C174.57 180.63 171.185 179.729 167.79 178.833C177.597 141.727 187.409 104.631 197.209 67.5227C201.703 50.5511 206.158 33.5771 210.625 16.6146Z" fill="#2B3B4E"/>
<path d="M338.316 50.2986C341.688 51.1884 345.065 52.0877 348.438 52.9774C334.178 107.05 319.917 161.13 305.657 215.202C302.27 214.308 298.881 213.422 295.486 212.526C295.849 211.245 296.226 209.967 296.568 208.672C310.49 155.88 324.402 103.093 338.316 50.2986Z" fill="#2B3B4E"/>
<path d="M226.16 20.7461C252.078 27.5525 277.997 34.359 303.912 41.1806C313.581 43.7238 323.234 46.3275 332.893 48.9086C330.218 58.0878 325.65 66.3298 320.184 74.0839C308.803 90.2186 293.919 101.978 275.397 109.106C272.378 110.27 269.555 111.681 267.689 114.494C264.61 119.159 264.982 124.386 269.214 129.546C277.42 139.546 283.667 150.585 287.439 162.948C292.264 178.757 293.433 194.784 290.106 211.034C276.641 207.514 263.176 204.018 249.719 200.467C227.593 194.621 205.478 188.737 183.358 182.868C183.785 181.498 184.103 180.075 184.655 178.754C195.489 152.816 213.298 133.549 239.826 123.298C251.06 118.954 253.763 109.604 245.803 100.43C236.104 89.2667 230.122 76.0531 226.869 61.6883C223.787 48.0976 223.189 34.4413 226.16 20.7461ZM271.794 65.1805C260.612 62.2301 249.425 59.2701 238.241 56.3272C234.413 55.317 234.374 55.3392 235.257 59.3073C237.131 67.6936 240.329 75.5702 244.356 83.1715C248.383 90.7728 254.776 96.7215 258.763 104.353C259.887 106.513 262.271 106.486 264.187 105.119C267.764 102.579 271.886 101.212 275.843 99.4848C287.643 94.3502 297.835 86.9842 306.399 77.4226C308.556 75.0181 308.496 74.8728 305.345 74.0413C294.162 71.0662 282.976 68.1309 271.794 65.1805ZM238.849 187.908C250.617 191.014 262.407 194.068 274.151 197.264C276.626 197.941 276.933 197.333 276.439 195.04C275.32 189.81 274.108 184.621 272.218 179.593C271.648 178.081 270.785 177.311 269.217 176.897C252.246 172.467 235.285 168 218.342 163.465C216.639 163.007 215.459 163.344 214.144 164.44C210.09 167.802 206.604 171.695 203.066 175.566C201.188 177.623 201.697 178.162 204.114 178.784C215.722 181.757 227.279 184.856 238.849 187.908Z" fill="#FEFEFE"/>
<path d="M271.797 65.1806C282.979 68.131 294.171 71.0758 305.348 74.0414C308.505 74.8825 308.559 75.0182 306.402 77.4226C297.836 86.9919 287.647 94.3503 275.846 99.4848C271.882 101.21 267.769 102.572 264.19 105.119C262.275 106.486 259.89 106.513 258.767 104.353C254.78 96.7216 248.389 90.7653 244.359 83.1716C240.332 75.5703 237.134 67.6937 235.26 59.3074C234.377 55.3393 234.408 55.3151 238.245 56.3273C249.428 59.2702 260.608 62.2281 271.797 65.1806Z" fill="#FECF5B"/>
<path d="M238.852 187.908C227.282 184.856 215.717 181.755 204.125 178.786C201.708 178.164 201.199 177.625 203.077 175.568C206.614 171.697 210.1 167.804 214.154 164.442C215.467 163.354 216.647 163.017 218.352 163.467C235.295 168.002 252.256 172.469 269.227 176.899C270.797 177.305 271.659 178.083 272.229 179.595C274.118 184.623 275.332 189.804 276.449 195.042C276.943 197.335 276.636 197.943 274.161 197.266C262.409 194.068 250.628 191.016 238.852 187.908Z" fill="#FECF5B"/>
<path fill-rule="evenodd" clip-rule="evenodd" d="M191.736 75.3645L184.503 45.5301C183.921 43.1296 182.415 41.189 180.455 39.994C178.496 38.799 176.081 38.3496 173.681 38.9316C131.981 49.0413 54.4802 67.8308 12.7863 77.9391C10.3858 78.5211 8.44521 80.0264 7.2502 81.9863C6.05086 83.9533 5.60146 86.3678 6.18205 88.7625L13.4152 118.597L15.5413 118.081C15.7403 117.979 15.9563 117.896 16.1792 117.842C17.0536 117.63 17.9795 117.406 18.9683 117.166C34.8813 113.314 64.9813 106.053 95.4883 98.6989L191.736 75.3645Z" fill="#25B6E5"/>
<path fill-rule="evenodd" clip-rule="evenodd" d="M12.9785 116.797L38.8002 223.303C39.3822 225.704 40.8874 227.644 42.8473 228.839C44.8072 230.034 47.2217 230.484 49.6222 229.902L210.516 190.894C212.917 190.312 214.858 188.807 216.053 186.847C217.248 184.887 217.697 182.473 217.115 180.072L191.293 73.5657L189.299 74.0493C189.065 74.1846 188.812 74.2883 188.538 74.3548C188.503 74.3632 187.526 74.6001 185.747 75.0253C174.817 77.6633 133.533 87.6176 94.1029 97.1288L12.9785 116.797Z" fill="#E2E2E2"/>
<path d="M100.121 119.93L75.3623 125.932L78.4662 138.735L103.225 132.732L100.121 119.93Z" fill="#A7AAAA"/>
<path d="M140.026 110.255L115.267 116.257L118.37 129.06L143.13 123.057L140.026 110.255Z" fill="#A7AAAA"/>
<path d="M179.938 100.579L155.179 106.582L158.283 119.384L183.042 113.381L179.938 100.579Z" fill="#3B3C3C"/>
<path d="M67.0716 157.902L42.3125 163.905L45.4164 176.708L70.1755 170.705L67.0716 157.902Z" fill="#A7AAAA"/>
<path d="M106.982 148.226L82.2227 154.229L85.3265 167.032L110.086 161.029L106.982 148.226Z" fill="#A7AAAA"/>
<path d="M146.886 138.552L122.127 144.555L125.231 157.357L149.99 151.354L146.886 138.552Z" fill="#A7AAAA"/>
<path d="M186.797 128.876L162.038 134.878L165.142 147.681L189.901 141.678L186.797 128.876Z" fill="#A7AAAA"/>
<path d="M73.932 186.2L49.1729 192.202L52.2767 205.005L77.0358 199.002L73.932 186.2Z" fill="#A7AAAA"/>
<path d="M113.841 176.524L89.082 182.526L92.1859 195.329L116.945 189.326L113.841 176.524Z" fill="#A7AAAA"/>
<path d="M153.747 166.849L128.988 172.851L132.092 185.654L156.851 179.651L153.747 166.849Z" fill="#A7AAAA"/>
<path d="M193.658 157.173L168.898 163.176L172.002 175.978L196.761 169.975L193.658 157.173Z" fill="#A7AAAA"/>
<path d="M190.944 72.0953L12.623 115.328L14.1057 121.443L192.426 78.2108L190.944 72.0953Z" fill="#16596F"/>
<path fill-rule="evenodd" clip-rule="evenodd" d="M145.067 49.0035C149.879 47.8368 154.722 50.7897 155.889 55.602C157.055 60.4144 154.103 65.2573 149.29 66.424C144.478 67.5908 139.635 64.6379 138.468 59.8255C137.301 55.0131 140.254 50.1702 145.067 49.0035Z" fill="#28A3AC"/>
<path fill-rule="evenodd" clip-rule="evenodd" d="M42.8304 73.7901C47.6428 72.6234 52.4857 75.5763 53.6524 80.3887C54.8191 85.201 51.8662 90.0439 47.0539 91.2107C42.2415 92.3774 37.3986 89.4245 36.2319 84.6121C35.0651 79.7998 38.018 74.9568 42.8304 73.7901Z" fill="#28A3AC"/>
<path fill-rule="evenodd" clip-rule="evenodd" d="M38.1629 54.5407C41.5578 53.7176 45.0089 55.8219 45.832 59.2169L50.7386 79.4551C51.5617 82.85 49.4574 86.3012 46.0625 87.1242C42.6675 87.9473 39.2164 85.8431 38.3933 82.4481L33.4867 62.2099C32.6694 58.8135 34.7679 55.3638 38.1629 54.5407Z" fill="#3B3C3C"/>
<path fill-rule="evenodd" clip-rule="evenodd" d="M140.399 29.754C143.794 28.9309 147.245 31.0352 148.068 34.4301L152.975 54.6683C153.798 58.0633 151.694 61.5144 148.299 62.3375C144.904 63.1606 141.453 61.0563 140.63 57.6614L135.723 37.4231C134.9 34.0282 137.004 30.5771 140.399 29.754Z" fill="#3B3C3C"/>
</svg>
