<svg viewBox="0 0 505 254" fill="none" xmlns="http://www.w3.org/2000/svg">
<path d="M360.717 242.206C373.173 213.654 403.831 196.01 417.603 190.758C426.982 186.906 446.656 170.348 450.319 134.931C454.897 90.6586 410.833 83.433 402.326 81.8656C393.82 80.2982 383.671 75.5855 366.901 57.5663C350.132 39.5471 337.13 42.0453 316.764 63.5511C296.398 85.0569 278.284 92.1788 243.601 88.8168C208.919 85.4548 183.957 90.2805 169.136 119.12C154.315 147.959 191.863 174.969 214.334 195.549C232.311 212.012 223.394 241.121 216.688 253.617C212.488 264.618 207.027 294.305 218.776 325.045C233.462 363.47 271.116 364.145 300.486 352.246C329.856 340.347 345.148 277.896 360.717 242.206Z" fill="#773D8D"/>
<path fill-rule="evenodd" clip-rule="evenodd" d="M326.463 123.28C327.055 123.316 326.928 123.393 329.042 121.718C330.612 120.474 333.206 118.508 334.704 117.425C337.551 115.368 339.189 114.334 342.662 112.402C346.176 110.446 347.408 109.655 349.108 108.265C350.269 107.316 350.402 107.192 350.652 106.836C351.241 105.997 351.66 105.062 351.809 104.253C351.991 103.266 351.967 103.311 352.628 102.74C352.95 102.461 353.292 102.191 353.386 102.139C353.494 102.08 353.818 102.05 354.255 102.06C355.15 102.079 355.445 102.053 356.094 101.893C356.888 101.698 357.415 101.434 358.077 100.899C359.917 99.4129 360.572 97.0338 359.787 94.6882C359.669 94.3374 358.268 92.5376 357.832 92.1783C357.531 91.9298 356.804 91.5762 356.287 91.4268C354.862 91.0149 353.251 91.216 351.852 91.9803C351.174 92.351 351.273 92.3662 350.827 91.8224L350.437 91.3465L350.767 91.0198C351.673 90.1236 352.194 88.9868 352.318 87.6389C352.398 86.7641 352.241 85.6973 351.933 85.0304C351.758 84.6512 350.485 83.0678 350.086 82.7331C349.374 82.1366 347.844 81.7004 346.626 81.7469C345.813 81.778 344.41 82.2257 343.955 82.5993C343.858 82.6788 343.708 82.7674 343.623 82.796C343.472 82.8467 343.459 82.8375 343.112 82.4142C342.873 82.1222 342.763 81.95 342.777 81.8875C342.788 81.8364 342.927 81.6649 343.086 81.5064C343.721 80.8721 344.315 79.731 344.49 78.8104C344.701 77.6959 344.543 76.2051 344.136 75.468C344.029 75.274 343.637 74.7689 343.129 74.1719L342.297 73.1938L341.863 72.9714C341.182 72.6229 340.489 72.4155 339.754 72.3402C338.427 72.2041 337.243 72.4634 336.296 73.098C335.718 73.4851 335.801 73.4982 335.351 72.9498L334.956 72.4684L335.109 72.3016C335.586 71.7812 335.952 71.2973 336.148 70.9298C336.778 69.7473 336.99 68.0942 336.677 66.8126C336.505 66.1101 336.363 65.8802 335.397 64.7409L334.543 63.7332L334.06 63.4876C332.75 62.8222 331.511 62.6603 330.143 62.9758C329.197 63.1941 328.732 63.4223 327.97 64.0422C326.814 64.9827 326.252 66.0083 325.995 67.6472C325.942 67.984 325.849 68.309 325.775 68.4141C325.608 68.6527 324.737 69.3652 324.468 69.484C324.352 69.5349 324.091 69.5763 323.887 69.5758C322.949 69.5735 322.617 69.5942 322.159 69.6834C320.518 70.0027 319.103 71.0071 318.169 72.5173C317.565 73.4942 317.234 74.6575 317.193 75.9465C317.11 78.6267 317.982 81.2723 320.609 86.3099C322.752 90.4198 323.363 92.3387 323.385 95.0295C323.392 95.9486 323.241 97.3697 323.08 97.8866C322.884 98.5171 322.395 99.2422 321.531 100.184C320.932 100.838 319.404 102.111 318.597 102.628C318.06 102.973 317.729 103.155 315.99 104.06C315.362 104.386 315.118 104.542 314.909 104.747C314.147 105.497 314.05 106.611 314.643 107.793C314.896 108.297 315.718 109.324 316.209 109.749C317.808 111.133 319.741 112.042 321.735 112.347C322.123 112.407 322.51 112.493 322.595 112.538C322.821 112.659 322.96 113.093 323.182 114.383C323.463 116.011 323.519 116.664 323.54 118.567L323.559 120.302L324.769 121.776L325.978 123.251L326.463 123.28ZM326.323 119.038C326.305 118.826 326.282 118.259 326.273 117.779C326.222 115.148 325.642 112.134 324.831 110.282C324.449 109.412 323.868 108.353 323.435 107.739C323.116 107.287 323.066 107.185 323.078 107.012C323.093 106.789 323.514 105.765 323.63 105.671C323.788 105.541 324.531 106.007 325.159 106.629C325.578 107.045 325.909 107.224 326.338 107.267C326.796 107.312 327.175 107.195 327.538 106.898C327.91 106.592 328.083 106.26 328.132 105.752C328.18 105.249 328.091 104.942 327.791 104.573C327.466 104.176 327.24 104.024 326.822 103.926C326.069 103.748 325.013 103.254 324.781 102.971C324.648 102.808 324.676 102.651 325.075 101.337L325.361 100.397L325.719 100.468C326.803 100.683 327.407 100.882 327.964 101.207C328.525 101.534 329.332 101.458 329.857 101.027C330.295 100.668 330.515 100.039 330.418 99.4224C330.374 99.1421 330.329 99.0557 330.046 98.7112C329.757 98.3584 329.69 98.3052 329.374 98.1821C329.142 98.0917 328.859 98.0493 328.539 98.0573C327.867 98.074 327.225 98.0046 326.565 97.8437L326.003 97.7069L326.034 97.0825C326.052 96.7391 326.103 96.1085 326.148 95.6814L326.231 94.9047L327.13 94.8141C327.703 94.7564 328.218 94.7504 328.545 94.7976C329.181 94.8894 329.568 94.8498 329.97 94.6514C331.177 94.0557 331.167 92.2146 329.954 91.6841C329.428 91.4539 328.815 91.4442 328.432 91.6601C328.16 91.813 327.209 92.0463 326.546 92.1227C326.074 92.1771 326.022 92.1696 325.951 92.0358C325.845 91.8367 325.418 90.203 325.372 89.8211L325.335 89.5133L325.594 89.3435C325.976 89.0922 326.714 88.8176 327.172 88.756C327.393 88.7261 327.701 88.6328 327.856 88.5484C328.39 88.2571 328.763 87.556 328.713 86.9376C328.683 86.567 328.577 86.3326 328.274 85.9627C327.937 85.552 327.526 85.3668 327.005 85.3913C326.383 85.4206 326.365 85.429 325.553 86.0738C324.841 86.6398 324.323 86.9476 324.116 86.9272C323.982 86.914 321.757 82.5933 321.216 81.2976C320.325 79.1604 319.855 77.1629 319.935 75.8445C320.017 74.492 320.756 73.2493 321.802 72.7068C322.768 72.2061 323.695 72.2065 324.838 72.7081L325.522 73.0086L337.191 87.2392L348.86 101.47L349.018 102.138C349.298 103.321 349.077 104.424 348.408 105.192C348.221 105.406 347.753 105.804 346.954 106.43C345.344 107.69 344.109 108.481 341.738 109.769C337.06 112.312 332.362 115.488 328.043 119.028L326.803 120.045L326.58 119.734C326.393 119.474 326.351 119.361 326.323 119.038ZM317.157 106.605C317.185 106.556 317.646 106.282 318.181 105.995C318.717 105.708 319.553 105.239 320.04 104.953C320.527 104.666 320.973 104.416 321.03 104.396C321.106 104.369 321.022 104.628 320.737 105.303C320.049 106.932 319.923 107.467 320.118 107.916C320.169 108.032 320.41 108.413 320.653 108.763C320.897 109.112 321.095 109.416 321.092 109.437C321.086 109.503 319.512 108.744 318.997 108.428C318.302 108 317.946 107.699 317.5 107.164C317.175 106.774 317.116 106.678 317.157 106.605ZM327.605 70.4641C328.017 70.1269 328.214 70.0697 328.838 70.1072L329.341 70.1375L340.869 84.1952L352.396 98.2529L352.339 98.7712C352.266 99.4297 352.227 99.5127 351.811 99.9044L351.468 100.227L339.375 85.4787L327.281 70.7302L327.605 70.4641ZM355.144 98.6967C355.212 97.7321 354.863 96.9598 353.539 95.1504L353.08 94.5235L353.321 94.346C353.632 94.1159 353.945 94.0194 354.5 93.9821C355.042 93.9457 355.406 94.0179 355.92 94.2638C357.172 94.8631 357.713 96.4918 357.103 97.8281C356.918 98.2342 356.891 98.2663 356.379 98.6859C355.929 99.0548 355.801 99.1339 355.546 99.2003C355.357 99.2492 355.219 99.2491 355.179 99.1999C355.143 99.1566 355.128 98.9301 355.144 98.6967ZM329.041 66.94C329.545 66.0248 330.752 65.4031 331.713 65.5634C332.497 65.6942 333.247 66.16 333.648 66.7659C333.954 67.2264 334.096 67.9144 334.027 68.5983C333.961 69.2627 333.79 69.6585 333.424 70.0003L333.156 70.2505L332.543 69.5679C331.774 68.7117 331.178 68.164 330.662 67.8407C330.205 67.5538 329.913 67.4458 329.399 67.3727C329.201 67.3445 329.01 67.2873 328.976 67.2456C328.939 67.2 328.965 67.0783 329.041 66.94ZM345.456 84.8721C345.577 84.8004 345.944 84.6796 346.27 84.6037C346.995 84.4351 347.479 84.4833 348.132 84.7895C348.574 84.997 348.612 85.0277 348.992 85.491C349.372 85.9548 349.394 85.9967 349.512 86.475C349.708 87.2729 349.566 88.0537 349.077 88.8612C348.925 89.1119 348.824 89.1524 348.632 89.0394C348.547 88.9889 347.815 88.1377 346.86 86.978L345.235 85.0026L345.456 84.8721ZM337.644 75.6594C337.591 75.5384 337.609 75.4966 337.758 75.3815C338.245 75.0077 339.592 74.9488 340.292 75.2707C341.844 75.9843 342.33 77.9958 341.296 79.4174C341.181 79.5744 341.061 79.7249 341.028 79.7517C340.981 79.7908 340.646 79.4051 339.337 77.8011C338.44 76.7015 337.678 75.7377 337.644 75.6594Z" fill="#BF74DD"/>
<path d="M334.296 87.013C308.509 104.489 273.167 103.017 258.72 100.096C248.734 98.339 223.256 101.82 201.232 129.798C173.702 164.77 207.084 194.426 213.436 200.297C219.789 206.168 225.848 215.576 230.392 239.768C234.936 263.96 247.26 268.797 275.967 261.504C304.674 254.211 323.79 257.873 351.308 279.25C378.825 300.626 402.503 309.888 430.442 293.434C458.381 276.979 441.08 234.083 433.085 204.68C426.69 181.157 449.784 161.32 462.13 154.342C471.559 147.288 492.041 125.115 498.539 92.8539C506.661 52.5277 484.302 26.1952 444.013 26.1953C406.121 26.1954 366.529 65.1679 334.296 87.013Z" fill="url(#paint0_linear)"/>
<g clip-path="url(#clip0)">
<path d="M349.957 108.677L298.824 122.628C281.459 127.366 271.187 145.348 275.924 162.713L289.875 213.845C294.613 231.211 312.595 241.483 329.959 236.746L381.092 222.795C398.458 218.057 408.731 200.074 403.993 182.71L390.042 131.577C385.305 114.212 367.322 103.939 349.957 108.677ZM393.868 185.472C397.083 197.254 390.113 209.455 378.33 212.669L327.197 226.621C315.415 229.836 303.215 222.865 300 211.083L286.049 159.95C282.835 148.168 289.805 135.968 301.586 132.753L352.719 118.802C364.501 115.588 376.702 122.558 379.917 134.339L393.868 185.472L393.868 185.472Z" fill="white"/>
<path d="M331.933 143.307C315.718 147.731 306.126 164.521 310.55 180.735C314.974 196.949 331.764 206.54 347.978 202.116C364.192 197.692 373.784 180.903 369.361 164.69C364.937 148.475 348.147 138.883 331.933 143.307ZM345.215 191.991C334.585 194.891 323.576 188.603 320.675 177.972C317.774 167.341 324.064 156.332 334.695 153.432C345.326 150.531 356.335 156.82 359.235 167.451C362.136 178.082 355.846 189.09 345.215 191.991Z" fill="white"/>
<path d="M360.234 126.364C358.283 126.896 356.582 128.209 355.582 129.968C354.573 131.723 354.3 133.857 354.834 135.815C355.367 137.766 356.686 139.465 358.448 140.471C360.2 141.473 362.335 141.746 364.285 141.214C366.243 140.68 367.936 139.362 368.944 137.608C369.95 135.846 370.217 133.714 369.685 131.763C369.15 129.805 367.838 128.104 366.078 127.104C364.324 126.096 362.191 125.83 360.234 126.364Z" fill="white"/>
</g>
<path fill-rule="evenodd" clip-rule="evenodd" d="M155.669 152.741C154.864 152.962 154.999 152.802 152.945 155.992C151.421 158.361 148.862 162.156 147.358 164.279C144.503 168.31 142.793 170.43 139.048 174.581C135.258 178.781 133.977 180.394 132.346 183.016C131.232 184.807 131.111 185.031 130.94 185.619C130.537 187.004 130.405 188.439 130.574 189.584C130.779 190.98 130.791 190.91 130.171 191.969C129.868 192.487 129.537 193.002 129.434 193.114C129.318 193.242 128.9 193.428 128.314 193.614C127.114 193.995 126.732 194.164 125.941 194.671C124.973 195.292 124.392 195.882 123.753 196.895C121.979 199.709 122.188 203.174 124.299 205.94C124.615 206.353 127.298 208.112 128.041 208.393C128.555 208.587 129.683 208.727 130.439 208.691C132.524 208.592 134.577 207.593 136.091 205.94C136.826 205.138 136.687 205.163 137.528 205.684L138.264 206.14L137.972 206.725C137.174 208.33 136.996 210.08 137.444 211.93C137.734 213.131 138.428 214.48 139.141 215.228C139.546 215.653 141.96 217.183 142.643 217.447C143.862 217.918 146.097 217.803 147.697 217.188C148.765 216.777 150.429 215.544 150.866 214.84C150.959 214.69 151.117 214.504 151.218 214.427C151.396 214.291 151.417 214.297 152.071 214.703C152.523 214.983 152.747 215.162 152.757 215.252C152.766 215.325 152.658 215.616 152.519 215.9C151.962 217.033 151.689 218.822 151.875 220.126C152.1 221.706 152.987 223.619 153.864 224.415C154.095 224.624 154.846 225.119 155.793 225.683L157.345 226.607L158.024 226.705C159.089 226.86 160.106 226.821 161.118 226.588C162.947 226.166 164.404 225.283 165.377 224.008C165.971 223.23 165.854 223.25 166.702 223.776L167.446 224.238L167.319 224.529C166.921 225.438 166.653 226.249 166.559 226.827C166.257 228.687 166.726 230.984 167.725 232.548C168.273 233.405 168.567 233.646 170.37 234.724L171.964 235.678L172.719 235.785C174.765 236.076 176.488 235.728 178.165 234.687C179.326 233.967 179.841 233.452 180.574 232.28C181.686 230.503 181.968 228.883 181.565 226.584C181.482 226.112 181.459 225.637 181.509 225.464C181.624 225.07 182.46 223.726 182.764 223.445C182.894 223.325 183.223 223.151 183.495 223.059C184.745 222.636 185.177 222.458 185.747 222.131C187.787 220.96 189.213 218.981 189.77 216.546C190.131 214.971 190.043 213.272 189.511 211.538C188.405 207.932 186.042 204.807 180.257 199.294C175.537 194.797 173.852 192.52 172.6 188.949C172.173 187.728 171.729 185.768 171.709 185.007C171.683 184.078 172.004 182.891 172.726 181.245C173.226 180.102 174.682 177.714 175.521 176.658C176.08 175.955 176.438 175.563 178.342 173.568C179.029 172.848 179.284 172.53 179.468 172.163C180.142 170.818 179.766 169.291 178.439 167.987C177.873 167.43 176.312 166.437 175.465 166.094C172.708 164.979 169.722 164.647 166.929 165.146C166.386 165.243 165.832 165.305 165.699 165.283C165.341 165.224 164.96 164.709 164.078 163.094C162.965 161.055 162.593 160.21 161.701 157.686L160.887 155.386L158.607 153.973L156.328 152.559L155.669 152.741ZM157.782 158.324C157.903 158.598 158.191 159.342 158.421 159.977C159.684 163.457 161.825 167.206 163.747 169.302C164.65 170.287 165.904 171.432 166.76 172.053C167.39 172.51 167.502 172.623 167.566 172.859C167.647 173.161 167.551 174.716 167.44 174.895C167.289 175.139 166.087 174.857 164.969 174.313C164.222 173.95 163.7 173.862 163.11 174.001C162.48 174.148 162.028 174.476 161.68 175.037C161.324 175.612 161.245 176.134 161.411 176.832C161.575 177.523 161.832 177.892 162.4 178.246C163.012 178.627 163.383 178.726 163.984 178.668C165.066 178.563 166.697 178.741 167.134 179.012C167.385 179.167 167.419 179.389 167.485 181.321L167.532 182.701L167.023 182.769C165.482 182.976 164.587 182.985 163.699 182.806C162.803 182.625 161.763 183.093 161.26 183.905C160.84 184.582 160.833 185.518 161.242 186.296C161.428 186.649 161.528 186.744 162.06 187.074C162.606 187.412 162.72 187.452 163.195 187.473C163.545 187.488 163.941 187.416 164.364 187.259C165.251 186.932 166.137 186.733 167.089 186.647L167.899 186.574L168.141 187.419C168.274 187.884 168.492 188.747 168.626 189.336L168.869 190.407L167.712 190.937C166.977 191.273 166.294 191.515 165.837 191.601C164.948 191.768 164.451 191.997 164.006 192.443C162.67 193.785 163.519 196.231 165.376 196.386C166.181 196.453 167 196.188 167.413 195.726C167.706 195.399 168.865 194.657 169.712 194.254C170.317 193.967 170.389 193.953 170.545 194.099C170.777 194.316 172.087 196.297 172.321 196.784L172.51 197.177L172.243 197.521C171.848 198.029 170.991 198.73 170.409 199.02C170.128 199.16 169.761 199.424 169.593 199.607C169.015 200.237 168.837 201.34 169.184 202.14C169.393 202.62 169.64 202.884 170.211 203.239C170.846 203.632 171.478 203.692 172.16 203.423C172.975 203.101 172.995 203.082 173.782 201.855C174.473 200.778 175.023 200.133 175.308 200.066C175.492 200.023 180.417 204.763 181.725 206.242C183.883 208.682 185.415 211.128 185.908 212.919C186.414 214.757 185.994 216.747 184.848 217.944C183.79 219.05 182.556 219.47 180.807 219.322L179.759 219.233L157.761 205.591L135.763 191.949L135.249 191.131C134.339 189.683 134.132 188.115 134.675 186.788C134.826 186.418 135.267 185.676 136.048 184.479C137.618 182.071 138.903 180.457 141.474 177.665C146.546 172.155 151.356 165.794 155.497 159.118L156.686 157.202L157.124 157.514C157.491 157.775 157.599 157.907 157.782 158.324ZM175.632 170.711C175.617 170.788 175.128 171.362 174.546 171.988C173.963 172.613 173.063 173.617 172.545 174.22C172.027 174.822 171.547 175.358 171.48 175.411C171.391 175.48 171.385 175.098 171.458 174.07C171.633 171.588 171.559 170.82 171.095 170.311C170.975 170.179 170.481 169.781 169.998 169.426C169.515 169.072 169.114 168.757 169.107 168.728C169.086 168.638 171.525 168.933 172.354 169.12C173.475 169.374 174.085 169.612 174.921 170.122C175.531 170.494 175.654 170.595 175.632 170.711ZM178.142 223.566C177.748 224.202 177.511 224.368 176.664 224.601L175.98 224.789L154.249 211.313L132.518 197.837L132.359 197.121C132.156 196.211 132.17 196.083 132.546 195.373L132.856 194.788L155.654 208.926L178.453 223.064L178.142 223.566ZM128.658 198.495C129.005 199.81 129.821 200.679 132.406 202.486L133.301 203.112L133.062 203.458C132.751 203.906 132.379 204.176 131.657 204.478C130.952 204.773 130.435 204.842 129.639 204.748C127.7 204.519 126.24 202.597 126.444 200.541C126.507 199.916 126.528 199.861 127.019 199.07C127.45 198.375 127.585 198.211 127.895 198.007C128.123 197.856 128.307 197.793 128.383 197.841C128.45 197.882 128.574 198.176 128.658 198.495ZM177.832 228.909C177.577 230.356 176.253 231.732 174.9 231.956C173.797 232.138 172.588 231.858 171.778 231.234C171.162 230.76 170.66 229.909 170.441 228.967C170.228 228.052 170.275 227.448 170.607 226.827L170.85 226.372L171.976 227.002C173.389 227.793 174.431 228.251 175.264 228.447C176.004 228.621 176.441 228.632 177.159 228.496C177.436 228.443 177.715 228.433 177.779 228.473C177.85 228.517 177.871 228.691 177.832 228.909ZM147.835 212.496C147.706 212.647 147.273 212.974 146.873 213.223C145.984 213.777 145.319 213.933 144.31 213.822C143.627 213.746 143.563 213.723 142.847 213.279C142.13 212.834 142.081 212.788 141.707 212.205C141.084 211.232 140.918 210.128 141.203 208.831C141.291 208.428 141.407 208.328 141.713 208.392C141.85 208.42 143.211 209.221 145.008 210.331L148.07 212.222L147.835 212.496ZM162.419 221.211C162.544 221.348 162.54 221.411 162.393 221.633C161.915 222.351 160.148 223.042 159.07 222.931C156.681 222.686 155.119 220.23 155.851 217.867C155.932 217.606 156.023 217.351 156.055 217.301C156.1 217.227 156.721 217.588 159.192 219.129C160.886 220.185 162.339 221.122 162.419 221.211Z" fill="#BF74DD"/>
<circle cx="76.9299" cy="224.304" r="6.36736" stroke="#BF74DD" stroke-width="4"/>
<circle cx="9.26189" cy="164.611" r="6.36736" stroke="#BF74DD" stroke-width="4"/>
<circle cx="124.106" cy="131.367" r="6.36736" stroke="#BF74DD" stroke-width="4"/>
<circle cx="205.203" cy="85.196" r="6.36736" stroke="#BF74DD" stroke-width="4"/>
<defs>
<linearGradient id="paint0_linear" x1="511.033" y1="88.9485" x2="183.795" y2="141.53" gradientUnits="userSpaceOnUse">
<stop stop-color="#5D54A6"/>
<stop offset="0.479167" stop-color="#CF3662"/>
<stop offset="1" stop-color="#FDB545"/>
</linearGradient>
<clipPath id="clip0">
<rect width="118.289" height="118.289" fill="white" transform="translate(267.332 131.22) rotate(-15.261)"/>
</clipPath>
</defs>
</svg>
