<svg viewBox="0 0 361 467" fill="none" xmlns="http://www.w3.org/2000/svg">
<path fill-rule="evenodd" clip-rule="evenodd" d="M124.734 405.482C124.734 405.482 120.735 407.323 119.235 407.323C118.262 407.323 116.42 405.955 116.42 405.955L110.974 403.061C110.974 403.061 100.609 392.932 97.0835 389.644C94.3211 387.066 92.1901 385.803 89.796 385.803C85.2183 385.803 81.5352 389.512 81.5352 394.09C81.5352 396.089 82.7979 398.457 82.7979 398.457C88.77 410.059 108.081 443.997 108.081 443.997C109.238 445.602 111.106 446.628 113.237 446.628C114.579 446.628 116.894 446.207 117.92 445.497L135.784 434.632L124.734 405.482Z" fill="#C2BC8B"/>
<path fill-rule="evenodd" clip-rule="evenodd" d="M199.474 206.01C200.658 203.194 200.921 200.037 198.054 195.644L198.895 195.065C191.634 199.774 180.479 201.379 171.771 197.959C147.857 188.514 153.355 155.313 144.489 152.077L147.541 154.576C164.615 153.155 179.217 130.846 185.741 136.555C187.53 138.107 189.951 139.58 190.345 151.761C190.424 154.155 193.502 155.208 195.291 152.314C196.764 149.92 199.448 148.499 202.342 148.499C207.209 148.499 211.155 152.813 211.155 158.101C211.155 158.996 211.05 159.838 210.84 160.653C210.84 160.653 209.735 166.31 209.866 168.204C209.998 170.098 211.445 171.598 212.76 171.703L212.629 172.282C212.629 180.701 219.101 189.935 223.099 186.436C223.099 186.436 233.754 197.67 218.785 208.062C206.788 216.349 199.474 206.01 199.474 206.01Z" fill="#FED889"/>
<path fill-rule="evenodd" clip-rule="evenodd" d="M237.043 330.397C238.517 329.766 240.148 329.424 241.858 329.424C248.698 329.424 254.223 334.922 254.223 341.71C254.223 346.893 250.987 351.313 246.436 353.128L207.236 369.466C205.815 370.018 204.289 370.334 202.658 370.334C195.818 370.334 190.293 364.835 190.293 358.048C190.293 353.522 192.766 349.55 196.449 347.445L237.043 330.397Z" fill="#40A4CE"/>
<path fill-rule="evenodd" clip-rule="evenodd" d="M153.17 395.459L239.936 355.549C241.409 354.917 243.04 354.575 244.75 354.575C251.59 354.575 257.115 360.074 257.115 366.861C257.115 372.044 253.879 376.464 249.328 378.279L163.009 417.926L153.17 395.459Z" fill="#93C8E3"/>
<path fill-rule="evenodd" clip-rule="evenodd" d="M234.677 284.804C227.521 288.803 213.972 310.192 213.972 310.192L185.375 322.794C181.744 325.583 178.745 329.398 178.745 334.317C178.745 341.684 184.717 347.656 192.084 347.656C193.82 347.656 195.477 347.314 197.003 346.709L276.561 313.534C286.058 308.588 292.556 296.538 292.556 285.068C292.556 282.358 292.188 279.727 291.504 277.254C291.557 277.28 247.2 277.806 234.677 284.804Z" fill="#93C8E3"/>
<path fill-rule="evenodd" clip-rule="evenodd" d="M89.9531 457.914C92.0578 461.808 96.9249 463.255 100.819 461.15C104.712 459.046 106.159 454.178 104.055 450.285C101.95 446.391 97.0827 444.944 93.1891 447.049C89.2691 449.154 87.8484 454.021 89.9531 457.914Z" fill="#FEFEFE"/>
<path fill-rule="evenodd" clip-rule="evenodd" d="M87.3725 435.001C87.504 435.001 87.6355 435.027 87.7671 435.053C88.1091 435.158 88.3985 435.395 88.5826 435.711C88.7405 436.027 88.7931 436.395 88.6879 436.737C88.5827 437.079 88.3459 437.368 88.0302 437.553C87.7145 437.737 87.3461 437.763 87.0041 437.658C86.6621 437.553 86.3727 437.316 86.1885 437C85.8202 436.342 86.0833 435.527 86.741 435.158C86.9252 435.053 87.162 435.001 87.3725 435.001ZM87.3987 439.815C87.9775 439.815 88.53 439.684 89.0298 439.394C89.8454 438.947 90.4242 438.237 90.6873 437.342C90.9504 436.448 90.8451 435.527 90.4242 434.711C89.9769 433.896 89.2403 433.317 88.3721 433.054C87.4776 432.791 86.5568 432.896 85.7413 433.343C84.9257 433.79 84.347 434.501 84.0839 435.395C83.8208 436.29 83.926 437.211 84.3469 438.026C84.7942 438.842 85.5308 439.447 86.399 439.684C86.7147 439.762 87.0567 439.815 87.3987 439.815Z" fill="#391D1D"/>
<path fill-rule="evenodd" clip-rule="evenodd" d="M77.7715 417.295C78.2451 417.295 78.7187 417.558 78.9555 418.005C79.3238 418.663 79.0607 419.478 78.403 419.847C77.7453 420.189 76.9297 419.952 76.5614 419.294C76.4035 418.978 76.3509 418.61 76.4561 418.268C76.5614 417.926 76.7981 417.637 77.1138 417.452C77.3506 417.347 77.5611 417.295 77.7715 417.295ZM77.7979 422.109C78.3504 422.109 78.9028 421.978 79.429 421.688C81.1128 420.794 81.7179 418.689 80.8234 417.005C79.9026 415.321 77.7979 414.716 76.1404 415.611C75.3249 416.058 74.7461 416.768 74.483 417.663C74.2199 418.557 74.3252 419.478 74.7724 420.294C75.3775 421.451 76.5614 422.109 77.7979 422.109Z" fill="#391D1D"/>
<path fill-rule="evenodd" clip-rule="evenodd" d="M68.2494 399.325C68.3809 399.325 68.5124 399.351 68.644 399.378C68.986 399.483 69.2754 399.72 69.4595 400.035C69.8279 400.693 69.5648 401.509 68.9071 401.877C68.5914 402.035 68.2231 402.088 67.8811 401.982C67.5391 401.877 67.2497 401.64 67.0655 401.325C66.9077 401.009 66.855 400.641 66.9603 400.299C67.0655 399.956 67.3023 399.667 67.618 399.483C67.8021 399.378 68.0389 399.325 68.2494 399.325ZM68.2494 404.14C68.8281 404.14 69.3806 404.008 69.8805 403.719C71.5642 402.798 72.1693 400.719 71.2748 399.036C70.8276 398.22 70.1173 397.641 69.2228 397.378C68.3283 397.115 67.4075 397.22 66.5919 397.641C65.7763 398.089 65.1975 398.799 64.9344 399.693C64.6714 400.588 64.7766 401.509 65.1975 402.324C65.6448 403.14 66.3551 403.719 67.2496 403.982C67.5916 404.087 67.9337 404.14 68.2494 404.14Z" fill="#391D1D"/>
<path fill-rule="evenodd" clip-rule="evenodd" d="M80.3247 440.183C82.4294 444.077 87.2965 445.524 91.1902 443.419C95.0839 441.314 96.5309 436.447 94.4262 432.553C92.3215 428.66 87.4544 427.213 83.5607 429.317C79.6671 431.422 78.2201 436.289 80.3247 440.183Z" fill="#FEFEFE"/>
<path fill-rule="evenodd" clip-rule="evenodd" d="M61.1958 404.483C63.3005 408.376 68.1676 409.823 72.0613 407.719C75.955 405.614 77.4019 400.747 75.2972 396.853C73.1925 392.959 68.3255 391.513 64.4318 393.617C60.5382 395.722 59.0911 400.589 61.1958 404.483Z" fill="#FEFEFE"/>
<path fill-rule="evenodd" clip-rule="evenodd" d="M70.7203 422.451C72.8249 426.345 77.6921 427.792 81.5857 425.687C85.4794 423.582 86.9264 418.715 84.8217 414.821C82.717 410.928 77.8499 409.481 73.9562 411.585C70.0626 413.69 68.6156 418.557 70.7203 422.451Z" fill="#FEFEFE"/>
<path fill-rule="evenodd" clip-rule="evenodd" d="M221.994 390.723L251.591 398.905L258.142 379.226L251.802 377.305L221.994 390.723Z" fill="#4B9ECA"/>
<path fill-rule="evenodd" clip-rule="evenodd" d="M230.969 190.146C231.048 190.146 231.153 190.146 231.232 190.12C231.785 189.988 232.127 189.41 231.995 188.831C231.206 185.779 229.785 182.99 227.47 180.017C227.102 179.57 226.444 179.491 225.997 179.833C225.55 180.201 225.471 180.859 225.813 181.306C227.944 184.016 229.259 186.568 229.969 189.331C230.075 189.83 230.496 190.146 230.969 190.146Z" fill="#391D1D"/>
<path fill-rule="evenodd" clip-rule="evenodd" d="M209.894 217.718C220.602 217.718 229.994 210.114 232.204 199.617C232.336 199.038 231.967 198.486 231.389 198.381C230.81 198.249 230.257 198.618 230.152 199.196C228.153 208.72 219.629 215.613 209.894 215.613C204.659 215.613 198.792 212.535 194.241 207.405C193.846 206.984 193.188 206.931 192.768 207.326C192.32 207.72 192.294 208.378 192.689 208.825C197.608 214.403 204.054 217.718 209.894 217.718Z" fill="#391D1D"/>
<path fill-rule="evenodd" clip-rule="evenodd" d="M154.015 424.32L161.987 421.031C161.987 421.031 164.434 416.112 159.593 405.983C155.042 396.459 150.043 393.881 150.043 393.881L142.124 398.195L154.015 424.32Z" fill="#93C8E3"/>
<path fill-rule="evenodd" clip-rule="evenodd" d="M269.009 379.805L261.037 376.49C261.037 376.49 255.854 378.227 252.092 388.829C248.567 398.774 250.277 404.141 250.277 404.141L258.906 406.693L269.009 379.805Z" fill="#4B9ECA"/>
<path fill-rule="evenodd" clip-rule="evenodd" d="M194.897 152.604C196.37 150.21 199.053 148.789 201.947 148.789C206.815 148.789 210.761 153.104 210.761 158.392C210.761 159.286 210.656 160.128 210.445 160.944C210.445 160.944 209.34 166.6 209.472 168.494C209.708 171.888 214.234 174.098 214.47 168.941C214.891 160.233 214.997 142.212 214.865 138.581C214.628 132.372 213.655 106.643 188.635 106.643C181.4 106.643 171.719 107.116 165.589 110.983C153.04 118.902 148.62 124.19 143.99 131.609C133.992 147.605 143.069 154.13 145.016 154.366C162.537 156.392 178.033 130.426 185.347 136.819C187.136 138.371 189.556 139.844 189.951 152.025C190.03 154.445 193.108 155.498 194.897 152.604Z" fill="#BC4520"/>
<path fill-rule="evenodd" clip-rule="evenodd" d="M260.643 195.644C260.643 195.644 299.132 222.19 299.132 273.229C299.132 281.279 292.608 281.279 292.608 281.279L291.608 276.833C289.609 276.701 287.609 276.649 285.584 276.649C256.776 276.649 230.993 289.54 213.682 309.876L215.997 307.088C215.997 307.088 208.552 305.22 212.577 298.774C221.154 285.015 217.786 261.074 207.289 242.684L206.263 243.289C194.371 252.261 179.77 257.943 163.775 258.838L164.064 258.969C162.617 259.18 160.433 251.919 158.671 242.789L156.277 226.583C155.566 219.059 155.908 214.429 157.303 214.218L158.066 214.402C158.066 214.402 180.559 216.402 197.397 205.142L198.055 205.352C200.949 208.615 205.184 210.693 209.894 210.693C218.628 210.693 226.047 203.616 225.679 194.908C225.442 188.962 222.101 184.989 222.101 184.989C229.993 179.386 238.307 159.707 237.939 141.712C238.649 139.554 244.858 139.554 253.25 141.343L269.325 146.184C280.032 150.315 287.451 155.155 286.583 157.76C283.242 167.626 273.35 184.989 259.643 196.223L260.643 195.644Z" fill="#2DB6E0"/>
<path fill-rule="evenodd" clip-rule="evenodd" d="M110.895 412.19C110.58 418.399 117.446 417.925 116.394 406.008C116.105 402.877 111.685 401.43 111.658 402.851C111.553 406.981 110.948 410.822 110.895 412.19Z" fill="#FEFEFE"/>
<path fill-rule="evenodd" clip-rule="evenodd" d="M124.759 404.929C124.759 404.929 129.968 412.085 124.838 422.188C124.338 423.187 123.891 424.266 123.891 425.476C123.891 428.844 126.627 431.58 129.994 431.58C129.994 431.58 135.756 432.08 137.282 436.657L155.698 428.291L140.939 395.748L124.759 404.929Z" fill="#FEFEFE"/>
<path fill-rule="evenodd" clip-rule="evenodd" d="M158.802 242.604C160.564 251.734 162.748 259.021 164.195 258.784C166.063 258.495 166.036 246.156 164.168 233.791C162.301 221.426 159.275 213.718 157.433 214.007C156.039 214.217 155.697 218.848 156.407 226.372L158.802 242.604Z" fill="#216CA4"/>
<path fill-rule="evenodd" clip-rule="evenodd" d="M162.749 226.557C153.331 228.504 143.517 229.398 133.494 229.161C92.1893 228.162 55.936 207.799 33.6 177.176L31.9162 176.623C34.1788 175.808 36.073 173.966 36.8623 171.493C37.3621 169.914 37.3621 168.283 36.9148 166.784C36.757 166.284 33.7315 157.655 40.6244 150.183L40.9138 149.499C41.4663 147.657 40.4139 145.711 38.5723 145.184C37.5989 144.895 36.5729 145.053 35.7836 145.553C35.0733 146 27.9174 152.13 31.5479 159.075L30.364 155.392C30.364 155.392 24.1288 141.79 24.0762 141.738C23.2343 140.396 21.5243 139.844 20.051 140.501C18.5514 141.185 17.8148 142.843 18.2884 144.369C18.3147 144.448 21.5243 151.314 21.577 151.393L23.5238 156.471C23.4975 156.444 23.4975 156.392 23.4712 156.365C23.4449 156.287 21.4717 151.814 21.4454 151.735C20.6298 150.341 18.8935 149.762 17.3939 150.42C15.9206 151.077 15.1577 152.709 15.5786 154.234C15.6049 154.287 17.5254 158.733 17.5517 158.786C17.578 158.865 17.6044 158.944 17.657 159.023L17.5254 158.865C17.4991 158.812 17.4991 158.786 17.4728 158.733C17.4465 158.654 15.4996 154.182 15.447 154.103C14.6314 152.709 12.9214 152.13 11.3955 152.787C9.89594 153.445 9.15929 155.076 9.58023 156.602C9.60654 156.655 11.5271 161.101 11.5534 161.18C11.5797 161.259 11.6059 161.338 11.6586 161.417L9.79066 157.049C9.76435 156.971 6.87039 149.946 6.81777 149.894C6.00221 148.525 4.2922 147.92 2.7663 148.578C1.29302 149.236 0.530063 150.867 0.951001 152.393C0.977309 152.445 11.3692 175.518 11.3692 175.518C12.6846 177.939 14.9208 179.833 17.7622 180.675C21.1034 181.648 24.5235 180.938 27.128 179.044L18.9987 180.78C42.9658 218.191 84.4545 243.394 132.205 244.578C143.333 244.841 154.199 243.789 164.643 241.579L162.749 226.557Z" fill="#FED889"/>
<path fill-rule="evenodd" clip-rule="evenodd" d="M253.461 141.159C245.068 139.37 238.86 139.396 238.149 141.527C237.439 143.658 242.253 147.262 249.857 150.761C253.04 152.235 256.723 153.682 260.696 154.997C274.139 159.417 285.821 160.575 286.82 157.575C287.662 154.971 280.269 150.13 269.562 146L253.461 141.159Z" fill="#216CA4"/>
<path fill-rule="evenodd" clip-rule="evenodd" d="M250.226 150.603C270.01 102.616 249.305 62.6794 226.89 39.8435L227.863 38.2912C226.416 40.2644 224.128 41.5535 221.497 41.6325C219.813 41.6588 218.261 41.1852 216.945 40.3433C216.498 40.0539 209.026 34.687 199.871 39.2121L199.134 39.291C197.187 39.291 195.635 37.7125 195.635 35.7919C195.635 34.7659 196.083 33.8451 196.793 33.1874C197.424 32.6349 205.396 27.4784 211.052 32.9506L207.842 30.767C207.842 30.767 196.503 20.8749 196.451 20.8223C195.399 19.6384 195.346 17.8231 196.398 16.5866C197.477 15.3238 199.292 15.0871 200.634 15.9815C200.713 16.0342 206.422 21.0854 206.474 21.1381L210.815 24.4529C210.789 24.4266 210.736 24.4003 210.71 24.374C210.657 24.3214 206.895 21.1643 206.816 21.1117C205.711 19.9278 205.633 18.0863 206.685 16.8234C207.737 15.5869 209.526 15.3238 210.868 16.1657C210.921 16.192 214.683 19.3227 214.709 19.349C214.788 19.4017 214.841 19.4543 214.919 19.5069L214.814 19.349C214.788 19.3227 214.762 19.2964 214.709 19.2701C214.656 19.2175 210.894 16.0605 210.815 16.0078C209.71 14.8239 209.631 13.0087 210.684 11.7196C211.736 10.4567 213.525 10.22 214.867 11.0618C214.92 11.0882 218.655 14.2189 218.708 14.2452C218.787 14.2978 218.84 14.3504 218.918 14.403L215.235 11.3512C215.183 11.2986 209.211 6.51045 209.158 6.45783C208.053 5.27394 207.974 3.43233 209.026 2.16951C210.079 0.9067 211.868 0.643613 213.209 1.5118C213.262 1.53811 232.573 18.1389 232.573 18.1389C234.519 20.0857 235.73 22.7955 235.73 25.7684C235.73 26.8207 235.572 27.8467 235.309 28.7938L235.73 28.9254C270.799 58.7331 284.427 112.666 265.353 156.706L250.226 150.603Z" fill="#FED889"/>
<path fill-rule="evenodd" clip-rule="evenodd" d="M129.23 402.589L134.492 415.848C135.097 417.374 136.834 418.137 138.333 417.532C139.833 416.927 140.57 415.191 139.964 413.665L134.413 399.642L129.23 402.589Z" fill="#C2BC8B"/>
<path fill-rule="evenodd" clip-rule="evenodd" d="M339.175 401.299C340.437 397.064 338.017 392.591 333.781 391.328C329.546 390.066 325.073 392.486 323.81 396.722C322.548 400.957 324.968 405.43 329.204 406.693C333.439 407.956 337.886 405.561 339.175 401.299Z" fill="#FEFEFE"/>
<path fill-rule="evenodd" clip-rule="evenodd" d="M333.412 420.635C334.675 416.4 332.254 411.927 328.019 410.664C323.783 409.402 319.311 411.822 318.048 416.058C316.785 420.293 319.205 424.766 323.441 426.029C327.677 427.292 332.149 424.871 333.412 420.635Z" fill="#FEFEFE"/>
<path fill-rule="evenodd" clip-rule="evenodd" d="M321.68 459.415C322.942 455.179 320.522 450.707 316.286 449.444C312.051 448.181 307.578 450.601 306.315 454.837C305.052 459.073 307.473 463.545 311.709 464.808C315.971 466.071 320.417 463.65 321.68 459.415Z" fill="#FEFEFE"/>
<path fill-rule="evenodd" clip-rule="evenodd" d="M327.677 439.946C328.939 435.71 326.519 431.238 322.283 429.975C318.048 428.712 313.575 431.132 312.312 435.368C311.05 439.604 313.47 444.076 317.706 445.339C321.941 446.628 326.387 444.208 327.677 439.946Z" fill="#FEFEFE"/>
<path fill-rule="evenodd" clip-rule="evenodd" d="M277.479 413.768C277.479 413.768 281.584 415.294 282.662 416.373C283.346 417.057 283.688 419.346 283.688 419.346L285.477 425.239C285.477 425.239 285.635 439.735 285.793 444.549C285.925 448.312 286.53 450.732 288.213 452.416C291.449 455.652 296.685 455.652 299.921 452.416C301.341 450.995 302.131 448.443 302.131 448.443C306.13 436.025 316.469 398.378 316.469 398.378C316.785 396.431 316.18 394.379 314.68 392.879C313.733 391.932 311.786 390.59 310.549 390.38L290.239 385.408L277.479 413.768Z" fill="#928C6A"/>
<path fill-rule="evenodd" clip-rule="evenodd" d="M277.059 414.138C277.059 414.138 278.427 405.403 289.213 401.904C290.292 401.562 291.371 401.115 292.213 400.273C294.58 397.879 294.58 394.038 292.213 391.644C292.213 391.644 288.477 387.224 290.634 382.91L271.692 375.806L259.143 409.218L277.059 414.138Z" fill="#AEAB92"/>
<path fill-rule="evenodd" clip-rule="evenodd" d="M272.218 412.586L277.874 399.511C278.532 398.011 277.848 396.248 276.348 395.617C274.849 394.959 273.112 395.67 272.454 397.169L266.482 411.034L272.218 412.586Z" fill="#928C6A"/>
<path fill-rule="evenodd" clip-rule="evenodd" d="M292.002 418.82C296.606 414.637 291.45 410.138 283.741 419.32C281.715 421.74 283.82 425.871 284.846 424.897C287.845 422.03 291.002 419.741 292.002 418.82Z" fill="#FEFEFE"/>
<path fill-rule="evenodd" clip-rule="evenodd" d="M15.4723 463.834H36.8875C37.4663 463.834 37.9398 463.36 37.9398 462.781C37.9398 462.203 37.4663 461.729 36.8875 461.729H15.4723C14.8935 461.729 14.4199 462.203 14.4199 462.781C14.4199 463.36 14.8935 463.834 15.4723 463.834Z" fill="#431F20"/>
<path fill-rule="evenodd" clip-rule="evenodd" d="M8.70839 462.545H26.7561L30.3341 433.342H6.70898L8.70839 462.545Z" fill="#93C8E3"/>
<path fill-rule="evenodd" clip-rule="evenodd" d="M25.8114 461.493H9.71052L7.29017 422.635H29.6788L25.8114 461.493ZM8.71078 463.598H26.7585C27.311 463.598 27.7583 463.177 27.8109 462.65L31.8887 421.688C31.915 421.398 31.8098 421.109 31.6257 420.872C31.4152 420.662 31.152 420.53 30.8363 420.53H6.15884C5.86945 420.53 5.58011 420.662 5.39595 420.872C5.18548 421.083 5.0802 421.372 5.10651 421.662L7.65845 462.624C7.71107 463.177 8.1583 463.598 8.71078 463.598Z" fill="#431F20"/>
<path fill-rule="evenodd" clip-rule="evenodd" d="M22.3398 460.545C22.8923 460.545 23.3395 460.124 23.3922 459.572L23.7868 454.599C23.8394 454.02 23.3921 453.521 22.8134 453.468C22.2346 453.442 21.7347 453.863 21.6821 454.441L21.2874 459.414C21.2348 459.992 21.6821 460.492 22.2609 460.545C22.2872 460.545 22.3135 460.545 22.3398 460.545Z" fill="#FEFEFE"/>
<path fill-rule="evenodd" clip-rule="evenodd" d="M22.9961 452.469C23.5486 452.469 23.9958 452.048 24.0484 451.496L25.206 437.263C25.2586 436.684 24.8113 436.184 24.2589 436.132C23.6801 436.079 23.1802 436.526 23.1276 437.105L21.97 451.338C21.9174 451.917 22.3646 452.417 22.9434 452.469C22.9434 452.469 22.9698 452.469 22.9961 452.469Z" fill="#FEFEFE"/>
<path fill-rule="evenodd" clip-rule="evenodd" d="M202.581 462.545H220.629L224.207 433.342H200.582L202.581 462.545Z" fill="#93C8E3"/>
<path fill-rule="evenodd" clip-rule="evenodd" d="M219.679 461.493H203.578L201.157 422.635H223.546L219.679 461.493ZM202.578 463.598H220.626C221.178 463.598 221.625 463.177 221.678 462.65L225.756 421.688C225.782 421.398 225.677 421.109 225.493 420.872C225.282 420.662 225.019 420.53 224.703 420.53H200.026C199.737 420.53 199.447 420.662 199.263 420.872C199.079 421.083 198.974 421.372 198.974 421.662L201.526 462.624C201.578 463.177 202.025 463.598 202.578 463.598Z" fill="#431F20"/>
<path fill-rule="evenodd" clip-rule="evenodd" d="M216.207 460.545C216.759 460.545 217.207 460.124 217.259 459.572L217.654 454.599C217.707 454.02 217.259 453.521 216.681 453.468C216.102 453.442 215.602 453.863 215.549 454.441L215.155 459.414C215.102 459.992 215.549 460.492 216.128 460.545C216.154 460.545 216.181 460.545 216.207 460.545Z" fill="#FEFEFE"/>
<path fill-rule="evenodd" clip-rule="evenodd" d="M216.864 452.469C217.417 452.469 217.864 452.048 217.917 451.496L219.074 437.263C219.127 436.684 218.679 436.184 218.101 436.132C217.548 436.079 217.022 436.526 216.969 437.105L215.812 451.338C215.759 451.917 216.206 452.417 216.785 452.469C216.812 452.469 216.838 452.469 216.864 452.469Z" fill="#FEFEFE"/>
<path fill-rule="evenodd" clip-rule="evenodd" d="M265.774 157.813C266.169 157.813 266.563 157.576 266.747 157.181C275.982 135.871 277.928 111.036 272.298 87.2794C266.721 63.8647 254.146 42.8704 236.834 28.1639C236.387 27.7956 235.729 27.8482 235.361 28.2954C234.993 28.7427 235.045 29.4004 235.493 29.7687C271.115 60.0762 283.453 113.299 264.827 156.34C264.59 156.866 264.853 157.497 265.379 157.734C265.484 157.786 265.616 157.813 265.774 157.813Z" fill="#431F20"/>
<path fill-rule="evenodd" clip-rule="evenodd" d="M250.54 150.683C250.961 150.683 251.356 150.446 251.513 150.025C260.564 128.057 261.984 106.195 255.723 85.0163C249.54 64.1799 237.228 48.5789 227.967 39.1604C227.572 38.7394 226.888 38.7394 226.494 39.1341C226.073 39.5287 226.073 40.2127 226.468 40.6074C240.832 55.235 271.876 95.1188 249.567 149.183C249.356 149.709 249.593 150.341 250.145 150.551C250.277 150.656 250.408 150.683 250.54 150.683Z" fill="#431F20"/>
<path fill-rule="evenodd" clip-rule="evenodd" d="M162.64 215.69C170.112 215.69 185.634 214.559 198.262 206.114C198.735 205.798 198.867 205.141 198.551 204.667C198.236 204.193 197.578 204.062 197.104 204.378C180.793 215.269 158.667 213.48 158.431 213.454C157.852 213.401 157.352 213.822 157.299 214.401C157.247 214.98 157.668 215.48 158.246 215.532C158.483 215.559 160.088 215.69 162.64 215.69Z" fill="#431F20"/>
<path fill-rule="evenodd" clip-rule="evenodd" d="M242.175 330.555C248.41 330.555 253.488 335.606 253.488 341.789C253.488 346.419 250.699 350.497 246.358 352.233L207.132 368.571C205.816 369.097 204.422 369.36 202.975 369.36C196.74 369.36 191.662 364.309 191.662 358.126C191.662 354.18 193.793 350.47 197.24 348.445L237.781 331.449C239.149 330.844 240.623 330.555 242.175 330.555ZM202.949 371.438C204.659 371.438 206.342 371.123 207.895 370.491L247.121 354.154C252.251 352.128 255.566 347.261 255.566 341.762C255.566 334.422 249.541 328.424 242.149 328.424C240.333 328.424 238.571 328.766 236.939 329.476L196.319 346.498C196.266 346.524 196.24 346.524 196.214 346.55C192.083 348.945 189.531 353.338 189.531 358.074C189.531 365.44 195.556 371.438 202.949 371.438Z" fill="#431F20"/>
<path fill-rule="evenodd" clip-rule="evenodd" d="M163.301 419.056C163.459 419.056 163.591 419.03 163.749 418.951L250.067 379.304C255.145 377.305 258.486 372.438 258.486 366.939C258.486 359.599 252.461 353.601 245.069 353.601C243.253 353.601 241.491 353.943 239.859 354.653L153.067 394.563C152.541 394.8 152.304 395.431 152.541 395.957C152.778 396.484 153.409 396.72 153.935 396.484L240.701 356.573C242.069 355.995 243.543 355.705 245.069 355.705C251.304 355.705 256.381 360.73 256.381 366.939C256.381 371.569 253.593 375.647 249.252 377.357L162.88 417.031C162.354 417.268 162.117 417.899 162.354 418.425C162.538 418.82 162.907 419.056 163.301 419.056Z" fill="#431F20"/>
<path fill-rule="evenodd" clip-rule="evenodd" d="M192.398 348.786C194.24 348.786 196.029 348.444 197.712 347.786L277.296 314.611C286.978 309.586 293.949 297.221 293.949 285.198C293.949 282.435 293.581 279.725 292.871 277.095C292.713 276.542 292.134 276.2 291.582 276.358C291.029 276.516 290.687 277.095 290.845 277.647C291.503 280.094 291.845 282.646 291.845 285.198C291.845 296.484 285.347 308.06 276.428 312.716L196.95 345.839C195.529 346.418 194.003 346.707 192.424 346.707C185.663 346.707 180.138 341.209 180.138 334.421C180.138 330.527 182.19 326.949 186.268 323.792L238.649 300.693C239.175 300.457 239.412 299.852 239.201 299.299C238.964 298.773 238.333 298.536 237.807 298.747L185.321 321.898C185.242 321.924 185.163 321.977 185.111 322.03C180.428 325.608 178.06 329.764 178.06 334.395C178.007 342.34 184.479 348.786 192.398 348.786Z" fill="#431F20"/>
<path fill-rule="evenodd" clip-rule="evenodd" d="M266.353 98.7224C266.589 98.7224 266.8 98.6961 267.037 98.6435C267.905 98.4594 268.641 97.9595 269.115 97.1965C269.588 96.4599 269.746 95.5654 269.562 94.6972C269.431 94.1184 268.878 93.7764 268.299 93.908C267.721 94.0395 267.379 94.592 267.484 95.1445C267.563 95.4602 267.484 95.7759 267.326 96.039C267.142 96.3021 266.879 96.4862 266.563 96.5652C265.932 96.6967 265.274 96.3021 265.142 95.6443C265.011 95.0655 264.458 94.7235 263.906 94.8288C263.327 94.9603 262.985 95.5128 263.09 96.0653C263.459 97.6701 264.853 98.7224 266.353 98.7224Z" fill="#431F20"/>
<path fill-rule="evenodd" clip-rule="evenodd" d="M81.2983 230.476C81.614 230.476 81.9297 230.45 82.2191 230.371C83.2714 230.134 84.1396 229.503 84.6921 228.582C85.2446 227.688 85.4287 226.609 85.192 225.557C84.9552 224.504 84.3238 223.636 83.403 223.084C82.9031 222.768 82.2717 222.926 81.956 223.426C81.6403 223.925 81.7981 224.557 82.298 224.872C82.7189 225.136 83.0347 225.557 83.1399 226.056C83.2451 226.556 83.1662 227.056 82.9031 227.477C82.64 227.898 82.2191 228.214 81.7192 228.319C81.2193 228.424 80.7195 228.345 80.2986 228.082C79.7987 227.766 79.1673 227.924 78.8516 228.424C78.5359 228.924 78.6937 229.555 79.1936 229.871C79.8513 230.292 80.5616 230.476 81.2983 230.476Z" fill="#431F20"/>
<path fill-rule="evenodd" clip-rule="evenodd" d="M135.833 245.762C145.699 245.762 155.512 244.736 165.062 242.684C165.641 242.552 165.983 242 165.878 241.447C165.746 240.868 165.194 240.526 164.641 240.632C154.144 242.868 143.305 243.894 132.439 243.604C86.7675 242.499 44.779 218.822 20.1015 180.306C19.7858 179.806 19.128 179.674 18.6544 179.99C18.1546 180.306 18.023 180.964 18.3388 181.437C43.3846 220.558 86.0309 244.578 132.413 245.709C133.518 245.735 134.676 245.762 135.833 245.762Z" fill="#431F20"/>
<path fill-rule="evenodd" clip-rule="evenodd" d="M136.991 230.345C145.857 230.345 154.67 229.451 163.273 227.688C163.852 227.583 164.22 227.004 164.089 226.451C163.957 225.873 163.405 225.531 162.852 225.636C153.381 227.583 143.621 228.477 133.834 228.214C94.0815 227.241 57.9599 208.456 34.7557 176.675C34.4136 176.202 33.7559 176.097 33.2823 176.439C32.8087 176.781 32.7035 177.438 33.0455 177.912C56.6444 210.219 93.3449 229.319 133.781 230.319C134.834 230.319 135.912 230.345 136.991 230.345Z" fill="#431F20"/>
<path fill-rule="evenodd" clip-rule="evenodd" d="M164.168 260.152C164.3 260.152 164.405 260.126 164.484 260.126C169.062 259.416 165.378 234.212 165.352 233.949C165.01 231.765 162.011 212.586 157.407 213.27C156.46 213.402 154.276 213.744 155.486 226.793C155.539 227.372 156.065 227.793 156.617 227.74C157.196 227.687 157.617 227.161 157.565 226.582C156.802 218.506 157.459 216.085 157.749 215.48C158.933 216.506 161.458 222.531 163.221 234.265C164.957 245.683 164.878 255.101 164.089 257.627C163.221 256.18 161.642 251.576 159.906 242.683C159.801 242.105 159.248 241.736 158.67 241.842C158.091 241.947 157.722 242.499 157.828 243.078C160.958 258.837 163.063 260.152 164.168 260.152Z" fill="#431F20"/>
<path fill-rule="evenodd" clip-rule="evenodd" d="M99.0045 463.361H146.912C147.491 463.361 147.965 462.887 147.965 462.308C147.965 461.729 147.491 461.256 146.912 461.256H99.0045C98.4257 461.256 97.9521 461.729 97.9521 462.308C97.9521 462.887 98.4257 463.361 99.0045 463.361Z" fill="#431F20"/>
<path fill-rule="evenodd" clip-rule="evenodd" d="M318.129 465.466H342.964C343.543 465.466 344.016 464.992 344.016 464.413C344.016 463.834 343.543 463.361 342.964 463.361H318.129C317.55 463.361 317.076 463.834 317.076 464.413C317.076 464.992 317.55 465.466 318.129 465.466Z" fill="#431F20"/>
<path fill-rule="evenodd" clip-rule="evenodd" d="M350.908 465.466H359.274C359.853 465.466 360.326 464.992 360.326 464.413C360.326 463.834 359.853 463.361 359.274 463.361H350.908C350.329 463.361 349.855 463.834 349.855 464.413C349.855 464.992 350.329 465.466 350.908 465.466Z" fill="#431F20"/>
<path fill-rule="evenodd" clip-rule="evenodd" d="M152.67 463.361H167.929C168.507 463.361 168.981 462.887 168.981 462.308C168.981 461.729 168.507 461.256 167.929 461.256H152.67C152.091 461.256 151.617 461.729 151.617 462.308C151.617 462.887 152.091 463.361 152.67 463.361Z" fill="#431F20"/>
<path fill-rule="evenodd" clip-rule="evenodd" d="M178.769 463.361H258.458C259.037 463.361 259.51 462.887 259.51 462.308C259.51 461.729 259.037 461.256 258.458 461.256H178.769C178.19 461.256 177.717 461.729 177.717 462.308C177.717 462.887 178.19 463.361 178.769 463.361Z" fill="#431F20"/>
<path fill-rule="evenodd" clip-rule="evenodd" d="M258.434 380.331C258.882 380.331 259.303 380.041 259.434 379.594C259.592 379.042 259.276 378.463 258.724 378.279L252.383 376.358C251.831 376.2 251.252 376.49 251.068 377.068C250.91 377.621 251.226 378.2 251.778 378.384L258.119 380.304C258.224 380.331 258.329 380.331 258.434 380.331Z" fill="#431F20"/>
<path fill-rule="evenodd" clip-rule="evenodd" d="M249.962 399.51C250.409 399.51 250.857 399.194 250.988 398.747C251.146 398.195 250.804 397.616 250.252 397.458L222.601 389.802C222.049 389.644 221.47 389.986 221.312 390.539C221.154 391.091 221.496 391.67 222.049 391.828L249.699 399.484C249.778 399.484 249.857 399.51 249.962 399.51Z" fill="#431F20"/>
<path fill-rule="evenodd" clip-rule="evenodd" d="M216.259 308.244C216.733 308.244 217.154 307.928 217.285 307.455C217.417 306.902 217.075 306.323 216.523 306.192C216.47 306.165 213.681 305.429 212.892 303.482C212.445 302.377 212.734 301.035 213.708 299.457C224.547 282.067 216.996 247.602 198.185 228.555C197.765 228.134 197.107 228.134 196.712 228.555C196.291 228.95 196.291 229.634 196.712 230.028C214.944 248.471 222.337 281.672 211.945 298.325C210.577 300.509 210.235 302.509 210.945 304.271C212.129 307.218 215.839 308.165 215.996 308.217C216.102 308.244 216.181 308.244 216.259 308.244Z" fill="#431F20"/>
<path fill-rule="evenodd" clip-rule="evenodd" d="M292.898 282.41C292.977 282.41 300.475 282.305 300.475 273.308C300.475 222.295 261.933 195.118 261.538 194.855C261.065 194.54 260.407 194.645 260.065 195.118C259.723 195.592 259.855 196.25 260.328 196.592C260.696 196.855 298.344 223.426 298.344 273.334C298.344 280.253 293.082 280.332 292.872 280.332C292.293 280.332 291.82 280.806 291.82 281.384C291.846 281.937 292.319 282.41 292.898 282.41Z" fill="#431F20"/>
<path fill-rule="evenodd" clip-rule="evenodd" d="M231.255 190.224C231.334 190.224 231.439 190.224 231.518 190.198C232.071 190.066 232.413 189.488 232.281 188.935C231.492 185.883 230.071 183.095 227.73 180.122C227.362 179.675 226.704 179.596 226.257 179.938C225.809 180.306 225.73 180.964 226.072 181.411C228.203 184.147 229.519 186.699 230.229 189.435C230.361 189.909 230.782 190.224 231.255 190.224Z" fill="#431F20"/>
<path fill-rule="evenodd" clip-rule="evenodd" d="M210.185 217.795C220.892 217.795 230.284 210.192 232.494 199.695C232.626 199.116 232.257 198.564 231.679 198.458C231.1 198.327 230.547 198.695 230.442 199.274C228.443 208.798 219.919 215.69 210.185 215.69C204.949 215.69 199.082 212.612 194.531 207.482C194.136 207.061 193.479 207.009 193.058 207.403C192.61 207.798 192.584 208.456 192.979 208.903C197.898 214.454 204.344 217.795 210.185 217.795Z" fill="#431F20"/>
<path fill-rule="evenodd" clip-rule="evenodd" d="M173.587 190.593C178.638 190.593 182.795 188.752 185.61 185.279C188.635 181.543 189.872 176.097 188.793 171.125C188.662 170.546 188.109 170.204 187.557 170.309C186.978 170.441 186.636 170.993 186.741 171.546C187.662 175.861 186.557 180.728 183.979 183.937C181.584 186.91 178.007 188.462 173.613 188.462C173.034 188.462 172.561 188.936 172.561 189.515C172.534 190.12 173.008 190.593 173.587 190.593Z" fill="#431F20"/>
<path fill-rule="evenodd" clip-rule="evenodd" d="M210.182 211.851C214.838 211.851 219.337 209.93 222.573 206.589C225.625 203.405 227.23 199.275 227.046 194.96C226.861 190.33 224.915 186.831 223.889 185.279C231.65 178.859 239.7 160.022 239.332 141.764C239.332 141.185 238.832 140.738 238.253 140.738C237.674 140.738 237.201 141.238 237.227 141.817C237.595 159.549 229.413 178.833 221.836 184.226C221.6 184.384 221.442 184.647 221.416 184.937C221.389 185.226 221.468 185.516 221.652 185.752C221.679 185.779 224.757 189.541 224.967 195.039C225.125 198.775 223.731 202.353 221.074 205.116C218.258 208.062 214.286 209.746 210.208 209.746C205.999 209.746 201.973 207.931 199.158 204.773C198.764 204.353 198.106 204.3 197.685 204.695C197.264 205.089 197.212 205.747 197.606 206.168C200.763 209.772 205.367 211.851 210.182 211.851Z" fill="#431F20"/>
<path fill-rule="evenodd" clip-rule="evenodd" d="M281.765 160.548C285.343 160.548 287.369 159.759 287.895 158.154C289.553 153.103 273.294 146.525 270.005 145.263C269.453 145.052 268.848 145.315 268.637 145.868C268.427 146.42 268.69 147.025 269.242 147.236C281.634 152.024 286.264 156.365 285.896 157.496C285.764 157.891 284.186 158.838 278.608 158.285C273.741 157.812 267.532 156.365 261.113 154.26C257.272 152.997 253.668 151.577 250.405 150.077C241.46 145.947 239.014 142.895 239.25 142.132C239.514 141.343 243.407 140.343 253.352 142.448C253.931 142.553 254.483 142.211 254.588 141.632C254.72 141.053 254.352 140.501 253.773 140.369C248.117 139.159 238.487 137.712 237.251 141.448C236.041 145.131 244.407 149.63 249.511 151.971C252.852 153.524 256.535 154.944 260.455 156.233C267.032 158.391 273.399 159.864 278.398 160.364C279.661 160.495 280.765 160.548 281.765 160.548Z" fill="#431F20"/>
<path fill-rule="evenodd" clip-rule="evenodd" d="M161.458 420.321L154.828 423.057L143.752 398.721L150.276 395.17C151.566 396.038 155.38 399.116 158.906 406.509C162.773 414.533 161.852 419.111 161.458 420.321ZM154.328 425.451C154.46 425.451 154.591 425.425 154.723 425.372L162.694 422.084C162.931 421.978 163.115 421.82 163.247 421.584C163.352 421.373 165.851 416.085 160.853 405.614C156.196 395.88 151.066 393.144 150.829 393.012C150.513 392.855 150.145 392.855 149.856 393.012L141.937 397.301C141.463 397.564 141.253 398.169 141.489 398.669L153.381 424.793C153.539 425.214 153.907 425.451 154.328 425.451Z" fill="#431F20"/>
<path fill-rule="evenodd" clip-rule="evenodd" d="M268.405 380.488L259.092 405.534L251.962 403.455C251.673 401.929 251.146 397.062 253.856 389.328C256.829 380.856 260.644 378.331 261.775 377.752L268.405 380.488ZM259.723 407.875C260.144 407.875 260.565 407.612 260.696 407.191L270.694 380.277C270.904 379.751 270.641 379.146 270.115 378.936L262.143 375.647C261.907 375.542 261.644 375.542 261.407 375.621C261.17 375.7 255.698 377.673 251.857 388.643C248.279 398.825 249.989 404.402 250.068 404.639C250.173 404.981 250.436 405.218 250.778 405.323L259.434 407.849C259.539 407.875 259.644 407.875 259.723 407.875Z" fill="#431F20"/>
<path fill-rule="evenodd" clip-rule="evenodd" d="M182.636 200.747C193.002 200.747 203.552 196.248 207.945 186.488C208.182 185.962 207.945 185.33 207.419 185.093C206.893 184.857 206.261 185.094 206.025 185.62C200.552 197.827 184.32 201.037 172.429 197.011C159.879 192.749 156.749 181.279 153.749 170.177C152.171 164.31 150.671 158.785 147.856 154.418C147.541 153.918 146.883 153.786 146.409 154.102C145.909 154.418 145.778 155.075 146.094 155.549C148.724 159.653 150.198 165.02 151.724 170.729C154.723 181.831 158.143 194.407 171.745 199.011C175.138 200.168 178.874 200.747 182.636 200.747Z" fill="#431F20"/>
<path fill-rule="evenodd" clip-rule="evenodd" d="M183.717 107.326C185.375 107.326 187.059 107.458 188.742 107.747C204.685 110.483 213.446 121.164 214.104 138.686C214.235 142.343 214.13 160.391 213.709 168.967C213.657 169.967 213.394 171.019 212.788 171.046C212.078 171.046 210.92 169.967 210.815 168.52C210.71 167.073 211.473 162.785 211.762 161.232C211.973 160.391 212.104 159.444 212.104 158.496C212.104 152.63 207.685 147.841 202.239 147.841C198.95 147.841 195.977 149.446 194.32 152.156C193.741 153.103 192.952 153.577 192.241 153.366C191.715 153.235 191.347 152.735 191.347 152.13C190.979 140.08 188.584 138.028 186.638 136.371L186.375 136.134C182.533 132.767 177.14 136.897 170.3 142.106C163.697 147.157 155.488 153.419 146.912 153.919C146.491 153.919 142.702 152.735 141.045 148.736C139.151 144.158 139.966 135.476 154.594 120.059C158.04 116.455 169.984 107.326 183.717 107.326ZM212.788 173.124H212.815C213.472 173.124 215.63 172.808 215.814 169.046C216.209 160.417 216.34 142.29 216.208 138.607C215.498 119.981 206.132 108.589 189.084 105.669C174.194 103.117 159.066 112.246 153.042 118.613C137.309 135.187 136.862 144.816 139.256 149.972C141.282 154.366 145.675 156.129 146.99 156.023C156.225 155.471 164.696 148.999 171.536 143.764C177.377 139.317 182.402 135.476 184.954 137.686L185.243 137.923C186.848 139.291 188.874 141.027 189.216 152.13C189.269 153.656 190.268 154.945 191.689 155.339C192.978 155.681 194.82 155.313 196.109 153.208C197.398 151.13 199.687 149.893 202.265 149.893C206.553 149.893 210.026 153.735 210.026 158.444C210.026 159.233 209.921 159.996 209.737 160.733C209.605 161.39 208.579 166.626 208.737 168.625C208.895 171.046 210.789 173.124 212.788 173.124Z" fill="#431F20"/>
<path fill-rule="evenodd" clip-rule="evenodd" d="M221.469 188.304C222.416 188.304 223.311 187.962 224.1 187.278C224.547 186.91 224.573 186.226 224.205 185.805C223.81 185.358 223.153 185.332 222.732 185.7C222.311 186.068 221.627 186.489 220.469 185.937C217.496 184.569 214.024 178.333 214.024 172.309C214.024 171.73 213.55 171.256 212.971 171.256C212.392 171.256 211.919 171.73 211.919 172.309C211.919 178.728 215.523 185.989 219.601 187.831C220.206 188.173 220.838 188.304 221.469 188.304Z" fill="#431F20"/>
<path fill-rule="evenodd" clip-rule="evenodd" d="M199.791 207.142C200.212 207.142 200.607 206.905 200.764 206.484C202.369 202.67 201.896 199.171 199.238 195.119C198.923 194.646 198.265 194.488 197.791 194.803C197.318 195.119 197.16 195.777 197.476 196.25C200.317 200.565 199.738 203.433 198.818 205.643C198.607 206.169 198.844 206.8 199.37 207.011C199.502 207.116 199.659 207.142 199.791 207.142Z" fill="#431F20"/>
<path fill-rule="evenodd" clip-rule="evenodd" d="M259.958 197.354C260.195 197.354 260.432 197.275 260.616 197.118C274.928 185.384 284.767 167.389 287.871 158.154C288.056 157.602 287.766 156.997 287.214 156.813C286.661 156.629 286.056 156.918 285.872 157.47C282.82 166.468 273.244 184.016 259.274 195.46C258.827 195.828 258.748 196.486 259.116 196.933C259.353 197.223 259.669 197.354 259.958 197.354Z" fill="#431F20"/>
<path fill-rule="evenodd" clip-rule="evenodd" d="M164.038 259.995C164.064 259.995 164.09 259.995 164.09 259.995C179.77 259.127 194.661 253.681 207.158 244.236C207.631 243.894 207.71 243.237 207.368 242.763C207.026 242.289 206.368 242.21 205.895 242.552C193.74 251.734 179.244 257.022 163.985 257.89C163.406 257.917 162.959 258.417 162.985 258.995C163.038 259.574 163.485 259.995 164.038 259.995Z" fill="#431F20"/>
<path fill-rule="evenodd" clip-rule="evenodd" d="M245.543 367.938C245.596 367.938 245.648 367.938 245.701 367.912L246.648 367.491C246.858 367.412 246.937 367.175 246.858 366.965C246.78 366.754 246.543 366.676 246.332 366.781L245.385 367.202C245.201 367.281 245.096 367.517 245.201 367.728C245.254 367.859 245.385 367.938 245.543 367.938Z" fill="#391D1D"/>
<path fill-rule="evenodd" clip-rule="evenodd" d="M241.777 369.622C241.83 369.622 241.883 369.622 241.935 369.596L243.803 368.754C243.987 368.675 244.093 368.439 243.987 368.228C243.908 368.018 243.672 367.939 243.461 368.044L241.593 368.886C241.409 368.965 241.304 369.202 241.409 369.412C241.488 369.544 241.646 369.622 241.777 369.622ZM238.042 371.306C238.094 371.306 238.147 371.306 238.199 371.28L240.067 370.438C240.278 370.359 240.357 370.122 240.278 369.912C240.199 369.701 239.962 369.622 239.752 369.728L237.884 370.57C237.7 370.648 237.594 370.885 237.7 371.096C237.752 371.227 237.884 371.306 238.042 371.306ZM234.306 372.99C234.358 372.99 234.411 372.99 234.464 372.964L236.332 372.122C236.542 372.043 236.621 371.806 236.516 371.596C236.437 371.411 236.2 371.306 235.989 371.411L234.122 372.253C233.911 372.332 233.832 372.569 233.937 372.779C233.99 372.911 234.148 372.99 234.306 372.99ZM230.544 374.674C230.596 374.674 230.649 374.674 230.701 374.647L232.569 373.806C232.753 373.727 232.859 373.49 232.754 373.279C232.675 373.095 232.438 372.99 232.227 373.095L230.359 373.937C230.175 374.016 230.07 374.253 230.175 374.463C230.254 374.595 230.412 374.674 230.544 374.674ZM226.808 376.358C226.86 376.358 226.913 376.331 226.966 376.331L228.834 375.489C229.044 375.41 229.123 375.174 229.044 374.963C228.965 374.753 228.728 374.674 228.518 374.779L226.65 375.621C226.466 375.7 226.361 375.937 226.466 376.147C226.518 376.279 226.65 376.358 226.808 376.358ZM223.046 378.068C223.098 378.068 223.151 378.041 223.203 378.041L225.071 377.199C225.282 377.12 225.361 376.884 225.256 376.673C225.177 376.463 224.94 376.384 224.729 376.489L222.862 377.331C222.651 377.41 222.572 377.647 222.651 377.857C222.756 377.962 222.914 378.068 223.046 378.068ZM219.31 379.725C219.362 379.725 219.415 379.725 219.468 379.699L221.336 378.857C221.52 378.778 221.625 378.541 221.52 378.331C221.441 378.12 221.204 378.041 220.994 378.12L219.126 378.962C218.915 379.041 218.836 379.278 218.915 379.488C219.02 379.646 219.152 379.725 219.31 379.725ZM215.574 381.435C215.627 381.435 215.679 381.435 215.732 381.409L217.6 380.567C217.81 380.488 217.889 380.251 217.81 380.041C217.731 379.857 217.494 379.751 217.284 379.857L215.416 380.698C215.232 380.777 215.127 381.014 215.232 381.225C215.258 381.33 215.416 381.435 215.574 381.435ZM211.812 383.119C211.864 383.119 211.917 383.093 211.97 383.093L213.838 382.251C214.048 382.172 214.127 381.935 214.022 381.724C213.943 381.514 213.706 381.435 213.496 381.514L211.628 382.356C211.417 382.435 211.338 382.672 211.417 382.882C211.522 383.014 211.654 383.119 211.812 383.119ZM208.076 384.803C208.129 384.803 208.181 384.803 208.234 384.776L210.102 383.934C210.286 383.855 210.391 383.619 210.286 383.408C210.207 383.224 209.97 383.119 209.76 383.224L207.892 384.066C207.708 384.145 207.602 384.382 207.708 384.592C207.787 384.697 207.918 384.803 208.076 384.803ZM204.314 386.486C204.366 386.486 204.419 386.486 204.472 386.46L206.34 385.618C206.55 385.539 206.629 385.302 206.524 385.092C206.445 384.908 206.208 384.803 205.998 384.908L204.13 385.75C203.919 385.829 203.84 386.065 203.946 386.276C204.025 386.381 204.182 386.486 204.314 386.486ZM200.578 388.17C200.631 388.17 200.683 388.144 200.736 388.144L202.604 387.302C202.814 387.223 202.893 386.986 202.788 386.776C202.709 386.565 202.472 386.486 202.262 386.592L200.394 387.433C200.183 387.512 200.104 387.749 200.183 387.96C200.289 388.091 200.42 388.17 200.578 388.17ZM196.842 389.854C196.895 389.854 196.947 389.854 197 389.828L198.868 388.986C199.078 388.907 199.157 388.67 199.078 388.459C199 388.249 198.763 388.17 198.552 388.275L196.684 389.117C196.5 389.196 196.395 389.433 196.5 389.643C196.527 389.775 196.684 389.854 196.842 389.854ZM193.08 391.538C193.133 391.538 193.185 391.538 193.238 391.511L195.106 390.669C195.316 390.59 195.395 390.354 195.29 390.143C195.211 389.933 194.974 389.854 194.764 389.933L192.896 390.775C192.685 390.854 192.607 391.09 192.712 391.301C192.791 391.459 192.922 391.538 193.08 391.538ZM189.344 393.221C189.397 393.221 189.449 393.221 189.502 393.195L191.37 392.353C191.554 392.274 191.659 392.037 191.554 391.827C191.475 391.643 191.239 391.538 191.028 391.643L189.16 392.485C188.95 392.564 188.871 392.8 188.95 393.011C189.055 393.142 189.186 393.221 189.344 393.221ZM185.582 394.905C185.635 394.905 185.687 394.879 185.74 394.879L187.608 394.037C187.792 393.958 187.897 393.721 187.792 393.511C187.713 393.3 187.476 393.221 187.266 393.327L185.398 394.168C185.214 394.247 185.109 394.484 185.214 394.695C185.293 394.826 185.451 394.905 185.582 394.905ZM181.846 396.589C181.899 396.589 181.952 396.589 182.004 396.563L183.872 395.721C184.083 395.642 184.162 395.405 184.056 395.194C183.977 395.01 183.741 394.905 183.53 395.01L181.662 395.852C181.452 395.931 181.373 396.168 181.478 396.378C181.557 396.51 181.688 396.589 181.846 396.589ZM178.111 398.273C178.163 398.273 178.216 398.273 178.268 398.246L180.136 397.404C180.32 397.325 180.426 397.089 180.32 396.878C180.242 396.668 180.005 396.589 179.794 396.668L177.926 397.51C177.716 397.589 177.637 397.825 177.716 398.036C177.795 398.194 177.953 398.273 178.111 398.273ZM174.348 399.956C174.401 399.956 174.454 399.93 174.506 399.93L176.374 399.088C176.585 399.009 176.663 398.772 176.585 398.562C176.506 398.352 176.269 398.273 176.058 398.351L174.191 399.193C174.006 399.272 173.901 399.509 174.006 399.72C174.059 399.877 174.191 399.956 174.348 399.956ZM170.613 401.64C170.665 401.64 170.718 401.614 170.77 401.614L172.638 400.772C172.849 400.693 172.928 400.456 172.822 400.246C172.744 400.035 172.507 399.956 172.296 400.062L170.428 400.903C170.218 400.982 170.139 401.219 170.218 401.43C170.323 401.561 170.455 401.64 170.613 401.64ZM166.85 403.324C166.903 403.324 166.956 403.324 167.008 403.298L168.876 402.456C169.06 402.377 169.166 402.14 169.06 401.929C168.981 401.719 168.745 401.64 168.534 401.719L166.666 402.561C166.456 402.64 166.377 402.877 166.456 403.087C166.561 403.245 166.719 403.324 166.85 403.324Z" fill="#391D1D"/>
<path fill-rule="evenodd" clip-rule="evenodd" d="M164.037 404.613C164.09 404.613 164.142 404.613 164.195 404.587L165.142 404.166C165.353 404.087 165.432 403.85 165.353 403.639C165.274 403.429 165.037 403.35 164.826 403.429L163.879 403.85C163.695 403.929 163.59 404.166 163.695 404.376C163.748 404.508 163.879 404.613 164.037 404.613Z" fill="#391D1D"/>
<path fill-rule="evenodd" clip-rule="evenodd" d="M245.516 341.605C245.568 341.605 245.621 341.605 245.673 341.578L246.647 341.184C246.857 341.105 246.936 340.868 246.857 340.658C246.778 340.447 246.542 340.342 246.331 340.447L245.358 340.842C245.147 340.921 245.068 341.157 245.147 341.368C245.226 341.526 245.358 341.605 245.516 341.605Z" fill="#391D1D"/>
<path fill-rule="evenodd" clip-rule="evenodd" d="M241.515 343.234C241.568 343.234 241.62 343.234 241.673 343.208L243.672 342.392C243.883 342.313 243.962 342.076 243.883 341.866C243.804 341.655 243.567 341.577 243.357 341.656L241.357 342.471C241.147 342.55 241.068 342.787 241.147 342.997C241.199 343.155 241.357 343.234 241.515 343.234ZM237.49 344.865C237.543 344.865 237.595 344.865 237.648 344.839L239.647 344.023C239.858 343.944 239.937 343.708 239.858 343.523C239.779 343.313 239.542 343.208 239.358 343.313L237.358 344.129C237.148 344.207 237.069 344.444 237.148 344.655C237.201 344.76 237.332 344.865 237.49 344.865ZM233.491 346.496C233.544 346.496 233.596 346.496 233.649 346.47L235.648 345.654C235.859 345.575 235.938 345.339 235.859 345.128C235.78 344.918 235.543 344.839 235.333 344.918L233.333 345.733C233.123 345.812 233.044 346.049 233.123 346.26C233.175 346.391 233.333 346.496 233.491 346.496ZM229.466 348.127C229.518 348.127 229.571 348.127 229.624 348.101L231.623 347.286C231.834 347.207 231.912 346.97 231.833 346.759C231.755 346.549 231.518 346.47 231.334 346.549L229.334 347.364C229.124 347.443 229.045 347.68 229.124 347.864C229.176 348.022 229.334 348.127 229.466 348.127ZM225.467 349.759C225.519 349.759 225.572 349.759 225.625 349.732L227.624 348.917C227.835 348.838 227.914 348.601 227.835 348.391C227.756 348.18 227.519 348.075 227.335 348.18L225.335 348.996C225.125 349.074 225.046 349.311 225.125 349.522C225.177 349.653 225.309 349.759 225.467 349.759ZM221.468 351.363C221.521 351.363 221.573 351.363 221.626 351.337L223.625 350.522C223.836 350.443 223.915 350.206 223.836 349.995C223.757 349.785 223.52 349.706 223.31 349.785L221.31 350.6C221.1 350.679 221.021 350.916 221.1 351.127C221.152 351.284 221.31 351.363 221.468 351.363ZM217.443 352.995C217.495 352.995 217.548 352.995 217.601 352.968L219.6 352.153C219.81 352.074 219.889 351.837 219.811 351.653C219.732 351.442 219.495 351.337 219.311 351.442L217.311 352.258C217.101 352.337 217.022 352.574 217.101 352.784C217.153 352.916 217.285 352.995 217.443 352.995ZM213.444 354.626C213.496 354.626 213.549 354.626 213.602 354.599L215.601 353.784C215.812 353.705 215.89 353.468 215.812 353.284C215.733 353.073 215.496 352.995 215.285 353.073L213.286 353.889C213.075 353.968 212.997 354.205 213.076 354.415C213.128 354.547 213.286 354.626 213.444 354.626ZM209.419 356.257C209.471 356.257 209.524 356.257 209.576 356.23L211.576 355.415C211.786 355.336 211.865 355.099 211.786 354.915C211.707 354.705 211.471 354.626 211.26 354.705L209.261 355.52C209.05 355.599 208.971 355.836 209.05 356.02C209.129 356.178 209.261 356.257 209.419 356.257ZM205.42 357.888C205.472 357.888 205.525 357.888 205.578 357.862L207.577 357.046C207.787 356.967 207.866 356.73 207.787 356.52C207.709 356.309 207.472 356.231 207.288 356.309L205.288 357.125C205.078 357.204 204.999 357.441 205.078 357.651C205.104 357.809 205.262 357.888 205.42 357.888ZM201.394 359.519C201.447 359.519 201.5 359.519 201.552 359.493L203.552 358.677C203.762 358.598 203.841 358.361 203.762 358.177C203.683 357.967 203.446 357.888 203.236 357.967L201.237 358.782C201.026 358.861 200.947 359.098 201.026 359.309C201.105 359.414 201.263 359.519 201.394 359.519Z" fill="#391D1D"/>
<path fill-rule="evenodd" clip-rule="evenodd" d="M198.422 360.73C198.474 360.73 198.527 360.73 198.58 360.704L199.553 360.309C199.764 360.23 199.842 359.993 199.763 359.783C199.685 359.572 199.448 359.494 199.237 359.573L198.264 359.967C198.053 360.046 197.975 360.283 198.053 360.493C198.132 360.625 198.264 360.73 198.422 360.73Z" fill="#391D1D"/>
<path fill-rule="evenodd" clip-rule="evenodd" d="M213.943 311.034C214.233 311.034 214.548 310.902 214.733 310.665C232.517 289.776 258.431 277.806 285.845 277.806C287.844 277.806 289.844 277.858 291.817 277.99C292.422 277.99 292.895 277.595 292.922 277.017C292.948 276.438 292.527 275.938 291.948 275.912C289.949 275.78 287.897 275.728 285.845 275.728C257.826 275.728 231.333 287.987 213.128 309.324C212.759 309.771 212.812 310.429 213.259 310.797C213.47 310.955 213.707 311.034 213.943 311.034Z" fill="#431F20"/>
<path fill-rule="evenodd" clip-rule="evenodd" d="M259.749 295.826C260.328 295.826 260.801 295.352 260.801 294.774C260.801 294.195 260.328 293.721 259.749 293.721C254.408 293.721 249.646 290.512 247.621 285.566C247.41 285.013 246.779 284.776 246.253 284.987C245.7 285.197 245.463 285.829 245.674 286.355C248.015 292.09 253.54 295.826 259.749 295.826Z" fill="#431F20"/>
<path fill-rule="evenodd" clip-rule="evenodd" d="M251.329 297.616C251.75 297.616 252.171 297.353 252.329 296.932C252.513 296.38 252.25 295.775 251.697 295.591C247.883 294.223 244.883 291.092 243.673 287.225C243.489 286.672 242.91 286.356 242.358 286.54C241.805 286.725 241.49 287.303 241.674 287.856C243.094 292.328 246.567 295.959 250.987 297.564C251.092 297.59 251.224 297.616 251.329 297.616Z" fill="#431F20"/>
<path fill-rule="evenodd" clip-rule="evenodd" d="M278.952 280.385C279.163 280.385 279.321 280.228 279.347 280.017C279.4 279.333 279.426 278.649 279.426 277.965C279.426 277.754 279.242 277.57 279.031 277.57C278.821 277.57 278.637 277.754 278.637 277.965C278.637 278.623 278.611 279.307 278.558 279.964C278.532 280.175 278.716 280.359 278.926 280.385H278.952ZM278.4 284.542C278.584 284.542 278.742 284.411 278.795 284.226C278.926 283.516 279.058 282.832 279.137 282.122C279.163 281.911 279.005 281.701 278.795 281.674C278.584 281.648 278.374 281.806 278.347 282.016C278.269 282.701 278.137 283.385 278.005 284.069C277.953 284.279 278.111 284.489 278.321 284.542C278.347 284.542 278.374 284.542 278.4 284.542ZM277.348 288.62C277.506 288.62 277.663 288.515 277.716 288.357C277.926 287.673 278.137 286.989 278.295 286.305C278.347 286.094 278.216 285.884 278.005 285.831C277.795 285.779 277.585 285.91 277.532 286.121C277.348 286.778 277.164 287.462 276.953 288.12C276.874 288.331 277.006 288.541 277.216 288.62C277.269 288.594 277.321 288.62 277.348 288.62ZM275.848 292.54C276.006 292.54 276.138 292.461 276.216 292.303C276.506 291.672 276.795 291.014 277.032 290.356C277.111 290.146 277.006 289.935 276.822 289.856C276.611 289.778 276.401 289.883 276.322 290.093C276.059 290.751 275.795 291.382 275.506 292.014C275.427 292.198 275.506 292.435 275.69 292.54C275.717 292.514 275.769 292.54 275.848 292.54ZM273.875 296.249C274.006 296.249 274.138 296.171 274.217 296.065C274.585 295.46 274.927 294.855 275.269 294.224C275.375 294.04 275.296 293.803 275.111 293.698C274.927 293.592 274.69 293.671 274.585 293.855C274.27 294.46 273.928 295.066 273.559 295.671C273.454 295.855 273.507 296.092 273.691 296.223C273.717 296.223 273.796 296.249 273.875 296.249ZM271.455 299.67C271.56 299.67 271.691 299.617 271.77 299.512C272.218 298.959 272.638 298.38 273.059 297.802C273.191 297.617 273.138 297.381 272.954 297.249C272.77 297.118 272.533 297.17 272.402 297.354C272.007 297.933 271.586 298.486 271.165 299.012C271.034 299.17 271.06 299.433 271.218 299.564C271.297 299.643 271.376 299.67 271.455 299.67ZM268.613 302.774C268.718 302.774 268.797 302.748 268.876 302.669C269.376 302.195 269.876 301.669 270.376 301.143C270.534 300.985 270.507 300.722 270.35 300.59C270.192 300.433 269.929 300.459 269.797 300.617C269.324 301.143 268.824 301.616 268.35 302.09C268.192 302.248 268.192 302.485 268.324 302.642C268.403 302.721 268.508 302.774 268.613 302.774ZM265.351 305.405C265.43 305.405 265.509 305.379 265.561 305.326C266.14 304.931 266.719 304.51 267.271 304.063C267.429 303.932 267.456 303.669 267.324 303.511C267.193 303.353 266.929 303.326 266.772 303.458C266.219 303.905 265.667 304.3 265.114 304.695C264.93 304.826 264.877 305.063 265.009 305.247C265.088 305.352 265.219 305.405 265.351 305.405ZM261.641 307.378C261.694 307.378 261.747 307.378 261.799 307.352L263.167 306.773C263.378 306.668 263.562 306.562 263.746 306.457C263.93 306.352 264.009 306.115 263.904 305.931C263.799 305.747 263.562 305.668 263.378 305.773C263.194 305.878 263.036 305.957 262.852 306.063L261.51 306.615C261.299 306.694 261.22 306.931 261.299 307.141C261.352 307.273 261.484 307.378 261.641 307.378ZM257.748 308.983C257.8 308.983 257.853 308.983 257.906 308.957L259.852 308.141C260.063 308.062 260.142 307.825 260.063 307.615C259.984 307.404 259.747 307.325 259.537 307.404L257.59 308.22C257.379 308.299 257.301 308.536 257.379 308.746C257.458 308.904 257.616 308.983 257.748 308.983ZM253.88 310.614C253.933 310.614 253.986 310.614 254.038 310.588L255.985 309.772C256.196 309.693 256.274 309.456 256.196 309.246C256.117 309.035 255.88 308.957 255.669 309.035L253.723 309.851C253.512 309.93 253.433 310.167 253.512 310.377C253.591 310.509 253.723 310.614 253.88 310.614ZM249.987 312.219C250.039 312.219 250.092 312.219 250.145 312.192L252.091 311.377C252.302 311.298 252.381 311.061 252.302 310.877C252.223 310.667 251.986 310.588 251.776 310.667L249.829 311.482C249.618 311.561 249.539 311.798 249.618 311.982C249.697 312.14 249.855 312.219 249.987 312.219ZM246.119 313.85C246.172 313.85 246.225 313.85 246.277 313.824L248.224 313.008C248.435 312.929 248.513 312.692 248.434 312.482C248.356 312.271 248.119 312.192 247.908 312.271L245.962 313.087C245.751 313.166 245.672 313.403 245.751 313.613C245.804 313.745 245.962 313.85 246.119 313.85ZM242.226 315.455C242.278 315.455 242.331 315.455 242.384 315.428L244.33 314.613C244.541 314.534 244.62 314.297 244.541 314.113C244.462 313.903 244.225 313.824 244.015 313.903L242.068 314.718C241.857 314.797 241.778 315.034 241.857 315.244C241.936 315.376 242.068 315.455 242.226 315.455ZM238.358 317.086C238.411 317.086 238.464 317.086 238.516 317.06L240.463 316.244C240.673 316.165 240.752 315.928 240.673 315.718C240.595 315.507 240.358 315.428 240.147 315.507L238.2 316.323C237.99 316.402 237.911 316.639 237.99 316.849C238.043 316.981 238.2 317.086 238.358 317.086ZM234.465 318.691C234.517 318.691 234.57 318.691 234.622 318.664L236.569 317.849C236.78 317.77 236.859 317.533 236.78 317.323C236.701 317.112 236.464 317.033 236.254 317.112L234.307 317.928C234.096 318.007 234.017 318.243 234.096 318.428C234.175 318.612 234.307 318.691 234.465 318.691ZM230.597 320.322C230.65 320.322 230.703 320.322 230.755 320.296L232.702 319.48C232.912 319.401 232.991 319.164 232.912 318.954C232.833 318.743 232.597 318.664 232.386 318.743L230.439 319.559C230.229 319.638 230.15 319.875 230.229 320.085C230.282 320.217 230.439 320.322 230.597 320.322ZM226.704 321.927C226.756 321.927 226.809 321.927 226.861 321.9L228.808 321.085C229.019 321.006 229.098 320.769 229.019 320.559C228.94 320.348 228.703 320.269 228.493 320.348L226.546 321.164C226.335 321.243 226.256 321.479 226.335 321.69C226.414 321.848 226.572 321.927 226.704 321.927ZM222.836 323.558C222.889 323.558 222.941 323.558 222.994 323.531L224.941 322.716C225.151 322.637 225.23 322.4 225.151 322.19C225.072 321.979 224.836 321.9 224.625 321.979L222.678 322.795C222.468 322.874 222.389 323.111 222.468 323.321C222.52 323.453 222.678 323.558 222.836 323.558ZM218.943 325.163C218.995 325.163 219.048 325.163 219.1 325.136L221.047 324.321C221.258 324.242 221.337 324.005 221.258 323.795C221.179 323.584 220.942 323.505 220.731 323.584L218.785 324.4C218.574 324.479 218.495 324.715 218.574 324.926C218.653 325.084 218.785 325.163 218.943 325.163ZM215.075 326.794C215.128 326.794 215.18 326.794 215.233 326.767L217.18 325.952C217.39 325.873 217.469 325.636 217.39 325.426C217.311 325.215 217.075 325.136 216.864 325.215L214.917 326.031C214.707 326.11 214.628 326.347 214.707 326.557C214.759 326.689 214.917 326.794 215.075 326.794ZM211.182 328.399C211.234 328.399 211.287 328.399 211.339 328.372L213.286 327.557C213.497 327.478 213.576 327.241 213.497 327.031C213.418 326.82 213.181 326.741 212.97 326.82L211.024 327.636C210.813 327.715 210.734 327.951 210.813 328.162C210.892 328.32 211.024 328.399 211.182 328.399ZM207.314 330.03C207.367 330.03 207.419 330.03 207.472 330.003L209.419 329.188C209.629 329.109 209.708 328.872 209.629 328.662C209.55 328.451 209.314 328.372 209.103 328.451L207.156 329.267C206.946 329.346 206.867 329.582 206.946 329.793C206.998 329.924 207.156 330.03 207.314 330.03ZM203.42 331.635C203.473 331.635 203.526 331.635 203.578 331.608L205.525 330.793C205.736 330.714 205.815 330.477 205.736 330.266C205.657 330.056 205.42 329.977 205.209 330.056L203.263 330.872C203.052 330.951 202.973 331.187 203.052 331.398C203.131 331.556 203.263 331.635 203.42 331.635ZM199.553 333.266C199.606 333.266 199.658 333.266 199.711 333.239L201.658 332.424C201.868 332.345 201.947 332.108 201.868 331.898C201.789 331.687 201.553 331.608 201.342 331.687L199.395 332.503C199.185 332.582 199.106 332.818 199.185 333.029C199.237 333.16 199.395 333.266 199.553 333.266ZM195.659 334.871C195.712 334.871 195.765 334.871 195.817 334.844L197.764 334.029C197.975 333.95 198.053 333.713 197.975 333.502C197.896 333.292 197.659 333.213 197.448 333.292L195.502 334.108C195.291 334.187 195.212 334.423 195.291 334.634C195.37 334.792 195.502 334.871 195.659 334.871ZM191.792 336.502C191.845 336.502 191.897 336.502 191.95 336.475L193.897 335.66C194.107 335.581 194.186 335.344 194.107 335.134C194.028 334.923 193.792 334.844 193.581 334.923L191.634 335.739C191.424 335.818 191.345 336.054 191.424 336.265C191.476 336.396 191.634 336.502 191.792 336.502ZM187.898 338.106C187.951 338.106 188.004 338.106 188.056 338.08L190.003 337.265C190.214 337.186 190.292 336.949 190.214 336.765C190.135 336.554 189.898 336.449 189.687 336.554L187.741 337.37C187.53 337.449 187.451 337.686 187.53 337.896C187.609 338.028 187.741 338.106 187.898 338.106Z" fill="#391D1D"/>
<path fill-rule="evenodd" clip-rule="evenodd" d="M202.238 164.52C202.764 164.52 203.264 164.468 203.764 164.336C206.5 163.652 208.394 161.179 208.394 158.364C208.394 154.97 205.632 152.208 202.238 152.208C199.318 152.208 196.792 154.286 196.213 157.128C196.108 157.706 196.45 158.259 197.029 158.364C197.608 158.469 198.16 158.101 198.265 157.549C198.66 155.681 200.317 154.313 202.238 154.313C204.474 154.313 206.289 156.128 206.289 158.364C206.289 160.206 205.027 161.837 203.238 162.284C202.922 162.363 202.58 162.416 202.238 162.416C201.659 162.416 201.186 162.889 201.186 163.468C201.186 164.047 201.659 164.52 202.238 164.52Z" fill="#431F20"/>
<path fill-rule="evenodd" clip-rule="evenodd" d="M202.449 161.732C204.027 161.732 205.316 160.39 205.316 158.733C205.316 157.075 204.027 155.733 202.449 155.733C200.87 155.733 199.581 157.075 199.581 158.733C199.581 159.311 200.055 159.785 200.633 159.785C201.212 159.785 201.686 159.311 201.686 158.733C201.686 158.233 202.028 157.838 202.449 157.838C202.87 157.838 203.212 158.233 203.212 158.733C203.212 159.232 202.87 159.627 202.449 159.627C201.87 159.627 201.396 160.101 201.396 160.679C201.396 161.258 201.87 161.732 202.449 161.732Z" fill="#431F20"/>
<path fill-rule="evenodd" clip-rule="evenodd" d="M175.638 156.338C175.796 156.338 175.954 156.311 176.111 156.232C176.638 155.969 176.848 155.338 176.585 154.812C176.085 153.812 175.217 153.049 174.191 152.654C173.139 152.26 172.007 152.339 171.034 152.839C170.508 153.102 170.324 153.733 170.587 154.259C170.85 154.785 171.481 154.996 172.007 154.733C172.455 154.496 172.981 154.47 173.507 154.654C174.033 154.838 174.48 155.259 174.743 155.785C174.901 156.127 175.27 156.338 175.638 156.338Z" fill="#431F20"/>
<path fill-rule="evenodd" clip-rule="evenodd" d="M191.267 174.361C191.424 174.361 191.582 174.334 191.74 174.255C192.266 173.992 192.477 173.361 192.214 172.835C191.582 171.572 189.951 170.283 188.346 169.757C187.294 169.415 186.347 169.441 185.61 169.809C185.084 170.072 184.874 170.704 185.137 171.23C185.4 171.756 186.031 171.966 186.557 171.703C186.768 171.598 187.215 171.624 187.689 171.782C188.767 172.124 189.925 173.045 190.319 173.808C190.504 174.15 190.872 174.361 191.267 174.361Z" fill="#431F20"/>
<path fill-rule="evenodd" clip-rule="evenodd" d="M155.169 163.706C155.274 163.706 155.38 163.679 155.485 163.653C156.037 163.469 156.327 162.89 156.169 162.338C155.958 161.706 156.116 160.996 156.616 160.443C157.011 160.022 156.958 159.338 156.537 158.97C156.116 158.575 155.432 158.628 155.064 159.049C154.064 160.154 153.748 161.627 154.196 162.995C154.327 163.442 154.722 163.706 155.169 163.706Z" fill="#431F20"/>
<path fill-rule="evenodd" clip-rule="evenodd" d="M214.655 11.9569C214.892 12.141 215.997 13.0618 216.944 13.8511C217.76 14.5351 218.47 15.1139 218.47 15.1402C218.549 15.1929 218.575 15.2191 218.628 15.2455C219.549 16.0084 219.68 17.4028 218.918 18.3236C218.155 19.2444 216.786 19.3759 215.866 18.613L215.787 18.534C215.787 18.534 215.287 18.1131 214.629 17.5606C213.551 16.6661 212.051 15.4033 211.919 15.2717C211.209 14.5351 211.183 13.2723 211.893 12.4304C212.551 11.6148 213.735 11.4044 214.655 11.9569ZM217.234 21.1912C218.47 21.1912 219.68 20.665 220.522 19.6653C222.048 17.85 221.785 15.1402 219.996 13.6406C219.917 13.5617 219.812 13.4828 219.707 13.4302C219.707 13.4302 219.049 12.8777 218.286 12.2463C215.918 10.2731 215.918 10.2731 215.839 10.2205C214.024 9.06292 211.63 9.45755 210.262 11.0887C208.868 12.7461 208.947 15.1928 210.42 16.7714C210.499 16.8503 210.499 16.8503 213.261 19.1655C213.84 19.6653 214.313 20.06 214.366 20.1126L214.471 20.1915C214.471 20.1915 214.471 20.1915 214.498 20.2178C215.287 20.8755 216.26 21.1912 217.234 21.1912Z" fill="#431F20"/>
<path fill-rule="evenodd" clip-rule="evenodd" d="M209.525 16.7722C209.92 16.7722 210.314 16.8775 210.683 17.1143C210.735 17.1669 212.024 18.2455 213.077 19.1137C213.813 19.7451 214.445 20.245 214.471 20.2713C214.524 20.3239 214.576 20.3502 214.629 20.3765C215.076 20.7448 215.339 21.271 215.392 21.8498C215.445 22.4286 215.26 22.9811 214.892 23.4283C214.129 24.3491 212.761 24.4807 211.814 23.7177C211.735 23.6651 211.104 23.1126 210.367 22.4812C209.315 21.613 208.026 20.5081 207.894 20.4028C207.184 19.6662 207.157 18.4034 207.868 17.5615C208.262 17.0353 208.894 16.7722 209.525 16.7722ZM213.208 26.3223C214.419 26.3223 215.655 25.7961 216.497 24.7964C217.234 23.9282 217.576 22.7969 217.47 21.6656C217.365 20.5344 216.839 19.5083 215.944 18.7717C215.866 18.6927 215.76 18.6401 215.681 18.5612C215.655 18.5349 215.076 18.0614 214.419 17.4826C211.893 15.3779 211.893 15.3779 211.788 15.3252C209.999 14.194 207.605 14.5623 206.237 16.1934C204.842 17.8509 204.921 20.2976 206.394 21.8761C206.447 21.955 206.473 21.955 208.999 24.086C209.683 24.6648 210.288 25.1647 210.341 25.2173L210.472 25.3225C211.261 26.0066 212.235 26.3223 213.208 26.3223Z" fill="#431F20"/>
<path fill-rule="evenodd" clip-rule="evenodd" d="M231.889 35.4246C232.126 35.4246 232.336 35.3457 232.52 35.2141C235.467 32.9516 237.177 29.5315 237.177 25.7957C237.177 22.6386 235.94 19.6658 233.704 17.4295C214.262 0.723545 214.262 0.697224 214.157 0.644607C212.368 -0.486665 209.974 -0.0920447 208.606 1.53909C207.211 3.19653 207.29 5.64325 208.764 7.22176C208.842 7.30069 208.842 7.30069 212.473 10.2209C213.71 11.2207 214.815 12.0889 214.92 12.1941C215.367 12.5624 215.998 12.5098 216.393 12.0889C216.761 11.6679 216.735 11.0102 216.314 10.6156C216.261 10.563 216.262 10.563 213.788 8.58982C212.184 7.3007 210.368 5.8274 210.21 5.69586C209.526 4.95922 209.5 3.72273 210.21 2.88086C210.895 2.06529 212.078 1.8548 212.973 2.40728C213.894 3.19654 225.89 13.5095 232.257 18.9817C234.046 20.7707 235.046 23.2174 235.046 25.822C235.046 28.8738 233.651 31.6888 231.205 33.5567C230.758 33.8987 230.652 34.5828 231.021 35.03C231.257 35.2931 231.573 35.4246 231.889 35.4246Z" fill="#431F20"/>
<path fill-rule="evenodd" clip-rule="evenodd" d="M208.132 31.8731C208.422 31.8731 208.711 31.7415 208.921 31.5047C209.29 31.0575 209.263 30.3998 208.816 30.0315C205.001 26.6903 197.688 20.3236 197.451 20.1131C196.793 19.3765 196.793 18.14 197.503 17.3244C198.214 16.5088 199.398 16.3247 200.319 16.8772C200.634 17.1402 202.397 18.6925 203.87 20.0079C206.08 21.9547 206.08 21.9811 206.133 22.0074C206.58 22.3757 207.238 22.2967 207.606 21.8232C207.948 21.3759 207.895 20.7182 207.448 20.3762C207.343 20.271 206.37 19.4291 205.265 18.4294C201.634 15.2197 201.608 15.2197 201.529 15.1408C199.713 13.9306 197.293 14.2726 195.899 15.93C194.504 17.5612 194.531 19.9816 195.951 21.5601C196.004 21.639 196.03 21.6654 207.422 31.5837C207.659 31.7942 207.895 31.8731 208.132 31.8731Z" fill="#431F20"/>
<path fill-rule="evenodd" clip-rule="evenodd" d="M199.449 40.4226C200.028 40.4226 200.501 39.949 200.501 39.3702C200.501 38.7914 200.028 38.3179 199.449 38.3179C198.107 38.3179 197.002 37.2129 197.002 35.8711C197.002 35.1871 197.292 34.5294 197.818 34.0558C197.897 34.0032 205.368 28.7152 210.656 33.7928C211.077 34.1874 211.735 34.1874 212.13 33.7664C212.524 33.3455 212.524 32.6878 212.103 32.2932C206.026 26.4263 197.476 31.5302 196.397 32.5036C195.45 33.3718 194.897 34.6083 194.897 35.8711C194.897 38.3705 196.923 40.4226 199.449 40.4226Z" fill="#431F20"/>
<path fill-rule="evenodd" clip-rule="evenodd" d="M221.652 42.7649C221.731 42.7649 221.784 42.7649 221.863 42.7649C224.73 42.7123 227.361 41.3179 229.045 39.0027C229.387 38.5292 229.282 37.8715 228.808 37.5295C228.335 37.1874 227.677 37.2927 227.335 37.7662C226.019 39.5552 224.02 40.6076 221.784 40.6602C220.363 40.6865 218.995 40.3182 217.811 39.5552C215.733 38.1609 208.419 34.0567 199.684 38.3713C199.158 38.6344 198.948 39.2658 199.211 39.7657C199.474 40.2919 200.105 40.5023 200.605 40.2392C208.34 36.4245 214.786 40.0551 216.575 41.2653C218.179 42.265 219.89 42.7649 221.652 42.7649Z" fill="#431F20"/>
<path fill-rule="evenodd" clip-rule="evenodd" d="M228.204 33.0298C228.388 33.0298 228.572 32.9772 228.73 32.8983C229.23 32.6089 229.414 31.9775 229.124 31.4513C227.335 28.3732 224.021 26.4526 220.469 26.4526C217.575 26.4526 214.839 27.6892 212.945 29.8728C212.576 30.32 212.603 30.9777 213.05 31.346C213.497 31.7407 214.155 31.6881 214.523 31.2408C216.023 29.5308 218.18 28.531 220.469 28.531C223.284 28.531 225.889 30.0306 227.283 32.4773C227.493 32.8457 227.835 33.0298 228.204 33.0298Z" fill="#431F20"/>
<path fill-rule="evenodd" clip-rule="evenodd" d="M17.762 158.996L16.7886 159.417C17.2621 160.496 16.7623 161.785 15.6573 162.259C14.5787 162.732 13.2895 162.232 12.816 161.154C12.7896 161.101 12.7634 161.048 12.7634 160.996C12.7371 160.943 12.4214 160.18 12.0267 159.286C11.5006 158.049 10.8428 156.523 10.7902 156.392C10.5271 155.471 11.0533 154.366 12.0531 153.945C13.0528 153.498 14.2104 153.892 14.7628 154.84C14.7892 154.919 15.4468 156.392 15.973 157.602C16.394 158.549 16.7359 159.365 16.7622 159.391L17.762 158.996ZM14.8154 164.521C15.3679 164.521 15.9467 164.416 16.4992 164.179C18.6565 163.232 19.6562 160.733 18.7091 158.575L18.6828 158.523C18.6039 158.365 18.2882 157.602 17.8936 156.734C16.6308 153.84 16.6308 153.84 16.5781 153.761C15.4995 151.893 13.1843 151.13 11.2112 151.998C9.26433 152.84 8.23828 155.024 8.81707 157.05C8.84338 157.155 8.84338 157.155 10.1325 160.128C10.5008 160.97 10.7902 161.654 10.8166 161.732C10.8166 161.785 10.8691 161.89 10.9217 161.996C11.6058 163.574 13.158 164.521 14.8154 164.521Z" fill="#431F20"/>
<path fill-rule="evenodd" clip-rule="evenodd" d="M18.9173 151.315C19.6539 151.315 20.3905 151.71 20.7852 152.368C20.8378 152.473 21.5481 154.078 22.1006 155.367C22.4689 156.209 22.7846 156.893 22.7846 156.945L22.811 157.024C23.2845 158.103 22.7847 159.392 21.6797 159.866C21.1536 160.102 20.5747 160.102 20.0223 159.892C19.4961 159.681 19.0751 159.287 18.8383 158.761C18.812 158.708 18.7858 158.655 18.7858 158.603C18.7594 158.524 18.4963 157.945 18.1806 157.182C17.6281 155.919 16.8652 154.157 16.8126 153.972C16.5495 153.025 17.0757 151.947 18.0491 151.499C18.3385 151.368 18.6279 151.315 18.9173 151.315ZM20.8115 162.128C21.3903 162.128 21.9691 161.997 22.4953 161.76C24.6526 160.813 25.6523 158.313 24.7052 156.156L24.6263 155.998C24.6 155.919 24.3106 155.288 23.9686 154.499C22.6005 151.394 22.6005 151.394 22.5479 151.315C21.4692 149.447 19.154 148.684 17.1809 149.552C15.2341 150.394 14.208 152.578 14.7868 154.604C14.8131 154.709 14.8132 154.709 16.2338 157.971C16.5232 158.655 16.76 159.208 16.7863 159.287C16.7863 159.313 16.8389 159.445 16.8915 159.55C17.3388 160.576 18.1806 161.391 19.233 161.812C19.7591 162.023 20.2853 162.128 20.8115 162.128Z" fill="#431F20"/>
<path fill-rule="evenodd" clip-rule="evenodd" d="M21.0236 182.253C23.4966 182.253 25.8907 181.464 27.9427 179.965C28.4163 179.622 28.5216 178.965 28.1796 178.491C27.8376 178.018 27.1798 177.912 26.7062 178.254C24.2595 180.043 21.1814 180.596 18.2612 179.728C15.7882 178.991 13.7361 177.36 12.4996 175.071C9.10576 167.521 2.63386 153.182 2.1603 152.104C1.89721 151.104 2.42339 150.025 3.39681 149.604C4.39654 149.183 5.58042 149.552 6.1066 150.499C6.15921 150.604 7.1063 152.919 7.89556 154.866C9.00053 157.523 9.00051 157.523 9.02681 157.576C9.2899 158.102 9.89508 158.313 10.4212 158.076C10.9474 157.839 11.1578 157.208 10.921 156.708C10.8684 156.576 10.3949 155.419 9.84246 154.077C7.97454 149.552 7.97451 149.552 7.9219 149.447C6.84324 147.579 4.52806 146.816 2.55491 147.684C0.608075 148.526 -0.417971 150.709 0.160819 152.735C0.187127 152.84 0.213465 152.867 10.6317 175.992C12.1839 178.833 14.6569 180.833 17.6824 181.727C18.7873 182.096 19.9187 182.253 21.0236 182.253Z" fill="#431F20"/>
<path fill-rule="evenodd" clip-rule="evenodd" d="M30.6261 156.55C30.7839 156.55 30.9154 156.524 31.0733 156.445C31.5995 156.208 31.8363 155.577 31.5995 155.051C25.3117 141.397 25.3117 141.37 25.2591 141.318C24.1278 139.502 21.839 138.792 19.8921 139.66C17.919 140.528 16.9193 142.738 17.5507 144.817C17.577 144.922 17.577 144.922 19.708 149.473C20.3131 150.762 20.8129 151.841 20.8655 151.946C21.1023 152.472 21.7075 152.709 22.2336 152.499C22.7598 152.288 23.0229 151.683 22.8124 151.157C22.7861 151.104 22.7861 151.104 21.6285 148.605C20.734 146.685 19.6291 144.317 19.5238 144.106C19.2344 143.159 19.7343 142.028 20.734 141.607C21.7074 141.16 22.8913 141.528 23.4438 142.423C23.5227 142.607 27.548 151.367 29.6527 155.945C29.8368 156.314 30.2315 156.55 30.6261 156.55Z" fill="#431F20"/>
<path fill-rule="evenodd" clip-rule="evenodd" d="M31.8105 160.233C31.9684 160.233 32.1526 160.206 32.2841 160.101C32.8103 159.838 32.9944 159.207 32.7313 158.68C29.3638 152.235 36.5198 146.578 36.5987 146.526C37.1775 146.184 37.8878 146.079 38.5455 146.263C39.8346 146.631 40.5713 147.999 40.1767 149.288C40.0189 149.841 40.3345 150.42 40.887 150.604C41.4395 150.762 42.0183 150.446 42.2025 149.893C42.9128 147.499 41.5447 144.974 39.1243 144.263C37.8878 143.895 36.5724 144.079 35.4674 144.737C34.2309 145.5 26.9697 152.209 30.8371 159.654C31.0476 160.022 31.4159 160.233 31.8105 160.233Z" fill="#431F20"/>
<path fill-rule="evenodd" clip-rule="evenodd" d="M32.179 177.781C32.2842 177.781 32.4157 177.755 32.521 177.728C35.2045 176.755 37.2565 174.65 38.1247 171.94C38.6772 170.204 38.7035 168.362 38.1773 166.626C37.4933 164.495 35.8359 157.313 41.6501 151.025C42.0447 150.604 42.0183 149.92 41.5974 149.552C41.1765 149.157 40.4924 149.183 40.1241 149.604C33.547 156.734 35.4412 164.837 36.1516 167.152C36.5725 168.547 36.5462 169.967 36.1252 171.283C35.4675 173.387 33.889 174.992 31.8106 175.755C31.2581 175.939 30.9687 176.544 31.1792 177.097C31.3371 177.518 31.758 177.781 32.179 177.781Z" fill="#431F20"/>
<path fill-rule="evenodd" clip-rule="evenodd" d="M26.0741 175.992C26.3372 175.992 26.6002 175.887 26.8107 175.703C27.2316 175.308 27.258 174.624 26.837 174.203C24.9165 172.178 24.2061 169.284 24.9954 166.6C25.6268 164.443 27.1791 162.654 29.2311 161.707C29.7573 161.47 29.994 160.839 29.7573 160.312C29.5205 159.786 28.8891 159.549 28.3629 159.786C25.7584 160.996 23.7853 163.233 22.996 165.995C21.9963 169.389 22.8907 173.072 25.3374 175.65C25.5216 175.887 25.811 175.992 26.0741 175.992Z" fill="#431F20"/>
<path fill-rule="evenodd" clip-rule="evenodd" d="M167.59 184.409C170.958 184.409 173.483 182.857 175.088 179.779C175.351 179.253 175.167 178.621 174.641 178.358C174.115 178.095 173.483 178.279 173.22 178.805C171.405 182.304 168.642 182.331 167.616 182.331C166.38 182.331 165.38 181.331 165.38 180.121C165.38 178.911 166.38 177.911 167.59 177.911C168.169 177.911 168.642 177.437 168.642 176.858C168.642 176.28 168.169 175.806 167.59 175.806C165.196 175.806 163.275 177.753 163.275 180.121C163.275 182.462 165.222 184.409 167.59 184.409Z" fill="#431F20"/>
<path fill-rule="evenodd" clip-rule="evenodd" d="M172.379 162.89C172.984 164.258 174.089 165.126 174.852 164.784C175.641 164.442 175.773 163.074 175.194 161.68C174.589 160.312 173.484 159.444 172.721 159.786C171.958 160.128 171.8 161.522 172.379 162.89Z" fill="#431F20"/>
<path fill-rule="evenodd" clip-rule="evenodd" d="M159.408 168.02C159.881 169.441 160.934 170.362 161.723 170.099C162.512 169.836 162.775 168.468 162.302 167.047C161.828 165.626 160.776 164.706 159.987 164.969C159.197 165.232 158.934 166.6 159.408 168.02Z" fill="#431F20"/>
<path fill-rule="evenodd" clip-rule="evenodd" d="M96.9253 447.235C97.583 447.235 98.267 447.34 98.9247 447.524C100.714 448.05 102.187 449.26 103.055 450.892C104.897 454.259 103.634 458.495 100.24 460.336C96.8727 462.178 92.637 460.915 90.7954 457.521C89.9009 455.89 89.7168 453.996 90.2429 452.233C90.7691 450.444 91.9793 448.971 93.6104 448.103C94.6628 447.524 95.794 447.235 96.9253 447.235ZM96.9516 463.283C98.4512 463.283 99.9245 462.915 101.266 462.178C105.66 459.784 107.291 454.285 104.923 449.892C103.766 447.761 101.845 446.209 99.5299 445.525C97.2147 444.841 94.7417 445.077 92.637 446.235C90.506 447.393 88.9538 449.313 88.2698 451.628C87.5858 453.943 87.8225 456.39 88.9801 458.521C90.1377 460.652 92.0582 462.204 94.3733 462.888C95.2152 463.178 96.0834 463.283 96.9516 463.283Z" fill="#431F20"/>
<path fill-rule="evenodd" clip-rule="evenodd" d="M96.9512 452.863C97.0827 452.863 97.2142 452.89 97.3458 452.916C97.6878 453.021 97.9772 453.258 98.1613 453.574C98.5297 454.231 98.2666 455.047 97.6089 455.415C96.9512 455.757 96.1356 455.521 95.7672 454.863C95.4252 454.205 95.6621 453.39 96.3198 453.021C96.5039 452.916 96.7144 452.863 96.9512 452.863ZM96.9512 457.678C97.5036 457.678 98.0561 457.546 98.5823 457.257C100.266 456.362 100.871 454.258 99.9766 452.574C99.5294 451.758 98.7927 451.18 97.9246 450.917C97.0301 450.654 96.1093 450.759 95.2937 451.206C93.6099 452.1 92.9785 454.205 93.8993 455.889C94.5308 457.02 95.7146 457.678 96.9512 457.678Z" fill="#431F20"/>
<path fill-rule="evenodd" clip-rule="evenodd" d="M87.3226 435.133C87.4541 435.133 87.5857 435.159 87.7172 435.186C88.0592 435.291 88.3486 435.528 88.5328 435.843C88.6906 436.159 88.7433 436.527 88.638 436.869C88.5328 437.211 88.296 437.501 87.9803 437.685C87.6646 437.869 87.2963 437.895 86.9543 437.79C86.6123 437.685 86.3229 437.448 86.1388 437.132C85.7704 436.475 86.0335 435.659 86.6912 435.291C86.9017 435.186 87.1121 435.133 87.3226 435.133ZM87.3489 439.947C87.9277 439.947 88.4802 439.816 88.9801 439.526C89.7956 439.079 90.3744 438.369 90.6375 437.474C90.9006 436.58 90.7953 435.659 90.3481 434.844C89.9008 434.028 89.1905 433.449 88.296 433.186C87.4015 432.923 86.4807 433.028 85.6651 433.476C84.8496 433.923 84.2708 434.633 84.0077 435.528C83.7446 436.422 83.8498 437.343 84.2708 438.158C84.718 438.974 85.4547 439.579 86.3229 439.816C86.6649 439.895 87.0069 439.947 87.3489 439.947Z" fill="#431F20"/>
<path fill-rule="evenodd" clip-rule="evenodd" d="M77.7208 417.399C78.1943 417.399 78.6679 417.662 78.9047 418.109C79.273 418.767 79.0099 419.583 78.3522 419.951C77.6945 420.319 76.8789 420.056 76.5106 419.399C76.3528 419.083 76.3001 418.715 76.4054 418.373C76.5106 418.031 76.7474 417.741 77.0631 417.557C77.2999 417.452 77.5103 417.399 77.7208 417.399ZM77.7471 422.214C78.2996 422.214 78.8521 422.082 79.3782 421.793C81.062 420.898 81.6671 418.793 80.7726 417.11C79.8518 415.426 77.7471 414.821 76.0897 415.715C75.2741 416.163 74.6953 416.873 74.4322 417.767C74.1691 418.662 74.2743 419.583 74.7216 420.398C75.3267 421.556 76.5106 422.214 77.7471 422.214Z" fill="#431F20"/>
<path fill-rule="evenodd" clip-rule="evenodd" d="M68.1947 399.431C68.3262 399.431 68.4577 399.457 68.5893 399.483C68.9313 399.589 69.2207 399.825 69.4048 400.141C69.7732 400.799 69.5101 401.614 68.8524 401.983C68.5367 402.141 68.1683 402.193 67.8263 402.088C67.4843 401.983 67.1949 401.746 67.0107 401.43C66.8529 401.115 66.8003 400.746 66.9055 400.404C67.0107 400.062 67.2475 399.773 67.5632 399.589C67.7474 399.483 67.9842 399.431 68.1947 399.431ZM68.1947 404.245C68.7735 404.245 69.3259 404.114 69.8258 403.824C71.5095 402.904 72.1146 400.825 71.2201 399.141C70.7729 398.326 70.0626 397.747 69.1681 397.484C68.2736 397.221 67.3528 397.326 66.5372 397.773C65.7216 398.221 65.1428 398.957 64.8798 399.825C64.6167 400.72 64.7219 401.641 65.1429 402.456C65.5901 403.272 66.3004 403.851 67.1949 404.114C67.5369 404.193 67.879 404.245 68.1947 404.245Z" fill="#431F20"/>
<path fill-rule="evenodd" clip-rule="evenodd" d="M87.3212 429.529C89.7942 429.529 92.1883 430.844 93.4511 433.185C95.2927 436.553 94.0299 440.789 90.6361 442.63C89.0049 443.525 87.1107 443.709 85.3217 443.183C83.5327 442.657 82.0595 441.446 81.1913 439.815C79.376 436.448 80.6124 432.186 84.0062 430.37C85.0586 429.792 86.1899 429.529 87.3212 429.529ZM87.3475 445.551C88.8471 445.551 90.3203 445.182 91.6621 444.446C96.0556 442.078 97.6868 436.553 95.319 432.159C92.9249 427.766 87.4264 426.135 83.0328 428.502C78.6393 430.897 76.9819 436.395 79.376 440.789C80.5336 442.92 82.4541 444.472 84.7692 445.156C85.6111 445.445 86.4793 445.551 87.3475 445.551Z" fill="#431F20"/>
<path fill-rule="evenodd" clip-rule="evenodd" d="M68.1952 393.828C68.8529 393.828 69.5369 393.933 70.1946 394.117C71.9836 394.643 73.4569 395.827 74.3251 397.484C76.1667 400.852 74.9039 405.088 71.51 406.929C69.8789 407.824 67.9847 408.008 66.1957 407.482C64.4067 406.956 62.9334 405.772 62.0653 404.114C60.2237 400.747 61.4865 396.511 64.8803 394.669C65.9063 394.091 67.0376 393.828 68.1952 393.828ZM68.2215 409.876C69.7211 409.876 71.1944 409.507 72.5361 408.771C74.6671 407.613 76.2193 405.693 76.9034 403.378C77.5874 401.062 77.3506 398.589 76.1931 396.485C75.0355 394.354 73.1149 392.802 70.7997 392.117C68.4846 391.433 66.0379 391.697 63.8806 392.828C59.487 395.222 57.8559 400.72 60.2237 405.114C61.3813 407.245 63.3018 408.797 65.6169 409.481C66.4588 409.744 67.3533 409.876 68.2215 409.876Z" fill="#431F20"/>
<path fill-rule="evenodd" clip-rule="evenodd" d="M77.7164 411.795C80.1894 411.795 82.5834 413.111 83.8463 415.452C85.6879 418.82 84.4251 423.082 81.0313 424.897C79.4002 425.791 77.5059 425.976 75.7169 425.449C73.9279 424.923 72.4547 423.739 71.5865 422.082C70.692 420.451 70.5078 418.556 71.034 416.768C71.5601 414.979 72.744 413.505 74.4015 412.637C75.4538 412.058 76.5851 411.795 77.7164 411.795ZM77.7427 427.843C79.2423 427.843 80.7156 427.475 82.0573 426.738C86.4508 424.371 88.082 418.846 85.7142 414.452C83.3201 410.059 77.8216 408.428 73.4281 410.795C71.2971 411.953 69.7448 413.874 69.0608 416.189C68.3768 418.504 68.6399 420.977 69.7712 423.082C70.9288 425.213 72.8493 426.765 75.1644 427.449C76.0063 427.712 76.8745 427.843 77.7427 427.843Z" fill="#431F20"/>
<path fill-rule="evenodd" clip-rule="evenodd" d="M113.13 447.733C114.525 447.733 117.103 447.312 118.418 446.391L136.229 435.578C136.729 435.289 136.887 434.631 136.571 434.131C136.282 433.632 135.624 433.474 135.124 433.789L117.261 444.655C116.445 445.234 114.367 445.655 113.13 445.655C111.446 445.655 109.868 444.839 108.868 443.497C108 441.971 89.4261 409.296 83.6382 398.062C83.6119 398.036 82.507 395.879 82.507 394.169C82.507 390.196 85.7429 386.96 89.7155 386.96C91.6623 386.96 93.5828 387.986 96.2663 390.512C99.7391 393.774 110.052 403.824 110.157 403.929C110.578 404.324 111.236 404.324 111.631 403.903C112.025 403.482 112.025 402.824 111.604 402.403C111.499 402.298 101.186 392.222 97.687 388.959C94.5563 386.039 92.2411 384.829 89.6892 384.829C84.559 384.829 80.376 389.012 80.376 394.142C80.376 396.379 81.6914 398.904 81.744 399.009C87.6371 410.506 106.842 444.234 107.027 444.576C107.053 444.602 107.079 444.629 107.079 444.681C108.526 446.602 110.789 447.733 113.13 447.733Z" fill="#431F20"/>
<path fill-rule="evenodd" clip-rule="evenodd" d="M112.631 403.482C112.947 403.561 113.446 403.745 113.973 404.114C114.42 404.429 115.183 405.14 115.262 406.192C115.762 411.927 114.341 414.427 113.42 415.032C112.999 415.295 112.762 415.163 112.684 415.111C112.21 414.847 111.789 413.874 111.842 412.348C111.868 411.927 111.947 411.243 112.026 410.375C112.263 408.691 112.552 406.166 112.631 403.482ZM112.999 417.294C113.525 417.294 114.078 417.136 114.578 416.794C116.814 415.374 117.84 411.348 117.393 406.008C117.13 403.114 114.157 401.299 112.289 401.351C111.105 401.404 110.579 402.167 110.553 402.93C110.5 405.692 110.21 408.27 110 410.138C109.895 411.059 109.816 411.769 109.79 412.243C109.684 414.427 110.395 416.189 111.657 416.926C112.078 417.189 112.526 417.294 112.999 417.294Z" fill="#431F20"/>
<path fill-rule="evenodd" clip-rule="evenodd" d="M119.181 408.481C120.838 408.481 124.416 406.876 125.126 406.56C125.652 406.323 125.889 405.692 125.653 405.166C125.416 404.64 124.784 404.403 124.258 404.64C122.68 405.35 120.075 406.376 119.181 406.376C118.865 406.376 117.813 405.824 116.997 405.192C116.523 404.85 115.866 404.955 115.524 405.403C115.182 405.876 115.261 406.534 115.734 406.876C116.208 407.244 117.944 408.481 119.181 408.481Z" fill="#431F20"/>
<path fill-rule="evenodd" clip-rule="evenodd" d="M154.225 427.844L137.756 435.316C135.598 431.133 130.258 430.607 129.995 430.607C127.127 430.607 124.865 428.344 124.865 425.555C124.865 424.556 125.259 423.609 125.706 422.74C130.021 414.269 127.469 407.797 126.154 405.403L140.36 397.3L154.225 427.844ZM137.203 437.789C137.361 437.789 137.493 437.763 137.65 437.684L156.067 429.318C156.593 429.081 156.83 428.449 156.593 427.923L141.834 395.379C141.702 395.116 141.492 394.906 141.202 394.801C140.913 394.695 140.623 394.748 140.36 394.88L124.207 404.088C123.944 404.245 123.76 404.482 123.707 404.772C123.654 405.061 123.707 405.377 123.891 405.613C124.075 405.877 128.627 412.401 123.865 421.767C123.339 422.819 122.786 424.082 122.786 425.529C122.786 429.475 125.996 432.685 129.942 432.685C129.889 432.685 134.941 433.185 136.23 437.052C136.335 437.342 136.546 437.552 136.809 437.684C136.94 437.763 137.072 437.789 137.203 437.789Z" fill="#431F20"/>
<path fill-rule="evenodd" clip-rule="evenodd" d="M137.254 418.926C137.754 418.926 138.254 418.821 138.701 418.637C139.701 418.242 140.464 417.479 140.884 416.479C141.305 415.48 141.305 414.401 140.911 413.401L135.36 399.379C135.149 398.852 134.544 398.563 133.992 398.8C133.465 399.01 133.176 399.615 133.413 400.168L138.964 414.19C139.148 414.664 139.148 415.19 138.938 415.664C138.727 416.137 138.359 416.506 137.912 416.69C137.438 416.874 136.938 416.874 136.465 416.663C135.991 416.453 135.623 416.085 135.439 415.611L130.177 402.352C129.966 401.799 129.361 401.536 128.809 401.773C128.283 401.983 127.993 402.588 128.23 403.141L133.492 416.4C133.886 417.4 134.649 418.189 135.623 418.61C136.175 418.794 136.728 418.926 137.254 418.926Z" fill="#431F20"/>
<path fill-rule="evenodd" clip-rule="evenodd" d="M338.147 401.008C337.042 404.692 333.174 406.796 329.491 405.691C327.702 405.165 326.229 403.981 325.361 402.324C324.466 400.693 324.282 398.798 324.808 397.009C325.913 393.326 329.781 391.222 333.464 392.326C337.147 393.431 339.252 397.325 338.147 401.008ZM331.464 408.085C335.358 408.085 338.989 405.533 340.173 401.613C341.593 396.825 338.857 391.748 334.069 390.327C329.281 388.906 324.229 391.643 322.783 396.431C322.098 398.746 322.362 401.193 323.493 403.324C324.65 405.455 326.571 407.007 328.886 407.691C329.754 407.954 330.623 408.085 331.464 408.085Z" fill="#431F20"/>
<path fill-rule="evenodd" clip-rule="evenodd" d="M332.781 399.404C332.57 400.115 331.807 400.536 331.097 400.325C330.755 400.22 330.465 399.983 330.281 399.668C330.097 399.352 330.071 398.984 330.176 398.642C330.386 397.931 331.149 397.51 331.86 397.721C332.57 397.931 332.991 398.694 332.781 399.404ZM331.465 402.483C332.965 402.483 334.333 401.509 334.78 400.01C335.332 398.194 334.28 396.247 332.465 395.695C330.623 395.142 328.703 396.195 328.15 398.036C327.887 398.931 327.992 399.852 328.413 400.667C328.861 401.483 329.571 402.062 330.465 402.325C330.807 402.43 331.149 402.483 331.465 402.483Z" fill="#431F20"/>
<path fill-rule="evenodd" clip-rule="evenodd" d="M327.019 418.741C326.808 419.451 326.045 419.872 325.335 419.661C324.625 419.451 324.204 418.688 324.414 417.978C324.519 417.636 324.756 417.346 325.072 417.162C325.388 417.004 325.756 416.952 326.098 417.057C326.44 417.162 326.729 417.399 326.914 417.715C327.098 418.03 327.124 418.399 327.019 418.741ZM325.73 421.819C327.229 421.819 328.597 420.845 329.045 419.346C329.308 418.451 329.202 417.531 328.781 416.715C328.334 415.899 327.598 415.321 326.729 415.057C325.861 414.794 324.914 414.9 324.099 415.321C323.283 415.768 322.704 416.478 322.441 417.373C321.889 419.214 322.941 421.135 324.783 421.661C325.072 421.766 325.388 421.819 325.73 421.819Z" fill="#431F20"/>
<path fill-rule="evenodd" clip-rule="evenodd" d="M319.968 436.315C320.1 436.315 320.231 436.342 320.363 436.368C320.705 436.473 320.994 436.71 321.178 437.026C321.362 437.341 321.389 437.71 321.283 438.052C321.178 438.394 320.941 438.683 320.626 438.867C320.31 439.051 319.942 439.078 319.6 438.972C319.258 438.867 318.968 438.63 318.784 438.315C318.6 437.999 318.574 437.631 318.679 437.289C318.863 436.71 319.389 436.315 319.968 436.315ZM319.994 441.13C320.573 441.13 321.126 440.998 321.625 440.709C322.441 440.262 323.02 439.551 323.283 438.657C323.546 437.762 323.441 436.841 323.02 436.026C322.573 435.21 321.862 434.632 320.968 434.368C319.126 433.816 317.206 434.868 316.653 436.684C316.39 437.578 316.495 438.499 316.916 439.314C317.364 440.13 318.1 440.709 318.968 440.972C319.31 441.077 319.652 441.13 319.994 441.13Z" fill="#431F20"/>
<path fill-rule="evenodd" clip-rule="evenodd" d="M313.996 455.758C314.127 455.758 314.259 455.784 314.39 455.81C314.732 455.915 315.022 456.152 315.206 456.468C315.39 456.784 315.416 457.152 315.311 457.494C315.206 457.836 314.969 458.125 314.653 458.283C314.338 458.441 313.969 458.494 313.627 458.389C312.917 458.178 312.496 457.415 312.706 456.705C312.891 456.152 313.417 455.758 313.996 455.758ZM314.022 460.572C314.601 460.572 315.153 460.441 315.653 460.151C316.469 459.704 317.047 458.994 317.31 458.099C317.574 457.205 317.468 456.284 317.047 455.468C316.6 454.653 315.89 454.074 314.995 453.811C313.18 453.258 311.233 454.311 310.707 456.126C310.181 457.968 311.207 459.888 313.048 460.414C313.338 460.519 313.68 460.572 314.022 460.572Z" fill="#431F20"/>
<path fill-rule="evenodd" clip-rule="evenodd" d="M332.414 420.347C331.309 424.03 327.415 426.135 323.758 425.03C320.075 423.925 317.97 420.057 319.075 416.374C319.601 414.585 320.785 413.112 322.443 412.244C324.074 411.349 325.968 411.165 327.757 411.691C329.546 412.217 331.019 413.401 331.887 415.059C332.729 416.663 332.94 418.558 332.414 420.347ZM325.731 427.424C329.651 427.424 333.255 424.872 334.439 420.952C335.123 418.637 334.887 416.19 333.729 414.059C332.571 411.928 330.651 410.376 328.336 409.692C326.021 409.008 323.574 409.244 321.443 410.402C319.312 411.56 317.76 413.48 317.076 415.795C315.655 420.583 318.391 425.635 323.179 427.082C323.995 427.292 324.863 427.424 325.731 427.424Z" fill="#431F20"/>
<path fill-rule="evenodd" clip-rule="evenodd" d="M320.679 459.099C319.574 462.782 315.707 464.887 312.023 463.782C310.234 463.256 308.761 462.072 307.893 460.415C306.998 458.783 306.814 456.889 307.34 455.1C308.445 451.417 312.313 449.312 315.996 450.417C319.679 451.549 321.784 455.416 320.679 459.099ZM313.997 466.176C317.917 466.176 321.521 463.624 322.705 459.704C324.125 454.916 321.389 449.865 316.601 448.418C311.813 446.997 306.762 449.733 305.315 454.522C304.631 456.837 304.894 459.31 306.025 461.441C307.183 463.572 309.103 465.124 311.418 465.808C312.286 466.071 313.155 466.176 313.997 466.176Z" fill="#431F20"/>
<path fill-rule="evenodd" clip-rule="evenodd" d="M326.652 439.658C325.547 443.341 321.679 445.446 317.996 444.341C314.313 443.236 312.208 439.368 313.313 435.685C313.839 433.896 315.05 432.423 316.681 431.555C318.312 430.66 320.206 430.476 321.995 431.002C323.784 431.528 325.257 432.712 326.126 434.37C326.994 436.001 327.178 437.869 326.652 439.658ZM319.969 446.735C323.863 446.735 327.494 444.183 328.678 440.263C329.362 437.948 329.098 435.501 327.967 433.37C326.81 431.239 324.889 429.687 322.574 429.003C320.259 428.319 317.786 428.582 315.681 429.713C313.55 430.871 311.998 432.791 311.314 435.106C309.893 439.895 312.629 444.972 317.417 446.393C318.259 446.63 319.127 446.735 319.969 446.735Z" fill="#431F20"/>
<path fill-rule="evenodd" clip-rule="evenodd" d="M294.083 455.889C296.477 455.889 298.845 454.969 300.686 453.153C302.265 451.575 303.133 448.865 303.159 448.734C307.106 436.447 317.392 399.01 317.498 398.642C317.498 398.616 317.524 398.563 317.524 398.537C317.892 396.195 317.129 393.801 315.446 392.117C314.446 391.118 312.341 389.592 310.763 389.329L290.505 384.383C289.953 384.251 289.374 384.593 289.242 385.146C289.111 385.698 289.453 386.277 290.005 386.408L310.315 391.381C311.315 391.565 313.051 392.723 313.946 393.617C315.13 394.801 315.682 396.485 315.446 398.168C314.972 399.852 305.001 436.105 301.134 448.128C301.134 448.155 300.397 450.496 299.187 451.68C296.372 454.495 291.794 454.495 288.979 451.68C287.585 450.286 286.98 448.234 286.848 444.524C286.69 439.762 286.532 425.371 286.532 425.214C286.532 424.635 286.059 424.161 285.48 424.161H285.454C284.875 424.161 284.401 424.635 284.401 425.24C284.401 425.371 284.586 439.789 284.743 444.577C284.875 448.865 285.664 451.338 287.48 453.153C289.321 454.995 291.689 455.889 294.083 455.889Z" fill="#431F20"/>
<path fill-rule="evenodd" clip-rule="evenodd" d="M291.712 415.005C291.87 415.005 291.976 415.005 292.107 415.031C292.581 415.137 292.66 415.4 292.686 415.505C292.817 416.031 292.449 417.031 291.318 418.057C291.002 418.346 290.45 418.767 289.766 419.32C288.424 420.398 286.451 421.977 284.504 423.792C284.32 423.503 284.109 423.029 284.004 422.398C283.925 421.845 283.872 420.819 284.556 420.004C287.871 416.031 290.45 415.005 291.712 415.005ZM284.504 426.081C284.925 426.081 285.293 425.897 285.583 425.634C287.556 423.739 289.581 422.135 291.055 420.951C291.791 420.372 292.344 419.898 292.712 419.609C294.343 418.136 295.08 416.399 294.685 414.979C294.422 413.953 293.633 413.242 292.554 413.006C289.976 412.427 286.372 414.531 282.925 418.662C281.057 420.898 281.873 424.292 283.215 425.555C283.662 425.923 284.109 426.081 284.504 426.081Z" fill="#431F20"/>
<path fill-rule="evenodd" clip-rule="evenodd" d="M283.689 420.398C283.741 420.398 283.794 420.398 283.846 420.398C284.425 420.32 284.82 419.767 284.741 419.215C284.636 418.609 284.294 416.531 283.426 415.663C282.242 414.505 278.585 413.085 277.848 412.822C277.296 412.611 276.691 412.901 276.506 413.427C276.296 413.979 276.585 414.584 277.138 414.768C278.769 415.373 281.321 416.505 281.952 417.136C282.189 417.373 282.531 418.531 282.663 419.53C282.715 420.03 283.162 420.398 283.689 420.398Z" fill="#431F20"/>
<path fill-rule="evenodd" clip-rule="evenodd" d="M289.266 383.489C287.846 387.988 291.266 392.118 291.424 392.302C293.449 394.328 293.449 397.538 291.476 399.511C290.766 400.221 289.819 400.589 288.898 400.905C279.874 403.852 277.085 410.245 276.296 412.849L260.537 408.508L272.323 377.122L289.266 383.489ZM277.059 415.191C277.269 415.191 277.454 415.138 277.638 415.033C277.901 414.875 278.059 414.612 278.111 414.323C278.164 413.954 279.585 406.167 289.556 402.905C290.661 402.536 291.95 402.036 292.976 401.01C295.764 398.222 295.764 393.697 292.976 390.908C292.976 390.908 289.792 387.014 291.608 383.384C291.739 383.121 291.766 382.805 291.634 382.542C291.529 382.252 291.292 382.042 291.029 381.937L272.113 374.833C271.56 374.623 270.955 374.912 270.745 375.438L258.169 408.877C258.064 409.14 258.09 409.455 258.222 409.719C258.354 409.982 258.59 410.166 258.88 410.245L276.796 415.164C276.875 415.191 276.98 415.191 277.059 415.191Z" fill="#431F20"/>
<path fill-rule="evenodd" clip-rule="evenodd" d="M272.217 413.637C272.612 413.637 273.006 413.4 273.191 413.005L278.847 399.904C279.741 397.878 278.794 395.484 276.769 394.616C274.743 393.748 272.375 394.695 271.48 396.72L265.508 410.585C265.272 411.111 265.535 411.743 266.061 411.979C266.587 412.216 267.219 411.953 267.455 411.427L273.427 397.562C273.848 396.589 274.98 396.142 275.927 396.536C276.9 396.957 277.321 398.089 276.9 399.062L271.244 412.137C271.007 412.663 271.27 413.295 271.796 413.532C271.954 413.611 272.086 413.637 272.217 413.637Z" fill="#431F20"/>
</svg>
