<svg viewBox="0 0 361 468" fill="none" xmlns="http://www.w3.org/2000/svg">
<path fill-rule="evenodd" clip-rule="evenodd" d="M124.734 406.422C124.734 406.422 120.735 408.268 119.235 408.268C118.262 408.268 116.42 406.896 116.42 406.896L110.974 403.996C110.974 403.996 100.609 393.843 97.0835 390.547C94.3211 387.963 92.1901 386.697 89.796 386.697C85.2183 386.697 81.5352 390.415 81.5352 395.004C81.5352 397.008 82.7979 399.381 82.7979 399.381C88.77 411.01 108.081 445.027 108.081 445.027C109.238 446.635 111.106 447.664 113.237 447.664C114.579 447.664 116.894 447.242 117.92 446.53L135.784 435.639L124.734 406.422Z" fill="#C2BC8B"/>
<path fill-rule="evenodd" clip-rule="evenodd" d="M199.474 206.487C200.658 203.666 200.921 200.501 198.054 196.097L198.895 195.517C191.634 200.237 180.479 201.846 171.771 198.418C147.857 188.951 153.355 155.673 144.489 152.429L147.541 154.934C164.615 153.511 179.217 131.149 185.741 136.871C187.53 138.427 189.951 139.904 190.345 152.113C190.424 154.513 193.502 155.567 195.291 152.667C196.764 150.267 199.448 148.843 202.342 148.843C207.209 148.843 211.155 153.168 211.155 158.468C211.155 159.365 211.05 160.208 210.84 161.026C210.84 161.026 209.735 166.695 209.866 168.594C209.998 170.493 211.445 171.996 212.76 172.101L212.629 172.681C212.629 181.119 219.101 190.375 223.099 186.868C223.099 186.868 233.754 198.128 218.785 208.544C206.788 216.85 199.474 206.487 199.474 206.487Z" fill="#FED889"/>
<path fill-rule="evenodd" clip-rule="evenodd" d="M237.043 331.163C238.517 330.53 240.148 330.188 241.858 330.188C248.698 330.188 254.223 335.699 254.223 342.502C254.223 347.697 250.987 352.127 246.436 353.946L207.236 370.322C205.815 370.876 204.289 371.192 202.658 371.192C195.818 371.192 190.293 365.681 190.293 358.878C190.293 354.342 192.766 350.36 196.449 348.251L237.043 331.163Z" fill="#40A4CE"/>
<path fill-rule="evenodd" clip-rule="evenodd" d="M153.17 396.376L239.936 356.373C241.409 355.74 243.04 355.397 244.75 355.397C251.591 355.397 257.115 360.909 257.115 367.712C257.115 372.907 253.879 377.337 249.328 379.156L163.009 418.896L153.17 396.376Z" fill="#93C8E3"/>
<path fill-rule="evenodd" clip-rule="evenodd" d="M234.677 285.465C227.521 289.473 213.972 310.911 213.972 310.911L185.375 323.542C181.744 326.337 178.745 330.161 178.745 335.092C178.745 342.476 184.717 348.462 192.084 348.462C193.82 348.462 195.477 348.119 197.003 347.512L276.561 314.26C286.058 309.303 292.556 297.225 292.556 285.728C292.556 283.012 292.188 280.375 291.504 277.896C291.557 277.923 247.2 278.45 234.677 285.465Z" fill="#93C8E3"/>
<path fill-rule="evenodd" clip-rule="evenodd" d="M89.9531 458.977C92.0578 462.879 96.9249 464.33 100.819 462.22C104.712 460.11 106.159 455.232 104.055 451.329C101.95 447.427 97.0828 445.976 93.1891 448.086C89.2691 450.195 87.8484 455.074 89.9531 458.977Z" fill="#FEFEFE"/>
<path fill-rule="evenodd" clip-rule="evenodd" d="M87.3725 436.009C87.504 436.009 87.6355 436.036 87.7671 436.062C88.1091 436.168 88.3985 436.405 88.5827 436.721C88.7405 437.038 88.7931 437.407 88.6879 437.75C88.5827 438.093 88.3459 438.383 88.0302 438.567C87.7145 438.752 87.3461 438.778 87.0041 438.673C86.6621 438.567 86.3727 438.33 86.1885 438.013C85.8202 437.354 86.0833 436.537 86.741 436.168C86.9252 436.062 87.162 436.009 87.3725 436.009ZM87.3987 440.835C87.9775 440.835 88.53 440.703 89.0299 440.413C89.8454 439.965 90.4242 439.253 90.6873 438.356C90.9504 437.46 90.8452 436.537 90.4242 435.719C89.977 434.902 89.2403 434.322 88.3721 434.058C87.4776 433.794 86.5568 433.9 85.7413 434.348C84.9257 434.796 84.347 435.508 84.0839 436.405C83.8208 437.301 83.926 438.224 84.3469 439.042C84.7942 439.859 85.5308 440.466 86.399 440.703C86.7147 440.782 87.0567 440.835 87.3987 440.835Z" fill="#391D1D"/>
<path fill-rule="evenodd" clip-rule="evenodd" d="M77.7716 418.262C78.2451 418.262 78.7187 418.526 78.9555 418.974C79.3238 419.633 79.0607 420.451 78.403 420.82C77.7453 421.162 76.9297 420.925 76.5614 420.266C76.4035 419.949 76.3509 419.58 76.4561 419.238C76.5614 418.895 76.7981 418.605 77.1138 418.42C77.3506 418.315 77.5611 418.262 77.7716 418.262ZM77.7979 423.087C78.3504 423.087 78.9028 422.956 79.429 422.665C81.1128 421.769 81.7179 419.659 80.8234 417.972C79.9026 416.284 77.7979 415.678 76.1404 416.574C75.3249 417.022 74.7461 417.734 74.483 418.631C74.2199 419.528 74.3252 420.45 74.7724 421.268C75.3775 422.428 76.5614 423.087 77.7979 423.087Z" fill="#391D1D"/>
<path fill-rule="evenodd" clip-rule="evenodd" d="M68.2494 400.251C68.3809 400.251 68.5124 400.277 68.644 400.304C68.986 400.409 69.2754 400.646 69.4595 400.963C69.8279 401.622 69.5648 402.44 68.9071 402.809C68.5914 402.967 68.2231 403.02 67.8811 402.914C67.5391 402.809 67.2497 402.571 67.0655 402.255C66.9077 401.939 66.855 401.569 66.9603 401.227C67.0655 400.884 67.3023 400.594 67.618 400.409C67.8021 400.304 68.0389 400.251 68.2494 400.251ZM68.2494 405.077C68.8282 405.077 69.3806 404.945 69.8805 404.655C71.5642 403.732 72.1693 401.649 71.2748 399.961C70.8276 399.143 70.1173 398.563 69.2228 398.3C68.3283 398.036 67.4075 398.141 66.5919 398.563C65.7763 399.012 65.1975 399.724 64.9344 400.62C64.6714 401.517 64.7766 402.44 65.1975 403.257C65.6448 404.075 66.3551 404.655 67.2496 404.918C67.5916 405.024 67.9337 405.077 68.2494 405.077Z" fill="#391D1D"/>
<path fill-rule="evenodd" clip-rule="evenodd" d="M80.3247 441.204C82.4294 445.106 87.2966 446.557 91.1902 444.447C95.0839 442.337 96.5309 437.459 94.4262 433.556C92.3215 429.654 87.4544 428.203 83.5607 430.313C79.6671 432.422 78.2201 437.301 80.3247 441.204Z" fill="#FEFEFE"/>
<path fill-rule="evenodd" clip-rule="evenodd" d="M61.1958 405.421C63.3005 409.323 68.1676 410.774 72.0613 408.664C75.955 406.555 77.4019 401.676 75.2972 397.774C73.1926 393.871 68.3255 392.421 64.4318 394.53C60.5382 396.64 59.0911 401.518 61.1958 405.421Z" fill="#FEFEFE"/>
<path fill-rule="evenodd" clip-rule="evenodd" d="M70.7203 423.431C72.8249 427.333 77.692 428.784 81.5857 426.674C85.4794 424.564 86.9264 419.686 84.8217 415.783C82.717 411.881 77.8499 410.43 73.9562 412.54C70.0626 414.649 68.6156 419.528 70.7203 423.431Z" fill="#FEFEFE"/>
<path fill-rule="evenodd" clip-rule="evenodd" d="M221.994 391.628L251.591 399.829L258.142 380.105L251.802 378.18L221.994 391.628Z" fill="#4B9ECA"/>
<path fill-rule="evenodd" clip-rule="evenodd" d="M230.969 190.587C231.048 190.587 231.153 190.587 231.232 190.561C231.785 190.429 232.127 189.849 231.995 189.269C231.206 186.21 229.785 183.415 227.47 180.435C227.102 179.986 226.444 179.907 225.997 180.25C225.55 180.619 225.471 181.279 225.813 181.727C227.944 184.443 229.259 187.001 229.969 189.77C230.075 190.271 230.496 190.587 230.969 190.587Z" fill="#391D1D"/>
<path fill-rule="evenodd" clip-rule="evenodd" d="M209.894 218.222C220.602 218.222 229.994 210.601 232.204 200.08C232.336 199.499 231.967 198.946 231.389 198.84C230.81 198.708 230.257 199.078 230.152 199.658C228.153 209.204 219.629 216.112 209.894 216.112C204.659 216.112 198.792 213.027 194.241 207.885C193.846 207.463 193.188 207.41 192.768 207.806C192.32 208.202 192.294 208.861 192.689 209.309C197.608 214.899 204.054 218.222 209.894 218.222Z" fill="#391D1D"/>
<path fill-rule="evenodd" clip-rule="evenodd" d="M154.015 425.304L161.987 422.007C161.987 422.007 164.434 417.076 159.593 406.924C155.042 397.378 150.043 394.794 150.043 394.794L142.124 399.119L154.015 425.304Z" fill="#93C8E3"/>
<path fill-rule="evenodd" clip-rule="evenodd" d="M269.009 380.686L261.037 377.363C261.037 377.363 255.854 379.104 252.092 389.731C248.567 399.698 250.277 405.078 250.277 405.078L258.906 407.636L269.009 380.686Z" fill="#4B9ECA"/>
<path fill-rule="evenodd" clip-rule="evenodd" d="M194.897 152.957C196.37 150.558 199.053 149.134 201.947 149.134C206.815 149.134 210.761 153.458 210.761 158.759C210.761 159.655 210.656 160.499 210.445 161.317C210.445 161.317 209.34 166.986 209.472 168.885C209.708 172.286 214.234 174.501 214.47 169.333C214.891 160.605 214.997 142.541 214.865 138.902C214.628 132.679 213.655 106.89 188.635 106.89C181.4 106.89 171.719 107.364 165.589 111.241C153.04 119.178 148.62 124.478 143.99 131.914C133.992 147.947 143.069 154.487 145.016 154.724C162.537 156.755 178.033 130.728 185.347 137.136C187.136 138.691 189.556 140.168 189.951 152.377C190.03 154.803 193.108 155.858 194.897 152.957Z" fill="#BC4520"/>
<path fill-rule="evenodd" clip-rule="evenodd" d="M260.642 196.098C260.642 196.098 299.132 222.705 299.132 273.862C299.132 281.931 292.607 281.931 292.607 281.931L291.607 277.475C289.608 277.343 287.608 277.29 285.583 277.29C256.775 277.29 230.992 290.211 213.681 310.595L215.996 307.8C215.996 307.8 208.551 305.927 212.576 299.467C221.153 285.676 217.785 261.679 207.288 243.247L206.262 243.853C194.371 252.845 179.769 258.541 163.774 259.438L164.063 259.57C162.616 259.781 160.432 252.503 158.67 243.352L156.276 227.109C155.565 219.567 155.907 214.926 157.302 214.715L158.065 214.9C158.065 214.9 180.558 216.904 197.396 205.617L198.054 205.828C200.948 209.098 205.183 211.181 209.893 211.181C218.627 211.181 226.046 204.088 225.678 195.36C225.441 189.4 222.1 185.418 222.1 185.418C229.992 179.802 238.306 160.077 237.938 142.04C238.648 139.878 244.857 139.878 253.249 141.671L269.324 146.523C280.031 150.663 287.45 155.515 286.582 158.126C283.241 168.014 273.349 185.418 259.642 196.678L260.642 196.098Z" fill="#2DB6E0"/>
<path fill-rule="evenodd" clip-rule="evenodd" d="M110.895 413.146C110.58 419.369 117.446 418.895 116.394 406.949C116.105 403.811 111.685 402.361 111.658 403.785C111.553 407.925 110.948 411.775 110.895 413.146Z" fill="#FEFEFE"/>
<path fill-rule="evenodd" clip-rule="evenodd" d="M124.759 405.868C124.759 405.868 129.968 413.041 124.838 423.166C124.338 424.168 123.891 425.25 123.891 426.463C123.891 429.838 126.627 432.58 129.994 432.58C129.994 432.58 135.756 433.081 137.282 437.67L155.698 429.284L140.939 396.665L124.759 405.868Z" fill="#FEFEFE"/>
<path fill-rule="evenodd" clip-rule="evenodd" d="M158.802 243.167C160.564 252.317 162.748 259.622 164.195 259.384C166.063 259.094 166.036 246.727 164.168 234.333C162.301 221.939 159.275 214.213 157.433 214.503C156.039 214.714 155.697 219.355 156.407 226.897L158.802 243.167Z" fill="#216CA4"/>
<path fill-rule="evenodd" clip-rule="evenodd" d="M162.749 227.082C153.331 229.034 143.517 229.93 133.494 229.693C92.1893 228.691 55.9361 208.281 33.6 177.586L31.9162 177.033C34.1788 176.215 36.073 174.369 36.8623 171.891C37.3621 170.309 37.3621 168.674 36.9149 167.17C36.757 166.669 33.7315 158.02 40.6244 150.531L40.9138 149.846C41.4663 148 40.4139 146.048 38.5723 145.521C37.5989 145.231 36.5729 145.389 35.7836 145.89C35.0733 146.338 27.9174 152.483 31.548 159.444L30.364 155.752C30.364 155.752 24.1288 142.119 24.0762 142.067C23.2344 140.722 21.5243 140.168 20.051 140.827C18.5514 141.513 17.8148 143.174 18.2884 144.704C18.3147 144.783 21.5243 151.665 21.577 151.744L23.5238 156.834C23.4975 156.807 23.4975 156.755 23.4712 156.728C23.4449 156.649 21.4717 152.166 21.4454 152.087C20.6298 150.689 18.8935 150.109 17.3939 150.769C15.9206 151.428 15.1577 153.063 15.5786 154.592C15.6049 154.645 17.5254 159.101 17.5517 159.154C17.5781 159.233 17.6044 159.312 17.657 159.391L17.5254 159.233C17.4991 159.18 17.4991 159.154 17.4728 159.101C17.4465 159.022 15.4996 154.539 15.447 154.46C14.6314 153.063 12.9214 152.483 11.3955 153.142C9.89594 153.801 9.15929 155.436 9.58023 156.965C9.60654 157.018 11.5271 161.475 11.5534 161.554C11.5797 161.633 11.6059 161.712 11.6586 161.791L9.79066 157.414C9.76435 157.335 6.87039 150.294 6.81777 150.241C6.00221 148.87 4.2922 148.263 2.7663 148.923C1.29302 149.582 0.530063 151.217 0.951001 152.746C0.977309 152.799 11.3692 175.925 11.3692 175.925C12.6846 178.351 14.9208 180.25 17.7622 181.094C21.1034 182.069 24.5235 181.357 27.128 179.459L18.9987 181.199C42.9658 218.697 84.4546 243.959 132.205 245.146C143.333 245.409 154.199 244.354 164.643 242.139L162.749 227.082Z" fill="#FED889"/>
<path fill-rule="evenodd" clip-rule="evenodd" d="M253.461 141.486C245.068 139.693 238.86 139.719 238.149 141.855C237.439 143.991 242.253 147.604 249.857 151.111C253.04 152.588 256.723 154.038 260.696 155.356C274.139 159.787 285.821 160.947 286.82 157.941C287.662 155.33 280.269 150.478 269.562 146.338L253.461 141.486Z" fill="#216CA4"/>
<path fill-rule="evenodd" clip-rule="evenodd" d="M250.226 150.952C270.01 102.854 249.305 62.8249 226.89 39.936L227.863 38.3802C226.416 40.3579 224.128 41.65 221.497 41.7291C219.813 41.7555 218.261 41.2808 216.945 40.437C216.498 40.1469 209.026 34.7675 199.871 39.3031L199.134 39.3822C197.187 39.3822 195.635 37.8 195.635 35.8751C195.635 34.8466 196.083 33.9237 196.793 33.2645C197.424 32.7107 205.396 27.5422 211.052 33.0271L207.842 30.8385C207.842 30.8385 196.503 20.9235 196.451 20.8707C195.399 19.6841 195.346 17.8646 196.398 16.6252C197.477 15.3595 199.292 15.1222 200.634 16.0187C200.713 16.0715 206.422 21.1345 206.474 21.1872L210.815 24.5098C210.789 24.4834 210.736 24.457 210.71 24.4306C210.657 24.3779 206.895 21.2135 206.816 21.1608C205.711 19.9742 205.633 18.1283 206.685 16.8626C207.737 15.6232 209.526 15.3595 210.868 16.2033C210.921 16.2297 214.683 19.3677 214.709 19.394C214.788 19.4468 214.841 19.4995 214.919 19.5522L214.814 19.394C214.788 19.3677 214.762 19.3413 214.709 19.3149C214.656 19.2622 210.894 16.0978 210.815 16.0451C209.71 14.8584 209.631 13.039 210.684 11.7469C211.736 10.4811 213.525 10.2438 214.867 11.0876C214.92 11.114 218.655 14.2519 218.708 14.2783C218.787 14.3311 218.84 14.3838 218.918 14.4365L215.235 11.3777C215.183 11.3249 209.211 6.52566 209.158 6.47292C208.053 5.28629 207.974 3.4404 209.026 2.17466C210.079 0.908915 211.868 0.645218 213.209 1.51542C213.262 1.54179 232.573 18.1811 232.573 18.1811C234.519 20.1324 235.73 22.8485 235.73 25.8282C235.73 26.883 235.572 27.9114 235.309 28.8607L235.73 28.9926C270.799 58.8694 284.427 112.927 265.353 157.07L250.226 150.952Z" fill="#FED889"/>
<path fill-rule="evenodd" clip-rule="evenodd" d="M129.23 403.522L134.492 416.812C135.097 418.342 136.834 419.106 138.333 418.5C139.833 417.893 140.57 416.153 139.964 414.623L134.413 400.568L129.23 403.522Z" fill="#C2BC8B"/>
<path fill-rule="evenodd" clip-rule="evenodd" d="M339.175 402.23C340.437 397.984 338.017 393.502 333.781 392.236C329.546 390.97 325.073 393.396 323.81 397.642C322.548 401.887 324.968 406.37 329.204 407.636C333.439 408.902 337.885 406.502 339.175 402.23Z" fill="#FEFEFE"/>
<path fill-rule="evenodd" clip-rule="evenodd" d="M333.412 421.611C334.675 417.365 332.254 412.882 328.019 411.616C323.783 410.351 319.311 412.777 318.048 417.022C316.785 421.268 319.205 425.751 323.441 427.016C327.677 428.282 332.149 425.856 333.412 421.611Z" fill="#FEFEFE"/>
<path fill-rule="evenodd" clip-rule="evenodd" d="M321.68 460.48C322.942 456.235 320.522 451.752 316.286 450.486C312.051 449.22 307.578 451.646 306.315 455.892C305.052 460.137 307.473 464.62 311.709 465.886C315.971 467.152 320.417 464.726 321.68 460.48Z" fill="#FEFEFE"/>
<path fill-rule="evenodd" clip-rule="evenodd" d="M327.677 440.966C328.939 436.72 326.519 432.238 322.283 430.972C318.048 429.706 313.575 432.132 312.312 436.378C311.05 440.623 313.47 445.106 317.706 446.372C321.941 447.664 326.387 445.238 327.677 440.966Z" fill="#FEFEFE"/>
<path fill-rule="evenodd" clip-rule="evenodd" d="M277.479 414.728C277.479 414.728 281.584 416.257 282.662 417.338C283.346 418.024 283.688 420.318 283.688 420.318L285.477 426.225C285.477 426.225 285.635 440.755 285.793 445.58C285.925 449.351 286.53 451.777 288.213 453.465C291.449 456.708 296.685 456.708 299.921 453.465C301.341 452.041 302.131 449.483 302.131 449.483C306.13 437.036 316.469 399.301 316.469 399.301C316.785 397.35 316.18 395.293 314.68 393.79C313.733 392.841 311.786 391.496 310.549 391.285L290.239 386.301L277.479 414.728Z" fill="#928C6A"/>
<path fill-rule="evenodd" clip-rule="evenodd" d="M277.059 415.098C277.059 415.098 278.427 406.344 289.213 402.837C290.292 402.494 291.371 402.045 292.213 401.202C294.58 398.802 294.58 394.952 292.213 392.552C292.213 392.552 288.477 388.122 290.634 383.798L271.692 376.678L259.143 410.167L277.059 415.098Z" fill="#AEAB92"/>
<path fill-rule="evenodd" clip-rule="evenodd" d="M272.218 413.542L277.874 400.437C278.532 398.934 277.848 397.167 276.348 396.534C274.849 395.875 273.112 396.587 272.454 398.09L266.482 411.987L272.218 413.542Z" fill="#928C6A"/>
<path fill-rule="evenodd" clip-rule="evenodd" d="M292.002 419.791C296.606 415.598 291.45 411.089 283.741 420.292C281.715 422.718 283.82 426.858 284.846 425.883C287.845 423.008 291.003 420.714 292.002 419.791Z" fill="#FEFEFE"/>
<path fill-rule="evenodd" clip-rule="evenodd" d="M15.4723 464.909H36.8875C37.4663 464.909 37.9398 464.435 37.9398 463.855C37.9398 463.274 37.4663 462.8 36.8875 462.8H15.4723C14.8935 462.8 14.4199 463.274 14.4199 463.855C14.4199 464.435 14.8935 464.909 15.4723 464.909Z" fill="#431F20"/>
<path fill-rule="evenodd" clip-rule="evenodd" d="M8.70839 463.617H26.7561L30.3341 434.347H6.70898L8.70839 463.617Z" fill="#93C8E3"/>
<path fill-rule="evenodd" clip-rule="evenodd" d="M25.8114 462.562H9.71052L7.29017 423.614H29.6788L25.8114 462.562ZM8.71078 464.672H26.7585C27.311 464.672 27.7582 464.25 27.8109 463.723L31.8887 422.665C31.915 422.375 31.8098 422.085 31.6256 421.848C31.4152 421.637 31.152 421.505 30.8363 421.505H6.15884C5.86944 421.505 5.58011 421.637 5.39595 421.848C5.18548 422.059 5.0802 422.349 5.10651 422.639L7.65845 463.696C7.71107 464.25 8.1583 464.672 8.71078 464.672Z" fill="#431F20"/>
<path fill-rule="evenodd" clip-rule="evenodd" d="M22.3398 461.613C22.8923 461.613 23.3395 461.191 23.3922 460.637L23.7868 455.653C23.8394 455.073 23.3922 454.572 22.8134 454.519C22.2346 454.493 21.7347 454.915 21.6821 455.495L21.2874 460.479C21.2348 461.059 21.6821 461.56 22.2609 461.613C22.2872 461.613 22.3135 461.613 22.3398 461.613Z" fill="#FEFEFE"/>
<path fill-rule="evenodd" clip-rule="evenodd" d="M22.9961 453.518C23.5486 453.518 23.9958 453.097 24.0484 452.543L25.206 438.277C25.2586 437.697 24.8114 437.196 24.2589 437.143C23.6801 437.09 23.1802 437.538 23.1276 438.119L21.97 452.385C21.9174 452.965 22.3646 453.466 22.9434 453.518C22.9434 453.518 22.9698 453.518 22.9961 453.518Z" fill="#FEFEFE"/>
<path fill-rule="evenodd" clip-rule="evenodd" d="M202.581 463.617H220.629L224.207 434.347H200.582L202.581 463.617Z" fill="#93C8E3"/>
<path fill-rule="evenodd" clip-rule="evenodd" d="M219.679 462.562H203.578L201.157 423.614H223.546L219.679 462.562ZM202.578 464.672H220.626C221.178 464.672 221.625 464.25 221.678 463.723L225.756 422.665C225.782 422.375 225.677 422.085 225.493 421.848C225.282 421.637 225.019 421.505 224.703 421.505H200.026C199.737 421.505 199.447 421.637 199.263 421.848C199.079 422.059 198.974 422.349 198.974 422.639L201.526 463.696C201.578 464.25 202.025 464.672 202.578 464.672Z" fill="#431F20"/>
<path fill-rule="evenodd" clip-rule="evenodd" d="M216.207 461.613C216.759 461.613 217.207 461.191 217.259 460.637L217.654 455.653C217.707 455.073 217.259 454.572 216.681 454.519C216.102 454.493 215.602 454.915 215.549 455.495L215.155 460.479C215.102 461.059 215.549 461.56 216.128 461.613C216.154 461.613 216.181 461.613 216.207 461.613Z" fill="#FEFEFE"/>
<path fill-rule="evenodd" clip-rule="evenodd" d="M216.864 453.518C217.417 453.518 217.864 453.097 217.917 452.543L219.074 438.277C219.127 437.697 218.679 437.196 218.101 437.143C217.548 437.09 217.022 437.538 216.969 438.119L215.812 452.385C215.759 452.965 216.206 453.466 216.785 453.518C216.812 453.518 216.838 453.518 216.864 453.518Z" fill="#FEFEFE"/>
<path fill-rule="evenodd" clip-rule="evenodd" d="M265.774 158.178C266.169 158.178 266.563 157.941 266.747 157.546C275.982 136.186 277.928 111.293 272.298 87.4815C266.721 64.0125 254.146 42.9695 236.834 28.2289C236.387 27.8597 235.729 27.9125 235.361 28.3608C234.993 28.809 235.045 29.4683 235.493 29.8374C271.115 60.2153 283.453 113.561 264.827 156.702C264.59 157.229 264.853 157.862 265.379 158.099C265.484 158.152 265.616 158.178 265.774 158.178Z" fill="#431F20"/>
<path fill-rule="evenodd" clip-rule="evenodd" d="M250.54 151.032C250.961 151.032 251.356 150.795 251.513 150.373C260.564 128.354 261.984 106.441 255.723 85.2137C249.54 64.329 237.228 48.6918 227.967 39.2514C227.572 38.8295 226.888 38.8295 226.494 39.2251C226.073 39.6206 226.073 40.3062 226.468 40.7018C240.832 55.3633 271.876 95.3397 249.567 149.529C249.356 150.057 249.593 150.689 250.145 150.9C250.277 151.006 250.408 151.032 250.54 151.032Z" fill="#431F20"/>
<path fill-rule="evenodd" clip-rule="evenodd" d="M162.64 216.19C170.112 216.19 185.634 215.056 198.262 206.592C198.735 206.275 198.867 205.616 198.551 205.141C198.236 204.667 197.578 204.535 197.104 204.851C180.793 215.768 158.667 213.975 158.431 213.949C157.852 213.896 157.352 214.318 157.299 214.898C157.247 215.478 157.668 215.979 158.246 216.032C158.483 216.058 160.088 216.19 162.64 216.19Z" fill="#431F20"/>
<path fill-rule="evenodd" clip-rule="evenodd" d="M242.175 331.321C248.41 331.321 253.488 336.384 253.488 342.581C253.488 347.222 250.699 351.309 246.358 353.05L207.132 369.425C205.816 369.952 204.422 370.216 202.975 370.216C196.74 370.216 191.662 365.153 191.662 358.956C191.662 355.001 193.793 351.283 197.24 349.252L237.781 332.218C239.149 331.611 240.623 331.321 242.175 331.321ZM202.949 372.299C204.659 372.299 206.342 371.983 207.895 371.35L247.121 354.975C252.251 352.944 255.566 348.066 255.566 342.554C255.566 335.197 249.541 329.185 242.149 329.185C240.333 329.185 238.571 329.528 236.939 330.24L196.319 347.301C196.266 347.327 196.24 347.327 196.214 347.354C192.083 349.753 189.531 354.157 189.531 358.904C189.531 366.287 195.556 372.299 202.949 372.299Z" fill="#431F20"/>
<path fill-rule="evenodd" clip-rule="evenodd" d="M163.301 420.028C163.459 420.028 163.591 420.002 163.749 419.923L250.067 380.184C255.145 378.18 258.486 373.301 258.486 367.79C258.486 360.433 252.461 354.42 245.069 354.42C243.253 354.42 241.491 354.763 239.859 355.475L153.067 395.478C152.541 395.715 152.304 396.348 152.541 396.876C152.778 397.403 153.409 397.64 153.935 397.403L240.701 357.4C242.069 356.82 243.543 356.53 245.069 356.53C251.304 356.53 256.381 361.567 256.381 367.79C256.381 372.431 253.593 376.518 249.252 378.232L162.88 417.998C162.354 418.235 162.118 418.868 162.354 419.395C162.538 419.791 162.907 420.028 163.301 420.028Z" fill="#431F20"/>
<path fill-rule="evenodd" clip-rule="evenodd" d="M192.398 349.594C194.24 349.594 196.029 349.252 197.712 348.592L277.296 315.34C286.978 310.304 293.949 297.91 293.949 285.859C293.949 283.09 293.581 280.374 292.871 277.737C292.713 277.183 292.134 276.84 291.582 276.999C291.029 277.157 290.687 277.737 290.845 278.291C291.503 280.743 291.845 283.301 291.845 285.859C291.845 297.171 285.347 308.774 276.428 313.442L196.95 346.641C195.529 347.221 194.003 347.511 192.424 347.511C185.663 347.511 180.138 342 180.138 335.197C180.138 331.294 182.19 327.708 186.268 324.543L238.649 301.391C239.175 301.153 239.412 300.547 239.201 299.993C238.964 299.466 238.333 299.228 237.807 299.439L185.321 322.645C185.242 322.671 185.163 322.724 185.111 322.776C180.428 326.363 178.06 330.529 178.06 335.17C178.007 343.134 184.479 349.594 192.398 349.594Z" fill="#431F20"/>
<path fill-rule="evenodd" clip-rule="evenodd" d="M266.353 98.9514C266.589 98.9514 266.8 98.925 267.037 98.8723C267.905 98.6877 268.641 98.1867 269.115 97.422C269.588 96.6836 269.746 95.7871 269.562 94.9169C269.431 94.3368 268.878 93.9939 268.299 94.1258C267.721 94.2576 267.379 94.8114 267.484 95.3652C267.563 95.6816 267.484 95.9981 267.326 96.2618C267.142 96.5255 266.879 96.71 266.563 96.7891C265.932 96.921 265.274 96.5254 265.142 95.8662C265.011 95.2861 264.458 94.9433 263.906 95.0487C263.327 95.1806 262.985 95.7344 263.09 96.2881C263.459 97.8967 264.853 98.9514 266.353 98.9514Z" fill="#431F20"/>
<path fill-rule="evenodd" clip-rule="evenodd" d="M81.2983 231.011C81.614 231.011 81.9297 230.984 82.2191 230.905C83.2714 230.668 84.1396 230.035 84.6921 229.112C85.2446 228.216 85.4288 227.135 85.192 226.08C84.9552 225.025 84.3238 224.155 83.403 223.601C82.9032 223.285 82.2717 223.443 81.956 223.944C81.6403 224.445 81.7981 225.078 82.298 225.394C82.719 225.658 83.0347 226.08 83.1399 226.581C83.2452 227.082 83.1662 227.583 82.9031 228.005C82.6401 228.427 82.2191 228.743 81.7192 228.849C81.2194 228.954 80.7195 228.875 80.2986 228.611C79.7987 228.295 79.1673 228.453 78.8516 228.954C78.5359 229.455 78.6937 230.088 79.1936 230.404C79.8513 230.826 80.5616 231.011 81.2983 231.011Z" fill="#431F20"/>
<path fill-rule="evenodd" clip-rule="evenodd" d="M135.833 246.331C145.699 246.331 155.512 245.303 165.062 243.246C165.641 243.114 165.983 242.561 165.878 242.007C165.746 241.427 165.194 241.084 164.641 241.189C154.144 243.431 143.305 244.459 132.439 244.169C86.7675 243.062 44.779 219.329 20.1015 180.724C19.7858 180.223 19.128 180.091 18.6544 180.408C18.1546 180.724 18.023 181.383 18.3388 181.858C43.3846 221.069 86.0309 245.145 132.413 246.279C133.518 246.305 134.676 246.331 135.833 246.331Z" fill="#431F20"/>
<path fill-rule="evenodd" clip-rule="evenodd" d="M136.991 230.879C145.857 230.879 154.67 229.982 163.273 228.216C163.852 228.11 164.22 227.53 164.089 226.976C163.957 226.396 163.405 226.053 162.852 226.159C153.381 228.11 143.621 229.007 133.834 228.743C94.0815 227.767 57.9599 208.939 34.7557 177.085C34.4136 176.61 33.7559 176.505 33.2823 176.848C32.8087 177.191 32.7035 177.85 33.0455 178.324C56.6444 210.706 93.3449 229.851 133.781 230.853C134.834 230.853 135.912 230.879 136.991 230.879Z" fill="#431F20"/>
<path fill-rule="evenodd" clip-rule="evenodd" d="M164.168 260.756C164.3 260.756 164.405 260.729 164.484 260.729C169.061 260.017 165.378 234.755 165.352 234.492C165.01 232.303 162.011 213.079 157.407 213.765C156.46 213.897 154.276 214.24 155.486 227.319C155.539 227.899 156.065 228.321 156.617 228.268C157.196 228.216 157.617 227.688 157.565 227.108C156.802 219.013 157.459 216.587 157.749 215.98C158.933 217.008 161.458 223.047 163.221 234.808C164.957 246.252 164.878 255.693 164.089 258.224C163.221 256.774 161.642 252.159 159.906 243.246C159.801 242.666 159.248 242.297 158.67 242.402C158.091 242.508 157.722 243.062 157.828 243.642C160.958 259.437 163.063 260.756 164.168 260.756Z" fill="#431F20"/>
<path fill-rule="evenodd" clip-rule="evenodd" d="M99.0045 464.435H146.912C147.491 464.435 147.965 463.96 147.965 463.38C147.965 462.8 147.491 462.325 146.912 462.325H99.0045C98.4257 462.325 97.9521 462.8 97.9521 463.38C97.9521 463.96 98.4257 464.435 99.0045 464.435Z" fill="#431F20"/>
<path fill-rule="evenodd" clip-rule="evenodd" d="M318.129 466.545H342.964C343.543 466.545 344.016 466.07 344.016 465.49C344.016 464.91 343.543 464.435 342.964 464.435H318.129C317.55 464.435 317.076 464.91 317.076 465.49C317.076 466.07 317.55 466.545 318.129 466.545Z" fill="#431F20"/>
<path fill-rule="evenodd" clip-rule="evenodd" d="M350.908 466.545H359.274C359.853 466.545 360.326 466.07 360.326 465.49C360.326 464.91 359.853 464.435 359.274 464.435H350.908C350.329 464.435 349.855 464.91 349.855 465.49C349.855 466.07 350.329 466.545 350.908 466.545Z" fill="#431F20"/>
<path fill-rule="evenodd" clip-rule="evenodd" d="M152.67 464.435H167.929C168.507 464.435 168.981 463.96 168.981 463.38C168.981 462.8 168.507 462.325 167.929 462.325H152.67C152.091 462.325 151.617 462.8 151.617 463.38C151.617 463.96 152.091 464.435 152.67 464.435Z" fill="#431F20"/>
<path fill-rule="evenodd" clip-rule="evenodd" d="M178.769 464.435H258.458C259.037 464.435 259.51 463.96 259.51 463.38C259.51 462.8 259.037 462.325 258.458 462.325H178.769C178.19 462.325 177.717 462.8 177.717 463.38C177.717 463.96 178.19 464.435 178.769 464.435Z" fill="#431F20"/>
<path fill-rule="evenodd" clip-rule="evenodd" d="M258.434 381.213C258.882 381.213 259.303 380.923 259.434 380.475C259.592 379.921 259.276 379.341 258.724 379.156L252.383 377.231C251.831 377.073 251.252 377.363 251.068 377.943C250.91 378.497 251.226 379.077 251.778 379.262L258.119 381.187C258.224 381.213 258.329 381.213 258.434 381.213Z" fill="#431F20"/>
<path fill-rule="evenodd" clip-rule="evenodd" d="M249.962 400.437C250.409 400.437 250.857 400.12 250.988 399.672C251.146 399.118 250.804 398.538 250.252 398.38L222.601 390.706C222.049 390.548 221.47 390.891 221.312 391.445C221.154 391.998 221.496 392.578 222.049 392.737L249.699 400.41C249.778 400.41 249.857 400.437 249.962 400.437Z" fill="#431F20"/>
<path fill-rule="evenodd" clip-rule="evenodd" d="M216.26 308.958C216.733 308.958 217.154 308.642 217.286 308.167C217.417 307.614 217.075 307.034 216.523 306.902C216.47 306.875 213.681 306.137 212.892 304.186C212.445 303.078 212.734 301.733 213.708 300.151C224.547 282.721 216.996 248.177 198.185 229.085C197.765 228.663 197.107 228.663 196.712 229.085C196.291 229.481 196.291 230.166 196.712 230.562C214.944 249.047 222.337 282.325 211.945 299.017C210.577 301.206 210.235 303.21 210.945 304.977C212.129 307.93 215.839 308.879 215.996 308.932C216.102 308.958 216.181 308.958 216.26 308.958Z" fill="#431F20"/>
<path fill-rule="evenodd" clip-rule="evenodd" d="M292.898 283.065C292.977 283.065 300.475 282.959 300.475 273.941C300.475 222.81 261.933 195.571 261.538 195.307C261.065 194.99 260.407 195.096 260.065 195.571C259.723 196.045 259.855 196.704 260.328 197.047C260.696 197.311 298.344 223.944 298.344 273.967C298.344 280.903 293.082 280.982 292.872 280.982C292.293 280.982 291.82 281.456 291.82 282.036C291.846 282.59 292.319 283.065 292.898 283.065Z" fill="#431F20"/>
<path fill-rule="evenodd" clip-rule="evenodd" d="M231.255 190.665C231.334 190.665 231.439 190.665 231.518 190.639C232.071 190.507 232.413 189.927 232.281 189.373C231.492 186.314 230.071 183.519 227.73 180.539C227.362 180.091 226.704 180.012 226.257 180.355C225.809 180.724 225.73 181.383 226.072 181.831C228.203 184.574 229.519 187.132 230.229 189.874C230.361 190.349 230.782 190.665 231.255 190.665Z" fill="#431F20"/>
<path fill-rule="evenodd" clip-rule="evenodd" d="M210.184 218.3C220.892 218.3 230.284 210.679 232.494 200.158C232.626 199.577 232.257 199.024 231.679 198.918C231.1 198.786 230.547 199.156 230.442 199.736C228.443 209.282 219.919 216.19 210.184 216.19C204.949 216.19 199.082 213.105 194.531 207.963C194.136 207.541 193.479 207.488 193.058 207.884C192.61 208.28 192.584 208.939 192.979 209.387C197.898 214.951 204.344 218.3 210.184 218.3Z" fill="#431F20"/>
<path fill-rule="evenodd" clip-rule="evenodd" d="M173.587 191.036C178.638 191.036 182.795 189.19 185.61 185.709C188.635 181.964 189.872 176.506 188.793 171.522C188.661 170.942 188.109 170.599 187.557 170.705C186.978 170.836 186.636 171.39 186.741 171.944C187.662 176.269 186.557 181.147 183.979 184.364C181.584 187.344 178.007 188.9 173.613 188.9C173.034 188.9 172.561 189.374 172.561 189.954C172.534 190.561 173.008 191.036 173.587 191.036Z" fill="#431F20"/>
<path fill-rule="evenodd" clip-rule="evenodd" d="M210.182 212.342C214.838 212.342 219.337 210.417 222.573 207.068C225.625 203.877 227.23 199.737 227.046 195.412C226.861 190.771 224.915 187.264 223.889 185.708C231.65 179.274 239.7 160.393 239.332 142.093C239.332 141.513 238.832 141.064 238.253 141.064C237.674 141.064 237.201 141.565 237.227 142.146C237.595 159.919 229.413 179.248 221.836 184.654C221.6 184.812 221.442 185.075 221.416 185.365C221.389 185.656 221.468 185.946 221.652 186.183C221.679 186.209 224.757 189.98 224.967 195.491C225.125 199.236 223.731 202.822 221.074 205.591C218.258 208.544 214.286 210.232 210.208 210.232C205.999 210.232 201.973 208.413 199.158 205.248C198.764 204.826 198.106 204.774 197.685 205.169C197.264 205.565 197.212 206.224 197.606 206.646C200.763 210.258 205.367 212.342 210.182 212.342Z" fill="#431F20"/>
<path fill-rule="evenodd" clip-rule="evenodd" d="M281.765 160.921C285.343 160.921 287.369 160.129 287.895 158.521C289.553 153.458 273.294 146.866 270.005 145.6C269.453 145.389 268.848 145.653 268.637 146.206C268.427 146.76 268.69 147.367 269.242 147.578C281.634 152.377 286.264 156.728 285.896 157.862C285.764 158.257 284.186 159.206 278.608 158.653C273.741 158.178 267.532 156.728 261.113 154.618C257.272 153.352 253.668 151.928 250.405 150.425C241.46 146.285 239.014 143.227 239.25 142.462C239.514 141.671 243.407 140.669 253.352 142.778C253.931 142.884 254.483 142.541 254.588 141.961C254.72 141.381 254.352 140.827 253.773 140.695C248.117 139.482 238.487 138.032 237.251 141.776C236.041 145.468 244.407 149.977 249.511 152.324C252.852 153.88 256.535 155.304 260.455 156.596C267.032 158.758 273.399 160.235 278.398 160.736C279.661 160.868 280.766 160.921 281.765 160.921Z" fill="#431F20"/>
<path fill-rule="evenodd" clip-rule="evenodd" d="M161.458 421.295L154.828 424.038L143.752 399.646L150.276 396.086C151.566 396.956 155.38 400.041 158.906 407.451C162.773 415.494 161.852 420.082 161.458 421.295ZM154.328 426.437C154.46 426.437 154.591 426.411 154.723 426.358L162.694 423.062C162.931 422.956 163.115 422.798 163.247 422.561C163.352 422.35 165.851 417.05 160.853 406.554C156.196 396.798 151.066 394.055 150.829 393.923C150.513 393.765 150.145 393.765 149.856 393.923L141.937 398.222C141.463 398.485 141.253 399.092 141.489 399.593L153.381 425.778C153.539 426.2 153.907 426.437 154.328 426.437Z" fill="#431F20"/>
<path fill-rule="evenodd" clip-rule="evenodd" d="M268.405 381.37L259.092 406.474L251.962 404.391C251.673 402.861 251.146 397.983 253.856 390.23C256.829 381.739 260.644 379.208 261.775 378.627L268.405 381.37ZM259.723 408.821C260.144 408.821 260.565 408.557 260.696 408.135L270.694 381.159C270.904 380.631 270.641 380.025 270.115 379.814L262.144 376.518C261.907 376.412 261.644 376.412 261.407 376.491C261.17 376.571 255.698 378.548 251.857 389.544C248.279 399.75 249.989 405.34 250.068 405.577C250.173 405.92 250.436 406.157 250.778 406.263L259.434 408.794C259.539 408.821 259.644 408.821 259.723 408.821Z" fill="#431F20"/>
<path fill-rule="evenodd" clip-rule="evenodd" d="M182.636 201.213C193.002 201.213 203.552 196.703 207.945 186.92C208.182 186.393 207.945 185.76 207.419 185.523C206.893 185.285 206.261 185.523 206.025 186.05C200.552 198.286 184.32 201.503 172.429 197.468C159.879 193.196 156.749 181.699 153.749 170.571C152.171 164.691 150.671 159.153 147.856 154.776C147.541 154.275 146.883 154.143 146.409 154.459C145.909 154.776 145.778 155.435 146.094 155.91C148.724 160.023 150.198 165.403 151.724 171.125C154.723 182.253 158.143 194.858 171.745 199.472C175.138 200.633 178.874 201.213 182.636 201.213Z" fill="#431F20"/>
<path fill-rule="evenodd" clip-rule="evenodd" d="M183.717 107.575C185.375 107.575 187.059 107.707 188.742 107.997C204.685 110.739 213.446 121.446 214.104 139.008C214.235 142.673 214.13 160.763 213.709 169.359C213.657 170.361 213.393 171.416 212.788 171.442C212.078 171.442 210.92 170.361 210.815 168.911C210.71 167.461 211.473 163.162 211.762 161.607C211.973 160.763 212.104 159.813 212.104 158.864C212.104 152.984 207.684 148.184 202.239 148.184C198.95 148.184 195.977 149.793 194.32 152.509C193.741 153.458 192.952 153.933 192.241 153.722C191.715 153.59 191.347 153.089 191.347 152.483C190.979 140.405 188.584 138.349 186.638 136.687L186.375 136.45C182.533 133.075 177.14 137.215 170.3 142.436C163.697 147.499 155.488 153.775 146.912 154.276C146.491 154.276 142.702 153.089 141.045 149.081C139.151 144.493 139.966 135.791 154.594 120.338C158.04 116.725 169.984 107.575 183.717 107.575ZM212.788 173.526H212.815C213.472 173.526 215.63 173.209 215.814 169.438C216.208 160.789 216.34 142.62 216.208 138.929C215.498 120.259 206.132 108.841 189.084 105.914C174.194 103.356 159.066 112.506 153.042 118.888C137.309 135.501 136.862 145.152 139.256 150.32C141.282 154.724 145.675 156.491 146.99 156.385C156.225 155.832 164.696 149.345 171.536 144.097C177.377 139.641 182.402 135.791 184.954 138.006L185.243 138.243C186.848 139.614 188.874 141.355 189.216 152.483C189.269 154.012 190.268 155.304 191.689 155.7C192.978 156.043 194.82 155.673 196.109 153.564C197.398 151.481 199.687 150.241 202.265 150.241C206.553 150.241 210.026 154.091 210.026 158.811C210.026 159.602 209.921 160.367 209.737 161.105C209.605 161.765 208.579 167.012 208.737 169.016C208.895 171.442 210.789 173.526 212.788 173.526Z" fill="#431F20"/>
<path fill-rule="evenodd" clip-rule="evenodd" d="M221.469 188.741C222.416 188.741 223.31 188.398 224.1 187.712C224.547 187.343 224.573 186.658 224.205 186.236C223.81 185.787 223.153 185.761 222.732 186.13C222.311 186.499 221.627 186.921 220.469 186.367C217.496 184.996 214.024 178.747 214.024 172.708C214.024 172.128 213.55 171.653 212.971 171.653C212.392 171.653 211.919 172.128 211.919 172.708C211.919 179.142 215.523 186.42 219.601 188.266C220.206 188.609 220.837 188.741 221.469 188.741Z" fill="#431F20"/>
<path fill-rule="evenodd" clip-rule="evenodd" d="M199.791 207.622C200.212 207.622 200.606 207.385 200.764 206.963C202.369 203.139 201.896 199.632 199.238 195.571C198.923 195.097 198.265 194.939 197.791 195.255C197.318 195.571 197.16 196.231 197.476 196.705C200.317 201.03 199.738 203.904 198.818 206.119C198.607 206.647 198.844 207.28 199.37 207.49C199.502 207.596 199.659 207.622 199.791 207.622Z" fill="#431F20"/>
<path fill-rule="evenodd" clip-rule="evenodd" d="M259.958 197.812C260.195 197.812 260.432 197.733 260.616 197.575C274.928 185.814 284.767 167.777 287.871 158.521C288.056 157.968 287.766 157.361 287.214 157.177C286.661 156.992 286.056 157.282 285.872 157.836C282.82 166.854 273.244 184.443 259.274 195.914C258.827 196.283 258.748 196.942 259.116 197.39C259.353 197.68 259.669 197.812 259.958 197.812Z" fill="#431F20"/>
<path fill-rule="evenodd" clip-rule="evenodd" d="M164.038 260.598C164.064 260.598 164.09 260.598 164.09 260.598C179.77 259.728 194.661 254.269 207.158 244.803C207.631 244.46 207.71 243.801 207.368 243.326C207.026 242.851 206.368 242.772 205.895 243.115C193.74 252.318 179.244 257.618 163.985 258.488C163.406 258.515 162.959 259.016 162.985 259.596C163.038 260.176 163.485 260.598 164.038 260.598Z" fill="#431F20"/>
<path fill-rule="evenodd" clip-rule="evenodd" d="M245.543 368.792C245.596 368.792 245.648 368.792 245.701 368.765L246.648 368.344C246.858 368.264 246.937 368.027 246.858 367.816C246.78 367.605 246.543 367.526 246.332 367.631L245.385 368.053C245.201 368.133 245.096 368.37 245.201 368.581C245.254 368.713 245.385 368.792 245.543 368.792Z" fill="#391D1D"/>
<path fill-rule="evenodd" clip-rule="evenodd" d="M241.777 370.48C241.83 370.48 241.883 370.48 241.935 370.453L243.803 369.61C243.987 369.53 244.093 369.293 243.987 369.082C243.908 368.871 243.672 368.792 243.461 368.898L241.593 369.741C241.409 369.821 241.304 370.058 241.409 370.269C241.488 370.401 241.646 370.48 241.777 370.48ZM238.042 372.167C238.094 372.167 238.147 372.167 238.199 372.141L240.067 371.297C240.278 371.218 240.357 370.981 240.278 370.77C240.199 370.559 239.962 370.48 239.752 370.585L237.884 371.429C237.7 371.508 237.594 371.746 237.7 371.956C237.752 372.088 237.884 372.167 238.042 372.167ZM234.306 373.855C234.358 373.855 234.411 373.855 234.464 373.829L236.331 372.985C236.542 372.906 236.621 372.668 236.516 372.457C236.437 372.273 236.2 372.167 235.989 372.273L234.122 373.117C233.911 373.196 233.832 373.433 233.937 373.644C233.99 373.776 234.148 373.855 234.306 373.855ZM230.544 375.543C230.596 375.543 230.649 375.543 230.701 375.516L232.569 374.673C232.753 374.593 232.859 374.356 232.753 374.145C232.675 373.961 232.438 373.855 232.227 373.96L230.359 374.804C230.175 374.883 230.07 375.121 230.175 375.332C230.254 375.464 230.412 375.543 230.544 375.543ZM226.808 377.23C226.86 377.23 226.913 377.204 226.966 377.204L228.834 376.36C229.044 376.281 229.123 376.044 229.044 375.833C228.965 375.622 228.728 375.543 228.518 375.648L226.65 376.492C226.466 376.571 226.361 376.808 226.466 377.019C226.518 377.151 226.65 377.23 226.808 377.23ZM223.046 378.944C223.098 378.944 223.151 378.918 223.203 378.918L225.071 378.074C225.282 377.995 225.361 377.758 225.256 377.547C225.177 377.336 224.94 377.257 224.729 377.362L222.861 378.206C222.651 378.285 222.572 378.522 222.651 378.733C222.756 378.839 222.914 378.944 223.046 378.944ZM219.31 380.606C219.362 380.606 219.415 380.606 219.468 380.579L221.336 379.735C221.52 379.656 221.625 379.419 221.52 379.208C221.441 378.997 221.204 378.918 220.994 378.997L219.126 379.841C218.915 379.92 218.836 380.157 218.915 380.368C219.02 380.527 219.152 380.606 219.31 380.606ZM215.574 382.32C215.627 382.32 215.679 382.32 215.732 382.293L217.6 381.449C217.81 381.37 217.889 381.133 217.81 380.922C217.731 380.738 217.494 380.632 217.284 380.737L215.416 381.581C215.232 381.66 215.127 381.898 215.232 382.109C215.258 382.214 215.416 382.32 215.574 382.32ZM211.812 384.007C211.864 384.007 211.917 383.981 211.97 383.981L213.838 383.137C214.048 383.058 214.127 382.821 214.022 382.61C213.943 382.399 213.706 382.32 213.496 382.399L211.628 383.243C211.417 383.322 211.338 383.559 211.417 383.77C211.522 383.902 211.654 384.007 211.812 384.007ZM208.076 385.695C208.129 385.695 208.181 385.695 208.234 385.669L210.102 384.825C210.286 384.746 210.391 384.508 210.286 384.297C210.207 384.113 209.97 384.007 209.76 384.113L207.892 384.957C207.708 385.036 207.602 385.273 207.708 385.484C207.787 385.59 207.918 385.695 208.076 385.695ZM204.314 387.383C204.366 387.383 204.419 387.383 204.472 387.356L206.34 386.512C206.55 386.433 206.629 386.196 206.524 385.985C206.445 385.8 206.208 385.695 205.998 385.8L204.13 386.644C203.919 386.723 203.84 386.961 203.946 387.172C204.025 387.277 204.182 387.383 204.314 387.383ZM200.578 389.07C200.631 389.07 200.683 389.044 200.736 389.044L202.604 388.2C202.814 388.121 202.893 387.884 202.788 387.673C202.709 387.462 202.472 387.383 202.262 387.488L200.394 388.332C200.183 388.411 200.104 388.648 200.183 388.859C200.289 388.991 200.42 389.07 200.578 389.07ZM196.842 390.758C196.895 390.758 196.947 390.758 197 390.732L198.868 389.888C199.078 389.809 199.157 389.571 199.078 389.36C199 389.149 198.763 389.07 198.552 389.176L196.684 390.02C196.5 390.099 196.395 390.336 196.5 390.547C196.527 390.679 196.684 390.758 196.842 390.758ZM193.08 392.446C193.133 392.446 193.185 392.446 193.238 392.419L195.106 391.575C195.316 391.496 195.395 391.259 195.29 391.048C195.211 390.837 194.974 390.758 194.764 390.837L192.896 391.681C192.685 391.76 192.607 391.997 192.712 392.208C192.791 392.366 192.922 392.446 193.08 392.446ZM189.344 394.133C189.397 394.133 189.449 394.133 189.502 394.107L191.37 393.263C191.554 393.184 191.659 392.947 191.554 392.736C191.475 392.551 191.239 392.446 191.028 392.551L189.16 393.395C188.95 393.474 188.871 393.711 188.95 393.922C189.055 394.054 189.186 394.133 189.344 394.133ZM185.582 395.821C185.635 395.821 185.687 395.794 185.74 395.794L187.608 394.951C187.792 394.872 187.897 394.634 187.792 394.423C187.713 394.212 187.476 394.133 187.266 394.239L185.398 395.083C185.214 395.162 185.109 395.399 185.214 395.61C185.293 395.742 185.451 395.821 185.582 395.821ZM181.846 397.509C181.899 397.509 181.952 397.509 182.004 397.482L183.872 396.638C184.083 396.559 184.162 396.322 184.056 396.111C183.977 395.926 183.741 395.821 183.53 395.926L181.662 396.77C181.452 396.849 181.373 397.087 181.478 397.298C181.557 397.429 181.688 397.509 181.846 397.509ZM178.111 399.196C178.163 399.196 178.216 399.196 178.268 399.17L180.136 398.326C180.32 398.247 180.426 398.01 180.32 397.799C180.241 397.588 180.005 397.509 179.794 397.588L177.926 398.431C177.716 398.511 177.637 398.748 177.716 398.959C177.795 399.117 177.953 399.196 178.111 399.196ZM174.348 400.884C174.401 400.884 174.454 400.857 174.506 400.857L176.374 400.014C176.585 399.935 176.663 399.697 176.585 399.486C176.506 399.275 176.269 399.196 176.058 399.275L174.191 400.119C174.006 400.198 173.901 400.436 174.006 400.647C174.059 400.805 174.191 400.884 174.348 400.884ZM170.613 402.571C170.665 402.571 170.718 402.545 170.77 402.545L172.638 401.701C172.849 401.622 172.928 401.385 172.822 401.174C172.744 400.963 172.507 400.884 172.296 400.989L170.428 401.833C170.218 401.912 170.139 402.15 170.218 402.361C170.323 402.492 170.455 402.571 170.613 402.571ZM166.85 404.259C166.903 404.259 166.956 404.259 167.008 404.233L168.876 403.389C169.06 403.31 169.166 403.073 169.06 402.862C168.981 402.651 168.745 402.571 168.534 402.651L166.666 403.494C166.456 403.574 166.377 403.811 166.456 404.022C166.561 404.18 166.719 404.259 166.85 404.259Z" fill="#391D1D"/>
<path fill-rule="evenodd" clip-rule="evenodd" d="M164.037 405.551C164.09 405.551 164.142 405.551 164.195 405.525L165.142 405.103C165.353 405.024 165.432 404.787 165.353 404.576C165.274 404.365 165.037 404.285 164.826 404.365L163.879 404.787C163.695 404.866 163.59 405.103 163.695 405.314C163.748 405.446 163.879 405.551 164.037 405.551Z" fill="#391D1D"/>
<path fill-rule="evenodd" clip-rule="evenodd" d="M245.516 342.397C245.568 342.397 245.621 342.397 245.673 342.371L246.647 341.975C246.857 341.896 246.936 341.659 246.857 341.448C246.778 341.237 246.542 341.131 246.331 341.237L245.358 341.632C245.147 341.711 245.068 341.949 245.147 342.16C245.226 342.318 245.358 342.397 245.516 342.397Z" fill="#391D1D"/>
<path fill-rule="evenodd" clip-rule="evenodd" d="M241.515 344.03C241.568 344.03 241.62 344.03 241.673 344.004L243.672 343.186C243.883 343.107 243.962 342.87 243.883 342.659C243.804 342.448 243.567 342.369 243.357 342.448L241.357 343.266C241.147 343.345 241.068 343.582 241.147 343.793C241.199 343.951 241.357 344.03 241.515 344.03ZM237.49 345.665C237.542 345.665 237.595 345.665 237.648 345.639L239.647 344.821C239.858 344.742 239.937 344.505 239.858 344.32C239.779 344.109 239.542 344.004 239.358 344.109L237.358 344.927C237.148 345.006 237.069 345.243 237.148 345.454C237.2 345.56 237.332 345.665 237.49 345.665ZM233.491 347.3C233.544 347.3 233.596 347.3 233.649 347.274L235.648 346.456C235.859 346.377 235.938 346.14 235.859 345.929C235.78 345.718 235.543 345.639 235.333 345.718L233.333 346.535C233.123 346.614 233.044 346.852 233.123 347.063C233.175 347.195 233.333 347.3 233.491 347.3ZM229.466 348.935C229.518 348.935 229.571 348.935 229.624 348.909L231.623 348.091C231.833 348.012 231.912 347.775 231.833 347.564C231.755 347.353 231.518 347.274 231.334 347.353L229.334 348.17C229.124 348.249 229.045 348.487 229.124 348.671C229.176 348.829 229.334 348.935 229.466 348.935ZM225.467 350.57C225.519 350.57 225.572 350.57 225.625 350.544L227.624 349.726C227.835 349.647 227.913 349.41 227.835 349.199C227.756 348.988 227.519 348.882 227.335 348.988L225.335 349.805C225.125 349.884 225.046 350.122 225.125 350.333C225.177 350.464 225.309 350.57 225.467 350.57ZM221.468 352.178C221.52 352.178 221.573 352.178 221.626 352.152L223.625 351.335C223.836 351.256 223.915 351.018 223.836 350.807C223.757 350.596 223.52 350.517 223.309 350.596L221.31 351.414C221.1 351.493 221.021 351.73 221.1 351.941C221.152 352.099 221.31 352.178 221.468 352.178ZM217.443 353.813C217.495 353.813 217.548 353.813 217.601 353.787L219.6 352.97C219.81 352.89 219.889 352.653 219.81 352.469C219.732 352.258 219.495 352.152 219.311 352.258L217.311 353.075C217.101 353.154 217.022 353.391 217.101 353.602C217.153 353.734 217.285 353.813 217.443 353.813ZM213.444 355.448C213.496 355.448 213.549 355.448 213.602 355.422L215.601 354.604C215.812 354.525 215.89 354.288 215.812 354.103C215.733 353.892 215.496 353.813 215.285 353.893L213.286 354.71C213.075 354.789 212.997 355.026 213.075 355.237C213.128 355.369 213.286 355.448 213.444 355.448ZM209.419 357.083C209.471 357.083 209.524 357.083 209.576 357.057L211.576 356.239C211.786 356.16 211.865 355.923 211.786 355.738C211.707 355.527 211.471 355.448 211.26 355.527L209.261 356.345C209.05 356.424 208.971 356.661 209.05 356.846C209.129 357.004 209.261 357.083 209.419 357.083ZM205.42 358.718C205.472 358.718 205.525 358.718 205.578 358.692L207.577 357.874C207.787 357.795 207.866 357.558 207.787 357.347C207.709 357.136 207.472 357.057 207.288 357.136L205.288 357.953C205.078 358.033 204.999 358.27 205.078 358.481C205.104 358.639 205.262 358.718 205.42 358.718ZM201.394 360.353C201.447 360.353 201.5 360.353 201.552 360.327L203.552 359.509C203.762 359.43 203.841 359.193 203.762 359.008C203.683 358.797 203.446 358.718 203.236 358.797L201.237 359.615C201.026 359.694 200.947 359.931 201.026 360.142C201.105 360.248 201.263 360.353 201.394 360.353Z" fill="#391D1D"/>
<path fill-rule="evenodd" clip-rule="evenodd" d="M198.422 361.566C198.474 361.566 198.527 361.566 198.58 361.54L199.553 361.144C199.764 361.065 199.842 360.828 199.763 360.617C199.685 360.406 199.448 360.327 199.237 360.406L198.264 360.802C198.053 360.881 197.975 361.118 198.053 361.329C198.132 361.461 198.264 361.566 198.422 361.566Z" fill="#391D1D"/>
<path fill-rule="evenodd" clip-rule="evenodd" d="M213.943 311.755C214.233 311.755 214.548 311.623 214.733 311.386C232.517 290.448 258.431 278.45 285.845 278.45C287.844 278.45 289.844 278.503 291.817 278.634C292.422 278.634 292.895 278.239 292.922 277.659C292.948 277.079 292.527 276.578 291.948 276.551C289.949 276.419 287.897 276.367 285.845 276.367C257.826 276.367 231.333 288.655 213.128 310.041C212.759 310.489 212.812 311.148 213.259 311.517C213.47 311.676 213.707 311.755 213.943 311.755Z" fill="#431F20"/>
<path fill-rule="evenodd" clip-rule="evenodd" d="M259.749 296.512C260.328 296.512 260.801 296.037 260.801 295.457C260.801 294.877 260.328 294.402 259.749 294.402C254.408 294.402 249.646 291.185 247.621 286.228C247.41 285.674 246.779 285.437 246.253 285.648C245.7 285.859 245.463 286.491 245.674 287.019C248.015 292.767 253.54 296.512 259.749 296.512Z" fill="#431F20"/>
<path fill-rule="evenodd" clip-rule="evenodd" d="M251.329 298.307C251.75 298.307 252.171 298.043 252.329 297.621C252.513 297.067 252.25 296.461 251.697 296.276C247.883 294.905 244.883 291.767 243.673 287.891C243.489 287.337 242.91 287.021 242.358 287.205C241.805 287.39 241.49 287.97 241.674 288.524C243.094 293.006 246.567 296.645 250.987 298.254C251.092 298.28 251.224 298.307 251.329 298.307Z" fill="#431F20"/>
<path fill-rule="evenodd" clip-rule="evenodd" d="M278.952 281.035C279.163 281.035 279.321 280.877 279.347 280.666C279.4 279.981 279.426 279.295 279.426 278.609C279.426 278.398 279.242 278.214 279.031 278.214C278.821 278.214 278.637 278.398 278.637 278.609C278.637 279.269 278.61 279.954 278.558 280.614C278.532 280.824 278.716 281.009 278.926 281.035H278.952ZM278.4 285.202C278.584 285.202 278.742 285.07 278.795 284.885C278.926 284.173 279.058 283.488 279.137 282.776C279.163 282.565 279.005 282.354 278.795 282.328C278.584 282.301 278.374 282.459 278.347 282.67C278.269 283.356 278.137 284.042 278.005 284.727C277.953 284.938 278.111 285.149 278.321 285.202C278.347 285.202 278.374 285.202 278.4 285.202ZM277.348 289.289C277.506 289.289 277.663 289.184 277.716 289.025C277.926 288.34 278.137 287.654 278.295 286.969C278.347 286.758 278.216 286.547 278.005 286.494C277.795 286.441 277.584 286.573 277.532 286.784C277.348 287.443 277.164 288.129 276.953 288.788C276.874 288.999 277.006 289.21 277.216 289.289C277.269 289.263 277.321 289.289 277.348 289.289ZM275.848 293.218C276.006 293.218 276.138 293.139 276.216 292.981C276.506 292.348 276.795 291.689 277.032 291.03C277.111 290.819 277.006 290.608 276.821 290.529C276.611 290.449 276.401 290.555 276.322 290.766C276.059 291.425 275.795 292.058 275.506 292.691C275.427 292.875 275.506 293.113 275.69 293.218C275.717 293.192 275.769 293.218 275.848 293.218ZM273.875 296.936C274.006 296.936 274.138 296.857 274.217 296.752C274.585 296.145 274.927 295.539 275.269 294.906C275.375 294.721 275.296 294.484 275.111 294.378C274.927 294.273 274.69 294.352 274.585 294.537C274.27 295.143 273.928 295.75 273.559 296.356C273.454 296.541 273.507 296.778 273.691 296.91C273.717 296.91 273.796 296.936 273.875 296.936ZM271.454 300.364C271.56 300.364 271.691 300.312 271.77 300.206C272.218 299.652 272.638 299.072 273.059 298.492C273.191 298.308 273.138 298.07 272.954 297.938C272.77 297.807 272.533 297.859 272.402 298.044C272.007 298.624 271.586 299.178 271.165 299.705C271.034 299.863 271.06 300.127 271.218 300.259C271.297 300.338 271.376 300.364 271.454 300.364ZM268.613 303.476C268.718 303.476 268.797 303.45 268.876 303.371C269.376 302.896 269.876 302.369 270.376 301.841C270.534 301.683 270.507 301.419 270.35 301.287C270.192 301.129 269.929 301.156 269.797 301.314C269.324 301.841 268.824 302.316 268.35 302.79C268.192 302.949 268.192 303.186 268.324 303.344C268.403 303.423 268.508 303.476 268.613 303.476ZM265.351 306.113C265.43 306.113 265.509 306.087 265.561 306.034C266.14 305.638 266.719 305.216 267.271 304.768C267.429 304.636 267.456 304.373 267.324 304.214C267.193 304.056 266.929 304.03 266.772 304.162C266.219 304.61 265.667 305.005 265.114 305.401C264.93 305.533 264.877 305.77 265.009 305.955C265.088 306.06 265.219 306.113 265.351 306.113ZM261.641 308.091C261.694 308.091 261.747 308.091 261.799 308.064L263.167 307.484C263.378 307.379 263.562 307.273 263.746 307.168C263.93 307.062 264.009 306.825 263.904 306.64C263.799 306.456 263.562 306.377 263.378 306.482C263.194 306.588 263.036 306.667 262.852 306.772L261.51 307.326C261.299 307.405 261.22 307.642 261.299 307.853C261.352 307.985 261.484 308.091 261.641 308.091ZM257.748 309.699C257.8 309.699 257.853 309.699 257.906 309.673L259.852 308.855C260.063 308.776 260.142 308.539 260.063 308.328C259.984 308.117 259.747 308.038 259.537 308.117L257.59 308.935C257.379 309.014 257.301 309.251 257.379 309.462C257.458 309.62 257.616 309.699 257.748 309.699ZM253.88 311.334C253.933 311.334 253.986 311.334 254.038 311.308L255.985 310.49C256.196 310.411 256.274 310.174 256.196 309.963C256.117 309.752 255.88 309.673 255.669 309.752L253.723 310.57C253.512 310.649 253.433 310.886 253.512 311.097C253.591 311.229 253.723 311.334 253.88 311.334ZM249.987 312.943C250.039 312.943 250.092 312.943 250.145 312.916L252.091 312.099C252.302 312.02 252.381 311.782 252.302 311.598C252.223 311.387 251.986 311.308 251.776 311.387L249.829 312.204C249.618 312.284 249.539 312.521 249.618 312.705C249.697 312.864 249.855 312.943 249.987 312.943ZM246.119 314.578C246.172 314.578 246.225 314.578 246.277 314.551L248.224 313.734C248.434 313.655 248.513 313.417 248.434 313.206C248.356 312.996 248.119 312.916 247.908 312.995L245.962 313.813C245.751 313.892 245.672 314.129 245.751 314.34C245.804 314.472 245.962 314.578 246.119 314.578ZM242.226 316.186C242.278 316.186 242.331 316.186 242.384 316.16L244.33 315.342C244.541 315.263 244.62 315.026 244.541 314.841C244.462 314.63 244.225 314.551 244.015 314.63L242.068 315.448C241.857 315.527 241.778 315.764 241.857 315.975C241.936 316.107 242.068 316.186 242.226 316.186ZM238.358 317.821C238.411 317.821 238.464 317.821 238.516 317.795L240.463 316.977C240.673 316.898 240.752 316.661 240.673 316.45C240.595 316.239 240.358 316.16 240.147 316.239L238.2 317.056C237.99 317.136 237.911 317.373 237.99 317.584C238.043 317.716 238.2 317.821 238.358 317.821ZM234.465 319.43C234.517 319.43 234.57 319.43 234.622 319.403L236.569 318.586C236.78 318.507 236.859 318.269 236.78 318.058C236.701 317.848 236.464 317.768 236.254 317.847L234.307 318.665C234.096 318.744 234.017 318.981 234.096 319.166C234.175 319.351 234.307 319.43 234.465 319.43ZM230.597 321.065C230.65 321.065 230.703 321.065 230.755 321.038L232.702 320.221C232.912 320.142 232.991 319.904 232.912 319.693C232.833 319.482 232.597 319.403 232.386 319.482L230.439 320.3C230.229 320.379 230.15 320.616 230.229 320.827C230.282 320.959 230.439 321.065 230.597 321.065ZM226.704 322.673C226.756 322.673 226.809 322.673 226.861 322.647L228.808 321.829C229.019 321.75 229.098 321.513 229.019 321.302C228.94 321.091 228.703 321.012 228.493 321.091L226.546 321.908C226.335 321.988 226.256 322.225 226.335 322.436C226.414 322.594 226.572 322.673 226.704 322.673ZM222.836 324.308C222.889 324.308 222.941 324.308 222.994 324.282L224.941 323.464C225.151 323.385 225.23 323.148 225.151 322.937C225.072 322.726 224.836 322.647 224.625 322.726L222.678 323.543C222.468 323.622 222.389 323.86 222.468 324.071C222.52 324.203 222.678 324.308 222.836 324.308ZM218.943 325.917C218.995 325.917 219.048 325.917 219.1 325.89L221.047 325.073C221.258 324.994 221.337 324.756 221.258 324.545C221.179 324.334 220.942 324.255 220.731 324.334L218.785 325.152C218.574 325.231 218.495 325.468 218.574 325.679C218.653 325.837 218.785 325.917 218.943 325.917ZM215.075 327.552C215.128 327.552 215.18 327.552 215.233 327.525L217.18 326.708C217.39 326.629 217.469 326.391 217.39 326.18C217.311 325.969 217.075 325.89 216.864 325.969L214.917 326.787C214.707 326.866 214.628 327.103 214.707 327.314C214.759 327.446 214.917 327.552 215.075 327.552ZM211.182 329.16C211.234 329.16 211.287 329.16 211.339 329.134L213.286 328.316C213.497 328.237 213.576 328 213.497 327.789C213.418 327.578 213.181 327.499 212.97 327.578L211.024 328.395C210.813 328.474 210.734 328.712 210.813 328.923C210.892 329.081 211.024 329.16 211.182 329.16ZM207.314 330.795C207.367 330.795 207.419 330.795 207.472 330.769L209.419 329.951C209.629 329.872 209.708 329.635 209.629 329.424C209.55 329.213 209.314 329.134 209.103 329.213L207.156 330.03C206.946 330.109 206.867 330.347 206.946 330.558C206.998 330.69 207.156 330.795 207.314 330.795ZM203.42 332.404C203.473 332.404 203.526 332.404 203.578 332.377L205.525 331.56C205.736 331.481 205.815 331.243 205.736 331.032C205.657 330.821 205.42 330.742 205.209 330.821L203.263 331.639C203.052 331.718 202.973 331.955 203.052 332.166C203.131 332.324 203.263 332.404 203.42 332.404ZM199.553 334.038C199.606 334.038 199.658 334.038 199.711 334.012L201.658 333.195C201.868 333.116 201.947 332.878 201.868 332.667C201.789 332.456 201.553 332.377 201.342 332.456L199.395 333.274C199.185 333.353 199.106 333.59 199.185 333.801C199.237 333.933 199.395 334.038 199.553 334.038ZM195.659 335.647C195.712 335.647 195.765 335.647 195.817 335.621L197.764 334.803C197.975 334.724 198.053 334.487 197.975 334.276C197.896 334.065 197.659 333.986 197.448 334.065L195.502 334.882C195.291 334.961 195.212 335.199 195.291 335.41C195.37 335.568 195.502 335.647 195.659 335.647ZM191.792 337.282C191.845 337.282 191.897 337.282 191.95 337.256L193.897 336.438C194.107 336.359 194.186 336.122 194.107 335.911C194.028 335.7 193.792 335.621 193.581 335.7L191.634 336.517C191.424 336.596 191.345 336.834 191.424 337.045C191.476 337.176 191.634 337.282 191.792 337.282ZM187.898 338.891C187.951 338.891 188.004 338.89 188.056 338.864L190.003 338.047C190.214 337.968 190.292 337.73 190.214 337.546C190.135 337.335 189.898 337.229 189.687 337.335L187.741 338.152C187.53 338.231 187.451 338.469 187.53 338.68C187.609 338.811 187.741 338.891 187.898 338.891Z" fill="#391D1D"/>
<path fill-rule="evenodd" clip-rule="evenodd" d="M202.238 164.902C202.764 164.902 203.264 164.849 203.764 164.717C206.5 164.032 208.394 161.553 208.394 158.732C208.394 155.33 205.632 152.561 202.238 152.561C199.318 152.561 196.792 154.644 196.213 157.492C196.108 158.072 196.45 158.626 197.029 158.732C197.608 158.837 198.16 158.468 198.265 157.914C198.66 156.042 200.317 154.671 202.238 154.671C204.474 154.671 206.289 156.49 206.289 158.732C206.289 160.577 205.027 162.212 203.238 162.661C202.922 162.74 202.58 162.792 202.238 162.792C201.659 162.792 201.186 163.267 201.186 163.847C201.186 164.427 201.659 164.902 202.238 164.902Z" fill="#431F20"/>
<path fill-rule="evenodd" clip-rule="evenodd" d="M202.449 162.107C204.027 162.107 205.316 160.762 205.316 159.1C205.316 157.439 204.027 156.094 202.449 156.094C200.87 156.094 199.581 157.439 199.581 159.1C199.581 159.681 200.055 160.155 200.633 160.155C201.212 160.155 201.686 159.681 201.686 159.1C201.686 158.599 202.028 158.204 202.449 158.204C202.87 158.204 203.212 158.599 203.212 159.1C203.212 159.601 202.87 159.997 202.449 159.997C201.87 159.997 201.396 160.472 201.396 161.052C201.396 161.632 201.87 162.107 202.449 162.107Z" fill="#431F20"/>
<path fill-rule="evenodd" clip-rule="evenodd" d="M175.638 156.7C175.796 156.7 175.954 156.674 176.111 156.595C176.638 156.331 176.848 155.698 176.585 155.171C176.085 154.169 175.217 153.404 174.191 153.009C173.139 152.613 172.007 152.692 171.034 153.193C170.508 153.457 170.324 154.09 170.587 154.617C170.85 155.144 171.481 155.355 172.007 155.092C172.455 154.854 172.981 154.828 173.507 155.013C174.033 155.197 174.48 155.619 174.743 156.146C174.901 156.489 175.27 156.7 175.638 156.7Z" fill="#431F20"/>
<path fill-rule="evenodd" clip-rule="evenodd" d="M191.267 174.764C191.424 174.764 191.582 174.738 191.74 174.659C192.266 174.395 192.477 173.762 192.214 173.235C191.582 171.969 189.951 170.677 188.346 170.15C187.294 169.807 186.347 169.833 185.61 170.202C185.084 170.466 184.874 171.099 185.137 171.626C185.4 172.154 186.031 172.365 186.557 172.101C186.768 171.996 187.215 172.022 187.689 172.18C188.767 172.523 189.925 173.446 190.319 174.211C190.504 174.553 190.872 174.764 191.267 174.764Z" fill="#431F20"/>
<path fill-rule="evenodd" clip-rule="evenodd" d="M155.169 164.085C155.274 164.085 155.38 164.059 155.485 164.032C156.037 163.848 156.327 163.268 156.169 162.714C155.958 162.081 156.116 161.369 156.616 160.815C157.011 160.394 156.958 159.708 156.537 159.339C156.116 158.943 155.432 158.996 155.064 159.418C154.064 160.525 153.748 162.002 154.196 163.373C154.327 163.822 154.722 164.085 155.169 164.085Z" fill="#431F20"/>
<path fill-rule="evenodd" clip-rule="evenodd" d="M214.655 11.9844C214.892 12.169 215.997 13.0919 216.944 13.883C217.76 14.5686 218.47 15.1488 218.47 15.1751C218.549 15.2279 218.575 15.2542 218.628 15.2806C219.549 16.0453 219.68 17.4429 218.918 18.3658C218.155 19.2888 216.786 19.4206 215.866 18.6559L215.787 18.5768C215.787 18.5768 215.287 18.1549 214.629 17.6011C213.551 16.7046 212.051 15.4388 211.919 15.307C211.209 14.5686 211.183 13.3029 211.893 12.459C212.551 11.6416 213.735 11.4307 214.655 11.9844ZM217.234 21.2401C218.47 21.2401 219.68 20.7127 220.522 19.7107C222.048 17.8912 221.785 15.1751 219.996 13.6721C219.917 13.593 219.812 13.5138 219.707 13.4611C219.707 13.4611 219.049 12.9073 218.286 12.2745C215.918 10.2968 215.918 10.2968 215.839 10.244C214.024 9.08375 211.63 9.4793 210.262 11.1142C208.868 12.7755 208.947 15.2279 210.42 16.81C210.499 16.8892 210.499 16.8892 213.261 19.2097C213.84 19.7107 214.313 20.1063 214.366 20.159L214.471 20.2381C214.471 20.2381 214.471 20.2381 214.498 20.2645C215.287 20.9237 216.26 21.2401 217.234 21.2401Z" fill="#431F20"/>
<path fill-rule="evenodd" clip-rule="evenodd" d="M209.525 16.8108C209.92 16.8108 210.314 16.9163 210.683 17.1536C210.735 17.2064 212.024 18.2875 213.077 19.1577C213.813 19.7906 214.445 20.2916 214.471 20.318C214.524 20.3707 214.576 20.3971 214.629 20.4234C215.076 20.7926 215.339 21.32 215.392 21.9001C215.445 22.4803 215.26 23.034 214.892 23.4823C214.129 24.4053 212.761 24.5371 211.814 23.7724C211.735 23.7196 211.104 23.1659 210.367 22.533C209.315 21.6628 208.026 20.5553 207.894 20.4498C207.184 19.7115 207.157 18.4457 207.868 17.6019C208.262 17.0745 208.894 16.8108 209.525 16.8108ZM213.208 26.383C214.419 26.383 215.655 25.8556 216.497 24.8535C217.234 23.9834 217.576 22.8494 217.47 21.7156C217.365 20.5817 216.839 19.5532 215.944 18.8149C215.866 18.7358 215.76 18.683 215.681 18.6039C215.655 18.5775 215.076 18.1029 214.418 17.5228C211.893 15.4132 211.893 15.4132 211.788 15.3605C209.999 14.2266 207.605 14.5957 206.237 16.2307C204.842 17.8919 204.921 20.3443 206.394 21.9265C206.447 22.0056 206.473 22.0056 208.999 24.1416C209.683 24.7217 210.288 25.2227 210.341 25.2754L210.472 25.3809C211.261 26.0665 212.235 26.383 213.208 26.383Z" fill="#431F20"/>
<path fill-rule="evenodd" clip-rule="evenodd" d="M231.889 35.5068C232.126 35.5068 232.336 35.4277 232.52 35.2958C235.467 33.028 237.177 29.6 237.177 25.8555C237.177 22.6911 235.94 19.7114 233.704 17.4699C214.262 0.725223 214.262 0.698841 214.157 0.646102C212.368 -0.487793 209.974 -0.0922581 208.606 1.54266C207.211 3.20395 207.29 5.65633 208.764 7.23851C208.842 7.31762 208.842 7.31762 212.473 10.2447C213.71 11.2467 214.815 12.1169 214.92 12.2224C215.367 12.5915 215.998 12.5388 216.393 12.1169C216.761 11.695 216.735 11.0358 216.314 10.6402C216.261 10.5875 216.262 10.5875 213.788 8.60975C212.184 7.31763 210.368 5.84092 210.21 5.70907C209.526 4.97072 209.5 3.73137 210.21 2.88754C210.895 2.07008 212.078 1.8591 212.973 2.41286C213.894 3.20395 225.89 13.5409 232.257 19.0257C234.046 20.8189 235.046 23.2713 235.046 25.8819C235.046 28.9408 233.651 31.7623 231.205 33.6346C230.758 33.9774 230.652 34.663 231.021 35.1112C231.257 35.3749 231.573 35.5068 231.889 35.5068Z" fill="#431F20"/>
<path fill-rule="evenodd" clip-rule="evenodd" d="M208.132 31.9468C208.422 31.9468 208.711 31.8149 208.921 31.5776C209.29 31.1293 209.263 30.47 208.816 30.1009C205.001 26.7519 197.688 20.3705 197.451 20.1596C196.793 19.4212 196.793 18.1818 197.503 17.3643C198.214 16.5469 199.398 16.3623 200.319 16.9161C200.634 17.1798 202.397 18.7356 203.87 20.0541C206.08 22.0054 206.08 22.0318 206.133 22.0582C206.58 22.4273 207.238 22.3482 207.606 21.8736C207.948 21.4253 207.895 20.766 207.448 20.4232C207.343 20.3177 206.37 19.4739 205.265 18.4719C201.634 15.2548 201.608 15.2548 201.529 15.1757C199.713 13.9627 197.293 14.3055 195.899 15.9668C194.504 17.6017 194.531 20.0277 195.951 21.6098C196.004 21.689 196.03 21.7154 207.422 31.6567C207.659 31.8677 207.895 31.9468 208.132 31.9468Z" fill="#431F20"/>
<path fill-rule="evenodd" clip-rule="evenodd" d="M199.448 40.5161C200.027 40.5161 200.5 40.0414 200.5 39.4613C200.5 38.8812 200.027 38.4066 199.448 38.4066C198.106 38.4066 197.001 37.299 197.001 35.9542C197.001 35.2686 197.291 34.6093 197.817 34.1347C197.896 34.0819 205.367 28.7817 210.655 33.871C211.076 34.2666 211.734 34.2665 212.129 33.8446C212.523 33.4227 212.523 32.7635 212.102 32.3679C206.025 26.4876 197.475 31.6032 196.396 32.5789C195.449 33.4491 194.896 34.6884 194.896 35.9542C194.896 38.4593 196.922 40.5161 199.448 40.5161Z" fill="#431F20"/>
<path fill-rule="evenodd" clip-rule="evenodd" d="M221.652 42.864C221.731 42.864 221.784 42.864 221.863 42.864C224.73 42.8113 227.361 41.4137 229.045 39.0931C229.387 38.6185 229.282 37.9592 228.808 37.6164C228.335 37.2736 227.677 37.3791 227.335 37.8538C226.019 39.6469 224.02 40.7017 221.784 40.7544C220.363 40.7808 218.995 40.4116 217.811 39.6469C215.733 38.2493 208.419 34.1356 199.684 38.4602C199.158 38.7239 198.948 39.3568 199.211 39.8579C199.474 40.3853 200.105 40.5962 200.605 40.3325C208.34 36.5089 214.786 40.1479 216.575 41.3609C218.179 42.363 219.89 42.864 221.652 42.864Z" fill="#431F20"/>
<path fill-rule="evenodd" clip-rule="evenodd" d="M228.204 33.1065C228.388 33.1065 228.572 33.0538 228.73 32.9747C229.23 32.6846 229.414 32.0518 229.124 31.5244C227.335 28.4391 224.021 26.5142 220.469 26.5142C217.575 26.5142 214.839 27.7535 212.945 29.9422C212.576 30.3905 212.603 31.0497 213.05 31.4189C213.497 31.8144 214.155 31.7617 214.523 31.3134C216.023 29.5994 218.18 28.5974 220.469 28.5974C223.284 28.5974 225.889 30.1004 227.283 32.5528C227.493 32.9219 227.835 33.1065 228.204 33.1065Z" fill="#431F20"/>
<path fill-rule="evenodd" clip-rule="evenodd" d="M17.762 159.365L16.7886 159.787C17.2621 160.868 16.7623 162.16 15.6573 162.635C14.5787 163.109 13.2895 162.608 12.816 161.527C12.7896 161.474 12.7634 161.422 12.7634 161.369C12.7371 161.316 12.4214 160.552 12.0267 159.655C11.5006 158.416 10.8428 156.886 10.7902 156.754C10.5271 155.831 11.0533 154.724 12.0531 154.302C13.0528 153.854 14.2104 154.249 14.7629 155.199C14.7892 155.278 15.4469 156.754 15.973 157.967C16.394 158.917 16.7359 159.734 16.7623 159.76L17.762 159.365ZM14.8154 164.902C15.3679 164.902 15.9468 164.797 16.4992 164.56C18.6565 163.61 19.6563 161.105 18.7092 158.943L18.6828 158.89C18.6039 158.732 18.2882 157.967 17.8936 157.097C16.6308 154.197 16.6308 154.197 16.5782 154.117C15.4995 152.245 13.1843 151.481 11.2112 152.351C9.26433 153.195 8.23828 155.383 8.81707 157.414C8.84338 157.519 8.84338 157.519 10.1325 160.499C10.5008 161.343 10.7902 162.028 10.8166 162.107C10.8166 162.16 10.8691 162.266 10.9217 162.371C11.6058 163.953 13.158 164.902 14.8154 164.902Z" fill="#431F20"/>
<path fill-rule="evenodd" clip-rule="evenodd" d="M18.9173 151.666C19.6539 151.666 20.3905 152.061 20.7852 152.721C20.8378 152.826 21.5481 154.435 22.1006 155.727C22.4689 156.571 22.7847 157.256 22.7847 157.309L22.811 157.388C23.2845 158.469 22.7847 159.761 21.6797 160.236C21.1536 160.473 20.5748 160.473 20.0223 160.262C19.4961 160.051 19.0751 159.656 18.8384 159.128C18.812 159.076 18.7858 159.023 18.7858 158.97C18.7595 158.891 18.4963 158.311 18.1806 157.546C17.6282 156.281 16.8652 154.514 16.8126 154.329C16.5495 153.38 17.0757 152.299 18.0491 151.85C18.3385 151.719 18.6279 151.666 18.9173 151.666ZM20.8115 162.504C21.3903 162.504 21.9691 162.372 22.4953 162.135C24.6526 161.185 25.6523 158.68 24.7052 156.518L24.6263 156.36C24.6 156.28 24.3106 155.648 23.9686 154.857C22.6005 151.745 22.6005 151.745 22.5479 151.666C21.4692 149.794 19.154 149.029 17.1809 149.899C15.2341 150.743 14.208 152.932 14.7868 154.962C14.8131 155.067 14.8132 155.067 16.2338 158.337C16.5232 159.023 16.76 159.577 16.7863 159.656C16.7863 159.682 16.8389 159.814 16.8915 159.919C17.3388 160.948 18.1806 161.765 19.233 162.187C19.7591 162.398 20.2853 162.504 20.8115 162.504Z" fill="#431F20"/>
<path fill-rule="evenodd" clip-rule="evenodd" d="M21.0236 182.676C23.4966 182.676 25.8906 181.885 27.9427 180.382C28.4163 180.039 28.5216 179.38 28.1796 178.905C27.8375 178.43 27.1798 178.325 26.7062 178.668C24.2595 180.461 21.1814 181.014 18.2612 180.144C15.7881 179.406 13.7361 177.771 12.4996 175.477C9.10575 167.909 2.63385 153.537 2.1603 152.456C1.89721 151.454 2.42339 150.373 3.39681 149.951C4.39653 149.529 5.58042 149.898 6.10659 150.848C6.15921 150.953 7.1063 153.274 7.89556 155.225C9.00052 157.888 9.0005 157.888 9.02681 157.941C9.2899 158.468 9.89507 158.679 10.4212 158.442C10.9474 158.205 11.1578 157.572 10.921 157.071C10.8684 156.939 10.3949 155.779 9.84245 154.434C7.97454 149.898 7.97451 149.898 7.92189 149.793C6.84324 147.921 4.52806 147.156 2.55491 148.026C0.608075 148.87 -0.417971 151.059 0.160819 153.089C0.187127 153.194 0.213464 153.221 10.6317 176.4C12.1839 179.248 14.6569 181.252 17.6824 182.148C18.7873 182.518 19.9186 182.676 21.0236 182.676Z" fill="#431F20"/>
<path fill-rule="evenodd" clip-rule="evenodd" d="M30.6261 156.913C30.784 156.913 30.9155 156.887 31.0733 156.808C31.5995 156.57 31.8363 155.937 31.5995 155.41C25.3117 141.724 25.3117 141.698 25.2591 141.645C24.1278 139.826 21.839 139.114 19.8921 139.984C17.919 140.854 16.9193 143.069 17.5507 145.152C17.577 145.258 17.577 145.258 19.708 149.82C20.3131 151.112 20.8129 152.193 20.8655 152.298C21.1023 152.826 21.7075 153.063 22.2336 152.852C22.7598 152.641 23.0229 152.035 22.8124 151.507C22.7861 151.454 22.7861 151.454 21.6285 148.949C20.734 147.024 19.6291 144.651 19.5238 144.44C19.2344 143.491 19.7343 142.357 20.734 141.935C21.7074 141.487 22.8913 141.856 23.4438 142.753C23.5227 142.937 27.548 151.718 29.6527 156.307C29.8369 156.676 30.2315 156.913 30.6261 156.913Z" fill="#431F20"/>
<path fill-rule="evenodd" clip-rule="evenodd" d="M31.8105 160.604C31.9684 160.604 32.1526 160.578 32.2841 160.472C32.8103 160.209 32.9944 159.576 32.7313 159.048C29.3638 152.588 36.5198 146.918 36.5987 146.866C37.1775 146.523 37.8878 146.417 38.5455 146.602C39.8346 146.971 40.5714 148.342 40.1767 149.634C40.0189 150.188 40.3345 150.768 40.887 150.953C41.4395 151.111 42.0183 150.795 42.2025 150.241C42.9128 147.841 41.5447 145.31 39.1243 144.598C37.8878 144.229 36.5724 144.413 35.4675 145.072C34.2309 145.837 26.9697 152.562 30.8371 160.024C31.0476 160.393 31.4159 160.604 31.8105 160.604Z" fill="#431F20"/>
<path fill-rule="evenodd" clip-rule="evenodd" d="M32.179 178.193C32.2842 178.193 32.4157 178.166 32.521 178.14C35.2045 177.164 37.2565 175.055 38.1247 172.339C38.6772 170.598 38.7035 168.752 38.1773 167.012C37.4933 164.876 35.8359 157.677 41.6501 151.375C42.0447 150.953 42.0183 150.267 41.5974 149.898C41.1765 149.503 40.4925 149.529 40.1241 149.951C33.547 157.097 35.4412 165.219 36.1516 167.539C36.5725 168.937 36.5462 170.361 36.1252 171.679C35.4675 173.789 33.889 175.397 31.8106 176.162C31.2581 176.347 30.9687 176.953 31.1792 177.507C31.3371 177.929 31.758 178.193 32.179 178.193Z" fill="#431F20"/>
<path fill-rule="evenodd" clip-rule="evenodd" d="M26.0741 176.4C26.3372 176.4 26.6002 176.295 26.8107 176.11C27.2317 175.715 27.258 175.029 26.837 174.607C24.9165 172.577 24.2061 169.676 24.9954 166.986C25.6268 164.824 27.1791 163.031 29.2311 162.082C29.7573 161.844 29.994 161.211 29.7573 160.684C29.5205 160.157 28.8891 159.919 28.3629 160.157C25.7584 161.37 23.7853 163.611 22.996 166.38C21.9963 169.782 22.8907 173.473 25.3374 176.058C25.5216 176.295 25.811 176.4 26.0741 176.4Z" fill="#431F20"/>
<path fill-rule="evenodd" clip-rule="evenodd" d="M167.59 184.837C170.958 184.837 173.483 183.281 175.088 180.196C175.351 179.668 175.167 179.035 174.641 178.772C174.115 178.508 173.483 178.693 173.22 179.22C171.405 182.727 168.642 182.754 167.616 182.754C166.38 182.754 165.38 181.752 165.38 180.539C165.38 179.326 166.38 178.323 167.59 178.323C168.169 178.323 168.642 177.849 168.642 177.269C168.642 176.689 168.169 176.214 167.59 176.214C165.196 176.214 163.275 178.165 163.275 180.539C163.275 182.885 165.222 184.837 167.59 184.837Z" fill="#431F20"/>
<path fill-rule="evenodd" clip-rule="evenodd" d="M172.379 163.267C172.984 164.639 174.089 165.509 174.852 165.166C175.641 164.823 175.773 163.452 175.194 162.054C174.589 160.683 173.484 159.813 172.721 160.156C171.958 160.499 171.8 161.896 172.379 163.267Z" fill="#431F20"/>
<path fill-rule="evenodd" clip-rule="evenodd" d="M159.408 168.41C159.881 169.834 160.934 170.757 161.723 170.493C162.512 170.229 162.775 168.858 162.302 167.434C161.828 166.01 160.776 165.087 159.987 165.351C159.197 165.615 158.934 166.986 159.408 168.41Z" fill="#431F20"/>
<path fill-rule="evenodd" clip-rule="evenodd" d="M96.9253 448.272C97.583 448.272 98.267 448.377 98.9247 448.562C100.714 449.089 102.187 450.302 103.055 451.937C104.897 455.313 103.634 459.558 100.24 461.404C96.8727 463.25 92.637 461.984 90.7954 458.582C89.9009 456.947 89.7168 455.049 90.2429 453.282C90.7691 451.489 91.9793 450.012 93.6104 449.142C94.6628 448.562 95.794 448.272 96.9253 448.272ZM96.9516 464.357C98.4512 464.357 99.9245 463.988 101.266 463.25C105.66 460.85 107.291 455.339 104.923 450.935C103.766 448.799 101.845 447.243 99.5299 446.558C97.2147 445.872 94.7417 446.11 92.637 447.27C90.506 448.43 88.9538 450.355 88.2698 452.676C87.5858 454.996 87.8225 457.448 88.9801 459.584C90.1377 461.72 92.0582 463.276 94.3733 463.962C95.2152 464.252 96.0834 464.357 96.9516 464.357Z" fill="#431F20"/>
<path fill-rule="evenodd" clip-rule="evenodd" d="M96.9512 453.914C97.0827 453.914 97.2142 453.94 97.3458 453.966C97.6878 454.072 97.9772 454.309 98.1613 454.626C98.5297 455.285 98.2666 456.102 97.6089 456.471C96.9512 456.814 96.1356 456.577 95.7672 455.918C95.4252 455.258 95.6621 454.441 96.3198 454.072C96.5039 453.966 96.7144 453.914 96.9512 453.914ZM96.9512 458.739C97.5036 458.739 98.0561 458.607 98.5823 458.317C100.266 457.421 100.871 455.311 99.9766 453.624C99.5294 452.806 98.7927 452.226 97.9246 451.962C97.0301 451.699 96.1093 451.804 95.2937 452.252C93.6099 453.149 92.9785 455.258 93.8993 456.946C94.5308 458.08 95.7146 458.739 96.9512 458.739Z" fill="#431F20"/>
<path fill-rule="evenodd" clip-rule="evenodd" d="M87.3226 436.142C87.4541 436.142 87.5857 436.168 87.7172 436.194C88.0592 436.3 88.3486 436.537 88.5328 436.854C88.6906 437.17 88.7433 437.539 88.638 437.882C88.5328 438.225 88.296 438.515 87.9803 438.699C87.6646 438.884 87.2963 438.91 86.9543 438.805C86.6123 438.699 86.3229 438.462 86.1388 438.146C85.7704 437.486 86.0335 436.669 86.6912 436.3C86.9017 436.194 87.1121 436.142 87.3226 436.142ZM87.3489 440.967C87.9277 440.967 88.4802 440.835 88.9801 440.545C89.7956 440.097 90.3744 439.385 90.6375 438.488C90.9006 437.592 90.7953 436.669 90.3481 435.852C89.9008 435.034 89.1905 434.454 88.296 434.19C87.4015 433.927 86.4807 434.032 85.6651 434.48C84.8496 434.929 84.2708 435.641 84.0077 436.537C83.7446 437.434 83.8498 438.357 84.2708 439.174C84.718 439.992 85.4547 440.598 86.3229 440.835C86.6649 440.914 87.0069 440.967 87.3489 440.967Z" fill="#431F20"/>
<path fill-rule="evenodd" clip-rule="evenodd" d="M77.7208 418.367C78.1943 418.367 78.6679 418.631 78.9047 419.079C79.273 419.738 79.0099 420.555 78.3522 420.925C77.6945 421.294 76.8789 421.03 76.5106 420.371C76.3528 420.054 76.3001 419.685 76.4054 419.342C76.5106 419 76.7474 418.71 77.0631 418.525C77.2998 418.42 77.5103 418.367 77.7208 418.367ZM77.7471 423.192C78.2996 423.192 78.8521 423.061 79.3782 422.77C81.062 421.874 81.6671 419.764 80.7726 418.077C79.8518 416.389 77.7471 415.783 76.0897 416.679C75.2741 417.127 74.6953 417.839 74.4322 418.736C74.1691 419.633 74.2743 420.555 74.7216 421.373C75.3267 422.533 76.5106 423.192 77.7471 423.192Z" fill="#431F20"/>
<path fill-rule="evenodd" clip-rule="evenodd" d="M68.1947 400.357C68.3262 400.357 68.4577 400.383 68.5893 400.41C68.9313 400.515 69.2207 400.753 69.4049 401.069C69.7732 401.728 69.5101 402.546 68.8524 402.915C68.5367 403.073 68.1683 403.126 67.8263 403.02C67.4843 402.915 67.1949 402.678 67.0108 402.361C66.8529 402.045 66.8003 401.675 66.9055 401.333C67.0107 400.99 67.2475 400.7 67.5632 400.515C67.7474 400.41 67.9842 400.357 68.1947 400.357ZM68.1947 405.183C68.7735 405.183 69.3259 405.051 69.8258 404.761C71.5096 403.838 72.1147 401.755 71.2202 400.067C70.7729 399.25 70.0626 398.669 69.1681 398.406C68.2736 398.142 67.3528 398.247 66.5372 398.696C65.7216 399.144 65.1428 399.882 64.8798 400.753C64.6167 401.649 64.7219 402.572 65.1429 403.39C65.5901 404.207 66.3004 404.787 67.1949 405.051C67.5369 405.13 67.879 405.183 68.1947 405.183Z" fill="#431F20"/>
<path fill-rule="evenodd" clip-rule="evenodd" d="M87.3211 430.524C89.7942 430.524 92.1883 431.843 93.4511 434.19C95.2927 437.565 94.0299 441.81 90.6361 443.656C89.0049 444.553 87.1107 444.738 85.3217 444.21C83.5327 443.683 82.0595 442.47 81.1913 440.835C79.376 437.459 80.6124 433.188 84.0062 431.368C85.0586 430.788 86.1899 430.524 87.3211 430.524ZM87.3475 446.583C88.8471 446.583 90.3203 446.214 91.662 445.476C96.0556 443.103 97.6868 437.565 95.319 433.161C92.9249 428.757 87.4264 427.122 83.0328 429.496C78.6393 431.895 76.9819 437.407 79.376 441.81C80.5336 443.946 82.4541 445.502 84.7692 446.188C85.6111 446.478 86.4793 446.583 87.3475 446.583Z" fill="#431F20"/>
<path fill-rule="evenodd" clip-rule="evenodd" d="M68.1952 394.741C68.8529 394.741 69.5369 394.846 70.1946 395.031C71.9836 395.558 73.4569 396.745 74.3251 398.406C76.1667 401.781 74.9038 406.027 71.51 407.873C69.8789 408.769 67.9847 408.954 66.1957 408.426C64.4067 407.899 62.9334 406.712 62.0653 405.051C60.2236 401.676 61.4865 397.43 64.8803 395.584C65.9063 395.004 67.0376 394.741 68.1952 394.741ZM68.2215 410.826C69.721 410.826 71.1944 410.457 72.5361 409.718C74.6671 408.558 76.2193 406.633 76.9033 404.313C77.5874 401.992 77.3506 399.513 76.193 397.404C75.0355 395.268 73.1149 393.712 70.7997 393.027C68.4846 392.341 66.0379 392.605 63.8806 393.739C59.487 396.138 57.8559 401.649 60.2237 406.053C61.3813 408.189 63.3018 409.745 65.6169 410.43C66.4588 410.694 67.3533 410.826 68.2215 410.826Z" fill="#431F20"/>
<path fill-rule="evenodd" clip-rule="evenodd" d="M77.7164 412.75C80.1894 412.75 82.5835 414.068 83.8463 416.415C85.6879 419.79 84.4251 424.062 81.0313 425.882C79.4002 426.778 77.5059 426.963 75.7169 426.436C73.9279 425.908 72.4547 424.722 71.5865 423.06C70.692 421.425 70.5078 419.527 71.034 417.734C71.5601 415.94 72.744 414.464 74.4015 413.594C75.4538 413.013 76.5851 412.75 77.7164 412.75ZM77.7427 428.835C79.2423 428.835 80.7156 428.466 82.0573 427.728C86.4509 425.354 88.082 419.817 85.7142 415.413C83.3202 411.009 77.8216 409.374 73.4281 411.748C71.2971 412.908 69.7448 414.833 69.0608 417.153C68.3768 419.474 68.6399 421.953 69.7712 424.062C70.9288 426.198 72.8493 427.754 75.1645 428.44C76.0063 428.703 76.8745 428.835 77.7427 428.835Z" fill="#431F20"/>
<path fill-rule="evenodd" clip-rule="evenodd" d="M113.13 448.771C114.525 448.771 117.103 448.349 118.418 447.426L136.229 436.589C136.729 436.298 136.887 435.639 136.571 435.138C136.282 434.637 135.624 434.479 135.124 434.795L117.261 445.686C116.445 446.266 114.367 446.688 113.13 446.688C111.446 446.688 109.868 445.871 108.868 444.526C108 442.996 89.4261 410.245 83.6382 398.986C83.6119 398.959 82.507 396.797 82.507 395.083C82.507 391.101 85.7429 387.858 89.7155 387.858C91.6623 387.858 93.5828 388.886 96.2663 391.418C99.7391 394.687 110.052 404.76 110.157 404.866C110.578 405.261 111.236 405.262 111.631 404.84C112.025 404.418 112.025 403.758 111.604 403.337C111.499 403.231 101.186 393.131 97.687 389.862C94.5563 386.935 92.2411 385.722 89.6892 385.722C84.559 385.722 80.376 389.914 80.376 395.056C80.376 397.298 81.6914 399.829 81.744 399.935C87.6371 411.458 106.842 445.264 107.027 445.607C107.053 445.633 107.079 445.66 107.079 445.712C108.526 447.637 110.789 448.771 113.13 448.771Z" fill="#431F20"/>
<path fill-rule="evenodd" clip-rule="evenodd" d="M112.631 404.417C112.947 404.496 113.446 404.681 113.973 405.05C114.42 405.367 115.183 406.079 115.262 407.133C115.762 412.882 114.341 415.387 113.42 415.994C112.999 416.257 112.762 416.125 112.684 416.073C112.21 415.809 111.789 414.833 111.842 413.304C111.868 412.882 111.947 412.196 112.026 411.326C112.263 409.638 112.552 407.107 112.631 404.417ZM112.999 418.261C113.525 418.261 114.078 418.103 114.578 417.76C116.814 416.336 117.84 412.302 117.393 406.949C117.13 404.048 114.157 402.229 112.289 402.281C111.105 402.334 110.579 403.099 110.553 403.864C110.5 406.632 110.21 409.217 110 411.089C109.895 412.012 109.816 412.724 109.79 413.198C109.684 415.387 110.395 417.154 111.657 417.892C112.078 418.156 112.526 418.261 112.999 418.261Z" fill="#431F20"/>
<path fill-rule="evenodd" clip-rule="evenodd" d="M119.182 409.428C120.839 409.428 124.417 407.82 125.127 407.503C125.653 407.266 125.89 406.633 125.653 406.106C125.417 405.578 124.785 405.341 124.259 405.578C122.681 406.29 120.076 407.319 119.182 407.319C118.866 407.319 117.813 406.765 116.998 406.132C116.524 405.789 115.867 405.895 115.525 406.343C115.183 406.818 115.262 407.477 115.735 407.82C116.209 408.189 117.945 409.428 119.182 409.428Z" fill="#431F20"/>
<path fill-rule="evenodd" clip-rule="evenodd" d="M154.225 428.836L137.756 436.325C135.598 432.132 130.258 431.605 129.995 431.605C127.127 431.605 124.865 429.337 124.865 426.542C124.865 425.54 125.259 424.591 125.706 423.72C130.021 415.229 127.469 408.742 126.154 406.343L140.36 398.221L154.225 428.836ZM137.203 438.804C137.361 438.804 137.493 438.777 137.651 438.698L156.067 430.313C156.593 430.075 156.83 429.443 156.593 428.915L141.834 396.296C141.702 396.032 141.492 395.821 141.202 395.716C140.913 395.61 140.623 395.663 140.36 395.795L124.207 405.024C123.944 405.182 123.76 405.42 123.707 405.71C123.654 406 123.707 406.316 123.891 406.554C124.075 406.817 128.627 413.357 123.865 422.745C123.339 423.799 122.786 425.065 122.786 426.516C122.786 430.471 125.996 433.688 129.942 433.688C129.889 433.688 134.941 434.189 136.23 438.065C136.335 438.355 136.546 438.566 136.809 438.698C136.94 438.777 137.072 438.804 137.203 438.804Z" fill="#431F20"/>
<path fill-rule="evenodd" clip-rule="evenodd" d="M137.254 419.897C137.754 419.897 138.254 419.792 138.701 419.607C139.701 419.211 140.464 418.447 140.885 417.445C141.305 416.443 141.305 415.362 140.911 414.359L135.36 400.305C135.149 399.777 134.544 399.487 133.992 399.724C133.465 399.935 133.176 400.542 133.413 401.096L138.964 415.151C139.148 415.625 139.148 416.153 138.938 416.627C138.727 417.102 138.359 417.471 137.912 417.656C137.438 417.84 136.938 417.84 136.465 417.629C135.991 417.418 135.623 417.049 135.439 416.575L130.177 403.284C129.966 402.731 129.361 402.467 128.809 402.704C128.283 402.915 127.993 403.522 128.23 404.075L133.492 417.366C133.886 418.368 134.649 419.159 135.623 419.581C136.175 419.765 136.728 419.897 137.254 419.897Z" fill="#431F20"/>
<path fill-rule="evenodd" clip-rule="evenodd" d="M338.147 401.938C337.042 405.63 333.174 407.74 329.491 406.632C327.702 406.105 326.229 404.918 325.361 403.257C324.466 401.622 324.282 399.723 324.808 397.93C325.913 394.238 329.781 392.129 333.464 393.236C337.147 394.344 339.252 398.247 338.147 401.938ZM331.464 409.032C335.358 409.032 338.989 406.474 340.173 402.545C341.593 397.746 338.857 392.656 334.069 391.232C329.281 389.808 324.229 392.551 322.783 397.35C322.098 399.671 322.362 402.123 323.493 404.259C324.65 406.395 326.571 407.951 328.886 408.636C329.754 408.9 330.623 409.032 331.464 409.032Z" fill="#431F20"/>
<path fill-rule="evenodd" clip-rule="evenodd" d="M332.782 400.33C332.571 401.042 331.808 401.464 331.098 401.253C330.756 401.148 330.466 400.911 330.282 400.594C330.098 400.278 330.072 399.909 330.177 399.566C330.387 398.854 331.15 398.432 331.861 398.643C332.571 398.854 332.992 399.618 332.782 400.33ZM331.466 403.416C332.966 403.416 334.334 402.44 334.781 400.937C335.333 399.117 334.281 397.166 332.466 396.612C330.624 396.059 328.704 397.113 328.151 398.959C327.888 399.856 327.993 400.779 328.414 401.596C328.862 402.414 329.572 402.994 330.466 403.257C330.808 403.363 331.15 403.416 331.466 403.416Z" fill="#431F20"/>
<path fill-rule="evenodd" clip-rule="evenodd" d="M327.019 419.711C326.808 420.423 326.045 420.845 325.335 420.634C324.625 420.423 324.204 419.659 324.414 418.947C324.519 418.604 324.756 418.314 325.072 418.129C325.388 417.971 325.756 417.918 326.098 418.024C326.44 418.129 326.729 418.367 326.914 418.683C327.098 419 327.124 419.369 327.019 419.711ZM325.73 422.797C327.229 422.797 328.597 421.821 329.045 420.318C329.308 419.421 329.202 418.498 328.781 417.681C328.334 416.864 327.598 416.283 326.729 416.02C325.861 415.756 324.914 415.862 324.099 416.283C323.283 416.732 322.704 417.444 322.441 418.34C321.889 420.186 322.941 422.111 324.783 422.639C325.072 422.744 325.388 422.797 325.73 422.797Z" fill="#431F20"/>
<path fill-rule="evenodd" clip-rule="evenodd" d="M319.968 437.327C320.1 437.327 320.231 437.353 320.363 437.38C320.705 437.485 320.994 437.723 321.178 438.039C321.362 438.355 321.389 438.725 321.283 439.067C321.178 439.41 320.941 439.7 320.626 439.885C320.31 440.069 319.942 440.096 319.6 439.99C319.258 439.885 318.968 439.647 318.784 439.331C318.6 439.015 318.574 438.645 318.679 438.303C318.863 437.723 319.389 437.327 319.968 437.327ZM319.994 442.153C320.573 442.153 321.126 442.021 321.626 441.731C322.441 441.282 323.02 440.57 323.283 439.674C323.546 438.777 323.441 437.854 323.02 437.037C322.573 436.219 321.862 435.639 320.968 435.376C319.126 434.822 317.206 435.877 316.653 437.696C316.39 438.593 316.495 439.516 316.916 440.333C317.364 441.151 318.1 441.731 318.968 441.994C319.31 442.1 319.652 442.153 319.994 442.153Z" fill="#431F20"/>
<path fill-rule="evenodd" clip-rule="evenodd" d="M313.996 456.814C314.127 456.814 314.259 456.841 314.39 456.867C314.732 456.973 315.022 457.21 315.206 457.526C315.39 457.843 315.416 458.212 315.311 458.555C315.206 458.898 314.969 459.188 314.653 459.346C314.338 459.504 313.969 459.557 313.627 459.451C312.917 459.24 312.496 458.476 312.706 457.764C312.891 457.21 313.417 456.814 313.996 456.814ZM314.022 461.64C314.601 461.64 315.153 461.508 315.653 461.218C316.469 460.77 317.047 460.058 317.31 459.161C317.574 458.265 317.468 457.342 317.047 456.524C316.6 455.707 315.89 455.127 314.995 454.863C313.18 454.309 311.233 455.364 310.707 457.183C310.181 459.029 311.207 460.954 313.048 461.482C313.338 461.587 313.68 461.64 314.022 461.64Z" fill="#431F20"/>
<path fill-rule="evenodd" clip-rule="evenodd" d="M332.414 421.322C331.309 425.013 327.415 427.123 323.758 426.015C320.075 424.908 317.97 421.031 319.075 417.34C319.601 415.547 320.785 414.07 322.443 413.2C324.074 412.303 325.968 412.118 327.757 412.646C329.546 413.173 331.019 414.36 331.887 416.021C332.729 417.63 332.94 419.528 332.414 421.322ZM325.731 428.415C329.651 428.415 333.255 425.857 334.439 421.928C335.123 419.607 334.887 417.155 333.729 415.019C332.571 412.883 330.651 411.327 328.336 410.642C326.021 409.956 323.574 410.193 321.443 411.354C319.312 412.514 317.76 414.439 317.076 416.76C315.655 421.559 318.391 426.622 323.179 428.072C323.995 428.283 324.863 428.415 325.731 428.415Z" fill="#431F20"/>
<path fill-rule="evenodd" clip-rule="evenodd" d="M320.679 460.163C319.574 463.855 315.707 465.964 312.023 464.857C310.234 464.33 308.761 463.143 307.893 461.482C306.998 459.847 306.814 457.948 307.34 456.155C308.445 452.463 312.313 450.354 315.996 451.461C319.679 452.595 321.784 456.472 320.679 460.163ZM313.997 467.257C317.917 467.257 321.521 464.699 322.705 460.77C324.125 455.971 321.389 450.908 316.601 449.457C311.813 448.033 306.762 450.776 305.315 455.575C304.631 457.896 304.894 460.374 306.025 462.51C307.183 464.646 309.103 466.202 311.418 466.887C312.286 467.151 313.155 467.257 313.997 467.257Z" fill="#431F20"/>
<path fill-rule="evenodd" clip-rule="evenodd" d="M326.652 440.677C325.547 444.369 321.679 446.478 317.996 445.371C314.313 444.263 312.208 440.387 313.313 436.695C313.839 434.902 315.05 433.425 316.681 432.555C318.312 431.659 320.206 431.474 321.995 432.001C323.784 432.529 325.257 433.715 326.126 435.377C326.994 437.012 327.178 438.884 326.652 440.677ZM319.969 447.771C323.863 447.771 327.494 445.213 328.677 441.283C329.362 438.963 329.098 436.511 327.967 434.375C326.81 432.239 324.889 430.683 322.574 429.997C320.259 429.312 317.786 429.575 315.681 430.709C313.55 431.87 311.998 433.795 311.314 436.115C309.893 440.914 312.629 446.004 317.417 447.428C318.259 447.665 319.127 447.771 319.969 447.771Z" fill="#431F20"/>
<path fill-rule="evenodd" clip-rule="evenodd" d="M294.083 456.947C296.477 456.947 298.845 456.024 300.686 454.204C302.265 452.622 303.133 449.906 303.159 449.774C307.106 437.459 317.392 399.935 317.498 399.566C317.498 399.54 317.524 399.487 317.524 399.461C317.892 397.114 317.129 394.714 315.445 393.027C314.446 392.024 312.341 390.495 310.763 390.231L290.505 385.274C289.953 385.142 289.374 385.485 289.242 386.039C289.111 386.592 289.453 387.172 290.005 387.304L310.315 392.288C311.315 392.473 313.051 393.633 313.946 394.53C315.13 395.716 315.682 397.404 315.445 399.091C314.972 400.779 305.001 437.117 301.134 449.168C301.134 449.194 300.397 451.541 299.187 452.727C296.372 455.549 291.794 455.549 288.979 452.727C287.585 451.33 286.98 449.273 286.848 445.555C286.69 440.782 286.532 426.358 286.532 426.2C286.532 425.619 286.059 425.145 285.48 425.145H285.454C284.875 425.145 284.401 425.619 284.401 426.226C284.401 426.358 284.586 440.808 284.743 445.608C284.875 449.906 285.664 452.385 287.48 454.204C289.321 456.05 291.689 456.947 294.083 456.947Z" fill="#431F20"/>
<path fill-rule="evenodd" clip-rule="evenodd" d="M291.712 415.967C291.87 415.967 291.976 415.967 292.107 415.994C292.581 416.099 292.66 416.363 292.686 416.468C292.817 416.996 292.449 417.998 291.318 419.026C291.002 419.316 290.45 419.738 289.766 420.292C288.424 421.373 286.451 422.955 284.504 424.775C284.32 424.485 284.109 424.01 284.004 423.377C283.925 422.824 283.872 421.795 284.556 420.978C287.871 416.996 290.45 415.967 291.712 415.967ZM284.504 427.069C284.925 427.069 285.293 426.884 285.583 426.621C287.556 424.722 289.581 423.114 291.055 421.927C291.791 421.347 292.344 420.872 292.712 420.582C294.343 419.105 295.08 417.365 294.685 415.941C294.422 414.913 293.633 414.201 292.554 413.963C289.976 413.383 286.372 415.493 282.925 419.633C281.057 421.874 281.873 425.276 283.215 426.542C283.662 426.911 284.109 427.069 284.504 427.069Z" fill="#431F20"/>
<path fill-rule="evenodd" clip-rule="evenodd" d="M283.689 421.373C283.741 421.373 283.794 421.373 283.847 421.373C284.425 421.294 284.82 420.74 284.741 420.187C284.636 419.58 284.294 417.497 283.426 416.627C282.242 415.466 278.585 414.042 277.848 413.779C277.296 413.568 276.691 413.858 276.506 414.385C276.296 414.939 276.585 415.546 277.138 415.73C278.769 416.337 281.321 417.471 281.952 418.103C282.189 418.341 282.531 419.501 282.663 420.503C282.715 421.004 283.162 421.373 283.689 421.373Z" fill="#431F20"/>
<path fill-rule="evenodd" clip-rule="evenodd" d="M289.266 384.378C287.846 388.887 291.266 393.027 291.424 393.212C293.449 395.243 293.449 398.46 291.476 400.437C290.766 401.149 289.819 401.518 288.898 401.835C279.874 404.788 277.085 411.196 276.296 413.807L260.537 409.456L272.323 377.997L289.266 384.378ZM277.059 416.154C277.269 416.154 277.454 416.101 277.638 415.995C277.901 415.837 278.059 415.573 278.111 415.283C278.164 414.914 279.585 407.109 289.556 403.839C290.661 403.47 291.95 402.969 292.976 401.94C295.764 399.145 295.764 394.61 292.976 391.814C292.976 391.814 289.792 387.912 291.608 384.273C291.739 384.009 291.766 383.693 291.634 383.429C291.529 383.139 291.292 382.928 291.029 382.822L272.113 375.703C271.56 375.492 270.955 375.782 270.745 376.309L258.169 409.825C258.064 410.089 258.09 410.405 258.222 410.669C258.354 410.932 258.59 411.117 258.88 411.196L276.796 416.127C276.875 416.154 276.98 416.154 277.059 416.154Z" fill="#431F20"/>
<path fill-rule="evenodd" clip-rule="evenodd" d="M272.217 414.596C272.612 414.596 273.006 414.359 273.191 413.963L278.847 400.831C279.741 398.801 278.794 396.401 276.769 395.531C274.743 394.661 272.375 395.61 271.48 397.641L265.508 411.537C265.272 412.065 265.535 412.698 266.061 412.935C266.587 413.172 267.218 412.909 267.455 412.381L273.427 398.484C273.848 397.509 274.98 397.06 275.927 397.456C276.9 397.878 277.321 399.012 276.9 399.988L271.244 413.093C271.007 413.62 271.27 414.253 271.796 414.491C271.954 414.57 272.086 414.596 272.217 414.596Z" fill="#431F20"/>
</svg>
