<svg viewBox="0 0 763 490" fill="none" xmlns="http://www.w3.org/2000/svg">
<path fill-rule="evenodd" clip-rule="evenodd" d="M485.767 171.853C489.59 161.387 489.076 153.456 484.444 146.038C474.409 130.064 460.846 130.137 441.989 129.88C423.39 129.623 411.076 138.436 404.203 165.537C404.129 165.831 404.35 166.124 404.313 166.308C401.042 178.389 411.113 181.878 412.878 194.877C414.274 205.086 412.473 211.218 405.011 214.156C389.316 218.415 385.457 203.029 390.823 197.741C392.44 196.126 394.756 195.281 396.741 194.106C386.449 191.939 381.854 201.34 381.781 212.797C381.707 222.638 380.127 231.048 396.741 237.584C408.908 241.734 426.073 241.219 434.16 227.743L426.662 188.01L449.892 169.136L485.767 171.853Z" fill="#962420" stroke="black" stroke-width="0.748005" stroke-miterlimit="22.9256"/>
<path fill-rule="evenodd" clip-rule="evenodd" d="M451.068 260.425C445.922 257.707 448.973 247.719 451.693 242.798L442.246 235.16C449.965 243.753 459.743 247.939 470.292 243.606C483.782 238.098 486.281 223.41 493.118 210.851L494.956 211.108C490.398 207.399 489.553 201.744 488.818 199.504L489.112 197.705C478.415 209.639 461.103 213.935 445.848 207.84C444.598 207.326 443.349 206.775 442.136 206.114C439.783 204.865 437.615 203.433 435.63 201.817L436.328 203.8C435.519 204.792 435.078 206.077 435.189 207.472C435.372 209.896 437.21 211.806 439.489 212.21C439.93 212.283 439.232 212.393 439.232 212.393C439.195 212.797 437.137 211.842 437.063 212.32C436.99 212.797 434.306 208.39 433.865 208.06C430.116 204.975 424.382 198.916 423.132 202.221C422.691 203.396 425.632 212.467 425.521 213.935L434.196 226.604C434.711 228.293 434.343 224.217 436.732 231.268C438.313 235.968 437.357 240.669 436.438 244.267C434.306 252.64 429.454 256.752 417.582 254.072C414.457 254.292 410.892 256.238 408.797 258.625C407.657 259.947 406.481 260.755 407.143 262.922C407.915 265.382 412.362 268.65 416.442 271.037C450.259 295.971 451.068 260.425 451.068 260.425Z" fill="#FDD491"/>
<path fill-rule="evenodd" clip-rule="evenodd" d="M487.9 173.615C488.304 172.256 489.223 170.934 489.113 169.502C488.672 164.434 483.93 161.46 481.1 164.508L477.865 168.033L487.9 173.615Z" fill="#F77924" stroke="black" stroke-width="0.748005" stroke-miterlimit="22.9256"/>
<path fill-rule="evenodd" clip-rule="evenodd" d="M464.998 237.034C461.837 235.381 459.999 232.37 459.301 229.469C459.154 228.955 459.485 228.404 460.036 228.258C460.551 228.111 461.102 228.441 461.249 228.992C461.69 230.791 463.712 236.63 471.174 236.336C471.725 236.3 472.166 236.74 472.203 237.291C472.24 237.842 471.799 238.282 471.247 238.319C468.748 238.393 466.689 237.915 464.998 237.034Z" fill="#431F20"/>
<path fill-rule="evenodd" clip-rule="evenodd" d="M450.663 243.312C447.318 241.55 444.084 238.979 441.069 235.601C440.702 235.197 440.739 234.573 441.143 234.205C441.547 233.838 442.172 233.875 442.54 234.279C450.663 243.349 460.22 246.25 469.446 242.505C479.077 238.575 482.936 229.652 487.053 220.251C488.486 216.91 489.993 213.495 491.795 210.19C492.052 209.712 492.64 209.529 493.118 209.786C493.596 210.043 493.779 210.63 493.522 211.145C491.795 214.339 490.288 217.754 488.854 221.059C484.59 230.864 480.547 240.118 470.181 244.341C463.675 246.985 456.949 246.617 450.663 243.312Z" fill="#431F20"/>
<path fill-rule="evenodd" clip-rule="evenodd" d="M494.04 211.806C493.966 211.77 493.929 211.733 493.856 211.696C489.813 208.391 488.526 203.728 487.791 200.937C487.644 200.423 487.534 199.982 487.423 199.615C487.239 199.101 487.534 198.55 488.048 198.366C488.563 198.183 489.114 198.477 489.298 198.991C489.408 199.395 489.555 199.872 489.702 200.423C490.401 202.993 491.54 207.253 495.106 210.154C495.547 210.485 495.583 211.109 495.253 211.549C494.959 211.917 494.444 211.99 494.04 211.806Z" fill="#431F20"/>
<path fill-rule="evenodd" clip-rule="evenodd" d="M450.958 261.232C449.745 260.571 448.495 259.139 447.797 257.524C447.099 253.851 446.878 251.024 451.105 243.276C451.362 242.798 451.951 242.615 452.428 242.872C452.906 243.129 453.09 243.716 452.833 244.23C448.936 251.391 448.716 254.108 449.525 256.863C449.782 257.67 451.179 259.433 451.877 259.837C452.098 259.874 451.914 261.71 450.958 261.232Z" fill="#431F20"/>
<path fill-rule="evenodd" clip-rule="evenodd" d="M485.805 226.715L487.9 219.885L491.024 213.605L493.487 210.043L490.289 205.013L488.672 200.129L487.385 199.174L481.761 203.727L470.808 208.685L459.486 210.631L447.65 208.317L440.078 205.013L436.586 202.626L434.932 205.784L434.638 208.685L436.256 211.218L435.962 218.306L435.851 223.924L435.631 228.184L426.625 216.58L423.354 205.637L423.501 197.154L424.199 189.479L426.441 182.319L430.558 175.048L437.028 169.393L447.614 163.848L456.987 162.122L468.014 162.342L480.291 167.263L486.466 172.184L493.156 181.401L496.28 187.35L498.229 197.117V204.241L496.391 210.888L493.082 219.297L491.098 222.125L488.598 224.916L485.805 226.715Z" fill="#962420" stroke="black" stroke-width="0.883609" stroke-miterlimit="22.9256"/>
<path fill-rule="evenodd" clip-rule="evenodd" d="M426.037 255.101C425.853 254.991 420.119 255.174 419.935 255.027C419.862 254.991 418.833 253.485 419.935 253.301C421.884 253.632 429.125 253.669 431.587 251.759C434.381 250.07 436.623 242.542 436.807 231.269C436.807 231.232 435.116 229.579 435.116 229.543C435.226 223.667 435.226 217.278 435.373 211.035C435.337 210.852 436.881 212.247 436.881 212.247C436.844 218.6 436.917 225.246 436.807 231.269C436.807 231.379 438.682 232.995 438.682 233.141C438.608 237.878 436.55 251.025 432.617 253.412C430.374 254.807 428.206 254.991 426.037 255.101Z" fill="#431F20"/>
<path fill-rule="evenodd" clip-rule="evenodd" d="M437.1 212.393C435.262 211.438 433.976 209.565 433.792 207.362C433.682 205.783 434.159 204.241 435.115 202.992C435.446 202.552 436.071 202.515 436.512 202.845C436.953 203.176 437.027 203.8 436.659 204.241C435.997 205.085 435.667 206.15 435.74 207.215C435.887 209.161 437.321 210.74 439.232 211.071C439.563 211.144 439.93 211.144 440.298 211.108C440.849 211.071 441.327 211.475 441.364 212.026C441.401 212.576 440.996 213.054 440.445 213.091C439.93 213.127 439.416 213.091 438.901 213.017C438.276 212.907 437.651 212.687 437.1 212.393Z" fill="#431F20"/>
<path fill-rule="evenodd" clip-rule="evenodd" d="M438.533 209.933C437.651 209.492 437.026 208.574 436.953 207.472C436.842 205.82 437.982 204.388 439.562 204.277C441.143 204.167 442.503 205.379 442.65 207.032C442.687 207.582 442.282 208.06 441.731 208.096C441.18 208.133 440.702 207.729 440.665 207.178C440.628 206.628 440.187 206.187 439.709 206.224C439.232 206.26 438.864 206.738 438.901 207.289C438.938 207.839 439.379 208.28 439.856 208.243C440.408 208.207 440.886 208.611 440.922 209.161C440.959 209.712 440.555 210.19 440.003 210.226C439.489 210.263 438.974 210.153 438.533 209.933Z" fill="#431F20"/>
<path fill-rule="evenodd" clip-rule="evenodd" d="M441.218 206.811C438.865 205.563 436.623 204.094 434.565 202.405C434.16 202.074 434.087 201.45 434.418 201.009C434.785 200.569 435.41 200.532 435.814 200.862C438.792 203.286 442.21 205.306 445.739 206.701C460.405 212.576 477.35 208.611 487.9 196.823C488.267 196.419 488.892 196.382 489.296 196.75C489.701 197.117 489.737 197.741 489.37 198.145C478.269 210.52 460.442 214.706 445.004 208.537C443.754 208.06 442.467 207.472 441.218 206.811Z" fill="#431F20"/>
<path fill-rule="evenodd" clip-rule="evenodd" d="M473.528 213.679C473.344 213.568 473.197 213.421 473.087 213.238C472.866 212.761 473.05 212.136 473.528 211.916C480.328 208.574 484.702 204.021 487.716 197.117C487.937 196.603 488.525 196.383 489.039 196.603C489.517 196.823 489.774 197.411 489.554 197.925C486.356 205.196 481.541 210.19 474.41 213.715C474.116 213.862 473.785 213.825 473.528 213.679Z" fill="#431F20"/>
<path fill-rule="evenodd" clip-rule="evenodd" d="M475.328 230.938C475.07 230.791 474.887 230.571 474.813 230.277C474.703 229.726 475.034 229.212 475.548 229.102C476.541 228.882 477.166 227.853 476.945 226.862C476.724 225.871 475.695 225.246 474.703 225.467C474.188 225.577 473.637 225.246 473.527 224.732C473.416 224.181 473.747 223.667 474.262 223.557C476.32 223.08 478.379 224.365 478.856 226.421C479.334 228.478 478.048 230.534 475.989 231.012C475.769 231.085 475.511 231.048 475.328 230.938Z" fill="#431F20"/>
<path fill-rule="evenodd" clip-rule="evenodd" d="M440.96 235.418C430.043 224.989 415.376 210.117 425.816 181.437C430.447 172.661 438.166 166.051 447.539 162.82L448.899 162.452C457.611 159.735 467.057 160.249 475.511 163.848C483.23 167.153 489.516 172.698 493.706 179.895C493.743 179.932 494.809 182.025 495.066 182.502C500.433 193.555 500.249 206.665 494.515 217.534C492.346 221.647 489.479 225.319 486.024 228.404C485.62 228.771 484.995 228.734 484.627 228.33C484.26 227.926 484.296 227.302 484.701 226.935C487.972 223.997 490.692 220.546 492.751 216.616C498.191 206.298 498.375 193.886 493.265 183.384C493.045 182.906 491.979 180.887 491.979 180.887C488.009 174.093 482.017 168.805 474.74 165.684C466.726 162.269 457.758 161.791 449.45 164.362L448.127 164.692C439.269 167.74 431.954 173.983 427.58 182.319C419.346 206.041 425.007 218.085 442.393 234.059C442.54 234.83 441.18 235.638 440.96 235.418Z" fill="#431F20"/>
<path fill-rule="evenodd" clip-rule="evenodd" d="M485.546 214.082C485.362 213.972 485.215 213.825 485.142 213.642C484.774 212.907 484.112 212.467 483.377 212.43C482.826 212.393 482.422 211.916 482.458 211.402C482.495 210.851 482.973 210.447 483.488 210.484C484.958 210.557 486.244 211.439 486.906 212.797C487.163 213.275 486.943 213.899 486.465 214.119C486.134 214.229 485.803 214.229 485.546 214.082Z" fill="#431F20"/>
<path fill-rule="evenodd" clip-rule="evenodd" d="M478.967 218.416C478.232 219.811 478.268 221.243 479.04 221.684C479.812 222.088 481.062 221.317 481.797 219.921C482.532 218.526 482.495 217.094 481.724 216.653C480.952 216.249 479.702 217.02 478.967 218.416Z" fill="#431F20"/>
<path fill-rule="evenodd" clip-rule="evenodd" d="M466.799 213.458C465.991 214.816 465.991 216.285 466.763 216.726C467.535 217.166 468.784 216.432 469.593 215.073C470.402 213.715 470.402 212.246 469.63 211.805C468.858 211.364 467.608 212.099 466.799 213.458Z" fill="#431F20"/>
<path fill-rule="evenodd" clip-rule="evenodd" d="M457.795 230.718C457.758 230.718 457.758 230.681 457.758 230.681C457.281 230.387 457.134 229.8 457.428 229.322C457.832 228.661 458.641 228.001 459.56 227.597C460.662 227.119 461.655 227.082 462.39 227.523C462.868 227.817 463.015 228.404 462.721 228.882C462.427 229.359 461.838 229.469 461.361 229.212C461.03 229.029 459.56 229.616 459.118 230.314C458.824 230.791 458.236 230.975 457.795 230.718Z" fill="#431F20"/>
<path fill-rule="evenodd" clip-rule="evenodd" d="M419.679 254.182H414.68C410.526 255.982 408.541 258.442 407.255 261.71L405.895 265.088C405.895 281.319 395.419 292.923 379.172 292.923C366.344 292.923 355.427 284.734 351.42 273.277C351.42 273.277 351.09 272.58 351.751 271.625C354.177 267.218 351.604 257.597 351.604 257.597L348.664 244.892C348.443 243.79 347.34 243.056 346.238 243.276L345.649 242.248C345.429 241.146 344.326 240.412 343.223 240.632C342.819 240.706 342.488 240.889 342.194 241.146L341.863 241.807C341.643 240.706 340.54 239.971 339.437 240.191C338.335 240.412 337.6 241.513 337.82 242.615L338.041 243.753L339.254 245.296C339.033 244.194 337.93 243.46 336.828 243.68C335.725 243.9 334.99 245.002 335.21 246.104L335.321 246.618L336.607 252.309L335.982 252.456C335.615 252.273 336.056 252.199 335.578 252.309C334.255 252.567 333.924 253.778 334.181 255.1L334.438 256.386L336.754 266.007L337.011 267.182C337.563 269.899 339.29 272.286 342.268 273.938C342.856 274.342 343.628 275.885 343.628 275.885L343.554 275.958C348.369 291.161 362.558 302.177 379.356 302.177C390.787 302.177 407.549 294.759 413.614 281.172L417.363 271.221L419.679 254.182Z" fill="#FDD491"/>
<path fill-rule="evenodd" clip-rule="evenodd" d="M379.648 303.021C390.895 303.021 401.555 298.101 408.87 289.545C410.855 287.488 414.383 281.466 414.42 281.393C414.751 280.658 414.31 277.17 414.2 277.941C413.979 279.373 408.98 287.194 407.583 288.443C400.599 296.632 390.418 301.295 379.684 301.295C363.585 301.295 349.543 291.013 344.691 275.701C344.544 275.26 344.067 275.003 343.589 275.15C343.111 275.297 342.89 275.774 343.037 276.252C348.036 292.225 362.776 303.021 379.648 303.021Z" fill="#431F20"/>
<path fill-rule="evenodd" clip-rule="evenodd" d="M379.355 293.804C396.043 293.804 402.439 285.762 406.298 269.642L406.629 266.3C406.629 263.326 410.158 257.928 412.106 256.973C414.606 255.798 417.252 255.063 419.862 255.063C420.34 255.063 420.744 254.659 420.744 254.182C420.744 253.705 420.34 253.301 419.862 253.301C416.885 253.301 414.128 254.109 411.408 255.32C408.835 256.459 404.865 262.334 404.865 266.263L404.534 269.605C400.675 284.955 395.051 292.042 379.319 292.042C367.225 292.042 356.382 284.367 352.375 272.983C352.375 272.947 352.339 272.91 352.339 272.873C352.339 272.873 352.265 272.579 352.596 272.102C352.853 271.698 352.78 271.147 352.375 270.89C351.971 270.633 351.42 270.707 351.162 271.111C350.354 272.322 350.611 273.277 350.721 273.571C355.059 285.689 366.527 293.804 379.355 293.804Z" fill="#431F20"/>
<path fill-rule="evenodd" clip-rule="evenodd" d="M343.883 276.729C344.03 276.729 344.14 276.692 344.287 276.619C344.728 276.399 344.875 275.885 344.655 275.444C344.434 275.04 343.699 273.645 342.89 273.204C340.244 271.772 338.59 269.642 338.075 267.035L337.854 265.86L335.539 256.202L335.281 254.917C335.171 254.403 335.208 253.962 335.318 253.668C335.392 253.521 335.502 253.338 335.796 253.227H335.833C336.274 253.448 336.788 253.264 337.009 252.824C337.193 252.456 337.083 252.016 336.788 251.795C336.752 251.722 336.715 251.685 336.678 251.648C336.347 251.318 335.943 251.391 335.796 251.428L335.686 251.465C334.804 251.648 334.105 252.163 333.774 252.97C333.48 253.595 333.444 254.403 333.627 255.284L333.885 256.569L336.384 267.439C337.009 270.56 338.994 273.094 342.082 274.783C342.302 274.893 342.78 275.627 343.147 276.288C343.258 276.582 343.589 276.729 343.883 276.729Z" fill="#431F20"/>
<path fill-rule="evenodd" clip-rule="evenodd" d="M386.192 482.479C390.198 482.406 393.359 479.137 393.286 475.135C393.212 471.132 389.941 467.974 385.934 468.048C381.965 468.121 378.767 471.389 378.84 475.392C378.914 479.358 382.185 482.553 386.192 482.479Z" fill="#FEFEFE"/>
<path fill-rule="evenodd" clip-rule="evenodd" d="M351.934 272.505C352.228 272.505 352.559 272.358 352.706 272.064C355.279 267.401 352.743 257.78 352.669 257.376L349.729 244.707C349.618 244.23 349.177 243.936 348.7 244.046C348.222 244.156 347.928 244.634 348.038 245.074L350.978 257.78C351.015 257.89 353.404 267.144 351.199 271.22C350.978 271.624 351.126 272.175 351.53 272.395C351.677 272.468 351.824 272.505 351.934 272.505Z" fill="#431F20"/>
<path fill-rule="evenodd" clip-rule="evenodd" d="M335.468 247.022C335.541 247.022 335.578 247.022 335.652 247.022C336.13 246.912 336.424 246.471 336.35 245.994C336.277 245.663 336.35 245.369 336.534 245.112C336.718 244.855 336.975 244.672 337.306 244.598C337.637 244.525 337.931 244.598 338.188 244.782C338.445 244.965 338.629 245.223 338.703 245.553C338.813 246.03 339.254 246.324 339.732 246.251C340.21 246.141 340.504 245.7 340.43 245.223C340.283 244.451 339.842 243.79 339.18 243.35C338.519 242.909 337.747 242.762 336.975 242.909C336.203 243.056 335.541 243.497 335.1 244.158C334.659 244.819 334.512 245.59 334.659 246.361C334.696 246.765 335.064 247.022 335.468 247.022Z" fill="#431F20"/>
<path fill-rule="evenodd" clip-rule="evenodd" d="M338.259 244.671C338.332 244.671 338.369 244.671 338.443 244.671C338.92 244.561 339.214 244.121 339.141 243.643L338.92 242.505C338.847 242.174 338.92 241.881 339.104 241.624C339.288 241.367 339.545 241.183 339.876 241.11C340.538 240.963 341.163 241.403 341.273 242.028C341.383 242.505 341.824 242.799 342.302 242.689C342.78 242.578 343.074 242.138 343.001 241.66C342.67 240.081 341.126 239.053 339.545 239.384C338.773 239.53 338.112 239.971 337.671 240.632C337.23 241.293 337.083 242.064 337.23 242.835L337.45 243.974C337.487 244.378 337.854 244.671 338.259 244.671Z" fill="#431F20"/>
<path fill-rule="evenodd" clip-rule="evenodd" d="M345.869 243.129C345.943 243.129 345.98 243.129 346.053 243.129C346.531 243.018 346.825 242.578 346.751 242.1C346.604 241.329 346.163 240.668 345.502 240.228C344.84 239.787 344.068 239.64 343.296 239.787C342.745 239.897 342.267 240.154 341.863 240.521C341.532 240.852 341.495 241.403 341.826 241.733C342.157 242.064 342.708 242.1 343.039 241.77C343.186 241.623 343.407 241.513 343.627 241.476C343.958 241.403 344.252 241.476 344.509 241.66C344.767 241.843 344.95 242.1 345.024 242.431C345.097 242.835 345.465 243.129 345.869 243.129Z" fill="#431F20"/>
<path fill-rule="evenodd" clip-rule="evenodd" d="M348.883 245.736C348.956 245.736 348.993 245.736 349.067 245.736C349.545 245.626 349.839 245.185 349.765 244.708C349.618 243.937 349.177 243.276 348.515 242.835C347.854 242.394 347.082 242.248 346.31 242.394C345.832 242.505 345.538 242.945 345.612 243.423C345.722 243.9 346.163 244.194 346.641 244.12C347.302 243.973 347.927 244.414 348.038 245.038C348.111 245.479 348.479 245.736 348.883 245.736Z" fill="#431F20"/>
<path fill-rule="evenodd" clip-rule="evenodd" d="M349.14 257.561C349.214 257.561 349.25 257.561 349.324 257.524C349.802 257.414 350.096 256.937 349.986 256.496L346.825 242.615C346.714 242.138 346.236 241.844 345.795 241.954C345.317 242.064 345.023 242.542 345.134 242.982L348.295 256.863C348.368 257.267 348.736 257.561 349.14 257.561Z" fill="#431F20"/>
<path fill-rule="evenodd" clip-rule="evenodd" d="M345.244 256.569C345.317 256.569 345.354 256.569 345.428 256.532C345.905 256.422 346.199 255.945 346.089 255.504L342.928 241.624C342.818 241.146 342.377 240.852 341.899 240.963C341.421 241.073 341.127 241.55 341.237 241.991L344.398 255.871C344.509 256.275 344.839 256.569 345.244 256.569Z" fill="#431F20"/>
<path fill-rule="evenodd" clip-rule="evenodd" d="M342.157 257.671C342.23 257.671 342.304 257.671 342.341 257.635C342.818 257.524 343.113 257.047 343.002 256.606L340.245 244.819C340.135 244.341 339.657 244.048 339.216 244.158C338.738 244.268 338.444 244.745 338.555 245.186L341.311 256.974C341.422 257.414 341.789 257.671 342.157 257.671Z" fill="#431F20"/>
<path fill-rule="evenodd" clip-rule="evenodd" d="M339.069 263.179C339.142 263.179 339.179 263.179 339.253 263.143C339.731 263.032 340.025 262.555 339.914 262.114L336.422 246.508C336.312 246.03 335.871 245.737 335.393 245.847C334.915 245.957 334.621 246.434 334.732 246.875L338.26 262.482C338.334 262.886 338.701 263.179 339.069 263.179Z" fill="#431F20"/>
<path fill-rule="evenodd" clip-rule="evenodd" d="M439.82 279.631C442.797 282.716 455.699 278.089 466.322 282.642C471.578 284.882 477.79 296.413 478.93 298.322C493.045 321.824 494.478 349.328 485.252 372.683L485.546 373.821C484.296 372.83 482.569 372.426 480.915 372.866C479.849 373.16 478.93 373.748 478.268 374.519C478.048 374.776 474.298 379.55 467.645 378.338L467.167 378.411C465.954 378.779 465.219 380.027 465.587 381.276C465.771 381.937 466.212 382.451 466.8 382.708C467.278 382.965 473.269 384.764 475.879 380.284L474.225 382.267C474.225 382.267 468.821 390.566 468.821 390.603C468.38 391.558 468.674 392.696 469.557 393.283C470.475 393.871 471.652 393.687 472.35 392.88C472.387 392.843 475.107 388.583 475.107 388.546L477.276 385.682C477.276 385.719 477.239 385.719 477.239 385.756C477.202 385.792 475.401 388.473 475.364 388.546C474.886 389.501 475.144 390.676 476.063 391.264C476.945 391.851 478.158 391.704 478.856 390.933C478.893 390.897 480.694 388.253 480.731 388.216C480.768 388.179 480.804 388.106 480.841 388.069L480.804 388.179C480.804 388.216 480.768 388.216 480.768 388.253C480.731 388.289 478.93 390.97 478.893 391.043C478.415 391.998 478.672 393.173 479.591 393.761C480.473 394.385 481.686 394.201 482.385 393.43C482.422 393.394 484.223 390.75 484.259 390.713C484.296 390.676 484.333 390.64 484.37 390.566L482.569 393.173C482.532 393.21 482.128 393.798 482.091 393.834C481.613 394.789 482.238 395.634 483.157 396.258C484.039 396.845 484.958 396.625 485.656 395.854C485.693 395.817 492.346 385.719 492.346 385.719C493.228 384.14 493.522 382.194 492.971 380.321C492.346 378.118 490.729 376.428 488.744 375.657L492.603 379.586C505.064 352.89 504.476 320.722 488.193 293.585C475.033 265.236 464.374 262.482 448.678 261.674L439.82 279.631Z" fill="#FDD491"/>
<path fill-rule="evenodd" clip-rule="evenodd" d="M498.154 327.038C498.044 326.854 497.897 326.707 497.75 326.56C497.235 326.083 496.574 325.789 495.875 325.789C495.177 325.789 494.515 326.083 494.001 326.597C493.523 327.111 493.229 327.772 493.229 328.47C493.229 328.874 493.56 329.167 493.927 329.167C494.295 329.167 494.625 328.837 494.625 328.47C494.625 328.139 494.736 327.809 494.993 327.588C495.214 327.331 495.544 327.221 495.875 327.221C496.206 327.221 496.537 327.331 496.757 327.588C497.015 327.809 497.125 328.139 497.125 328.47C497.125 328.837 497.456 329.167 497.823 329.167C498.191 329.167 498.522 328.837 498.522 328.47C498.559 327.919 498.411 327.478 498.154 327.038Z" fill="#431F20"/>
<path fill-rule="evenodd" clip-rule="evenodd" d="M487.385 291.088C483.967 285.69 476.542 261.123 451.216 260.903C450.702 260.903 451.437 260.793 450.922 260.829C450.26 260.168 450.665 261.013 450.665 261.564C451.4 261.527 449.636 261.637 450.224 261.894C450.408 261.968 450.187 262.004 450.518 262.004C476.285 262.849 483.82 287.819 487.385 293.768C502.971 319.73 504.772 351.311 491.943 378.815C491.796 379.145 491.943 379.733 492.311 379.88C492.678 380.027 492.899 380.063 493.083 379.696C506.132 351.788 504.441 319.4 488.635 293.034C488.194 292.373 487.79 291.749 487.385 291.088Z" fill="#431F20"/>
<path fill-rule="evenodd" clip-rule="evenodd" d="M478.305 295.935C475.144 290.977 471.468 286.314 467.425 282.128C467.425 282.128 466.653 281.246 465.624 281.209C465.293 281.209 464.447 281.944 464.594 282.201C464.631 282.238 466.432 283.082 466.469 283.119C470.917 287.746 474.886 292.887 478.231 298.468C491.795 321.089 494.074 347.969 484.517 372.242C484.37 372.609 484.554 373.013 484.921 373.16C485.289 373.306 485.693 373.123 485.84 372.756C495.581 348.079 493.265 320.758 479.444 297.771C479.077 297.147 478.709 296.522 478.305 295.935Z" fill="#431F20"/>
<path fill-rule="evenodd" clip-rule="evenodd" d="M480.657 387.995L481.246 388.399C481.687 387.738 482.569 387.592 483.231 388.032C483.892 388.473 484.039 389.354 483.598 390.015C483.561 390.052 483.561 390.089 483.525 390.089C483.488 390.125 483.194 390.566 482.826 391.117C482.312 391.851 481.723 392.769 481.65 392.843C481.209 393.32 480.4 393.43 479.812 393.026C479.224 392.622 479.003 391.815 479.334 391.19C479.371 391.154 479.959 390.272 480.474 389.538C480.841 388.987 481.172 388.473 481.209 388.473L480.657 387.995ZM484.811 387.665C484.627 387.335 484.333 387.077 484.002 386.857C482.716 385.976 480.952 386.306 480.069 387.592L480.033 387.628C479.959 387.738 479.665 388.179 479.297 388.693C478.121 390.419 478.121 390.419 478.084 390.493C477.423 391.778 477.827 393.32 479.003 394.128C480.18 394.899 481.76 394.716 482.679 393.687C482.716 393.651 482.716 393.651 483.929 391.851C484.26 391.337 484.554 390.933 484.591 390.896C484.627 390.86 484.664 390.823 484.701 390.75C485.399 389.795 485.399 388.583 484.811 387.665Z" fill="#431F20"/>
<path fill-rule="evenodd" clip-rule="evenodd" d="M475.953 390.05C475.695 389.646 475.658 389.096 475.879 388.618C475.916 388.545 476.577 387.59 477.092 386.819C477.423 386.305 477.717 385.901 477.717 385.864L477.754 385.827C478.195 385.166 479.077 385.02 479.739 385.46C480.069 385.681 480.253 386.011 480.327 386.378C480.4 386.745 480.327 387.149 480.106 387.443C480.069 387.48 480.069 387.517 480.033 387.517C479.996 387.553 479.775 387.921 479.444 388.361C478.93 389.132 478.195 390.161 478.121 390.271C477.68 390.748 476.871 390.858 476.283 390.454C476.173 390.381 476.063 390.234 475.953 390.05ZM481.319 385.166C481.099 384.836 480.841 384.579 480.51 384.359C479.224 383.477 477.46 383.808 476.577 385.093L476.504 385.203C476.467 385.24 476.21 385.644 475.879 386.085C474.629 387.957 474.629 387.957 474.592 387.994C473.931 389.279 474.335 390.822 475.511 391.629C476.688 392.437 478.268 392.217 479.187 391.189C479.224 391.152 479.224 391.152 480.584 389.169C480.878 388.765 481.099 388.435 481.099 388.398C481.135 388.398 481.172 388.324 481.209 388.251C481.613 387.627 481.797 386.892 481.65 386.121C481.65 385.791 481.503 385.46 481.319 385.166Z" fill="#431F20"/>
<path fill-rule="evenodd" clip-rule="evenodd" d="M492.934 378.081C492.199 377.126 491.611 376.832 491.207 376.465C490.839 376.318 490.435 376.502 490.288 376.869C490.141 377.236 490.324 377.64 490.692 377.787C491.905 378.815 491.574 378.411 492.126 380.321C492.603 381.973 492.383 383.699 491.574 385.205C488.56 389.795 485.436 394.826 484.995 395.487C484.517 396.001 484.002 396.258 483.414 395.854C483.046 395.634 482.569 395.928 482.348 395.671C482.091 395.34 482.054 394.863 482.973 393.357C483.157 393.027 483.083 392.586 482.752 392.402C482.422 392.219 482.017 392.292 481.797 392.623C481.172 393.541 480.363 394.642 480.694 394.459C481.907 393.761 481.356 395.193 483.046 396.295C484.223 397.066 485.068 397.176 486.024 396.148C486.061 396.074 483.488 400.004 492.75 385.939C493.78 384.067 494.037 381.973 493.449 379.954C493.228 379.219 493.339 378.705 492.934 378.081Z" fill="#431F20"/>
<path fill-rule="evenodd" clip-rule="evenodd" d="M474.703 381.641C474.666 381.568 474.592 381.494 474.482 381.421C474.151 381.2 473.71 381.311 473.526 381.641C468.123 389.977 468.086 390.014 468.086 390.05C467.461 391.336 467.902 392.841 469.079 393.649C470.255 394.457 471.872 394.237 472.791 393.135C472.828 393.061 472.828 393.061 474.629 390.271C475.144 389.499 475.548 388.802 475.585 388.765C475.805 388.435 475.695 388.031 475.401 387.81C475.107 387.59 474.666 387.663 474.445 387.957C474.409 387.994 474.409 387.994 473.453 389.536C472.681 390.711 471.762 392.18 471.688 392.29C471.247 392.804 470.439 392.915 469.851 392.511C469.262 392.107 469.042 391.336 469.336 390.711C469.41 390.601 472.901 385.24 474.703 382.449C474.886 382.155 474.85 381.861 474.703 381.641Z" fill="#431F20"/>
<path fill-rule="evenodd" clip-rule="evenodd" d="M476.358 379.696C476.284 379.622 476.21 379.512 476.1 379.475C475.769 379.292 475.328 379.402 475.145 379.733C472.719 383.882 467.021 381.899 466.948 381.899C466.543 381.715 466.249 381.348 466.102 380.908C465.845 380.063 466.36 379.145 467.205 378.925C467.572 378.814 467.793 378.447 467.683 378.08C467.572 377.713 467.205 377.493 466.837 377.603C465.257 378.043 464.301 379.733 464.779 381.312C464.999 382.119 465.588 382.817 466.36 383.184C467.205 383.588 473.564 385.277 476.358 380.467C476.505 380.173 476.505 379.879 476.358 379.696Z" fill="#431F20"/>
<path fill-rule="evenodd" clip-rule="evenodd" d="M486.061 373.232C486.024 373.159 485.951 373.122 485.914 373.048C484.407 371.873 482.495 371.469 480.658 371.983C479.481 372.277 478.452 372.938 477.644 373.819C476.688 374.958 473.269 378.41 467.682 377.418C467.315 377.345 466.947 377.602 466.874 377.969C466.8 378.336 467.057 378.703 467.425 378.777C473.747 379.915 477.643 375.986 478.673 374.774C479.298 374.04 480.106 373.562 480.988 373.342C482.385 372.975 483.855 373.269 485.032 374.187C485.326 374.407 485.767 374.37 486.024 374.077C486.208 373.819 486.208 373.489 486.061 373.232Z" fill="#431F20"/>
<path fill-rule="evenodd" clip-rule="evenodd" d="M484.151 390.381L484.739 390.785C485.18 390.124 486.062 389.977 486.724 390.418C487.385 390.859 487.532 391.74 487.091 392.401C487.054 392.438 487.054 392.474 487.018 392.474C486.981 392.511 486.687 392.952 486.319 393.503C485.805 394.237 485.217 395.155 485.143 395.228C484.702 395.706 483.893 395.816 483.305 395.412C482.717 395.008 482.497 394.2 482.827 393.576C482.864 393.539 483.452 392.658 483.967 391.924C484.334 391.373 484.665 390.859 484.702 390.859L484.151 390.381ZM488.304 390.051C488.12 389.72 487.826 389.463 487.496 389.243C486.209 388.362 484.445 388.692 483.563 389.977L483.526 390.014C483.452 390.124 483.158 390.565 482.791 391.079C481.614 392.805 481.614 392.805 481.578 392.878C480.916 394.164 481.32 395.706 482.497 396.514C483.673 397.285 485.253 397.101 486.172 396.073C486.209 396.036 486.209 396.036 487.422 394.237C487.753 393.76 488.047 393.319 488.084 393.282C488.12 393.245 488.157 393.209 488.194 393.135C488.892 392.217 488.892 391.005 488.304 390.051Z" fill="#431F20"/>
<path fill-rule="evenodd" clip-rule="evenodd" d="M414.533 378.484C399.757 373.894 387.81 368.202 388.288 366.366C388.876 364.163 404.278 366.807 424.604 372.021C425.854 372.352 427.104 372.682 428.354 373.013C450.371 378.888 467.758 385.571 467.096 387.922C466.618 389.758 455.297 388.436 439.896 384.947L434.823 383.809L414.533 378.484Z" fill="#40A4CE"/>
<path fill-rule="evenodd" clip-rule="evenodd" d="M423.023 386.158C424.089 398.46 427.912 412.451 434.528 425.927L424.898 426.111C415.341 406.575 411.555 386.011 413.65 370.919L414.202 367.357C415.01 363.832 415.966 360.27 417.142 356.781L425.265 358.874L423.023 386.158Z" fill="#FDD491"/>
<path fill-rule="evenodd" clip-rule="evenodd" d="M425.265 427.102C425.375 427.102 425.449 427.065 425.559 427.028C425.89 426.882 426 426.478 425.853 426.184C416.701 407.456 412.51 386.965 414.679 371.396L415.23 367.87C416.002 364.382 416.995 360.857 418.134 357.405C418.244 357.074 418.061 356.707 417.73 356.597C417.399 356.487 417.031 356.67 416.921 357.001C415.745 360.489 414.752 364.051 413.98 367.65L413.429 371.249C411.224 387.112 415.451 407.86 424.714 426.808C424.787 426.992 425.008 427.102 425.265 427.102Z" fill="#431F20"/>
<path fill-rule="evenodd" clip-rule="evenodd" d="M434.895 426.92C434.968 426.92 435.079 426.883 435.152 426.846C435.446 426.699 435.593 426.332 435.446 426.002C429.345 413.516 425.375 399.856 424.346 387.555C423.39 374.812 426.661 361.299 426.624 361.262C426.404 360.748 425.706 360.785 425.485 361.262C425.448 361.336 421.883 374.445 423.096 387.665C424.162 400.113 428.168 413.92 434.344 426.553C434.417 426.773 434.638 426.92 434.895 426.92Z" fill="#431F20"/>
<path fill-rule="evenodd" clip-rule="evenodd" d="M442.652 486.297C446.658 486.224 449.819 482.955 449.746 478.953C449.672 474.95 446.401 471.792 442.394 471.866C438.388 471.939 435.227 475.207 435.3 479.21C435.374 483.212 438.682 486.37 442.652 486.297Z" fill="#FEFEFE"/>
<path fill-rule="evenodd" clip-rule="evenodd" d="M413.026 432.317C413.026 432.317 412.842 436.283 412.217 437.458C411.813 438.229 409.938 439.147 409.938 439.147L405.344 442.305C405.344 442.305 392.92 446.381 388.84 447.813C385.642 448.952 383.73 450.127 382.738 452.036C380.826 455.672 382.26 460.188 385.899 462.098C387.48 462.942 389.942 462.906 389.942 462.906C401.705 462.979 436.881 461.657 436.881 461.657C438.646 461.4 440.263 460.335 441.145 458.646C441.697 457.544 442.322 455.561 442.174 454.423L440.925 435.622L413.026 432.317Z" fill="#BD7E00"/>
<path fill-rule="evenodd" clip-rule="evenodd" d="M412.988 431.913C412.988 431.913 420.854 430.738 426.809 439.037C427.397 439.881 428.058 440.652 429.051 441.167C431.734 442.562 435.079 441.534 436.476 438.816C436.476 438.816 439.269 434.41 443.57 435.108L444.562 416.93L412.4 415.205L412.988 431.913Z" fill="#AEAB92"/>
<path fill-rule="evenodd" clip-rule="evenodd" d="M442.65 434.079C438.387 434.079 435.777 438.118 435.667 438.302C434.454 440.579 431.733 441.46 429.491 440.322C428.683 439.918 428.094 439.183 427.617 438.486C422.654 431.509 416.406 430.884 413.943 430.921L413.392 416.196L443.569 417.812L442.65 434.079ZM412.068 432.17C412.105 432.353 412.215 432.5 412.362 432.61C412.583 432.794 412.84 432.867 413.097 432.831C413.428 432.794 420.522 431.876 425.999 439.551C426.624 440.395 427.396 441.35 428.572 441.974C431.733 443.627 435.63 442.378 437.247 439.22C437.247 439.22 439.747 435.438 443.349 435.989C443.606 436.025 443.9 435.952 444.084 435.805C444.304 435.621 444.415 435.401 444.452 435.107L445.444 416.93C445.481 416.416 445.076 415.976 444.562 415.939L412.399 414.213C412.142 414.213 411.885 414.286 411.701 414.47C411.517 414.654 411.407 414.911 411.407 415.168L412.032 431.876C412.032 432.023 412.068 432.096 412.068 432.17Z" fill="#431F20"/>
<path fill-rule="evenodd" clip-rule="evenodd" d="M413.025 427.322L425.816 428.644C427.287 428.791 428.61 427.726 428.757 426.257C428.904 424.788 427.838 423.503 426.368 423.356L412.841 421.96L413.025 427.322Z" fill="#BD7E00"/>
<path fill-rule="evenodd" clip-rule="evenodd" d="M413.025 446.013C417.877 448.841 420.34 443.186 410.378 439.036C407.769 437.935 404.755 440.872 405.894 441.497C409.129 443.296 411.959 445.389 413.025 446.013Z" fill="#FEFEFE"/>
<path fill-rule="evenodd" clip-rule="evenodd" d="M387.221 474.913C387.258 475.023 387.258 475.133 387.294 475.244C387.294 475.574 387.184 475.868 386.963 476.125C386.743 476.345 386.449 476.492 386.118 476.492C385.787 476.492 385.493 476.382 385.236 476.162C385.015 475.941 384.868 475.647 384.868 475.317C384.868 474.656 385.383 474.068 386.081 474.068C386.596 474.032 387.074 474.399 387.221 474.913ZM383.104 476.198C383.251 476.676 383.545 477.116 383.913 477.484C384.501 478.071 385.309 478.365 386.118 478.365C386.964 478.365 387.735 477.998 388.287 477.41C388.875 476.823 389.169 476.015 389.169 475.207C389.132 473.481 387.735 472.122 386.008 472.159C384.28 472.196 382.92 473.628 382.957 475.317C382.957 475.647 382.994 475.941 383.104 476.198Z" fill="#431F20"/>
<path fill-rule="evenodd" clip-rule="evenodd" d="M386.156 481.559C382.701 481.633 379.834 478.842 379.761 475.39C379.724 473.701 380.349 472.122 381.525 470.91C382.701 469.698 384.245 469.037 385.936 469C389.391 468.927 392.258 471.718 392.332 475.17C392.405 478.621 389.648 481.486 386.156 481.559ZM378.254 477.703C379.32 481.045 382.481 483.469 386.193 483.432C390.714 483.358 394.317 479.65 394.243 475.133C394.17 470.616 390.457 467.018 385.936 467.091C383.767 467.128 381.709 468.009 380.202 469.588C378.695 471.167 377.886 473.223 377.886 475.39C377.923 476.198 378.033 477.006 378.254 477.703Z" fill="#431F20"/>
<path fill-rule="evenodd" clip-rule="evenodd" d="M381.708 457.836C382.37 459.893 383.767 461.692 385.825 462.757C387.589 463.675 390.199 463.675 390.309 463.675C401.961 463.749 436.918 462.427 437.249 462.427C437.285 462.427 437.322 462.427 437.359 462.427C439.454 462.096 441.329 460.811 442.321 458.901C442.909 457.763 443.644 455.56 443.461 454.128L442.211 435.4C442.174 434.886 441.733 434.482 441.218 434.518C440.704 434.555 440.299 434.996 440.336 435.51L441.586 454.311C441.696 455.193 441.182 457.029 440.667 458.02C439.969 459.342 438.682 460.297 437.175 460.517C435.594 460.591 401.741 461.839 390.346 461.766C390.309 461.766 388.104 461.766 386.744 461.068C383.546 459.415 382.333 455.486 383.987 452.292C384.796 450.713 386.413 449.648 389.574 448.546C393.618 447.114 405.968 443.074 406.078 443.038C406.556 442.891 406.85 442.34 406.703 441.863C406.519 441.349 406.005 441.092 405.49 441.275C405.38 441.312 393.029 445.351 388.949 446.783C385.31 448.069 383.399 449.427 382.333 451.447C381.194 453.467 381.047 455.78 381.708 457.836Z" fill="#431F20"/>
<path fill-rule="evenodd" clip-rule="evenodd" d="M416.04 445.537C416.076 445.647 416.113 445.757 416.113 445.867C416.15 446.308 415.929 446.418 415.856 446.491C415.451 446.748 414.496 446.712 413.283 446.014C412.952 445.83 412.437 445.463 411.776 445.023C410.489 444.178 408.615 442.893 406.519 441.718C406.703 441.497 407.071 441.167 407.585 440.91C408.026 440.689 408.909 440.359 409.791 440.726C414.091 442.526 415.709 444.472 416.04 445.537ZM404.534 442.342C404.645 442.709 404.902 442.966 405.196 443.15C407.365 444.325 409.313 445.647 410.71 446.602C411.408 447.079 411.959 447.446 412.327 447.666C414.018 448.658 415.709 448.842 416.848 448.107C417.657 447.593 418.061 446.748 417.951 445.72C417.767 443.333 414.974 440.836 410.489 439C408.063 438.009 405.38 439.625 404.645 441.13C404.461 441.607 404.424 442.011 404.534 442.342Z" fill="#431F20"/>
<path fill-rule="evenodd" clip-rule="evenodd" d="M409.202 440.102C409.202 440.138 409.239 440.175 409.239 440.212C409.459 440.689 410.047 440.873 410.489 440.652C411.003 440.395 412.694 439.551 413.209 438.559C413.907 437.237 414.091 433.712 414.128 433.014C414.164 432.5 413.76 432.06 413.245 432.023C412.731 431.986 412.29 432.39 412.253 432.904C412.179 434.446 411.885 436.98 411.518 437.678C411.371 437.935 410.489 438.559 409.68 438.926C409.276 439.183 409.055 439.661 409.202 440.102Z" fill="#431F20"/>
<path fill-rule="evenodd" clip-rule="evenodd" d="M412.106 427.617C412.216 427.984 412.51 428.241 412.914 428.278L425.706 429.6C427.691 429.82 429.492 428.352 429.676 426.405C429.859 424.422 428.426 422.66 426.441 422.439L412.914 421.044C412.4 421.007 411.922 421.375 411.885 421.889C411.848 422.403 412.216 422.88 412.73 422.917L426.257 424.312C427.213 424.422 427.911 425.267 427.801 426.185C427.691 427.14 426.845 427.801 425.89 427.727L413.098 426.405C412.583 426.332 412.106 426.736 412.069 427.25C412.069 427.36 412.069 427.47 412.106 427.617Z" fill="#431F20"/>
<path fill-rule="evenodd" clip-rule="evenodd" d="M415.23 393.76C415.34 393.76 415.487 393.723 415.561 393.65C416.002 393.356 416.516 393.32 416.921 393.54C417.252 393.687 417.619 393.577 417.766 393.246C417.913 392.916 417.803 392.548 417.472 392.401C416.627 391.961 415.634 392.034 414.826 392.585C414.532 392.769 414.458 393.173 414.642 393.466C414.826 393.65 415.009 393.76 415.23 393.76Z" fill="#431F20"/>
<path fill-rule="evenodd" clip-rule="evenodd" d="M441.218 389.978C442.284 402.426 446.143 416.527 452.833 430.151L443.092 430.371C433.425 410.615 429.639 389.904 431.734 374.665L432.286 371.066C433.094 367.504 434.087 363.942 435.263 360.38L443.46 362.473L441.218 389.978Z" fill="#FDD491"/>
<path fill-rule="evenodd" clip-rule="evenodd" d="M443.496 431.362C443.607 431.362 443.68 431.325 443.79 431.288C444.121 431.141 444.232 430.737 444.085 430.444C434.822 411.532 430.631 390.858 432.8 375.105L433.351 371.543C434.16 368.017 435.153 364.455 436.292 360.967C436.402 360.636 436.218 360.269 435.888 360.159C435.557 360.049 435.189 360.232 435.079 360.563C433.903 364.088 432.91 367.687 432.102 371.286L431.514 374.921C429.308 390.931 433.572 411.899 442.908 431.031C443.019 431.215 443.239 431.362 443.496 431.362Z" fill="#431F20"/>
<path fill-rule="evenodd" clip-rule="evenodd" d="M453.199 431.142C453.309 431.142 453.382 431.105 453.456 431.068C453.75 430.921 453.897 430.554 453.75 430.224C447.575 417.592 443.568 403.821 442.539 391.373C441.546 378.52 444.891 364.86 444.855 364.823C444.634 364.309 443.899 364.346 443.715 364.823C443.678 364.897 440.076 378.153 441.289 391.483C442.355 404.078 446.398 417.996 452.647 430.775C452.757 431.032 452.978 431.142 453.199 431.142Z" fill="#431F20"/>
<path fill-rule="evenodd" clip-rule="evenodd" d="M433.351 397.652C433.461 397.652 433.608 397.615 433.719 397.542C434.16 397.248 434.674 397.211 435.115 397.432C435.446 397.578 435.814 397.468 435.998 397.138C436.145 396.807 436.034 396.44 435.704 396.256C434.858 395.816 433.866 395.889 433.02 396.44C432.726 396.624 432.653 397.028 432.837 397.321C432.947 397.578 433.167 397.652 433.351 397.652Z" fill="#431F20"/>
<path fill-rule="evenodd" clip-rule="evenodd" d="M471.323 322.889C478.234 345.105 475.918 367.909 466.619 387.151L466.692 387.481C467.317 385.131 449.967 378.448 427.95 372.573C426.663 372.242 425.414 371.912 424.164 371.581C403.837 366.367 388.436 363.723 387.848 365.926L388.289 365.045C403.469 355.46 402.955 345.582 405.785 328.103L407.072 320.575C408.174 320.355 414.57 278.052 415.489 274.82C417.033 269.276 417.768 254.073 418.54 254.11C421.628 254.33 423.723 254.293 425.928 253.265C426.296 253.118 427.031 253.632 427.031 254.22C427.435 264.465 433.5 269.459 438.279 269.349C445.887 270.267 450.629 264.208 451.401 260.83C451.511 260.316 462.538 262.262 462.391 262.996C461.399 267.99 462.097 278.566 464.744 282.532C465.553 283.707 466.067 313.929 470.441 322.154L471.323 322.889Z" fill="#2AB6E4"/>
<path fill-rule="evenodd" clip-rule="evenodd" d="M465.808 389.059C466.764 388.802 467.095 388.361 467.205 387.884C467.426 387.003 467.867 385.387 455.81 380.723C448.459 377.896 438.534 374.775 427.838 371.91C426.552 371.58 425.302 371.249 424.052 370.919C387.809 361.665 386.964 364.823 386.707 365.888C385.751 369.523 405.747 376.611 413.503 379.034C413.944 379.181 413.356 378.74 413.503 378.263C413.65 377.822 414.238 377.382 413.76 377.235C399.608 372.828 389.831 368.091 388.471 366.329C390.162 365.704 399.131 366.329 423.611 372.571C424.861 372.902 426.11 373.232 427.36 373.563C450.113 379.622 463.897 385.424 465.404 387.37C463.86 387.957 458.494 388.104 441.953 384.396C440.703 384.102 441.659 383.367 441.328 384.91C440.96 386.452 440.593 385.828 441.879 386.121C449.562 387.847 453.348 388.435 458.273 388.986C462.39 389.463 464.595 389.39 465.808 389.059Z" fill="#431F20"/>
<path fill-rule="evenodd" clip-rule="evenodd" d="M469.961 380.063C470.145 380.026 470.329 379.879 470.439 379.732C470.696 379.328 470.586 378.814 470.218 378.557C468.013 377.088 463.676 375.179 457.684 373.012C457.243 372.865 456.728 373.086 456.581 373.526C456.398 373.967 456.655 374.481 457.096 374.628C462.904 376.721 467.204 378.63 469.263 379.989C469.483 380.099 469.74 380.136 469.961 380.063Z" fill="#431F20"/>
<path fill-rule="evenodd" clip-rule="evenodd" d="M452.539 372.866C452.796 372.792 453.017 372.609 453.127 372.315C453.274 371.874 453.053 371.397 452.575 371.25C446.584 369.23 439.71 367.211 432.69 365.338C432.212 365.228 431.771 365.485 431.624 365.962C431.514 366.403 431.771 366.88 432.249 367.027C439.269 368.9 446.106 370.919 452.061 372.902C452.208 372.902 452.392 372.902 452.539 372.866Z" fill="#431F20"/>
<path fill-rule="evenodd" clip-rule="evenodd" d="M428.939 365.962C429.233 365.889 429.454 365.668 429.527 365.338C429.638 364.861 429.38 364.42 428.903 364.31C427.8 364.016 426.697 363.759 425.594 363.465C417.287 361.409 409.936 359.793 404.385 358.875C403.908 358.802 403.466 359.095 403.393 359.573C403.319 360.05 403.613 360.491 404.091 360.564C409.605 361.519 416.92 363.098 425.19 365.154C426.256 365.411 427.359 365.705 428.461 365.999C428.645 365.999 428.792 365.999 428.939 365.962Z" fill="#431F20"/>
<path fill-rule="evenodd" clip-rule="evenodd" d="M388.213 366.072C388.287 366.035 388.36 365.999 388.434 365.962C403.063 356.708 405.526 343.745 408.614 324.834C412.326 297.366 415.708 277.427 415.708 277.28C417.546 266.337 419.531 253.191 419.457 253.227C418.942 253.338 418.869 253.521 418.391 253.007C418.318 252.934 415.708 266.924 414.311 277.06C414.311 277.17 410.635 300.818 406.335 324.687C403.357 343.048 401.74 355.533 387.515 364.493C387.111 364.75 387 365.264 387.258 365.668C387.478 366.035 387.846 366.145 388.213 366.072Z" fill="#431F20"/>
<path fill-rule="evenodd" clip-rule="evenodd" d="M466.543 388.142C466.763 388.069 466.984 387.922 467.094 387.702C476.872 367.468 478.562 344.444 471.836 322.815C466.984 311.762 466.579 283.266 466.469 283.156C466.469 283.156 460.625 274.013 463.051 263.143C463.124 262.813 462.94 262.629 462.94 262.629C461.727 263.694 462.389 262.886 461.838 262.666C461.838 262.666 461.911 262.813 461.875 263.033C459.779 275.408 464.705 282.605 464.705 282.642C464.668 282.752 465.183 313.892 470.218 323.329C476.835 344.554 475.181 367.138 465.55 386.967C465.33 387.408 465.514 387.922 465.955 388.106C466.138 388.179 466.359 388.179 466.543 388.142Z" fill="#431F20"/>
<path fill-rule="evenodd" clip-rule="evenodd" d="M423.278 260.315C423.205 260.351 423.168 260.351 423.095 260.388C422.654 260.462 422.213 260.168 422.139 259.727C421.698 257.267 421.404 256.9 422.102 253.999C422.543 253.521 423.646 253.815 423.72 254.403C423.058 257.083 423.389 257.23 423.756 259.433C423.83 259.764 423.609 260.131 423.278 260.315Z" fill="#431F20"/>
<path fill-rule="evenodd" clip-rule="evenodd" d="M447.578 273.277C439.822 276.802 430.559 274.415 425.486 267.549C425.229 267.181 425.303 266.667 425.67 266.374C426.038 266.08 426.552 266.19 426.846 266.557C431.441 272.763 439.858 274.966 446.916 271.735C450.702 270.009 453.863 266.043 455.48 260.829C456.252 260.975 456.804 261.122 457.723 261.269C457.723 261.306 463.016 262.481 463.016 262.518C462.832 263.105 462.795 263.326 462.648 263.876C462.575 264.134 456.767 262.297 456.73 262.408C453.422 268.614 451.253 271.588 447.578 273.277Z" fill="#431F20"/>
<path fill-rule="evenodd" clip-rule="evenodd" d="M445.63 268.981C442.285 270.523 438.388 270.596 434.933 269.238C431.662 267.952 429.162 265.492 427.876 262.297C426.479 258.882 426.736 255.724 426.994 254.255C423.612 255.063 422.914 255.467 417.841 254.512C417.951 253.741 418.135 254.145 418.356 252.97C422.068 253.778 422.95 253.447 428.096 252.823C428.39 252.786 428.721 252.75 428.942 252.676C429.052 252.86 428.795 253.631 428.721 253.851C428.721 253.888 427.729 257.597 429.383 261.673C430.486 264.427 432.691 266.557 435.521 267.659C438.536 268.87 441.954 268.76 444.895 267.438C447.945 266.043 450.114 261.563 451.107 258.368C451.621 258.478 451.107 258.368 452.467 259.176C453.753 259.837 456.106 261.012 456.253 261.049C456.326 261.049 455.15 261.673 454.966 262.114C454.966 262.15 452.246 260.902 452.209 260.939C450.996 264.133 448.791 267.548 445.63 268.981Z" fill="#431F20"/>
<path fill-rule="evenodd" clip-rule="evenodd" d="M441.107 481.34C445.113 481.267 448.274 477.999 448.201 473.996C448.127 469.994 444.856 466.836 440.849 466.909C436.843 466.982 433.682 470.251 433.755 474.253C433.829 478.219 437.137 481.414 441.107 481.34Z" fill="#FEFEFE"/>
<path fill-rule="evenodd" clip-rule="evenodd" d="M422.949 481.635C426.956 481.562 430.117 478.294 430.044 474.291C429.97 470.288 426.699 467.13 422.692 467.204C418.686 467.277 415.524 470.546 415.598 474.548C415.635 478.551 418.943 481.709 422.949 481.635Z" fill="#FEFEFE"/>
<path fill-rule="evenodd" clip-rule="evenodd" d="M404.753 481.964C408.76 481.891 411.921 478.623 411.847 474.62C411.774 470.618 408.502 467.46 404.496 467.533C400.526 467.606 397.328 470.875 397.402 474.877C397.475 478.843 400.783 482.001 404.753 481.964Z" fill="#FEFEFE"/>
<path fill-rule="evenodd" clip-rule="evenodd" d="M432.764 435.107C432.764 435.107 432.543 439.037 431.882 440.248C431.477 441.02 429.603 441.901 429.603 441.901L425.008 445.022C425.008 445.022 412.547 448.988 408.43 450.42C405.196 451.522 403.321 452.697 402.292 454.57C400.344 458.205 401.741 462.722 405.379 464.631C406.96 465.476 409.386 465.476 409.386 465.476C421.148 465.623 456.325 464.595 456.325 464.595C458.09 464.338 459.707 463.309 460.589 461.62C461.177 460.555 461.802 458.536 461.655 457.397L460.552 438.596L432.764 435.107Z" fill="#FFAA00"/>
<path fill-rule="evenodd" clip-rule="evenodd" d="M459.817 484.939C463.824 484.902 467.022 481.634 466.985 477.668C466.948 473.665 463.677 470.47 459.707 470.507C455.701 470.544 452.503 473.812 452.539 477.778C452.576 481.744 455.811 484.939 459.817 484.939Z" fill="#FEFEFE"/>
<path fill-rule="evenodd" clip-rule="evenodd" d="M440.482 477.265C440.519 477.154 440.592 477.081 440.702 476.971C440.923 476.751 441.217 476.604 441.548 476.604C441.879 476.604 442.173 476.714 442.43 476.971C442.651 477.191 442.798 477.522 442.798 477.815C442.798 478.146 442.687 478.44 442.43 478.697C442.209 478.917 441.879 479.064 441.585 479.064C440.923 479.064 440.372 478.513 440.372 477.852C440.372 477.669 440.408 477.448 440.482 477.265ZM444.341 479.321C444.599 478.88 444.709 478.366 444.709 477.852C444.709 477.008 444.378 476.236 443.79 475.649C443.202 475.061 442.393 474.768 441.585 474.768C440.739 474.768 439.967 475.098 439.379 475.686C438.791 476.273 438.497 477.081 438.497 477.889C438.497 478.733 438.828 479.505 439.416 480.092C440.004 480.68 440.776 481.01 441.621 480.973C442.467 480.973 443.239 480.643 443.827 480.055C444.011 479.798 444.194 479.578 444.341 479.321Z" fill="#391D1D"/>
<path fill-rule="evenodd" clip-rule="evenodd" d="M422.322 477.447C422.543 477.08 422.91 476.786 423.388 476.786C424.05 476.786 424.601 477.337 424.601 477.998C424.601 478.659 424.05 479.21 423.388 479.21C423.057 479.21 422.763 479.1 422.506 478.843C422.286 478.622 422.139 478.292 422.139 477.998C422.175 477.815 422.249 477.594 422.322 477.447ZM426.145 479.467C426.366 479.026 426.513 478.512 426.513 477.998C426.513 476.272 425.079 474.914 423.352 474.914C421.624 474.95 420.264 476.346 420.264 478.072C420.264 478.916 420.595 479.687 421.183 480.275C421.771 480.862 422.58 481.156 423.388 481.156C424.601 481.119 425.631 480.422 426.145 479.467Z" fill="#391D1D"/>
<path fill-rule="evenodd" clip-rule="evenodd" d="M403.982 477.411C404.019 477.301 404.092 477.228 404.202 477.117C404.423 476.897 404.717 476.75 405.048 476.75C405.709 476.75 406.261 477.301 406.261 477.962C406.261 478.292 406.151 478.586 405.893 478.843C405.673 479.064 405.342 479.211 405.048 479.211C404.717 479.211 404.423 479.1 404.166 478.843C403.945 478.623 403.798 478.293 403.798 477.999C403.835 477.815 403.908 477.595 403.982 477.411ZM407.841 479.431C408.099 478.99 408.209 478.476 408.209 477.962C408.209 476.236 406.775 474.877 405.085 474.877C404.239 474.877 403.467 475.208 402.879 475.795C402.291 476.383 401.997 477.191 401.997 477.999C401.997 478.843 402.328 479.614 402.916 480.202C403.504 480.79 404.276 481.12 405.121 481.083C405.967 481.083 406.739 480.753 407.327 480.165C407.511 479.945 407.694 479.725 407.841 479.431Z" fill="#391D1D"/>
<path fill-rule="evenodd" clip-rule="evenodd" d="M441.622 485.086C445.629 485.049 448.826 481.781 448.79 477.815C448.753 473.812 445.482 470.617 441.512 470.654C437.505 470.691 434.307 473.959 434.344 477.925C434.381 481.891 437.652 485.122 441.622 485.086Z" fill="#FEFEFE"/>
<path fill-rule="evenodd" clip-rule="evenodd" d="M405.122 485.195C409.129 485.159 412.326 481.891 412.29 477.925C412.253 473.922 408.982 470.727 405.012 470.764C401.005 470.801 397.807 474.069 397.844 478.035C397.881 482.037 401.152 485.232 405.122 485.195Z" fill="#FEFEFE"/>
<path fill-rule="evenodd" clip-rule="evenodd" d="M423.463 485.233C427.469 485.196 430.667 481.928 430.631 477.962C430.594 473.959 427.322 470.764 423.353 470.801C419.346 470.838 416.148 474.106 416.185 478.072C416.222 482.038 419.493 485.269 423.463 485.233Z" fill="#FEFEFE"/>
<path fill-rule="evenodd" clip-rule="evenodd" d="M432.249 448.951C437.064 451.816 439.601 446.16 429.639 441.974C427.029 440.873 424.015 443.774 425.118 444.398C428.426 446.234 431.22 448.327 432.249 448.951Z" fill="#FEFEFE"/>
<path fill-rule="evenodd" clip-rule="evenodd" d="M432.359 434.85C432.359 434.85 440.262 433.711 446.106 442.084C446.694 442.928 447.356 443.736 448.311 444.25C450.995 445.683 454.303 444.654 455.736 441.974C455.736 441.974 458.567 437.604 462.867 438.302L464.007 420.125L431.881 418.142L432.359 434.85Z" fill="#FEFEFE"/>
<path fill-rule="evenodd" clip-rule="evenodd" d="M432.397 430.296L445.189 431.691C446.659 431.838 447.982 430.81 448.166 429.341C448.313 427.872 447.247 426.55 445.777 426.404L432.25 424.898L432.397 430.296Z" fill="#FFAA00"/>
<path fill-rule="evenodd" clip-rule="evenodd" d="M454.265 474.839C454.559 474.325 454.89 473.811 455.331 473.37C456.508 472.159 458.088 471.498 459.742 471.498C463.197 471.461 466.028 474.252 466.065 477.703C466.101 481.155 463.308 483.983 459.853 484.02C458.162 484.02 456.581 483.395 455.405 482.22C454.192 481.045 453.53 479.466 453.53 477.814C453.53 476.785 453.788 475.757 454.265 474.839ZM467.057 481.633C467.682 480.458 468.013 479.136 468.013 477.74C467.976 473.223 464.263 469.588 459.779 469.625C457.61 469.662 455.552 470.506 454.008 472.048C452.464 473.591 451.656 475.647 451.656 477.85C451.656 480.017 452.538 482.073 454.082 483.616C455.625 485.158 457.684 485.966 459.889 485.966C462.058 485.966 464.116 485.084 465.66 483.542C466.212 482.955 466.689 482.294 467.057 481.633Z" fill="#431F20"/>
<path fill-rule="evenodd" clip-rule="evenodd" d="M458.75 477.227C458.824 477.117 458.86 477.044 458.971 476.933C459.191 476.713 459.485 476.566 459.816 476.566C460.478 476.566 461.029 477.117 461.029 477.778C461.029 478.439 460.478 478.99 459.816 478.99C459.154 478.99 458.603 478.439 458.603 477.778C458.603 477.594 458.64 477.411 458.75 477.227ZM462.573 479.247C462.793 478.806 462.94 478.292 462.94 477.778C462.94 476.052 461.507 474.693 459.816 474.693C458.971 474.693 458.199 475.024 457.611 475.611C457.022 476.199 456.728 477.007 456.728 477.815C456.728 479.541 458.162 480.899 459.853 480.899C461.029 480.899 462.058 480.238 462.573 479.247Z" fill="#431F20"/>
<path fill-rule="evenodd" clip-rule="evenodd" d="M440.557 477.374C440.631 477.263 440.667 477.19 440.778 477.08C440.998 476.86 441.329 476.713 441.623 476.713C441.954 476.713 442.248 476.823 442.505 477.08C442.726 477.3 442.873 477.631 442.873 477.924C442.873 478.255 442.763 478.549 442.505 478.806C442.285 479.026 441.954 479.173 441.66 479.173C440.998 479.173 440.447 478.622 440.447 477.961C440.447 477.741 440.484 477.557 440.557 477.374ZM444.417 479.393C444.674 478.953 444.784 478.439 444.784 477.924C444.784 477.08 444.453 476.309 443.865 475.721C443.277 475.134 442.468 474.84 441.66 474.84C440.814 474.84 440.042 475.17 439.454 475.758C438.866 476.345 438.572 477.153 438.572 477.961C438.572 478.806 438.903 479.577 439.491 480.164C440.079 480.752 440.851 481.082 441.697 481.046C442.542 481.046 443.314 480.715 443.902 480.128C444.086 479.907 444.27 479.65 444.417 479.393Z" fill="#431F20"/>
<path fill-rule="evenodd" clip-rule="evenodd" d="M422.398 477.521C422.618 477.154 422.986 476.86 423.464 476.86C424.125 476.86 424.677 477.411 424.677 478.072C424.677 478.733 424.125 479.284 423.464 479.284C423.133 479.284 422.839 479.174 422.581 478.916C422.361 478.696 422.214 478.366 422.214 478.072C422.251 477.888 422.324 477.705 422.398 477.521ZM426.22 479.541C426.441 479.1 426.588 478.586 426.588 478.072C426.588 476.346 425.154 474.987 423.427 474.987C421.699 474.987 420.339 476.419 420.339 478.145C420.339 478.99 420.67 479.761 421.258 480.349C421.846 480.936 422.655 481.23 423.464 481.23C424.676 481.193 425.706 480.532 426.22 479.541Z" fill="#431F20"/>
<path fill-rule="evenodd" clip-rule="evenodd" d="M404.056 477.521C404.093 477.411 404.166 477.337 404.277 477.227C404.497 477.007 404.791 476.86 405.122 476.86C405.784 476.86 406.335 477.411 406.335 478.072C406.335 478.402 406.225 478.696 405.967 478.953C405.747 479.174 405.416 479.32 405.122 479.32C404.791 479.32 404.497 479.21 404.24 478.953C404.019 478.733 403.872 478.402 403.872 478.109C403.909 477.888 403.983 477.705 404.056 477.521ZM407.916 479.541C408.173 479.1 408.283 478.586 408.283 478.072C408.283 476.346 406.85 474.987 405.159 474.987C404.313 474.987 403.541 475.318 402.953 475.905C402.365 476.493 402.071 477.301 402.071 478.109C402.071 478.953 402.402 479.724 402.99 480.312C403.578 480.899 404.387 481.23 405.196 481.193C406.041 481.193 406.813 480.863 407.401 480.275C407.585 480.055 407.769 479.798 407.916 479.541Z" fill="#431F20"/>
<path fill-rule="evenodd" clip-rule="evenodd" d="M436.11 475.024C437.139 473.041 439.234 471.719 441.623 471.682C445.079 471.646 447.909 474.436 447.946 477.888C447.946 479.577 447.321 481.156 446.145 482.331C444.968 483.543 443.388 484.204 441.734 484.204C438.279 484.241 435.411 481.45 435.411 477.962C435.375 476.933 435.632 475.905 436.11 475.024ZM448.865 481.781C449.489 480.606 449.82 479.284 449.82 477.888C449.784 473.371 446.071 469.736 441.587 469.773C437.066 469.809 433.427 473.518 433.5 477.998C433.537 482.515 437.249 486.15 441.734 486.114C443.902 486.114 445.961 485.232 447.505 483.69C448.056 483.103 448.497 482.442 448.865 481.781Z" fill="#431F20"/>
<path fill-rule="evenodd" clip-rule="evenodd" d="M399.608 475.133C399.902 474.619 400.233 474.105 400.674 473.665C401.85 472.453 403.431 471.792 405.085 471.792C408.54 471.755 411.37 474.546 411.407 477.998C411.407 479.687 410.782 481.266 409.606 482.441C408.43 483.653 406.849 484.314 405.195 484.314C401.74 484.351 398.873 481.56 398.873 478.108C398.873 477.08 399.093 476.052 399.608 475.133ZM412.363 481.89C412.988 480.715 413.318 479.393 413.318 477.998C413.318 475.831 412.436 473.775 410.892 472.232C409.349 470.69 407.29 469.882 405.085 469.882C402.916 469.882 400.858 470.764 399.314 472.306C397.77 473.848 396.961 475.905 396.961 478.108C396.998 482.588 400.711 486.223 405.195 486.187C407.364 486.187 409.422 485.305 410.966 483.726C411.554 483.249 411.995 482.588 412.363 481.89Z" fill="#431F20"/>
<path fill-rule="evenodd" clip-rule="evenodd" d="M417.951 475.172C418.98 473.189 421.075 471.867 423.464 471.831C426.919 471.794 429.787 474.585 429.787 478.037C429.787 479.726 429.162 481.305 427.985 482.48C426.809 483.692 425.229 484.353 423.575 484.353C421.884 484.353 420.303 483.728 419.127 482.553C417.914 481.378 417.252 479.799 417.252 478.147C417.179 477.082 417.473 476.054 417.951 475.172ZM430.705 481.929C431.33 480.754 431.661 479.432 431.661 478.037C431.624 473.52 427.912 469.884 423.427 469.921C418.906 469.958 415.304 473.667 415.341 478.147C415.341 480.313 416.223 482.37 417.767 483.912C419.311 485.454 421.369 486.262 423.575 486.262C425.743 486.225 427.802 485.381 429.345 483.839C429.86 483.251 430.338 482.627 430.705 481.929Z" fill="#431F20"/>
<path fill-rule="evenodd" clip-rule="evenodd" d="M461.507 462.172C462.095 461.071 462.867 458.831 462.683 457.399L461.617 438.671C461.581 438.157 461.14 437.753 460.625 437.789C460.11 437.826 459.706 438.267 459.743 438.781L460.845 457.582C460.956 458.464 460.404 460.3 459.89 461.291C459.191 462.613 457.868 463.568 456.361 463.788C454.78 463.825 420.927 464.816 409.532 464.669C409.495 464.669 407.29 464.633 405.93 463.935C402.769 462.246 401.556 458.317 403.247 455.159C404.092 453.616 405.709 452.515 408.871 451.45C412.951 450.054 425.301 446.125 425.411 446.088C425.926 445.942 426.183 445.391 426.036 444.913C425.889 444.399 425.338 444.142 424.86 444.289C424.75 444.326 412.363 448.292 408.282 449.687C404.643 450.936 402.695 452.258 401.629 454.314C399.461 458.39 401.004 463.494 405.121 465.661C406.886 466.616 409.459 466.616 409.569 466.616C421.221 466.763 456.177 465.771 456.545 465.734C456.582 465.734 456.618 465.734 456.655 465.734C458.677 465.367 460.515 464.045 461.507 462.172Z" fill="#431F20"/>
<path fill-rule="evenodd" clip-rule="evenodd" d="M426.072 443.884C426.255 443.664 426.623 443.333 427.138 443.076C427.579 442.856 428.461 442.562 429.343 442.929C434.121 444.949 435.518 447.152 435.592 448.107C435.629 448.548 435.408 448.658 435.334 448.731C434.93 448.988 433.974 448.915 432.798 448.217C432.467 448.034 431.953 447.666 431.328 447.226C430.078 446.381 428.167 445.059 426.072 443.884ZM437.246 449.429C437.466 449.025 437.577 448.511 437.54 447.96C437.356 445.61 434.599 443.04 430.152 441.167C427.726 440.139 425.042 441.754 424.271 443.26C423.793 444.215 424.197 444.986 424.785 445.316C426.954 446.528 428.865 447.85 430.299 448.805C430.997 449.282 431.512 449.649 431.879 449.833C433.57 450.825 435.261 451.008 436.4 450.31C436.731 450.127 437.025 449.796 437.246 449.429Z" fill="#431F20"/>
<path fill-rule="evenodd" clip-rule="evenodd" d="M432.8 440.799C433.499 439.477 433.756 435.952 433.793 435.254C433.829 434.74 433.425 434.299 432.91 434.263C432.396 434.226 431.955 434.63 431.918 435.144C431.844 436.686 431.514 439.22 431.146 439.918C430.999 440.175 430.117 440.762 429.271 441.166C428.794 441.387 428.61 441.974 428.83 442.415C429.051 442.892 429.602 443.076 430.08 442.855C430.595 442.635 432.286 441.754 432.8 440.799Z" fill="#431F20"/>
<path fill-rule="evenodd" clip-rule="evenodd" d="M463.091 421.081L462.098 437.349C457.834 437.312 455.188 441.351 455.077 441.535C453.864 443.812 451.108 444.656 448.902 443.481C448.094 443.04 447.542 442.343 447.028 441.608C442.102 434.595 435.853 433.897 433.427 433.934L432.986 419.208L463.091 421.081ZM463.789 438.818C463.862 438.707 463.899 438.56 463.899 438.414L465.039 420.273C465.075 419.759 464.671 419.319 464.157 419.282L431.994 417.299C431.737 417.299 431.479 417.372 431.259 417.556C431.075 417.739 430.965 417.997 430.965 418.254L431.442 434.962C431.442 435.219 431.59 435.476 431.773 435.659C431.994 435.843 432.251 435.917 432.508 435.88C432.803 435.843 439.933 434.962 445.374 442.71C445.962 443.591 446.77 444.546 447.91 445.17C451.034 446.823 454.967 445.648 456.621 442.49C456.621 442.526 459.121 438.707 462.76 439.332C463.017 439.368 463.311 439.295 463.495 439.148C463.642 439.038 463.715 438.928 463.789 438.818Z" fill="#431F20"/>
<path fill-rule="evenodd" clip-rule="evenodd" d="M448.791 430.811C449.011 430.407 449.121 430.003 449.195 429.526C449.305 428.571 449.011 427.617 448.423 426.882C447.798 426.148 446.953 425.67 445.997 425.56L432.47 424.055C431.956 423.981 431.478 424.385 431.441 424.899C431.404 425.413 431.772 425.891 432.287 425.927L445.813 427.433C446.291 427.47 446.695 427.727 446.989 428.057C447.284 428.424 447.431 428.865 447.357 429.306C447.32 429.746 447.063 430.15 446.732 430.444C446.365 430.738 445.924 430.848 445.446 430.811L432.654 429.379C432.14 429.306 431.662 429.71 431.625 430.224C431.551 430.738 431.956 431.215 432.47 431.252L445.262 432.684C446.218 432.794 447.173 432.537 447.945 431.913C448.239 431.619 448.533 431.252 448.791 430.811Z" fill="#431F20"/>
<path fill-rule="evenodd" clip-rule="evenodd" d="M374.981 488.831H402.806C403.358 488.831 403.799 488.39 403.799 487.84C403.799 487.289 403.358 486.848 402.806 486.848H374.981C374.43 486.848 373.989 487.289 373.989 487.84C373.989 488.39 374.43 488.831 374.981 488.831Z" fill="#431F20"/>
<path fill-rule="evenodd" clip-rule="evenodd" d="M407.843 488.831H419.863C420.414 488.831 420.855 488.39 420.855 487.84C420.855 487.289 420.414 486.848 419.863 486.848H407.843C407.292 486.848 406.851 487.289 406.851 487.84C406.851 488.39 407.292 488.831 407.843 488.831Z" fill="#431F20"/>
<path fill-rule="evenodd" clip-rule="evenodd" d="M424.309 488.831H431.734C432.285 488.831 432.727 488.39 432.727 487.84C432.727 487.289 432.285 486.848 431.734 486.848H424.309C423.758 486.848 423.317 487.289 423.317 487.84C423.317 488.39 423.758 488.831 424.309 488.831Z" fill="#431F20"/>
<path fill-rule="evenodd" clip-rule="evenodd" d="M453.679 488.831H486.834C487.385 488.831 487.826 488.39 487.826 487.84C487.826 487.289 487.385 486.848 486.834 486.848H453.679C453.127 486.848 452.686 487.289 452.686 487.84C452.686 488.39 453.127 488.831 453.679 488.831Z" fill="#431F20"/>
<path fill-rule="evenodd" clip-rule="evenodd" d="M519.106 489.052H552.261C552.813 489.052 553.254 488.611 553.254 488.06C553.254 487.509 552.813 487.069 552.261 487.069H519.106C518.555 487.069 518.114 487.509 518.114 488.06C518.114 488.611 518.555 489.052 519.106 489.052Z" fill="#431F20"/>
<path d="M171.187 489.774H257.436C258.124 489.774 258.775 489.668 259.246 489.495C259.716 489.322 260.006 489.083 260.006 488.831C260.006 488.579 259.752 488.339 259.246 488.167C258.775 487.994 258.124 487.888 257.436 487.888H171.187C170.499 487.888 169.848 487.994 169.377 488.167C168.907 488.339 168.617 488.579 168.617 488.831C168.617 489.083 168.871 489.322 169.377 489.495C169.884 489.668 170.499 489.774 171.187 489.774Z" fill="#3A0003"/>
<path d="M289.668 489.774H328.404C328.713 489.774 329.005 489.668 329.217 489.495C329.428 489.322 329.558 489.083 329.558 488.831C329.558 488.579 329.444 488.339 329.217 488.167C329.005 487.994 328.713 487.888 328.404 487.888H289.668C289.359 487.888 289.066 487.994 288.855 488.167C288.644 488.339 288.514 488.579 288.514 488.831C288.514 489.083 288.627 489.322 288.855 489.495C289.083 489.668 289.359 489.774 289.668 489.774Z" fill="#3A0003"/>
<path fill-rule="evenodd" clip-rule="evenodd" d="M621.672 476.212C619.971 479.205 598.161 478.872 596.802 476.906C596.166 480.012 595.748 482.52 595.643 483.85C595.14 490.414 623.467 490.842 623.011 483.641C623.068 482.397 622.555 479.661 621.672 476.212Z" fill="white" stroke="black" stroke-width="1.8653" stroke-miterlimit="10"/>
<path fill-rule="evenodd" clip-rule="evenodd" d="M617.463 462.427L617.359 462.475C616.399 463.909 607.242 465.562 600.117 463.425C598.797 468.117 597.638 472.962 596.84 476.857C598.189 478.823 620.009 479.156 621.709 476.163L617.463 462.427Z" fill="#25B6E5" stroke="black" stroke-width="1.8653" stroke-miterlimit="10"/>
<path fill-rule="evenodd" clip-rule="evenodd" d="M608.364 446.156C605.846 446.099 602.731 454.259 600.213 463.103L600.118 463.435C607.243 465.572 616.391 463.919 617.36 462.485L617.417 462.314C614.377 453.86 610.777 446.203 608.364 446.156Z" fill="#FEFEFE" stroke="black" stroke-width="1.8653" stroke-miterlimit="10"/>
<path fill-rule="evenodd" clip-rule="evenodd" d="M676.349 476.212C674.649 479.205 652.838 478.872 651.48 476.906C650.844 480.012 650.426 482.52 650.321 483.85C649.818 490.414 678.145 490.842 677.689 483.641C677.746 482.397 677.233 479.661 676.349 476.212Z" fill="white" stroke="black" stroke-width="1.8653" stroke-miterlimit="10"/>
<path fill-rule="evenodd" clip-rule="evenodd" d="M672.141 462.427L672.036 462.475C671.077 463.909 661.919 465.562 654.795 463.425C653.474 468.117 652.316 472.962 651.518 476.857C652.866 478.823 674.687 479.156 676.387 476.163L672.141 462.427Z" fill="#25B6E5" stroke="black" stroke-width="1.8653" stroke-miterlimit="10"/>
<path fill-rule="evenodd" clip-rule="evenodd" d="M663.041 446.156C660.524 446.099 657.408 454.259 654.891 463.103L654.796 463.435C661.92 465.572 671.068 463.919 672.037 462.485L672.094 462.314C669.055 453.86 665.454 446.203 663.041 446.156Z" fill="#FEFEFE" stroke="black" stroke-width="1.8653" stroke-miterlimit="10"/>
</svg>
