<svg viewBox="0 0 320 362" fill="none" xmlns="http://www.w3.org/2000/svg">
<g clip-path="url(#clip0)">
<path fill-rule="evenodd" clip-rule="evenodd" d="M232.844 43.431C236.578 32.9654 236.076 25.0336 231.551 17.6159C221.747 1.64217 208.496 1.71561 190.074 1.45856C171.904 1.20151 159.874 10.0146 153.159 37.1149C153.087 37.4087 153.302 37.7025 153.266 37.8861C150.07 49.9674 159.91 53.4559 161.633 66.4553C162.998 76.6638 161.238 82.7962 153.949 85.7339C138.615 89.9936 134.844 74.6074 140.087 69.3195C141.667 67.7038 143.93 66.8592 145.869 65.6841C135.814 63.5175 131.325 72.9182 131.253 84.3752C131.181 94.2165 129.637 102.626 145.869 109.162C157.755 113.312 174.525 112.798 182.425 99.3208L175.1 59.5884L197.795 40.7136L232.844 43.431Z" fill="#962420" stroke="black" stroke-width="0.748005" stroke-miterlimit="22.9256"/>
<path fill-rule="evenodd" clip-rule="evenodd" d="M198.94 132.003C193.913 129.285 196.894 119.297 199.551 114.376L190.322 106.738C197.863 115.331 207.415 119.517 217.722 115.184C230.901 109.676 233.343 94.9876 240.022 82.4289L241.817 82.686C237.365 78.9771 236.539 73.3221 235.82 71.0821L236.108 69.2827C225.658 81.2171 208.744 85.5135 193.841 79.4178C192.62 78.9037 191.399 78.3529 190.214 77.6919C187.916 76.4434 185.797 75.0112 183.858 73.3955L184.54 75.3785C183.75 76.3699 183.319 77.6552 183.427 79.0506C183.607 81.4742 185.402 83.3837 187.629 83.7876C188.06 83.8611 187.377 83.9712 187.377 83.9712C187.341 84.3752 185.33 83.4204 185.259 83.8978C185.187 84.3752 182.565 79.9686 182.134 79.6381C178.472 76.5535 172.87 70.4945 171.649 73.7994C171.218 74.9745 174.09 84.0447 173.983 85.5135L182.458 98.1824C182.96 99.8716 182.601 95.7955 184.935 102.846C186.48 107.546 185.546 112.247 184.648 115.845C182.565 124.218 177.825 128.331 166.226 125.65C163.174 125.87 159.69 127.816 157.644 130.203C156.53 131.525 155.381 132.333 156.028 134.5C156.782 136.96 161.127 140.228 165.113 142.615C198.15 167.549 198.94 132.003 198.94 132.003Z" fill="#FDD491"/>
<path fill-rule="evenodd" clip-rule="evenodd" d="M234.926 45.1929C235.321 43.8342 236.219 42.5122 236.111 41.0801C235.68 36.0126 231.048 33.0382 228.283 36.086L225.123 39.6113L234.926 45.1929Z" fill="#F77924" stroke="black" stroke-width="0.748005" stroke-miterlimit="22.9256"/>
<path fill-rule="evenodd" clip-rule="evenodd" d="M212.55 108.612C209.462 106.96 207.666 103.948 206.984 101.047C206.841 100.533 207.164 99.9826 207.702 99.8357C208.205 99.6888 208.744 100.019 208.887 100.57C209.318 102.369 211.293 108.208 218.583 107.914C219.122 107.878 219.553 108.318 219.589 108.869C219.625 109.42 219.194 109.861 218.655 109.897C216.213 109.971 214.202 109.493 212.55 108.612Z" fill="#431F20"/>
<path fill-rule="evenodd" clip-rule="evenodd" d="M198.547 114.89C195.279 113.128 192.119 110.557 189.174 107.179C188.815 106.775 188.851 106.151 189.246 105.784C189.641 105.416 190.252 105.453 190.611 105.857C198.547 114.927 207.884 117.828 216.897 114.083C226.306 110.153 230.076 101.23 234.098 91.8295C235.499 88.4879 236.971 85.0728 238.731 81.7679C238.982 81.2905 239.557 81.1069 240.023 81.364C240.49 81.621 240.67 82.2085 240.418 82.7226C238.731 85.9174 237.258 89.3325 235.858 92.6374C231.692 102.442 227.742 111.696 217.615 115.919C211.259 118.563 204.688 118.195 198.547 114.89Z" fill="#431F20"/>
<path fill-rule="evenodd" clip-rule="evenodd" d="M240.922 83.3846C240.85 83.3479 240.815 83.3112 240.743 83.2744C236.793 79.9695 235.536 75.3059 234.817 72.5151C234.674 72.001 234.566 71.5603 234.458 71.1931C234.279 70.679 234.566 70.1282 235.069 69.9446C235.572 69.761 236.11 70.0548 236.29 70.5689C236.398 70.9728 236.541 71.4502 236.685 72.001C237.367 74.5715 238.48 78.8312 241.964 81.7321C242.395 82.0626 242.43 82.6869 242.107 83.1275C241.82 83.4948 241.317 83.5682 240.922 83.3846Z" fill="#431F20"/>
<path fill-rule="evenodd" clip-rule="evenodd" d="M198.834 132.811C197.649 132.15 196.428 130.717 195.746 129.102C195.063 125.43 194.848 122.602 198.978 114.854C199.229 114.376 199.804 114.193 200.27 114.45C200.737 114.707 200.917 115.294 200.665 115.809C196.859 122.969 196.644 125.687 197.434 128.441C197.685 129.249 199.05 131.011 199.732 131.415C199.947 131.452 199.768 133.288 198.834 132.811Z" fill="#431F20"/>
<path fill-rule="evenodd" clip-rule="evenodd" d="M232.879 98.293L234.926 91.4628L237.978 85.1835L240.384 81.6215L237.26 76.5907L235.68 71.7067L234.423 70.752L228.929 75.3054L218.227 80.2628L207.167 82.209L195.604 79.8956L188.206 76.5907L184.795 74.2038L183.179 77.3618L182.892 80.2628L184.472 82.7966L184.184 89.8838L184.077 95.5022L183.861 99.7618L175.063 88.1579L171.867 77.2149L172.011 68.7323L172.693 61.0576L174.884 53.8969L178.906 46.6261L185.226 40.971L195.568 35.4261L204.725 33.7002L215.498 33.9205L227.492 38.8412L233.525 43.7618L240.061 52.9789L243.113 58.9277L245.017 68.6956V75.8195L243.221 82.4661L239.989 90.8753L238.05 93.7028L235.608 96.4936L232.879 98.293Z" fill="#962420" stroke="black" stroke-width="0.883609" stroke-miterlimit="22.9256"/>
<path fill-rule="evenodd" clip-rule="evenodd" d="M174.488 126.679C174.308 126.569 168.706 126.752 168.527 126.605C168.455 126.569 167.449 125.063 168.527 124.88C170.43 125.21 177.504 125.247 179.91 123.337C182.639 121.648 184.83 114.12 185.009 102.847C185.009 102.81 183.358 101.158 183.358 101.121C183.465 95.2455 183.465 88.856 183.609 82.6133C183.573 82.4297 185.081 83.8251 185.081 83.8251C185.045 90.1779 185.117 96.8245 185.009 102.847C185.009 102.957 186.841 104.573 186.841 104.72C186.769 109.457 184.758 122.603 180.916 124.99C178.725 126.385 176.606 126.569 174.488 126.679Z" fill="#431F20"/>
<path fill-rule="evenodd" clip-rule="evenodd" d="M185.297 83.971C183.501 83.0162 182.245 81.1435 182.065 78.9402C181.957 77.3612 182.424 75.8189 183.358 74.5703C183.681 74.1297 184.291 74.093 184.722 74.4235C185.153 74.754 185.225 75.3782 184.866 75.8189C184.22 76.6635 183.896 77.7284 183.968 78.7933C184.112 80.7395 185.512 82.3185 187.38 82.649C187.703 82.7225 188.062 82.7225 188.421 82.6858C188.96 82.649 189.427 83.053 189.463 83.6038C189.498 84.1546 189.103 84.632 188.565 84.6687C188.062 84.7054 187.559 84.6687 187.057 84.5953C186.446 84.4851 185.836 84.2648 185.297 83.971Z" fill="#431F20"/>
<path fill-rule="evenodd" clip-rule="evenodd" d="M186.696 81.5107C185.835 81.07 185.224 80.152 185.152 79.0503C185.045 77.3979 186.158 75.9657 187.702 75.8556C189.246 75.7454 190.575 76.9572 190.718 78.6097C190.754 79.1605 190.359 79.6379 189.821 79.6746C189.282 79.7113 188.815 79.3074 188.779 78.7566C188.743 78.2057 188.312 77.7651 187.846 77.8018C187.379 77.8385 187.02 78.3159 187.056 78.8667C187.091 79.4175 187.522 79.8582 187.989 79.8215C188.528 79.7848 188.995 80.1887 189.031 80.7395C189.067 81.2903 188.672 81.7677 188.133 81.8044C187.63 81.8412 187.127 81.731 186.696 81.5107Z" fill="#431F20"/>
<path fill-rule="evenodd" clip-rule="evenodd" d="M189.319 78.3893C187.021 77.1408 184.831 75.6719 182.82 73.9827C182.425 73.6523 182.353 73.028 182.676 72.5873C183.035 72.1467 183.646 72.11 184.041 72.4404C186.949 74.8641 190.289 76.8837 193.736 78.2791C208.065 84.1545 224.619 80.1886 234.926 68.4011C235.285 67.9972 235.895 67.9605 236.29 68.3277C236.685 68.6949 236.721 69.3191 236.362 69.7231C225.517 82.0982 208.101 86.2844 193.018 80.1152C191.797 79.6378 190.54 79.0503 189.319 78.3893Z" fill="#431F20"/>
<path fill-rule="evenodd" clip-rule="evenodd" d="M220.883 85.2567C220.704 85.1465 220.56 84.9996 220.452 84.816C220.237 84.3386 220.416 83.7144 220.883 83.494C227.527 80.1524 231.8 75.599 234.745 68.6954C234.96 68.1813 235.535 67.9609 236.037 68.1813C236.504 68.4016 236.756 68.9891 236.54 69.5032C233.416 76.7741 228.712 81.7681 221.745 85.2934C221.458 85.4403 221.135 85.4036 220.883 85.2567Z" fill="#431F20"/>
<path fill-rule="evenodd" clip-rule="evenodd" d="M222.644 102.516C222.392 102.369 222.213 102.149 222.141 101.855C222.033 101.304 222.356 100.79 222.859 100.68C223.829 100.46 224.439 99.4316 224.224 98.4401C224.008 97.4487 223.003 96.8244 222.033 97.0447C221.53 97.1549 220.992 96.8244 220.884 96.3103C220.776 95.7595 221.1 95.2454 221.602 95.1352C223.613 94.6578 225.624 95.9431 226.091 97.9995C226.558 100.056 225.301 102.112 223.29 102.59C223.075 102.663 222.823 102.626 222.644 102.516Z" fill="#431F20"/>
<path fill-rule="evenodd" clip-rule="evenodd" d="M189.068 106.996C178.402 96.5669 164.074 81.6948 174.272 53.0155C178.797 44.2391 186.338 37.6292 195.495 34.3978L196.824 34.0305C205.335 31.3132 214.564 31.8273 222.823 35.426C230.364 38.7309 236.505 44.2758 240.599 51.4732C240.635 51.5099 241.676 53.603 241.928 54.0804C247.17 65.1335 246.991 78.243 241.389 89.1125C239.27 93.2253 236.469 96.8974 233.094 99.982C232.699 100.349 232.088 100.312 231.729 99.9085C231.37 99.5046 231.406 98.8804 231.801 98.5131C234.997 95.5754 237.654 92.1236 239.665 88.1945C244.98 77.8758 245.159 65.464 240.168 54.9617C239.952 54.4843 238.911 52.4646 238.911 52.4646C235.033 45.6712 229.179 40.3833 222.069 37.262C214.241 33.8469 205.479 33.3696 197.363 35.9401L196.07 36.2705C187.416 39.3184 180.269 45.561 175.996 53.8968C167.952 77.6187 173.482 89.6633 190.468 105.637C190.612 106.408 189.283 107.216 189.068 106.996Z" fill="#431F20"/>
<path fill-rule="evenodd" clip-rule="evenodd" d="M232.626 85.6606C232.446 85.5504 232.302 85.4035 232.231 85.2199C231.872 84.4855 231.225 84.0448 230.507 84.0081C229.968 83.9714 229.573 83.494 229.609 82.9799C229.645 82.4291 230.112 82.0252 230.615 82.0619C232.051 82.1353 233.308 83.0166 233.954 84.3753C234.206 84.8527 233.99 85.477 233.523 85.6973C233.2 85.8075 232.877 85.8075 232.626 85.6606Z" fill="#431F20"/>
<path fill-rule="evenodd" clip-rule="evenodd" d="M226.198 89.9938C225.48 91.3892 225.516 92.8213 226.27 93.262C227.024 93.6659 228.245 92.8947 228.964 91.4993C229.682 90.1039 229.646 88.6718 228.892 88.2311C228.138 87.8272 226.917 88.5984 226.198 89.9938Z" fill="#431F20"/>
<path fill-rule="evenodd" clip-rule="evenodd" d="M214.311 85.0357C213.521 86.3944 213.521 87.8632 214.276 88.3039C215.03 88.7445 216.251 88.0101 217.041 86.6514C217.831 85.2927 217.831 83.8239 217.077 83.3832C216.322 82.9425 215.101 83.677 214.311 85.0357Z" fill="#431F20"/>
<path fill-rule="evenodd" clip-rule="evenodd" d="M205.514 102.296C205.478 102.296 205.478 102.259 205.478 102.259C205.011 101.966 204.867 101.378 205.155 100.901C205.55 100.24 206.34 99.5786 207.237 99.1747C208.315 98.6973 209.284 98.6606 210.003 99.1013C210.469 99.395 210.613 99.9826 210.326 100.46C210.038 100.937 209.464 101.047 208.997 100.79C208.674 100.607 207.237 101.194 206.806 101.892C206.519 102.369 205.945 102.553 205.514 102.296Z" fill="#431F20"/>
<path fill-rule="evenodd" clip-rule="evenodd" d="M168.275 125.76H163.392C159.334 127.56 157.395 130.02 156.138 133.288L154.809 136.667C154.809 152.897 144.575 164.501 128.702 164.501C116.169 164.501 105.504 156.312 101.59 144.855C101.59 144.855 101.267 144.158 101.913 143.203C104.283 138.796 101.769 129.175 101.769 129.175L98.8966 116.47C98.6812 115.368 97.6039 114.634 96.5266 114.854L95.952 113.826C95.7365 112.724 94.6592 111.99 93.5819 112.21C93.1869 112.284 92.8637 112.467 92.5764 112.724L92.2532 113.385C92.0378 112.284 90.9604 111.549 89.8831 111.77C88.8058 111.99 88.0876 113.092 88.3031 114.193L88.5185 115.332L89.7036 116.874C89.4881 115.772 88.4108 115.038 87.3335 115.258C86.2562 115.478 85.538 116.58 85.7534 117.682L85.8612 118.196L87.118 123.888L86.5076 124.034C86.1485 123.851 86.5794 123.777 86.1125 123.888C84.8198 124.145 84.4966 125.356 84.748 126.678L84.9993 127.964L87.2617 137.585L87.513 138.76C88.0517 141.477 89.7395 143.864 92.6482 145.516C93.2228 145.92 93.9769 147.463 93.9769 147.463L93.9051 147.536C98.6094 162.739 112.471 173.755 128.882 173.755C140.05 173.755 156.425 166.337 162.35 152.751L166.013 142.799L168.275 125.76Z" fill="#FDD491"/>
<path fill-rule="evenodd" clip-rule="evenodd" d="M129.168 174.599C140.156 174.599 150.57 169.679 157.716 161.123C159.655 159.066 163.103 153.044 163.139 152.971C163.462 152.236 163.031 148.748 162.923 149.519C162.708 150.951 157.824 158.773 156.459 160.021C149.636 168.21 139.689 172.874 129.203 172.874C113.475 172.874 99.757 162.592 95.0168 147.279C94.8732 146.838 94.4063 146.581 93.9395 146.728C93.4727 146.875 93.2572 147.352 93.4009 147.83C98.2847 163.803 112.685 174.599 129.168 174.599Z" fill="#431F20"/>
<path fill-rule="evenodd" clip-rule="evenodd" d="M128.882 165.383C145.186 165.383 151.434 157.341 155.205 141.22L155.528 137.878C155.528 134.904 158.975 129.506 160.878 128.551C163.32 127.376 165.906 126.642 168.456 126.642C168.922 126.642 169.317 126.238 169.317 125.76C169.317 125.283 168.922 124.879 168.456 124.879C165.547 124.879 162.854 125.687 160.196 126.899C157.682 128.037 153.804 133.912 153.804 137.842L153.481 141.183C149.71 156.533 144.216 163.62 128.846 163.62C117.032 163.62 106.438 155.945 102.524 144.562C102.524 144.525 102.488 144.488 102.488 144.451C102.488 144.451 102.416 144.158 102.74 143.68C102.991 143.276 102.919 142.725 102.524 142.468C102.129 142.211 101.59 142.285 101.339 142.689C100.549 143.901 100.8 144.855 100.908 145.149C105.146 157.267 116.35 165.383 128.882 165.383Z" fill="#431F20"/>
<path fill-rule="evenodd" clip-rule="evenodd" d="M94.226 148.307C94.3696 148.307 94.4774 148.271 94.621 148.197C95.0519 147.977 95.1956 147.463 94.9801 147.022C94.7646 146.618 94.0464 145.223 93.2564 144.782C90.6709 143.35 89.0549 141.22 88.5521 138.613L88.3367 137.438L86.0743 127.78L85.823 126.495C85.7152 125.981 85.7511 125.54 85.8589 125.246C85.9307 125.099 86.0384 124.916 86.3257 124.806H86.3616C86.7925 125.026 87.2953 124.842 87.5107 124.402C87.6903 124.034 87.5826 123.594 87.2953 123.373C87.2594 123.3 87.2235 123.263 87.1876 123.227C86.8644 122.896 86.4693 122.97 86.3257 123.006L86.218 123.043C85.3561 123.227 84.6738 123.741 84.3506 124.549C84.0634 125.173 84.0274 125.981 84.207 126.862L84.4584 128.147L86.9003 139.017C87.5107 142.138 89.4499 144.672 92.4664 146.361C92.6818 146.471 93.1487 147.206 93.5078 147.867C93.6155 148.16 93.9387 148.307 94.226 148.307Z" fill="#431F20"/>
<path fill-rule="evenodd" clip-rule="evenodd" d="M135.562 354.057C139.476 353.984 142.565 350.716 142.493 346.713C142.421 342.71 139.225 339.552 135.311 339.626C131.433 339.699 128.308 342.967 128.38 346.97C128.452 350.936 131.648 354.131 135.562 354.057Z" fill="#FEFEFE"/>
<path fill-rule="evenodd" clip-rule="evenodd" d="M102.092 144.083C102.379 144.083 102.702 143.936 102.846 143.643C105.36 138.979 102.882 129.358 102.81 128.954L99.9372 116.285C99.8295 115.808 99.3985 115.514 98.9317 115.624C98.4649 115.734 98.1776 116.212 98.2853 116.652L101.158 129.358C101.194 129.468 103.528 138.722 101.374 142.798C101.158 143.202 101.302 143.753 101.697 143.973C101.84 144.046 101.984 144.083 102.092 144.083Z" fill="#431F20"/>
<path fill-rule="evenodd" clip-rule="evenodd" d="M86.0054 118.6C86.0772 118.6 86.1131 118.6 86.185 118.6C86.6518 118.49 86.9391 118.049 86.8673 117.572C86.7954 117.241 86.8673 116.948 87.0468 116.69C87.2264 116.433 87.4777 116.25 87.8009 116.176C88.1241 116.103 88.4114 116.176 88.6628 116.36C88.9142 116.544 89.0937 116.801 89.1655 117.131C89.2733 117.609 89.7042 117.902 90.171 117.829C90.6378 117.719 90.9251 117.278 90.8533 116.801C90.7097 116.03 90.2787 115.369 89.6323 114.928C88.986 114.487 88.2319 114.34 87.4777 114.487C86.7236 114.634 86.0772 115.075 85.6463 115.736C85.2154 116.397 85.0717 117.168 85.2154 117.939C85.2513 118.343 85.6104 118.6 86.0054 118.6Z" fill="#431F20"/>
<path fill-rule="evenodd" clip-rule="evenodd" d="M88.7326 116.25C88.8044 116.25 88.8403 116.25 88.9121 116.25C89.379 116.139 89.6663 115.699 89.5944 115.221L89.379 114.083C89.3072 113.753 89.379 113.459 89.5585 113.202C89.7381 112.945 89.9895 112.761 90.3126 112.688C90.959 112.541 91.5695 112.981 91.6772 113.606C91.785 114.083 92.2159 114.377 92.6827 114.267C93.1496 114.156 93.4368 113.716 93.365 113.238C93.0418 111.659 91.5336 110.631 89.9895 110.962C89.2353 111.109 88.5889 111.549 88.158 112.21C87.7271 112.871 87.5835 113.642 87.7271 114.414L87.9426 115.552C87.9785 115.956 88.3376 116.25 88.7326 116.25Z" fill="#431F20"/>
<path fill-rule="evenodd" clip-rule="evenodd" d="M96.1672 114.707C96.2391 114.707 96.275 114.707 96.3468 114.707C96.8136 114.597 97.1009 114.156 97.0291 113.679C96.8854 112.907 96.4545 112.246 95.8081 111.806C95.1618 111.365 94.4076 111.218 93.6535 111.365C93.1149 111.475 92.6481 111.732 92.253 112.1C91.9298 112.43 91.8939 112.981 92.2171 113.311C92.5403 113.642 93.079 113.679 93.4022 113.348C93.5458 113.201 93.7613 113.091 93.9767 113.054C94.2999 112.981 94.5872 113.054 94.8386 113.238C95.0899 113.422 95.2695 113.679 95.3413 114.009C95.4131 114.413 95.7722 114.707 96.1672 114.707Z" fill="#431F20"/>
<path fill-rule="evenodd" clip-rule="evenodd" d="M99.1135 117.314C99.1854 117.314 99.2213 117.314 99.2931 117.314C99.7599 117.204 100.047 116.763 99.9754 116.286C99.8317 115.515 99.4008 114.854 98.7544 114.413C98.108 113.973 97.3539 113.826 96.5998 113.973C96.133 114.083 95.8457 114.523 95.9175 115.001C96.0252 115.478 96.4562 115.772 96.923 115.698C97.5694 115.552 98.1799 115.992 98.2876 116.617C98.3594 117.057 98.7185 117.314 99.1135 117.314Z" fill="#431F20"/>
<path fill-rule="evenodd" clip-rule="evenodd" d="M99.3624 129.139C99.4342 129.139 99.4701 129.139 99.5419 129.102C100.009 128.992 100.296 128.515 100.188 128.074L97.1 114.193C96.9923 113.716 96.5255 113.422 96.0945 113.532C95.6277 113.643 95.3404 114.12 95.4482 114.561L98.5364 128.441C98.6083 128.845 98.9674 129.139 99.3624 129.139Z" fill="#431F20"/>
<path fill-rule="evenodd" clip-rule="evenodd" d="M95.5567 128.147C95.6285 128.147 95.6645 128.147 95.7363 128.111C96.2031 128 96.4904 127.523 96.3827 127.082L93.2944 113.202C93.1866 112.724 92.7557 112.431 92.2889 112.541C91.822 112.651 91.5348 113.128 91.6425 113.569L94.7308 127.45C94.8385 127.853 95.1617 128.147 95.5567 128.147Z" fill="#431F20"/>
<path fill-rule="evenodd" clip-rule="evenodd" d="M92.5401 129.249C92.6119 129.249 92.6838 129.249 92.7197 129.213C93.1865 129.103 93.4738 128.625 93.3661 128.185L90.6728 116.397C90.5651 115.92 90.0982 115.626 89.6673 115.736C89.2005 115.846 88.9132 116.324 89.0209 116.764L91.7142 128.552C91.8219 128.992 92.181 129.249 92.5401 129.249Z" fill="#431F20"/>
<path fill-rule="evenodd" clip-rule="evenodd" d="M89.5235 134.757C89.5953 134.757 89.6312 134.757 89.7031 134.721C90.1699 134.611 90.4572 134.133 90.3495 133.693L86.938 118.086C86.8302 117.609 86.3993 117.315 85.9325 117.425C85.4656 117.535 85.1784 118.013 85.2861 118.453L88.7335 134.06C88.8053 134.464 89.1644 134.757 89.5235 134.757Z" fill="#431F20"/>
<path fill-rule="evenodd" clip-rule="evenodd" d="M187.954 151.209C190.863 154.294 203.468 149.667 213.846 154.22C218.981 156.46 225.05 167.991 226.163 169.9C239.953 193.402 241.353 220.906 232.34 244.261L232.627 245.399C231.406 244.408 229.718 244.004 228.102 244.445C227.061 244.738 226.163 245.326 225.517 246.097C225.301 246.354 221.638 251.128 215.138 249.916L214.672 249.989C213.487 250.357 212.768 251.605 213.128 252.854C213.307 253.515 213.738 254.029 214.313 254.286C214.779 254.543 220.633 256.342 223.182 251.862L221.566 253.845C221.566 253.845 216.288 262.144 216.288 262.181C215.857 263.136 216.144 264.274 217.006 264.862C217.904 265.449 219.053 265.266 219.735 264.458C219.771 264.421 222.428 260.161 222.428 260.125L224.547 257.26C224.547 257.297 224.511 257.297 224.511 257.334C224.475 257.37 222.716 260.051 222.68 260.125C222.213 261.079 222.464 262.254 223.362 262.842C224.224 263.429 225.409 263.283 226.091 262.511C226.127 262.475 227.887 259.831 227.923 259.794C227.958 259.757 227.994 259.684 228.03 259.647L227.994 259.757C227.994 259.794 227.958 259.794 227.958 259.831C227.923 259.867 226.163 262.548 226.127 262.622C225.66 263.576 225.912 264.751 226.809 265.339C227.671 265.963 228.856 265.78 229.539 265.008C229.574 264.972 231.334 262.328 231.37 262.291C231.406 262.254 231.442 262.218 231.478 262.144L229.718 264.751C229.682 264.788 229.287 265.376 229.251 265.412C228.784 266.367 229.395 267.212 230.293 267.836C231.155 268.424 232.052 268.203 232.735 267.432C232.77 267.395 239.27 257.297 239.27 257.297C240.132 255.718 240.419 253.772 239.881 251.899C239.27 249.696 237.69 248.007 235.751 247.235L239.522 251.165C251.695 224.468 251.121 192.3 235.212 165.163C222.356 136.814 211.942 134.06 196.609 133.252L187.954 151.209Z" fill="#FDD491"/>
<path fill-rule="evenodd" clip-rule="evenodd" d="M244.942 198.616C244.834 198.432 244.691 198.285 244.547 198.138C244.044 197.661 243.398 197.367 242.716 197.367C242.033 197.367 241.387 197.661 240.884 198.175C240.417 198.689 240.13 199.35 240.13 200.048C240.13 200.452 240.453 200.746 240.812 200.746C241.172 200.746 241.495 200.415 241.495 200.048C241.495 199.717 241.602 199.387 241.854 199.167C242.069 198.909 242.392 198.799 242.716 198.799C243.039 198.799 243.362 198.909 243.577 199.167C243.829 199.387 243.937 199.717 243.937 200.048C243.937 200.415 244.26 200.746 244.619 200.746C244.978 200.746 245.301 200.415 245.301 200.048C245.337 199.497 245.193 199.056 244.942 198.616Z" fill="#431F20"/>
<path fill-rule="evenodd" clip-rule="evenodd" d="M234.422 162.666C231.082 157.268 223.828 132.701 199.086 132.481C198.583 132.481 199.301 132.371 198.799 132.407C198.152 131.746 198.547 132.591 198.547 133.142C199.265 133.105 197.542 133.215 198.116 133.472C198.296 133.546 198.08 133.582 198.404 133.582C223.577 134.427 230.938 159.398 234.422 165.346C249.648 191.308 251.407 222.889 238.875 250.393C238.731 250.723 238.875 251.311 239.234 251.458C239.593 251.605 239.808 251.641 239.988 251.274C252.736 223.366 251.084 190.978 235.643 164.612C235.212 163.951 234.817 163.327 234.422 162.666Z" fill="#431F20"/>
<path fill-rule="evenodd" clip-rule="evenodd" d="M225.55 167.513C222.462 162.555 218.871 157.892 214.92 153.706C214.92 153.706 214.166 152.824 213.161 152.788C212.838 152.788 212.012 153.522 212.155 153.779C212.191 153.816 213.951 154.66 213.987 154.697C218.332 159.324 222.21 164.465 225.478 170.047C238.729 192.667 240.955 219.547 231.619 243.82C231.475 244.187 231.655 244.591 232.014 244.738C232.373 244.885 232.768 244.701 232.912 244.334C242.428 219.657 240.165 192.336 226.663 169.349C226.304 168.725 225.945 168.1 225.55 167.513Z" fill="#431F20"/>
<path fill-rule="evenodd" clip-rule="evenodd" d="M227.849 259.574L228.424 259.978C228.854 259.317 229.716 259.17 230.363 259.61C231.009 260.051 231.153 260.932 230.722 261.593C230.686 261.63 230.686 261.667 230.65 261.667C230.614 261.703 230.327 262.144 229.968 262.695C229.465 263.429 228.89 264.347 228.819 264.421C228.388 264.898 227.598 265.008 227.023 264.604C226.449 264.201 226.233 263.393 226.556 262.768C226.592 262.732 227.167 261.85 227.669 261.116C228.029 260.565 228.352 260.051 228.388 260.051L227.849 259.574ZM231.907 259.243C231.727 258.913 231.44 258.656 231.117 258.435C229.86 257.554 228.136 257.884 227.274 259.17L227.239 259.206C227.167 259.317 226.879 259.757 226.52 260.271C225.371 261.997 225.371 261.997 225.335 262.071C224.689 263.356 225.084 264.898 226.233 265.706C227.382 266.477 228.926 266.294 229.824 265.265C229.86 265.229 229.86 265.229 231.045 263.429C231.368 262.915 231.655 262.511 231.691 262.475C231.727 262.438 231.763 262.401 231.799 262.328C232.481 261.373 232.481 260.161 231.907 259.243Z" fill="#431F20"/>
<path fill-rule="evenodd" clip-rule="evenodd" d="M223.252 261.629C223.001 261.225 222.965 260.674 223.18 260.196C223.216 260.123 223.862 259.168 224.365 258.397C224.688 257.883 224.976 257.479 224.976 257.442L225.012 257.406C225.442 256.745 226.304 256.598 226.951 257.038C227.274 257.259 227.453 257.589 227.525 257.956C227.597 258.324 227.525 258.728 227.31 259.021C227.274 259.058 227.274 259.095 227.238 259.095C227.202 259.131 226.987 259.499 226.663 259.939C226.161 260.71 225.442 261.739 225.371 261.849C224.94 262.326 224.15 262.436 223.575 262.032C223.467 261.959 223.36 261.812 223.252 261.629ZM228.495 256.745C228.279 256.414 228.028 256.157 227.705 255.937C226.448 255.055 224.724 255.386 223.862 256.671L223.791 256.781C223.755 256.818 223.503 257.222 223.18 257.663C221.959 259.535 221.959 259.535 221.923 259.572C221.277 260.857 221.672 262.4 222.821 263.208C223.97 264.015 225.514 263.795 226.412 262.767C226.448 262.73 226.448 262.73 227.777 260.747C228.064 260.343 228.279 260.013 228.279 259.976C228.315 259.976 228.351 259.903 228.387 259.829C228.782 259.205 228.962 258.47 228.818 257.699C228.818 257.369 228.674 257.038 228.495 256.745Z" fill="#431F20"/>
<path fill-rule="evenodd" clip-rule="evenodd" d="M239.843 249.659C239.125 248.704 238.55 248.411 238.155 248.043C237.796 247.896 237.401 248.08 237.257 248.447C237.114 248.815 237.293 249.218 237.652 249.365C238.837 250.394 238.514 249.99 239.053 251.899C239.52 253.552 239.304 255.277 238.514 256.783C235.569 261.373 232.517 266.404 232.086 267.065C231.619 267.579 231.117 267.836 230.542 267.432C230.183 267.212 229.716 267.506 229.501 267.249C229.249 266.918 229.213 266.441 230.111 264.935C230.291 264.605 230.219 264.164 229.896 263.98C229.572 263.797 229.177 263.87 228.962 264.201C228.352 265.119 227.561 266.22 227.885 266.037C229.07 265.339 228.531 266.771 230.183 267.873C231.332 268.644 232.158 268.754 233.092 267.726C233.128 267.653 230.614 271.582 239.663 257.517C240.669 255.645 240.92 253.552 240.346 251.532C240.13 250.797 240.238 250.283 239.843 249.659Z" fill="#431F20"/>
<path fill-rule="evenodd" clip-rule="evenodd" d="M222.033 253.219C221.997 253.146 221.925 253.072 221.818 252.999C221.495 252.779 221.064 252.889 220.884 253.219C215.605 261.555 215.569 261.592 215.569 261.628C214.959 262.914 215.39 264.419 216.539 265.227C217.688 266.035 219.268 265.815 220.166 264.713C220.202 264.64 220.202 264.64 221.961 261.849C222.464 261.078 222.859 260.38 222.895 260.343C223.111 260.013 223.003 259.609 222.715 259.388C222.428 259.168 221.997 259.242 221.782 259.535C221.746 259.572 221.746 259.572 220.812 261.114C220.058 262.289 219.16 263.758 219.089 263.868C218.658 264.383 217.868 264.493 217.293 264.089C216.718 263.685 216.503 262.914 216.79 262.289C216.862 262.179 220.274 256.818 222.033 254.027C222.213 253.733 222.177 253.44 222.033 253.219Z" fill="#431F20"/>
<path fill-rule="evenodd" clip-rule="evenodd" d="M223.649 251.274C223.577 251.2 223.505 251.09 223.398 251.054C223.075 250.87 222.644 250.98 222.464 251.311C220.094 255.46 214.528 253.477 214.456 253.477C214.061 253.294 213.774 252.926 213.63 252.486C213.379 251.641 213.881 250.723 214.707 250.503C215.067 250.393 215.282 250.025 215.174 249.658C215.067 249.291 214.707 249.071 214.348 249.181C212.804 249.621 211.871 251.311 212.337 252.89C212.553 253.698 213.127 254.395 213.881 254.762C214.707 255.166 220.92 256.856 223.649 252.045C223.793 251.751 223.793 251.458 223.649 251.274Z" fill="#431F20"/>
<path fill-rule="evenodd" clip-rule="evenodd" d="M233.129 244.81C233.093 244.737 233.021 244.7 232.985 244.626C231.513 243.451 229.646 243.047 227.85 243.562C226.701 243.855 225.695 244.516 224.905 245.398C223.972 246.536 220.632 249.988 215.174 248.996C214.815 248.923 214.455 249.18 214.384 249.547C214.312 249.914 214.563 250.282 214.922 250.355C221.099 251.493 224.905 247.564 225.911 246.352C226.521 245.618 227.311 245.141 228.173 244.92C229.538 244.553 230.974 244.847 232.123 245.765C232.411 245.985 232.842 245.948 233.093 245.655C233.272 245.398 233.272 245.067 233.129 244.81Z" fill="#431F20"/>
<path fill-rule="evenodd" clip-rule="evenodd" d="M231.262 261.959L231.837 262.363C232.268 261.702 233.129 261.555 233.776 261.996C234.422 262.437 234.566 263.318 234.135 263.979C234.099 264.016 234.099 264.052 234.063 264.052C234.027 264.089 233.74 264.53 233.381 265.081C232.878 265.815 232.303 266.733 232.232 266.807C231.801 267.284 231.011 267.394 230.436 266.99C229.862 266.586 229.646 265.778 229.969 265.154C230.005 265.117 230.58 264.236 231.083 263.502C231.442 262.951 231.765 262.437 231.801 262.437L231.262 261.959ZM235.32 261.629C235.14 261.298 234.853 261.041 234.53 260.821C233.273 259.94 231.549 260.27 230.688 261.555L230.652 261.592C230.58 261.702 230.293 262.143 229.933 262.657C228.784 264.383 228.784 264.383 228.748 264.456C228.102 265.742 228.497 267.284 229.646 268.092C230.795 268.863 232.339 268.679 233.237 267.651C233.273 267.614 233.273 267.614 234.458 265.815C234.781 265.338 235.069 264.897 235.104 264.86C235.14 264.824 235.176 264.787 235.212 264.713C235.895 263.795 235.895 262.584 235.32 261.629Z" fill="#431F20"/>
<path fill-rule="evenodd" clip-rule="evenodd" d="M163.249 250.062C148.814 245.472 137.143 239.78 137.61 237.944C138.184 235.741 153.231 238.385 173.089 243.599C174.31 243.93 175.531 244.26 176.752 244.591C198.262 250.466 215.248 257.15 214.601 259.5C214.134 261.336 203.074 260.014 188.028 256.525L183.072 255.387L163.249 250.062Z" fill="#40A4CE"/>
<path fill-rule="evenodd" clip-rule="evenodd" d="M171.543 257.736C172.585 270.038 176.319 284.029 182.783 297.506L173.375 297.689C164.038 278.153 160.339 257.59 162.386 242.497L162.925 238.935C163.715 235.41 164.648 231.848 165.798 228.359L173.734 230.452L171.543 257.736Z" fill="#FDD491"/>
<path fill-rule="evenodd" clip-rule="evenodd" d="M173.733 298.68C173.841 298.68 173.913 298.643 174.02 298.607C174.344 298.46 174.451 298.056 174.308 297.762C165.366 279.034 161.272 258.544 163.391 242.974L163.93 239.449C164.684 235.96 165.653 232.435 166.767 228.983C166.874 228.652 166.695 228.285 166.372 228.175C166.048 228.065 165.689 228.249 165.581 228.579C164.432 232.068 163.463 235.63 162.709 239.228L162.17 242.827C160.015 258.69 164.145 279.438 173.194 298.386C173.266 298.57 173.482 298.68 173.733 298.68Z" fill="#431F20"/>
<path fill-rule="evenodd" clip-rule="evenodd" d="M183.142 298.498C183.214 298.498 183.322 298.461 183.394 298.424C183.681 298.278 183.825 297.91 183.681 297.58C177.72 285.095 173.842 271.434 172.836 259.133C171.902 246.39 175.098 232.877 175.062 232.84C174.847 232.326 174.165 232.363 173.949 232.84C173.913 232.914 170.43 246.023 171.615 259.243C172.656 271.691 176.571 285.499 182.604 298.131C182.675 298.351 182.891 298.498 183.142 298.498Z" fill="#431F20"/>
<path fill-rule="evenodd" clip-rule="evenodd" d="M190.719 357.875C194.634 357.802 197.722 354.534 197.65 350.531C197.578 346.528 194.382 343.37 190.468 343.444C186.554 343.517 183.466 346.786 183.537 350.788C183.609 354.791 186.841 357.949 190.719 357.875Z" fill="#FEFEFE"/>
<path fill-rule="evenodd" clip-rule="evenodd" d="M161.776 303.895C161.776 303.895 161.597 307.861 160.986 309.036C160.591 309.807 158.76 310.725 158.76 310.725L154.271 313.883C154.271 313.883 142.133 317.959 138.147 319.391C135.023 320.53 133.156 321.705 132.186 323.614C130.319 327.25 131.719 331.766 135.274 333.676C136.819 334.521 139.225 334.484 139.225 334.484C150.716 334.557 185.082 333.235 185.082 333.235C186.806 332.978 188.386 331.913 189.248 330.224C189.786 329.123 190.397 327.14 190.253 326.001L189.032 307.2L161.776 303.895Z" fill="#BD7E00"/>
<path fill-rule="evenodd" clip-rule="evenodd" d="M161.739 303.49C161.739 303.49 169.424 302.315 175.241 310.614C175.816 311.459 176.462 312.23 177.432 312.744C180.053 314.14 183.321 313.111 184.686 310.394C184.686 310.394 187.415 305.987 191.616 306.685L192.586 288.508L161.164 286.782L161.739 303.49Z" fill="#AEAB92"/>
<path fill-rule="evenodd" clip-rule="evenodd" d="M190.718 305.657C186.552 305.657 184.003 309.697 183.895 309.88C182.71 312.157 180.052 313.038 177.862 311.9C177.072 311.496 176.497 310.761 176.03 310.064C171.183 303.087 165.078 302.462 162.672 302.499L162.133 287.774L191.616 289.39L190.718 305.657ZM160.84 303.748C160.876 303.931 160.984 304.078 161.128 304.188C161.343 304.372 161.594 304.445 161.846 304.409C162.169 304.372 169.1 303.454 174.45 311.129C175.061 311.973 175.815 312.928 176.964 313.552C180.052 315.205 183.859 313.956 185.439 310.798C185.439 310.798 187.881 307.016 191.4 307.567C191.651 307.603 191.939 307.53 192.118 307.383C192.334 307.2 192.441 306.979 192.477 306.685L193.447 288.508C193.483 287.994 193.088 287.554 192.585 287.517L161.164 285.791C160.912 285.791 160.661 285.864 160.481 286.048C160.302 286.232 160.194 286.489 160.194 286.746L160.804 303.454C160.804 303.601 160.84 303.674 160.84 303.748Z" fill="#431F20"/>
<path fill-rule="evenodd" clip-rule="evenodd" d="M161.775 298.9L174.272 300.222C175.709 300.369 177.001 299.304 177.145 297.835C177.289 296.367 176.247 295.081 174.811 294.934L161.596 293.539L161.775 298.9Z" fill="#BD7E00"/>
<path fill-rule="evenodd" clip-rule="evenodd" d="M161.777 317.591C166.517 320.419 168.923 314.764 159.191 310.614C156.642 309.513 153.697 312.45 154.81 313.075C157.97 314.874 160.735 316.967 161.777 317.591Z" fill="#FEFEFE"/>
<path fill-rule="evenodd" clip-rule="evenodd" d="M136.567 346.491C136.603 346.601 136.603 346.711 136.639 346.822C136.639 347.152 136.532 347.446 136.316 347.703C136.101 347.923 135.813 348.07 135.49 348.07C135.167 348.07 134.88 347.96 134.628 347.74C134.413 347.519 134.269 347.226 134.269 346.895C134.269 346.234 134.772 345.647 135.454 345.647C135.957 345.61 136.424 345.977 136.567 346.491ZM132.546 347.776C132.689 348.254 132.976 348.694 133.336 349.062C133.91 349.649 134.7 349.943 135.49 349.943C136.316 349.943 137.07 349.576 137.609 348.988C138.183 348.401 138.471 347.593 138.471 346.785C138.435 345.059 137.07 343.7 135.382 343.737C133.695 343.774 132.366 345.206 132.402 346.895C132.402 347.226 132.438 347.519 132.546 347.776Z" fill="#431F20"/>
<path fill-rule="evenodd" clip-rule="evenodd" d="M135.527 353.137C132.152 353.211 129.351 350.42 129.279 346.968C129.243 345.279 129.853 343.7 131.003 342.488C132.152 341.276 133.66 340.615 135.312 340.579C138.687 340.505 141.488 343.296 141.56 346.748C141.632 350.2 138.939 353.064 135.527 353.137ZM127.807 349.282C128.848 352.623 131.936 355.047 135.563 355.01C139.98 354.937 143.499 351.228 143.428 346.711C143.356 342.194 139.729 338.596 135.312 338.669C133.193 338.706 131.182 339.587 129.71 341.166C128.238 342.745 127.448 344.802 127.448 346.968C127.483 347.776 127.591 348.584 127.807 349.282Z" fill="#431F20"/>
<path fill-rule="evenodd" clip-rule="evenodd" d="M131.181 329.415C131.827 331.471 133.192 333.27 135.203 334.335C136.926 335.253 139.476 335.253 139.584 335.253C150.967 335.327 185.118 334.005 185.441 334.005C185.477 334.005 185.513 334.005 185.549 334.005C187.596 333.674 189.427 332.389 190.397 330.479C190.971 329.341 191.69 327.138 191.51 325.706L190.289 306.978C190.253 306.464 189.822 306.06 189.319 306.097C188.817 306.133 188.422 306.574 188.458 307.088L189.679 325.889C189.786 326.771 189.284 328.607 188.781 329.598C188.099 330.92 186.842 331.875 185.369 332.095C183.825 332.169 150.752 333.417 139.62 333.344C139.584 333.344 137.429 333.344 136.1 332.646C132.976 330.994 131.791 327.064 133.407 323.87C134.197 322.291 135.777 321.226 138.865 320.124C142.816 318.692 154.881 314.653 154.989 314.616C155.456 314.469 155.743 313.918 155.6 313.441C155.42 312.927 154.917 312.67 154.415 312.853C154.307 312.89 142.241 316.929 138.255 318.361C134.7 319.647 132.833 321.005 131.791 323.025C130.678 325.045 130.534 327.358 131.181 329.415Z" fill="#431F20"/>
<path fill-rule="evenodd" clip-rule="evenodd" d="M164.721 317.115C164.757 317.225 164.793 317.335 164.793 317.445C164.828 317.886 164.613 317.996 164.541 318.07C164.146 318.327 163.212 318.29 162.027 317.592C161.704 317.409 161.201 317.041 160.555 316.601C159.298 315.756 157.467 314.471 155.42 313.296C155.599 313.075 155.959 312.745 156.461 312.488C156.892 312.268 157.754 311.937 158.616 312.304C162.817 314.104 164.397 316.05 164.721 317.115ZM153.481 313.92C153.589 314.287 153.84 314.544 154.127 314.728C156.246 315.903 158.149 317.225 159.514 318.18C160.196 318.657 160.735 319.024 161.094 319.245C162.746 320.236 164.397 320.42 165.511 319.685C166.301 319.171 166.696 318.327 166.588 317.298C166.408 314.912 163.679 312.414 159.298 310.578C156.928 309.587 154.307 311.203 153.588 312.708C153.409 313.186 153.373 313.59 153.481 313.92Z" fill="#431F20"/>
<path fill-rule="evenodd" clip-rule="evenodd" d="M158.042 311.68C158.042 311.716 158.078 311.753 158.078 311.79C158.294 312.267 158.868 312.451 159.299 312.23C159.802 311.973 161.454 311.129 161.956 310.137C162.639 308.815 162.818 305.29 162.854 304.592C162.89 304.078 162.495 303.638 161.992 303.601C161.49 303.564 161.059 303.968 161.023 304.482C160.951 306.025 160.664 308.558 160.305 309.256C160.161 309.513 159.299 310.137 158.509 310.505C158.114 310.762 157.899 311.239 158.042 311.68Z" fill="#431F20"/>
<path fill-rule="evenodd" clip-rule="evenodd" d="M160.877 299.195C160.985 299.562 161.272 299.82 161.667 299.856L174.164 301.178C176.103 301.399 177.863 299.93 178.042 297.983C178.222 296.001 176.821 294.238 174.882 294.018L161.667 292.622C161.164 292.585 160.697 292.953 160.662 293.467C160.626 293.981 160.985 294.458 161.487 294.495L174.702 295.89C175.636 296.001 176.318 296.845 176.211 297.763C176.103 298.718 175.277 299.379 174.343 299.305L161.847 297.983C161.344 297.91 160.877 298.314 160.841 298.828C160.841 298.938 160.841 299.048 160.877 299.195Z" fill="#431F20"/>
<path fill-rule="evenodd" clip-rule="evenodd" d="M163.93 265.338C164.038 265.338 164.182 265.302 164.254 265.228C164.685 264.934 165.187 264.898 165.582 265.118C165.906 265.265 166.265 265.155 166.408 264.824C166.552 264.494 166.444 264.126 166.121 263.98C165.295 263.539 164.325 263.612 163.535 264.163C163.248 264.347 163.176 264.751 163.356 265.045C163.535 265.228 163.715 265.338 163.93 265.338Z" fill="#431F20"/>
<path fill-rule="evenodd" clip-rule="evenodd" d="M189.319 261.556C190.361 274.004 194.131 288.105 200.667 301.729L191.151 301.949C181.706 282.193 178.008 261.482 180.054 246.243L180.593 242.644C181.383 239.082 182.353 235.52 183.502 231.958L191.51 234.052L189.319 261.556Z" fill="#FDD491"/>
<path fill-rule="evenodd" clip-rule="evenodd" d="M191.546 302.94C191.653 302.94 191.725 302.903 191.833 302.866C192.156 302.719 192.264 302.315 192.12 302.022C183.071 283.11 178.977 262.436 181.096 246.683L181.634 243.121C182.424 239.595 183.394 236.033 184.507 232.545C184.615 232.214 184.435 231.847 184.112 231.737C183.789 231.627 183.43 231.811 183.322 232.141C182.173 235.666 181.203 239.265 180.413 242.864L179.839 246.499C177.684 262.51 181.85 283.477 190.971 302.609C191.079 302.793 191.294 302.94 191.546 302.94Z" fill="#431F20"/>
<path fill-rule="evenodd" clip-rule="evenodd" d="M201.025 302.72C201.133 302.72 201.205 302.683 201.276 302.646C201.564 302.5 201.707 302.132 201.564 301.802C195.531 289.17 191.617 275.399 190.611 262.951C189.642 250.098 192.909 236.438 192.873 236.401C192.658 235.887 191.94 235.924 191.76 236.401C191.724 236.475 188.205 249.731 189.39 263.061C190.432 275.656 194.382 289.574 200.486 302.353C200.594 302.61 200.81 302.72 201.025 302.72Z" fill="#431F20"/>
<path fill-rule="evenodd" clip-rule="evenodd" d="M181.632 269.23C181.74 269.23 181.884 269.193 181.991 269.12C182.422 268.826 182.925 268.789 183.356 269.01C183.679 269.157 184.038 269.046 184.218 268.716C184.361 268.385 184.254 268.018 183.931 267.835C183.105 267.394 182.135 267.467 181.309 268.018C181.022 268.202 180.95 268.606 181.13 268.899C181.237 269.157 181.453 269.23 181.632 269.23Z" fill="#431F20"/>
<path fill-rule="evenodd" clip-rule="evenodd" d="M218.729 194.467C225.48 216.683 223.218 239.487 214.133 258.729L214.205 259.06C214.815 256.709 197.865 250.026 176.355 244.151C175.098 243.82 173.877 243.49 172.656 243.159C152.798 237.945 137.752 235.301 137.177 237.504L137.608 236.623C152.439 227.039 151.936 217.161 154.701 199.681L155.958 192.153C157.035 191.933 163.284 149.63 164.182 146.399C165.69 140.854 166.408 125.651 167.162 125.688C170.179 125.908 172.225 125.871 174.38 124.843C174.739 124.696 175.457 125.21 175.457 125.798C175.852 136.043 181.778 141.037 186.446 140.927C193.879 141.845 198.512 135.786 199.266 132.408C199.374 131.894 210.147 133.84 210.003 134.574C209.034 139.568 209.716 150.144 212.301 154.11C213.091 155.285 213.594 185.507 217.867 193.732L218.729 194.467Z" fill="#2AB6E4"/>
<path fill-rule="evenodd" clip-rule="evenodd" d="M213.344 260.637C214.278 260.38 214.601 259.94 214.709 259.462C214.924 258.581 215.355 256.965 203.577 252.301C196.394 249.474 186.699 246.353 176.249 243.488C174.992 243.158 173.771 242.827 172.55 242.497C137.142 233.243 136.316 236.401 136.065 237.466C135.131 241.101 154.667 248.189 162.244 250.612C162.675 250.759 162.1 250.319 162.244 249.841C162.387 249.4 162.962 248.96 162.495 248.813C148.67 244.406 139.117 239.669 137.789 237.907C139.441 237.282 148.203 237.907 172.119 244.149C173.34 244.48 174.561 244.81 175.782 245.141C198.01 251.2 211.477 257.002 212.949 258.948C211.441 259.536 206.198 259.682 190.038 255.974C188.817 255.68 189.751 254.945 189.428 256.488C189.069 258.03 188.71 257.406 189.967 257.7C197.472 259.425 201.171 260.013 205.983 260.564C210.004 261.041 212.159 260.968 213.344 260.637Z" fill="#431F20"/>
<path fill-rule="evenodd" clip-rule="evenodd" d="M217.4 251.641C217.58 251.604 217.759 251.457 217.867 251.31C218.118 250.906 218.011 250.392 217.651 250.135C215.497 248.666 211.259 246.757 205.406 244.59C204.975 244.443 204.472 244.664 204.329 245.104C204.149 245.545 204.401 246.059 204.831 246.206C210.505 248.299 214.707 250.209 216.718 251.567C216.933 251.677 217.185 251.714 217.4 251.641Z" fill="#431F20"/>
<path fill-rule="evenodd" clip-rule="evenodd" d="M200.379 244.444C200.631 244.37 200.846 244.187 200.954 243.893C201.098 243.452 200.882 242.975 200.415 242.828C194.562 240.808 187.847 238.789 180.988 236.916C180.521 236.806 180.09 237.063 179.946 237.54C179.839 237.981 180.09 238.458 180.557 238.605C187.416 240.478 194.095 242.498 199.913 244.48C200.056 244.48 200.236 244.481 200.379 244.444Z" fill="#431F20"/>
<path fill-rule="evenodd" clip-rule="evenodd" d="M177.324 237.54C177.611 237.467 177.826 237.247 177.898 236.916C178.006 236.439 177.754 235.998 177.288 235.888C176.21 235.594 175.133 235.337 174.056 235.043C165.94 232.987 158.758 231.371 153.335 230.453C152.869 230.38 152.438 230.673 152.366 231.151C152.294 231.628 152.581 232.069 153.048 232.142C158.435 233.097 165.581 234.676 173.661 236.732C174.702 236.99 175.779 237.283 176.857 237.577C177.036 237.577 177.18 237.577 177.324 237.54Z" fill="#431F20"/>
<path fill-rule="evenodd" clip-rule="evenodd" d="M137.536 237.65C137.608 237.613 137.679 237.577 137.751 237.54C152.044 228.286 154.45 215.324 157.466 196.412C161.093 168.945 164.397 149.005 164.397 148.858C166.192 137.915 168.131 124.769 168.06 124.806C167.557 124.916 167.485 125.099 167.018 124.585C166.946 124.512 164.397 138.503 163.032 148.638C163.032 148.748 159.441 172.396 155.24 196.265C152.331 214.626 150.751 227.111 136.854 236.071C136.459 236.328 136.351 236.842 136.602 237.246C136.818 237.613 137.177 237.724 137.536 237.65Z" fill="#431F20"/>
<path fill-rule="evenodd" clip-rule="evenodd" d="M214.06 259.72C214.275 259.647 214.491 259.5 214.598 259.28C224.151 239.046 225.803 216.022 219.231 194.393C214.491 183.34 214.096 154.844 213.988 154.734C213.988 154.734 208.278 145.591 210.648 134.721C210.72 134.391 210.541 134.207 210.541 134.207C209.356 135.272 210.002 134.464 209.463 134.244C209.463 134.244 209.535 134.391 209.499 134.611C207.452 146.986 212.264 154.183 212.264 154.22C212.228 154.33 212.731 185.47 217.651 194.907C224.115 216.132 222.499 238.716 213.09 258.545C212.875 258.986 213.054 259.5 213.485 259.684C213.665 259.757 213.88 259.757 214.06 259.72Z" fill="#431F20"/>
<path fill-rule="evenodd" clip-rule="evenodd" d="M171.794 131.893C171.722 131.929 171.686 131.929 171.614 131.966C171.183 132.04 170.752 131.746 170.681 131.305C170.25 128.845 169.962 128.478 170.645 125.577C171.076 125.099 172.153 125.393 172.225 125.981C171.578 128.661 171.901 128.808 172.261 131.011C172.332 131.342 172.117 131.709 171.794 131.893Z" fill="#431F20"/>
<path fill-rule="evenodd" clip-rule="evenodd" d="M195.532 144.855C187.955 148.38 178.905 145.994 173.95 139.127C173.698 138.76 173.77 138.245 174.129 137.952C174.488 137.658 174.991 137.768 175.278 138.135C179.767 144.341 187.991 146.544 194.886 143.313C198.584 141.587 201.673 137.621 203.253 132.407C204.007 132.554 204.545 132.701 205.443 132.847C205.443 132.884 210.614 134.059 210.614 134.096C210.435 134.683 210.399 134.904 210.255 135.455C210.183 135.712 204.509 133.876 204.474 133.986C201.242 140.192 199.123 143.166 195.532 144.855Z" fill="#431F20"/>
<path fill-rule="evenodd" clip-rule="evenodd" d="M193.629 140.559C190.362 142.101 186.555 142.174 183.18 140.816C179.984 139.53 177.542 137.07 176.285 133.875C174.92 130.46 175.172 127.302 175.423 125.833C172.119 126.641 171.437 127.045 166.481 126.09C166.589 125.319 166.768 125.723 166.984 124.548C170.611 125.356 171.473 125.026 176.5 124.401C176.787 124.365 177.111 124.328 177.326 124.254C177.434 124.438 177.182 125.209 177.111 125.429C177.111 125.466 176.141 129.175 177.757 133.251C178.834 136.005 180.989 138.135 183.754 139.237C186.699 140.448 190.038 140.338 192.911 139.016C195.892 137.621 198.01 133.141 198.98 129.946C199.483 130.056 198.98 129.946 200.309 130.754C201.566 131.415 203.864 132.59 204.008 132.627C204.079 132.627 202.93 133.251 202.751 133.692C202.751 133.728 200.093 132.48 200.057 132.517C198.872 135.711 196.718 139.127 193.629 140.559Z" fill="#431F20"/>
<path fill-rule="evenodd" clip-rule="evenodd" d="M189.211 352.919C193.125 352.845 196.213 349.577 196.141 345.574C196.07 341.572 192.874 338.414 188.959 338.487C185.045 338.561 181.957 341.829 182.029 345.831C182.1 349.797 185.332 352.992 189.211 352.919Z" fill="#FEFEFE"/>
<path fill-rule="evenodd" clip-rule="evenodd" d="M171.472 353.213C175.387 353.14 178.475 349.872 178.403 345.869C178.331 341.867 175.135 338.709 171.221 338.782C167.307 338.855 164.218 342.124 164.29 346.126C164.326 350.129 167.558 353.287 171.472 353.213Z" fill="#FEFEFE"/>
<path fill-rule="evenodd" clip-rule="evenodd" d="M153.694 353.543C157.608 353.469 160.697 350.201 160.625 346.198C160.553 342.196 157.357 339.038 153.443 339.111C149.564 339.185 146.44 342.453 146.512 346.455C146.584 350.421 149.816 353.579 153.694 353.543Z" fill="#FEFEFE"/>
<path fill-rule="evenodd" clip-rule="evenodd" d="M181.061 306.686C181.061 306.686 180.845 310.615 180.199 311.827C179.804 312.598 177.973 313.479 177.973 313.479L173.484 316.6C173.484 316.6 161.31 320.566 157.288 321.998C154.128 323.1 152.297 324.275 151.291 326.148C149.388 329.783 150.753 334.3 154.308 336.209C155.852 337.054 158.222 337.054 158.222 337.054C169.713 337.201 204.079 336.173 204.079 336.173C205.803 335.916 207.383 334.887 208.245 333.198C208.82 332.133 209.43 330.114 209.286 328.975L208.209 310.174L181.061 306.686Z" fill="#FFAA00"/>
<path fill-rule="evenodd" clip-rule="evenodd" d="M207.488 356.517C211.403 356.48 214.527 353.212 214.491 349.246C214.455 345.243 211.259 342.049 207.381 342.085C203.466 342.122 200.342 345.39 200.378 349.356C200.414 353.322 203.574 356.517 207.488 356.517Z" fill="#FEFEFE"/>
<path fill-rule="evenodd" clip-rule="evenodd" d="M188.6 348.843C188.636 348.733 188.708 348.659 188.815 348.549C189.031 348.329 189.318 348.182 189.641 348.182C189.964 348.182 190.252 348.292 190.503 348.549C190.719 348.769 190.862 349.1 190.862 349.394C190.862 349.724 190.754 350.018 190.503 350.275C190.288 350.495 189.964 350.642 189.677 350.642C189.031 350.642 188.492 350.091 188.492 349.43C188.492 349.247 188.528 349.026 188.6 348.843ZM192.37 350.899C192.622 350.458 192.729 349.944 192.729 349.43C192.729 348.586 192.406 347.815 191.832 347.227C191.257 346.639 190.467 346.346 189.677 346.346C188.851 346.346 188.097 346.676 187.522 347.264C186.948 347.851 186.661 348.659 186.661 349.467C186.661 350.312 186.984 351.083 187.558 351.67C188.133 352.258 188.887 352.588 189.713 352.552C190.539 352.552 191.293 352.221 191.868 351.634C192.047 351.376 192.227 351.156 192.37 350.899Z" fill="#391D1D"/>
<path fill-rule="evenodd" clip-rule="evenodd" d="M170.859 349.025C171.075 348.658 171.434 348.364 171.901 348.364C172.547 348.364 173.086 348.915 173.086 349.576C173.086 350.237 172.547 350.788 171.901 350.788C171.578 350.788 171.29 350.678 171.039 350.421C170.823 350.201 170.68 349.87 170.68 349.576C170.716 349.393 170.788 349.172 170.859 349.025ZM174.594 351.045C174.809 350.604 174.953 350.09 174.953 349.576C174.953 347.85 173.553 346.492 171.865 346.492C170.177 346.528 168.848 347.924 168.848 349.65C168.848 350.494 169.172 351.265 169.746 351.853C170.321 352.441 171.111 352.734 171.901 352.734C173.086 352.698 174.091 352 174.594 351.045Z" fill="#391D1D"/>
<path fill-rule="evenodd" clip-rule="evenodd" d="M152.942 348.989C152.978 348.879 153.049 348.806 153.157 348.696C153.373 348.475 153.66 348.328 153.983 348.328C154.629 348.328 155.168 348.879 155.168 349.54C155.168 349.871 155.06 350.164 154.809 350.421C154.593 350.642 154.27 350.789 153.983 350.789C153.66 350.789 153.373 350.678 153.121 350.421C152.906 350.201 152.762 349.871 152.762 349.577C152.798 349.393 152.87 349.173 152.942 348.989ZM156.712 351.009C156.964 350.568 157.071 350.054 157.071 349.54C157.071 347.814 155.671 346.456 154.019 346.456C153.193 346.456 152.439 346.786 151.864 347.374C151.29 347.961 151.002 348.769 151.002 349.577C151.002 350.421 151.326 351.193 151.9 351.78C152.475 352.368 153.229 352.698 154.055 352.661C154.881 352.661 155.635 352.331 156.209 351.743C156.389 351.523 156.569 351.303 156.712 351.009Z" fill="#391D1D"/>
<path fill-rule="evenodd" clip-rule="evenodd" d="M189.713 356.664C193.627 356.627 196.751 353.359 196.716 349.393C196.68 345.39 193.484 342.196 189.605 342.232C185.691 342.269 182.567 345.537 182.603 349.503C182.639 353.469 185.835 356.7 189.713 356.664Z" fill="#FEFEFE"/>
<path fill-rule="evenodd" clip-rule="evenodd" d="M154.057 356.774C157.971 356.737 161.095 353.469 161.059 349.503C161.023 345.5 157.827 342.305 153.949 342.342C150.035 342.379 146.911 345.647 146.946 349.613C146.982 353.616 150.178 356.81 154.057 356.774Z" fill="#FEFEFE"/>
<path fill-rule="evenodd" clip-rule="evenodd" d="M171.973 356.811C175.887 356.774 179.011 353.506 178.975 349.54C178.939 345.537 175.743 342.342 171.865 342.379C167.951 342.416 164.827 345.684 164.862 349.65C164.898 353.616 168.094 356.847 171.973 356.811Z" fill="#FEFEFE"/>
<path fill-rule="evenodd" clip-rule="evenodd" d="M180.558 320.529C185.262 323.394 187.74 317.739 178.008 313.552C175.458 312.451 172.514 315.352 173.591 315.976C176.823 317.812 179.552 319.905 180.558 320.529Z" fill="#FEFEFE"/>
<path fill-rule="evenodd" clip-rule="evenodd" d="M180.664 306.428C180.664 306.428 188.385 305.29 194.095 313.662C194.669 314.507 195.316 315.314 196.249 315.829C198.871 317.261 202.103 316.233 203.503 313.552C203.503 313.552 206.268 309.182 210.47 309.88L211.583 291.703L180.197 289.72L180.664 306.428Z" fill="#FEFEFE"/>
<path fill-rule="evenodd" clip-rule="evenodd" d="M180.702 301.874L193.199 303.269C194.636 303.416 195.928 302.388 196.108 300.919C196.251 299.45 195.21 298.129 193.774 297.982L180.559 296.476L180.702 301.874Z" fill="#FFAA00"/>
<path fill-rule="evenodd" clip-rule="evenodd" d="M202.067 346.417C202.354 345.903 202.677 345.389 203.108 344.948C204.257 343.737 205.801 343.076 207.417 343.076C210.793 343.039 213.558 345.83 213.594 349.282C213.63 352.733 210.901 355.561 207.525 355.598C205.873 355.598 204.329 354.973 203.18 353.798C201.995 352.623 201.348 351.044 201.348 349.392C201.348 348.364 201.6 347.335 202.067 346.417ZM214.563 353.211C215.174 352.036 215.497 350.714 215.497 349.318C215.461 344.802 211.834 341.166 207.453 341.203C205.334 341.24 203.323 342.084 201.815 343.627C200.307 345.169 199.517 347.225 199.517 349.428C199.517 351.595 200.379 353.651 201.887 355.194C203.395 356.736 205.406 357.544 207.561 357.544C209.68 357.544 211.691 356.663 213.199 355.12C213.737 354.533 214.204 353.872 214.563 353.211Z" fill="#431F20"/>
<path fill-rule="evenodd" clip-rule="evenodd" d="M206.448 348.805C206.52 348.695 206.556 348.622 206.664 348.511C206.879 348.291 207.166 348.144 207.49 348.144C208.136 348.144 208.675 348.695 208.675 349.356C208.675 350.017 208.136 350.568 207.49 350.568C206.843 350.568 206.305 350.017 206.305 349.356C206.305 349.172 206.34 348.989 206.448 348.805ZM210.183 350.825C210.398 350.384 210.542 349.87 210.542 349.356C210.542 347.63 209.141 346.271 207.49 346.271C206.664 346.271 205.91 346.602 205.335 347.19C204.76 347.777 204.473 348.585 204.473 349.393C204.473 351.119 205.874 352.477 207.526 352.477C208.675 352.477 209.68 351.816 210.183 350.825Z" fill="#431F20"/>
<path fill-rule="evenodd" clip-rule="evenodd" d="M188.674 348.952C188.746 348.842 188.782 348.768 188.889 348.658C189.105 348.438 189.428 348.291 189.715 348.291C190.039 348.291 190.326 348.401 190.577 348.658C190.793 348.878 190.936 349.209 190.936 349.503C190.936 349.833 190.829 350.127 190.577 350.384C190.362 350.604 190.039 350.751 189.751 350.751C189.105 350.751 188.566 350.2 188.566 349.539C188.566 349.319 188.602 349.135 188.674 348.952ZM192.445 350.971C192.696 350.531 192.804 350.017 192.804 349.503C192.804 348.658 192.481 347.887 191.906 347.299C191.331 346.712 190.541 346.418 189.751 346.418C188.925 346.418 188.171 346.748 187.597 347.336C187.022 347.924 186.735 348.731 186.735 349.539C186.735 350.384 187.058 351.155 187.633 351.743C188.207 352.33 188.961 352.661 189.787 352.624C190.613 352.624 191.367 352.293 191.942 351.706C192.121 351.485 192.301 351.228 192.445 350.971Z" fill="#431F20"/>
<path fill-rule="evenodd" clip-rule="evenodd" d="M170.932 349.099C171.147 348.732 171.506 348.438 171.973 348.438C172.619 348.438 173.158 348.989 173.158 349.65C173.158 350.311 172.619 350.862 171.973 350.862C171.65 350.862 171.363 350.752 171.111 350.495C170.896 350.274 170.752 349.944 170.752 349.65C170.788 349.466 170.86 349.283 170.932 349.099ZM174.666 351.119C174.882 350.678 175.025 350.164 175.025 349.65C175.025 347.924 173.625 346.565 171.937 346.565C170.249 346.565 168.921 347.998 168.921 349.723C168.921 350.568 169.244 351.339 169.818 351.927C170.393 352.514 171.183 352.808 171.973 352.808C173.158 352.771 174.164 352.11 174.666 351.119Z" fill="#431F20"/>
<path fill-rule="evenodd" clip-rule="evenodd" d="M153.014 349.099C153.05 348.989 153.122 348.916 153.229 348.805C153.445 348.585 153.732 348.438 154.055 348.438C154.702 348.438 155.24 348.989 155.24 349.65C155.24 349.98 155.133 350.274 154.881 350.531C154.666 350.752 154.343 350.899 154.055 350.899C153.732 350.899 153.445 350.788 153.193 350.531C152.978 350.311 152.834 349.981 152.834 349.687C152.87 349.466 152.942 349.283 153.014 349.099ZM156.784 351.119C157.036 350.678 157.144 350.164 157.144 349.65C157.144 347.924 155.743 346.565 154.091 346.565C153.265 346.565 152.511 346.896 151.937 347.483C151.362 348.071 151.075 348.879 151.075 349.687C151.075 350.531 151.398 351.302 151.972 351.89C152.547 352.478 153.337 352.808 154.127 352.771C154.953 352.771 155.707 352.441 156.282 351.853C156.461 351.633 156.641 351.376 156.784 351.119Z" fill="#431F20"/>
<path fill-rule="evenodd" clip-rule="evenodd" d="M184.328 346.602C185.334 344.619 187.38 343.297 189.715 343.26C193.09 343.224 195.855 346.014 195.891 349.466C195.891 351.155 195.281 352.734 194.132 353.91C192.982 355.121 191.438 355.782 189.822 355.782C186.447 355.819 183.646 353.028 183.646 349.54C183.61 348.512 183.861 347.483 184.328 346.602ZM196.789 353.359C197.399 352.184 197.723 350.862 197.723 349.466C197.687 344.95 194.06 341.314 189.679 341.351C185.262 341.388 181.707 345.096 181.778 349.576C181.814 354.093 185.441 357.729 189.822 357.692C191.941 357.692 193.952 356.811 195.46 355.268C195.999 354.681 196.43 354.02 196.789 353.359Z" fill="#431F20"/>
<path fill-rule="evenodd" clip-rule="evenodd" d="M148.668 346.712C148.955 346.197 149.278 345.683 149.709 345.243C150.858 344.031 152.403 343.37 154.019 343.37C157.394 343.333 160.159 346.124 160.195 349.576C160.195 351.265 159.585 352.844 158.436 354.019C157.286 355.231 155.742 355.892 154.126 355.892C150.751 355.929 147.95 353.138 147.95 349.686C147.95 348.658 148.165 347.63 148.668 346.712ZM161.129 353.468C161.739 352.293 162.062 350.971 162.062 349.576C162.062 347.409 161.201 345.353 159.692 343.811C158.184 342.268 156.173 341.46 154.019 341.46C151.9 341.46 149.889 342.342 148.381 343.884C146.872 345.426 146.082 347.483 146.082 349.686C146.118 354.166 149.745 357.801 154.126 357.765C156.245 357.765 158.256 356.883 159.764 355.304C160.339 354.827 160.77 354.166 161.129 353.468Z" fill="#431F20"/>
<path fill-rule="evenodd" clip-rule="evenodd" d="M166.589 346.75C167.594 344.767 169.641 343.446 171.975 343.409C175.351 343.372 178.152 346.163 178.152 349.615C178.152 351.304 177.541 352.883 176.392 354.058C175.243 355.27 173.699 355.931 172.083 355.931C170.431 355.931 168.887 355.307 167.738 354.131C166.553 352.956 165.907 351.377 165.907 349.725C165.835 348.66 166.122 347.632 166.589 346.75ZM179.05 353.507C179.66 352.332 179.983 351.01 179.983 349.615C179.947 345.098 176.321 341.463 171.939 341.499C167.523 341.536 164.003 345.245 164.039 349.725C164.039 351.891 164.901 353.948 166.409 355.49C167.918 357.032 169.929 357.84 172.083 357.84C174.202 357.804 176.213 356.959 177.721 355.417C178.224 354.829 178.691 354.205 179.05 353.507Z" fill="#431F20"/>
<path fill-rule="evenodd" clip-rule="evenodd" d="M209.141 333.751C209.716 332.649 210.47 330.409 210.29 328.977L209.249 310.249C209.213 309.735 208.782 309.331 208.279 309.368C207.777 309.404 207.382 309.845 207.418 310.359L208.495 329.16C208.603 330.042 208.064 331.878 207.561 332.869C206.879 334.191 205.586 335.146 204.114 335.366C202.57 335.403 169.496 336.394 158.364 336.248C158.328 336.248 156.174 336.211 154.845 335.513C151.757 333.824 150.572 329.895 152.223 326.737C153.049 325.194 154.629 324.093 157.718 323.028C161.704 321.632 173.77 317.703 173.877 317.667C174.38 317.52 174.631 316.969 174.488 316.491C174.344 315.977 173.806 315.72 173.339 315.867C173.231 315.904 161.129 319.87 157.143 321.265C153.588 322.514 151.685 323.836 150.643 325.892C148.525 329.968 150.033 335.072 154.055 337.239C155.779 338.194 158.292 338.194 158.4 338.194C169.784 338.341 203.934 337.349 204.293 337.312C204.329 337.312 204.365 337.312 204.401 337.312C206.376 336.945 208.172 335.623 209.141 333.751Z" fill="#431F20"/>
<path fill-rule="evenodd" clip-rule="evenodd" d="M174.523 315.462C174.702 315.242 175.061 314.911 175.564 314.654C175.995 314.434 176.857 314.14 177.719 314.508C182.387 316.527 183.752 318.731 183.823 319.685C183.859 320.126 183.644 320.236 183.572 320.31C183.177 320.567 182.243 320.493 181.094 319.795C180.771 319.612 180.268 319.245 179.658 318.804C178.437 317.959 176.569 316.637 174.523 315.462ZM185.439 321.007C185.655 320.603 185.763 320.089 185.727 319.538C185.547 317.188 182.854 314.618 178.509 312.745C176.139 311.717 173.517 313.332 172.763 314.838C172.296 315.793 172.691 316.564 173.266 316.894C175.384 318.106 177.252 319.428 178.652 320.383C179.335 320.86 179.837 321.228 180.196 321.411C181.848 322.403 183.5 322.586 184.613 321.889C184.937 321.705 185.224 321.374 185.439 321.007Z" fill="#431F20"/>
<path fill-rule="evenodd" clip-rule="evenodd" d="M181.095 312.377C181.777 311.055 182.028 307.53 182.064 306.832C182.1 306.318 181.705 305.877 181.202 305.841C180.7 305.804 180.269 306.208 180.233 306.722C180.161 308.264 179.838 310.798 179.479 311.496C179.335 311.753 178.473 312.34 177.647 312.744C177.18 312.965 177.001 313.552 177.216 313.993C177.432 314.47 177.97 314.654 178.437 314.434C178.94 314.213 180.592 313.332 181.095 312.377Z" fill="#431F20"/>
<path fill-rule="evenodd" clip-rule="evenodd" d="M210.687 292.659L209.718 308.927C205.552 308.89 202.967 312.929 202.859 313.113C201.674 315.39 198.981 316.234 196.826 315.059C196.036 314.619 195.497 313.921 194.994 313.186C190.182 306.173 184.078 305.475 181.708 305.512L181.277 290.786L210.687 292.659ZM211.37 310.396C211.441 310.285 211.477 310.139 211.477 309.992L212.591 291.851C212.626 291.337 212.231 290.897 211.729 290.86L180.307 288.877C180.056 288.877 179.804 288.95 179.589 289.134C179.409 289.318 179.302 289.575 179.302 289.832L179.768 306.54C179.768 306.797 179.912 307.054 180.092 307.238C180.307 307.421 180.559 307.495 180.81 307.458C181.097 307.421 188.064 306.54 193.378 314.288C193.953 315.169 194.743 316.124 195.856 316.748C198.909 318.401 202.751 317.226 204.367 314.068C204.367 314.104 206.809 310.285 210.364 310.91C210.615 310.946 210.903 310.873 211.082 310.726C211.226 310.616 211.298 310.506 211.37 310.396Z" fill="#431F20"/>
<path fill-rule="evenodd" clip-rule="evenodd" d="M196.716 302.389C196.932 301.985 197.04 301.581 197.111 301.104C197.219 300.149 196.932 299.195 196.357 298.46C195.747 297.726 194.921 297.248 193.987 297.138L180.772 295.633C180.27 295.559 179.803 295.963 179.767 296.477C179.731 296.991 180.09 297.469 180.593 297.505L193.808 299.011C194.275 299.048 194.67 299.305 194.957 299.635C195.244 300.003 195.388 300.443 195.316 300.884C195.28 301.324 195.029 301.728 194.705 302.022C194.346 302.316 193.915 302.426 193.449 302.389L180.952 300.957C180.449 300.884 179.982 301.288 179.946 301.802C179.875 302.316 180.27 302.793 180.772 302.83L193.269 304.262C194.203 304.372 195.136 304.115 195.891 303.491C196.178 303.197 196.465 302.83 196.716 302.389Z" fill="#431F20"/>
<path fill-rule="evenodd" clip-rule="evenodd" d="M124.609 360.409H151.793C152.332 360.409 152.763 359.969 152.763 359.418C152.763 358.867 152.332 358.426 151.793 358.426H124.609C124.07 358.426 123.639 358.867 123.639 359.418C123.639 359.969 124.07 360.409 124.609 360.409Z" fill="#431F20"/>
<path fill-rule="evenodd" clip-rule="evenodd" d="M156.714 360.409H168.456C168.995 360.409 169.426 359.969 169.426 359.418C169.426 358.867 168.995 358.426 168.456 358.426H156.714C156.175 358.426 155.744 358.867 155.744 359.418C155.744 359.969 156.175 360.409 156.714 360.409Z" fill="#431F20"/>
<path fill-rule="evenodd" clip-rule="evenodd" d="M172.801 360.409H180.055C180.593 360.409 181.024 359.969 181.024 359.418C181.024 358.867 180.593 358.426 180.055 358.426H172.801C172.262 358.426 171.831 358.867 171.831 359.418C171.831 359.969 172.262 360.409 172.801 360.409Z" fill="#431F20"/>
<path fill-rule="evenodd" clip-rule="evenodd" d="M201.493 360.409H233.884C234.423 360.409 234.854 359.969 234.854 359.418C234.854 358.867 234.423 358.426 233.884 358.426H201.493C200.954 358.426 200.523 358.867 200.523 359.418C200.523 359.969 200.954 360.409 201.493 360.409Z" fill="#431F20"/>
<path fill-rule="evenodd" clip-rule="evenodd" d="M265.413 360.63H297.804C298.343 360.63 298.773 360.189 298.773 359.638C298.773 359.088 298.343 358.647 297.804 358.647H265.413C264.874 358.647 264.443 359.088 264.443 359.638C264.443 360.189 264.874 360.63 265.413 360.63Z" fill="#431F20"/>
<path d="M41.2623 361.352H79.1057C79.4074 361.352 79.6932 361.246 79.8997 361.073C80.1061 360.901 80.2332 360.661 80.2332 360.409C80.2332 360.157 80.122 359.918 79.8997 359.745C79.6932 359.572 79.4074 359.466 79.1057 359.466H41.2623C40.9605 359.466 40.6747 359.572 40.4682 359.745C40.2618 359.918 40.1348 360.157 40.1348 360.409C40.1348 360.661 40.2459 360.901 40.4682 361.073C40.6906 361.246 40.9605 361.352 41.2623 361.352Z" fill="#3A0003"/>
<path fill-rule="evenodd" clip-rule="evenodd" d="M290.482 335.635C288.952 338.628 269.333 338.295 268.111 336.329C267.538 339.435 267.162 341.943 267.068 343.273C266.616 349.837 292.097 350.265 291.686 343.064C291.738 341.82 291.276 339.084 290.482 335.635Z" fill="white" stroke="black" stroke-width="1.8653" stroke-miterlimit="10"/>
<path fill-rule="evenodd" clip-rule="evenodd" d="M286.696 321.85L286.602 321.898C285.739 323.332 277.501 324.985 271.093 322.848C269.905 327.54 268.862 332.385 268.145 336.28C269.358 338.246 288.986 338.579 290.515 335.586L286.696 321.85Z" fill="#25B6E5" stroke="black" stroke-width="1.8653" stroke-miterlimit="10"/>
<path fill-rule="evenodd" clip-rule="evenodd" d="M278.511 305.578C276.246 305.521 273.444 313.681 271.179 322.525L271.094 322.858C277.502 324.995 285.731 323.342 286.603 321.908L286.654 321.737C283.92 313.282 280.681 305.626 278.511 305.578Z" fill="#FEFEFE" stroke="black" stroke-width="1.8653" stroke-miterlimit="10"/>
</g>
<defs>
<clipPath id="clip0">
<rect width="374" height="361" fill="white" transform="matrix(-1 0 0 1 343 0.578125)"/>
</clipPath>
</defs>
</svg>
