<svg viewBox="0 0 175 318" fill="none" xmlns="http://www.w3.org/2000/svg">
<path d="M219.137 114.573L84.6309 208.65L172.137 298.684L273.693 227.653L219.137 114.573Z" fill="#FFB244"/>
<path d="M170.485 23.0495C164.515 15.2698 155.261 8.9714 145.539 10.1054C143.09 10.3784 140.781 11.1285 138.612 12.2139C145.386 14.0054 151.476 18.8682 155.838 24.5555C169.497 42.3687 170.026 67.9735 160.967 88.5207C156.625 98.3754 150.317 107.204 142.927 114.966C139.802 118.256 134.14 124.713 128.507 129.084C130.012 130.961 131.861 132.164 134.237 131.991C141.712 131.42 152.688 118.557 157.551 113.428C164.941 105.666 171.281 96.8146 175.591 86.9825C184.672 66.4675 184.176 40.8401 170.485 23.0495Z" fill="#0888D9"/>
<path d="M134.973 117.458C131.792 107.007 129.099 96.3603 127.862 85.4624C125.784 67.1832 127.96 47.8484 137.497 32.1038C142.203 24.3475 149.335 17.2465 158.338 16.1831C160.21 15.9775 162.067 16.0234 163.885 16.2884C158.594 12.0189 152.171 9.35732 145.531 10.1605C136.529 11.2239 129.364 18.3475 124.691 26.0812C115.154 41.8258 112.977 61.1606 115.055 79.4398C116.292 90.3377 118.986 100.985 122.166 111.435C123.84 116.986 126.068 132.665 134.261 132.023C135.666 131.904 137.172 131.38 138.79 130.536C136.874 125.874 135.855 120.298 134.973 117.458Z" fill="#6AD1FF"/>
<path d="M15.7361 131.285C10.4759 123.009 7.73402 112.156 12.1338 103.413C13.2305 101.206 14.7268 99.2951 16.4905 97.6294C15.8496 104.607 18.3285 111.996 22.1746 118.044C34.2218 136.984 58.0921 146.263 80.4999 144.802C91.2461 144.104 101.703 141.207 111.529 136.927C115.691 135.121 123.698 132.017 129.737 128.225C130.983 130.282 131.479 132.432 130.501 134.604C127.401 141.43 111.554 147.328 105.068 150.136C95.242 154.416 84.7528 157.335 74.0388 158.011C51.6857 159.482 27.7833 150.226 15.7361 131.285Z" fill="#0888D9"/>
<path d="M116.597 130.309C107.871 123.737 98.7942 117.555 88.9816 112.655C72.5242 104.433 53.6158 99.8455 35.5552 103.403C26.6554 105.163 17.5387 109.427 13.4519 117.519C12.6164 119.207 12.0227 120.967 11.6481 122.765C9.45239 116.331 9.15535 109.385 12.1874 103.423C16.2743 95.3315 25.4232 91.0451 34.2907 89.308C52.3514 85.7502 71.2598 90.3376 87.7172 98.5598C97.5297 103.46 106.607 109.642 115.333 116.214C119.973 119.69 133.936 127.161 130.523 134.637C129.929 135.916 128.92 137.15 127.572 138.381C123.883 134.96 118.994 132.089 116.597 130.309Z" fill="#6AD1FF"/>
<path d="M227.035 109.049L76.7311 214.175L54.0352 185.638L208.014 77.9418L227.035 109.049Z" fill="#FFB244"/>
<path d="M139.28 126.016L122.773 137.561L214.663 268.94L231.17 257.395L139.28 126.016Z" fill="#6AD1FF"/>
<path d="M121.767 118.822L122.057 118.619C126.539 115.485 132.698 116.602 135.809 121.052L139.26 125.984L122.753 137.53L119.302 132.597C116.191 128.148 117.286 121.957 121.767 118.822Z" fill="#056099"/>
<path opacity="0.1" d="M241.89 161.795L219.137 114.573L84.6309 208.65L86.8765 210.968L241.89 161.795Z" fill="black"/>
</svg>
