<svg viewBox="0 0 292 4478" fill="none" xmlns="http://www.w3.org/2000/svg">
<path d="M234.501 3.57764C252.001 17.2443 287.201 65.6776 288.001 150.078C289.001 255.578 188.501 428.078 111.001 478.078C33.5009 528.078 -0.999146 659.078 8.50085 737.578C18.0009 816.078 208.204 818.486 215.5 898.078C226.5 1018.08 63.5003 956.078 25.0003 1018.08C14.0007 1040.08 -4.69871 1104.08 8.50085 1184.08C25.0003 1284.08 216 1337.58 223 1499.58C230 1661.58 24.5 1750.58 26 1862.08C27.5 1973.58 223 2016.08 223 2176.08C223 2336.08 14 2474.08 19.5 2623.58C25 2773.08 271.5 2880.58 271.5 3065.58C271.5 3250.58 19.5 3394.58 20.5 3540.58C21.5 3686.58 269.5 3698.08 263 3865.08C256.5 4032.08 13.5 4112.58 13.5 4284.08C13.5 4385.08 60.9936 4474.08 139 4474.08C164.5 4474.08 242.5 4460.08 242.5 4363.58" stroke="#D2F0FF" stroke-width="7" stroke-dasharray="15 15"/>
</svg>
