<svg width="1920" height="3530" viewBox="0 0 1920 3530" fill="none" xmlns="http://www.w3.org/2000/svg">
<path d="M1476.82 317.184C1556.42 334.395 1741.44 444.115 1752.2 599.015C1771.56 1046.5 1239.67 1105.9 945.228 1004.05C702.211 919.991 462.678 794.348 385.228 953.551C345.696 1034.81 426.109 1131.86 512.673 1150.28C609.295 1170.84 765.928 1112.48 792.047 1189.46C826.413 1254.76 851.864 1388.32 999.713 1337.4C1096.89 1303.92 1188.81 1392.64 1227.71 1451.4C1274.71 1522.4 1197.43 1567.53 1047.73 1545.55C944.659 1530.42 930.112 1683.01 711.285 1665.44C666.363 1657.97 563.751 1647.51 512.674 1665.44C448.827 1687.85 314.587 1836.54 426.11 1935.68C537.632 2034.81 829.781 2049.26 967.676 2036.87C1105.57 2024.48 1343.07 2005.89 1400.9 2133.94C1458.72 2261.98 1454.53 2372.73 1328.23 2490.05C1232.53 2578.95 1067.18 2530.03 977.046 2516.93C540.523 2453.48 374.627 2846.79 408.228 3001.55C460.229 3241.05 678.729 3425.05 946.728 3300.55L1289.73 3099.05" stroke="#D2F0FF" stroke-width="10" stroke-dasharray="30 30"/>
</svg>
