<svg width="689" height="2709" viewBox="0 0 689 2709" fill="none" xmlns="http://www.w3.org/2000/svg">
<path d="M589 2561C553.833 2606.33 450.5 2698.3 318.5 2703.5C153.5 2710 7.49995 2599.5 43.9999 2459.5C80.4999 2319.5 251 2301 364 2292C477 2283 584 2143.5 548.5 2010C513 1876.5 349 1819.5 242 1798C135 1776.5 0.498666 1728.5 5.49867 1605C10.4987 1481.5 96.9989 1464.5 160.499 1426.5C223.999 1388.5 357.999 1372 467.499 1368C555.099 1364.8 626.999 1315.5 655.999 1225C720.93 1022.37 610.999 902.113 537.499 881.5C401.999 843.5 313.999 900 186.999 854C59.9994 808 -22.2305 700.5 27.4991 523.999C62.9999 397.999 388.334 406.442 487.499 390.499C615 370 684 320 684 124C684 80.1709 641 23.5 602.5 5.5" stroke="#D2F0FF" stroke-width="10" stroke-dasharray="30 30"/>
</svg>
