<svg viewBox="0 0 362 356" fill="none" xmlns="http://www.w3.org/2000/svg">
<path fill-rule="evenodd" clip-rule="evenodd" d="M95.4224 309.029C95.4224 309.029 92.3795 310.43 91.2384 310.43C90.4977 310.43 89.0963 309.389 89.0963 309.389L84.9523 307.187C84.9523 307.187 77.0647 299.48 74.3821 296.977C72.2801 295.015 70.6586 294.055 68.8368 294.055C65.3535 294.055 62.5508 296.877 62.5508 300.361C62.5508 301.882 63.5117 303.684 63.5117 303.684C68.056 312.512 82.7502 338.337 82.7502 338.337C83.6311 339.558 85.0525 340.339 86.674 340.339C87.695 340.339 89.4567 340.019 90.2374 339.478L103.831 331.21L95.4224 309.029Z" fill="#C2BC8B"/>
<path fill-rule="evenodd" clip-rule="evenodd" d="M152.295 157.243C153.196 155.101 153.396 152.698 151.214 149.355L151.855 148.915C146.33 152.498 137.841 153.719 131.215 151.117C113.018 143.93 117.202 118.666 110.455 116.203L112.777 118.105C125.77 117.024 136.881 100.048 141.845 104.392C143.207 105.573 145.048 106.694 145.349 115.963C145.409 117.785 147.751 118.586 149.112 116.383C150.233 114.562 152.275 113.481 154.478 113.481C158.181 113.481 161.184 116.764 161.184 120.788C161.184 121.468 161.104 122.109 160.944 122.729C160.944 122.729 160.103 127.034 160.203 128.475C160.303 129.916 161.404 131.058 162.405 131.138L162.305 131.578C162.305 137.984 167.23 145.011 170.273 142.348C170.273 142.348 178.381 150.897 166.99 158.804C157.861 165.11 152.295 157.243 152.295 157.243Z" fill="#FED889"/>
<path fill-rule="evenodd" clip-rule="evenodd" d="M180.884 251.894C182.005 251.414 183.246 251.153 184.547 251.153C189.752 251.153 193.956 255.337 193.956 260.502C193.956 264.446 191.494 267.809 188.031 269.191L158.202 281.623C157.121 282.043 155.96 282.283 154.719 282.283C149.514 282.283 145.31 278.099 145.31 272.934C145.31 269.491 147.191 266.468 149.994 264.866L180.884 251.894Z" fill="#40A4CE"/>
<path fill-rule="evenodd" clip-rule="evenodd" d="M117.062 301.401L183.085 271.032C184.206 270.552 185.447 270.292 186.749 270.292C191.954 270.292 196.158 274.476 196.158 279.64C196.158 283.584 193.695 286.948 190.232 288.329L124.549 318.498L117.062 301.401Z" fill="#93C8E3"/>
<path fill-rule="evenodd" clip-rule="evenodd" d="M179.084 217.2C173.638 220.243 163.328 236.519 163.328 236.519L141.567 246.108C138.805 248.23 136.522 251.133 136.522 254.877C136.522 260.482 141.067 265.027 146.672 265.027C147.994 265.027 149.255 264.766 150.416 264.306L210.954 239.062C218.181 235.298 223.126 226.129 223.126 217.401C223.126 215.339 222.846 213.337 222.325 211.455C222.365 211.475 188.613 211.875 179.084 217.2Z" fill="#93C8E3"/>
<path fill-rule="evenodd" clip-rule="evenodd" d="M68.9571 348.927C70.5587 351.89 74.2623 352.991 77.2251 351.39C80.188 349.788 81.2891 346.084 79.6875 343.122C78.086 340.159 74.3824 339.058 71.4195 340.659C68.4366 342.261 67.3556 345.964 68.9571 348.927Z" fill="#FEFEFE"/>
<path fill-rule="evenodd" clip-rule="evenodd" d="M66.9934 331.491C67.0935 331.491 67.1936 331.511 67.2937 331.531C67.5539 331.611 67.7741 331.791 67.9143 332.031C68.0344 332.271 68.0744 332.552 67.9944 332.812C67.9143 333.072 67.7341 333.292 67.4939 333.433C67.2537 333.573 66.9734 333.593 66.7131 333.513C66.4529 333.433 66.2326 333.252 66.0925 333.012C65.8122 332.512 66.0124 331.891 66.5129 331.611C66.653 331.531 66.8333 331.491 66.9934 331.491ZM67.0134 335.154C67.4538 335.154 67.8742 335.054 68.2546 334.834C68.8752 334.494 69.3156 333.953 69.5158 333.272C69.716 332.592 69.6359 331.891 69.3156 331.271C68.9753 330.65 68.4147 330.209 67.7541 330.009C67.0734 329.809 66.3728 329.889 65.7522 330.23C65.1316 330.57 64.6912 331.11 64.491 331.791C64.2908 332.472 64.3708 333.172 64.6911 333.793C65.0315 334.414 65.592 334.874 66.2526 335.054C66.4929 335.114 66.7531 335.154 67.0134 335.154Z" fill="#391D1D"/>
<path fill-rule="evenodd" clip-rule="evenodd" d="M59.6877 318.018C60.0481 318.018 60.4084 318.218 60.5886 318.558C60.8689 319.059 60.6687 319.679 60.1682 319.96C59.6678 320.22 59.0471 320.04 58.7669 319.539C58.6467 319.299 58.6067 319.019 58.6868 318.758C58.7668 318.498 58.947 318.278 59.1872 318.138C59.3674 318.058 59.5276 318.018 59.6877 318.018ZM59.7078 321.681C60.1282 321.681 60.5486 321.581 60.949 321.361C62.2302 320.68 62.6906 319.079 62.01 317.797C61.3093 316.516 59.7078 316.056 58.4465 316.736C57.8259 317.077 57.3855 317.617 57.1853 318.298C56.9851 318.979 57.0652 319.679 57.4056 320.3C57.866 321.181 58.7669 321.681 59.7078 321.681Z" fill="#391D1D"/>
<path fill-rule="evenodd" clip-rule="evenodd" d="M52.4412 304.344C52.5413 304.344 52.6413 304.365 52.7414 304.385C53.0017 304.465 53.2219 304.645 53.362 304.885C53.6423 305.385 53.4421 306.006 52.9416 306.286C52.7014 306.406 52.4212 306.447 52.1609 306.366C51.9007 306.286 51.6805 306.106 51.5403 305.866C51.4202 305.626 51.3802 305.345 51.4602 305.085C51.5403 304.825 51.7205 304.605 51.9607 304.465C52.1009 304.384 52.281 304.344 52.4412 304.344ZM52.4412 308.008C52.8816 308.008 53.302 307.908 53.6823 307.688C54.9636 306.987 55.424 305.406 54.7434 304.124C54.403 303.504 53.8625 303.063 53.1819 302.863C52.5012 302.663 51.8005 302.743 51.1799 303.063C50.5593 303.404 50.1189 303.944 49.9187 304.625C49.7185 305.305 49.7986 306.006 50.1189 306.627C50.4592 307.247 50.9998 307.688 51.6804 307.888C51.9407 307.968 52.2009 308.008 52.4412 308.008Z" fill="#391D1D"/>
<path fill-rule="evenodd" clip-rule="evenodd" d="M61.6299 335.434C63.2314 338.397 66.935 339.498 69.8978 337.897C72.8607 336.295 73.9618 332.592 72.3602 329.629C70.7587 326.666 67.0551 325.565 64.0923 327.166C61.1294 328.768 60.0283 332.471 61.6299 335.434Z" fill="#FEFEFE"/>
<path fill-rule="evenodd" clip-rule="evenodd" d="M47.0742 308.269C48.6757 311.231 52.3793 312.332 55.3422 310.731C58.305 309.129 59.4061 305.426 57.8045 302.463C56.203 299.5 52.4995 298.399 49.5366 300.001C46.5737 301.602 45.4727 305.306 47.0742 308.269Z" fill="#FEFEFE"/>
<path fill-rule="evenodd" clip-rule="evenodd" d="M54.3213 321.941C55.9228 324.904 59.6264 326.005 62.5893 324.404C65.5521 322.802 66.6532 319.099 65.0516 316.136C63.4501 313.173 59.7465 312.072 56.7837 313.673C53.8208 315.275 52.7197 318.979 54.3213 321.941Z" fill="#FEFEFE"/>
<path fill-rule="evenodd" clip-rule="evenodd" d="M169.433 297.798L191.954 304.024L196.939 289.05L192.115 287.588L169.433 297.798Z" fill="#4B9ECA"/>
<path fill-rule="evenodd" clip-rule="evenodd" d="M176.261 145.171C176.321 145.171 176.401 145.171 176.461 145.151C176.882 145.051 177.142 144.611 177.042 144.17C176.441 141.848 175.36 139.726 173.598 137.464C173.318 137.123 172.818 137.063 172.477 137.323C172.137 137.604 172.077 138.104 172.337 138.445C173.959 140.507 174.96 142.448 175.5 144.55C175.58 144.931 175.901 145.171 176.261 145.171Z" fill="#391D1D"/>
<path fill-rule="evenodd" clip-rule="evenodd" d="M160.225 166.151C168.372 166.151 175.519 160.366 177.201 152.378C177.301 151.937 177.021 151.517 176.58 151.437C176.14 151.337 175.72 151.617 175.64 152.058C174.118 159.305 167.632 164.55 160.225 164.55C156.241 164.55 151.777 162.207 148.313 158.304C148.013 157.983 147.512 157.943 147.192 158.244C146.852 158.544 146.832 159.044 147.132 159.385C150.876 163.629 155.78 166.151 160.225 166.151Z" fill="#391D1D"/>
<path fill-rule="evenodd" clip-rule="evenodd" d="M117.704 323.363L123.77 320.861C123.77 320.861 125.632 317.117 121.948 309.41C118.485 302.163 114.681 300.201 114.681 300.201L108.655 303.484L117.704 323.363Z" fill="#93C8E3"/>
<path fill-rule="evenodd" clip-rule="evenodd" d="M205.207 289.49L199.141 286.968C199.141 286.968 195.197 288.289 192.335 296.357C189.652 303.924 190.953 308.008 190.953 308.008L197.52 309.95L205.207 289.49Z" fill="#4B9ECA"/>
<path fill-rule="evenodd" clip-rule="evenodd" d="M148.813 116.603C149.934 114.782 151.976 113.701 154.178 113.701C157.881 113.701 160.884 116.984 160.884 121.008C160.884 121.688 160.804 122.329 160.644 122.95C160.644 122.95 159.803 127.254 159.903 128.695C160.084 131.278 163.527 132.959 163.707 129.035C164.027 122.409 164.107 108.696 164.007 105.933C163.827 101.209 163.086 81.6297 144.048 81.6297C138.543 81.6297 131.176 81.99 126.511 84.9329C116.962 90.9587 113.599 94.9826 110.075 100.628C102.468 112.8 109.375 117.765 110.856 117.945C124.189 119.486 135.98 99.7271 141.546 104.592C142.907 105.773 144.749 106.894 145.049 116.163C145.109 118.005 147.451 118.806 148.813 116.603Z" fill="#BC4520"/>
<path fill-rule="evenodd" clip-rule="evenodd" d="M198.842 149.355C198.842 149.355 228.13 169.555 228.13 208.392C228.13 214.518 223.165 214.518 223.165 214.518L222.404 211.135C220.883 211.035 219.361 210.994 217.82 210.994C195.899 210.994 176.28 220.804 163.107 236.279L164.869 234.157C164.869 234.157 159.203 232.735 162.266 227.831C168.793 217.361 166.23 199.143 158.242 185.15L157.462 185.61C148.413 192.437 137.302 196.761 125.131 197.441L125.351 197.542C124.25 197.702 122.588 192.176 121.247 185.23L119.425 172.898C118.884 167.172 119.145 163.649 120.206 163.489L120.786 163.629C120.786 163.629 137.903 165.15 150.715 156.582L151.216 156.742C153.418 159.225 156.641 160.806 160.224 160.806C166.871 160.806 172.516 155.421 172.236 148.795C172.056 144.27 169.513 141.247 169.513 141.247C175.519 136.983 181.845 122.009 181.565 108.316C182.105 106.674 186.83 106.674 193.216 108.035L205.448 111.719C213.596 114.862 219.241 118.545 218.581 120.527C216.038 128.035 208.511 141.247 198.081 149.796L198.842 149.355Z" fill="#2DB6E0"/>
<path fill-rule="evenodd" clip-rule="evenodd" d="M84.8928 314.134C84.6526 318.859 89.8777 318.498 89.0769 309.429C88.8567 307.047 85.4934 305.946 85.4734 307.027C85.3933 310.17 84.9329 313.093 84.8928 314.134Z" fill="#FEFEFE"/>
<path fill-rule="evenodd" clip-rule="evenodd" d="M95.4419 308.609C95.4419 308.609 99.4057 314.054 95.502 321.741C95.1216 322.502 94.7812 323.323 94.7812 324.244C94.7812 326.806 96.8633 328.888 99.4257 328.888C99.4257 328.888 103.81 329.269 104.971 332.752L118.985 326.386L107.754 301.622L95.4419 308.609Z" fill="#FEFEFE"/>
<path fill-rule="evenodd" clip-rule="evenodd" d="M121.346 185.09C122.688 192.036 124.349 197.582 125.45 197.402C126.872 197.181 126.852 187.792 125.43 178.383C124.009 168.974 121.707 163.108 120.305 163.329C119.244 163.489 118.984 167.012 119.525 172.738L121.346 185.09Z" fill="#216CA4"/>
<path fill-rule="evenodd" clip-rule="evenodd" d="M124.351 172.877C117.184 174.359 109.717 175.039 102.089 174.859C70.659 174.098 43.0724 158.603 26.076 135.301L24.7948 134.881C26.5164 134.26 27.9578 132.859 28.5584 130.977C28.9388 129.776 28.9388 128.535 28.5984 127.393C28.4783 127.013 26.1761 120.447 31.4212 114.761L31.6414 114.241C32.0618 112.839 31.261 111.358 29.8597 110.958C29.1189 110.737 28.3382 110.857 27.7376 111.238C27.1971 111.578 21.7519 116.243 24.5145 121.528L23.6137 118.725C23.6137 118.725 18.869 108.375 18.829 108.335C18.1884 107.314 16.8871 106.894 15.7661 107.394C14.625 107.915 14.0645 109.176 14.4248 110.337C14.4448 110.397 16.8872 115.622 16.9272 115.682L18.4086 119.546C18.3886 119.526 18.3886 119.486 18.3686 119.466C18.3486 119.406 16.8471 116.002 16.8271 115.942C16.2065 114.881 14.8853 114.441 13.7442 114.941C12.6231 115.442 12.0425 116.683 12.3628 117.844C12.3828 117.884 13.8442 121.267 13.8643 121.308C13.8843 121.368 13.9043 121.428 13.9444 121.488L13.8442 121.368C13.8242 121.328 13.8242 121.308 13.8042 121.268C13.7842 121.207 12.3027 117.804 12.2627 117.744C11.6421 116.683 10.3409 116.243 9.17975 116.743C8.03865 117.244 7.47811 118.485 7.79842 119.646C7.81844 119.686 9.27984 123.069 9.29986 123.129C9.31988 123.189 9.33986 123.249 9.3799 123.309L7.95854 119.986C7.93852 119.926 5.73639 114.581 5.69635 114.541C5.07575 113.5 3.77454 113.04 2.61342 113.54C1.49234 114.041 0.911779 115.282 1.23209 116.443C1.25211 116.483 9.15971 134.04 9.15971 134.04C10.1607 135.882 11.8623 137.323 14.0244 137.964C16.5668 138.704 19.1693 138.164 21.1513 136.722L14.9653 138.044C33.2029 166.511 64.7733 185.69 101.108 186.591C109.577 186.791 117.845 185.99 125.792 184.308L124.351 172.877Z" fill="#FED889"/>
<path fill-rule="evenodd" clip-rule="evenodd" d="M193.377 107.895C186.991 106.534 182.266 106.554 181.726 108.175C181.185 109.797 184.849 112.539 190.634 115.202C193.056 116.323 195.859 117.424 198.882 118.425C209.112 121.788 218.001 122.669 218.761 120.387C219.402 118.405 213.776 114.722 205.629 111.579L193.377 107.895Z" fill="#216CA4"/>
<path fill-rule="evenodd" clip-rule="evenodd" d="M190.914 115.082C205.969 78.5666 190.214 48.1773 173.157 30.8005L173.898 29.6194C172.797 31.1208 171.055 32.1018 169.053 32.1618C167.772 32.1818 166.591 31.8215 165.59 31.1809C165.25 30.9606 159.564 26.8767 152.598 30.32L152.037 30.3801C150.556 30.3801 149.374 29.1789 149.374 27.7175C149.374 26.9368 149.715 26.2361 150.255 25.7356C150.736 25.3152 156.802 21.3914 161.106 25.5554L158.663 23.8938C158.663 23.8938 150.035 16.3666 149.995 16.3265C149.194 15.4257 149.154 14.0443 149.955 13.1034C150.776 12.1425 152.157 11.9623 153.178 12.643C153.238 12.683 157.582 16.5268 157.622 16.5668L160.926 19.0892C160.906 19.0692 160.865 19.0492 160.845 19.0292C160.805 18.9891 157.943 16.5868 157.883 16.5468C157.042 15.6459 156.982 14.2446 157.782 13.2836C158.583 12.3427 159.945 12.1425 160.966 12.7831C161.006 12.8032 163.868 15.1854 163.888 15.2055C163.948 15.2455 163.988 15.2855 164.049 15.3256L163.968 15.2055C163.948 15.1854 163.928 15.1654 163.888 15.1454C163.848 15.1054 160.986 12.703 160.926 12.663C160.085 11.7621 160.025 10.3808 160.825 9.39988C161.626 8.43895 162.988 8.25878 164.009 8.8994C164.049 8.91942 166.891 11.3017 166.931 11.3217C166.991 11.3618 167.031 11.4018 167.092 11.4418L164.289 9.11961C164.249 9.07957 159.704 5.43606 159.664 5.39602C158.824 4.49515 158.763 3.09379 159.564 2.13286C160.365 1.17194 161.726 0.971744 162.747 1.63238C162.787 1.6524 177.481 14.2846 177.481 14.2846C178.963 15.766 179.884 17.828 179.884 20.0902C179.884 20.891 179.764 21.6717 179.564 22.3924L179.884 22.4925C206.57 45.1744 216.94 86.2139 202.426 119.726L190.914 115.082Z" fill="#FED889"/>
<path fill-rule="evenodd" clip-rule="evenodd" d="M98.8447 306.827L102.849 316.917C103.309 318.078 104.63 318.658 105.771 318.198C106.913 317.737 107.473 316.416 107.013 315.255L102.789 304.585L98.8447 306.827Z" fill="#C2BC8B"/>
<path fill-rule="evenodd" clip-rule="evenodd" d="M258.599 305.846C259.56 302.623 257.718 299.22 254.495 298.259C251.272 297.298 247.869 299.14 246.908 302.363C245.947 305.586 247.789 308.989 251.012 309.95C254.235 310.911 257.618 309.089 258.599 305.846Z" fill="#FEFEFE"/>
<path fill-rule="evenodd" clip-rule="evenodd" d="M254.215 320.56C255.176 317.337 253.334 313.934 250.111 312.973C246.887 312.012 243.484 313.854 242.523 317.077C241.562 320.3 243.404 323.703 246.627 324.664C249.85 325.625 253.254 323.783 254.215 320.56Z" fill="#FEFEFE"/>
<path fill-rule="evenodd" clip-rule="evenodd" d="M245.287 350.069C246.248 346.845 244.406 343.442 241.183 342.481C237.96 341.52 234.557 343.362 233.596 346.585C232.635 349.808 234.476 353.212 237.7 354.173C240.943 355.134 244.326 353.292 245.287 350.069Z" fill="#FEFEFE"/>
<path fill-rule="evenodd" clip-rule="evenodd" d="M249.85 335.254C250.811 332.031 248.969 328.628 245.746 327.667C242.523 326.706 239.12 328.548 238.159 331.771C237.198 334.994 239.04 338.397 242.263 339.358C245.486 340.339 248.869 338.497 249.85 335.254Z" fill="#FEFEFE"/>
<path fill-rule="evenodd" clip-rule="evenodd" d="M211.653 315.335C211.653 315.335 214.776 316.496 215.597 317.317C216.118 317.838 216.378 319.579 216.378 319.579L217.739 324.064C217.739 324.064 217.859 335.094 217.979 338.758C218.08 341.621 218.54 343.462 219.821 344.744C222.284 347.206 226.267 347.206 228.73 344.744C229.811 343.663 230.411 341.721 230.411 341.721C233.454 332.272 241.322 303.624 241.322 303.624C241.562 302.142 241.102 300.581 239.961 299.44C239.24 298.719 237.759 297.698 236.818 297.538L221.363 293.754L211.653 315.335Z" fill="#928C6A"/>
<path fill-rule="evenodd" clip-rule="evenodd" d="M211.333 315.615C211.333 315.615 212.374 308.969 220.582 306.306C221.403 306.046 222.224 305.706 222.864 305.065C224.666 303.243 224.666 300.321 222.864 298.499C222.864 298.499 220.022 295.136 221.663 291.853L207.249 286.447L197.7 311.872L211.333 315.615Z" fill="#AEAB92"/>
<path fill-rule="evenodd" clip-rule="evenodd" d="M207.649 314.434L211.953 304.484C212.454 303.343 211.933 302.002 210.792 301.522C209.651 301.021 208.33 301.562 207.83 302.703L203.285 313.253L207.649 314.434Z" fill="#928C6A"/>
<path fill-rule="evenodd" clip-rule="evenodd" d="M222.704 319.178C226.208 315.995 222.284 312.572 216.418 319.559C214.877 321.401 216.478 324.544 217.259 323.803C219.541 321.621 221.944 319.879 222.704 319.178Z" fill="#FEFEFE"/>
<path fill-rule="evenodd" clip-rule="evenodd" d="M12.2812 353.431H28.577C29.0174 353.431 29.3777 353.071 29.3777 352.631C29.3777 352.19 29.0174 351.83 28.577 351.83H12.2812C11.8408 351.83 11.4805 352.19 11.4805 352.631C11.4805 353.071 11.8408 353.431 12.2812 353.431Z" fill="#431F20"/>
<path fill-rule="evenodd" clip-rule="evenodd" d="M344.398 353.431H360.694C361.135 353.431 361.495 353.071 361.495 352.631C361.495 352.19 361.135 351.83 360.694 351.83H344.398C343.958 351.83 343.598 352.19 343.598 352.631C343.598 353.071 343.958 353.431 344.398 353.431Z" fill="#431F20"/>
<path fill-rule="evenodd" clip-rule="evenodd" d="M7.13471 352.451H20.868L23.5906 330.229H5.61328L7.13471 352.451Z" fill="#93C8E3"/>
<path fill-rule="evenodd" clip-rule="evenodd" d="M339.252 352.451H352.985L355.708 330.229H337.73L339.252 352.451Z" fill="#93C8E3"/>
<path fill-rule="evenodd" clip-rule="evenodd" d="M20.1488 351.65H7.89703L6.05528 322.082H23.0917L20.1488 351.65ZM7.13628 353.252H20.8696C21.29 353.252 21.6303 352.931 21.6703 352.531L24.7733 321.361C24.7933 321.141 24.7133 320.92 24.5731 320.74C24.413 320.58 24.2128 320.48 23.9725 320.48H5.19441C4.97419 320.48 4.75403 320.58 4.61389 320.74C4.45374 320.9 4.37363 321.121 4.39365 321.341L6.33552 352.511C6.37556 352.931 6.71588 353.252 7.13628 353.252Z" fill="#431F20"/>
<path fill-rule="evenodd" clip-rule="evenodd" d="M352.266 351.65H340.014L338.172 322.082H355.209L352.266 351.65ZM339.253 353.252H352.987C353.407 353.252 353.747 352.931 353.788 352.531L356.89 321.361C356.91 321.141 356.83 320.92 356.69 320.74C356.53 320.58 356.33 320.48 356.09 320.48H337.312C337.091 320.48 336.871 320.58 336.731 320.74C336.571 320.9 336.491 321.121 336.511 321.341L338.453 352.511C338.493 352.931 338.833 353.252 339.253 353.252Z" fill="#431F20"/>
<path fill-rule="evenodd" clip-rule="evenodd" d="M17.5071 350.93C17.9276 350.93 18.2679 350.609 18.3079 350.189L18.6082 346.405C18.6482 345.965 18.3079 345.584 17.8675 345.544C17.4271 345.524 17.0467 345.845 17.0067 346.285L16.7063 350.069C16.6663 350.509 17.0067 350.89 17.4471 350.93C17.4671 350.93 17.4871 350.93 17.5071 350.93Z" fill="#FEFEFE"/>
<path fill-rule="evenodd" clip-rule="evenodd" d="M349.624 350.93C350.045 350.93 350.385 350.609 350.425 350.189L350.725 346.405C350.765 345.965 350.425 345.584 349.985 345.544C349.544 345.524 349.164 345.845 349.124 346.285L348.824 350.069C348.783 350.509 349.124 350.89 349.564 350.93C349.584 350.93 349.604 350.93 349.624 350.93Z" fill="#FEFEFE"/>
<path fill-rule="evenodd" clip-rule="evenodd" d="M18.0066 344.784C18.427 344.784 18.7674 344.463 18.8074 344.043L19.6883 333.212C19.7283 332.772 19.3879 332.392 18.9675 332.352C18.5271 332.312 18.1468 332.652 18.1067 333.092L17.2259 343.923C17.1858 344.363 17.5261 344.744 17.9666 344.784C17.9666 344.784 17.9866 344.784 18.0066 344.784Z" fill="#FEFEFE"/>
<path fill-rule="evenodd" clip-rule="evenodd" d="M350.124 344.784C350.544 344.784 350.885 344.463 350.925 344.043L351.805 333.212C351.845 332.772 351.505 332.392 351.085 332.352C350.644 332.312 350.264 332.652 350.224 333.092L349.343 343.923C349.303 344.363 349.643 344.744 350.084 344.784C350.084 344.784 350.104 344.784 350.124 344.784Z" fill="#FEFEFE"/>
<path fill-rule="evenodd" clip-rule="evenodd" d="M154.66 352.451H168.393L171.116 330.229H153.139L154.66 352.451Z" fill="#93C8E3"/>
<path fill-rule="evenodd" clip-rule="evenodd" d="M167.67 351.65H155.418L153.577 322.081H170.613L167.67 351.65ZM154.658 353.252H168.391C168.811 353.252 169.152 352.931 169.192 352.531L172.295 321.361C172.315 321.141 172.235 320.92 172.095 320.74C171.934 320.58 171.734 320.48 171.494 320.48H152.716C152.496 320.48 152.275 320.58 152.135 320.74C151.995 320.9 151.915 321.121 151.915 321.341L153.857 352.511C153.897 352.931 154.237 353.252 154.658 353.252Z" fill="#431F20"/>
<path fill-rule="evenodd" clip-rule="evenodd" d="M165.029 350.93C165.449 350.93 165.789 350.609 165.829 350.189L166.13 346.405C166.17 345.965 165.829 345.584 165.389 345.544C164.949 345.524 164.568 345.845 164.528 346.285L164.228 350.069C164.188 350.509 164.528 350.89 164.969 350.93C164.989 350.93 165.009 350.93 165.029 350.93Z" fill="#FEFEFE"/>
<path fill-rule="evenodd" clip-rule="evenodd" d="M165.529 344.783C165.949 344.783 166.289 344.463 166.329 344.043L167.21 333.212C167.25 332.772 166.91 332.392 166.469 332.351C166.049 332.311 165.649 332.652 165.609 333.092L164.728 343.923C164.688 344.363 165.028 344.743 165.469 344.783C165.489 344.783 165.509 344.783 165.529 344.783Z" fill="#FEFEFE"/>
<path fill-rule="evenodd" clip-rule="evenodd" d="M202.746 120.567C203.046 120.567 203.346 120.387 203.487 120.087C210.513 103.871 211.995 84.9729 207.711 66.8955C203.467 49.0783 193.897 33.1029 180.725 21.9121C180.384 21.6319 179.884 21.6719 179.604 22.0122C179.323 22.3526 179.363 22.853 179.704 23.1333C206.81 46.1956 216.199 86.6946 202.025 119.446C201.845 119.847 202.045 120.327 202.446 120.507C202.526 120.547 202.626 120.567 202.746 120.567Z" fill="#431F20"/>
<path fill-rule="evenodd" clip-rule="evenodd" d="M191.154 115.142C191.474 115.142 191.774 114.962 191.894 114.641C198.781 97.9253 199.862 81.2893 195.098 65.1737C190.393 49.3185 181.024 37.447 173.977 30.2801C173.677 29.9598 173.156 29.9598 172.856 30.2601C172.536 30.5604 172.536 31.0809 172.836 31.3811C183.767 42.5119 207.389 72.8612 190.413 114.001C190.253 114.401 190.433 114.882 190.853 115.042C190.954 115.122 191.054 115.142 191.154 115.142Z" fill="#431F20"/>
<path fill-rule="evenodd" clip-rule="evenodd" d="M124.267 164.61C129.953 164.61 141.764 163.749 151.374 157.323C151.734 157.082 151.834 156.582 151.594 156.222C151.354 155.861 150.853 155.761 150.493 156.001C138.081 164.289 121.245 162.928 121.064 162.908C120.624 162.868 120.244 163.188 120.204 163.629C120.164 164.069 120.484 164.449 120.924 164.49C121.104 164.51 122.326 164.61 124.267 164.61Z" fill="#431F20"/>
<path fill-rule="evenodd" clip-rule="evenodd" d="M184.788 252.014C189.533 252.014 193.396 255.857 193.396 260.562C193.396 264.085 191.274 267.188 187.971 268.51L158.122 280.942C157.121 281.342 156.06 281.542 154.959 281.542C150.215 281.542 146.351 277.698 146.351 272.994C146.351 269.991 147.973 267.168 150.595 265.627L181.445 252.694C182.486 252.234 183.607 252.014 184.788 252.014ZM154.939 283.124C156.241 283.124 157.522 282.884 158.703 282.403L188.552 269.971C192.455 268.43 194.978 264.726 194.978 260.542C194.978 254.957 190.394 250.392 184.768 250.392C183.387 250.392 182.045 250.652 180.804 251.193L149.894 264.145C149.854 264.165 149.834 264.165 149.814 264.185C146.671 266.007 144.729 269.35 144.729 272.954C144.729 278.559 149.314 283.124 154.939 283.124Z" fill="#431F20"/>
<path fill-rule="evenodd" clip-rule="evenodd" d="M124.771 319.359C124.891 319.359 124.991 319.339 125.111 319.279L190.794 289.11C194.658 287.588 197.2 283.885 197.2 279.701C197.2 274.115 192.616 269.551 186.99 269.551C185.609 269.551 184.268 269.811 183.027 270.352L116.983 300.721C116.583 300.901 116.402 301.381 116.583 301.782C116.763 302.182 117.243 302.362 117.644 302.182L183.667 271.813C184.708 271.373 185.829 271.152 186.99 271.152C191.735 271.152 195.599 274.976 195.599 279.701C195.599 283.224 193.477 286.327 190.174 287.628L124.45 317.817C124.05 317.998 123.87 318.478 124.05 318.878C124.19 319.179 124.47 319.359 124.771 319.359Z" fill="#431F20"/>
<path fill-rule="evenodd" clip-rule="evenodd" d="M146.911 265.887C148.312 265.887 149.673 265.627 150.955 265.126L211.513 239.882C218.88 236.058 224.185 226.649 224.185 217.5C224.185 215.398 223.905 213.336 223.365 211.334C223.244 210.914 222.804 210.654 222.384 210.774C221.963 210.894 221.703 211.334 221.823 211.755C222.324 213.617 222.584 215.559 222.584 217.5C222.584 226.089 217.639 234.897 210.852 238.441L150.374 263.645C149.293 264.085 148.132 264.306 146.931 264.306C141.786 264.306 137.582 260.122 137.582 254.957C137.582 251.994 139.143 249.271 142.246 246.869L182.105 229.292C182.505 229.112 182.685 228.651 182.525 228.231C182.345 227.83 181.865 227.65 181.464 227.81L141.526 245.427C141.466 245.447 141.406 245.487 141.365 245.527C137.802 248.25 136 251.413 136 254.937C135.96 260.982 140.885 265.887 146.911 265.887Z" fill="#431F20"/>
<path fill-rule="evenodd" clip-rule="evenodd" d="M203.186 75.6037C203.366 75.6037 203.527 75.5837 203.707 75.5437C204.367 75.4035 204.928 75.0232 205.288 74.4426C205.649 73.8821 205.769 73.2014 205.629 72.5408C205.529 72.1003 205.108 71.8401 204.668 71.9402C204.227 72.0403 203.967 72.4607 204.047 72.8811C204.107 73.1213 204.047 73.3616 203.927 73.5618C203.787 73.762 203.587 73.9021 203.346 73.9622C202.866 74.0623 202.365 73.762 202.265 73.2615C202.165 72.821 201.745 72.5608 201.324 72.6409C200.884 72.741 200.624 73.1614 200.704 73.5818C200.984 74.803 202.045 75.6037 203.186 75.6037Z" fill="#431F20"/>
<path fill-rule="evenodd" clip-rule="evenodd" d="M62.3707 175.86C62.6109 175.86 62.8511 175.84 63.0713 175.78C63.8721 175.6 64.5328 175.12 64.9532 174.419C65.3736 173.738 65.5137 172.917 65.3335 172.117C65.1534 171.316 64.6729 170.655 63.9722 170.235C63.5919 169.995 63.1114 170.115 62.8711 170.495C62.6309 170.875 62.751 171.356 63.1314 171.596C63.4517 171.796 63.6919 172.117 63.772 172.497C63.8521 172.877 63.7921 173.258 63.5919 173.578C63.3917 173.898 63.0713 174.139 62.691 174.219C62.3106 174.299 61.9303 174.239 61.61 174.038C61.2296 173.798 60.7491 173.918 60.5089 174.299C60.2686 174.679 60.3888 175.16 60.7691 175.4C61.2696 175.72 61.8101 175.86 62.3707 175.86Z" fill="#431F20"/>
<path fill-rule="evenodd" clip-rule="evenodd" d="M103.869 187.492C111.376 187.492 118.844 186.711 126.111 185.15C126.551 185.05 126.811 184.629 126.731 184.209C126.631 183.768 126.211 183.508 125.79 183.588C117.803 185.29 109.555 186.071 101.287 185.85C66.5332 185.01 34.5824 166.992 15.8043 137.684C15.5641 137.304 15.0635 137.204 14.7032 137.444C14.3228 137.684 14.2227 138.185 14.463 138.545C33.5213 168.314 65.9727 186.591 101.267 187.452C102.107 187.472 102.988 187.492 103.869 187.492Z" fill="#431F20"/>
<path fill-rule="evenodd" clip-rule="evenodd" d="M104.75 175.761C111.497 175.761 118.203 175.08 124.749 173.739C125.19 173.658 125.47 173.218 125.37 172.798C125.27 172.357 124.849 172.097 124.429 172.177C117.222 173.658 109.795 174.339 102.348 174.139C72.0986 173.398 44.6121 159.104 26.9551 134.921C26.6948 134.561 26.1943 134.481 25.8339 134.741C25.4736 135.001 25.3935 135.502 25.6538 135.862C43.6111 160.446 71.538 174.98 102.308 175.74C103.108 175.74 103.929 175.761 104.75 175.761Z" fill="#431F20"/>
<path fill-rule="evenodd" clip-rule="evenodd" d="M125.43 198.442C125.53 198.442 125.61 198.422 125.671 198.422C129.154 197.881 126.351 178.703 126.331 178.503C126.071 176.841 123.789 162.247 120.285 162.767C119.565 162.868 117.903 163.128 118.824 173.057C118.864 173.498 119.264 173.818 119.685 173.778C120.125 173.738 120.445 173.338 120.405 172.897C119.825 166.751 120.325 164.91 120.546 164.449C121.446 165.23 123.368 169.814 124.71 178.743C126.031 187.431 125.971 194.598 125.37 196.52C124.71 195.419 123.508 191.916 122.187 185.149C122.107 184.709 121.687 184.428 121.246 184.508C120.806 184.589 120.526 185.009 120.606 185.449C122.988 197.441 124.589 198.442 125.43 198.442Z" fill="#431F20"/>
<path fill-rule="evenodd" clip-rule="evenodd" d="M75.8437 353.071H112.299C112.739 353.071 113.1 352.711 113.1 352.271C113.1 351.83 112.739 351.47 112.299 351.47H75.8437C75.4033 351.47 75.043 351.83 75.043 352.271C75.043 352.711 75.4033 353.071 75.8437 353.071Z" fill="#431F20"/>
<path fill-rule="evenodd" clip-rule="evenodd" d="M242.585 354.673H261.483C261.924 354.673 262.284 354.313 262.284 353.872C262.284 353.432 261.924 353.071 261.483 353.071H242.585C242.145 353.071 241.784 353.432 241.784 353.872C241.784 354.313 242.145 354.673 242.585 354.673Z" fill="#431F20"/>
<path fill-rule="evenodd" clip-rule="evenodd" d="M267.528 354.673H273.894C274.335 354.673 274.695 354.313 274.695 353.872C274.695 353.432 274.335 353.071 273.894 353.071H267.528C267.088 353.071 266.728 353.432 266.728 353.872C266.728 354.313 267.088 354.673 267.528 354.673Z" fill="#431F20"/>
<path fill-rule="evenodd" clip-rule="evenodd" d="M116.681 353.071H128.292C128.732 353.071 129.093 352.711 129.093 352.271C129.093 351.83 128.732 351.47 128.292 351.47H116.681C116.24 351.47 115.88 351.83 115.88 352.271C115.88 352.711 116.24 353.071 116.681 353.071Z" fill="#431F20"/>
<path fill-rule="evenodd" clip-rule="evenodd" d="M136.541 353.071H197.179C197.62 353.071 197.98 352.711 197.98 352.271C197.98 351.83 197.62 351.47 197.179 351.47H136.541C136.101 351.47 135.74 351.83 135.74 352.271C135.74 352.711 136.101 353.071 136.541 353.071Z" fill="#431F20"/>
<path fill-rule="evenodd" clip-rule="evenodd" d="M197.161 289.891C197.501 289.891 197.821 289.67 197.922 289.33C198.042 288.91 197.801 288.469 197.381 288.329L192.556 286.868C192.136 286.748 191.695 286.968 191.555 287.408C191.435 287.829 191.675 288.269 192.096 288.409L196.921 289.871C197.001 289.891 197.081 289.891 197.161 289.891Z" fill="#431F20"/>
<path fill-rule="evenodd" clip-rule="evenodd" d="M190.714 304.485C191.055 304.485 191.395 304.245 191.495 303.904C191.615 303.484 191.355 303.043 190.934 302.923L169.894 297.098C169.474 296.978 169.033 297.238 168.913 297.658C168.793 298.079 169.053 298.519 169.474 298.639L190.514 304.465C190.574 304.465 190.634 304.485 190.714 304.485Z" fill="#431F20"/>
<path fill-rule="evenodd" clip-rule="evenodd" d="M165.069 235.037C165.429 235.037 165.749 234.797 165.849 234.437C165.949 234.016 165.689 233.576 165.269 233.476C165.229 233.456 163.107 232.895 162.506 231.414C162.166 230.573 162.386 229.552 163.127 228.351C171.375 215.118 165.629 188.893 151.315 174.399C150.995 174.078 150.495 174.078 150.194 174.399C149.874 174.699 149.874 175.22 150.194 175.52C164.068 189.553 169.693 214.818 161.785 227.49C160.744 229.152 160.484 230.673 161.025 232.014C161.926 234.257 164.748 234.977 164.868 235.017C164.949 235.037 165.009 235.037 165.069 235.037Z" fill="#431F20"/>
<path fill-rule="evenodd" clip-rule="evenodd" d="M223.386 215.379C223.446 215.379 229.152 215.299 229.152 208.452C229.152 169.634 199.823 148.955 199.523 148.754C199.163 148.514 198.662 148.594 198.402 148.955C198.142 149.315 198.242 149.815 198.602 150.076C198.882 150.276 227.53 170.495 227.53 208.472C227.53 213.737 223.526 213.797 223.366 213.797C222.926 213.797 222.565 214.157 222.565 214.598C222.585 215.018 222.946 215.379 223.386 215.379Z" fill="#431F20"/>
<path fill-rule="evenodd" clip-rule="evenodd" d="M176.48 145.231C176.54 145.231 176.62 145.231 176.68 145.211C177.101 145.111 177.361 144.671 177.261 144.25C176.66 141.928 175.579 139.806 173.798 137.544C173.517 137.203 173.017 137.143 172.677 137.404C172.336 137.684 172.276 138.184 172.536 138.525C174.158 140.607 175.159 142.548 175.699 144.631C175.8 144.991 176.12 145.231 176.48 145.231Z" fill="#431F20"/>
<path fill-rule="evenodd" clip-rule="evenodd" d="M160.445 166.211C168.593 166.211 175.74 160.426 177.422 152.438C177.522 151.997 177.242 151.577 176.801 151.497C176.361 151.397 175.94 151.677 175.86 152.118C174.339 159.365 167.853 164.61 160.445 164.61C156.462 164.61 151.997 162.267 148.534 158.364C148.234 158.043 147.733 158.003 147.413 158.304C147.072 158.604 147.052 159.104 147.353 159.445C151.096 163.669 156.001 166.211 160.445 166.211Z" fill="#431F20"/>
<path fill-rule="evenodd" clip-rule="evenodd" d="M132.597 145.512C136.441 145.512 139.604 144.11 141.746 141.468C144.048 138.625 144.989 134.481 144.168 130.697C144.068 130.257 143.648 129.997 143.227 130.077C142.787 130.177 142.527 130.597 142.607 131.018C143.307 134.301 142.466 138.004 140.505 140.447C138.683 142.709 135.96 143.89 132.617 143.89C132.177 143.89 131.816 144.25 131.816 144.691C131.796 145.151 132.157 145.512 132.597 145.512Z" fill="#431F20"/>
<path fill-rule="evenodd" clip-rule="evenodd" d="M160.443 161.687C163.987 161.687 167.41 160.226 169.872 157.683C172.195 155.261 173.416 152.118 173.276 148.835C173.136 145.311 171.654 142.649 170.873 141.467C176.779 136.583 182.905 122.249 182.625 108.356C182.625 107.915 182.244 107.575 181.804 107.575C181.363 107.575 181.003 107.955 181.023 108.396C181.303 121.889 175.077 136.563 169.312 140.667C169.132 140.787 169.012 140.987 168.992 141.207C168.972 141.427 169.032 141.648 169.172 141.828C169.192 141.848 171.534 144.711 171.694 148.895C171.814 151.737 170.753 154.46 168.731 156.562C166.589 158.804 163.566 160.085 160.463 160.085C157.26 160.085 154.197 158.704 152.055 156.302C151.755 155.981 151.254 155.941 150.934 156.242C150.614 156.542 150.574 157.043 150.874 157.363C153.276 160.105 156.78 161.687 160.443 161.687Z" fill="#431F20"/>
<path fill-rule="evenodd" clip-rule="evenodd" d="M214.915 122.649C217.637 122.649 219.179 122.048 219.579 120.827C220.84 116.984 208.469 111.979 205.966 111.018C205.546 110.858 205.085 111.058 204.925 111.478C204.765 111.899 204.965 112.359 205.386 112.519C214.815 116.163 218.338 119.466 218.058 120.327C217.958 120.627 216.757 121.348 212.512 120.927C208.809 120.567 204.084 119.466 199.2 117.864C196.277 116.903 193.534 115.822 191.052 114.681C184.245 111.538 182.383 109.216 182.564 108.635C182.764 108.035 185.727 107.274 193.294 108.876C193.734 108.956 194.155 108.696 194.235 108.255C194.335 107.815 194.055 107.394 193.614 107.294C189.31 106.373 181.983 105.272 181.042 108.115C180.121 110.918 186.487 114.341 190.371 116.123C192.914 117.304 195.716 118.385 198.699 119.366C203.704 121.007 208.549 122.128 212.352 122.509C213.313 122.609 214.154 122.649 214.915 122.649Z" fill="#431F20"/>
<path fill-rule="evenodd" clip-rule="evenodd" d="M123.368 320.32L118.323 322.402L109.895 303.884L114.859 301.182C115.84 301.842 118.743 304.185 121.426 309.81C124.369 315.916 123.668 319.399 123.368 320.32ZM117.942 324.224C118.043 324.224 118.143 324.204 118.243 324.164L124.309 321.661C124.489 321.581 124.629 321.461 124.729 321.281C124.809 321.121 126.711 317.097 122.907 309.129C119.364 301.722 115.46 299.64 115.28 299.54C115.04 299.42 114.759 299.42 114.539 299.54L108.513 302.803C108.153 303.003 107.993 303.464 108.173 303.844L117.222 323.723C117.342 324.044 117.622 324.224 117.942 324.224Z" fill="#431F20"/>
<path fill-rule="evenodd" clip-rule="evenodd" d="M204.748 290.011L197.661 309.069L192.236 307.487C192.016 306.326 191.615 302.623 193.677 296.737C195.94 290.291 198.842 288.369 199.703 287.929L204.748 290.011ZM198.142 310.851C198.462 310.851 198.782 310.65 198.882 310.33L206.49 289.85C206.65 289.45 206.45 288.99 206.049 288.829L199.983 286.327C199.803 286.247 199.603 286.247 199.423 286.307C199.243 286.367 195.079 287.868 192.156 296.217C189.433 303.964 190.735 308.208 190.795 308.388C190.875 308.649 191.075 308.829 191.335 308.909L197.921 310.831C198.002 310.851 198.082 310.851 198.142 310.851Z" fill="#431F20"/>
<path fill-rule="evenodd" clip-rule="evenodd" d="M139.483 153.238C147.37 153.238 155.398 149.815 158.741 142.388C158.921 141.988 158.741 141.507 158.341 141.327C157.94 141.147 157.46 141.327 157.28 141.727C153.116 151.016 140.764 153.459 131.715 150.396C122.166 147.153 119.784 138.424 117.501 129.976C116.3 125.512 115.159 121.308 113.017 117.984C112.777 117.604 112.276 117.504 111.916 117.744C111.536 117.984 111.436 118.485 111.676 118.845C113.678 121.968 114.799 126.052 115.96 130.396C118.242 138.845 120.845 148.414 131.195 151.917C133.777 152.798 136.62 153.238 139.483 153.238Z" fill="#431F20"/>
<path fill-rule="evenodd" clip-rule="evenodd" d="M140.306 82.1503C141.567 82.1503 142.848 82.2504 144.129 82.4707C156.261 84.5527 162.927 92.6805 163.428 106.013C163.528 108.796 163.448 122.529 163.128 129.056C163.087 129.816 162.887 130.617 162.427 130.637C161.886 130.637 161.005 129.816 160.925 128.715C160.845 127.614 161.426 124.351 161.646 123.17C161.806 122.529 161.906 121.809 161.906 121.088C161.906 116.624 158.543 112.98 154.399 112.98C151.897 112.98 149.635 114.201 148.373 116.263C147.933 116.984 147.332 117.344 146.792 117.184C146.391 117.084 146.111 116.704 146.111 116.243C145.831 107.074 144.009 105.513 142.528 104.252L142.327 104.072C139.405 101.509 135.301 104.652 130.096 108.616C125.071 112.46 118.825 117.224 112.298 117.605C111.978 117.605 109.095 116.704 107.834 113.661C106.393 110.177 107.013 103.571 118.144 91.8397C120.767 89.097 129.855 82.1503 140.306 82.1503ZM162.427 132.219H162.447C162.947 132.219 164.589 131.978 164.729 129.116C165.029 122.549 165.129 108.756 165.029 105.953C164.489 91.7797 157.362 83.1113 144.389 80.8891C133.058 78.9472 121.547 85.894 116.963 90.7386C104.991 103.351 104.651 110.678 106.473 114.602C108.014 117.945 111.358 119.286 112.359 119.206C119.385 118.786 125.832 113.861 131.037 109.877C135.481 106.494 139.305 103.571 141.246 105.253L141.467 105.433C142.688 106.474 144.229 107.795 144.49 116.243C144.53 117.404 145.29 118.385 146.371 118.686C147.352 118.946 148.754 118.666 149.735 117.064C150.716 115.482 152.457 114.542 154.419 114.542C157.682 114.542 160.325 117.464 160.325 121.048C160.325 121.648 160.245 122.229 160.105 122.79C160.004 123.29 159.224 127.274 159.344 128.795C159.464 130.637 160.905 132.219 162.427 132.219Z" fill="#431F20"/>
<path fill-rule="evenodd" clip-rule="evenodd" d="M169.033 143.77C169.753 143.77 170.434 143.509 171.035 142.989C171.375 142.709 171.395 142.188 171.115 141.868C170.814 141.528 170.314 141.508 169.994 141.788C169.673 142.068 169.153 142.388 168.272 141.968C166.01 140.927 163.367 136.182 163.367 131.598C163.367 131.158 163.007 130.797 162.566 130.797C162.126 130.797 161.766 131.158 161.766 131.598C161.766 136.483 164.508 142.008 167.611 143.409C168.072 143.67 168.552 143.77 169.033 143.77Z" fill="#431F20"/>
<path fill-rule="evenodd" clip-rule="evenodd" d="M152.537 158.104C152.857 158.104 153.158 157.923 153.278 157.603C154.499 154.7 154.139 152.038 152.117 148.955C151.876 148.594 151.376 148.474 151.016 148.714C150.655 148.955 150.535 149.455 150.775 149.816C152.937 153.099 152.497 155.281 151.796 156.962C151.636 157.363 151.816 157.843 152.217 158.003C152.317 158.084 152.437 158.104 152.537 158.104Z" fill="#431F20"/>
<path fill-rule="evenodd" clip-rule="evenodd" d="M198.32 150.656C198.5 150.656 198.68 150.596 198.821 150.476C209.711 141.547 217.198 127.854 219.561 120.827C219.701 120.407 219.481 119.947 219.06 119.806C218.64 119.666 218.179 119.887 218.039 120.307C215.717 127.154 208.43 140.506 197.8 149.215C197.459 149.495 197.399 149.996 197.68 150.336C197.86 150.556 198.1 150.656 198.32 150.656Z" fill="#431F20"/>
<path fill-rule="evenodd" clip-rule="evenodd" d="M125.331 198.323C125.351 198.323 125.371 198.323 125.371 198.323C137.302 197.662 148.633 193.518 158.143 186.331C158.503 186.071 158.563 185.57 158.303 185.21C158.042 184.85 157.542 184.79 157.182 185.05C147.933 192.037 136.902 196.06 125.291 196.721C124.85 196.741 124.51 197.121 124.53 197.562C124.57 198.002 124.91 198.323 125.331 198.323Z" fill="#431F20"/>
<path fill-rule="evenodd" clip-rule="evenodd" d="M187.352 280.461C187.392 280.461 187.432 280.461 187.472 280.441L188.192 280.121C188.353 280.061 188.413 279.881 188.353 279.721C188.293 279.561 188.112 279.501 187.952 279.581L187.232 279.901C187.091 279.961 187.011 280.141 187.091 280.301C187.131 280.401 187.232 280.461 187.352 280.461Z" fill="#391D1D"/>
<path fill-rule="evenodd" clip-rule="evenodd" d="M184.486 281.743C184.527 281.743 184.567 281.743 184.607 281.723L186.028 281.082C186.168 281.022 186.248 280.842 186.168 280.682C186.108 280.521 185.928 280.461 185.768 280.541L184.346 281.182C184.206 281.242 184.126 281.422 184.206 281.582C184.266 281.682 184.386 281.743 184.486 281.743ZM181.644 283.024C181.684 283.024 181.724 283.024 181.764 283.004L183.185 282.363C183.345 282.303 183.406 282.123 183.345 281.963C183.285 281.803 183.105 281.743 182.945 281.823L181.524 282.463C181.384 282.523 181.303 282.704 181.384 282.864C181.424 282.964 181.524 283.024 181.644 283.024ZM178.801 284.305C178.841 284.305 178.881 284.305 178.921 284.285L180.343 283.644C180.503 283.584 180.563 283.404 180.483 283.244C180.423 283.104 180.242 283.024 180.082 283.104L178.661 283.745C178.501 283.805 178.441 283.985 178.521 284.145C178.561 284.245 178.681 284.305 178.801 284.305ZM175.938 285.586C175.978 285.586 176.018 285.586 176.058 285.566L177.48 284.926C177.62 284.866 177.7 284.685 177.62 284.525C177.56 284.385 177.38 284.305 177.22 284.385L175.798 285.026C175.658 285.086 175.578 285.266 175.658 285.426C175.718 285.526 175.838 285.586 175.938 285.586ZM173.096 286.868C173.136 286.868 173.176 286.847 173.216 286.847L174.637 286.207C174.797 286.147 174.857 285.967 174.797 285.807C174.737 285.646 174.557 285.586 174.397 285.666L172.975 286.307C172.835 286.367 172.755 286.547 172.835 286.707C172.875 286.807 172.975 286.868 173.096 286.868ZM170.233 288.169C170.273 288.169 170.313 288.149 170.353 288.149L171.774 287.508C171.934 287.448 171.994 287.268 171.914 287.108C171.854 286.948 171.674 286.888 171.514 286.968L170.093 287.608C169.933 287.668 169.872 287.848 169.932 288.009C170.013 288.089 170.133 288.169 170.233 288.169ZM167.39 289.43C167.43 289.43 167.47 289.43 167.51 289.41L168.932 288.769C169.072 288.709 169.152 288.529 169.072 288.369C169.012 288.209 168.831 288.149 168.671 288.209L167.25 288.849C167.09 288.909 167.03 289.09 167.09 289.25C167.17 289.37 167.27 289.43 167.39 289.43ZM164.547 290.731C164.587 290.731 164.627 290.731 164.667 290.711L166.089 290.071C166.249 290.011 166.309 289.83 166.249 289.67C166.189 289.53 166.009 289.45 165.849 289.53L164.427 290.171C164.287 290.231 164.207 290.411 164.287 290.571C164.307 290.651 164.427 290.731 164.547 290.731ZM161.685 292.012C161.725 292.012 161.765 291.992 161.805 291.992L163.226 291.352C163.386 291.292 163.446 291.112 163.366 290.951C163.306 290.791 163.126 290.731 162.966 290.791L161.544 291.432C161.384 291.492 161.324 291.672 161.384 291.832C161.464 291.932 161.564 292.012 161.685 292.012ZM158.842 293.294C158.882 293.294 158.922 293.294 158.962 293.274L160.383 292.633C160.523 292.573 160.603 292.393 160.523 292.233C160.463 292.093 160.283 292.012 160.123 292.093L158.702 292.733C158.562 292.793 158.481 292.973 158.562 293.134C158.622 293.214 158.722 293.294 158.842 293.294ZM155.979 294.575C156.019 294.575 156.059 294.575 156.099 294.555L157.52 293.914C157.681 293.854 157.741 293.674 157.661 293.514C157.601 293.374 157.42 293.294 157.26 293.374L155.839 294.014C155.679 294.074 155.619 294.255 155.699 294.415C155.759 294.495 155.879 294.575 155.979 294.575ZM153.136 295.856C153.176 295.856 153.216 295.836 153.256 295.836L154.678 295.196C154.838 295.136 154.898 294.955 154.818 294.795C154.758 294.635 154.578 294.575 154.418 294.655L152.996 295.296C152.836 295.356 152.776 295.536 152.836 295.696C152.916 295.796 153.016 295.856 153.136 295.856ZM150.294 297.137C150.334 297.137 150.374 297.137 150.414 297.117L151.835 296.477C151.995 296.417 152.055 296.237 151.995 296.076C151.935 295.916 151.755 295.856 151.595 295.936L150.173 296.577C150.033 296.637 149.953 296.817 150.033 296.977C150.053 297.077 150.173 297.137 150.294 297.137ZM147.431 298.419C147.471 298.419 147.511 298.419 147.551 298.399L148.972 297.758C149.132 297.698 149.193 297.518 149.112 297.358C149.052 297.197 148.872 297.137 148.712 297.197L147.291 297.838C147.131 297.898 147.07 298.078 147.151 298.238C147.211 298.359 147.311 298.419 147.431 298.419ZM144.588 299.7C144.628 299.7 144.668 299.7 144.708 299.68L146.13 299.039C146.27 298.979 146.35 298.799 146.27 298.639C146.21 298.499 146.029 298.419 145.869 298.499L144.448 299.139C144.288 299.199 144.228 299.38 144.288 299.54C144.368 299.64 144.468 299.7 144.588 299.7ZM141.725 300.981C141.765 300.981 141.805 300.961 141.845 300.961L143.267 300.32C143.407 300.26 143.487 300.08 143.407 299.92C143.347 299.76 143.167 299.7 143.007 299.78L141.585 300.421C141.445 300.481 141.365 300.661 141.445 300.821C141.505 300.921 141.625 300.981 141.725 300.981ZM138.883 302.262C138.923 302.262 138.963 302.262 139.003 302.242L140.424 301.602C140.584 301.542 140.644 301.362 140.564 301.201C140.504 301.061 140.324 300.981 140.164 301.061L138.742 301.702C138.582 301.762 138.522 301.942 138.602 302.102C138.662 302.202 138.762 302.262 138.883 302.262ZM136.04 303.544C136.08 303.544 136.12 303.544 136.16 303.524L137.581 302.883C137.721 302.823 137.802 302.643 137.721 302.483C137.661 302.322 137.481 302.262 137.321 302.322L135.9 302.963C135.74 303.023 135.679 303.203 135.74 303.363C135.8 303.484 135.92 303.544 136.04 303.544ZM133.177 304.825C133.217 304.825 133.257 304.805 133.297 304.805L134.719 304.164C134.879 304.104 134.939 303.924 134.879 303.764C134.819 303.604 134.638 303.544 134.478 303.604L133.057 304.244C132.917 304.304 132.837 304.485 132.917 304.645C132.957 304.765 133.057 304.825 133.177 304.825ZM130.334 306.106C130.374 306.106 130.414 306.086 130.454 306.086L131.876 305.445C132.036 305.385 132.096 305.205 132.016 305.045C131.956 304.885 131.776 304.825 131.616 304.905L130.194 305.546C130.034 305.606 129.974 305.786 130.034 305.946C130.114 306.046 130.214 306.106 130.334 306.106ZM127.472 307.387C127.512 307.387 127.552 307.387 127.592 307.367L129.013 306.727C129.153 306.667 129.233 306.486 129.153 306.326C129.093 306.166 128.913 306.106 128.753 306.166L127.331 306.807C127.171 306.867 127.111 307.047 127.171 307.207C127.251 307.327 127.371 307.387 127.472 307.387Z" fill="#391D1D"/>
<path fill-rule="evenodd" clip-rule="evenodd" d="M125.33 308.368C125.37 308.368 125.41 308.368 125.45 308.348L126.171 308.028C126.331 307.968 126.391 307.788 126.331 307.627C126.271 307.467 126.091 307.407 125.931 307.467L125.21 307.788C125.07 307.848 124.99 308.028 125.07 308.188C125.11 308.288 125.21 308.368 125.33 308.368Z" fill="#391D1D"/>
<path fill-rule="evenodd" clip-rule="evenodd" d="M187.33 260.422C187.371 260.422 187.411 260.422 187.451 260.402L188.191 260.102C188.351 260.042 188.412 259.862 188.351 259.701C188.291 259.541 188.111 259.461 187.951 259.541L187.21 259.842C187.05 259.902 186.99 260.082 187.05 260.242C187.11 260.362 187.21 260.422 187.33 260.422Z" fill="#391D1D"/>
<path fill-rule="evenodd" clip-rule="evenodd" d="M184.287 261.663C184.327 261.663 184.367 261.663 184.407 261.643L185.928 261.022C186.088 260.962 186.148 260.782 186.088 260.622C186.028 260.462 185.848 260.402 185.688 260.462L184.167 261.082C184.006 261.142 183.946 261.323 184.006 261.483C184.046 261.603 184.167 261.663 184.287 261.663ZM181.224 262.904C181.264 262.904 181.304 262.904 181.344 262.884L182.865 262.264C183.025 262.203 183.086 262.023 183.025 261.883C182.965 261.723 182.785 261.643 182.645 261.723L181.124 262.344C180.963 262.404 180.903 262.584 180.963 262.744C181.004 262.824 181.104 262.904 181.224 262.904ZM178.181 264.145C178.221 264.145 178.261 264.145 178.301 264.125L179.822 263.505C179.983 263.445 180.043 263.265 179.982 263.104C179.922 262.944 179.742 262.884 179.582 262.944L178.061 263.565C177.9 263.625 177.84 263.805 177.901 263.965C177.941 264.065 178.061 264.145 178.181 264.145ZM175.118 265.387C175.158 265.387 175.198 265.387 175.238 265.367L176.759 264.746C176.92 264.686 176.98 264.506 176.92 264.346C176.859 264.185 176.679 264.125 176.539 264.185L175.018 264.806C174.858 264.866 174.797 265.046 174.858 265.186C174.898 265.306 175.018 265.387 175.118 265.387ZM172.075 266.628C172.115 266.628 172.155 266.628 172.195 266.608L173.716 265.987C173.877 265.927 173.937 265.747 173.877 265.587C173.817 265.427 173.636 265.346 173.496 265.427L171.975 266.047C171.815 266.107 171.755 266.287 171.815 266.448C171.855 266.548 171.955 266.628 172.075 266.628ZM169.032 267.849C169.072 267.849 169.112 267.849 169.152 267.829L170.674 267.208C170.834 267.148 170.894 266.968 170.834 266.808C170.774 266.648 170.593 266.588 170.433 266.648L168.912 267.268C168.752 267.328 168.692 267.509 168.752 267.669C168.792 267.789 168.912 267.849 169.032 267.849ZM165.969 269.09C166.009 269.09 166.049 269.09 166.089 269.07L167.611 268.449C167.771 268.389 167.831 268.209 167.771 268.069C167.711 267.909 167.531 267.829 167.39 267.909L165.869 268.53C165.709 268.59 165.649 268.77 165.709 268.93C165.749 269.03 165.849 269.09 165.969 269.09ZM162.926 270.331C162.966 270.331 163.006 270.331 163.046 270.311L164.568 269.691C164.728 269.631 164.788 269.45 164.728 269.31C164.668 269.15 164.488 269.09 164.327 269.15L162.806 269.771C162.646 269.831 162.586 270.011 162.646 270.171C162.686 270.271 162.806 270.331 162.926 270.331ZM159.863 271.573C159.903 271.573 159.943 271.572 159.983 271.552L161.505 270.932C161.665 270.872 161.725 270.692 161.665 270.551C161.605 270.391 161.425 270.331 161.264 270.391L159.743 271.012C159.583 271.072 159.523 271.252 159.583 271.392C159.643 271.512 159.743 271.573 159.863 271.573ZM156.82 272.814C156.86 272.814 156.9 272.814 156.94 272.794L158.462 272.173C158.622 272.113 158.682 271.933 158.622 271.773C158.562 271.613 158.382 271.553 158.242 271.613L156.72 272.233C156.56 272.293 156.5 272.473 156.56 272.634C156.58 272.754 156.7 272.814 156.82 272.814ZM153.757 274.055C153.797 274.055 153.837 274.055 153.877 274.035L155.399 273.414C155.559 273.354 155.619 273.174 155.559 273.034C155.499 272.874 155.319 272.814 155.159 272.874L153.637 273.494C153.477 273.554 153.417 273.735 153.477 273.895C153.537 273.975 153.657 274.055 153.757 274.055Z" fill="#391D1D"/>
<path fill-rule="evenodd" clip-rule="evenodd" d="M151.496 274.976C151.536 274.976 151.576 274.976 151.616 274.956L152.356 274.656C152.516 274.596 152.577 274.415 152.516 274.255C152.456 274.095 152.276 274.035 152.116 274.095L151.375 274.395C151.215 274.455 151.155 274.636 151.215 274.796C151.275 274.896 151.375 274.976 151.496 274.976Z" fill="#391D1D"/>
<path fill-rule="evenodd" clip-rule="evenodd" d="M163.306 237.159C163.526 237.159 163.767 237.059 163.907 236.879C177.44 220.984 197.159 211.875 218.019 211.875C219.54 211.875 221.062 211.915 222.563 212.015C223.024 212.015 223.384 211.715 223.404 211.274C223.424 210.834 223.104 210.454 222.663 210.434C221.142 210.333 219.58 210.293 218.019 210.293C196.698 210.293 176.539 219.622 162.686 235.858C162.405 236.198 162.445 236.699 162.786 236.979C162.946 237.099 163.126 237.159 163.306 237.159Z" fill="#431F20"/>
<path fill-rule="evenodd" clip-rule="evenodd" d="M198.161 225.588C198.601 225.588 198.962 225.228 198.962 224.788C198.962 224.347 198.601 223.987 198.161 223.987C194.097 223.987 190.473 221.545 188.932 217.781C188.772 217.361 188.291 217.18 187.891 217.341C187.471 217.501 187.29 217.981 187.45 218.382C189.232 222.746 193.436 225.588 198.161 225.588Z" fill="#431F20"/>
<path fill-rule="evenodd" clip-rule="evenodd" d="M191.754 226.95C192.075 226.95 192.395 226.75 192.515 226.429C192.655 226.009 192.455 225.548 192.035 225.408C189.132 224.367 186.85 221.985 185.929 219.042C185.789 218.622 185.348 218.382 184.928 218.522C184.507 218.662 184.267 219.102 184.407 219.523C185.488 222.926 188.131 225.689 191.494 226.91C191.574 226.93 191.674 226.95 191.754 226.95Z" fill="#431F20"/>
<path fill-rule="evenodd" clip-rule="evenodd" d="M212.774 213.837C212.934 213.837 213.054 213.717 213.074 213.557C213.114 213.036 213.134 212.516 213.134 211.995C213.134 211.835 212.994 211.695 212.834 211.695C212.673 211.695 212.533 211.835 212.533 211.995C212.533 212.496 212.513 213.016 212.473 213.517C212.453 213.677 212.593 213.817 212.754 213.837H212.774ZM212.353 217C212.493 217 212.613 216.9 212.653 216.76C212.753 216.219 212.854 215.699 212.914 215.158C212.934 214.998 212.814 214.838 212.653 214.818C212.493 214.798 212.333 214.918 212.313 215.078C212.253 215.599 212.153 216.119 212.053 216.64C212.013 216.8 212.133 216.96 212.293 217C212.313 217 212.333 217 212.353 217ZM211.552 220.103C211.672 220.103 211.793 220.023 211.833 219.903C211.993 219.382 212.153 218.862 212.273 218.341C212.313 218.181 212.213 218.021 212.053 217.981C211.893 217.941 211.733 218.041 211.693 218.201C211.552 218.702 211.412 219.222 211.252 219.723C211.192 219.883 211.292 220.043 211.452 220.103C211.492 220.083 211.532 220.103 211.552 220.103ZM210.411 223.086C210.531 223.086 210.631 223.026 210.692 222.906C210.912 222.425 211.132 221.925 211.312 221.424C211.372 221.264 211.292 221.104 211.152 221.044C210.992 220.984 210.832 221.064 210.772 221.224C210.571 221.725 210.371 222.205 210.151 222.686C210.091 222.826 210.151 223.006 210.291 223.086C210.311 223.066 210.351 223.086 210.411 223.086ZM208.91 225.909C209.01 225.909 209.11 225.849 209.17 225.768C209.45 225.308 209.711 224.848 209.971 224.367C210.051 224.227 209.991 224.047 209.851 223.967C209.711 223.887 209.53 223.947 209.45 224.087C209.21 224.547 208.95 225.008 208.67 225.468C208.59 225.608 208.63 225.788 208.77 225.889C208.79 225.889 208.85 225.909 208.91 225.909ZM207.068 228.511C207.148 228.511 207.248 228.471 207.308 228.391C207.649 227.971 207.969 227.53 208.289 227.09C208.389 226.95 208.349 226.769 208.209 226.669C208.069 226.569 207.889 226.609 207.789 226.749C207.488 227.19 207.168 227.61 206.848 228.011C206.748 228.131 206.768 228.331 206.888 228.431C206.948 228.491 207.008 228.511 207.068 228.511ZM204.906 230.873C204.986 230.873 205.046 230.853 205.106 230.793C205.487 230.433 205.867 230.033 206.247 229.632C206.367 229.512 206.347 229.312 206.227 229.212C206.107 229.092 205.907 229.112 205.807 229.232C205.446 229.632 205.066 229.993 204.706 230.353C204.586 230.473 204.586 230.653 204.686 230.773C204.746 230.833 204.826 230.873 204.906 230.873ZM202.424 232.875C202.484 232.875 202.544 232.855 202.584 232.815C203.024 232.515 203.465 232.195 203.885 231.854C204.005 231.754 204.025 231.554 203.925 231.434C203.825 231.314 203.625 231.294 203.505 231.394C203.084 231.734 202.664 232.034 202.243 232.335C202.103 232.435 202.063 232.615 202.163 232.755C202.223 232.835 202.323 232.875 202.424 232.875ZM199.601 234.377C199.641 234.377 199.681 234.377 199.721 234.357L200.762 233.916C200.922 233.836 201.062 233.756 201.202 233.676C201.342 233.596 201.403 233.416 201.322 233.276C201.242 233.136 201.062 233.076 200.922 233.156C200.782 233.236 200.662 233.296 200.522 233.376L199.501 233.796C199.341 233.856 199.281 234.036 199.341 234.197C199.381 234.297 199.481 234.377 199.601 234.377ZM196.638 235.598C196.678 235.598 196.718 235.598 196.758 235.578L198.24 234.957C198.4 234.897 198.46 234.717 198.4 234.557C198.34 234.397 198.159 234.337 197.999 234.397L196.518 235.017C196.358 235.077 196.298 235.258 196.358 235.418C196.418 235.538 196.538 235.598 196.638 235.598ZM193.695 236.839C193.735 236.839 193.775 236.839 193.815 236.819L195.297 236.199C195.457 236.138 195.517 235.958 195.457 235.798C195.397 235.638 195.217 235.578 195.056 235.638L193.575 236.259C193.415 236.319 193.355 236.499 193.415 236.659C193.475 236.759 193.575 236.839 193.695 236.839ZM190.732 238.06C190.772 238.06 190.812 238.06 190.852 238.04L192.334 237.42C192.494 237.36 192.554 237.179 192.494 237.039C192.434 236.879 192.254 236.819 192.094 236.879L190.612 237.5C190.452 237.56 190.392 237.74 190.452 237.88C190.512 238 190.632 238.06 190.732 238.06ZM187.789 239.302C187.829 239.302 187.87 239.302 187.91 239.281L189.391 238.661C189.551 238.601 189.611 238.421 189.551 238.261C189.491 238.1 189.311 238.04 189.151 238.1L187.669 238.721C187.509 238.781 187.449 238.961 187.509 239.121C187.549 239.221 187.669 239.302 187.789 239.302ZM184.827 240.523C184.867 240.523 184.907 240.523 184.947 240.503L186.428 239.882C186.588 239.822 186.648 239.642 186.588 239.502C186.528 239.342 186.348 239.281 186.188 239.342L184.706 239.962C184.546 240.022 184.486 240.202 184.546 240.363C184.606 240.463 184.706 240.523 184.827 240.523ZM181.884 241.764C181.924 241.764 181.964 241.764 182.004 241.744L183.485 241.123C183.645 241.063 183.706 240.883 183.645 240.723C183.585 240.563 183.405 240.503 183.245 240.563L181.764 241.183C181.603 241.243 181.543 241.424 181.604 241.584C181.644 241.684 181.764 241.764 181.884 241.764ZM178.921 242.985C178.961 242.985 179.001 242.985 179.041 242.965L180.522 242.344C180.683 242.284 180.743 242.104 180.683 241.944C180.623 241.784 180.442 241.724 180.282 241.784L178.801 242.404C178.641 242.465 178.581 242.645 178.641 242.785C178.701 242.925 178.801 242.985 178.921 242.985ZM175.978 244.226C176.018 244.226 176.058 244.226 176.098 244.206L177.58 243.586C177.74 243.526 177.8 243.345 177.74 243.185C177.68 243.025 177.5 242.965 177.339 243.025L175.858 243.646C175.698 243.706 175.638 243.886 175.698 244.046C175.738 244.146 175.858 244.226 175.978 244.226ZM173.015 245.447C173.055 245.447 173.095 245.447 173.135 245.427L174.617 244.807C174.777 244.747 174.837 244.567 174.777 244.406C174.717 244.246 174.537 244.186 174.377 244.246L172.895 244.867C172.735 244.927 172.675 245.107 172.735 245.267C172.795 245.387 172.915 245.447 173.015 245.447ZM170.072 246.689C170.112 246.689 170.152 246.689 170.192 246.669L171.674 246.048C171.834 245.988 171.894 245.808 171.834 245.648C171.774 245.488 171.594 245.427 171.434 245.487L169.952 246.108C169.792 246.168 169.732 246.348 169.792 246.508C169.832 246.609 169.952 246.689 170.072 246.689ZM167.109 247.91C167.15 247.91 167.19 247.91 167.23 247.89L168.711 247.269C168.871 247.209 168.931 247.029 168.871 246.869C168.811 246.709 168.631 246.649 168.471 246.709L166.989 247.329C166.829 247.389 166.769 247.569 166.829 247.73C166.889 247.85 166.989 247.91 167.109 247.91ZM164.167 249.151C164.207 249.151 164.247 249.151 164.287 249.131L165.768 248.51C165.928 248.45 165.988 248.27 165.928 248.11C165.868 247.95 165.688 247.89 165.528 247.95L164.047 248.57C163.886 248.631 163.826 248.811 163.886 248.971C163.926 249.071 164.047 249.151 164.167 249.151ZM161.204 250.372C161.244 250.372 161.284 250.372 161.324 250.352L162.805 249.732C162.966 249.672 163.026 249.491 162.965 249.331C162.905 249.171 162.725 249.111 162.565 249.171L161.084 249.792C160.924 249.852 160.863 250.032 160.924 250.192C160.984 250.312 161.084 250.372 161.204 250.372ZM158.261 251.613C158.301 251.613 158.341 251.613 158.381 251.593L159.863 250.973C160.023 250.913 160.083 250.733 160.023 250.572C159.963 250.412 159.782 250.352 159.622 250.412L158.141 251.033C157.981 251.093 157.921 251.273 157.981 251.433C158.021 251.533 158.141 251.613 158.261 251.613ZM155.298 252.835C155.338 252.835 155.378 252.835 155.418 252.815L156.9 252.194C157.06 252.134 157.12 251.954 157.06 251.794C157 251.633 156.82 251.573 156.659 251.633L155.178 252.254C155.018 252.314 154.958 252.494 155.018 252.654C155.078 252.775 155.178 252.835 155.298 252.835ZM152.355 254.076C152.395 254.076 152.435 254.076 152.475 254.056L153.957 253.435C154.117 253.375 154.177 253.195 154.117 253.035C154.057 252.875 153.877 252.815 153.717 252.875L152.235 253.495C152.075 253.555 152.015 253.735 152.075 253.896C152.115 253.996 152.235 254.076 152.355 254.076ZM149.392 255.297C149.432 255.297 149.472 255.297 149.513 255.277L150.994 254.656C151.154 254.596 151.214 254.416 151.154 254.256C151.094 254.096 150.914 254.036 150.754 254.096L149.272 254.716C149.112 254.776 149.052 254.957 149.112 255.117C149.172 255.237 149.272 255.297 149.392 255.297ZM146.45 256.538C146.49 256.538 146.53 256.538 146.57 256.518L148.051 255.898C148.211 255.837 148.271 255.657 148.211 255.497C148.151 255.337 147.971 255.277 147.811 255.337L146.329 255.958C146.169 256.018 146.109 256.198 146.169 256.358C146.209 256.458 146.329 256.538 146.45 256.538ZM143.487 257.759C143.527 257.759 143.567 257.759 143.607 257.739L145.088 257.119C145.248 257.059 145.308 256.878 145.248 256.738C145.188 256.578 145.008 256.498 144.848 256.578L143.367 257.199C143.206 257.259 143.146 257.439 143.206 257.599C143.266 257.699 143.367 257.759 143.487 257.759Z" fill="#391D1D"/>
<path fill-rule="evenodd" clip-rule="evenodd" d="M154.399 125.672C154.799 125.672 155.179 125.632 155.56 125.532C157.642 125.012 159.083 123.13 159.083 120.988C159.083 118.405 156.981 116.303 154.399 116.303C152.176 116.303 150.255 117.885 149.814 120.047C149.734 120.487 149.994 120.908 150.435 120.988C150.875 121.068 151.296 120.787 151.376 120.367C151.676 118.946 152.937 117.905 154.399 117.905C156.1 117.905 157.482 119.286 157.482 120.988C157.482 122.389 156.521 123.63 155.159 123.971C154.919 124.031 154.659 124.071 154.399 124.071C153.958 124.071 153.598 124.431 153.598 124.871C153.598 125.312 153.958 125.672 154.399 125.672Z" fill="#431F20"/>
<path fill-rule="evenodd" clip-rule="evenodd" d="M154.559 123.55C155.76 123.55 156.741 122.529 156.741 121.268C156.741 120.007 155.76 118.986 154.559 118.986C153.358 118.986 152.377 120.007 152.377 121.268C152.377 121.708 152.737 122.069 153.178 122.069C153.618 122.069 153.978 121.708 153.978 121.268C153.978 120.888 154.239 120.587 154.559 120.587C154.879 120.587 155.14 120.888 155.14 121.268C155.14 121.648 154.879 121.949 154.559 121.949C154.119 121.949 153.758 122.309 153.758 122.749C153.758 123.19 154.119 123.55 154.559 123.55Z" fill="#431F20"/>
<path fill-rule="evenodd" clip-rule="evenodd" d="M134.158 119.446C134.278 119.446 134.398 119.426 134.518 119.366C134.919 119.166 135.079 118.685 134.878 118.285C134.498 117.524 133.838 116.944 133.057 116.643C132.256 116.343 131.395 116.403 130.654 116.783C130.254 116.983 130.114 117.464 130.314 117.864C130.514 118.265 130.995 118.425 131.395 118.225C131.735 118.045 132.136 118.025 132.536 118.165C132.937 118.305 133.277 118.625 133.477 119.026C133.597 119.286 133.878 119.446 134.158 119.446Z" fill="#431F20"/>
<path fill-rule="evenodd" clip-rule="evenodd" d="M146.051 133.16C146.171 133.16 146.291 133.14 146.411 133.079C146.811 132.879 146.971 132.399 146.771 131.998C146.291 131.038 145.05 130.057 143.828 129.656C143.028 129.396 142.307 129.416 141.746 129.696C141.346 129.896 141.186 130.377 141.386 130.777C141.586 131.178 142.067 131.338 142.467 131.138C142.627 131.058 142.968 131.078 143.328 131.198C144.149 131.458 145.029 132.159 145.33 132.739C145.47 132.999 145.75 133.16 146.051 133.16Z" fill="#431F20"/>
<path fill-rule="evenodd" clip-rule="evenodd" d="M118.582 125.051C118.662 125.051 118.742 125.031 118.823 125.011C119.243 124.871 119.463 124.431 119.343 124.01C119.183 123.53 119.303 122.989 119.683 122.569C119.984 122.249 119.944 121.728 119.623 121.448C119.303 121.148 118.782 121.188 118.502 121.508C117.741 122.349 117.501 123.47 117.842 124.511C117.942 124.851 118.242 125.051 118.582 125.051Z" fill="#431F20"/>
<path fill-rule="evenodd" clip-rule="evenodd" d="M163.848 9.58029C164.028 9.72043 164.869 10.4211 165.59 11.0217C166.21 11.5422 166.751 11.9826 166.751 12.0026C166.811 12.0427 166.831 12.0627 166.871 12.0827C167.572 12.6633 167.672 13.7243 167.091 14.425C166.511 15.1256 165.47 15.2257 164.769 14.6452L164.709 14.5851C164.709 14.5851 164.328 14.2648 163.828 13.8444C163.007 13.1638 161.866 12.2028 161.766 12.1027C161.225 11.5422 161.205 10.5812 161.746 9.94063C162.246 9.32003 163.147 9.15989 163.848 9.58029ZM165.81 16.6071C166.751 16.6071 167.672 16.2067 168.312 15.4459C169.473 14.0646 169.273 12.0026 167.912 10.8615C167.852 10.8015 167.772 10.7414 167.692 10.7014C167.692 10.7014 167.191 10.281 166.611 9.80051C164.809 8.29906 164.809 8.29905 164.749 8.25901C163.367 7.37816 161.546 7.67846 160.505 8.91965C159.444 10.1809 159.504 12.0427 160.625 13.2438C160.685 13.3039 160.685 13.3039 162.787 15.0656C163.227 15.446 163.588 15.7463 163.628 15.7863L163.708 15.8463C163.708 15.8463 163.708 15.8463 163.728 15.8664C164.328 16.3668 165.069 16.6071 165.81 16.6071Z" fill="#431F20"/>
<path fill-rule="evenodd" clip-rule="evenodd" d="M159.944 13.2436C160.244 13.2436 160.544 13.3237 160.825 13.5038C160.865 13.5439 161.846 14.3646 162.646 15.0253C163.207 15.5057 163.687 15.8861 163.707 15.9061C163.747 15.9462 163.787 15.9662 163.827 15.9862C164.168 16.2665 164.368 16.6669 164.408 17.1073C164.448 17.5477 164.308 17.9681 164.028 18.3084C163.447 19.0091 162.406 19.1092 161.685 18.5287C161.625 18.4886 161.145 18.0682 160.584 17.5878C159.784 16.9271 158.803 16.0863 158.702 16.0062C158.162 15.4457 158.142 14.4848 158.682 13.8442C158.983 13.4438 159.463 13.2436 159.944 13.2436ZM162.746 20.5106C163.667 20.5106 164.608 20.1102 165.249 19.3495C165.809 18.6888 166.07 17.828 165.989 16.9672C165.909 16.1063 165.509 15.3256 164.828 14.765C164.768 14.705 164.688 14.6649 164.628 14.6049C164.608 14.5848 164.168 14.2245 163.667 13.7841C161.745 12.1826 161.745 12.1825 161.665 12.1425C160.304 11.2817 158.482 11.5619 157.441 12.8031C156.38 14.0644 156.44 15.9262 157.561 17.1273C157.601 17.1874 157.621 17.1874 159.543 18.8089C160.064 19.2494 160.524 19.6297 160.564 19.6697L160.664 19.7498C161.265 20.2703 162.006 20.5106 162.746 20.5106Z" fill="#431F20"/>
<path fill-rule="evenodd" clip-rule="evenodd" d="M176.961 27.4375C177.141 27.4375 177.301 27.3774 177.442 27.2773C179.684 25.5557 180.985 22.9531 180.985 20.1104C180.985 17.7081 180.044 15.4459 178.342 13.7443C163.548 1.03202 163.548 1.01199 163.468 0.971953C162.107 0.111123 160.285 0.411405 159.244 1.6526C158.183 2.91382 158.243 4.77562 159.364 5.97678C159.424 6.03684 159.424 6.03683 162.187 8.25898C163.128 9.01971 163.969 9.68035 164.049 9.76042C164.389 10.0407 164.869 10.0007 165.17 9.68036C165.45 9.36005 165.43 8.85957 165.11 8.55929C165.07 8.51925 165.07 8.51924 163.188 7.01779C161.967 6.03684 160.585 4.91575 160.465 4.81565C159.945 4.25511 159.925 3.31422 160.465 2.67361C160.986 2.05301 161.887 1.89284 162.567 2.31324C163.268 2.91382 172.397 10.7614 177.241 14.9254C178.603 16.2867 179.363 18.1485 179.363 20.1304C179.363 22.4527 178.302 24.5947 176.441 26.0161C176.1 26.2764 176.02 26.7969 176.3 27.1372C176.481 27.3374 176.721 27.4375 176.961 27.4375Z" fill="#431F20"/>
<path fill-rule="evenodd" clip-rule="evenodd" d="M158.883 24.7349C159.104 24.7349 159.324 24.6348 159.484 24.4546C159.764 24.1143 159.744 23.6138 159.404 23.3335C156.501 20.7911 150.936 15.9464 150.756 15.7863C150.255 15.2257 150.255 14.2848 150.796 13.6642C151.336 13.0436 152.237 12.9035 152.938 13.3239C153.178 13.5241 154.519 14.7052 155.64 15.7062C157.322 17.1876 157.322 17.2076 157.362 17.2277C157.702 17.5079 158.203 17.4479 158.483 17.0875C158.743 16.7472 158.703 16.2467 158.363 15.9864C158.283 15.9064 157.542 15.2658 156.701 14.505C153.939 12.0627 153.919 12.0627 153.859 12.0026C152.477 11.0817 150.635 11.342 149.574 12.6032C148.513 13.8444 148.533 15.6861 149.614 16.8873C149.654 16.9474 149.674 16.9674 158.343 24.5147C158.523 24.6748 158.703 24.7349 158.883 24.7349Z" fill="#431F20"/>
<path fill-rule="evenodd" clip-rule="evenodd" d="M152.276 31.2408C152.716 31.2408 153.077 30.8804 153.077 30.44C153.077 29.9996 152.716 29.6393 152.276 29.6393C151.255 29.6393 150.414 28.7984 150.414 27.7774C150.414 27.2569 150.634 26.7564 151.035 26.3961C151.095 26.3561 156.78 22.3322 160.804 26.1959C161.124 26.4962 161.625 26.4962 161.925 26.1759C162.225 25.8556 162.225 25.3551 161.905 25.0548C157.281 20.5905 150.774 24.4743 149.954 25.215C149.233 25.8756 148.812 26.8165 148.812 27.7774C148.812 29.6793 150.354 31.2408 152.276 31.2408Z" fill="#431F20"/>
<path fill-rule="evenodd" clip-rule="evenodd" d="M169.172 33.0229C169.232 33.0229 169.273 33.0229 169.333 33.0229C171.515 32.9828 173.517 31.9218 174.798 30.1601C175.058 29.7998 174.978 29.2993 174.618 29.039C174.257 28.7788 173.757 28.8588 173.497 29.2192C172.496 30.5805 170.974 31.3813 169.273 31.4213C168.192 31.4414 167.15 31.1611 166.25 30.5805C164.668 29.5195 159.103 26.3965 152.456 29.6796C152.056 29.8798 151.896 30.3603 152.096 30.7407C152.296 31.1411 152.777 31.3012 153.157 31.101C159.043 28.1982 163.947 30.9609 165.309 31.8818C166.53 32.6425 167.831 33.0229 169.172 33.0229Z" fill="#431F20"/>
<path fill-rule="evenodd" clip-rule="evenodd" d="M174.157 25.6155C174.297 25.6155 174.437 25.5755 174.557 25.5155C174.938 25.2953 175.078 24.8148 174.858 24.4144C173.496 22.0721 170.974 20.6107 168.271 20.6107C166.069 20.6107 163.987 21.5516 162.546 23.2132C162.265 23.5536 162.286 24.054 162.626 24.3343C162.966 24.6346 163.467 24.5946 163.747 24.2542C164.888 22.953 166.53 22.1923 168.271 22.1923C170.413 22.1923 172.395 23.3334 173.456 25.1952C173.616 25.4754 173.877 25.6155 174.157 25.6155Z" fill="#431F20"/>
<path fill-rule="evenodd" clip-rule="evenodd" d="M14.0237 121.468L13.2829 121.788C13.6433 122.609 13.2629 123.59 12.4221 123.95C11.6013 124.311 10.6204 123.93 10.26 123.11C10.24 123.07 10.22 123.03 10.22 122.989C10.2 122.949 9.95975 122.369 9.65946 121.688C9.25907 120.747 8.75859 119.586 8.71855 119.486C8.51835 118.785 8.91876 117.945 9.6795 117.624C10.4402 117.284 11.3211 117.584 11.7415 118.305C11.7615 118.365 12.262 119.486 12.6624 120.407C12.9827 121.128 13.2429 121.748 13.2629 121.768L14.0237 121.468ZM11.7815 125.672C12.2019 125.672 12.6424 125.592 13.0628 125.412C14.7043 124.691 15.4651 122.789 14.7444 121.148L14.7243 121.108C14.6643 120.988 14.4241 120.407 14.1238 119.746C13.1629 117.544 13.1629 117.544 13.1228 117.484C12.302 116.063 10.5403 115.482 9.03886 116.143C7.55744 116.784 6.77668 118.445 7.2171 119.987C7.23712 120.067 7.23712 120.067 8.21807 122.329C8.49834 122.969 8.71857 123.49 8.73859 123.55C8.73859 123.59 8.77858 123.67 8.81862 123.75C9.33912 124.951 10.5203 125.672 11.7815 125.672Z" fill="#431F20"/>
<path fill-rule="evenodd" clip-rule="evenodd" d="M14.9021 115.623C15.4627 115.623 16.0232 115.923 16.3235 116.423C16.3635 116.504 16.9041 117.725 17.3245 118.706C17.6047 119.346 17.845 119.867 17.845 119.907L17.865 119.967C18.2254 120.788 17.845 121.769 17.0042 122.129C16.6038 122.309 16.1634 122.309 15.743 122.149C15.3426 121.989 15.0223 121.689 14.8421 121.288C14.8221 121.248 14.8021 121.208 14.8021 121.168C14.782 121.108 14.5818 120.668 14.3416 120.087C13.9212 119.126 13.3407 117.785 13.3006 117.645C13.1004 116.924 13.5008 116.103 14.2415 115.763C14.4617 115.663 14.6819 115.623 14.9021 115.623ZM16.3435 123.851C16.784 123.851 17.2244 123.751 17.6248 123.57C19.2664 122.85 20.0271 120.948 19.3064 119.306L19.2464 119.186C19.2263 119.126 19.0061 118.646 18.7459 118.045C17.7049 115.683 17.7048 115.683 17.6648 115.623C16.844 114.201 15.0823 113.621 13.5809 114.281C12.0994 114.922 11.3187 116.584 11.7591 118.125C11.7791 118.205 11.7791 118.205 12.8602 120.688C13.0804 121.208 13.2606 121.628 13.2806 121.689C13.2806 121.709 13.3206 121.809 13.3607 121.889C13.701 122.67 14.3416 123.29 15.1424 123.61C15.5427 123.771 15.9431 123.851 16.3435 123.851Z" fill="#431F20"/>
<path fill-rule="evenodd" clip-rule="evenodd" d="M16.5055 139.165C18.3874 139.165 20.2091 138.565 21.7706 137.424C22.1309 137.163 22.211 136.663 21.9508 136.302C21.6905 135.942 21.19 135.862 20.8297 136.122C18.9679 137.484 16.6256 137.904 14.4035 137.243C12.5217 136.683 10.9601 135.442 10.0192 133.7C7.43675 127.954 2.51202 117.044 2.15167 116.223C1.95148 115.462 2.35187 114.642 3.09258 114.321C3.85332 114.001 4.75418 114.281 5.15457 115.002C5.19461 115.082 5.91529 116.844 6.51587 118.325C7.35668 120.347 7.35666 120.347 7.37668 120.387C7.57687 120.788 8.03738 120.948 8.43776 120.768C8.83815 120.587 8.99825 120.107 8.81807 119.726C8.77803 119.626 8.41774 118.746 7.99733 117.725C6.57596 114.281 6.57594 114.281 6.5359 114.201C5.71511 112.78 3.9534 112.199 2.45195 112.86C0.970521 113.5 0.189761 115.162 0.630186 116.704C0.650205 116.784 0.670246 116.804 8.59789 134.401C9.77903 136.563 11.6608 138.084 13.963 138.765C14.8039 139.045 15.6647 139.165 16.5055 139.165Z" fill="#431F20"/>
<path fill-rule="evenodd" clip-rule="evenodd" d="M23.8127 119.606C23.9328 119.606 24.0329 119.586 24.153 119.526C24.5534 119.346 24.7336 118.866 24.5534 118.465C19.7688 108.075 19.7688 108.055 19.7287 108.015C18.8679 106.634 17.1262 106.093 15.6448 106.754C14.1433 107.414 13.3826 109.096 13.8631 110.678C13.8831 110.758 13.8831 110.758 15.5047 114.221C15.9651 115.202 16.3454 116.023 16.3855 116.103C16.5656 116.503 17.0261 116.683 17.4265 116.523C17.8269 116.363 18.0271 115.903 17.8669 115.502C17.8469 115.462 17.8469 115.462 16.966 113.56C16.2854 112.099 15.4446 110.297 15.3645 110.137C15.1443 109.416 15.5247 108.556 16.2854 108.235C17.0261 107.895 17.927 108.175 18.3474 108.856C18.4074 108.996 21.4704 115.662 23.072 119.146C23.2121 119.426 23.5124 119.606 23.8127 119.606Z" fill="#431F20"/>
<path fill-rule="evenodd" clip-rule="evenodd" d="M24.7136 122.409C24.8337 122.409 24.9739 122.389 25.074 122.309C25.4744 122.109 25.6145 121.628 25.4143 121.228C22.8518 116.323 28.2971 112.019 28.3571 111.979C28.7975 111.719 29.338 111.639 29.8385 111.779C30.8195 112.059 31.3801 113.1 31.0798 114.081C30.9597 114.502 31.1999 114.942 31.6203 115.082C32.0407 115.202 32.4811 114.962 32.6212 114.542C33.1618 112.72 32.1207 110.798 30.2789 110.257C29.338 109.977 28.3371 110.117 27.4963 110.618C26.5554 111.198 21.03 116.303 23.9729 121.969C24.133 122.249 24.4133 122.409 24.7136 122.409Z" fill="#431F20"/>
<path fill-rule="evenodd" clip-rule="evenodd" d="M24.9938 135.762C25.0739 135.762 25.174 135.742 25.2541 135.722C27.296 134.981 28.8576 133.38 29.5182 131.318C29.9386 129.996 29.9586 128.595 29.5582 127.274C29.0377 125.652 27.7765 120.187 32.2008 115.402C32.5011 115.082 32.481 114.561 32.1607 114.281C31.8404 113.981 31.3199 114.001 31.0396 114.321C26.0348 119.747 27.4762 125.912 28.0167 127.674C28.337 128.735 28.317 129.816 27.9967 130.817C27.4962 132.419 26.295 133.64 24.7135 134.22C24.2931 134.361 24.0729 134.821 24.2331 135.241C24.3532 135.562 24.6735 135.762 24.9938 135.762Z" fill="#431F20"/>
<path fill-rule="evenodd" clip-rule="evenodd" d="M20.3485 134.401C20.5487 134.401 20.7489 134.321 20.909 134.181C21.2294 133.88 21.2494 133.36 20.9291 133.04C19.4677 131.498 18.9271 129.296 19.5277 127.254C20.0082 125.612 21.1893 124.251 22.7509 123.53C23.1512 123.35 23.3314 122.87 23.1512 122.469C22.971 122.069 22.4906 121.889 22.0902 122.069C20.1083 122.99 18.6069 124.691 18.0063 126.793C17.2456 129.376 17.9262 132.179 19.788 134.141C19.9281 134.321 20.1483 134.401 20.3485 134.401Z" fill="#431F20"/>
<path fill-rule="evenodd" clip-rule="evenodd" d="M128.034 140.806C130.597 140.806 132.519 139.625 133.74 137.283C133.94 136.883 133.8 136.402 133.399 136.202C132.999 136.002 132.518 136.142 132.318 136.542C130.937 139.205 128.835 139.225 128.054 139.225C127.113 139.225 126.353 138.464 126.353 137.543C126.353 136.622 127.113 135.862 128.034 135.862C128.475 135.862 128.835 135.501 128.835 135.061C128.835 134.621 128.475 134.26 128.034 134.26C126.212 134.26 124.751 135.742 124.751 137.543C124.751 139.325 126.232 140.806 128.034 140.806Z" fill="#431F20"/>
<path fill-rule="evenodd" clip-rule="evenodd" d="M131.678 124.431C132.139 125.472 132.979 126.133 133.56 125.872C134.16 125.612 134.261 124.571 133.82 123.51C133.36 122.469 132.519 121.809 131.938 122.069C131.358 122.329 131.238 123.39 131.678 124.431Z" fill="#431F20"/>
<path fill-rule="evenodd" clip-rule="evenodd" d="M121.807 128.335C122.168 129.416 122.969 130.116 123.569 129.916C124.17 129.716 124.37 128.675 124.01 127.594C123.649 126.513 122.848 125.812 122.248 126.013C121.647 126.213 121.447 127.254 121.807 128.335Z" fill="#431F20"/>
<path fill-rule="evenodd" clip-rule="evenodd" d="M74.262 340.8C74.7625 340.8 75.2831 340.88 75.7835 341.02C77.1448 341.42 78.2659 342.341 78.9266 343.582C80.3279 346.145 79.367 349.368 76.7845 350.769C74.222 352.171 70.9989 351.21 69.5976 348.627C68.9169 347.386 68.7768 345.945 69.1772 344.603C69.5776 343.242 70.4985 342.121 71.7397 341.46C72.5404 341.02 73.4012 340.8 74.262 340.8ZM74.2821 353.012C75.4232 353.012 76.5443 352.731 77.5653 352.171C80.9085 350.349 82.1497 346.165 80.3479 342.822C79.4671 341.2 78.0057 340.019 76.244 339.498C74.4823 338.978 72.6005 339.158 70.999 340.039C69.3774 340.92 68.1962 342.381 67.6757 344.143C67.1552 345.905 67.3354 347.766 68.2162 349.388C69.0971 351.01 70.5585 352.191 72.3202 352.711C72.9608 352.931 73.6215 353.012 74.2821 353.012Z" fill="#431F20"/>
<path fill-rule="evenodd" clip-rule="evenodd" d="M74.2814 345.084C74.3815 345.084 74.4816 345.104 74.5817 345.124C74.8419 345.204 75.0622 345.384 75.2023 345.624C75.4826 346.125 75.2824 346.745 74.7819 347.026C74.2814 347.286 73.6608 347.106 73.3805 346.605C73.1203 346.105 73.3005 345.484 73.801 345.204C73.9411 345.124 74.1012 345.084 74.2814 345.084ZM74.2814 348.747C74.7018 348.747 75.1222 348.647 75.5226 348.427C76.8038 347.746 77.2643 346.145 76.5836 344.864C76.2433 344.243 75.6828 343.803 75.0221 343.602C74.3415 343.402 73.6408 343.482 73.0202 343.823C71.739 344.503 71.2585 346.105 71.9592 347.386C72.4396 348.247 73.3405 348.747 74.2814 348.747Z" fill="#431F20"/>
<path fill-rule="evenodd" clip-rule="evenodd" d="M66.9548 331.591C67.0549 331.591 67.155 331.611 67.2551 331.631C67.5154 331.711 67.7356 331.891 67.8757 332.132C67.9958 332.372 68.0359 332.652 67.9558 332.913C67.8757 333.173 67.6955 333.393 67.4553 333.533C67.2151 333.673 66.9348 333.693 66.6746 333.613C66.4143 333.533 66.1941 333.353 66.054 333.113C65.7737 332.612 65.9739 331.992 66.4744 331.711C66.6345 331.631 66.7947 331.591 66.9548 331.591ZM66.9749 335.255C67.4153 335.255 67.8357 335.155 68.2161 334.934C68.8367 334.594 69.2771 334.054 69.4773 333.373C69.6775 332.692 69.5974 331.992 69.257 331.371C68.9167 330.75 68.3762 330.31 67.6955 330.11C67.0149 329.91 66.3142 329.99 65.6936 330.33C65.073 330.67 64.6326 331.211 64.4324 331.892C64.2322 332.572 64.3123 333.273 64.6326 333.893C64.9729 334.514 65.5335 334.974 66.1941 335.155C66.4543 335.215 66.7146 335.255 66.9749 335.255Z" fill="#431F20"/>
<path fill-rule="evenodd" clip-rule="evenodd" d="M59.6487 318.098C60.009 318.098 60.3694 318.298 60.5496 318.639C60.8298 319.139 60.6296 319.76 60.1291 320.04C59.6286 320.32 59.0081 320.12 58.7278 319.619C58.6077 319.379 58.5676 319.099 58.6477 318.839C58.7278 318.578 58.908 318.358 59.1482 318.218C59.3284 318.138 59.4885 318.098 59.6487 318.098ZM59.6687 321.762C60.0891 321.762 60.5095 321.661 60.9099 321.441C62.1911 320.761 62.6516 319.159 61.9709 317.878C61.2703 316.597 59.6687 316.136 58.4075 316.817C57.7869 317.157 57.3465 317.698 57.1463 318.378C56.9461 319.059 57.0261 319.76 57.3665 320.38C57.8269 321.261 58.7278 321.762 59.6687 321.762Z" fill="#431F20"/>
<path fill-rule="evenodd" clip-rule="evenodd" d="M52.3992 304.424C52.4993 304.424 52.5994 304.444 52.6994 304.464C52.9597 304.544 53.1799 304.725 53.32 304.965C53.6003 305.465 53.4001 306.086 52.8997 306.366C52.6594 306.486 52.3791 306.526 52.1189 306.446C51.8586 306.366 51.6384 306.186 51.4983 305.946C51.3782 305.706 51.3381 305.425 51.4182 305.165C51.4983 304.905 51.6784 304.685 51.9187 304.544C52.0588 304.464 52.239 304.424 52.3992 304.424ZM52.3992 308.088C52.8396 308.088 53.26 307.988 53.6404 307.768C54.9216 307.067 55.382 305.485 54.7014 304.204C54.361 303.584 53.8205 303.143 53.1399 302.943C52.4592 302.743 51.7585 302.823 51.1379 303.163C50.5173 303.503 50.0769 304.064 49.8767 304.725C49.6765 305.405 49.7566 306.106 50.0769 306.727C50.4173 307.347 50.9578 307.788 51.6384 307.988C51.8987 308.048 52.1589 308.088 52.3992 308.088Z" fill="#431F20"/>
<path fill-rule="evenodd" clip-rule="evenodd" d="M66.9533 327.327C68.8351 327.327 70.6569 328.327 71.6179 330.109C73.0192 332.672 72.0583 335.895 69.4758 337.296C68.2346 337.977 66.7932 338.117 65.4318 337.717C64.0705 337.316 62.9495 336.395 62.2889 335.154C60.9075 332.592 61.8484 329.348 64.4309 327.967C65.2316 327.527 66.0925 327.327 66.9533 327.327ZM66.9734 339.518C68.1145 339.518 69.2355 339.238 70.2565 338.677C73.5997 336.876 74.8409 332.672 73.0392 329.328C71.2175 325.985 67.0334 324.744 63.6902 326.546C60.3469 328.367 59.0858 332.552 60.9075 335.895C61.7884 337.516 63.2498 338.697 65.0114 339.218C65.6521 339.438 66.3127 339.518 66.9734 339.518Z" fill="#431F20"/>
<path fill-rule="evenodd" clip-rule="evenodd" d="M52.4 300.161C52.9005 300.161 53.421 300.241 53.9215 300.381C55.2828 300.781 56.4039 301.682 57.0645 302.943C58.4659 305.506 57.5049 308.729 54.9224 310.13C53.6812 310.811 52.2399 310.951 50.8786 310.551C49.5172 310.15 48.3961 309.249 47.7355 307.988C46.3342 305.426 47.2951 302.203 49.8776 300.801C50.6583 300.361 51.5192 300.161 52.4 300.161ZM52.42 312.372C53.5611 312.372 54.6822 312.092 55.7032 311.531C57.3248 310.651 58.5059 309.189 59.0264 307.428C59.5469 305.666 59.3668 303.784 58.4859 302.183C57.6051 300.561 56.1436 299.38 54.3819 298.859C52.6202 298.339 50.7584 298.539 49.1168 299.4C45.7736 301.222 44.5325 305.406 46.3342 308.749C47.215 310.37 48.6764 311.552 50.4381 312.072C51.0787 312.272 51.7594 312.372 52.42 312.372Z" fill="#431F20"/>
<path fill-rule="evenodd" clip-rule="evenodd" d="M59.6456 313.833C61.5274 313.833 63.3491 314.834 64.3101 316.616C65.7114 319.178 64.7505 322.422 62.1681 323.803C60.9269 324.484 59.4854 324.624 58.1241 324.223C56.7628 323.823 55.6418 322.922 54.9811 321.661C54.3005 320.42 54.1603 318.978 54.5607 317.617C54.9611 316.256 55.8619 315.135 57.1232 314.474C57.9239 314.033 58.7848 313.833 59.6456 313.833ZM59.6656 326.045C60.8067 326.045 61.9278 325.765 62.9488 325.204C66.292 323.403 67.5332 319.198 65.7315 315.855C63.9097 312.512 59.7257 311.271 56.3824 313.073C54.7609 313.953 53.5797 315.415 53.0592 317.177C52.5387 318.938 52.739 320.82 53.5998 322.422C54.4806 324.043 55.942 325.224 57.7037 325.745C58.3443 325.945 59.005 326.045 59.6656 326.045Z" fill="#431F20"/>
<path fill-rule="evenodd" clip-rule="evenodd" d="M86.5929 341.18C87.654 341.18 89.6159 340.859 90.6168 340.159L104.17 331.931C104.55 331.711 104.67 331.21 104.43 330.83C104.21 330.449 103.709 330.329 103.329 330.569L89.736 338.837C89.1154 339.278 87.5338 339.598 86.5929 339.598C85.3117 339.598 84.1106 338.978 83.3498 337.957C82.6892 336.795 68.5556 311.932 64.1513 303.383C64.1313 303.363 63.2905 301.722 63.2905 300.42C63.2905 297.398 65.7529 294.935 68.7758 294.935C70.2572 294.935 71.7186 295.716 73.7606 297.638C76.4031 300.12 84.2507 307.767 84.3307 307.848C84.6511 308.148 85.1515 308.148 85.4518 307.828C85.7521 307.507 85.7522 307.007 85.4318 306.686C85.3518 306.606 77.5042 298.939 74.8416 296.457C72.4593 294.234 70.6976 293.314 68.7557 293.314C64.852 293.314 61.6689 296.497 61.6689 300.4C61.6689 302.102 62.6699 304.024 62.7099 304.104C67.1943 312.852 81.8083 338.517 81.9484 338.777C81.9685 338.797 81.9885 338.817 81.9885 338.858C83.0896 340.319 84.8112 341.18 86.5929 341.18Z" fill="#431F20"/>
<path fill-rule="evenodd" clip-rule="evenodd" d="M86.2138 307.508C86.454 307.568 86.8344 307.708 87.2348 307.988C87.5751 308.228 88.1557 308.769 88.2157 309.57C88.5961 313.934 87.5151 315.836 86.8144 316.296C86.4941 316.496 86.3139 316.396 86.2539 316.356C85.8935 316.156 85.5732 315.415 85.6133 314.254C85.6333 313.934 85.6933 313.413 85.7534 312.753C85.9336 311.471 86.1537 309.55 86.2138 307.508ZM86.4941 318.018C86.8945 318.018 87.3149 317.898 87.6953 317.637C89.3969 316.556 90.1776 313.493 89.8373 309.429C89.6371 307.227 87.3749 305.846 85.9535 305.886C85.0527 305.926 84.6523 306.507 84.6323 307.087C84.5923 309.189 84.372 311.151 84.2119 312.573C84.1318 313.273 84.0718 313.814 84.0517 314.174C83.9717 315.836 84.5122 317.177 85.4731 317.737C85.7934 317.938 86.1338 318.018 86.4941 318.018Z" fill="#431F20"/>
<path fill-rule="evenodd" clip-rule="evenodd" d="M91.1975 311.311C92.4588 311.311 95.1813 310.09 95.7219 309.849C96.1222 309.669 96.3024 309.189 96.1223 308.788C95.9421 308.388 95.4616 308.208 95.0613 308.388C93.8601 308.929 91.8782 309.709 91.1975 309.709C90.9573 309.709 90.1565 309.289 89.5359 308.808C89.1756 308.548 88.6751 308.628 88.4148 308.969C88.1546 309.329 88.2147 309.829 88.575 310.09C88.9354 310.37 90.2566 311.311 91.1975 311.311Z" fill="#431F20"/>
<path fill-rule="evenodd" clip-rule="evenodd" d="M117.863 326.045L105.331 331.731C103.69 328.548 99.6259 328.147 99.4257 328.147C97.2436 328.147 95.522 326.426 95.522 324.304C95.522 323.543 95.8222 322.822 96.1625 322.162C99.4457 315.715 97.5039 310.791 96.5029 308.969L107.313 302.803L117.863 326.045ZM104.911 333.613C105.031 333.613 105.131 333.593 105.251 333.533L119.265 327.166C119.665 326.986 119.845 326.506 119.665 326.105L108.434 301.342C108.334 301.141 108.174 300.981 107.954 300.901C107.734 300.821 107.514 300.861 107.313 300.961L95.0215 307.968C94.8213 308.088 94.6812 308.268 94.6411 308.488C94.6011 308.709 94.6411 308.949 94.7812 309.129C94.9213 309.329 98.3847 314.294 94.7612 321.421C94.3608 322.222 93.9404 323.183 93.9404 324.284C93.9404 327.287 96.3828 329.729 99.3857 329.729C99.3456 329.729 103.189 330.109 104.17 333.052C104.25 333.272 104.41 333.433 104.611 333.533C104.711 333.593 104.811 333.613 104.911 333.613Z" fill="#431F20"/>
<path fill-rule="evenodd" clip-rule="evenodd" d="M104.95 319.259C105.33 319.259 105.71 319.179 106.051 319.039C106.811 318.738 107.392 318.158 107.712 317.397C108.033 316.636 108.033 315.815 107.732 315.055L103.508 304.385C103.348 303.984 102.888 303.764 102.467 303.944C102.067 304.104 101.847 304.565 102.027 304.985L106.251 315.655C106.391 316.016 106.391 316.416 106.231 316.776C106.071 317.137 105.791 317.417 105.45 317.557C105.09 317.697 104.709 317.697 104.349 317.537C103.989 317.377 103.709 317.097 103.568 316.736L99.5645 306.647C99.4044 306.226 98.9439 306.026 98.5235 306.206C98.1232 306.366 97.9029 306.827 98.0831 307.247L102.087 317.337C102.387 318.098 102.968 318.698 103.709 319.019C104.129 319.159 104.549 319.259 104.95 319.259Z" fill="#431F20"/>
<path fill-rule="evenodd" clip-rule="evenodd" d="M257.818 305.626C256.977 308.429 254.034 310.03 251.232 309.189C249.87 308.789 248.749 307.888 248.089 306.627C247.408 305.386 247.268 303.944 247.668 302.583C248.509 299.78 251.452 298.179 254.254 299.019C257.057 299.86 258.659 302.823 257.818 305.626ZM252.733 311.011C255.696 311.011 258.459 309.069 259.359 306.086C260.44 302.443 258.358 298.579 254.715 297.498C251.071 296.417 247.228 298.499 246.127 302.143C245.606 303.904 245.806 305.766 246.667 307.388C247.548 309.009 249.009 310.19 250.771 310.711C251.432 310.911 252.092 311.011 252.733 311.011Z" fill="#431F20"/>
<path fill-rule="evenodd" clip-rule="evenodd" d="M253.734 304.405C253.574 304.945 252.993 305.265 252.453 305.105C252.193 305.025 251.972 304.845 251.832 304.605C251.692 304.365 251.672 304.084 251.752 303.824C251.912 303.284 252.493 302.963 253.033 303.123C253.574 303.284 253.894 303.864 253.734 304.405ZM252.733 306.747C253.874 306.747 254.915 306.006 255.256 304.865C255.676 303.484 254.875 302.002 253.494 301.582C252.092 301.162 250.631 301.962 250.211 303.364C250.011 304.044 250.091 304.745 250.411 305.366C250.751 305.986 251.292 306.427 251.972 306.627C252.233 306.707 252.493 306.747 252.733 306.747Z" fill="#431F20"/>
<path fill-rule="evenodd" clip-rule="evenodd" d="M249.349 319.119C249.189 319.659 248.609 319.98 248.068 319.819C247.527 319.659 247.207 319.079 247.367 318.538C247.447 318.278 247.628 318.058 247.868 317.918C248.108 317.797 248.388 317.757 248.649 317.838C248.909 317.918 249.129 318.098 249.269 318.338C249.409 318.578 249.429 318.858 249.349 319.119ZM248.368 321.461C249.509 321.461 250.55 320.72 250.891 319.579C251.091 318.899 251.011 318.198 250.691 317.577C250.35 316.957 249.79 316.516 249.129 316.316C248.468 316.116 247.748 316.196 247.127 316.516C246.506 316.857 246.066 317.397 245.866 318.078C245.445 319.479 246.246 320.941 247.648 321.341C247.868 321.421 248.108 321.461 248.368 321.461Z" fill="#431F20"/>
<path fill-rule="evenodd" clip-rule="evenodd" d="M243.985 332.492C244.085 332.492 244.185 332.512 244.285 332.532C244.546 332.612 244.766 332.792 244.906 333.032C245.046 333.272 245.066 333.553 244.986 333.813C244.906 334.073 244.726 334.293 244.486 334.434C244.245 334.574 243.965 334.594 243.705 334.514C243.445 334.434 243.224 334.253 243.084 334.013C242.944 333.773 242.924 333.493 243.004 333.232C243.144 332.792 243.545 332.492 243.985 332.492ZM244.005 336.155C244.446 336.155 244.866 336.055 245.246 335.835C245.867 335.495 246.307 334.954 246.507 334.273C246.708 333.593 246.628 332.892 246.307 332.271C245.967 331.651 245.426 331.21 244.746 331.01C243.344 330.59 241.883 331.391 241.463 332.772C241.262 333.453 241.343 334.153 241.663 334.774C242.003 335.394 242.564 335.835 243.224 336.035C243.485 336.115 243.745 336.155 244.005 336.155Z" fill="#431F20"/>
<path fill-rule="evenodd" clip-rule="evenodd" d="M239.44 347.286C239.54 347.286 239.64 347.306 239.74 347.326C240.001 347.406 240.221 347.586 240.361 347.826C240.501 348.066 240.521 348.347 240.441 348.607C240.361 348.867 240.181 349.087 239.941 349.207C239.7 349.328 239.42 349.368 239.16 349.288C238.619 349.127 238.299 348.547 238.459 348.006C238.599 347.586 239 347.286 239.44 347.286ZM239.46 350.949C239.901 350.949 240.321 350.849 240.701 350.629C241.322 350.288 241.762 349.748 241.963 349.067C242.163 348.387 242.083 347.686 241.762 347.065C241.422 346.445 240.882 346.004 240.201 345.804C238.82 345.384 237.338 346.185 236.938 347.566C236.537 348.967 237.318 350.429 238.719 350.829C238.94 350.909 239.2 350.949 239.46 350.949Z" fill="#431F20"/>
<path fill-rule="evenodd" clip-rule="evenodd" d="M253.455 320.34C252.614 323.143 249.651 324.744 246.869 323.903C244.066 323.062 242.464 320.12 243.305 317.317C243.706 315.956 244.606 314.835 245.868 314.174C247.109 313.493 248.55 313.353 249.912 313.753C251.273 314.154 252.394 315.055 253.055 316.316C253.695 317.537 253.855 318.979 253.455 320.34ZM248.37 325.725C251.353 325.725 254.096 323.783 254.996 320.8C255.517 319.039 255.337 317.177 254.456 315.555C253.575 313.934 252.114 312.753 250.352 312.232C248.59 311.711 246.728 311.892 245.107 312.773C243.485 313.653 242.304 315.115 241.784 316.876C240.703 320.52 242.785 324.364 246.428 325.465C247.049 325.625 247.709 325.725 248.37 325.725Z" fill="#431F20"/>
<path fill-rule="evenodd" clip-rule="evenodd" d="M244.526 349.828C243.685 352.631 240.742 354.232 237.94 353.392C236.578 352.991 235.457 352.09 234.796 350.829C234.116 349.588 233.976 348.147 234.376 346.785C235.217 343.983 238.16 342.381 240.962 343.222C243.765 344.083 245.367 347.025 244.526 349.828ZM239.441 355.213C242.424 355.213 245.167 353.272 246.067 350.289C247.148 346.645 245.066 342.801 241.423 341.7C237.779 340.619 233.936 342.701 232.835 346.345C232.314 348.107 232.514 349.988 233.375 351.61C234.256 353.231 235.717 354.413 237.479 354.933C238.14 355.133 238.8 355.213 239.441 355.213Z" fill="#431F20"/>
<path fill-rule="evenodd" clip-rule="evenodd" d="M249.07 335.034C248.229 337.837 245.287 339.439 242.484 338.598C239.681 337.757 238.08 334.814 238.92 332.011C239.321 330.65 240.242 329.529 241.483 328.868C242.724 328.188 244.165 328.048 245.527 328.448C246.888 328.848 248.009 329.749 248.67 331.01C249.33 332.252 249.471 333.673 249.07 335.034ZM243.985 340.419C246.948 340.419 249.711 338.478 250.612 335.495C251.132 333.733 250.932 331.871 250.071 330.25C249.19 328.628 247.729 327.447 245.967 326.926C244.206 326.406 242.324 326.606 240.722 327.467C239.101 328.348 237.919 329.809 237.399 331.571C236.318 335.214 238.4 339.078 242.043 340.159C242.684 340.339 243.345 340.419 243.985 340.419Z" fill="#431F20"/>
<path fill-rule="evenodd" clip-rule="evenodd" d="M224.287 347.386C226.109 347.386 227.911 346.685 229.312 345.304C230.513 344.103 231.174 342.04 231.194 341.94C234.197 332.591 242.024 304.104 242.104 303.824C242.104 303.804 242.124 303.764 242.124 303.744C242.404 301.962 241.824 300.14 240.543 298.859C239.782 298.098 238.18 296.937 236.979 296.737L221.564 292.973C221.144 292.873 220.704 293.133 220.603 293.554C220.503 293.974 220.764 294.415 221.184 294.515L236.639 298.298C237.4 298.438 238.721 299.319 239.402 300C240.302 300.901 240.723 302.182 240.543 303.463C240.182 304.745 232.595 332.331 229.652 341.48C229.652 341.5 229.092 343.282 228.171 344.183C226.029 346.325 222.545 346.325 220.403 344.183C219.342 343.122 218.882 341.56 218.782 338.737C218.662 335.114 218.541 324.163 218.541 324.043C218.541 323.603 218.181 323.242 217.741 323.242H217.721C217.28 323.242 216.92 323.603 216.92 324.063C216.92 324.163 217.06 335.134 217.18 338.777C217.28 342.041 217.881 343.922 219.262 345.304C220.664 346.705 222.465 347.386 224.287 347.386Z" fill="#431F20"/>
<path fill-rule="evenodd" clip-rule="evenodd" d="M222.484 316.276C222.604 316.276 222.684 316.276 222.784 316.296C223.145 316.376 223.205 316.577 223.225 316.657C223.325 317.057 223.045 317.818 222.184 318.598C221.944 318.819 221.523 319.139 221.003 319.559C219.982 320.38 218.48 321.581 216.999 322.963C216.859 322.742 216.699 322.382 216.619 321.902C216.559 321.481 216.518 320.7 217.039 320.08C219.561 317.057 221.523 316.276 222.484 316.276ZM216.999 324.704C217.319 324.704 217.6 324.564 217.82 324.364C219.321 322.923 220.863 321.701 221.984 320.801C222.544 320.36 222.965 320 223.245 319.78C224.486 318.659 225.047 317.337 224.746 316.256C224.546 315.475 223.946 314.935 223.125 314.755C221.163 314.314 218.42 315.916 215.798 319.059C214.376 320.761 214.997 323.343 216.018 324.304C216.358 324.584 216.699 324.704 216.999 324.704Z" fill="#431F20"/>
<path fill-rule="evenodd" clip-rule="evenodd" d="M216.378 320.38C216.418 320.38 216.458 320.38 216.498 320.38C216.939 320.32 217.239 319.899 217.179 319.479C217.099 319.019 216.838 317.437 216.178 316.777C215.277 315.896 212.494 314.815 211.934 314.614C211.513 314.454 211.053 314.674 210.913 315.075C210.753 315.495 210.973 315.956 211.393 316.096C212.634 316.556 214.576 317.417 215.057 317.898C215.237 318.078 215.497 318.959 215.597 319.719C215.637 320.1 215.978 320.38 216.378 320.38Z" fill="#431F20"/>
<path fill-rule="evenodd" clip-rule="evenodd" d="M220.622 292.293C219.541 295.716 222.144 298.859 222.264 298.999C223.805 300.541 223.805 302.983 222.304 304.485C221.763 305.025 221.043 305.305 220.342 305.546C213.475 307.788 211.353 312.653 210.753 314.634L198.761 311.331L207.73 287.448L220.622 292.293ZM211.333 316.416C211.494 316.416 211.634 316.376 211.774 316.296C211.974 316.176 212.094 315.976 212.134 315.756C212.174 315.475 213.255 309.55 220.843 307.067C221.683 306.787 222.664 306.407 223.445 305.626C225.567 303.504 225.567 300.06 223.445 297.938C223.445 297.938 221.023 294.975 222.404 292.213C222.504 292.013 222.524 291.772 222.424 291.572C222.344 291.352 222.164 291.192 221.964 291.112L207.57 285.707C207.149 285.546 206.689 285.767 206.529 286.167L196.96 311.612C196.879 311.812 196.899 312.052 197 312.252C197.1 312.452 197.28 312.593 197.5 312.653L211.133 316.396C211.193 316.416 211.273 316.416 211.333 316.416Z" fill="#431F20"/>
<path fill-rule="evenodd" clip-rule="evenodd" d="M207.649 315.235C207.949 315.235 208.25 315.055 208.39 314.754L212.694 304.785C213.375 303.243 212.654 301.422 211.112 300.761C209.571 300.1 207.769 300.821 207.089 302.363L202.544 312.913C202.364 313.313 202.564 313.794 202.965 313.974C203.365 314.154 203.845 313.954 204.026 313.553L208.57 303.003C208.89 302.262 209.751 301.922 210.472 302.222C211.213 302.543 211.533 303.404 211.213 304.144L206.908 314.094C206.728 314.494 206.928 314.975 207.329 315.155C207.449 315.215 207.549 315.235 207.649 315.235Z" fill="#431F20"/>
</svg>
