<svg viewBox="0 0 530 360" fill="none" xmlns="http://www.w3.org/2000/svg">
<path d="M133.21 296.75L30.2695 301.508L32.805 356.366L135.746 351.609L133.21 296.75Z" fill="#8AB7C8"/>
<path fill-rule="evenodd" clip-rule="evenodd" d="M135.74 351.626L125.547 349.693C98.0203 344.494 69.6714 345.797 42.7575 353.524L32.794 356.371L28.6897 267.358L38.6532 264.511C65.5863 256.79 93.9351 255.488 121.443 260.68L131.636 262.613L135.74 351.626Z" fill="#A7DAEE"/>
<path d="M77.7969 345.233C65.9383 346.186 54.1813 348.302 42.6932 351.596L32.7297 354.443" stroke="#2B2A29" stroke-width="2.0001" stroke-miterlimit="10" stroke-linecap="round" stroke-linejoin="round"/>
<path d="M135.65 349.71L125.457 347.777C114.391 345.682 103.204 344.648 92.0118 344.65" stroke="#2B2A29" stroke-width="2.0001" stroke-miterlimit="10" stroke-linecap="round" stroke-linejoin="round"/>
<path fill-rule="evenodd" clip-rule="evenodd" d="M121.607 260.523C93.9848 255.289 65.5195 256.614 38.4959 264.346L28.4802 267.218L30.0565 301.488L32.5962 356.56L135.962 351.793L133.403 296.713L131.827 262.443L121.607 260.523Z" stroke="#2B2A29" stroke-width="2.0001" stroke-miterlimit="10" stroke-linecap="round" stroke-linejoin="round"/>
<g clip-path="url(#clip0)">
<path fill-rule="evenodd" clip-rule="evenodd" d="M410.972 267.621C408.984 271.104 383.523 270.709 381.951 268.429C381.21 272.038 380.722 274.946 380.596 276.491C380 284.104 413.086 284.606 412.544 276.257C412.598 274.785 412.002 271.607 410.972 267.621Z" fill="white" stroke="black" stroke-width="1.3496" stroke-miterlimit="10"/>
<path fill-rule="evenodd" clip-rule="evenodd" d="M406.057 251.623L405.931 251.677C404.81 253.346 394.113 255.268 385.801 252.79C384.247 258.23 382.909 263.85 381.97 268.357C383.542 270.637 409.021 271.032 410.99 267.549L406.057 251.623Z" fill="#FBBF3D" stroke="black" stroke-width="1.3499" stroke-miterlimit="10"/>
<path fill-rule="evenodd" clip-rule="evenodd" d="M395.432 232.752C392.487 232.698 388.855 242.16 385.909 252.413L385.801 252.79C394.113 255.268 404.792 253.346 405.931 251.677L406.003 251.479C402.461 241.694 398.251 232.806 395.432 232.752Z" fill="#FEFEFE" stroke="black" stroke-width="1.3499" stroke-miterlimit="10"/>
<path fill-rule="evenodd" clip-rule="evenodd" d="M471.345 218.496C469.357 221.979 443.896 221.584 442.324 219.304C441.583 222.913 441.095 225.821 440.969 227.366C440.373 234.979 473.459 235.481 472.917 227.132C472.989 225.678 472.375 222.5 471.345 218.496Z" fill="white" stroke="black" stroke-width="1.3496" stroke-miterlimit="10"/>
<path fill-rule="evenodd" clip-rule="evenodd" d="M466.43 202.516L466.304 202.569C465.183 204.239 454.486 206.16 446.174 203.683C444.62 209.123 443.282 214.743 442.343 219.25C443.915 221.53 469.394 221.925 471.363 218.442L466.43 202.516Z" fill="#FBBF3D" stroke="black" stroke-width="1.3499" stroke-miterlimit="10"/>
<path fill-rule="evenodd" clip-rule="evenodd" d="M455.823 183.645C452.877 183.591 449.245 193.053 446.3 203.306L446.191 203.683C454.504 206.161 465.183 204.239 466.322 202.57L466.394 202.372C462.834 192.569 458.624 183.681 455.823 183.645Z" fill="#FEFEFE" stroke="black" stroke-width="1.3499" stroke-miterlimit="10"/>
<path fill-rule="evenodd" clip-rule="evenodd" d="M526.566 274.48C524.579 277.963 499.118 277.568 497.546 275.288C496.805 278.897 496.317 281.805 496.191 283.35C495.594 290.962 528.681 291.465 528.139 283.116C528.193 281.644 527.578 278.466 526.566 274.48Z" fill="white" stroke="black" stroke-width="1.3496" stroke-miterlimit="10"/>
<path fill-rule="evenodd" clip-rule="evenodd" d="M521.652 258.482L521.525 258.535C520.405 260.205 509.708 262.126 501.395 259.649C499.841 265.089 498.504 270.709 497.564 275.216C499.137 277.496 524.615 277.891 526.585 274.408L521.652 258.482Z" fill="#FBBF3D" stroke="black" stroke-width="1.3499" stroke-miterlimit="10"/>
<path fill-rule="evenodd" clip-rule="evenodd" d="M511.027 239.611C508.081 239.557 504.449 249.019 501.504 259.272L501.396 259.649C509.708 262.127 520.387 260.205 521.526 258.536L521.598 258.338C518.038 248.552 513.846 239.665 511.027 239.611Z" fill="#FEFEFE" stroke="black" stroke-width="1.3499" stroke-miterlimit="10"/>
</g>
<path fill-rule="evenodd" clip-rule="evenodd" d="M253.01 163.771C252.712 163.75 252.436 163.728 252.181 163.707C250.205 163.601 249.036 163.771 248.93 164.217C248.802 164.684 249.759 165.386 251.522 166.257L253.01 163.771Z" fill="#469A37"/>
<path fill-rule="evenodd" clip-rule="evenodd" d="M240.876 209.095C229.721 201.785 221.178 194.241 222.007 192.839C223.027 191.139 235.139 197.004 250.757 206.12C251.714 206.672 252.67 207.246 253.647 207.82C270.498 217.913 283.29 227.539 282.227 229.345C281.377 230.748 272.347 226.965 260.404 220.463L256.495 218.317L240.876 209.095Z" fill="#40A4CE"/>
<path fill-rule="evenodd" clip-rule="evenodd" d="M260.852 212.685L253.074 207.437C245.765 210.837 236.309 224.033 236.309 224.033C225.705 237.802 214.103 255.821 204.966 271.695L214.868 276.816C221.753 265.15 230.741 250.934 238.476 240.394L260.852 212.685Z" fill="#FDD491"/>
<path fill-rule="evenodd" clip-rule="evenodd" d="M277.997 263.047C275.745 261.368 258.979 247.683 258.979 247.683C247.462 238.376 245.656 221.504 254.963 209.987L244.997 202.593C231.376 219.464 233.862 242.839 250.862 257.798C250.862 257.798 258.958 265.001 262.528 267.891C264.695 269.634 266.884 271.334 269.094 272.991L277.997 263.047Z" fill="#FDD491"/>
<path fill-rule="evenodd" clip-rule="evenodd" d="M301.054 176.456C301.522 196.494 294.212 214.875 281.93 228.623L281.909 228.92C282.992 227.114 270.2 217.488 253.35 207.395C252.372 206.821 251.416 206.247 250.46 205.695C234.863 196.579 222.751 190.714 221.731 192.414L222.283 191.777C237.136 187.421 247.039 177.561 253.52 163.749L253.541 163.537C258.619 163.962 267.757 165.725 278.041 168.403C288.347 171.08 296.379 173.736 300.459 175.67L301.054 176.456Z" fill="#93C8E3"/>
<path fill-rule="evenodd" clip-rule="evenodd" d="M321.388 122.929C324.3 136.89 319.03 151.913 306.705 160.795C304.325 162.495 301.818 163.898 299.226 164.981L297.249 155.865C297.674 155.653 298.099 155.419 298.524 155.185C299.438 154.675 300.331 154.102 301.202 153.464C311.635 145.942 315.566 132.725 311.784 121.123L321.388 122.929Z" fill="#FDD491"/>
<path fill-rule="evenodd" clip-rule="evenodd" d="M276.128 63.3677C273.876 66.555 272.048 70.0612 270.688 73.886L271.623 74.3748C273.387 75.246 275.385 76.2022 275.98 76.4147C282.206 78.6671 283.629 70.5924 285.117 66.2151L285.159 66.0026C281.844 65.3014 278.848 64.0264 276.362 62.0927L276.128 63.3677Z" fill="#FAB835"/>
<path fill-rule="evenodd" clip-rule="evenodd" d="M301.329 115.3C298.567 121.101 296.314 127.264 295.868 134.042C295.316 142.223 295.911 149.065 297.143 155.461C297.738 158.564 298.46 161.56 299.289 164.535C300.458 168.827 301.818 173.077 303.157 177.645C303.56 176.073 293.212 172.099 277.764 168.083C262.316 164.067 249.481 162.091 249.077 163.663C248.95 164.131 249.885 164.832 251.67 165.703L249.417 163.387C254.135 155.589 257.067 146.728 257.705 137.208C258.044 132.002 257.705 126.902 256.706 121.972L253.54 112.049C252.86 110.179 252.668 108.097 253.115 106.014C253.476 104.272 254.241 102.742 255.282 101.446L256.6 99.3633C257.067 98.5771 258.023 97.0897 259.213 95.1772L268.18 101.977C272.558 94.901 273.344 84.4676 273.323 74.5018L277.7 76.4992L277.381 80.3665C276.85 88.1862 281.419 95.1985 288.261 98.2159L301.329 115.3Z" fill="#26B5E4"/>
<path fill-rule="evenodd" clip-rule="evenodd" d="M309.725 50.3628C308.598 49.9591 307.515 49.5129 306.473 49.0241C293.724 42.9469 286.329 29.4961 287.647 15.7479L287.54 16.1091C285.692 16.9378 281.633 19.7427 276.597 19.0203L277.83 20.019C273.856 31.6635 266.057 41.8419 270.414 53.5927C273.643 62.3049 281.357 66.1298 290.643 66.3848L285.097 65.981C283.631 70.3796 282.186 78.433 275.96 76.2019C274.833 75.7981 268.65 75.2457 268.65 75.2457L269.521 77.2218C269.521 74.4169 267.247 72.9933 264.443 72.9933C261.638 72.9933 259.364 75.2669 259.364 78.0718V78.0506V78.3693L259.64 92.33V93.0737C260.108 102.381 256.07 111.731 248.017 117.702C237.902 125.203 224.515 125.118 214.634 118.467L208.472 112.644L195.106 98.4498C194.405 97.7273 193.236 97.7061 192.493 98.4073L192.472 98.8323L191.94 98.3223C191.239 97.5786 190.07 97.5786 189.327 98.2798C188.604 98.981 188.583 100.15 189.284 100.893L191.26 101.042C190.559 100.32 189.369 100.298 188.647 101C187.903 101.701 187.903 102.87 188.604 103.613L189.348 104.357L191.579 105.483C190.878 104.74 189.688 104.718 188.965 105.441C188.243 106.142 188.753 106.758 189.454 107.502L189.794 107.842L201.099 119.019L201.12 118.998C202.777 120.145 204.711 120.931 206.815 121.25C207.473 121.356 208.153 121.399 208.833 121.399L206.815 121.25C219.394 134 240.388 134.637 253.627 124.82C254.689 124.034 255.688 123.205 256.623 122.355C262.998 116.49 266.907 108.777 268.097 100.66C268.246 99.6823 268.352 98.726 268.416 97.7486L269.139 100.681C269.139 100.681 271.306 96.9411 272.432 88.5902C272.878 85.1903 273.325 74.9057 273.325 74.9057L277.702 76.5206C277.702 76.5206 277.66 86.8052 279.126 89.8014C280.528 92.6488 288.242 98.6198 288.242 98.6198L309.725 50.3628Z" fill="#FDD491"/>
<path fill-rule="evenodd" clip-rule="evenodd" d="M334.734 35.5099C335.287 21.4642 326.744 8.0772 312.805 3.12613C295.636 -2.97239 276.788 6.01603 270.689 23.1641C269.01 27.8815 269.053 35.8712 270.328 40.3122L270.477 39.526C272.219 33.1088 275.853 26.7977 278.19 19.9768L276.958 18.978C281.972 19.7005 286.052 16.9169 287.901 16.0669L288.007 15.7057C286.69 29.4539 294.084 42.9047 306.834 48.9819C307.875 49.4919 308.959 49.9381 310.085 50.3206L308.279 50.2144C308.109 51.2981 307.556 52.3393 306.621 53.0618C304.964 54.358 302.69 54.3155 301.097 53.1043C300.799 52.8918 300.544 52.6155 300.289 52.318L301.713 54.3792C295.699 58.7141 290.897 64.8763 288.22 72.3773C281.229 92.0753 291.534 113.707 311.232 120.698C330.038 127.37 350.607 118.276 358.533 100.299L358.427 100.256C339.09 93.3928 326.829 76.5634 328.806 58.0766L334.734 35.5099Z" fill="#FAB835"/>
<path fill-rule="evenodd" clip-rule="evenodd" d="M269.032 273.735C269.244 273.735 269.478 273.629 269.627 273.437C269.882 273.119 269.797 272.651 269.478 272.396C267.268 270.739 265.058 269.039 262.933 267.318C259.406 264.47 251.374 257.309 251.289 257.245C234.502 242.456 232.058 219.677 245.488 203.06C245.743 202.741 245.7 202.274 245.381 202.019C245.063 201.764 244.595 201.806 244.34 202.125C230.401 219.401 232.908 243.03 250.311 258.35C250.396 258.414 258.471 265.596 262.02 268.465C264.166 270.207 266.376 271.929 268.607 273.586C268.713 273.692 268.862 273.735 269.032 273.735Z" fill="#431F20"/>
<path fill-rule="evenodd" clip-rule="evenodd" d="M204.942 271.993C205.197 271.993 205.452 271.865 205.579 271.631C215.439 254.483 227.126 236.698 236.858 224.054C237.113 223.736 237.05 223.268 236.731 223.013C236.412 222.758 235.945 222.822 235.69 223.141C225.766 236.018 214.334 253.421 204.305 270.888C204.092 271.249 204.219 271.695 204.581 271.886C204.708 271.971 204.836 271.993 204.942 271.993Z" fill="#431F20"/>
<path fill-rule="evenodd" clip-rule="evenodd" d="M214.08 278.431C214.335 278.431 214.59 278.303 214.718 278.07C221.369 266.808 231.271 250.998 239.048 240.416C239.282 240.076 239.218 239.63 238.899 239.375C238.581 239.12 238.113 239.205 237.858 239.545C230.038 250.169 220.136 266.021 213.464 277.326C213.252 277.666 213.379 278.133 213.719 278.325C213.825 278.388 213.953 278.431 214.08 278.431Z" fill="#431F20"/>
<path fill-rule="evenodd" clip-rule="evenodd" d="M248.932 227.071C249.144 227.071 249.357 226.965 249.506 226.795C253.373 221.993 257.368 217.254 261.405 212.728C261.682 212.43 261.66 211.963 261.342 211.687C261.044 211.41 260.577 211.432 260.3 211.75C256.263 216.298 252.247 221.058 248.358 225.881C248.103 226.2 248.146 226.667 248.465 226.922C248.613 227.029 248.762 227.071 248.932 227.071Z" fill="#431F20"/>
<path fill-rule="evenodd" clip-rule="evenodd" d="M277.891 263.79C278.124 263.79 278.337 263.684 278.486 263.492C278.719 263.152 278.656 262.706 278.337 262.451C276.106 260.794 259.51 247.237 259.34 247.109C253.921 242.732 250.522 236.506 249.799 229.579C249.055 222.651 251.074 215.852 255.43 210.433C255.685 210.114 255.643 209.647 255.324 209.392C255.005 209.137 254.538 209.179 254.283 209.498C249.672 215.214 247.547 222.396 248.333 229.727C249.119 237.037 252.689 243.624 258.426 248.236C259.106 248.788 275.213 261.941 277.466 263.62C277.593 263.747 277.742 263.79 277.891 263.79Z" fill="#431F20"/>
<path fill-rule="evenodd" clip-rule="evenodd" d="M280.825 229.982C281.675 229.982 282.036 229.685 282.249 229.324C282.652 228.644 283.396 227.39 274.493 220.696C269.074 216.617 261.594 211.687 253.413 206.778C252.436 206.204 251.48 205.631 250.523 205.057C222.708 188.801 221.263 191.245 220.775 192.031C219.117 194.815 233.992 205.418 239.856 209.286C240.196 209.519 240.664 209.413 240.876 209.073C241.089 208.733 241.004 208.266 240.664 208.053C229.976 201.062 222.836 194.624 222.135 192.86C223.664 192.754 230.953 195.367 249.759 206.353C250.715 206.906 251.671 207.479 252.648 208.053C270.052 218.465 280.102 226.519 280.867 228.516C279.444 228.644 272.941 226.412 260.128 219.421L256.218 217.275C255.857 217.084 255.411 217.212 255.22 217.573C255.028 217.934 255.156 218.38 255.517 218.571L259.427 220.718C265.377 223.969 270.625 226.54 274.578 228.176C277.914 229.515 279.762 229.982 280.825 229.982Z" fill="#431F20"/>
<path fill-rule="evenodd" clip-rule="evenodd" d="M286.392 223.523C286.562 223.523 286.732 223.459 286.881 223.353C287.2 223.077 287.221 222.63 286.966 222.312C285.5 220.591 282.355 217.956 277.914 214.747C277.574 214.513 277.128 214.577 276.873 214.917C276.618 215.257 276.703 215.703 277.043 215.958C281.335 219.061 284.48 221.674 285.84 223.289C285.989 223.438 286.18 223.523 286.392 223.523Z" fill="#431F20"/>
<path fill-rule="evenodd" clip-rule="evenodd" d="M273.685 213.408C273.918 213.408 274.152 213.302 274.301 213.089C274.534 212.749 274.449 212.282 274.109 212.069C269.626 208.988 264.42 205.673 259.044 202.444C258.683 202.231 258.236 202.337 258.024 202.699C257.811 203.038 257.939 203.506 258.279 203.718C263.634 206.927 268.818 210.242 273.281 213.281C273.387 213.366 273.536 213.408 273.685 213.408Z" fill="#431F20"/>
<path fill-rule="evenodd" clip-rule="evenodd" d="M255.752 202.104C256.007 202.104 256.262 201.976 256.389 201.743C256.602 201.381 256.474 200.935 256.113 200.723C255.263 200.213 254.413 199.724 253.584 199.256C247.188 195.58 241.493 192.52 237.116 190.417C236.755 190.247 236.309 190.396 236.117 190.757C235.947 191.118 236.096 191.564 236.457 191.734C240.813 193.817 246.466 196.855 252.84 200.51C253.669 200.999 254.519 201.488 255.369 201.976C255.497 202.083 255.624 202.104 255.752 202.104Z" fill="#431F20"/>
<path fill-rule="evenodd" clip-rule="evenodd" d="M303.158 178.75C303.498 178.75 303.796 178.538 303.881 178.198C304.115 177.306 303.753 176.137 296.677 173.459C292.045 171.717 285.394 169.677 277.957 167.743C270.456 165.788 263.337 164.259 257.898 163.43C248.824 162.027 248.527 163.175 248.357 163.876C248.123 164.79 248.952 165.597 251.353 166.766C251.714 166.957 252.16 166.787 252.33 166.426C252.5 166.065 252.352 165.618 251.99 165.427C250.928 164.896 250.354 164.535 250.078 164.301C252.394 163.876 262.381 165.236 277.596 169.188C293.639 173.353 301.692 176.817 302.415 177.986C302.393 178.325 302.627 178.665 302.967 178.75C303.031 178.729 303.095 178.75 303.158 178.75Z" fill="#431F20"/>
<path fill-rule="evenodd" clip-rule="evenodd" d="M280.037 53.7633C281.1 53.7633 282.226 53.5934 283.352 53.2321C283.735 53.1046 283.968 52.7009 283.841 52.2971C283.713 51.9147 283.288 51.6809 282.906 51.8084C281.376 52.2972 276.106 53.4234 272.919 47.7498C272.706 47.3886 272.26 47.2611 271.899 47.4736C271.538 47.6648 271.41 48.1323 271.623 48.4723C273.556 51.9359 276.574 53.7633 280.037 53.7633Z" fill="#431F20"/>
<path fill-rule="evenodd" clip-rule="evenodd" d="M290.726 67.1076C291.13 67.1076 291.449 66.7888 291.47 66.3851C291.491 65.9814 291.151 65.6414 290.747 65.6201C283.841 65.4289 274.853 63.1552 271.198 53.3168C268.074 44.8809 271.453 37.2099 275.023 29.0927C276.277 26.2453 277.573 23.2705 278.614 20.2318C278.741 19.8493 278.529 19.4243 278.147 19.2968C277.764 19.1694 277.339 19.3606 277.212 19.7643C276.192 22.7605 274.917 25.6716 273.663 28.4978C269.966 36.8912 266.459 44.8384 269.796 53.8268C272.877 62.114 280.314 66.8313 290.726 67.1076C290.705 67.1076 290.726 67.1076 290.726 67.1076Z" fill="#431F20"/>
<path fill-rule="evenodd" clip-rule="evenodd" d="M278.319 19.849C281.952 19.849 284.949 18.2766 286.84 17.2991C287.243 17.0866 287.605 16.8954 287.902 16.7679C288.263 16.5979 288.455 16.1729 288.263 15.7904C288.093 15.4292 287.668 15.2592 287.286 15.4292C286.967 15.5779 286.585 15.7692 286.139 16.0029C284.099 17.0654 280.699 18.8503 276.746 18.2766C276.343 18.2128 275.96 18.489 275.918 18.914C275.854 19.3178 276.151 19.7003 276.555 19.7427C277.171 19.8065 277.766 19.849 278.319 19.849Z" fill="#431F20"/>
<path fill-rule="evenodd" clip-rule="evenodd" d="M278.083 77.3071C278.869 77.3071 279.591 77.1371 280.271 76.7971C283.097 75.3734 284.351 71.2935 285.329 67.9999C285.52 67.3624 285.711 66.7462 285.902 66.1937C286.03 65.8112 285.817 65.3863 285.435 65.2588C285.052 65.1313 284.627 65.3438 284.5 65.7262C284.309 66.3 284.117 66.9162 283.926 67.5749C283.012 70.5923 281.886 74.3322 279.613 75.4584C278.678 75.9259 277.594 75.9259 276.319 75.4584C275.193 75.0546 265.163 72.3772 264.738 72.2497C264.356 72.1435 263.931 72.3772 263.824 72.781C263.718 73.1635 263.952 73.5884 264.356 73.6947C267.947 74.6509 274.938 76.5633 275.809 76.8608C276.595 77.1583 277.36 77.3071 278.083 77.3071Z" fill="#431F20"/>
<path fill-rule="evenodd" clip-rule="evenodd" d="M303.562 54.8041C304.709 54.8041 305.857 54.4217 306.813 53.6779C307.854 52.8492 308.555 51.6593 308.747 50.3418C308.81 49.9381 308.534 49.5556 308.13 49.4918C307.727 49.4281 307.344 49.7043 307.281 50.1081C307.132 51.043 306.643 51.893 305.899 52.488C304.539 53.5504 302.648 53.5717 301.288 52.5092C301.055 52.318 300.821 52.1055 300.608 51.8505C300.353 51.5318 299.886 51.468 299.567 51.723C299.248 51.978 299.185 52.4455 299.44 52.7642C299.716 53.1042 300.035 53.4229 300.353 53.6779C301.309 54.4429 302.436 54.8041 303.562 54.8041Z" fill="#431F20"/>
<path fill-rule="evenodd" clip-rule="evenodd" d="M309.807 51.1068C310.105 51.1068 310.402 50.9155 310.509 50.618C310.636 50.2356 310.445 49.8106 310.062 49.6831C308.979 49.3006 307.916 48.8544 306.875 48.3656C294.572 42.5009 287.156 29.4113 288.452 15.8118C288.494 15.4081 288.197 15.0469 287.793 15.0044C287.389 14.9619 287.028 15.2594 286.986 15.6631C285.626 29.8788 293.36 43.5421 306.237 49.6831C307.321 50.1931 308.426 50.6606 309.552 51.0643C309.637 51.0855 309.722 51.1068 309.807 51.1068Z" fill="#431F20"/>
<path fill-rule="evenodd" clip-rule="evenodd" d="M285.797 31.3236C285.839 31.3236 285.882 31.3236 285.924 31.3024C286.328 31.2386 286.583 30.8561 286.519 30.4524C285.648 25.5226 286.243 20.9328 288.389 16.0029C288.559 15.6205 288.389 15.1955 288.007 15.0255C287.624 14.8555 287.199 15.0255 287.029 15.4079C284.756 20.614 284.139 25.4801 285.074 30.7074C285.138 31.0686 285.457 31.3236 285.797 31.3236Z" fill="#431F20"/>
<path fill-rule="evenodd" clip-rule="evenodd" d="M272.919 42.7772C273.047 42.7772 273.174 42.7559 273.281 42.6709C273.642 42.4584 273.769 42.0122 273.557 41.6509C273.089 40.8222 273.387 39.781 274.194 39.3135C275.023 38.846 276.064 39.1435 276.532 39.951C276.744 40.3122 277.19 40.4397 277.53 40.2272C277.892 40.0147 277.998 39.5685 277.807 39.2285C276.936 37.6986 274.981 37.1674 273.451 38.0386C271.921 38.9098 271.389 40.8647 272.239 42.3947C272.409 42.6497 272.664 42.7772 272.919 42.7772Z" fill="#431F20"/>
<path fill-rule="evenodd" clip-rule="evenodd" d="M238.643 234.19C239.387 234.19 240.109 233.935 240.747 233.468C241.066 233.213 241.129 232.766 240.896 232.426C240.641 232.108 240.194 232.023 239.854 232.278C239.26 232.724 238.537 232.809 237.921 232.554C237.538 232.384 237.113 232.554 236.943 232.936C236.773 233.319 236.943 233.744 237.326 233.914C237.751 234.105 238.197 234.19 238.643 234.19Z" fill="#431F20"/>
<path fill-rule="evenodd" clip-rule="evenodd" d="M280.25 27.0737C280.442 27.0737 280.633 26.9887 280.782 26.8399C281.058 26.5424 281.058 26.075 280.76 25.7987C279.889 24.9487 278.636 24.6513 277.424 24.9913C277.042 25.0975 276.808 25.5225 276.914 25.905C277.021 26.2875 277.424 26.5212 277.828 26.4149C278.529 26.2237 279.252 26.3725 279.741 26.8399C279.889 27.0099 280.081 27.0737 280.25 27.0737Z" fill="#431F20"/>
<path fill-rule="evenodd" clip-rule="evenodd" d="M278.445 33.2145C277.998 34.4894 277.063 35.3181 276.341 35.0844C275.618 34.8507 275.385 33.597 275.831 32.322C276.277 31.0471 277.212 30.2183 277.935 30.4521C278.657 30.6858 278.87 31.9183 278.445 33.2145Z" fill="#431F20"/>
<path fill-rule="evenodd" clip-rule="evenodd" d="M288.685 38.017C288.282 39.3132 287.389 40.1845 286.645 39.9507C285.923 39.717 285.647 38.5058 286.05 37.2096C286.454 35.9134 287.368 35.0422 288.09 35.2759C288.813 35.4884 289.068 36.7208 288.685 38.017Z" fill="#431F20"/>
<path fill-rule="evenodd" clip-rule="evenodd" d="M261.382 176.86C261.552 176.86 261.722 176.796 261.87 176.69C262.189 176.413 262.21 175.946 261.955 175.648C259.597 172.907 258.896 169.061 260.128 165.661C260.277 165.279 260.064 164.854 259.682 164.705C259.299 164.556 258.874 164.769 258.747 165.151C257.344 169.061 258.152 173.46 260.85 176.605C260.978 176.775 261.169 176.86 261.382 176.86Z" fill="#431F20"/>
<path fill-rule="evenodd" clip-rule="evenodd" d="M258.364 178.56C258.513 178.56 258.64 178.517 258.768 178.432C259.108 178.198 259.193 177.752 258.959 177.412C256.473 173.715 255.899 168.997 257.408 164.79C257.556 164.408 257.344 163.983 256.962 163.855C256.579 163.706 256.154 163.919 256.005 164.301C254.348 168.955 254.985 174.161 257.726 178.241C257.896 178.432 258.13 178.56 258.364 178.56Z" fill="#431F20"/>
<path fill-rule="evenodd" clip-rule="evenodd" d="M295.016 336.697H318.964C319.368 336.697 319.708 336.357 319.708 335.953C319.708 335.549 319.368 335.209 318.964 335.209H295.016C294.613 335.209 294.273 335.549 294.273 335.953C294.273 336.378 294.591 336.697 295.016 336.697Z" fill="#431F20"/>
<path fill-rule="evenodd" clip-rule="evenodd" d="M326.702 336.697H337.05C337.454 336.697 337.794 336.357 337.794 335.953C337.794 335.549 337.475 335.209 337.05 335.209H326.702C326.298 335.209 325.958 335.549 325.958 335.953C325.958 336.378 326.298 336.697 326.702 336.697Z" fill="#431F20"/>
<path fill-rule="evenodd" clip-rule="evenodd" d="M344.551 336.696H368.159C368.562 336.696 368.902 336.377 368.902 335.973C368.902 335.57 368.562 335.23 368.159 335.23H344.551C344.147 335.23 343.807 335.57 343.807 335.973C343.807 336.377 344.147 336.696 344.551 336.696Z" fill="#431F20"/>
<path fill-rule="evenodd" clip-rule="evenodd" d="M207.578 336.697H268.563C268.967 336.697 269.307 336.357 269.307 335.953C269.307 335.549 268.967 335.209 268.563 335.209H207.578C207.174 335.209 206.834 335.549 206.834 335.953C206.834 336.378 207.174 336.697 207.578 336.697Z" fill="#431F20"/>
<path fill-rule="evenodd" clip-rule="evenodd" d="M173.07 336.697H203.35C203.754 336.697 204.094 336.357 204.094 335.953C204.094 335.549 203.754 335.209 203.35 335.209H173.091C172.687 335.209 172.347 335.549 172.347 335.953C172.347 336.378 172.666 336.697 173.07 336.697Z" fill="#431F20"/>
<path fill-rule="evenodd" clip-rule="evenodd" d="M270.772 74.3957C271.069 74.3957 271.367 74.2045 271.473 73.907C272.791 70.2097 274.575 66.746 276.828 63.5587C277.062 63.2187 276.977 62.7724 276.658 62.5387C276.318 62.3049 275.872 62.3899 275.638 62.7087C273.322 66.0023 271.452 69.5934 270.113 73.4183C269.964 73.8008 270.177 74.2258 270.559 74.3533C270.602 74.3745 270.687 74.3957 270.772 74.3957Z" fill="#431F20"/>
<path fill-rule="evenodd" clip-rule="evenodd" d="M170.137 331.341C169.244 332.701 169.648 334.529 171.029 335.464C172.41 336.377 174.259 336.016 175.173 334.677L182.312 323.883C183.205 322.523 182.801 320.674 181.42 319.76C180.039 318.826 178.169 319.187 177.276 320.547L170.137 331.341Z" fill="#FEFEFE"/>
<path fill-rule="evenodd" clip-rule="evenodd" d="M213.975 296.45L209.917 302.719L204.349 307.33L206.453 303.292L186.181 290.925L184.779 294.261L185.799 288.142L189.369 282.936L190.41 281.427L192.259 278.133L196.105 272.524L219.5 287.27L215.718 293.114L213.975 296.45Z" fill="#AEAB92"/>
<path fill-rule="evenodd" clip-rule="evenodd" d="M204.943 303.717C201.65 308.647 198.08 314.618 198.08 314.618L196.422 316.722C194.191 318.868 191.046 320.037 187.732 319.675C181.76 319.017 177.447 314.512 178.106 308.541C178.297 306.883 178.828 305.332 179.657 303.993L179.954 303.76C179.954 303.76 184.034 298.936 187.902 292.391L204.943 303.717Z" fill="#928C6A"/>
<path fill-rule="evenodd" clip-rule="evenodd" d="M215.164 284.041L218.16 279.345L203.519 269.804L200.481 274.649L215.164 284.041Z" fill="#F9F2C4"/>
<path fill-rule="evenodd" clip-rule="evenodd" d="M179.722 319.994C180.168 319.994 180.614 320.143 180.997 320.376C181.507 320.716 181.847 321.226 181.974 321.821C182.102 322.395 181.996 322.99 181.677 323.457L174.537 334.252C174.133 334.847 173.453 335.208 172.71 335.208C172.263 335.208 171.817 335.081 171.435 334.826C170.925 334.486 170.585 333.976 170.457 333.402C170.33 332.807 170.436 332.233 170.755 331.745L177.894 320.95C178.298 320.355 178.978 319.994 179.722 319.994ZM172.71 336.696C173.942 336.696 175.09 336.08 175.77 335.06L182.909 324.265C183.462 323.436 183.632 322.459 183.419 321.481C183.207 320.504 182.633 319.675 181.804 319.123C181.167 318.719 180.444 318.485 179.701 318.485C178.468 318.485 177.321 319.101 176.641 320.121L169.501 330.916C168.949 331.745 168.779 332.722 168.991 333.7C169.204 334.677 169.777 335.506 170.606 336.058C171.243 336.483 171.966 336.696 172.71 336.696Z" fill="#431F20"/>
<path fill-rule="evenodd" clip-rule="evenodd" d="M209.364 302.23L206.729 304.397L207.133 303.654C207.324 303.314 207.197 302.889 206.857 302.676L186.564 290.309C186.457 290.245 186.33 290.203 186.202 290.203L186.5 288.439L189.964 283.382L196.317 273.565L218.48 287.504L212.318 297.343L209.364 302.23ZM204.349 308.052C204.519 308.052 204.689 307.989 204.817 307.882L210.405 303.271C210.469 303.207 210.533 303.144 210.575 303.08L213.571 298.086L220.137 287.632C220.35 287.292 220.244 286.824 219.904 286.612L196.508 271.865C196.168 271.652 195.722 271.737 195.488 272.099L188.752 282.511L185.204 287.674C185.14 287.759 185.098 287.866 185.076 287.972L184.078 293.964C184.035 294.049 184.035 294.134 184.035 294.219C184.035 294.623 184.375 294.963 184.779 294.963H184.8C185.098 294.963 185.374 294.772 185.48 294.495L186.542 291.945L205.497 303.505L203.691 306.905C203.521 307.224 203.606 307.606 203.882 307.819C204.009 308.01 204.179 308.052 204.349 308.052Z" fill="#431F20"/>
<path fill-rule="evenodd" clip-rule="evenodd" d="M215.162 284.784C215.417 284.784 215.651 284.657 215.779 284.444L218.775 279.727C218.987 279.387 218.902 278.92 218.562 278.707L203.9 269.187C203.73 269.081 203.539 269.039 203.348 269.081C203.157 269.124 202.987 269.23 202.88 269.421L199.842 274.266C199.629 274.606 199.735 275.073 200.075 275.286C200.415 275.498 200.883 275.392 201.095 275.052L203.73 270.845L217.139 279.557L214.525 283.658C214.312 283.998 214.419 284.466 214.759 284.678C214.886 284.763 215.014 284.784 215.162 284.784Z" fill="#431F20"/>
<path fill-rule="evenodd" clip-rule="evenodd" d="M188.92 320.461C191.895 320.461 194.764 319.314 196.931 317.253C196.952 317.231 196.974 317.21 196.995 317.168L198.652 315.064C198.674 315.043 198.695 315.022 198.716 314.979C198.737 314.915 202.307 308.966 205.558 304.099C205.792 303.759 205.686 303.292 205.346 303.079C205.006 302.846 204.538 302.952 204.326 303.292C201.202 307.967 197.781 313.64 197.462 314.193L195.869 316.211C193.701 318.251 190.769 319.25 187.794 318.931C182.014 318.294 178.253 313.959 178.827 308.604C178.997 307.117 179.464 305.736 180.208 304.482L180.399 304.333C180.442 304.312 180.463 304.269 180.506 304.227C180.548 304.163 184.67 299.276 188.517 292.752C188.729 292.391 188.601 291.945 188.262 291.754C187.922 291.541 187.454 291.669 187.242 292.009C183.672 298.043 179.868 302.676 179.422 303.207L179.188 303.398C179.124 303.462 179.061 303.526 179.018 303.589C178.104 305.077 177.552 306.692 177.361 308.434C176.681 314.639 180.994 319.654 187.645 320.376C188.07 320.44 188.495 320.461 188.92 320.461Z" fill="#431F20"/>
<path fill-rule="evenodd" clip-rule="evenodd" d="M222.007 192.563C222.071 192.563 222.156 192.563 222.22 192.541C236.542 188.355 246.911 179.048 253.923 164.131C254.093 163.77 253.945 163.324 253.562 163.154C253.201 162.984 252.755 163.133 252.585 163.515C245.764 178.028 235.692 187.08 221.795 191.139C221.412 191.245 221.178 191.67 221.285 192.053C221.391 192.35 221.688 192.563 222.007 192.563Z" fill="#431F20"/>
<path fill-rule="evenodd" clip-rule="evenodd" d="M249.418 164.492C249.673 164.492 249.906 164.365 250.055 164.131C255.006 155.972 257.832 147.047 258.47 137.612C258.81 132.449 258.47 127.243 257.471 122.185C257.386 121.782 257.004 121.527 256.6 121.612C256.196 121.697 255.941 122.079 256.005 122.483C257.004 127.413 257.322 132.47 256.982 137.527C256.366 146.728 253.604 155.419 248.78 163.387C248.568 163.727 248.674 164.195 249.035 164.407C249.141 164.471 249.269 164.492 249.418 164.492Z" fill="#431F20"/>
<path fill-rule="evenodd" clip-rule="evenodd" d="M281.675 229.409C281.866 229.409 282.079 229.324 282.227 229.154C295.126 214.705 301.989 196.005 301.543 176.477C301.543 176.073 301.203 175.755 300.799 175.755H300.778C300.374 175.755 300.034 176.095 300.056 176.52C300.502 195.665 293.766 214.025 281.123 228.177C280.846 228.474 280.889 228.942 281.186 229.218C281.314 229.345 281.484 229.409 281.675 229.409Z" fill="#431F20"/>
<path fill-rule="evenodd" clip-rule="evenodd" d="M270.072 41.0772C270.135 41.0772 270.199 41.0772 270.284 41.0559C270.667 40.9497 270.9 40.5247 270.794 40.1422C269.625 36.0411 269.477 28.1789 271.155 23.4616C274.045 15.3444 279.91 8.84212 287.687 5.12351C295.464 1.42615 304.219 0.979919 312.336 3.84856C325.723 8.60838 342.319 22.1441 327.827 58.0553C328.804 58.1403 329.421 57.7365 329.293 58.204C345.124 21.1667 326.828 8.35339 312.825 2.44611C304.347 -0.571281 295.188 -0.103788 287.05 3.78482C278.911 7.65217 272.77 14.4519 269.774 22.9516C267.968 28.0089 268.117 36.1261 269.392 40.5459C269.434 40.8647 269.732 41.0772 270.072 41.0772Z" fill="#431F20"/>
<path fill-rule="evenodd" clip-rule="evenodd" d="M358.148 101.042C358.467 101.042 358.743 100.851 358.85 100.554C358.998 100.171 358.786 99.7463 358.403 99.6188C339.067 92.7553 327.358 76.1172 329.25 58.2041C329.292 57.8004 328.995 57.4391 328.591 57.3966C328.187 57.3541 327.826 57.6516 327.783 58.0553C325.807 76.6484 337.919 93.924 357.893 101.021C357.978 101.043 358.063 101.042 358.148 101.042Z" fill="#431F20"/>
<path fill-rule="evenodd" clip-rule="evenodd" d="M323.514 123.652C338.431 123.652 352.625 114.961 358.936 100.66C359.106 100.278 358.936 99.8526 358.554 99.6826C358.171 99.5126 357.746 99.6826 357.576 100.065C351.52 113.813 337.857 122.186 323.514 122.186C319.413 122.186 315.248 121.506 311.21 120.061C291.937 113.218 281.823 91.9692 288.665 72.6749C291.194 65.5351 295.762 59.4366 301.882 55.0168C302.222 54.783 302.286 54.3156 302.052 53.9968C301.818 53.6568 301.351 53.5931 301.011 53.8268C294.657 58.4167 289.897 64.7702 287.262 72.1861C280.144 92.2454 290.662 114.345 310.722 121.463C314.929 122.951 319.243 123.652 323.514 123.652Z" fill="#431F20"/>
<path fill-rule="evenodd" clip-rule="evenodd" d="M288.262 99.3213C288.538 99.3213 288.814 99.1513 288.942 98.875C289.112 98.4926 288.942 98.0676 288.559 97.8976C281.823 94.9227 277.637 88.038 278.126 80.7707L278.445 76.9246C278.466 76.5209 278.169 76.1597 277.765 76.1384C277.361 76.0959 277 76.4146 276.957 76.8184L276.639 80.6857C276.107 88.5904 280.655 96.0702 287.964 99.2788C288.071 99.3 288.156 99.3213 288.262 99.3213Z" fill="#431F20"/>
<path fill-rule="evenodd" clip-rule="evenodd" d="M268.201 103.082C268.456 103.082 268.69 102.955 268.839 102.721C273.535 95.1138 274.109 83.8305 274.087 74.8633C274.087 74.4596 273.747 74.1196 273.344 74.1196C272.94 74.1196 272.6 74.4596 272.6 74.8633C272.621 83.6393 272.069 94.6676 267.564 101.956C267.351 102.296 267.458 102.764 267.798 102.976C267.925 103.04 268.053 103.082 268.201 103.082Z" fill="#431F20"/>
<path fill-rule="evenodd" clip-rule="evenodd" d="M297.313 156.524C297.42 156.524 297.547 156.503 297.653 156.439C298.1 156.227 298.546 155.993 298.971 155.738C299.906 155.207 300.841 154.612 301.733 153.974C312.23 146.41 316.586 133.086 312.592 120.804C312.464 120.422 312.039 120.209 311.657 120.337C311.274 120.464 311.062 120.868 311.189 121.272C314.993 132.938 310.828 145.602 300.883 152.784C300.055 153.379 299.162 153.953 298.27 154.463C297.866 154.697 297.441 154.909 297.016 155.122C296.655 155.313 296.506 155.759 296.676 156.12C296.761 156.375 297.037 156.524 297.313 156.524Z" fill="#431F20"/>
<path fill-rule="evenodd" clip-rule="evenodd" d="M299.292 165.661C299.377 165.661 299.483 165.64 299.568 165.598C302.245 164.471 304.817 163.048 307.197 161.326C319.372 152.551 325.258 137.4 322.177 122.717C322.092 122.313 321.71 122.058 321.306 122.143C320.902 122.228 320.647 122.61 320.732 123.014C323.686 137.124 318.034 151.701 306.325 160.115C304.03 161.773 301.565 163.133 298.994 164.216C298.612 164.365 298.442 164.811 298.591 165.194C298.718 165.491 298.994 165.661 299.292 165.661Z" fill="#431F20"/>
<path fill-rule="evenodd" clip-rule="evenodd" d="M303.157 178.751C303.221 178.751 303.306 178.751 303.37 178.708C303.752 178.602 303.986 178.177 303.88 177.795C303.433 176.265 302.966 174.777 302.52 173.29C301.627 170.336 300.777 167.531 299.991 164.705C299.077 161.348 298.397 158.479 297.845 155.695C296.485 148.598 296.081 141.841 296.591 134.468C296.974 128.73 298.652 123.035 301.988 116.002C302.158 115.641 302.01 115.195 301.648 115.025C301.287 114.855 300.841 115.003 300.671 115.386C297.25 122.589 295.529 128.454 295.125 134.383C294.615 141.884 295.019 148.747 296.4 155.993C296.931 158.84 297.632 161.73 298.567 165.13C299.354 167.978 300.203 170.782 301.096 173.757C301.542 175.224 301.988 176.732 302.435 178.241C302.541 178.538 302.838 178.751 303.157 178.751Z" fill="#431F20"/>
<path fill-rule="evenodd" clip-rule="evenodd" d="M232.589 132.3C240.26 132.3 247.931 130.048 254.157 125.415C255.219 124.629 256.239 123.779 257.196 122.887C263.485 117.107 267.65 109.245 268.904 100.745C269.053 99.7677 269.159 98.769 269.223 97.7703L269.839 85.6582C269.86 85.2545 269.541 84.9145 269.138 84.872C268.734 84.8507 268.394 85.1695 268.351 85.5732L267.735 97.664C267.671 98.599 267.565 99.5764 267.416 100.511C266.205 108.671 262.21 116.215 256.176 121.782C255.241 122.632 254.263 123.461 253.243 124.204C239.75 134.234 219.181 132.661 207.409 120.719C207.132 120.422 206.644 120.422 206.367 120.719C206.07 120.996 206.07 121.463 206.367 121.761C213.231 128.709 222.921 132.3 232.589 132.3Z" fill="#431F20"/>
<path fill-rule="evenodd" clip-rule="evenodd" d="M230.889 124.119C237.115 124.119 243.341 122.164 248.568 118.275C256.515 112.368 260.978 102.933 260.489 93.0101V92.3088L260.234 80.0268V78.0294C260.234 75.6495 262.168 73.6945 264.569 73.6945C264.973 73.6945 265.312 73.3546 265.312 72.9508C265.312 72.5471 264.973 72.2071 264.569 72.2071C261.36 72.2071 258.768 74.7995 258.746 78.0081V80.0056L259.023 93.0101C259.49 102.466 255.262 111.433 247.697 117.043C238.114 124.161 225.067 124.459 215.186 117.787C214.846 117.553 214.378 117.638 214.166 117.978C213.932 118.318 214.017 118.785 214.357 118.998C219.329 122.44 225.109 124.119 230.889 124.119Z" fill="#431F20"/>
<path fill-rule="evenodd" clip-rule="evenodd" d="M214.741 119.189C214.932 119.189 215.123 119.104 215.272 118.956C215.548 118.658 215.527 118.191 215.251 117.914L209.088 112.071L195.765 97.9189C195.489 97.6214 195.021 97.6002 194.724 97.8977C194.426 98.1739 194.405 98.6414 194.681 98.9389L208.047 113.133L214.252 118.998C214.379 119.126 214.571 119.189 214.741 119.189Z" fill="#431F20"/>
<path fill-rule="evenodd" clip-rule="evenodd" d="M189.579 108.225C189.771 108.225 189.941 108.161 190.089 108.012C190.387 107.715 190.387 107.268 190.111 106.971C189.664 106.525 189.452 106.227 189.452 106.121C189.452 106.121 189.473 106.057 189.579 105.951C189.792 105.738 190.068 105.632 190.366 105.632C190.663 105.632 190.939 105.76 191.152 105.972C191.449 106.27 191.917 106.27 192.193 105.993C192.491 105.717 192.491 105.25 192.214 104.952C191.726 104.463 191.088 104.166 190.387 104.166C189.686 104.145 189.048 104.421 188.538 104.888C187.242 106.142 188.432 107.396 189.027 107.991C189.176 108.161 189.388 108.225 189.579 108.225Z" fill="#431F20"/>
<path fill-rule="evenodd" clip-rule="evenodd" d="M189.452 105.101C189.644 105.101 189.835 105.038 189.962 104.889C190.26 104.613 190.26 104.145 189.984 103.848L189.261 103.104C188.836 102.658 188.857 101.956 189.282 101.531C189.495 101.319 189.771 101.213 190.069 101.213C190.366 101.213 190.642 101.34 190.834 101.553C191.11 101.85 191.577 101.85 191.875 101.574C192.172 101.298 192.172 100.83 191.896 100.533C191.407 100.023 190.77 99.7465 190.069 99.7465C189.389 99.7252 188.73 100.001 188.22 100.469C187.2 101.468 187.179 103.104 188.156 104.124L188.879 104.889C189.07 105.016 189.261 105.101 189.452 105.101Z" fill="#431F20"/>
<path fill-rule="evenodd" clip-rule="evenodd" d="M195.212 99.1728C195.404 99.1728 195.574 99.1091 195.722 98.9603C196.02 98.6841 196.02 98.2166 195.744 97.9191C194.745 96.8992 193.109 96.8567 192.089 97.8554C191.791 98.1316 191.791 98.5991 192.068 98.8966C192.344 99.1941 192.811 99.1941 193.109 98.9178C193.534 98.4928 194.256 98.5141 194.681 98.9391C194.83 99.0878 195.021 99.1728 195.212 99.1728Z" fill="#431F20"/>
<path fill-rule="evenodd" clip-rule="evenodd" d="M200.544 107.417C200.735 107.417 200.926 107.353 201.075 107.205C201.351 106.907 201.351 106.44 201.075 106.163L192.575 97.7913C192.108 97.3025 191.47 97.0263 190.769 97.0263C190.068 97.0051 189.409 97.2813 188.921 97.7488C188.432 98.2375 188.156 98.875 188.134 99.555C188.113 100.256 188.368 100.894 188.857 101.404C189.133 101.701 189.6 101.701 189.898 101.425C190.195 101.149 190.195 100.681 189.919 100.384C189.707 100.171 189.6 99.895 189.6 99.5975C189.6 99.3 189.728 99.0237 189.94 98.8112C190.153 98.5987 190.408 98.4925 190.727 98.4925C191.024 98.4925 191.3 98.62 191.513 98.8325L192.044 99.3637L200.013 107.205C200.183 107.332 200.374 107.417 200.544 107.417Z" fill="#431F20"/>
<path fill-rule="evenodd" clip-rule="evenodd" d="M199.356 109.627C199.547 109.627 199.739 109.564 199.887 109.415C200.185 109.117 200.164 108.65 199.887 108.374L191.919 100.512C191.621 100.214 191.154 100.235 190.878 100.512C190.601 100.809 190.601 101.277 190.899 101.553L198.867 109.415C198.974 109.542 199.165 109.627 199.356 109.627Z" fill="#431F20"/>
<path fill-rule="evenodd" clip-rule="evenodd" d="M198.123 112.496C198.314 112.496 198.505 112.411 198.654 112.262C198.93 111.964 198.93 111.497 198.633 111.221L191.982 104.74C191.684 104.442 191.217 104.463 190.94 104.74C190.643 105.037 190.664 105.505 190.94 105.781L197.591 112.262C197.761 112.411 197.931 112.496 198.123 112.496Z" fill="#431F20"/>
<path fill-rule="evenodd" clip-rule="evenodd" d="M201.224 119.763C201.415 119.763 201.607 119.678 201.755 119.551C202.053 119.253 202.053 118.786 201.755 118.509L190.451 107.332C190.153 107.035 189.686 107.056 189.41 107.332C189.112 107.63 189.133 108.097 189.41 108.373L200.714 119.551C200.842 119.699 201.033 119.763 201.224 119.763Z" fill="#431F20"/>
<path fill-rule="evenodd" clip-rule="evenodd" d="M208.939 122.143C209.343 122.143 209.683 121.803 209.683 121.399C209.683 120.996 209.343 120.656 208.939 120.656C208.301 120.656 207.643 120.613 207.026 120.507C205.114 120.231 203.244 119.487 201.65 118.382C201.31 118.148 200.864 118.233 200.63 118.573C200.397 118.913 200.482 119.359 200.822 119.593C202.607 120.826 204.689 121.654 206.814 121.973C207.515 122.079 208.216 122.143 208.939 122.143Z" fill="#431F20"/>
<path fill-rule="evenodd" clip-rule="evenodd" d="M253.563 113.155C253.648 113.155 253.733 113.133 253.818 113.112C254.2 112.963 254.391 112.538 254.243 112.156C253.584 110.35 253.435 108.416 253.839 106.525C254.179 104.952 254.859 103.507 255.857 102.275C255.879 102.254 255.9 102.232 255.9 102.211L257.217 100.129C257.579 99.5551 258.152 98.5988 258.939 97.3876L259.852 95.9427C260.065 95.6027 259.959 95.1352 259.619 94.9227C259.279 94.7102 258.811 94.8165 258.599 95.1565L257.685 96.6014C256.92 97.8126 256.304 98.7688 255.964 99.3426L254.689 101.383C253.541 102.806 252.776 104.442 252.394 106.227C251.948 108.395 252.096 110.605 252.861 112.666C252.968 112.985 253.265 113.155 253.563 113.155Z" fill="#431F20"/>
<path fill-rule="evenodd" clip-rule="evenodd" d="M266.141 73.7372C266.502 73.7372 266.821 73.4609 266.863 73.0997C267.649 67.5749 269.54 62.2201 272.345 57.6515C272.558 57.3115 272.452 56.844 272.09 56.6315C271.75 56.4191 271.283 56.5253 271.07 56.8653C268.159 61.6039 266.183 67.1499 265.376 72.8872C265.312 73.2909 265.609 73.6734 266.013 73.7159C266.077 73.7372 266.098 73.7372 266.141 73.7372Z" fill="#431F20"/>
<path fill-rule="evenodd" clip-rule="evenodd" d="M275.681 76.8397C275.702 76.8397 275.724 76.8397 275.745 76.8397C287.602 75.6922 298.418 66.9375 302.094 55.5055C302.221 55.123 302.009 54.698 301.626 54.5705C301.244 54.443 300.819 54.6555 300.691 55.0592C297.206 65.9388 286.879 74.2685 275.596 75.3735C275.192 75.416 274.895 75.7772 274.937 76.181C274.98 76.5634 275.299 76.8397 275.681 76.8397Z" fill="#431F20"/>
<path fill-rule="evenodd" clip-rule="evenodd" d="M300.161 50.7241C299.799 52.0415 300.586 53.4015 301.903 53.7415C303.22 54.1027 304.58 53.3165 304.92 51.999C305.26 50.6816 304.495 49.3216 303.178 48.9817C301.86 48.6204 300.522 49.4066 300.161 50.7241Z" fill="#ACACAD"/>
<path fill-rule="evenodd" clip-rule="evenodd" d="M299.778 56.5681L302.116 57.2056L303.029 53.7845L300.692 53.147L299.778 56.5681Z" fill="#ACACAD"/>
<path fill-rule="evenodd" clip-rule="evenodd" d="M302.392 49.5344C302.541 49.5344 302.689 49.5556 302.838 49.5981C303.752 49.8531 304.304 50.7881 304.049 51.723C303.816 52.6155 302.838 53.1892 301.924 52.9342C301.478 52.8068 301.096 52.5305 300.883 52.1268C300.649 51.723 300.586 51.2556 300.713 50.8093C300.926 50.0656 301.627 49.5344 302.392 49.5344ZM302.392 54.4642C303.837 54.4642 305.112 53.4867 305.494 52.0843C305.941 50.3843 304.942 48.6207 303.242 48.1532C302.966 48.0894 302.689 48.0469 302.413 48.0469C300.968 48.0469 299.693 49.0244 299.311 50.4268C299.098 51.2556 299.205 52.1268 299.63 52.8492C300.055 53.593 300.756 54.1242 301.584 54.3367C301.839 54.4217 302.116 54.4642 302.392 54.4642Z" fill="#431F20"/>
<path fill-rule="evenodd" clip-rule="evenodd" d="M301.967 57.8428C302.307 57.8428 302.583 57.6303 302.69 57.2904L303.603 53.8692C303.71 53.4655 303.476 53.0618 303.072 52.9555C302.69 52.8493 302.265 53.083 302.158 53.4867L301.436 56.2066L300.522 55.9729L301.245 53.253C301.351 52.8705 301.117 52.4455 300.713 52.3393C300.31 52.233 299.906 52.4668 299.8 52.8705L298.886 56.2916C298.78 56.6954 299.013 57.0991 299.417 57.2054L301.755 57.8428C301.84 57.8428 301.903 57.8428 301.967 57.8428Z" fill="#431F20"/>
<path fill-rule="evenodd" clip-rule="evenodd" d="M251.267 126.754C251.947 126.754 252.648 126.542 253.243 126.117C253.583 125.883 253.646 125.415 253.413 125.075C253.179 124.735 252.711 124.672 252.393 124.905C251.543 125.522 250.332 125.33 249.715 124.48C249.482 124.14 249.014 124.077 248.674 124.31C248.334 124.544 248.27 125.012 248.504 125.352C249.184 126.265 250.204 126.754 251.267 126.754Z" fill="#431F20"/>
<path fill-rule="evenodd" clip-rule="evenodd" d="M319.072 142.925C319.327 142.925 319.582 142.903 319.837 142.84C320.241 142.755 320.475 142.351 320.39 141.947C320.305 141.543 319.901 141.31 319.497 141.395C318.754 141.565 317.967 141.267 317.521 140.651C317.287 140.311 316.82 140.247 316.48 140.481C316.14 140.715 316.076 141.182 316.31 141.522C316.99 142.415 318.01 142.925 319.072 142.925Z" fill="#431F20"/>
<path fill-rule="evenodd" clip-rule="evenodd" d="M279.59 261.113L275.701 257.671L264.864 270.314L268.774 273.756L279.59 261.113Z" fill="#F9F2C4"/>
<path fill-rule="evenodd" clip-rule="evenodd" d="M268.777 274.499C268.989 274.499 269.18 274.414 269.329 274.244C269.605 273.947 269.563 273.48 269.265 273.203L265.908 270.25L275.768 258.733L279.104 261.686C279.401 261.962 279.869 261.92 280.145 261.622C280.421 261.325 280.379 260.836 280.081 260.581L276.193 257.139C276.044 257.011 275.853 256.948 275.64 256.948C275.449 256.969 275.258 257.054 275.13 257.203L264.314 269.846C264.059 270.143 264.081 270.611 264.378 270.887L268.267 274.329C268.415 274.436 268.585 274.499 268.777 274.499Z" fill="#431F20"/>
<path fill-rule="evenodd" clip-rule="evenodd" d="M296.06 329.238C296.336 329.238 296.591 329.323 296.825 329.493C297.101 329.684 297.271 330.003 297.335 330.343C297.377 330.683 297.313 331.023 297.101 331.299C296.697 331.851 295.847 332 295.295 331.596C295.019 331.384 294.827 331.086 294.785 330.768C294.721 330.428 294.806 330.088 295.019 329.79C295.252 329.45 295.635 329.238 296.06 329.238ZM296.06 333.296C296.952 333.296 297.781 332.871 298.312 332.149C298.737 331.554 298.928 330.81 298.801 330.088C298.695 329.365 298.291 328.707 297.696 328.282C297.228 327.942 296.655 327.75 296.081 327.75C295.189 327.75 294.36 328.175 293.829 328.898C293.404 329.493 293.212 330.236 293.34 330.959C293.467 331.681 293.85 332.34 294.445 332.765C294.891 333.126 295.465 333.296 296.06 333.296Z" fill="#391D1D"/>
<path fill-rule="evenodd" clip-rule="evenodd" d="M296.166 329.238C296.442 329.238 296.697 329.323 296.931 329.493C297.207 329.705 297.399 330.003 297.441 330.343C297.505 330.683 297.42 331.023 297.207 331.299C296.804 331.851 295.954 332 295.401 331.596C294.827 331.171 294.7 330.364 295.104 329.79C295.359 329.429 295.741 329.238 296.166 329.238ZM296.166 333.296C297.059 333.296 297.909 332.871 298.419 332.149C298.844 331.554 299.035 330.81 298.907 330.088C298.78 329.365 298.397 328.707 297.802 328.282C297.314 327.942 296.761 327.75 296.166 327.75C295.274 327.75 294.445 328.175 293.914 328.898C293.021 330.13 293.298 331.873 294.53 332.765C295.019 333.126 295.571 333.296 296.166 333.296Z" fill="#431F20"/>
<path fill-rule="evenodd" clip-rule="evenodd" d="M278.02 286.293C278.02 286.293 280.74 288.588 281.272 289.714C281.612 290.437 281.229 292.264 281.229 292.264L280.974 297.258C280.974 297.258 277.107 308.371 275.896 312.111C274.939 315.022 274.748 317.02 275.577 318.783C277.149 322.141 281.144 323.586 284.501 322.013C285.968 321.333 287.285 319.57 287.285 319.57C293.766 311.176 312.019 285.273 312.019 285.273C312.784 283.871 312.912 282.129 312.168 280.577C311.7 279.579 310.596 278.027 309.703 277.517L295.551 268.125L278.02 286.293Z" fill="#C2BC8B"/>
<path fill-rule="evenodd" clip-rule="evenodd" d="M328.549 293.751C330.674 290.862 330.058 286.782 327.168 284.657C324.278 282.511 320.198 283.127 318.074 286.038C315.949 288.928 316.565 293.008 319.455 295.133C322.345 297.279 326.424 296.641 328.549 293.751Z" fill="#FEFEFE"/>
<path fill-rule="evenodd" clip-rule="evenodd" d="M313.611 301.869C313.866 301.869 314.121 301.954 314.333 302.102C314.588 302.294 314.758 302.57 314.822 302.889C314.865 303.207 314.78 303.526 314.61 303.781C314.227 304.312 313.441 304.419 312.91 304.036C312.655 303.845 312.485 303.569 312.421 303.25C312.378 302.931 312.442 302.612 312.655 302.336C312.867 302.039 313.207 301.869 313.611 301.869ZM313.611 305.779C314.461 305.779 315.268 305.375 315.778 304.674C316.203 304.1 316.373 303.399 316.267 302.676C316.161 301.954 315.778 301.337 315.205 300.912C314.737 300.572 314.185 300.381 313.611 300.381C312.761 300.381 311.953 300.785 311.443 301.486C311.018 302.06 310.849 302.782 310.955 303.484C311.061 304.185 311.443 304.822 312.017 305.247C312.463 305.587 313.016 305.779 313.611 305.779Z" fill="#391D1D"/>
<path fill-rule="evenodd" clip-rule="evenodd" d="M303.901 315.043C304.156 315.043 304.411 315.128 304.623 315.277C304.878 315.468 305.048 315.745 305.112 316.063C305.155 316.382 305.091 316.701 304.9 316.956C304.517 317.487 303.731 317.614 303.2 317.211C302.945 317.019 302.775 316.743 302.711 316.425C302.668 316.106 302.732 315.787 302.923 315.532C303.157 315.213 303.497 315.043 303.901 315.043ZM303.901 318.932C304.751 318.932 305.558 318.528 306.068 317.827C306.493 317.253 306.663 316.552 306.557 315.83C306.451 315.128 306.068 314.491 305.495 314.066C305.027 313.726 304.475 313.535 303.901 313.535C303.051 313.535 302.244 313.938 301.734 314.64C301.309 315.213 301.139 315.915 301.245 316.637C301.351 317.338 301.734 317.976 302.307 318.401C302.753 318.762 303.306 318.932 303.901 318.932Z" fill="#391D1D"/>
<path fill-rule="evenodd" clip-rule="evenodd" d="M293.978 328.239C294.233 328.239 294.488 328.324 294.7 328.473C295.231 328.856 295.359 329.642 294.955 330.173C294.573 330.683 293.786 330.81 293.255 330.428C293 330.237 292.83 329.96 292.766 329.642C292.724 329.323 292.788 329.004 292.979 328.728C293.234 328.409 293.595 328.239 293.978 328.239ZM293.978 332.149C294.828 332.149 295.635 331.745 296.145 331.044C297.016 329.854 296.761 328.154 295.571 327.283C295.104 326.943 294.551 326.752 293.978 326.752C293.128 326.752 292.32 327.156 291.81 327.857C291.385 328.431 291.215 329.132 291.321 329.854C291.428 330.577 291.81 331.193 292.384 331.618C292.851 331.958 293.404 332.149 293.978 332.149Z" fill="#391D1D"/>
<path fill-rule="evenodd" clip-rule="evenodd" d="M318.839 306.947C320.964 304.057 320.348 299.977 317.458 297.852C314.568 295.727 310.488 296.322 308.364 299.233C306.239 302.123 306.834 306.203 309.745 308.328C312.635 310.453 316.715 309.837 318.839 306.947Z" fill="#FEFEFE"/>
<path fill-rule="evenodd" clip-rule="evenodd" d="M299.225 333.318C301.35 330.428 300.734 326.348 297.844 324.202C294.954 322.077 290.874 322.693 288.749 325.583C286.624 328.473 287.219 332.553 290.131 334.699C292.999 336.824 297.079 336.207 299.225 333.318Z" fill="#FEFEFE"/>
<path fill-rule="evenodd" clip-rule="evenodd" d="M309.128 320.122C311.252 317.232 310.636 313.152 307.746 311.027C304.856 308.902 300.777 309.518 298.652 312.408C296.527 315.298 297.143 319.378 300.033 321.503C302.923 323.628 307.003 323.012 309.128 320.122Z" fill="#FEFEFE"/>
<path fill-rule="evenodd" clip-rule="evenodd" d="M287.731 294.155C292.406 292.221 289.707 287.355 281.293 292.243C279.083 293.539 279.55 297.279 280.613 296.811C283.672 295.451 286.711 294.559 287.731 294.155Z" fill="#FEFEFE"/>
<path fill-rule="evenodd" clip-rule="evenodd" d="M277.596 286.463C277.596 286.463 281.059 280.173 290.239 280.471C291.153 280.513 292.088 280.471 292.98 280.046C295.466 278.877 296.529 275.924 295.36 273.459C295.36 273.459 293.724 269.06 296.571 266.34L284.077 255.694L265.271 277.772L277.596 286.463Z" fill="#FEFEFE"/>
<path fill-rule="evenodd" clip-rule="evenodd" d="M274.342 283.977L282.268 275.541C283.182 274.585 283.139 273.033 282.183 272.141C281.227 271.249 279.697 271.291 278.783 272.268L270.411 281.193L274.342 283.977Z" fill="#C2BC8B"/>
<path fill-rule="evenodd" clip-rule="evenodd" d="M323.429 284.126C324.661 284.126 325.851 284.529 326.85 285.252C328.082 286.166 328.89 287.504 329.145 289.034C329.379 290.564 328.996 292.073 328.082 293.327C326.999 294.793 325.256 295.664 323.429 295.664C322.196 295.664 321.006 295.282 320.008 294.538C317.437 292.647 316.905 289.034 318.775 286.463C319.859 284.997 321.601 284.126 323.429 284.126ZM323.429 297.13C325.724 297.13 327.912 296.025 329.272 294.177C330.42 292.625 330.887 290.713 330.611 288.779C330.314 286.867 329.315 285.188 327.742 284.041C326.489 283.106 325.001 282.617 323.45 282.617C321.155 282.617 318.967 283.722 317.607 285.571C315.227 288.779 315.928 293.327 319.137 295.707C320.39 296.663 321.878 297.13 323.429 297.13Z" fill="#431F20"/>
<path fill-rule="evenodd" clip-rule="evenodd" d="M323.43 288.673C323.685 288.673 323.94 288.758 324.152 288.907C324.683 289.31 324.811 290.054 324.407 290.607C324.025 291.138 323.238 291.244 322.707 290.861C322.452 290.67 322.282 290.394 322.219 290.075C322.176 289.757 322.24 289.438 322.431 289.183C322.686 288.864 323.047 288.673 323.43 288.673ZM323.43 292.583C324.28 292.583 325.087 292.179 325.597 291.478C326.468 290.288 326.213 288.588 325.023 287.717C324.556 287.377 324.003 287.185 323.43 287.185C322.58 287.185 321.772 287.589 321.262 288.269C320.837 288.843 320.667 289.565 320.774 290.267C320.88 290.968 321.262 291.605 321.836 292.03C322.304 292.391 322.856 292.583 323.43 292.583Z" fill="#431F20"/>
<path fill-rule="evenodd" clip-rule="evenodd" d="M313.718 301.847C313.973 301.847 314.228 301.932 314.44 302.081C314.695 302.272 314.865 302.548 314.929 302.867C314.972 303.186 314.887 303.505 314.695 303.76C314.313 304.291 313.527 304.397 312.996 304.015C312.464 303.611 312.337 302.846 312.741 302.315C312.953 302.038 313.314 301.847 313.718 301.847ZM313.718 305.757C314.568 305.757 315.375 305.353 315.885 304.652C316.31 304.078 316.502 303.356 316.374 302.655C316.268 301.932 315.885 301.316 315.312 300.891C314.844 300.551 314.292 300.36 313.718 300.36C312.868 300.36 312.061 300.763 311.551 301.465C310.658 302.655 310.934 304.355 312.124 305.226C312.571 305.587 313.123 305.757 313.718 305.757Z" fill="#431F20"/>
<path fill-rule="evenodd" clip-rule="evenodd" d="M304.008 315.043C304.263 315.043 304.518 315.128 304.731 315.277C304.986 315.468 305.156 315.745 305.22 316.063C305.262 316.382 305.177 316.701 304.986 316.956C304.603 317.487 303.817 317.593 303.286 317.211C303.031 317.019 302.861 316.743 302.797 316.425C302.755 316.106 302.84 315.787 303.01 315.511C303.265 315.213 303.605 315.043 304.008 315.043ZM304.008 318.932C304.858 318.932 305.666 318.528 306.176 317.827C306.601 317.253 306.771 316.552 306.665 315.83C306.558 315.128 306.176 314.491 305.602 314.066C305.135 313.726 304.582 313.535 304.008 313.535C303.158 313.535 302.351 313.938 301.841 314.64C301.416 315.213 301.225 315.936 301.352 316.637C301.458 317.338 301.841 317.976 302.415 318.401C302.882 318.762 303.435 318.932 304.008 318.932Z" fill="#431F20"/>
<path fill-rule="evenodd" clip-rule="evenodd" d="M294.085 328.239C294.34 328.239 294.595 328.324 294.807 328.473C295.062 328.664 295.232 328.94 295.296 329.259C295.338 329.578 295.274 329.896 295.083 330.173C294.701 330.683 293.915 330.81 293.383 330.428C292.852 330.024 292.725 329.259 293.128 328.728C293.341 328.409 293.702 328.239 294.085 328.239ZM294.085 332.149C294.935 332.149 295.742 331.745 296.252 331.065C296.677 330.491 296.847 329.769 296.741 329.068C296.634 328.366 296.252 327.729 295.678 327.304C295.211 326.964 294.658 326.773 294.085 326.773C293.235 326.773 292.427 327.177 291.917 327.878C291.046 329.068 291.28 330.746 292.491 331.639C292.958 331.958 293.511 332.149 294.085 332.149Z" fill="#431F20"/>
<path fill-rule="evenodd" clip-rule="evenodd" d="M313.718 297.3C314.951 297.3 316.141 297.683 317.139 298.427C318.372 299.34 319.2 300.679 319.413 302.209C319.647 303.739 319.264 305.248 318.351 306.501C317.267 307.968 315.524 308.86 313.697 308.86C312.464 308.86 311.275 308.478 310.276 307.734C309.022 306.82 308.215 305.481 308.002 303.951C307.768 302.422 308.151 300.913 309.065 299.659C310.148 298.172 311.891 297.3 313.718 297.3ZM313.697 310.326C315.992 310.326 318.181 309.221 319.54 307.373C320.688 305.821 321.155 303.909 320.858 301.997C320.56 300.084 319.54 298.384 317.989 297.237C316.736 296.302 315.248 295.813 313.697 295.813C311.402 295.813 309.213 296.918 307.853 298.767C306.706 300.318 306.238 302.23 306.515 304.143C306.791 306.055 307.811 307.755 309.362 308.903C310.658 309.838 312.146 310.326 313.697 310.326Z" fill="#431F20"/>
<path fill-rule="evenodd" clip-rule="evenodd" d="M294.082 323.692C295.315 323.692 296.505 324.074 297.503 324.818C298.736 325.732 299.564 327.092 299.777 328.6C300.011 330.109 299.628 331.639 298.715 332.893C297.631 334.359 295.888 335.23 294.061 335.23C292.828 335.23 291.639 334.848 290.64 334.104C289.386 333.19 288.579 331.83 288.345 330.322C288.111 328.792 288.494 327.283 289.407 326.05C290.534 324.563 292.255 323.692 294.082 323.692ZM294.082 336.696C296.377 336.696 298.566 335.591 299.926 333.743C301.073 332.191 301.541 330.279 301.264 328.367C300.967 326.454 299.947 324.754 298.396 323.607C297.142 322.672 295.655 322.204 294.103 322.204C291.809 322.204 289.62 323.309 288.26 325.158C287.112 326.709 286.645 328.622 286.921 330.555C287.219 332.468 288.217 334.146 289.79 335.315C291.044 336.208 292.531 336.696 294.082 336.696Z" fill="#431F20"/>
<path fill-rule="evenodd" clip-rule="evenodd" d="M304.006 310.475C305.238 310.475 306.428 310.857 307.427 311.601C308.66 312.515 309.488 313.853 309.701 315.383C309.935 316.913 309.552 318.422 308.638 319.676C307.555 321.142 305.812 322.013 303.985 322.013C302.752 322.013 301.562 321.631 300.564 320.887C297.993 318.996 297.461 315.383 299.331 312.812C300.436 311.346 302.179 310.475 304.006 310.475ZM304.006 323.501C306.301 323.501 308.49 322.396 309.85 320.547C310.997 318.996 311.464 317.083 311.188 315.15C310.891 313.237 309.871 311.558 308.32 310.411C307.066 309.476 305.578 309.009 304.027 309.009C301.732 309.009 299.544 310.114 298.184 311.962C295.804 315.171 296.505 319.718 299.714 322.098C300.946 323.012 302.434 323.501 304.006 323.501Z" fill="#431F20"/>
<path fill-rule="evenodd" clip-rule="evenodd" d="M281.781 323.373C282.865 323.373 283.927 323.139 284.947 322.65C286.562 321.885 287.943 320.079 288.007 319.994C294.403 311.707 312.571 285.953 312.762 285.677C312.783 285.656 312.783 285.634 312.805 285.613C313.718 283.956 313.782 281.958 312.975 280.258C312.486 279.238 311.317 277.517 310.212 276.88L296.103 267.509C295.763 267.275 295.317 267.381 295.083 267.721C294.849 268.061 294.955 268.507 295.295 268.741L309.447 278.133C310.17 278.558 311.19 279.918 311.636 280.874C312.231 282.149 312.188 283.637 311.53 284.848C310.765 285.932 293.107 310.942 286.838 319.081C286.817 319.102 285.606 320.695 284.331 321.29C282.886 321.97 281.271 322.034 279.762 321.503C278.275 320.95 277.064 319.867 276.384 318.422C275.682 316.956 275.789 315.171 276.724 312.281C277.913 308.605 281.76 297.555 281.802 297.449C281.93 297.066 281.738 296.641 281.356 296.514C280.973 296.386 280.548 296.578 280.421 296.981C280.378 297.088 276.554 308.158 275.342 311.835C274.28 315.107 274.195 317.211 275.066 319.038C275.916 320.844 277.403 322.204 279.295 322.884C280.06 323.224 280.91 323.373 281.781 323.373Z" fill="#431F20"/>
<path fill-rule="evenodd" clip-rule="evenodd" d="M287.582 290.862C288.708 290.862 289.281 291.244 289.345 291.627C289.451 292.115 288.856 292.902 287.539 293.454C287.22 293.582 286.689 293.773 286.009 294.007C284.67 294.453 282.673 295.133 280.654 296.004C280.569 295.77 280.506 295.303 280.591 294.729C280.676 294.24 280.931 293.348 281.738 292.859C284.628 291.223 286.498 290.862 287.582 290.862ZM280.527 297.598C280.697 297.598 280.846 297.555 281.016 297.492C283.055 296.599 285.053 295.919 286.498 295.43C287.22 295.175 287.773 294.984 288.134 294.857C290.025 294.07 291.088 292.71 290.833 291.372C290.641 290.437 289.706 289.417 287.624 289.417C285.818 289.417 283.544 290.182 281.058 291.627C279.209 292.689 278.891 295.027 279.252 296.323C279.422 297.109 279.911 297.598 280.527 297.598Z" fill="#431F20"/>
<path fill-rule="evenodd" clip-rule="evenodd" d="M281.332 293.007C281.672 293.007 281.991 292.774 282.055 292.412C282.161 291.924 282.437 290.266 282.034 289.395C281.46 288.184 278.889 285.974 278.591 285.74C278.272 285.485 277.805 285.506 277.55 285.825C277.295 286.144 277.316 286.611 277.635 286.866C278.634 287.716 280.355 289.331 280.695 290.032C280.822 290.33 280.759 291.371 280.589 292.136C280.504 292.54 280.759 292.922 281.162 293.007C281.226 292.986 281.269 293.007 281.332 293.007Z" fill="#431F20"/>
<path fill-rule="evenodd" clip-rule="evenodd" d="M289.75 279.706C282.377 279.706 278.701 283.743 277.511 285.401L266.482 277.623L284.289 256.714L295.636 266.383C293.235 269.379 294.722 273.501 294.807 273.692C295.827 275.86 294.914 278.367 292.81 279.345C292.279 279.6 291.663 279.706 290.791 279.706C290.664 279.706 290.515 279.706 290.388 279.685C290.175 279.706 289.963 279.706 289.75 279.706ZM277.702 287.207C277.744 287.207 277.808 287.207 277.872 287.186C278.084 287.143 278.254 287.016 278.361 286.824C278.488 286.591 281.59 281.193 289.75 281.193C289.941 281.193 290.133 281.193 290.345 281.193C290.494 281.193 290.643 281.193 290.791 281.193C291.514 281.193 292.47 281.129 293.426 280.683C296.252 279.345 297.485 275.945 296.167 273.119C296.167 273.119 294.786 269.187 297.209 266.85C297.357 266.701 297.442 266.51 297.442 266.298C297.442 266.085 297.357 265.894 297.187 265.766L284.693 255.12C284.374 254.865 283.907 254.887 283.652 255.205L264.846 277.283C264.719 277.432 264.655 277.645 264.676 277.857C264.697 278.048 264.825 278.24 264.974 278.367L277.298 287.058C277.404 287.143 277.553 287.207 277.702 287.207Z" fill="#431F20"/>
<path fill-rule="evenodd" clip-rule="evenodd" d="M274.449 284.657C274.64 284.657 274.853 284.593 275.002 284.423L282.928 275.987C283.501 275.371 283.82 274.563 283.777 273.713C283.756 272.885 283.395 272.098 282.8 271.525C282.205 270.951 281.419 270.654 280.569 270.675C279.719 270.696 278.933 271.057 278.359 271.674L269.965 280.598C269.689 280.896 269.711 281.363 269.987 281.639C270.284 281.916 270.752 281.916 271.028 281.597L279.421 272.672C279.74 272.353 280.144 272.162 280.59 272.141C281.036 272.12 281.461 272.29 281.759 272.587C282.078 272.885 282.248 273.288 282.269 273.735C282.29 274.181 282.12 274.606 281.823 274.946L273.897 283.382C273.62 283.679 273.642 284.147 273.939 284.423C274.088 284.593 274.258 284.657 274.449 284.657Z" fill="#431F20"/>
<path fill-rule="evenodd" clip-rule="evenodd" d="M245.996 120.252C246.017 120.252 246.038 120.252 246.038 120.252C246.442 120.23 246.76 119.869 246.718 119.465C246.633 118.275 246.59 117.064 246.59 115.896C246.59 103.444 251.393 91.8627 259.468 84.9142C259.786 84.6379 259.807 84.1705 259.531 83.873C259.276 83.5542 258.809 83.533 258.49 83.788C250.097 91.0127 245.103 103.019 245.103 115.896C245.103 117.107 245.146 118.339 245.231 119.572C245.294 119.954 245.613 120.252 245.996 120.252Z" fill="#431F20"/>
<path fill-rule="evenodd" clip-rule="evenodd" d="M260.616 171.972C260.786 171.972 260.956 171.908 261.084 171.802C264.399 168.997 266.375 164.301 266.375 159.265C266.375 151.892 260.829 144.858 255.92 138.632C252.988 134.892 250.204 131.365 249.418 128.624C249.312 128.241 248.887 128.008 248.504 128.114C248.122 128.22 247.888 128.624 247.994 129.028C248.844 132.066 251.586 135.53 254.752 139.546C259.512 145.581 264.888 152.423 264.888 159.265C264.888 163.876 263.103 168.126 260.128 170.676C259.809 170.931 259.766 171.398 260.043 171.717C260.213 171.887 260.404 171.972 260.616 171.972Z" fill="#431F20"/>
<path d="M258.697 166.19L263.153 172.038L255.767 177.666L251.311 171.818L258.697 166.19Z" fill="#ACACAD"/>
<path fill-rule="evenodd" clip-rule="evenodd" d="M262.655 171.866L256.45 176.605L252.923 171.972L259.128 167.255L262.655 171.866ZM256.302 178.368C256.472 178.368 256.62 178.326 256.748 178.219L264.121 172.588C264.44 172.333 264.504 171.887 264.249 171.547L259.829 165.746C259.702 165.597 259.532 165.491 259.34 165.47C259.149 165.449 258.937 165.491 258.788 165.619L251.414 171.25C251.096 171.505 251.032 171.951 251.266 172.291L255.685 178.092C255.792 178.241 255.983 178.347 256.174 178.368C256.238 178.368 256.28 178.368 256.302 178.368Z" fill="#431F20"/>
<path fill-rule="evenodd" clip-rule="evenodd" d="M258.725 170.697C259.065 170.697 259.363 170.973 259.363 171.335C259.363 171.675 259.087 171.951 258.725 171.951C258.385 171.951 258.109 171.675 258.109 171.335C258.088 170.995 258.364 170.697 258.725 170.697ZM258.725 173.438C259.894 173.438 260.829 172.503 260.829 171.335C260.829 170.166 259.873 169.231 258.725 169.231C257.557 169.231 256.622 170.166 256.622 171.335C256.622 172.482 257.557 173.438 258.725 173.438Z" fill="#431F20"/>
<defs>
<clipPath id="clip0">
<rect width="150" height="108" fill="white" transform="translate(379.367 182.424)"/>
</clipPath>
</defs>
</svg>
