<svg viewBox="0 0 986 300" fill="none" xmlns="http://www.w3.org/2000/svg">
<g clip-path="url(#clip0)">
<path fill-rule="evenodd" clip-rule="evenodd" d="M381.305 51.8731C378.309 43.7183 378.712 37.5378 382.342 31.7579C390.205 19.3111 400.834 19.3683 415.611 19.168C430.186 18.9677 439.835 25.8349 445.222 46.9516C445.279 47.1805 445.106 47.4094 445.135 47.5524C447.699 56.9662 439.806 59.6845 438.424 69.8136C437.329 77.7681 438.741 82.5465 444.588 84.8356C456.887 88.1548 459.912 76.1658 455.706 72.0455C454.439 70.7865 452.624 70.1284 451.069 69.2127C459.134 67.5245 462.735 74.8496 462.792 83.7769C462.85 91.4453 464.088 97.9977 451.069 103.091C441.535 106.324 428.083 105.924 421.746 95.4225L427.622 64.4629L409.418 49.7557L381.305 51.8731Z" fill="#962420" stroke="black" stroke-width="0.666523" stroke-miterlimit="22.9256"/>
<path fill-rule="evenodd" clip-rule="evenodd" d="M408.496 120.889C412.528 118.771 410.138 110.989 408.006 107.154L415.409 101.203C409.36 107.898 401.698 111.16 393.431 107.784C382.86 103.492 380.901 92.0465 375.544 82.2608L374.104 82.4611C377.675 79.5711 378.338 75.1647 378.914 73.4192L378.683 72.0172C387.065 81.3165 400.632 84.6643 412.586 79.9145C413.565 79.5139 414.545 79.0847 415.495 78.5696C417.339 77.5968 419.038 76.4809 420.594 75.2219L420.046 76.767C420.68 77.5396 421.026 78.541 420.939 79.6283C420.795 81.5168 419.355 83.0047 417.569 83.3194C417.224 83.3767 417.771 83.4625 417.771 83.4625C417.8 83.7773 419.413 83.0333 419.47 83.4053C419.528 83.7773 421.631 80.3437 421.976 80.0861C424.914 77.6826 429.408 72.9614 430.387 75.5366C430.733 76.4523 428.428 83.5197 428.515 84.6643L421.717 94.5359C421.314 95.8521 421.602 92.676 419.73 98.1698C418.491 101.832 419.24 105.495 419.96 108.299C421.631 114.823 425.433 118.027 434.737 115.939C437.185 116.11 439.979 117.627 441.621 119.487C442.514 120.517 443.436 121.146 442.917 122.834C442.312 124.752 438.827 127.298 435.63 129.158C409.13 148.586 408.496 120.889 408.496 120.889Z" fill="#FDD491"/>
<path fill-rule="evenodd" clip-rule="evenodd" d="M379.633 53.2466C379.317 52.1879 378.597 51.1578 378.683 50.0419C379.029 46.0933 382.744 43.7756 384.962 46.1505L387.497 48.8974L379.633 53.2466Z" fill="#F77924" stroke="black" stroke-width="0.666523" stroke-miterlimit="22.9256"/>
<path fill-rule="evenodd" clip-rule="evenodd" d="M397.58 102.661C400.057 101.374 401.497 99.0275 402.045 96.7671C402.16 96.3665 401.901 95.9373 401.469 95.8228C401.065 95.7084 400.633 95.9659 400.518 96.3951C400.172 97.7971 398.588 102.347 392.741 102.118C392.309 102.089 391.963 102.433 391.934 102.862C391.905 103.291 392.251 103.634 392.683 103.663C394.642 103.72 396.255 103.348 397.58 102.661Z" fill="#431F20"/>
<path fill-rule="evenodd" clip-rule="evenodd" d="M408.813 107.555C411.434 106.181 413.969 104.179 416.331 101.546C416.619 101.231 416.59 100.745 416.273 100.459C415.956 100.173 415.467 100.201 415.179 100.516C408.813 107.584 401.324 109.844 394.094 106.925C386.547 103.864 383.523 96.9107 380.297 89.5857C379.173 86.9819 377.992 84.3209 376.581 81.7457C376.379 81.3737 375.918 81.2306 375.544 81.4309C375.169 81.6312 375.025 82.089 375.227 82.4896C376.581 84.979 377.762 87.64 378.885 90.2152C382.226 97.855 385.395 105.066 393.518 108.356C398.616 110.416 403.887 110.13 408.813 107.555Z" fill="#431F20"/>
<path fill-rule="evenodd" clip-rule="evenodd" d="M374.822 83.0048C374.88 82.9762 374.909 82.9476 374.966 82.919C378.135 80.3438 379.143 76.7099 379.719 74.5353C379.834 74.1347 379.921 73.7913 380.007 73.5052C380.151 73.1046 379.921 72.6754 379.517 72.5323C379.114 72.3893 378.682 72.6182 378.538 73.0187C378.452 73.3335 378.336 73.7055 378.221 74.1347C377.674 76.1376 376.781 79.4567 373.987 81.7172C373.641 81.9747 373.612 82.4611 373.872 82.8045C374.102 83.0906 374.505 83.1479 374.822 83.0048Z" fill="#431F20"/>
<path fill-rule="evenodd" clip-rule="evenodd" d="M408.582 121.518C409.532 121.003 410.512 119.887 411.059 118.628C411.606 115.767 411.779 113.563 408.467 107.526C408.265 107.154 407.804 107.011 407.43 107.211C407.055 107.412 406.911 107.869 407.113 108.27C410.166 113.85 410.339 115.967 409.705 118.113C409.504 118.743 408.409 120.116 407.862 120.431C407.689 120.459 407.833 121.89 408.582 121.518Z" fill="#431F20"/>
<path fill-rule="evenodd" clip-rule="evenodd" d="M381.275 94.621L379.633 89.2989L377.185 84.406L375.255 81.6305L377.761 77.7105L379.028 73.9049L380.036 73.161L384.443 76.709L393.027 80.5718L401.899 82.0883L411.174 80.2857L417.108 77.7105L419.844 75.8506L421.14 78.3114L421.371 80.5718L420.103 82.5461L420.334 88.0685L420.42 92.4463L420.593 95.7655L427.65 86.7237L430.213 78.1969L430.098 71.5872L429.551 65.607L427.794 60.0274L424.568 54.362L419.498 49.9555L411.203 45.6349L403.858 44.2901L395.216 44.4618L385.596 48.296L380.756 52.1302L375.514 59.3121L373.066 63.9475L371.539 71.5586V77.1096L372.979 82.2886L375.572 88.8411L377.127 91.0443L379.086 93.2189L381.275 94.621Z" fill="#962420" stroke="black" stroke-width="0.787356" stroke-miterlimit="22.9256"/>
<path fill-rule="evenodd" clip-rule="evenodd" d="M428.112 116.74C428.256 116.654 432.749 116.797 432.893 116.683C432.951 116.654 433.757 115.481 432.893 115.338C431.367 115.595 425.692 115.624 423.762 114.136C421.573 112.82 419.816 106.954 419.672 98.17C419.672 98.1414 420.997 96.8538 420.997 96.8251C420.911 92.247 420.911 87.2683 420.796 82.404C420.824 82.261 419.615 83.3483 419.615 83.3483C419.643 88.2984 419.586 93.4774 419.672 98.17C419.672 98.2558 418.203 99.5148 418.203 99.6293C418.261 103.32 419.874 113.564 422.956 115.424C424.713 116.511 426.412 116.654 428.112 116.74Z" fill="#431F20"/>
<path fill-rule="evenodd" clip-rule="evenodd" d="M419.442 83.4619C420.882 82.718 421.89 81.2587 422.034 79.5419C422.121 78.3115 421.746 77.1098 420.997 76.1369C420.738 75.7936 420.248 75.7649 419.903 76.0225C419.557 76.28 419.499 76.7664 419.787 77.1098C420.306 77.7679 420.565 78.5977 420.508 79.4275C420.392 80.944 419.269 82.1743 417.771 82.4319C417.512 82.4891 417.224 82.4891 416.936 82.4605C416.504 82.4319 416.129 82.7466 416.1 83.1758C416.072 83.605 416.388 83.977 416.821 84.0056C417.224 84.0342 417.627 84.0056 418.03 83.9484C418.52 83.8625 419.01 83.6908 419.442 83.4619Z" fill="#431F20"/>
<path fill-rule="evenodd" clip-rule="evenodd" d="M418.319 81.5454C419.01 81.2021 419.5 80.4868 419.557 79.6284C419.644 78.3408 418.751 77.2248 417.512 77.139C416.274 77.0532 415.208 77.9974 415.093 79.285C415.064 79.7142 415.381 80.0862 415.813 80.1148C416.245 80.1434 416.619 79.8286 416.648 79.3994C416.677 78.9702 417.023 78.6269 417.397 78.6555C417.771 78.6841 418.059 79.0561 418.031 79.4853C418.002 79.9145 417.656 80.2578 417.282 80.2292C416.85 80.2006 416.475 80.5154 416.446 80.9446C416.418 81.3738 416.734 81.7457 417.167 81.7743C417.57 81.803 417.973 81.7171 418.319 81.5454Z" fill="#431F20"/>
<path fill-rule="evenodd" clip-rule="evenodd" d="M416.215 79.1124C418.059 78.1396 419.816 76.9951 421.429 75.6788C421.746 75.4213 421.803 74.9349 421.544 74.5915C421.256 74.2482 420.766 74.2196 420.449 74.4771C418.116 76.3656 415.437 77.9393 412.672 79.0266C401.179 83.6047 387.9 80.5145 379.634 71.3296C379.346 71.0149 378.856 70.9863 378.539 71.2724C378.222 71.5585 378.193 72.0449 378.481 72.3597C387.18 82.0024 401.15 85.2643 413.248 80.4573C414.228 80.0853 415.236 79.6275 416.215 79.1124Z" fill="#431F20"/>
<path fill-rule="evenodd" clip-rule="evenodd" d="M390.897 84.464C391.041 84.3781 391.156 84.2637 391.242 84.1206C391.415 83.7487 391.271 83.2622 390.897 83.0905C385.568 80.4867 382.14 76.9387 379.778 71.5594C379.605 71.1588 379.144 70.9871 378.741 71.1588C378.367 71.3305 378.165 71.7883 378.338 72.1889C380.844 77.8543 384.617 81.7457 390.205 84.4926C390.436 84.6071 390.695 84.5784 390.897 84.464Z" fill="#431F20"/>
<path fill-rule="evenodd" clip-rule="evenodd" d="M389.485 97.9119C389.687 97.7974 389.831 97.6257 389.888 97.3968C389.975 96.9676 389.715 96.5671 389.312 96.4812C388.534 96.3095 388.045 95.5084 388.218 94.7358C388.39 93.9632 389.197 93.4768 389.975 93.6485C390.378 93.7343 390.81 93.4768 390.896 93.0762C390.983 92.647 390.724 92.2464 390.32 92.1606C388.707 91.7886 387.094 92.7901 386.72 94.3924C386.345 95.9948 387.353 97.5971 388.966 97.9691C389.139 98.0263 389.341 97.9977 389.485 97.9119Z" fill="#431F20"/>
<path fill-rule="evenodd" clip-rule="evenodd" d="M416.417 101.403C424.972 93.2765 436.465 81.6881 428.285 59.3411C424.655 52.5025 418.607 47.3521 411.261 44.8342L410.196 44.548C403.369 42.4307 395.966 42.8312 389.341 45.6353C383.292 48.2105 378.367 52.5312 375.083 58.1394C375.054 58.168 374.219 59.7989 374.017 60.1709C369.812 68.7835 369.956 78.9985 374.449 87.468C376.149 90.6727 378.396 93.5341 381.103 95.9376C381.42 96.2237 381.91 96.1951 382.198 95.8804C382.486 95.5656 382.457 95.0792 382.14 94.7931C379.577 92.504 377.445 89.8143 375.832 86.7527C371.569 78.7124 371.425 69.0411 375.429 60.8576C375.602 60.4857 376.437 58.9119 376.437 58.9119C379.548 53.6185 384.243 49.4981 389.946 47.066C396.226 44.405 403.254 44.033 409.764 46.0359L410.801 46.2935C417.742 48.6684 423.474 53.5326 426.902 60.0279C433.354 78.5121 428.918 87.8972 415.294 100.344C415.179 100.945 416.245 101.574 416.417 101.403Z" fill="#431F20"/>
<path fill-rule="evenodd" clip-rule="evenodd" d="M381.477 84.7782C381.621 84.6924 381.736 84.5779 381.794 84.4348C382.082 83.8626 382.6 83.5192 383.177 83.4906C383.609 83.462 383.925 83.09 383.897 82.6894C383.868 82.2602 383.493 81.9455 383.09 81.9741C381.938 82.0313 380.93 82.718 380.411 83.7767C380.21 84.1487 380.383 84.6351 380.757 84.8068C381.016 84.8927 381.275 84.8927 381.477 84.7782Z" fill="#431F20"/>
<path fill-rule="evenodd" clip-rule="evenodd" d="M386.634 88.155C387.21 89.2423 387.181 90.3582 386.576 90.7016C385.971 91.0163 384.992 90.4154 384.416 89.3281C383.84 88.2408 383.868 87.1249 384.473 86.7815C385.078 86.4668 386.057 87.0677 386.634 88.155Z" fill="#431F20"/>
<path fill-rule="evenodd" clip-rule="evenodd" d="M396.167 84.2923C396.801 85.351 396.801 86.4955 396.196 86.8389C395.591 87.1822 394.612 86.61 393.978 85.5513C393.344 84.4926 393.344 83.3481 393.949 83.0047C394.554 82.6613 395.533 83.2336 396.167 84.2923Z" fill="#431F20"/>
<path fill-rule="evenodd" clip-rule="evenodd" d="M403.225 97.7403C403.253 97.7403 403.253 97.7117 403.253 97.7117C403.628 97.4828 403.743 97.0249 403.513 96.653C403.196 96.1379 402.562 95.6229 401.842 95.3081C400.978 94.9362 400.2 94.9076 399.624 95.2509C399.25 95.4798 399.134 95.9376 399.365 96.3096C399.595 96.6816 400.056 96.7674 400.43 96.5671C400.69 96.4241 401.842 96.8819 402.188 97.4255C402.418 97.7975 402.879 97.9406 403.225 97.7403Z" fill="#431F20"/>
<path fill-rule="evenodd" clip-rule="evenodd" d="M433.095 116.024H437.012C440.267 117.426 441.822 119.343 442.831 121.89L443.896 124.522C443.896 137.169 452.106 146.211 464.837 146.211C474.89 146.211 483.445 139.83 486.584 130.903C486.584 130.903 486.844 130.359 486.325 129.615C484.424 126.182 486.44 118.685 486.44 118.685L488.745 108.785C488.918 107.926 489.782 107.354 490.646 107.526L491.107 106.725C491.279 105.866 492.144 105.294 493.008 105.466C493.325 105.523 493.584 105.666 493.814 105.866L494.073 106.381C494.246 105.523 495.11 104.951 495.975 105.122C496.839 105.294 497.415 106.152 497.242 107.011L497.069 107.898L496.119 109.1C496.291 108.241 497.156 107.669 498.02 107.841C498.884 108.012 499.46 108.871 499.287 109.729L499.201 110.13L498.193 114.565L498.682 114.679C498.97 114.536 498.625 114.479 498.999 114.565C500.036 114.765 500.295 115.709 500.094 116.739L499.892 117.741L498.077 125.238L497.876 126.153C497.444 128.271 496.09 130.13 493.757 131.418C493.296 131.733 492.691 132.935 492.691 132.935L492.748 132.992C488.975 144.838 477.857 153.422 464.693 153.422C455.735 153.422 442.6 147.642 437.847 137.055L434.909 129.301L433.095 116.024Z" fill="#FDD491"/>
<path fill-rule="evenodd" clip-rule="evenodd" d="M464.463 154.08C455.649 154.08 447.295 150.246 441.563 143.579C440.008 141.977 437.243 137.284 437.214 137.227C436.955 136.655 437.3 133.936 437.387 134.537C437.56 135.653 441.477 141.748 442.571 142.721C448.044 149.101 456.023 152.735 464.434 152.735C477.05 152.735 488.054 144.724 491.856 132.792C491.971 132.449 492.345 132.248 492.72 132.363C493.094 132.477 493.267 132.849 493.152 133.221C489.235 145.668 477.684 154.08 464.463 154.08Z" fill="#431F20"/>
<path fill-rule="evenodd" clip-rule="evenodd" d="M464.692 146.898C451.615 146.898 446.603 140.631 443.579 128.07L443.32 125.466C443.32 123.149 440.554 118.943 439.028 118.199C437.069 117.283 434.995 116.711 432.95 116.711C432.576 116.711 432.259 116.396 432.259 116.024C432.259 115.652 432.576 115.337 432.95 115.337C435.283 115.337 437.444 115.967 439.575 116.911C441.591 117.798 444.702 122.376 444.702 125.438L444.962 128.042C447.986 140.002 452.393 145.524 464.721 145.524C474.198 145.524 482.695 139.544 485.835 130.674C485.835 130.645 485.864 130.617 485.864 130.588C485.864 130.588 485.921 130.359 485.662 129.987C485.46 129.673 485.518 129.243 485.835 129.043C486.152 128.843 486.584 128.9 486.785 129.215C487.419 130.159 487.217 130.903 487.131 131.132C483.732 140.574 474.745 146.898 464.692 146.898Z" fill="#431F20"/>
<path fill-rule="evenodd" clip-rule="evenodd" d="M492.49 133.593C492.375 133.593 492.288 133.564 492.173 133.507C491.827 133.335 491.712 132.934 491.885 132.591C492.058 132.276 492.634 131.189 493.268 130.846C495.342 129.73 496.638 128.07 497.041 126.039L497.214 125.123L499.029 117.598L499.23 116.596C499.317 116.196 499.288 115.852 499.201 115.623C499.144 115.509 499.057 115.366 498.827 115.28H498.798C498.452 115.452 498.049 115.309 497.876 114.965C497.732 114.679 497.819 114.336 498.049 114.164C498.078 114.107 498.107 114.078 498.136 114.05C498.395 113.792 498.712 113.849 498.827 113.878L498.913 113.907C499.605 114.05 500.152 114.45 500.411 115.08C500.642 115.566 500.67 116.196 500.526 116.882L500.325 117.884L498.366 126.353C497.876 128.785 496.321 130.76 493.901 132.076C493.729 132.162 493.354 132.734 493.066 133.249C492.98 133.478 492.72 133.593 492.49 133.593Z" fill="#431F20"/>
<path fill-rule="evenodd" clip-rule="evenodd" d="M459.336 293.913C456.196 293.856 453.719 291.31 453.776 288.191C453.834 285.072 456.398 282.611 459.537 282.668C462.648 282.726 465.154 285.272 465.096 288.391C465.039 291.481 462.475 293.971 459.336 293.913Z" fill="#FEFEFE"/>
<path fill-rule="evenodd" clip-rule="evenodd" d="M486.181 130.302C485.951 130.302 485.692 130.187 485.576 129.958C483.56 126.324 485.547 118.828 485.605 118.513L487.909 108.641C487.996 108.269 488.341 108.041 488.716 108.126C489.09 108.212 489.321 108.584 489.234 108.928L486.93 118.828C486.901 118.914 485.029 126.124 486.757 129.3C486.93 129.615 486.815 130.044 486.498 130.216C486.383 130.273 486.268 130.302 486.181 130.302Z" fill="#431F20"/>
<path fill-rule="evenodd" clip-rule="evenodd" d="M499.085 110.445C499.027 110.445 498.998 110.445 498.941 110.445C498.566 110.359 498.336 110.016 498.394 109.644C498.451 109.386 498.394 109.157 498.25 108.957C498.106 108.757 497.904 108.614 497.645 108.556C497.385 108.499 497.155 108.556 496.953 108.699C496.752 108.843 496.608 109.043 496.55 109.3C496.464 109.672 496.118 109.901 495.744 109.844C495.369 109.758 495.139 109.415 495.196 109.043C495.312 108.442 495.657 107.927 496.176 107.584C496.694 107.24 497.299 107.126 497.904 107.24C498.509 107.355 499.027 107.698 499.373 108.213C499.719 108.728 499.834 109.329 499.719 109.93C499.69 110.245 499.402 110.445 499.085 110.445Z" fill="#431F20"/>
<path fill-rule="evenodd" clip-rule="evenodd" d="M496.896 108.613C496.839 108.613 496.81 108.613 496.752 108.613C496.378 108.528 496.148 108.184 496.205 107.812L496.378 106.925C496.436 106.668 496.378 106.439 496.234 106.239C496.09 106.038 495.888 105.895 495.629 105.838C495.111 105.723 494.621 106.067 494.534 106.553C494.448 106.925 494.102 107.154 493.728 107.068C493.353 106.982 493.123 106.639 493.181 106.267C493.44 105.037 494.65 104.236 495.888 104.493C496.493 104.608 497.012 104.951 497.357 105.466C497.703 105.981 497.818 106.582 497.703 107.183L497.53 108.07C497.501 108.385 497.213 108.613 496.896 108.613Z" fill="#431F20"/>
<path fill-rule="evenodd" clip-rule="evenodd" d="M490.934 107.411C490.877 107.411 490.848 107.411 490.79 107.411C490.416 107.326 490.186 106.982 490.243 106.61C490.358 106.009 490.704 105.494 491.223 105.151C491.741 104.808 492.346 104.693 492.951 104.808C493.383 104.893 493.757 105.094 494.074 105.38C494.333 105.637 494.362 106.067 494.103 106.324C493.844 106.582 493.412 106.61 493.152 106.353C493.037 106.238 492.864 106.152 492.692 106.124C492.432 106.067 492.202 106.124 492 106.267C491.799 106.41 491.655 106.61 491.597 106.868C491.539 107.182 491.251 107.411 490.934 107.411Z" fill="#431F20"/>
<path fill-rule="evenodd" clip-rule="evenodd" d="M488.572 109.443C488.515 109.443 488.486 109.443 488.428 109.443C488.054 109.357 487.823 109.014 487.881 108.642C487.996 108.041 488.342 107.526 488.86 107.183C489.379 106.839 489.984 106.725 490.588 106.839C490.963 106.925 491.193 107.269 491.136 107.641C491.049 108.013 490.704 108.241 490.329 108.184C489.811 108.07 489.321 108.413 489.235 108.9C489.177 109.243 488.889 109.443 488.572 109.443Z" fill="#431F20"/>
<path fill-rule="evenodd" clip-rule="evenodd" d="M488.371 118.656C488.313 118.656 488.285 118.656 488.227 118.628C487.853 118.542 487.622 118.17 487.709 117.827L490.186 107.011C490.272 106.639 490.647 106.41 490.992 106.496C491.367 106.582 491.597 106.954 491.511 107.297L489.034 118.113C488.976 118.428 488.688 118.656 488.371 118.656Z" fill="#431F20"/>
<path fill-rule="evenodd" clip-rule="evenodd" d="M491.423 117.884C491.365 117.884 491.336 117.884 491.279 117.855C490.904 117.77 490.674 117.398 490.76 117.054L493.237 106.238C493.324 105.866 493.67 105.637 494.044 105.723C494.418 105.809 494.649 106.181 494.562 106.524L492.085 117.34C491.999 117.655 491.74 117.884 491.423 117.884Z" fill="#431F20"/>
<path fill-rule="evenodd" clip-rule="evenodd" d="M493.843 118.743C493.785 118.743 493.728 118.743 493.699 118.714C493.324 118.628 493.094 118.256 493.18 117.913L495.341 108.728C495.427 108.356 495.801 108.127 496.147 108.213C496.522 108.299 496.752 108.671 496.666 109.014L494.505 118.199C494.419 118.542 494.131 118.743 493.843 118.743Z" fill="#431F20"/>
<path fill-rule="evenodd" clip-rule="evenodd" d="M496.264 123.034C496.206 123.034 496.177 123.034 496.12 123.006C495.745 122.92 495.515 122.548 495.601 122.205L498.338 110.044C498.424 109.672 498.77 109.443 499.144 109.529C499.519 109.615 499.749 109.987 499.663 110.33L496.897 122.491C496.84 122.805 496.552 123.034 496.264 123.034Z" fill="#431F20"/>
<path fill-rule="evenodd" clip-rule="evenodd" d="M417.311 135.853C414.978 138.257 404.867 134.652 396.543 138.2C392.424 139.945 387.556 148.93 386.663 150.418C375.602 168.73 374.479 190.162 381.709 208.36L381.478 209.247C382.457 208.474 383.811 208.159 385.107 208.503C385.943 208.732 386.663 209.189 387.181 209.79C387.354 209.991 390.292 213.71 395.506 212.766L395.88 212.823C396.831 213.109 397.407 214.082 397.119 215.055C396.975 215.57 396.629 215.971 396.168 216.171C395.794 216.371 391.099 217.773 389.054 214.283L390.35 215.828C390.35 215.828 394.584 222.294 394.584 222.323C394.93 223.067 394.699 223.954 394.008 224.412C393.288 224.87 392.366 224.726 391.819 224.097C391.79 224.068 389.659 220.749 389.659 220.721L387.959 218.489C387.959 218.517 387.988 218.517 387.988 218.546C388.017 218.575 389.428 220.663 389.457 220.721C389.831 221.465 389.63 222.38 388.91 222.838C388.218 223.296 387.268 223.181 386.721 222.58C386.692 222.552 385.28 220.492 385.251 220.463C385.223 220.434 385.194 220.377 385.165 220.349L385.194 220.434C385.194 220.463 385.223 220.463 385.223 220.492C385.251 220.52 386.663 222.609 386.692 222.666C387.066 223.41 386.865 224.326 386.144 224.784C385.453 225.27 384.503 225.127 383.955 224.526C383.926 224.498 382.515 222.437 382.486 222.409C382.457 222.38 382.429 222.352 382.4 222.294L383.811 224.326C383.84 224.354 384.157 224.812 384.186 224.841C384.56 225.585 384.071 226.243 383.35 226.729C382.659 227.187 381.939 227.016 381.392 226.415C381.363 226.386 376.149 218.517 376.149 218.517C375.458 217.287 375.228 215.77 375.66 214.311C376.149 212.594 377.417 211.278 378.972 210.677L375.948 213.739C366.183 192.937 366.644 167.872 379.404 146.727C389.716 124.637 398.069 122.491 410.369 121.862L417.311 135.853Z" fill="#FDD491"/>
<path fill-rule="evenodd" clip-rule="evenodd" d="M371.598 172.793C371.684 172.65 371.8 172.536 371.915 172.421C372.318 172.049 372.837 171.82 373.384 171.82C373.931 171.82 374.45 172.049 374.853 172.45C375.227 172.85 375.458 173.365 375.458 173.909C375.458 174.224 375.199 174.453 374.911 174.453C374.623 174.453 374.363 174.195 374.363 173.909C374.363 173.651 374.277 173.394 374.075 173.222C373.902 173.022 373.643 172.936 373.384 172.936C373.125 172.936 372.865 173.022 372.693 173.222C372.491 173.394 372.405 173.651 372.405 173.909C372.405 174.195 372.145 174.453 371.857 174.453C371.569 174.453 371.31 174.195 371.31 173.909C371.281 173.48 371.396 173.136 371.598 172.793Z" fill="#431F20"/>
<path fill-rule="evenodd" clip-rule="evenodd" d="M380.038 144.781C382.717 140.575 388.536 121.432 408.382 121.261C408.785 121.261 408.209 121.175 408.612 121.203C409.131 120.688 408.814 121.346 408.814 121.776C408.238 121.747 409.62 121.833 409.16 122.033C409.016 122.09 409.188 122.119 408.929 122.119C388.737 122.777 382.832 142.234 380.038 146.869C367.825 167.099 366.414 191.707 376.467 213.138C376.582 213.395 376.467 213.853 376.179 213.968C375.891 214.082 375.718 214.111 375.574 213.825C365.348 192.079 366.673 166.842 379.059 146.297C379.405 145.782 379.722 145.296 380.038 144.781Z" fill="#431F20"/>
<path fill-rule="evenodd" clip-rule="evenodd" d="M387.153 148.558C389.63 144.695 392.51 141.061 395.679 137.799C395.679 137.799 396.284 137.112 397.09 137.084C397.35 137.084 398.012 137.656 397.897 137.856C397.868 137.885 396.457 138.543 396.428 138.572C392.942 142.177 389.832 146.183 387.21 150.532C376.582 168.158 374.796 189.103 382.285 208.016C382.4 208.302 382.256 208.617 381.968 208.731C381.68 208.846 381.363 208.703 381.248 208.417C373.615 189.188 375.429 167.9 386.26 149.988C386.548 149.502 386.836 149.015 387.153 148.558Z" fill="#431F20"/>
<path fill-rule="evenodd" clip-rule="evenodd" d="M385.308 220.292L384.847 220.606C384.502 220.091 383.81 219.977 383.292 220.32C382.773 220.664 382.658 221.35 383.004 221.865C383.033 221.894 383.033 221.922 383.061 221.922C383.09 221.951 383.321 222.294 383.609 222.724C384.012 223.296 384.473 224.011 384.53 224.069C384.876 224.44 385.51 224.526 385.971 224.212C386.432 223.897 386.604 223.267 386.345 222.781C386.316 222.752 385.855 222.066 385.452 221.493C385.164 221.064 384.905 220.664 384.876 220.664L385.308 220.292ZM382.053 220.034C382.197 219.777 382.428 219.576 382.687 219.405C383.695 218.718 385.078 218.975 385.769 219.977L385.798 220.005C385.855 220.091 386.086 220.435 386.374 220.835C387.296 222.18 387.296 222.18 387.325 222.237C387.843 223.239 387.526 224.44 386.604 225.07C385.683 225.671 384.444 225.528 383.724 224.727C383.695 224.698 383.695 224.698 382.745 223.296C382.485 222.895 382.255 222.581 382.226 222.552C382.197 222.523 382.169 222.495 382.14 222.438C381.592 221.694 381.592 220.749 382.053 220.034Z" fill="#431F20"/>
<path fill-rule="evenodd" clip-rule="evenodd" d="M388.996 221.894C389.198 221.579 389.227 221.15 389.054 220.778C389.025 220.72 388.507 219.977 388.103 219.376C387.844 218.975 387.614 218.66 387.614 218.632L387.585 218.603C387.239 218.088 386.548 217.974 386.029 218.317C385.77 218.489 385.626 218.746 385.569 219.032C385.511 219.318 385.569 219.633 385.741 219.862C385.77 219.891 385.77 219.919 385.799 219.919C385.828 219.948 386.001 220.234 386.26 220.577C386.663 221.178 387.239 221.979 387.297 222.065C387.642 222.437 388.276 222.523 388.737 222.208C388.823 222.151 388.91 222.037 388.996 221.894ZM384.791 218.088C384.964 217.831 385.165 217.63 385.425 217.459C386.433 216.772 387.815 217.029 388.507 218.031L388.564 218.117C388.593 218.145 388.795 218.46 389.054 218.803C390.033 220.263 390.033 220.263 390.062 220.291C390.581 221.293 390.264 222.494 389.342 223.124C388.42 223.753 387.182 223.582 386.461 222.781C386.433 222.752 386.433 222.752 385.367 221.207C385.136 220.892 384.964 220.635 384.964 220.606C384.935 220.606 384.906 220.549 384.877 220.492C384.56 220.005 384.416 219.433 384.532 218.832C384.532 218.574 384.647 218.317 384.791 218.088Z" fill="#431F20"/>
<path fill-rule="evenodd" clip-rule="evenodd" d="M375.687 212.565C376.263 211.822 376.724 211.593 377.041 211.306C377.329 211.192 377.646 211.335 377.761 211.621C377.876 211.907 377.732 212.222 377.444 212.337C376.494 213.138 376.753 212.823 376.321 214.311C375.946 215.598 376.119 216.943 376.753 218.116C379.115 221.693 381.563 225.613 381.909 226.128C382.283 226.529 382.687 226.729 383.148 226.414C383.436 226.243 383.81 226.472 383.983 226.271C384.184 226.014 384.213 225.642 383.493 224.469C383.349 224.211 383.407 223.868 383.666 223.725C383.925 223.582 384.242 223.639 384.415 223.896C384.905 224.612 385.538 225.47 385.279 225.327C384.329 224.783 384.761 225.899 383.436 226.758C382.514 227.359 381.851 227.444 381.102 226.643C381.074 226.586 383.09 229.648 375.831 218.689C375.025 217.229 374.823 215.598 375.284 214.025C375.457 213.452 375.37 213.052 375.687 212.565Z" fill="#431F20"/>
<path fill-rule="evenodd" clip-rule="evenodd" d="M389.976 215.341C390.005 215.284 390.062 215.226 390.149 215.169C390.408 214.998 390.754 215.083 390.898 215.341C395.132 221.836 395.161 221.865 395.161 221.893C395.65 222.895 395.305 224.068 394.383 224.697C393.461 225.327 392.194 225.155 391.474 224.297C391.445 224.24 391.445 224.24 390.034 222.065C389.63 221.464 389.313 220.921 389.285 220.892C389.112 220.634 389.198 220.32 389.429 220.148C389.659 219.976 390.005 220.034 390.178 220.262C390.206 220.291 390.206 220.291 390.955 221.493C391.56 222.408 392.28 223.553 392.338 223.639C392.684 224.039 393.317 224.125 393.778 223.81C394.239 223.496 394.412 222.895 394.181 222.408C394.124 222.323 391.387 218.145 389.976 215.97C389.832 215.742 389.861 215.513 389.976 215.341Z" fill="#431F20"/>
<path fill-rule="evenodd" clip-rule="evenodd" d="M388.678 213.824C388.736 213.767 388.793 213.681 388.88 213.653C389.139 213.51 389.485 213.596 389.629 213.853C391.53 217.086 395.995 215.541 396.052 215.541C396.369 215.398 396.599 215.112 396.715 214.769C396.916 214.111 396.513 213.395 395.85 213.224C395.562 213.138 395.39 212.852 395.476 212.565C395.562 212.279 395.85 212.108 396.139 212.193C397.377 212.537 398.126 213.853 397.752 215.083C397.579 215.713 397.118 216.257 396.513 216.543C395.85 216.857 390.867 218.174 388.678 214.425C388.563 214.196 388.563 213.967 388.678 213.824Z" fill="#431F20"/>
<path fill-rule="evenodd" clip-rule="evenodd" d="M381.074 208.788C381.103 208.731 381.161 208.702 381.19 208.645C382.371 207.73 383.868 207.415 385.309 207.815C386.23 208.044 387.037 208.559 387.671 209.246C388.419 210.133 391.098 212.823 395.476 212.05C395.765 211.993 396.053 212.193 396.11 212.479C396.168 212.765 395.966 213.052 395.678 213.109C390.724 213.996 387.671 210.934 386.864 209.99C386.374 209.418 385.741 209.046 385.049 208.874C383.955 208.588 382.803 208.817 381.881 209.532C381.65 209.704 381.305 209.675 381.103 209.446C380.959 209.246 380.959 208.989 381.074 208.788Z" fill="#431F20"/>
<path fill-rule="evenodd" clip-rule="evenodd" d="M382.573 222.151L382.112 222.466C381.766 221.951 381.075 221.836 380.557 222.18C380.038 222.523 379.923 223.21 380.269 223.725C380.297 223.753 380.297 223.782 380.326 223.782C380.355 223.811 380.585 224.154 380.873 224.583C381.277 225.155 381.738 225.871 381.795 225.928C382.141 226.3 382.774 226.386 383.235 226.071C383.696 225.756 383.869 225.127 383.61 224.64C383.581 224.612 383.12 223.925 382.717 223.353C382.429 222.924 382.17 222.523 382.141 222.523L382.573 222.151ZM379.318 221.894C379.462 221.636 379.692 221.436 379.952 221.264C380.96 220.577 382.342 220.835 383.034 221.836L383.063 221.865C383.12 221.951 383.351 222.294 383.639 222.695C384.56 224.04 384.56 224.04 384.589 224.097C385.108 225.098 384.791 226.3 383.869 226.929C382.947 227.53 381.709 227.387 380.989 226.586C380.96 226.558 380.96 226.558 380.009 225.155C379.75 224.784 379.52 224.44 379.491 224.412C379.462 224.383 379.433 224.354 379.404 224.297C378.857 223.582 378.857 222.637 379.318 221.894Z" fill="#431F20"/>
<path fill-rule="evenodd" clip-rule="evenodd" d="M437.126 212.88C448.706 209.304 458.067 204.869 457.693 203.438C457.232 201.721 445.163 203.781 429.234 207.844C428.255 208.102 427.275 208.359 426.296 208.617C409.042 213.195 395.418 218.403 395.936 220.234C396.311 221.665 405.182 220.634 417.251 217.916L421.226 217.029L437.126 212.88Z" fill="#40A4CE"/>
<path fill-rule="evenodd" clip-rule="evenodd" d="M430.473 218.861C429.637 228.446 426.642 239.348 421.457 249.849L429.004 249.992C436.493 234.77 439.46 218.746 437.818 206.986L437.386 204.211C436.752 201.464 436.003 198.688 435.081 195.97L428.716 197.601L430.473 218.861Z" fill="#FDD491"/>
<path fill-rule="evenodd" clip-rule="evenodd" d="M428.716 250.765C428.63 250.765 428.572 250.736 428.486 250.707C428.226 250.593 428.14 250.278 428.255 250.049C435.427 235.457 438.711 219.49 437.012 207.358L436.58 204.611C435.975 201.893 435.197 199.146 434.304 196.457C434.218 196.199 434.362 195.913 434.621 195.827C434.88 195.741 435.168 195.884 435.255 196.142C436.176 198.86 436.954 201.636 437.559 204.44L437.991 207.244C439.719 219.605 436.407 235.771 429.148 250.536C429.09 250.679 428.918 250.765 428.716 250.765Z" fill="#431F20"/>
<path fill-rule="evenodd" clip-rule="evenodd" d="M421.17 250.621C421.112 250.621 421.026 250.593 420.968 250.564C420.738 250.45 420.622 250.163 420.738 249.906C425.519 240.177 428.63 229.533 429.436 219.948C430.185 210.019 427.622 199.489 427.651 199.461C427.823 199.06 428.371 199.089 428.544 199.461C428.572 199.518 431.366 209.733 430.416 220.034C429.581 229.734 426.441 240.492 421.602 250.335C421.544 250.507 421.371 250.621 421.17 250.621Z" fill="#431F20"/>
<path fill-rule="evenodd" clip-rule="evenodd" d="M415.09 296.889C411.951 296.832 409.474 294.285 409.531 291.167C409.589 288.048 412.152 285.587 415.292 285.644C418.432 285.701 420.909 288.248 420.851 291.367C420.794 294.486 418.201 296.946 415.09 296.889Z" fill="#FEFEFE"/>
<path fill-rule="evenodd" clip-rule="evenodd" d="M438.307 254.828C438.307 254.828 438.451 257.918 438.941 258.834C439.258 259.435 440.727 260.15 440.727 260.15L444.327 262.611C444.327 262.611 454.063 265.787 457.26 266.903C459.766 267.79 461.264 268.706 462.042 270.193C463.54 273.026 462.416 276.546 459.565 278.034C458.326 278.692 456.396 278.663 456.396 278.663C447.179 278.72 419.613 277.69 419.613 277.69C418.231 277.49 416.963 276.66 416.272 275.344C415.84 274.485 415.35 272.94 415.465 272.053L416.445 257.403L438.307 254.828Z" fill="#BD7E00"/>
<path fill-rule="evenodd" clip-rule="evenodd" d="M438.336 254.513C438.336 254.513 432.172 253.597 427.505 260.064C427.044 260.722 426.526 261.323 425.748 261.723C423.645 262.811 421.024 262.009 419.93 259.892C419.93 259.892 417.741 256.458 414.37 257.002L413.593 242.839L438.797 241.494L438.336 254.513Z" fill="#AEAB92"/>
<path fill-rule="evenodd" clip-rule="evenodd" d="M415.09 256.201C418.432 256.201 420.477 259.349 420.563 259.492C421.514 261.266 423.645 261.952 425.402 261.065C426.036 260.751 426.497 260.178 426.871 259.635C430.76 254.198 435.657 253.712 437.587 253.74L438.019 242.266L414.37 243.525L415.09 256.201ZM439.056 254.713C439.027 254.856 438.94 254.971 438.825 255.057C438.652 255.2 438.451 255.257 438.249 255.228C437.99 255.2 432.431 254.484 428.139 260.464C427.649 261.123 427.044 261.867 426.122 262.353C423.645 263.641 420.592 262.668 419.325 260.207C419.325 260.207 417.366 257.26 414.543 257.689C414.341 257.718 414.111 257.66 413.967 257.546C413.794 257.403 413.708 257.231 413.679 257.002L412.901 242.839C412.872 242.438 413.189 242.095 413.593 242.066L438.796 240.721C438.998 240.721 439.2 240.779 439.344 240.922C439.488 241.065 439.574 241.265 439.574 241.465L439.084 254.484C439.084 254.599 439.056 254.656 439.056 254.713Z" fill="#431F20"/>
<path fill-rule="evenodd" clip-rule="evenodd" d="M438.308 250.936L428.284 251.966C427.132 252.08 426.095 251.251 425.979 250.106C425.864 248.962 426.699 247.96 427.852 247.846L438.452 246.758L438.308 250.936Z" fill="#BD7E00"/>
<path fill-rule="evenodd" clip-rule="evenodd" d="M438.307 265.501C434.504 267.704 432.574 263.297 440.38 260.064C442.426 259.206 444.787 261.495 443.895 261.981C441.36 263.383 439.142 265.014 438.307 265.501Z" fill="#FEFEFE"/>
<path fill-rule="evenodd" clip-rule="evenodd" d="M458.527 288.019C458.498 288.105 458.498 288.191 458.469 288.277C458.469 288.534 458.555 288.763 458.728 288.963C458.901 289.135 459.132 289.249 459.391 289.249C459.65 289.249 459.88 289.164 460.082 288.992C460.255 288.82 460.37 288.591 460.37 288.334C460.37 287.819 459.967 287.361 459.42 287.361C459.016 287.332 458.642 287.618 458.527 288.019ZM461.753 289.02C461.637 289.392 461.407 289.736 461.119 290.022C460.658 290.48 460.024 290.709 459.391 290.709C458.728 290.709 458.123 290.423 457.691 289.965C457.23 289.507 457 288.877 457 288.248C457.029 286.903 458.123 285.844 459.477 285.873C460.831 285.902 461.897 287.018 461.868 288.334C461.868 288.591 461.839 288.82 461.753 289.02Z" fill="#431F20"/>
<path fill-rule="evenodd" clip-rule="evenodd" d="M459.361 293.198C462.069 293.256 464.316 291.081 464.373 288.391C464.402 287.075 463.912 285.845 462.991 284.9C462.069 283.956 460.859 283.441 459.534 283.413C456.826 283.355 454.58 285.53 454.522 288.22C454.465 290.909 456.625 293.141 459.361 293.198ZM465.554 290.194C464.719 292.798 462.242 294.686 459.332 294.658C455.79 294.6 452.967 291.71 453.024 288.191C453.082 284.672 455.991 281.867 459.534 281.925C461.234 281.953 462.847 282.64 464.028 283.87C465.209 285.101 465.842 286.703 465.842 288.391C465.813 289.021 465.727 289.65 465.554 290.194Z" fill="#431F20"/>
<path fill-rule="evenodd" clip-rule="evenodd" d="M462.847 274.714C462.329 276.316 461.234 277.718 459.621 278.548C458.239 279.263 456.194 279.263 456.107 279.263C446.976 279.321 419.583 278.29 419.324 278.29C419.295 278.29 419.266 278.29 419.238 278.29C417.596 278.033 416.127 277.031 415.349 275.544C414.888 274.657 414.312 272.94 414.456 271.824L415.435 257.231C415.464 256.83 415.81 256.516 416.213 256.544C416.616 256.573 416.933 256.916 416.904 257.317L415.925 271.967C415.839 272.654 416.242 274.084 416.645 274.857C417.193 275.887 418.201 276.631 419.382 276.803C420.62 276.86 447.149 277.833 456.078 277.775C456.107 277.775 457.835 277.775 458.901 277.232C461.407 275.944 462.358 272.883 461.062 270.393C460.428 269.163 459.16 268.333 456.683 267.475C453.515 266.359 443.837 263.211 443.75 263.183C443.376 263.068 443.145 262.639 443.26 262.267C443.404 261.866 443.808 261.666 444.211 261.809C444.297 261.838 453.976 264.985 457.173 266.101C460.025 267.103 461.522 268.161 462.358 269.735C463.251 271.309 463.366 273.111 462.847 274.714Z" fill="#431F20"/>
<path fill-rule="evenodd" clip-rule="evenodd" d="M435.944 265.128C435.916 265.214 435.887 265.3 435.887 265.386C435.858 265.729 436.031 265.815 436.088 265.872C436.405 266.073 437.154 266.044 438.105 265.5C438.364 265.357 438.767 265.071 439.286 264.728C440.294 264.07 441.763 263.068 443.405 262.153C443.261 261.981 442.973 261.724 442.569 261.523C442.224 261.352 441.532 261.094 440.841 261.38C437.471 262.782 436.204 264.299 435.944 265.128ZM444.96 262.639C444.874 262.925 444.672 263.126 444.442 263.269C442.742 264.184 441.216 265.214 440.121 265.958C439.574 266.33 439.142 266.616 438.854 266.788C437.529 267.561 436.204 267.704 435.311 267.131C434.677 266.731 434.36 266.073 434.447 265.272C434.591 263.412 436.78 261.466 440.294 260.035C442.195 259.263 444.298 260.522 444.874 261.695C445.018 262.067 445.047 262.382 444.96 262.639Z" fill="#431F20"/>
<path fill-rule="evenodd" clip-rule="evenodd" d="M441.302 260.893C441.302 260.922 441.273 260.951 441.273 260.979C441.1 261.351 440.64 261.494 440.294 261.322C439.891 261.122 438.566 260.464 438.162 259.692C437.615 258.661 437.471 255.915 437.442 255.371C437.413 254.97 437.73 254.627 438.134 254.598C438.537 254.57 438.882 254.884 438.911 255.285C438.969 256.487 439.199 258.461 439.487 259.005C439.603 259.205 440.294 259.692 440.928 259.978C441.244 260.178 441.417 260.55 441.302 260.893Z" fill="#431F20"/>
<path fill-rule="evenodd" clip-rule="evenodd" d="M439.027 251.165C438.941 251.451 438.71 251.652 438.393 251.68L428.369 252.71C426.814 252.882 425.403 251.738 425.259 250.221C425.115 248.676 426.238 247.302 427.793 247.131L438.393 246.043C438.797 246.015 439.171 246.301 439.2 246.702C439.229 247.102 438.941 247.474 438.537 247.503L427.937 248.59C427.188 248.676 426.641 249.334 426.728 250.049C426.814 250.793 427.476 251.308 428.225 251.251L438.249 250.221C438.653 250.164 439.027 250.479 439.056 250.879C439.056 250.965 439.056 251.051 439.027 251.165Z" fill="#431F20"/>
<path fill-rule="evenodd" clip-rule="evenodd" d="M436.581 224.783C436.494 224.783 436.379 224.755 436.321 224.698C435.976 224.469 435.572 224.44 435.256 224.612C434.996 224.726 434.708 224.64 434.593 224.383C434.478 224.125 434.564 223.839 434.823 223.725C435.486 223.381 436.264 223.439 436.897 223.868C437.128 224.011 437.185 224.326 437.041 224.555C436.897 224.698 436.753 224.783 436.581 224.783Z" fill="#431F20"/>
<path fill-rule="evenodd" clip-rule="evenodd" d="M416.216 221.836C415.381 231.536 412.357 242.524 407.114 253.139L414.747 253.311C422.323 237.917 425.29 221.779 423.648 209.904L423.216 207.1C422.582 204.325 421.804 201.549 420.883 198.774L414.459 200.405L416.216 221.836Z" fill="#FDD491"/>
<path fill-rule="evenodd" clip-rule="evenodd" d="M414.43 254.083C414.343 254.083 414.286 254.055 414.199 254.026C413.94 253.912 413.854 253.597 413.969 253.368C421.228 238.632 424.511 222.523 422.812 210.248L422.38 207.472C421.746 204.725 420.968 201.95 420.076 199.232C419.989 198.974 420.133 198.688 420.392 198.602C420.652 198.516 420.94 198.659 421.026 198.917C421.948 201.664 422.726 204.468 423.359 207.272L423.82 210.105C425.548 222.58 422.207 238.918 414.891 253.826C414.804 253.969 414.632 254.083 414.43 254.083Z" fill="#431F20"/>
<path fill-rule="evenodd" clip-rule="evenodd" d="M406.826 253.912C406.739 253.912 406.682 253.883 406.624 253.855C406.394 253.74 406.279 253.454 406.394 253.197C411.233 243.354 414.373 232.624 415.179 222.924C415.957 212.909 413.336 202.265 413.364 202.236C413.537 201.836 414.113 201.864 414.257 202.236C414.286 202.294 417.109 212.623 416.158 223.01C415.323 232.824 412.155 243.668 407.258 253.626C407.172 253.826 406.999 253.912 406.826 253.912Z" fill="#431F20"/>
<path fill-rule="evenodd" clip-rule="evenodd" d="M422.38 227.816C422.293 227.816 422.178 227.788 422.092 227.73C421.746 227.502 421.343 227.473 420.997 227.645C420.738 227.759 420.45 227.673 420.306 227.416C420.191 227.158 420.277 226.872 420.536 226.729C421.199 226.386 421.977 226.443 422.639 226.872C422.87 227.015 422.927 227.33 422.783 227.559C422.697 227.759 422.524 227.816 422.38 227.816Z" fill="#431F20"/>
<path fill-rule="evenodd" clip-rule="evenodd" d="M392.625 169.56C387.209 186.871 389.024 204.64 396.312 219.633L396.254 219.891C395.764 218.06 409.36 212.852 426.614 208.274C427.622 208.016 428.601 207.759 429.581 207.501C445.509 203.438 457.578 201.378 458.039 203.095L457.694 202.408C445.797 194.94 446.201 187.243 443.983 173.623L442.975 167.757C442.11 167.586 437.099 134.623 436.378 132.105C435.169 127.785 434.593 115.939 433.988 115.967C431.568 116.139 429.926 116.11 428.198 115.309C427.91 115.195 427.334 115.595 427.334 116.053C427.017 124.036 422.264 127.928 418.52 127.842C412.557 128.557 408.841 123.836 408.237 121.204C408.15 120.803 399.509 122.319 399.624 122.892C400.402 126.783 399.855 135.024 397.781 138.114C397.147 139.03 396.744 162.578 393.316 168.988L392.625 169.56Z" fill="#2AB6E4"/>
<path fill-rule="evenodd" clip-rule="evenodd" d="M396.946 221.121C396.197 220.92 395.938 220.577 395.852 220.205C395.679 219.518 395.333 218.259 404.781 214.625C410.542 212.422 418.319 209.99 426.701 207.758C427.709 207.501 428.689 207.243 429.668 206.986C458.069 199.775 458.732 202.236 458.933 203.066C459.682 205.898 444.013 211.421 437.935 213.309C437.589 213.424 438.05 213.08 437.935 212.708C437.82 212.365 437.359 212.022 437.733 211.907C448.823 208.474 456.485 204.782 457.551 203.409C456.226 202.923 449.197 203.409 430.014 208.273C429.034 208.531 428.055 208.788 427.076 209.046C409.246 213.767 398.444 218.288 397.263 219.804C398.473 220.262 402.678 220.377 415.64 217.487C416.62 217.258 415.871 216.686 416.13 217.887C416.418 219.089 416.706 218.603 415.698 218.832C409.678 220.176 406.711 220.634 402.851 221.063C399.625 221.435 397.897 221.378 396.946 221.121Z" fill="#431F20"/>
<path fill-rule="evenodd" clip-rule="evenodd" d="M393.69 214.111C393.546 214.082 393.402 213.968 393.316 213.853C393.114 213.539 393.201 213.138 393.489 212.938C395.217 211.793 398.616 210.305 403.311 208.617C403.657 208.503 404.06 208.674 404.175 209.018C404.319 209.361 404.118 209.762 403.772 209.876C399.221 211.507 395.851 212.995 394.238 214.054C394.065 214.139 393.863 214.168 393.69 214.111Z" fill="#431F20"/>
<path fill-rule="evenodd" clip-rule="evenodd" d="M407.343 208.503C407.141 208.446 406.968 208.302 406.882 208.074C406.767 207.73 406.94 207.358 407.314 207.244C412.009 205.67 417.396 204.096 422.897 202.637C423.272 202.551 423.617 202.751 423.733 203.123C423.819 203.467 423.617 203.839 423.243 203.953C417.741 205.413 412.384 206.986 407.717 208.531C407.602 208.531 407.458 208.531 407.343 208.503Z" fill="#431F20"/>
<path fill-rule="evenodd" clip-rule="evenodd" d="M425.836 203.123C425.606 203.066 425.433 202.894 425.375 202.637C425.289 202.265 425.491 201.921 425.865 201.836C426.729 201.607 427.593 201.406 428.457 201.178C434.967 199.575 440.728 198.316 445.077 197.601C445.452 197.544 445.798 197.773 445.855 198.144C445.913 198.516 445.682 198.86 445.308 198.917C440.987 199.661 435.255 200.891 428.774 202.494C427.939 202.694 427.075 202.923 426.211 203.152C426.067 203.152 425.951 203.152 425.836 203.123Z" fill="#431F20"/>
<path fill-rule="evenodd" clip-rule="evenodd" d="M457.751 203.209C457.693 203.18 457.636 203.151 457.578 203.123C446.114 195.912 444.184 185.812 441.764 171.076C438.855 149.673 436.205 134.136 436.205 134.022C434.765 125.495 433.21 115.251 433.267 115.28C433.67 115.366 433.728 115.509 434.102 115.108C434.16 115.051 436.205 125.953 437.3 133.85C437.3 133.936 440.18 152.363 443.55 170.961C445.883 185.268 447.151 194.997 458.298 201.978C458.615 202.179 458.701 202.579 458.5 202.894C458.327 203.18 458.039 203.266 457.751 203.209Z" fill="#431F20"/>
<path fill-rule="evenodd" clip-rule="evenodd" d="M396.371 220.406C396.198 220.348 396.025 220.234 395.939 220.062C388.277 204.296 386.952 186.356 392.223 169.502C396.025 160.89 396.342 138.686 396.428 138.6C396.428 138.6 401.008 131.475 399.107 123.006C399.049 122.748 399.194 122.605 399.194 122.605C400.144 123.435 399.626 122.805 400.058 122.634C400.058 122.634 400 122.748 400.029 122.92C401.671 132.563 397.811 138.171 397.811 138.199C397.84 138.285 397.436 162.549 393.49 169.903C388.305 186.441 389.602 204.039 397.148 219.49C397.321 219.833 397.177 220.234 396.832 220.377C396.688 220.434 396.515 220.434 396.371 220.406Z" fill="#431F20"/>
<path fill-rule="evenodd" clip-rule="evenodd" d="M430.272 120.803C430.33 120.831 430.359 120.831 430.416 120.86C430.762 120.917 431.108 120.688 431.165 120.345C431.511 118.428 431.741 118.142 431.194 115.881C430.848 115.509 429.984 115.738 429.927 116.196C430.445 118.285 430.186 118.399 429.898 120.116C429.84 120.374 430.013 120.66 430.272 120.803Z" fill="#431F20"/>
<path fill-rule="evenodd" clip-rule="evenodd" d="M411.233 130.903C417.31 133.65 424.569 131.79 428.544 126.44C428.746 126.153 428.688 125.753 428.4 125.524C428.112 125.295 427.709 125.381 427.478 125.667C423.878 130.503 417.281 132.219 411.751 129.702C408.784 128.357 406.307 125.266 405.04 121.203C404.435 121.318 404.003 121.432 403.283 121.547C403.283 121.575 399.135 122.491 399.135 122.52C399.279 122.977 399.308 123.149 399.423 123.578C399.48 123.779 404.032 122.348 404.06 122.434C406.653 127.269 408.352 129.587 411.233 130.903Z" fill="#431F20"/>
<path fill-rule="evenodd" clip-rule="evenodd" d="M412.759 127.555C415.38 128.757 418.433 128.814 421.141 127.756C423.704 126.754 425.663 124.837 426.671 122.348C427.766 119.687 427.564 117.226 427.362 116.081C430.012 116.711 430.56 117.026 434.535 116.282C434.448 115.681 434.304 115.996 434.131 115.08C431.222 115.709 430.531 115.452 426.498 114.965C426.268 114.937 426.009 114.908 425.836 114.851C425.749 114.994 425.951 115.595 426.009 115.767C426.009 115.795 426.786 118.685 425.49 121.861C424.626 124.007 422.898 125.667 420.68 126.525C418.318 127.469 415.639 127.384 413.335 126.354C410.944 125.266 409.245 121.775 408.467 119.286C408.064 119.372 408.467 119.286 407.401 119.916C406.393 120.431 404.549 121.346 404.434 121.375C404.377 121.375 405.298 121.861 405.442 122.205C405.442 122.233 407.574 121.26 407.603 121.289C408.553 123.778 410.282 126.439 412.759 127.555Z" fill="#431F20"/>
<path fill-rule="evenodd" clip-rule="evenodd" d="M416.302 293.026C413.163 292.969 410.686 290.423 410.743 287.304C410.801 284.185 413.364 281.724 416.504 281.781C419.644 281.839 422.121 284.385 422.063 287.504C422.006 290.594 419.413 293.084 416.302 293.026Z" fill="#FEFEFE"/>
<path fill-rule="evenodd" clip-rule="evenodd" d="M430.53 293.255C427.39 293.198 424.913 290.652 424.971 287.533C425.028 284.414 427.592 281.953 430.732 282.01C433.871 282.068 436.348 284.614 436.291 287.733C436.262 290.852 433.67 293.313 430.53 293.255Z" fill="#FEFEFE"/>
<path fill-rule="evenodd" clip-rule="evenodd" d="M444.79 293.513C441.65 293.455 439.173 290.909 439.23 287.79C439.288 284.671 441.852 282.21 444.991 282.268C448.102 282.325 450.608 284.871 450.551 287.99C450.493 291.081 447.901 293.541 444.79 293.513Z" fill="#FEFEFE"/>
<path fill-rule="evenodd" clip-rule="evenodd" d="M422.841 257.002C422.841 257.002 423.014 260.064 423.532 261.008C423.849 261.609 425.318 262.296 425.318 262.296L428.919 264.728C428.919 264.728 438.683 267.818 441.909 268.934C444.444 269.792 445.913 270.708 446.72 272.167C448.246 275 447.152 278.52 444.3 280.007C443.061 280.666 441.16 280.666 441.16 280.666C431.943 280.78 404.377 279.979 404.377 279.979C402.995 279.779 401.727 278.977 401.036 277.661C400.575 276.831 400.085 275.258 400.201 274.371L401.065 259.721L422.841 257.002Z" fill="#FFAA00"/>
<path fill-rule="evenodd" clip-rule="evenodd" d="M401.641 295.83C398.501 295.802 395.995 293.255 396.024 290.165C396.052 287.046 398.616 284.557 401.727 284.585C404.867 284.614 407.373 287.16 407.344 290.251C407.315 293.341 404.78 295.83 401.641 295.83Z" fill="#FEFEFE"/>
<path fill-rule="evenodd" clip-rule="evenodd" d="M416.792 289.85C416.763 289.764 416.706 289.707 416.619 289.621C416.446 289.449 416.216 289.335 415.957 289.335C415.697 289.335 415.467 289.421 415.265 289.621C415.093 289.793 414.977 290.05 414.977 290.279C414.977 290.537 415.064 290.766 415.265 290.966C415.438 291.138 415.697 291.252 415.928 291.252C416.446 291.252 416.878 290.823 416.878 290.308C416.878 290.165 416.85 289.993 416.792 289.85ZM413.768 291.452C413.566 291.109 413.479 290.708 413.479 290.308C413.479 289.65 413.739 289.049 414.2 288.591C414.66 288.133 415.294 287.904 415.928 287.904C416.59 287.904 417.195 288.162 417.656 288.62C418.117 289.077 418.347 289.707 418.347 290.336C418.347 290.994 418.088 291.595 417.627 292.053C417.166 292.511 416.562 292.768 415.899 292.74C415.237 292.74 414.632 292.482 414.171 292.025C414.027 291.824 413.883 291.653 413.768 291.452Z" fill="#391D1D"/>
<path fill-rule="evenodd" clip-rule="evenodd" d="M431.022 289.993C430.849 289.707 430.561 289.478 430.187 289.478C429.668 289.478 429.236 289.907 429.236 290.422C429.236 290.937 429.668 291.367 430.187 291.367C430.446 291.367 430.676 291.281 430.878 291.08C431.051 290.909 431.166 290.651 431.166 290.422C431.137 290.279 431.08 290.108 431.022 289.993ZM428.026 291.567C427.854 291.224 427.738 290.823 427.738 290.422C427.738 289.078 428.862 288.019 430.215 288.019C431.569 288.047 432.635 289.135 432.635 290.48C432.635 291.138 432.376 291.739 431.915 292.196C431.454 292.654 430.82 292.883 430.187 292.883C429.236 292.854 428.43 292.311 428.026 291.567Z" fill="#391D1D"/>
<path fill-rule="evenodd" clip-rule="evenodd" d="M445.395 289.965C445.366 289.879 445.308 289.822 445.222 289.736C445.049 289.564 444.818 289.45 444.559 289.45C444.041 289.45 443.609 289.879 443.609 290.394C443.609 290.652 443.695 290.881 443.897 291.081C444.07 291.253 444.329 291.367 444.559 291.367C444.818 291.367 445.049 291.281 445.251 291.081C445.423 290.909 445.539 290.652 445.539 290.423C445.51 290.28 445.452 290.108 445.395 289.965ZM442.37 291.539C442.168 291.195 442.082 290.795 442.082 290.394C442.082 289.049 443.205 287.991 444.53 287.991C445.193 287.991 445.798 288.248 446.259 288.706C446.72 289.164 446.95 289.793 446.95 290.423C446.95 291.081 446.691 291.682 446.23 292.14C445.769 292.597 445.164 292.855 444.502 292.826C443.839 292.826 443.234 292.569 442.773 292.111C442.629 291.939 442.485 291.768 442.37 291.539Z" fill="#391D1D"/>
<path fill-rule="evenodd" clip-rule="evenodd" d="M415.898 295.944C412.759 295.916 410.253 293.369 410.281 290.279C410.31 287.16 412.874 284.671 415.985 284.699C419.124 284.728 421.63 287.275 421.602 290.365C421.573 293.455 419.009 295.973 415.898 295.944Z" fill="#FEFEFE"/>
<path fill-rule="evenodd" clip-rule="evenodd" d="M444.501 296.031C441.361 296.002 438.855 293.456 438.884 290.366C438.913 287.247 441.476 284.757 444.587 284.786C447.727 284.815 450.233 287.361 450.204 290.451C450.175 293.57 447.612 296.06 444.501 296.031Z" fill="#FEFEFE"/>
<path fill-rule="evenodd" clip-rule="evenodd" d="M430.129 296.059C426.989 296.031 424.483 293.484 424.512 290.394C424.541 287.275 427.104 284.785 430.215 284.814C433.355 284.843 435.861 287.389 435.832 290.48C435.803 293.57 433.24 296.088 430.129 296.059Z" fill="#FEFEFE"/>
<path fill-rule="evenodd" clip-rule="evenodd" d="M423.245 267.79C419.471 270.021 417.484 265.615 425.29 262.353C427.335 261.495 429.697 263.755 428.833 264.242C426.24 265.672 424.051 267.303 423.245 267.79Z" fill="#FEFEFE"/>
<path fill-rule="evenodd" clip-rule="evenodd" d="M423.158 256.802C423.158 256.802 416.965 255.915 412.385 262.438C411.924 263.097 411.406 263.726 410.657 264.127C408.554 265.243 405.962 264.441 404.838 262.353C404.838 262.353 402.62 258.948 399.25 259.491L398.357 245.328L423.532 243.783L423.158 256.802Z" fill="#FEFEFE"/>
<path fill-rule="evenodd" clip-rule="evenodd" d="M423.127 253.253L413.104 254.341C411.951 254.455 410.914 253.654 410.77 252.509C410.655 251.365 411.49 250.335 412.643 250.22L423.243 249.047L423.127 253.253Z" fill="#FFAA00"/>
<path fill-rule="evenodd" clip-rule="evenodd" d="M405.991 287.962C405.76 287.561 405.501 287.161 405.155 286.817C404.234 285.873 402.995 285.358 401.699 285.358C398.991 285.33 396.773 287.504 396.744 290.194C396.716 292.883 398.905 295.087 401.612 295.115C402.937 295.115 404.176 294.629 405.098 293.713C406.048 292.798 406.567 291.567 406.567 290.28C406.567 289.478 406.365 288.677 405.991 287.962ZM395.967 293.255C395.477 292.34 395.218 291.31 395.218 290.222C395.247 286.703 398.156 283.87 401.67 283.899C403.369 283.927 404.982 284.586 406.192 285.787C407.402 286.989 408.036 288.591 408.036 290.308C408.036 291.996 407.344 293.599 406.135 294.801C404.925 296.002 403.312 296.632 401.584 296.632C399.884 296.632 398.271 295.945 397.061 294.743C396.629 294.286 396.255 293.77 395.967 293.255Z" fill="#431F20"/>
<path fill-rule="evenodd" clip-rule="evenodd" d="M402.477 289.821C402.419 289.735 402.391 289.678 402.304 289.592C402.131 289.421 401.901 289.306 401.642 289.306C401.123 289.306 400.691 289.735 400.691 290.25C400.691 290.765 401.123 291.195 401.642 291.195C402.16 291.195 402.592 290.765 402.592 290.25C402.592 290.107 402.563 289.964 402.477 289.821ZM399.481 291.395C399.309 291.052 399.193 290.651 399.193 290.25C399.193 288.906 400.317 287.847 401.642 287.847C402.304 287.847 402.909 288.104 403.37 288.562C403.831 289.02 404.061 289.65 404.061 290.279C404.061 291.624 402.938 292.683 401.613 292.683C400.691 292.683 399.885 292.168 399.481 291.395Z" fill="#431F20"/>
<path fill-rule="evenodd" clip-rule="evenodd" d="M416.733 289.936C416.676 289.85 416.647 289.793 416.561 289.707C416.388 289.535 416.129 289.421 415.898 289.421C415.639 289.421 415.408 289.507 415.207 289.707C415.034 289.879 414.919 290.136 414.919 290.365C414.919 290.623 415.005 290.851 415.207 291.052C415.38 291.223 415.639 291.338 415.869 291.338C416.388 291.338 416.82 290.909 416.82 290.394C416.82 290.222 416.791 290.079 416.733 289.936ZM413.709 291.51C413.507 291.166 413.421 290.766 413.421 290.365C413.421 289.707 413.68 289.106 414.141 288.648C414.602 288.19 415.236 287.962 415.869 287.962C416.532 287.962 417.137 288.219 417.598 288.677C418.058 289.135 418.289 289.764 418.289 290.394C418.289 291.052 418.03 291.653 417.569 292.11C417.108 292.568 416.503 292.826 415.84 292.797C415.178 292.797 414.573 292.54 414.112 292.082C413.968 291.91 413.824 291.71 413.709 291.51Z" fill="#431F20"/>
<path fill-rule="evenodd" clip-rule="evenodd" d="M430.963 290.05C430.791 289.764 430.503 289.535 430.128 289.535C429.61 289.535 429.178 289.965 429.178 290.48C429.178 290.995 429.61 291.424 430.128 291.424C430.387 291.424 430.618 291.338 430.819 291.138C430.992 290.966 431.107 290.709 431.107 290.48C431.079 290.337 431.021 290.194 430.963 290.05ZM427.968 291.624C427.795 291.281 427.68 290.88 427.68 290.48C427.68 289.135 428.803 288.076 430.157 288.076C431.511 288.076 432.576 289.192 432.576 290.537C432.576 291.195 432.317 291.796 431.856 292.254C431.395 292.711 430.762 292.94 430.128 292.94C429.178 292.912 428.371 292.397 427.968 291.624Z" fill="#431F20"/>
<path fill-rule="evenodd" clip-rule="evenodd" d="M445.337 290.05C445.308 289.965 445.25 289.907 445.164 289.822C444.991 289.65 444.761 289.535 444.502 289.535C443.983 289.535 443.551 289.965 443.551 290.48C443.551 290.737 443.637 290.966 443.839 291.166C444.012 291.338 444.271 291.453 444.502 291.453C444.761 291.453 444.991 291.367 445.193 291.166C445.366 290.995 445.481 290.737 445.481 290.508C445.452 290.337 445.395 290.194 445.337 290.05ZM442.312 291.624C442.111 291.281 442.024 290.88 442.024 290.48C442.024 289.135 443.148 288.076 444.473 288.076C445.135 288.076 445.74 288.334 446.201 288.791C446.662 289.249 446.892 289.879 446.892 290.508C446.892 291.166 446.633 291.767 446.172 292.225C445.711 292.683 445.078 292.94 444.444 292.912C443.781 292.912 443.177 292.654 442.716 292.196C442.572 292.025 442.428 291.824 442.312 291.624Z" fill="#431F20"/>
<path fill-rule="evenodd" clip-rule="evenodd" d="M420.22 288.105C419.413 286.56 417.771 285.53 415.899 285.501C413.191 285.472 410.973 287.647 410.945 290.337C410.945 291.653 411.434 292.883 412.356 293.799C413.278 294.743 414.516 295.258 415.813 295.258C418.52 295.287 420.767 293.112 420.767 290.394C420.796 289.593 420.594 288.792 420.22 288.105ZM410.224 293.37C409.735 292.454 409.476 291.424 409.476 290.337C409.504 286.817 412.414 283.985 415.928 284.013C419.471 284.042 422.322 286.932 422.265 290.423C422.236 293.942 419.327 296.775 415.813 296.746C414.113 296.746 412.5 296.059 411.29 294.858C410.858 294.4 410.513 293.885 410.224 293.37Z" fill="#431F20"/>
<path fill-rule="evenodd" clip-rule="evenodd" d="M448.823 288.19C448.593 287.79 448.333 287.389 447.988 287.046C447.066 286.102 445.827 285.587 444.531 285.587C441.824 285.558 439.606 287.733 439.577 290.422C439.577 291.738 440.067 292.969 440.988 293.884C441.91 294.829 443.149 295.344 444.445 295.344C447.152 295.372 449.399 293.198 449.399 290.508C449.399 289.707 449.226 288.906 448.823 288.19ZM438.828 293.455C438.338 292.54 438.079 291.51 438.079 290.422C438.079 288.734 438.77 287.132 439.98 285.93C441.19 284.728 442.803 284.099 444.531 284.099C446.231 284.099 447.844 284.785 449.054 285.987C450.263 287.189 450.897 288.791 450.897 290.508C450.868 293.999 447.959 296.832 444.445 296.803C442.745 296.803 441.132 296.116 439.923 294.886C439.462 294.514 439.116 293.999 438.828 293.455Z" fill="#431F20"/>
<path fill-rule="evenodd" clip-rule="evenodd" d="M434.449 288.219C433.643 286.674 432.001 285.644 430.128 285.616C427.421 285.587 425.174 287.762 425.174 290.451C425.174 291.768 425.664 292.998 426.586 293.914C427.507 294.858 428.746 295.373 430.042 295.373C431.367 295.373 432.606 294.886 433.527 293.971C434.478 293.055 434.996 291.825 434.996 290.537C435.054 289.707 434.824 288.906 434.449 288.219ZM424.454 293.484C423.964 292.569 423.705 291.539 423.705 290.451C423.734 286.932 426.643 284.099 430.157 284.128C433.7 284.156 436.523 287.046 436.494 290.537C436.494 292.225 435.803 293.828 434.593 295.029C433.383 296.231 431.77 296.861 430.042 296.861C428.343 296.832 426.73 296.174 425.52 294.972C425.116 294.514 424.742 294.028 424.454 293.484Z" fill="#431F20"/>
<path fill-rule="evenodd" clip-rule="evenodd" d="M400.315 278.09C399.855 277.232 399.25 275.487 399.394 274.371L400.229 259.778C400.258 259.377 400.603 259.063 401.007 259.091C401.41 259.12 401.727 259.463 401.698 259.864L400.834 274.514C400.748 275.2 401.18 276.631 401.583 277.404C402.13 278.434 403.167 279.178 404.348 279.349C405.587 279.378 432.115 280.151 441.045 280.036C441.074 280.036 442.802 280.008 443.868 279.464C446.345 278.148 447.295 275.086 445.97 272.625C445.308 271.424 444.04 270.565 441.563 269.735C438.366 268.648 428.688 265.586 428.601 265.558C428.198 265.443 427.996 265.014 428.112 264.642C428.227 264.242 428.659 264.041 429.033 264.156C429.12 264.184 438.827 267.275 442.024 268.362C444.876 269.335 446.402 270.365 447.238 271.967C448.937 275.143 447.727 279.121 444.501 280.809C443.119 281.553 441.102 281.553 441.016 281.553C431.885 281.667 404.492 280.895 404.204 280.866C404.175 280.866 404.146 280.866 404.118 280.866C402.533 280.58 401.093 279.55 400.315 278.09Z" fill="#431F20"/>
<path fill-rule="evenodd" clip-rule="evenodd" d="M428.083 263.84C427.939 263.669 427.651 263.411 427.248 263.211C426.902 263.039 426.211 262.81 425.52 263.096C421.775 264.67 420.681 266.387 420.623 267.131C420.594 267.474 420.767 267.56 420.825 267.617C421.141 267.818 421.89 267.76 422.812 267.217C423.071 267.074 423.475 266.787 423.964 266.444C424.944 265.786 426.441 264.756 428.083 263.84ZM419.327 268.161C419.154 267.846 419.067 267.446 419.096 267.016C419.24 265.185 421.401 263.182 424.886 261.723C426.787 260.922 428.89 262.181 429.495 263.354C429.869 264.098 429.552 264.699 429.091 264.956C427.392 265.9 425.894 266.931 424.771 267.674C424.223 268.046 423.82 268.333 423.532 268.476C422.207 269.248 420.882 269.391 419.989 268.848C419.73 268.705 419.5 268.447 419.327 268.161Z" fill="#431F20"/>
<path fill-rule="evenodd" clip-rule="evenodd" d="M422.811 261.437C422.264 260.407 422.062 257.66 422.033 257.116C422.004 256.716 422.321 256.372 422.724 256.344C423.128 256.315 423.473 256.63 423.502 257.03C423.56 258.232 423.819 260.206 424.107 260.75C424.222 260.95 424.914 261.408 425.576 261.723C425.95 261.895 426.094 262.352 425.922 262.696C425.749 263.068 425.317 263.211 424.942 263.039C424.539 262.867 423.214 262.181 422.811 261.437Z" fill="#431F20"/>
<path fill-rule="evenodd" clip-rule="evenodd" d="M399.076 246.072L399.854 258.748C403.195 258.719 405.269 261.866 405.356 262.01C406.306 263.784 408.467 264.442 410.195 263.526C410.828 263.183 411.261 262.639 411.664 262.067C415.524 256.602 420.42 256.058 422.321 256.087L422.667 244.613L399.076 246.072ZM398.529 259.892C398.471 259.806 398.443 259.692 398.443 259.577L397.55 245.442C397.521 245.042 397.838 244.698 398.241 244.67L423.445 243.125C423.646 243.125 423.848 243.182 424.021 243.325C424.165 243.468 424.251 243.668 424.251 243.869L423.877 256.888C423.877 257.088 423.762 257.288 423.618 257.431C423.445 257.574 423.243 257.632 423.041 257.603C422.811 257.574 417.223 256.888 412.96 262.925C412.499 263.612 411.865 264.356 410.972 264.842C408.524 266.13 405.442 265.214 404.146 262.753C404.146 262.782 402.187 259.806 399.336 260.293C399.134 260.321 398.903 260.264 398.759 260.15C398.644 260.064 398.587 259.978 398.529 259.892Z" fill="#431F20"/>
<path fill-rule="evenodd" clip-rule="evenodd" d="M410.282 253.654C410.109 253.339 410.023 253.024 409.965 252.652C409.879 251.908 410.109 251.164 410.57 250.592C411.06 250.02 411.722 249.648 412.471 249.562L423.071 248.389C423.474 248.332 423.849 248.646 423.878 249.047C423.906 249.448 423.618 249.82 423.215 249.848L412.615 251.021C412.241 251.05 411.924 251.25 411.693 251.508C411.463 251.794 411.348 252.137 411.405 252.481C411.434 252.824 411.636 253.139 411.895 253.368C412.183 253.597 412.529 253.682 412.903 253.654L422.927 252.538C423.33 252.481 423.705 252.795 423.734 253.196C423.791 253.597 423.474 253.969 423.071 253.997L413.047 255.113C412.298 255.199 411.549 254.999 410.945 254.512C410.714 254.283 410.484 253.997 410.282 253.654Z" fill="#431F20"/>
<path fill-rule="evenodd" clip-rule="evenodd" d="M468.122 298.863H446.317C445.885 298.863 445.539 298.52 445.539 298.091C445.539 297.662 445.885 297.318 446.317 297.318H468.122C468.554 297.318 468.899 297.662 468.899 298.091C468.899 298.52 468.554 298.863 468.122 298.863Z" fill="#431F20"/>
<path fill-rule="evenodd" clip-rule="evenodd" d="M442.369 298.863H432.95C432.518 298.863 432.172 298.52 432.172 298.091C432.172 297.662 432.518 297.318 432.95 297.318H442.369C442.801 297.318 443.146 297.662 443.146 298.091C443.146 298.52 442.801 298.863 442.369 298.863Z" fill="#431F20"/>
<path fill-rule="evenodd" clip-rule="evenodd" d="M429.465 298.863H423.647C423.215 298.863 422.869 298.52 422.869 298.091C422.869 297.662 423.215 297.318 423.647 297.318H429.465C429.897 297.318 430.243 297.662 430.243 298.091C430.243 298.52 429.897 298.863 429.465 298.863Z" fill="#431F20"/>
<path fill-rule="evenodd" clip-rule="evenodd" d="M406.451 298.863H380.469C380.037 298.863 379.691 298.52 379.691 298.091C379.691 297.662 380.037 297.318 380.469 297.318H406.451C406.883 297.318 407.228 297.662 407.228 298.091C407.228 298.52 406.883 298.863 406.451 298.863Z" fill="#431F20"/>
<path fill-rule="evenodd" clip-rule="evenodd" d="M355.179 299.035H329.198C328.766 299.035 328.42 298.692 328.42 298.263C328.42 297.833 328.766 297.49 329.198 297.49H355.179C355.611 297.49 355.957 297.833 355.957 298.263C355.957 298.692 355.611 299.035 355.179 299.035Z" fill="#431F20"/>
</g>
<path fill-rule="evenodd" clip-rule="evenodd" d="M320.878 282.126C319.088 285.276 296.128 284.926 294.698 282.856C294.028 286.126 293.588 288.766 293.478 290.166C292.948 297.076 322.768 297.526 322.288 289.946C322.348 288.636 321.808 285.756 320.878 282.126Z" fill="white" stroke="black" stroke-width="2.1997" stroke-miterlimit="10"/>
<path fill-rule="evenodd" clip-rule="evenodd" d="M316.447 267.616L316.337 267.666C315.327 269.176 305.687 270.916 298.187 268.666C296.797 273.606 295.577 278.706 294.737 282.806C296.157 284.876 319.127 285.226 320.917 282.076L316.447 267.616Z" fill="#25B6E5" stroke="black" stroke-width="2.1997" stroke-miterlimit="10"/>
<path fill-rule="evenodd" clip-rule="evenodd" d="M306.868 250.486C304.218 250.426 300.938 259.016 298.287 268.326L298.188 268.676C305.688 270.926 315.317 269.186 316.337 267.676L316.398 267.496C313.198 258.596 309.408 250.536 306.868 250.486Z" fill="#FEFEFE" stroke="black" stroke-width="2.1997" stroke-miterlimit="10"/>
<path fill-rule="evenodd" clip-rule="evenodd" d="M250.895 282.126C249.105 285.276 226.145 284.926 224.715 282.856C224.045 286.126 223.605 288.766 223.495 290.166C222.965 297.076 252.785 297.526 252.305 289.946C252.365 288.636 251.825 285.756 250.895 282.126Z" fill="white" stroke="black" stroke-width="2.1997" stroke-miterlimit="10"/>
<path fill-rule="evenodd" clip-rule="evenodd" d="M246.465 267.616L246.355 267.666C245.345 269.176 235.705 270.916 228.205 268.666C226.815 273.606 225.595 278.706 224.755 282.806C226.175 284.876 249.145 285.226 250.935 282.076L246.465 267.616Z" fill="#25B6E5" stroke="black" stroke-width="2.1997" stroke-miterlimit="10"/>
<path fill-rule="evenodd" clip-rule="evenodd" d="M236.885 250.486C234.235 250.426 230.955 259.016 228.305 268.326L228.205 268.676C235.705 270.926 245.335 269.186 246.355 267.676L246.415 267.496C243.215 258.596 239.425 250.536 236.885 250.486Z" fill="#FEFEFE" stroke="black" stroke-width="2.1997" stroke-miterlimit="10"/>
<path fill-rule="evenodd" clip-rule="evenodd" d="M982.617 282.126C980.827 285.276 957.867 284.926 956.437 282.856C955.767 286.126 955.327 288.766 955.217 290.166C954.687 297.076 984.507 297.526 984.027 289.946C984.087 288.636 983.547 285.756 982.617 282.126Z" fill="white" stroke="black" stroke-width="2.1997" stroke-miterlimit="10"/>
<path fill-rule="evenodd" clip-rule="evenodd" d="M978.187 267.616L978.077 267.666C977.067 269.176 967.427 270.916 959.927 268.666C958.537 273.606 957.317 278.706 956.477 282.806C957.897 284.876 980.867 285.226 982.657 282.076L978.187 267.616Z" fill="#25B6E5" stroke="black" stroke-width="2.1997" stroke-miterlimit="10"/>
<path fill-rule="evenodd" clip-rule="evenodd" d="M968.607 250.486C965.957 250.426 962.677 259.016 960.027 268.326L959.927 268.676C967.427 270.926 977.057 269.186 978.077 267.676L978.137 267.496C974.937 258.596 971.147 250.536 968.607 250.486Z" fill="#FEFEFE" stroke="black" stroke-width="2.1997" stroke-miterlimit="10"/>
<path fill-rule="evenodd" clip-rule="evenodd" d="M180.915 282.126C179.125 285.276 156.165 284.926 154.735 282.856C154.065 286.126 153.625 288.766 153.515 290.166C152.985 297.076 182.805 297.526 182.325 289.946C182.385 288.636 181.845 285.756 180.915 282.126Z" fill="white" stroke="black" stroke-width="2.1997" stroke-miterlimit="10"/>
<path fill-rule="evenodd" clip-rule="evenodd" d="M176.484 267.616L176.374 267.666C175.364 269.176 165.724 270.916 158.224 268.666C156.834 273.606 155.614 278.706 154.774 282.806C156.194 284.876 179.164 285.226 180.954 282.076L176.484 267.616Z" fill="#25B6E5" stroke="black" stroke-width="2.1997" stroke-miterlimit="10"/>
<path fill-rule="evenodd" clip-rule="evenodd" d="M166.905 250.486C164.255 250.426 160.975 259.016 158.325 268.326L158.225 268.676C165.725 270.926 175.355 269.186 176.375 267.676L176.435 267.496C173.235 258.596 169.445 250.536 166.905 250.486Z" fill="#FEFEFE" stroke="black" stroke-width="2.1997" stroke-miterlimit="10"/>
<defs>
<clipPath id="clip0">
<rect width="172.221" height="280.554" fill="white" transform="translate(328.42 18.4814)"/>
</clipPath>
</defs>
</svg>
