<svg width="29" height="30" viewBox="0 0 29 30" fill="none" xmlns="http://www.w3.org/2000/svg">
<path d="M27 7.45312H21.8109C22.2891 6.70078 22.5703 5.80781 22.5703 4.85156C22.5703 2.17617 20.3941 0 17.7188 0C16.2633 0 14.952 0.646875 14.0625 1.66641C13.173 0.646875 11.8617 0 10.4062 0C7.73086 0 5.55469 2.17617 5.55469 4.85156C5.55469 5.80781 5.83242 6.70078 6.31406 7.45312H1.125C0.502734 7.45312 0 7.95586 0 8.57812V15.6094C0 15.7641 0.126562 15.8906 0.28125 15.8906H1.6875V27.9844C1.6875 28.6066 2.19023 29.1094 2.8125 29.1094H25.3125C25.9348 29.1094 26.4375 28.6066 26.4375 27.9844V15.8906H27.8438C27.9984 15.8906 28.125 15.7641 28.125 15.6094V8.57812C28.125 7.95586 27.6223 7.45312 27 7.45312ZM15.2578 4.85156C15.2578 3.49453 16.3617 2.39062 17.7188 2.39062C19.0758 2.39062 20.1797 3.49453 20.1797 4.85156C20.1797 6.20859 19.0758 7.3125 17.7188 7.3125H15.2578V4.85156ZM10.4062 2.39062C11.7633 2.39062 12.8672 3.49453 12.8672 4.85156V7.3125H10.4062C9.04922 7.3125 7.94531 6.20859 7.94531 4.85156C7.94531 3.49453 9.04922 2.39062 10.4062 2.39062ZM2.39062 13.5V9.84375H12.8672V13.5H2.39062ZM4.07812 15.8906H12.8672V26.7188H4.07812V15.8906ZM24.0469 26.7188H15.2578V15.8906H24.0469V26.7188ZM25.7344 13.5H15.2578V9.84375H25.7344V13.5Z" fill="#91C7E2"/>
</svg>
