<svg width="34" height="27" viewBox="0 0 34 27" fill="none" xmlns="http://www.w3.org/2000/svg">
<path d="M33.211 12.0455C32.5805 5.23911 26.4208 0.372803 19.6306 0.372803C19.3235 0.372803 19.0163 0.38897 18.7091 0.405137C0.941406 1.56917 0.941406 21.7134 0.941406 21.7134V23.0068C0.941406 24.7852 2.39645 26.2402 4.17484 26.2402H20.342C27.892 26.2402 33.9386 19.7572 33.211 12.0455ZM6.2119 12.5952C7.13342 10.5096 8.28129 8.79589 9.67167 7.43785L15.5242 9.91142C16.4942 10.3156 17.1086 11.2533 17.1086 12.3042C17.1086 13.743 15.9445 14.9071 14.5056 14.9071H5.33887C5.58138 14.1634 5.85622 13.3874 6.2119 12.5952ZM27.5202 19.838C26.609 20.8353 25.5003 21.6321 24.2645 22.1776C23.0286 22.7231 21.6928 23.0055 20.342 23.0068H4.17484V21.7134C4.17484 21.6811 4.191 20.2261 4.56285 18.1567H14.5056C17.7229 18.1567 20.342 15.5376 20.342 12.3203C20.342 9.97609 18.9354 7.85819 16.7852 6.95283L12.7434 5.23911C14.5218 4.31759 16.575 3.78407 18.9193 3.63857C19.1618 3.60623 19.4043 3.60623 19.6306 3.60623C24.982 3.60623 29.5411 7.43785 29.9938 12.3527C30.2524 15.1334 29.3794 17.7848 27.5202 19.838Z" fill="#A86BC0"/>
</svg>
