<svg width="17" height="16" viewBox="0 0 17 16" fill="none" xmlns="http://www.w3.org/2000/svg">
<path d="M8.48354 2.28446L2.27944 7.24775V14.1955H6.71094V10.6503H10.2561V14.1955H14.6876V7.67406C14.6877 7.54114 14.6578 7.40991 14.6003 7.29009C14.5428 7.17027 14.459 7.06493 14.3553 6.98186L8.48354 2.28446ZM8.48354 0.0146484L15.4623 5.59834C15.7735 5.84728 16.0247 6.163 16.1975 6.52214C16.3702 6.88127 16.46 7.27465 16.4602 7.67317V14.1955C16.4602 14.6656 16.2735 15.1164 15.9411 15.4489C15.6086 15.7813 15.1578 15.9681 14.6876 15.9681H2.27944C1.80931 15.9681 1.35845 15.7813 1.02602 15.4489C0.693591 15.1164 0.506836 14.6656 0.506836 14.1955V7.24775C0.506869 6.98206 0.566625 6.71978 0.681684 6.48031C0.796743 6.24083 0.964162 6.03028 1.17156 5.86423L8.48354 0.0146484Z" fill="#A86BC0"/>
</svg>
