<svg width="33" height="33" viewBox="0 0 33 33" fill="none" xmlns="http://www.w3.org/2000/svg">
<path d="M23.9537 0.13916H9.63447C4.77955 0.13916 0.8125 4.08733 0.8125 8.96114V23.2803C0.8125 28.1352 4.76066 32.1023 9.63447 32.1023H23.9537C28.8086 32.1023 32.7756 28.1541 32.7756 23.2803V8.96114C32.7756 4.08733 28.8275 0.13916 23.9537 0.13916ZM29.942 23.2614C29.942 26.5673 27.2595 29.2498 23.9537 29.2498H9.63447C6.32859 29.2498 3.64611 26.5673 3.64611 23.2614V8.94224C3.64611 5.63637 6.32859 2.95388 9.63447 2.95388H23.9537C27.2595 2.95388 29.942 5.63637 29.942 8.94224V23.2614Z" fill="white"/>
<path d="M16.8125 7.86475C12.2788 7.86475 8.57617 11.5484 8.57617 16.1011C8.57617 20.6349 12.2599 24.3375 16.8125 24.3375C21.3652 24.3375 25.03 20.6349 25.03 16.1011C25.03 11.5673 21.3463 7.86475 16.8125 7.86475ZM16.8125 21.5039C13.8467 21.5039 11.4098 19.0858 11.4098 16.1011C11.4098 13.1164 13.8278 10.6984 16.8125 10.6984C19.7973 10.6984 22.1964 13.1353 22.1964 16.1011C22.1964 19.0858 19.7784 21.5039 16.8125 21.5039Z" fill="white"/>
<path d="M25.3895 5.46582C24.8417 5.46582 24.3127 5.69251 23.916 6.07032C23.5193 6.44814 23.3115 6.99597 23.3115 7.5438C23.3115 8.09163 23.5382 8.62057 23.916 9.01728C24.2938 9.39509 24.8417 9.62178 25.3895 9.62178C25.9373 9.62178 26.4663 9.39509 26.863 9.01728C27.2597 8.62057 27.4675 8.09163 27.4675 7.5438C27.4675 6.99597 27.2408 6.46703 26.863 6.07032C26.4663 5.69251 25.9373 5.46582 25.3895 5.46582Z" fill="white"/>
</svg>
