<svg width="126" height="35" viewBox="0 0 126 35" fill="none" xmlns="http://www.w3.org/2000/svg">
<path d="M37.7982 15.2654C37.8611 14.7046 37.8924 14.175 37.8924 13.6765C37.8924 11.3088 37.2101 10.1249 35.8458 10.1249C35.216 10.1249 34.7122 10.3949 34.3343 10.9349C33.9356 11.4957 33.7362 12.2019 33.7362 13.0534C33.7362 14.4865 34.4394 16.2415 35.8458 18.3185L36.5069 19.2532L37.1997 20.2501C37.7035 21.0186 38.1235 21.7249 38.4593 22.3686C39.3197 24.0301 39.7501 25.5983 39.7501 27.0728C39.7501 28.5267 39.3827 29.669 38.6482 30.4997C37.9345 31.2892 36.9794 31.6837 35.7828 31.6837C34.5232 31.6837 33.5577 31.2062 32.8861 30.2505C32.2772 29.3574 31.9731 28.1425 31.9731 26.6056C31.9731 25.7126 32.0883 24.7572 32.3193 23.7396L33.8308 23.9575C33.6836 24.6842 33.6102 25.453 33.6102 26.2627C33.6102 28.7553 34.3451 30.0016 35.8145 30.0016C36.486 30.0016 37.0107 29.721 37.3886 29.1602C37.7456 28.6617 37.9241 27.9869 37.9241 27.1351C37.9241 26.1175 37.6092 24.9855 36.9794 23.7396C36.3705 22.4933 35.6781 21.3613 34.9011 20.3435C34.1245 19.222 33.4425 18.0485 32.8545 16.8231C32.2247 15.4731 31.9102 14.2477 31.9102 13.1469C31.9102 11.8384 32.2772 10.7376 33.0121 9.84453C33.7679 8.95144 34.7017 8.50488 35.8145 8.50488C36.7588 8.50488 37.5988 8.86833 38.3333 9.59527C39.089 10.3014 39.4669 11.5684 39.4669 13.3961C39.4669 13.7908 39.4144 14.4554 39.3093 15.39L37.7982 15.2654Z" fill="#763287"/>
<path d="M45.984 21.4015C46.8448 21.4015 47.5059 21.8689 47.9676 22.8036C48.4506 23.7383 48.7025 24.7766 48.7234 25.9189C48.7864 27.0406 48.8807 28.0686 49.0066 29.0033C49.1326 29.938 49.3428 30.4052 49.6364 30.4052C50.1611 30.4052 50.4238 29.6991 50.4238 28.2865H51.6201C51.6201 29.4081 51.4311 30.3115 51.0533 30.997C50.6966 31.6824 50.2241 32.0253 49.6364 32.0253C48.6921 32.0253 48.0098 31.5475 47.5898 30.5921C47.2961 29.9273 47.0967 28.8576 46.9916 27.3831L46.9287 26.5421L46.8657 25.701C46.8027 25.0779 46.7293 24.5793 46.6451 24.2055C46.4144 23.2501 45.984 22.7722 45.3542 22.7722C44.2627 22.7722 43.7171 23.8732 43.7171 26.0745V31.2776H41.9854V7.44434H43.7171V21.1523L47.0546 15.2329H49.4162L44.8191 21.7442C45.2387 21.5158 45.6273 21.4015 45.984 21.4015Z" fill="#763287"/>
<path d="M61.4046 27.7875C61.4046 30.1551 60.7118 31.339 59.3262 31.339C58.8645 31.339 58.455 31.1831 58.0983 30.8715C57.7205 30.5393 57.4685 30.1344 57.3426 29.6566C56.8596 30.3837 56.0934 30.7469 55.044 30.7469C54.1206 30.7469 53.3648 30.4043 52.7771 29.7189C52.1261 28.9711 51.8008 27.9744 51.8008 26.7282C51.8008 25.2949 52.1261 24.163 52.7771 23.3322C53.4066 22.5015 54.2253 22.0859 55.233 22.0859C56.0305 22.0859 56.7024 22.3872 57.2483 22.9897V18.7526C57.2483 16.6964 56.7445 15.6683 55.7368 15.6683C54.6662 15.6683 54.131 16.6341 54.131 18.5656C54.131 19.168 54.1728 19.6457 54.257 19.9987L52.7771 20.1856C52.6512 19.4379 52.5882 18.7526 52.5882 18.1295C52.5882 16.8625 52.8819 15.8656 53.4695 15.1386C54.0576 14.3909 54.876 14.0171 55.9257 14.0171C57.9619 14.0171 58.98 15.5021 58.98 18.4722V28.348C58.98 29.3037 59.169 29.7812 59.5465 29.7812C59.9873 29.7812 60.208 29.1167 60.208 27.7875H61.4046ZM55.3273 29.1894C56.6289 29.1894 57.2796 28.2027 57.2796 26.2296C57.2796 25.4402 57.1115 24.7964 56.7758 24.2979C56.4191 23.8204 55.9675 23.5815 55.4219 23.5815C54.876 23.5815 54.4247 23.8617 54.068 24.4225C53.7323 24.9627 53.5642 25.6378 53.5642 26.4476C53.5642 28.2753 54.1519 29.1894 55.3273 29.1894Z" fill="#763287"/>
<path d="M64.6089 8.68994V14.3289H67.9778V15.8866H64.6089V25.9807C64.6089 28.3069 65.0811 29.4699 66.0258 29.4699C67.0752 29.4699 67.5999 28.1613 67.5999 25.5445C67.5999 24.9423 67.5582 24.1426 67.4739 23.1455L68.8282 22.9899C68.9329 24.0906 68.9854 24.9316 68.9854 25.5135C68.9854 29.1897 67.9148 31.0277 65.7739 31.0277C63.8428 31.0277 62.8772 29.5012 62.8772 26.4478V15.8866H60.7676V14.9208L60.9248 14.8897C61.0087 14.8689 61.0929 14.8481 61.1768 14.8274C61.2818 14.7651 61.3866 14.7027 61.4917 14.6404C61.7853 14.4328 62.048 14.1316 62.2787 13.737C62.9715 12.6362 63.3915 10.9538 63.5383 8.68994H64.6089Z" fill="#763287"/>
<path d="M71.5604 20.0932C71.4553 21.0694 71.4031 21.9107 71.4031 22.6168C71.4031 24.5898 71.6338 26.1477 72.0955 27.29C72.5155 28.349 73.0402 28.8788 73.67 28.8788C74.2577 28.8788 74.7932 28.3283 75.2758 27.2277C75.7796 26.0437 76.042 24.6728 76.0632 23.1153H77.2595C77.2595 25.2336 76.9133 26.9991 76.2205 28.4113C75.5277 29.8238 74.583 30.53 73.3868 30.53C72.2323 30.53 71.3189 29.8342 70.6474 28.4426C69.9546 27.051 69.6084 25.1507 69.6084 22.7414C69.6084 20.0621 70.0176 17.9124 70.8363 16.2924C71.655 14.6723 72.7044 13.8623 73.9849 13.8623C75.0555 13.8623 75.8952 14.4439 76.5037 15.607C77.0918 16.7493 77.3854 18.2447 77.3854 20.0932H71.5604ZM73.9536 15.42C72.9668 15.42 72.2427 16.4897 71.781 18.6289H75.6224C75.4752 16.4897 74.9192 15.42 73.9536 15.42Z" fill="#763287"/>
<path d="M93.4111 10.0299H90.0736V30.1247H88.3418V10.0299H85.0039V8.47217H93.4111V10.0299Z" fill="#763287"/>
<path d="M92.8545 22.8669C92.8545 20.1459 93.2637 18.0378 94.0824 16.5424C94.859 15.1509 95.9088 14.4551 97.231 14.4551C100.086 14.4551 101.513 17.1863 101.513 22.6486C101.513 25.3904 101.104 27.4881 100.285 28.9419C99.5296 30.3335 98.4906 31.0293 97.168 31.0293C94.2922 31.0293 92.8545 28.3085 92.8545 22.8669ZM94.6492 22.3684C94.6492 24.4037 94.859 26.1068 95.279 27.4777C95.7199 28.807 96.381 29.4714 97.2627 29.4714C97.9763 29.4714 98.564 28.9523 99.0257 27.9139C99.5087 26.7923 99.7502 25.2138 99.7502 23.1784C99.7289 20.6652 99.4666 18.7855 98.9627 17.5394C98.5431 16.4593 97.9867 15.9505 97.294 16.0128C96.5382 16.0128 95.9192 16.5217 95.4363 17.5394C94.9116 18.6817 94.6492 20.2913 94.6492 22.3684Z" fill="#763287"/>
<path d="M113.747 13.7687H115.699L112.991 31.6514H110.566L109.181 22.8658H108.992L107.701 30.5607H105.529L102.506 13.644H104.395L106.599 27.539H106.788L108.394 15.9494H109.874L111.795 28.7226H111.984L113.747 13.7687Z" fill="#763287"/>
<path d="M119.544 30.562H117.812V15.4212H119.481V16.9789C119.985 15.3588 120.972 14.5488 122.441 14.5488C123.386 14.5488 124.11 14.9019 124.614 15.6081C125.117 16.2935 125.369 17.2073 125.369 18.3497V29.8456H123.638V18.7547C123.638 17.0308 123.081 16.1689 121.969 16.1689C121.234 16.1689 120.646 16.5739 120.205 17.3839C119.764 18.1939 119.544 19.2324 119.544 20.4993V30.562Z" fill="#763287"/>
<path fill-rule="evenodd" clip-rule="evenodd" d="M14.9662 24.2377C14.955 24.2688 14.9415 24.299 14.9258 24.3279C14.9597 24.3146 14.9948 24.304 15.0305 24.2962C15.0811 24.2854 15.1293 24.2653 15.1725 24.237C15.1393 24.1228 15.0923 24.0131 15.0327 23.9102C15.0242 24.0216 15.0018 24.1317 14.9662 24.2377Z" fill="#763287"/>
<path opacity="0.18" fill-rule="evenodd" clip-rule="evenodd" d="M12.1535 13.2539C11.3707 14.5055 10.4878 15.7001 9.64453 16.9176C8.3325 18.812 7.14158 20.7922 5.88339 22.7221C4.63266 24.6409 3.4679 26.6026 2.35847 28.5998L2.29492 28.7144C2.67164 29.3734 3.11959 29.99 3.63088 30.5533C4.6917 28.6257 5.66882 26.6551 6.69601 24.7095C6.14206 24.6608 6.02318 23.978 6.36933 23.6814C6.36564 23.6028 6.37836 23.5244 6.40664 23.4508C6.43494 23.3772 6.47821 23.3102 6.53379 23.2539C6.53733 23.2502 6.54108 23.2468 6.54501 23.2435C6.61303 22.7472 6.76929 21.8796 7.20589 21.4779C7.25372 21.3743 7.30382 21.2715 7.35541 21.1709C7.50493 20.8928 7.86751 20.8173 8.14261 20.9253C8.06329 20.8946 7.99032 20.8497 7.9273 20.7929C7.87017 20.7407 7.8242 20.6776 7.7921 20.6075C7.75998 20.5374 7.74241 20.4617 7.74038 20.3847C7.73837 20.3078 7.75195 20.2312 7.78034 20.1595C7.8087 20.0878 7.85132 20.0225 7.90563 19.9674C7.99545 19.8797 8.10997 19.8209 8.2342 19.7987C8.3584 19.7765 8.4865 19.792 8.60165 19.8432C8.62033 19.8432 8.63828 19.8365 8.65771 19.8365C8.70805 19.8356 8.7583 19.8411 8.80722 19.8528C8.9066 19.7841 9.0247 19.747 9.14589 19.7463C9.28123 19.7392 9.41488 19.7787 9.52419 19.8579C10.9446 17.6684 12.4884 15.5529 14.0098 13.4226C13.3968 13.3175 12.7763 13.2613 12.1542 13.2546" fill="#763287"/>
<path opacity="0.18" fill-rule="evenodd" clip-rule="evenodd" d="M13.0535 19.3128C14.2564 17.5797 15.2708 15.9102 16.3048 14.0742C16.1986 14.0321 16.0917 13.9899 15.9833 13.9507C15.9655 13.9802 15.9452 14.0081 15.9227 14.0343C14.6159 15.5581 13.4781 17.2357 12.4404 18.971C12.7574 18.9903 13.0221 19.0687 13.0527 19.3128" fill="#763287"/>
<path opacity="0.18" fill-rule="evenodd" clip-rule="evenodd" d="M17.4026 14.5823C16.4247 16.3176 15.3841 18.0241 14.2627 19.6729C14.3684 19.715 14.4597 19.7861 14.5259 19.8779C14.5922 19.9696 14.6305 20.0781 14.6365 20.1907C14.6927 20.2471 14.7363 20.3147 14.7643 20.3889L15.035 20.0864C16.3597 18.5989 17.6859 17.1113 19.0331 15.6423C18.5212 15.2418 17.9746 14.8868 17.3996 14.5815" fill="#763287"/>
<path fill-rule="evenodd" clip-rule="evenodd" d="M14.921 23.3345C14.9599 23.2462 15.0172 23.167 15.0893 23.1022C14.9256 22.8319 14.7998 22.5406 14.7155 22.2368L14.3125 22.6872C14.5692 22.8465 14.7793 23.0698 14.9218 23.3345" fill="#763287"/>
<path fill-rule="evenodd" clip-rule="evenodd" d="M15.1725 24.2374C15.1396 24.1234 15.0929 24.0139 15.0334 23.9111C15.0243 24.0221 15.0018 24.1316 14.9662 24.2374C14.9553 24.2685 14.9418 24.2987 14.9258 24.3274C14.9595 24.314 14.9942 24.3034 15.0297 24.2957C15.0804 24.2849 15.1286 24.265 15.1718 24.2365" fill="#763287"/>
<path fill-rule="evenodd" clip-rule="evenodd" d="M14.3679 24.9531C14.367 24.8443 14.3982 24.7377 14.4576 24.6461C14.2991 24.6664 14.1384 24.6338 14.0008 24.5537C13.6718 25.7373 12.3815 26.9371 11.3348 26.2166C11.1592 26.4444 10.9865 26.6744 10.8115 26.9052C10.951 26.9496 11.0931 26.9857 11.2369 27.0133C11.2771 26.9898 11.32 26.9712 11.3648 26.9579C11.4605 26.9289 11.562 26.9244 11.66 26.9445C11.7628 26.8741 11.8858 26.8382 12.0107 26.8423C12.5385 26.8423 12.9997 26.6603 13.4117 26.3889C13.5017 26.1655 13.6703 25.9815 13.8864 25.8712C13.9764 25.8276 14.0706 25.7928 14.1675 25.7675C14.2161 25.7218 14.2624 25.6767 14.3095 25.63C14.4162 25.5266 14.5568 25.4644 14.7058 25.4547C14.6086 25.4091 14.5259 25.3383 14.4665 25.2496C14.407 25.1611 14.3732 25.0579 14.3686 24.9516" fill="#763287"/>
<path opacity="0.17" d="M17.1767 8.70758L17.102 5.70587L13.6787 5.17773L13.6907 5.62156C14.8218 6.68376 15.9918 7.70454 17.1804 8.70536" fill="#763287"/>
<path opacity="0.17" d="M13.7097 6.45752L13.7262 7.08182C14.233 7.67876 14.799 8.22467 15.3642 8.7713C15.9981 9.38377 16.6014 10.0221 17.2279 10.639L17.198 9.50213C16.0123 8.51241 14.8431 7.50494 13.709 6.45825" fill="#763287"/>
<path opacity="0.17" d="M16.1922 11.294C15.3975 10.4973 14.5579 9.72141 13.7715 8.90625L13.8201 10.7844L17.3196 14.2314L17.2702 12.34C16.9059 11.9948 16.5466 11.6463 16.1922 11.2947" fill="#763287"/>
<path d="M13.6875 17.8633V17.8692C15.5288 18.4403 16.947 19.9885 17.8464 22.0899C17.2909 19.7407 15.6163 18.3596 13.689 17.8633" fill="#763287"/>
<path d="M20.8127 21.1707C20.7947 21.414 20.7738 21.9473 20.7222 22.1671C20.5137 23.0437 20.5339 23.5111 19.5418 23.5148C18.6349 23.52 18.4062 23.1672 17.8283 22.6064C17.8754 22.8683 18.2156 25.0119 16.834 26.5269C18.0518 25.7317 19.251 25.3722 19.7735 27.0172C20.0277 27.817 19.9081 28.3628 19.3616 28.9226C18.9572 29.337 19.1874 29.9923 19.63 29.4369C21.3398 27.2917 22.0971 23.767 21.2366 20.9843C21.0826 20.4879 20.8478 20.6566 20.8097 21.1699" fill="#763287"/>
<path d="M2.42048 27.867C2.39229 27.7856 2.39711 27.6966 2.43393 27.6189C2.47075 27.5409 2.5367 27.4805 2.61786 27.4498C2.70087 27.4198 2.79236 27.4226 2.87328 27.4578C2.95419 27.493 3.01828 27.5576 3.05221 27.6383C3.9897 29.8272 6.47844 31.8686 9.42622 32.8467C9.65049 32.9205 3.70262 31.76 2.42048 27.867Z" fill="#763287"/>
<path d="M19.0405 30.2709C19.1608 30.131 19.1205 29.927 18.9978 29.8575C18.8753 29.788 18.6943 29.8462 18.5762 29.9868C17.3651 31.4226 14.7478 32.905 11.9876 33.0197C11.7768 33.0285 16.2624 33.4968 19.0405 30.274" fill="#763287"/>
<path d="M11.1743 2.73813L10.2756 2.52658L10.2637 2.05908L11.1615 2.27138L11.1743 2.73813Z" fill="#763287"/>
<path d="M11.1957 3.5167L10.2971 3.30589L10.2852 2.83838L11.183 3.04995L11.1957 3.5167Z" fill="#763287"/>
<path d="M11.2153 4.29575L10.3166 4.08418L10.3047 3.6167L11.2025 3.82825L11.2153 4.29575Z" fill="#763287"/>
<path d="M13.0522 6.27431L11.72 5.95699L11.708 5.49023L13.0402 5.80756L13.0522 6.27431Z" fill="#763287"/>
<path d="M13.049 7.13124L11.7168 6.81392L11.7041 6.34717L13.0371 6.66375L13.049 7.13124Z" fill="#763287"/>
<path d="M13.0961 7.98795L11.7639 7.66988L11.752 7.20312L13.0842 7.52045L13.0961 7.98795Z" fill="#763287"/>
<path d="M13.1452 10.6117L11.9805 10.5495L12.0126 10.0835L13.0548 10.1486L13.1452 10.6117Z" fill="#763287"/>
<path d="M5.2993 8.57129L5.05566 8.57733L5.16837 13.0142L5.41203 13.0081L5.2993 8.57129Z" fill="#763287"/>
<path d="M4.7661 11.5649L4.52246 11.571L4.56252 13.1476L4.80616 13.1415L4.7661 11.5649Z" fill="#763287"/>
<path d="M5.95136 10.3077L4.56457 10.8093L4.55859 10.5755L5.94538 10.0732L5.95136 10.3077Z" fill="#763287"/>
<path d="M7.83314 6.92139L7.50879 6.92946L7.53351 7.90258L7.85786 7.89453L7.83314 6.92139Z" fill="#763287"/>
<path d="M7.84553 8.22656L7.56152 8.23362L7.58625 9.20677L7.87025 9.19969L7.84553 8.22656Z" fill="#763287"/>
<path d="M5.97646 12.0295L5.62808 14.2582C5.62808 14.2582 3.57444 16.4515 3.52959 16.2969C3.48473 16.1423 3.4952 14.9743 3.4952 14.9743L4.21513 14.6828L4.04767 12.3994L4.02675 12.1161L4.6248 11.6338L4.66443 12.3535L5.97646 12.0295Z" fill="#763287"/>
<path d="M11.978 33.9809C6.00542 34.1288 1.02492 29.5885 0.876153 23.8581C0.850733 22.8832 1.15202 21.8713 1.66113 20.8815C1.17602 22.6546 1.18972 24.525 1.70075 26.2909C1.95119 27.1541 2.20538 26.6269 2.21734 26.1979C2.23154 25.6799 2.4319 24.6645 2.81019 24.3072C3.51591 23.6413 4.05717 23.8477 4.27398 24.3877C4.35697 24.4011 4.84963 25.8805 6.44948 26.865C4.58049 23.7583 5.60919 21.082 7.23671 19.6788C6.90177 19.7935 5.50527 20.9237 5.15092 20.8386C3.74543 20.5043 4.54012 18.536 5.03354 17.6047C5.52386 16.6878 6.16827 15.8601 6.93915 15.157L6.95859 15.1385C7.56274 14.701 8.20409 14.3162 8.87542 13.9883L6.85243 14.0046L7.20007 13.7893L7.04457 5.50095L7.06774 5.48985L8.32594 5.56382L8.49641 11.9149H8.53154V11.9267L8.70124 11.9105H8.74087L9.62453 11.8254L7.80786 12.2211L7.83777 13.3788L10.7123 13.0733L10.3893 0.632974L10.3998 0.626316L13.4163 1.55834L13.4313 2.1501L12.5805 2.53844L13.4552 3.06733L13.7191 13.2323H13.7647L11.9623 13.3336L14.4189 13.6155L14.3247 9.23274L15.0371 9.28673L15.0633 10.2816L14.5871 10.2506L14.5699 10.485L15.0693 10.5169L15.1268 12.73L15.3706 12.7241L15.3451 11.7322L16.1578 11.8062L16.2206 14.2183L16.4067 14.2139C17.5744 14.7507 18.6357 15.4897 19.5406 16.396C19.2486 15.8816 18.8756 15.4164 18.4357 15.0179L18.5471 14.5896L18.3976 8.71199L21.5263 9.58115L21.5479 10.4081L21.3349 10.6448L19.3672 10.127L19.3792 10.5945L21.3169 11.0983V11.1094L21.4956 11.3934L21.3266 11.48V11.4992L19.3485 10.9814L19.3605 11.4489L21.3685 11.9763L21.5233 12.1878L21.3483 12.3203V12.3461L19.4106 11.8424L19.4225 12.3092L21.3603 12.8129V12.8262L21.5741 13.2338L19.4704 12.73L19.4823 13.1961L21.6287 13.7139L21.6399 14.1503L19.5347 13.6658L19.5466 14.1325L21.6518 14.6163L21.7685 19.1174C21.5554 18.6987 21.3259 18.2948 21.0956 17.8983C21.0956 17.8983 22.5162 20.9015 22.5415 23.3241C22.608 29.0561 17.952 33.8374 11.9795 33.9868L11.978 33.9809ZM2.29958 12.716L3.58993 12.8639L3.64151 14.3914L2.91857 14.6429L2.93204 15.4092L2.36985 15.4233L2.29958 12.716ZM14.3022 8.10321L15.0095 8.15647L15.0326 9.05003L14.3209 8.99603L14.3022 8.10321ZM14.2753 6.84129L14.9773 6.91526L15.0035 7.91828L14.297 7.86428L14.2753 6.84129ZM14.2424 5.30937L14.9384 5.41737L14.9713 6.68152L14.2701 6.60754L14.2424 5.30937ZM15.3152 10.5317L16.1271 10.5827L16.1525 11.5724L15.3399 11.4984L15.3152 10.5317ZM15.2831 9.30448L16.0957 9.36662L16.1211 10.3482L15.3092 10.2964L15.2831 9.30448ZM15.2539 8.17645L16.0665 8.23858L16.0897 9.13141L15.2793 9.06631L15.2539 8.17645ZM15.2218 6.94633L16.0352 7.03582L16.0606 8.00262L15.2479 7.94048L15.2218 6.94633ZM15.1829 5.45582L15.997 5.58157L16.0269 6.79839L15.2136 6.70814L15.1829 5.45582ZM16.4007 11.8283L17.1177 11.8964L17.1296 11.7825L17.1909 14.1495C16.9534 14.0287 16.7067 13.9263 16.4531 13.8433L16.4007 11.8283ZM16.3686 10.5945L17.0997 10.6411L17.1259 11.6619L16.394 11.5924L16.3686 10.5945ZM16.3372 9.38141L17.0691 9.43763L17.0945 10.4059L16.3634 10.36L16.3372 9.38141ZM16.308 8.25264L17.0392 8.30886L17.0466 8.60472V8.64764L17.0609 9.20093L16.329 9.14544L16.308 8.25264ZM16.2766 7.05802L17.0093 7.13939L17.0332 8.07363L16.302 8.01741L16.2766 7.05802ZM16.2393 5.61486L16.9726 5.72804L17.0033 6.90267L16.2714 6.82205L16.2393 5.61486ZM17.2732 14.1525V14.1725L17.3584 14.2376C17.3068 14.2095 17.256 14.1813 17.2037 14.1547L17.2732 14.1525ZM9.89664 3.58808L9.21634 3.95794L9.20438 3.49118L9.88468 3.12133L9.89664 3.58808ZM9.92206 4.56153L9.238 4.81155L9.22605 4.3448L9.90936 4.09404L9.92206 4.56153ZM9.95944 6.00173L9.27538 6.25248L9.26343 5.78573L9.94375 5.41588L9.95944 6.00173ZM9.98261 6.89675L9.29858 7.14751L9.2866 6.68076L9.9714 6.42853L9.98261 6.89675ZM10.005 7.75333L9.32175 8.00484L9.30977 7.53733L9.99309 7.28658L10.005 7.75333ZM10.0536 9.60924L9.3666 9.74312L9.3539 9.2564L10.0409 9.12251L10.0536 9.60924ZM1.92204 14.2842L1.53329 14.3581L1.51086 13.4845L1.89886 13.4106L1.92204 14.2842ZM4.41303 12.9113L4.02577 13.0355L4.00336 12.1619L4.3906 12.0384L4.41303 12.9113ZM5.14492 12.7056L4.77934 12.8292L4.75693 11.9556L5.12251 11.832L5.14492 12.7056ZM22.1572 19.9429L21.983 13.2279L21.7266 12.7375L21.7199 12.4852L22.0189 12.2552L21.6997 11.8187V11.6878L22.0077 11.5325L21.6795 11.0147L21.6743 10.8068L21.9105 10.5383L21.8799 9.31336L18.2264 8.29923L17.2926 8.54334L17.2179 5.52684L16.6056 5.40552L16.5809 4.44835L15.5163 4.20943L15.5081 3.8847L15.1605 3.81738L15.0909 1.14929C15.0909 1.14929 14.7336 0.671438 14.75 1.29722C14.7635 1.82389 14.7859 3.13243 14.7964 3.74859L14.4473 3.6798L14.1064 3.89431L13.7199 3.80704L13.6974 2.93418L13.0874 2.56433L13.681 2.2936L13.6571 1.38525L10.3826 0.374818V0.34375L8.89113 1.20254L8.30128 1.53319V1.54207L8.26165 1.56426L8.35959 5.3323L7.01391 5.25388L5.65254 5.91962L5.67273 6.69112L5.352 6.56389L5.10007 6.68743C5.07915 5.97139 5.05372 5.02755 5.04476 4.37365C5.03878 3.8847 4.80178 4.37956 4.80178 4.37956L4.86458 6.80281L4.42948 7.01512L4.44517 7.60688L3.60189 7.96194L3.57721 8.59511L3.90392 8.9228L3.97418 11.6368L3.73273 11.7107V11.7477L3.5503 11.8025L3.57871 12.6302L2.2906 12.4822V12.449L2.14856 12.4919L1.02119 12.8314L1.12286 20.1071C0.68507 21.3141 0.47697 22.5909 0.509082 23.873C0.629445 28.5152 3.8172 32.4016 8.16147 33.7922L12.3742 34.3152C18.3669 33.9684 23.1208 29.1064 22.9048 23.3092C22.8657 22.1513 22.6124 21.0104 22.1572 19.9429Z" fill="#763287"/>
<path d="M16.4903 24.2783C15.8174 24.2954 15.1939 23.6865 14.8635 23.0386C15.1685 23.5468 15.6746 23.9713 16.2981 23.9558H16.3789L16.408 23.8819C16.6689 23.248 16.5837 22.5008 16.3101 21.8662C16.3585 21.9539 16.3999 22.0452 16.4342 22.1391C16.6204 22.5031 16.9104 24.2686 16.4895 24.279L16.4903 24.2783ZM16.0634 25.0083C16.0247 25.0534 15.9897 25.1014 15.9587 25.1519C15.4967 25.1348 15.1992 25.0129 15.0504 24.782C15.0383 24.719 15.0391 24.654 15.0528 24.5914C15.0666 24.5286 15.0929 24.4692 15.1304 24.4167C15.1503 24.3893 15.18 24.3705 15.2134 24.364C15.6844 24.404 16.0357 24.4817 16.195 24.7281C16.1872 24.8339 16.1407 24.9334 16.0641 25.0077L16.0634 25.0083ZM14.643 25.1437C14.4486 24.9759 14.643 24.5417 14.8568 24.404C14.7973 24.5443 14.7816 24.6989 14.8119 24.8479L14.8156 24.8671L14.8254 24.8842C15.0093 25.1912 15.3591 25.3561 15.8914 25.3857C15.638 25.4233 15.0556 25.4989 14.6459 25.143L14.643 25.1437ZM14.6287 27.2039C14.175 27.51 13.5903 27.7149 13.1396 27.7262C13.0749 27.7277 13.0103 27.7255 12.9459 27.7195C12.9344 27.4865 12.9699 27.2536 13.0504 27.0344C13.1309 26.8153 13.2547 26.614 13.4147 26.4426C13.5827 26.2614 13.7856 26.1153 14.0116 26.0127C14.2376 25.9102 14.482 25.8534 14.7304 25.8458C15.0121 25.8381 15.2913 25.8989 15.5438 26.0227C15.579 26.3642 15.1139 26.877 14.631 27.203L14.6287 27.2039ZM12.6992 27.5161C12.6992 27.4878 12.7067 27.4606 12.7104 27.4323C12.6975 27.5653 12.6975 27.699 12.7104 27.8318L12.7186 27.9198L12.8091 27.9363C12.9199 27.9587 13.0333 27.9671 13.1463 27.9613C13.7481 27.9466 14.3798 27.6595 14.77 27.3963C14.8749 27.3248 14.976 27.2479 15.0728 27.1661C13.8886 28.3976 12.0899 28.7232 12.7014 27.5146L12.6992 27.5161ZM11.9718 28.5989C11.7228 28.6839 10.9999 28.6233 11.0747 28.1321C11.1041 27.9673 11.1443 27.8045 11.195 27.6448C11.1851 27.8199 11.1986 27.9954 11.2354 28.1668L11.2474 28.2247L11.3034 28.2498C11.4795 28.3383 11.6741 28.3847 11.8716 28.3851C11.9744 28.3819 12.0763 28.3646 12.1744 28.3342C12.2092 28.3283 12.2413 28.3122 12.2663 28.2875C12.1931 28.4287 12.075 28.5635 11.974 28.5974L11.9718 28.5989ZM10.4422 27.7622C10.4285 27.8216 10.4103 27.8797 10.3876 27.9363C9.16458 27.6765 8.34595 27.1024 7.89142 26.1852C8.11168 26.0548 8.36287 25.984 8.61957 25.9803C8.93707 25.9782 9.25043 26.052 9.53279 26.1956C9.81518 26.3392 10.0582 26.5484 10.2411 26.8051C10.3542 26.967 10.4288 27.1521 10.4594 27.3466C10.4719 27.4848 10.4668 27.6238 10.4445 27.7609L10.4422 27.7622ZM12.0996 28.1107C12.0233 28.1347 11.9441 28.1485 11.8641 28.1515C11.7254 28.1513 11.5883 28.1211 11.4627 28.0626C11.3999 27.7061 11.4477 27.3518 11.586 27.1862C11.6031 27.162 11.6253 27.1419 11.6512 27.1275C11.6771 27.113 11.7059 27.1046 11.7355 27.1024C11.8297 27.1024 11.9531 27.1713 12.0854 27.306C12.1692 27.3917 12.1751 27.9723 12.1019 28.1092L12.0996 28.1107ZM7.22157 24.8043C7.40249 24.7015 7.69928 24.5594 7.95721 24.5528C8.01656 24.5474 8.0764 24.5549 8.13256 24.5748C8.18871 24.5944 8.23984 24.6262 8.28241 24.6674C8.30838 24.7268 8.31916 24.7915 8.31381 24.8561C8.30847 24.9207 8.28715 24.9828 8.25175 25.0372C8.09027 25.2635 7.65367 25.3479 7.39201 25.3656L7.38156 25.3495C7.28961 25.1903 7.20588 25.0528 7.22382 24.8021L7.22157 24.8043ZM10.2979 28.2128C10.1432 28.3296 8.75862 27.8 8.15905 27.6521C7.72261 27.3328 7.34972 26.9364 7.05935 26.4825C6.93903 26.2921 6.83066 26.0946 6.73489 25.891C6.84851 25.694 6.95917 25.4973 7.07578 25.2991C7.1057 25.3605 7.13858 25.4168 7.17072 25.4699C7.18644 25.4952 7.20213 25.5211 7.21633 25.544L7.25297 25.6062H7.32773C7.4122 25.6062 8.16877 25.5736 8.45436 25.1711C8.57547 25.001 8.59267 24.8013 8.50518 24.5668L8.49772 24.5476L8.48426 24.532C8.41834 24.458 8.33592 24.4003 8.24355 24.3632C8.15118 24.326 8.05137 24.3107 7.95197 24.3183C7.95721 24.3118 7.96196 24.3049 7.96618 24.2975C7.95457 24.3062 7.94233 24.3137 7.92954 24.3204C7.78855 24.3304 7.64977 24.3604 7.51762 24.41C7.324 24.4182 7.11765 24.4018 6.95393 24.4012C6.46799 24.4012 6.62423 23.449 6.82909 22.7449C6.75893 23.1627 6.77316 23.59 6.87094 24.0024L6.89113 24.0853L6.97935 24.092C7.03825 24.0972 7.09743 24.0989 7.15652 24.0972C7.85253 24.0801 8.42744 23.5792 8.66219 22.7968C8.68163 22.7309 8.69732 22.662 8.71078 22.5925C9.01281 22.1048 9.31833 21.6194 9.62734 21.1361C9.72281 21.0735 9.80013 20.9873 9.85162 20.8861C9.86059 20.8705 9.86806 20.8565 9.87105 20.8513L9.90469 20.8173V20.7699C9.90469 20.7514 9.90469 20.7322 9.90469 20.7122L10.2097 20.2403C10.5925 20.511 11.1233 20.6102 11.5793 20.5976C12.1774 20.5828 12.7156 20.3942 13.0326 20.0909C12.8883 20.4193 12.614 20.7137 12.143 20.7648C11.9576 21.0459 11.983 20.9238 11.817 21.1731L11.5928 21.304C13.1388 21.2655 14.0449 22.452 14.0733 23.5535C14.0855 23.9769 13.9934 24.3971 13.8049 24.7777C12.6723 26.5959 10.4594 25.6778 9.963 25.132C9.37764 24.4878 9.33577 23.6762 9.36492 23.4417C9.5451 21.9543 10.3682 21.3809 11.4298 21.3077C11.4298 21.3077 9.33651 21.2559 9.04123 23.4017C9.0016 23.6911 9.05019 24.6031 9.71406 25.3369C9.91783 25.5617 10.1491 25.7603 10.4026 25.9285L10.1783 26.3539C9.75862 25.957 9.19932 25.7374 8.61883 25.7415C8.27968 25.7474 7.94985 25.8523 7.67087 26.0432L7.59087 26.0987L7.6305 26.1852C8.10149 27.2097 9.00832 27.871 10.3271 28.1558C10.3151 28.1759 10.3092 28.1936 10.3009 28.2107L10.2979 28.2128ZM8.00506 20.9682C8.53436 21.3639 8.59714 22.1516 8.4237 22.7346C8.26072 23.2849 7.82039 23.8804 7.087 23.8655C6.84404 22.6873 7.37633 21.5629 8.00805 20.9659L8.00506 20.9682ZM8.5665 19.8468C8.52681 19.887 8.4924 19.932 8.46407 19.9807C8.40077 20.0647 8.36212 20.1645 8.35235 20.2689C8.34259 20.3733 8.3621 20.4783 8.40876 20.5724C8.54333 20.8587 8.89993 21.1006 9.27596 21.1708C9.00683 21.2811 8.62555 21.2448 8.15456 20.673C7.84356 20.2921 8.27344 19.9895 8.56949 19.8446L8.5665 19.8468ZM8.66891 20.1094L8.67639 20.0983C8.73721 20.0066 8.81922 19.9305 8.91562 19.8764C8.95525 19.8497 8.99636 19.8216 9.03448 19.7906C9.03725 19.7878 9.04101 19.7862 9.04496 19.7861C9.1075 19.8008 9.1636 19.8351 9.20495 19.8838C9.42473 20.0879 9.63332 20.4911 9.65351 20.7389L9.63182 20.7751C9.57799 20.8683 9.52267 20.9534 9.43968 20.9549C9.42724 20.9558 9.41474 20.9558 9.4023 20.9549C9.07935 20.9194 8.74068 20.71 8.63229 20.4785C8.60177 20.4195 8.58928 20.3529 8.59631 20.287C8.60334 20.2211 8.62961 20.1586 8.6719 20.1072L8.66891 20.1094ZM11.5673 19.1197C12.1946 19.1041 12.768 19.218 13.0857 19.4155C13.084 19.5934 13.0131 19.7638 12.8876 19.8912C12.6252 20.1671 12.1206 20.3461 11.5688 20.3601C10.9528 20.3757 10.1813 20.1745 9.98393 19.5635C10.2673 19.3061 10.8654 19.1352 11.5696 19.1182L11.5673 19.1197ZM11.373 18.4695L11.4784 18.465C12.1358 18.451 12.7906 18.5499 13.4139 18.7572C13.3197 18.8953 13.226 19.0336 13.1328 19.1722C12.7635 18.9754 12.1938 18.8689 11.5629 18.8852C11.3983 18.8893 11.2341 18.9019 11.0709 18.9229L11.373 18.4695ZM14.489 20.1079C14.4864 20.2977 14.4095 20.4791 14.2744 20.6139C14.1759 20.7236 14.0392 20.7925 13.8916 20.8069C13.7159 20.8114 13.6128 20.679 13.5559 20.5599C13.5585 20.3699 13.6357 20.1884 13.7713 20.0539C13.8695 19.9443 14.0059 19.8756 14.1533 19.8616C14.332 19.8549 14.4351 19.9866 14.4919 20.1057L14.489 20.1079ZM14.2766 19.6375C14.2343 19.6291 14.1912 19.6254 14.148 19.6264C13.9351 19.6408 13.7362 19.7365 13.5933 19.8934C13.5017 19.985 13.4296 20.094 13.3816 20.2139C13.3335 20.3338 13.3105 20.462 13.3137 20.5909V20.6124L13.322 20.6316C13.4819 20.9963 13.7511 21.0436 13.8969 21.0399C14.1121 21.0266 14.3135 20.9302 14.4576 20.7714C14.5173 20.7097 14.5691 20.6409 14.6116 20.5665C14.6214 20.6246 14.6214 20.6838 14.6116 20.7418C14.5749 20.9637 14.3125 21.2596 14.0583 21.3003C13.8359 21.3169 13.6125 21.2824 13.4057 21.1997C13.3653 21.2781 13.3249 21.355 13.2876 21.4342C13.2659 21.4778 13.2562 21.5 13.2479 21.5178C13.0528 21.3971 12.8431 21.3011 12.6237 21.2322C12.6663 21.1428 12.7082 21.0532 12.7515 20.9637C13.091 20.2632 13.4991 19.6012 13.9013 18.9355C14.1097 19.0218 14.317 19.1204 14.5233 19.2314L14.2766 19.6375ZM15.2261 20.8728C15.9909 21.3632 16.5673 22.7145 16.2084 23.7228C15.5603 23.6902 15.0646 23.0718 14.8717 22.4882C14.6983 21.9528 14.7035 21.2589 15.2283 20.8705L15.2261 20.8728ZM17.2715 22.5629C16.9882 21.0288 15.7068 19.5975 14.6452 19.0302C13.6031 18.4739 12.5355 18.2046 11.4717 18.2313C9.52193 18.2801 7.70301 19.3749 6.72441 21.0888C6.235 21.9321 5.98801 22.8915 6.01016 23.8636C6.03228 24.8358 6.32273 25.7834 6.85002 26.6039C7.79573 28.107 9.75592 29.0449 11.8425 28.9925C12.9561 28.9724 14.0426 28.649 14.9824 28.0574C15.1618 27.9436 15.9393 27.1484 16.0776 26.9545C16.5179 26.3331 17.2169 25.0314 17.3164 24.211C17.3703 23.6613 17.3562 23.107 17.2745 22.5608L17.2715 22.5629Z" fill="#763287"/>
</svg>
