<svg width="16" height="20" viewBox="0 0 16 20" fill="none" xmlns="http://www.w3.org/2000/svg">
<path d="M4.80375 2.65813C5.03852 2.21357 5.36055 1.82093 5.75057 1.50371C6.14059 1.18648 6.59059 0.951183 7.07365 0.811887C7.55671 0.672592 8.0629 0.632161 8.56195 0.693015C9.06099 0.753869 9.54263 0.914756 9.97806 1.16605C10.4135 1.41735 10.7938 1.75389 11.0961 2.15555C11.3985 2.5572 11.6167 3.01572 11.7378 3.50367C11.8588 3.99161 11.8802 4.49896 11.8007 4.99537C11.7211 5.49178 11.5423 5.96704 11.2748 6.39273C10.7603 7.21167 9.94836 7.79931 9.00965 8.03221C8.07094 8.26511 7.0785 8.12513 6.24082 7.64169C5.40315 7.15825 4.78544 6.36897 4.51746 5.43966C4.24948 4.51036 4.3521 3.51336 4.80375 2.65813Z" fill="white"/>
<path d="M15.3047 11.8694C15.4411 12.1983 15.5159 12.561 15.5159 12.9385C15.5159 15.0245 14.6579 16.6956 13.2504 17.8264C11.8654 18.9386 10.0074 19.4806 8.0392 19.4806C6.07096 19.4806 4.213 18.9386 2.82795 17.8264C1.42233 16.6956 0.56251 15.0245 0.56251 12.9385C0.561523 12.5701 0.633372 12.205 0.773924 11.8644C0.914477 11.5238 1.12096 11.2143 1.38151 10.9538C1.64206 10.6932 1.95154 10.4867 2.29215 10.3462C2.63276 10.2056 2.9978 10.1338 3.36627 10.1348H12.7121C13.2675 10.1346 13.8103 10.2994 14.2719 10.6083C14.7334 10.9171 15.0929 11.356 15.3047 11.8694Z" fill="white"/>
</svg>
