<svg width="21" height="22" viewBox="0 0 21 22" fill="none" xmlns="http://www.w3.org/2000/svg">
<path d="M2.94092 3.57477C2.94092 2.80293 3.24753 2.0627 3.7933 1.51693C4.33907 0.971162 5.0793 0.664551 5.85113 0.664551C6.62297 0.664551 7.3632 0.971162 7.90897 1.51693C8.45474 2.0627 8.76135 2.80293 8.76135 3.57477C8.76135 4.3466 8.45474 5.08683 7.90897 5.6326C7.3632 6.17837 6.62297 6.48498 5.85113 6.48498C5.0793 6.48498 4.33907 6.17837 3.7933 5.6326C3.24753 5.08683 2.94092 4.3466 2.94092 3.57477Z" fill="#A86BC0"/>
<path d="M12.8031 5.87985L12.8642 5.92641C13.4816 6.38405 14.255 6.5789 15.0155 6.46845C15.776 6.358 16.462 5.95121 16.9237 5.33685C17.3854 4.72249 17.5854 3.95045 17.4799 3.1892C17.3745 2.42796 16.9723 1.73932 16.361 1.27357C15.7497 0.807822 14.979 0.602774 14.217 0.703177C13.4551 0.803581 12.7638 1.20128 12.2941 1.80949C11.8243 2.4177 11.6141 3.18704 11.7095 3.94961C11.8049 4.71218 12.198 5.40607 12.8031 5.87985Z" fill="#A86BC0"/>
<path d="M7.6957 7.94035C7.87847 7.59428 8.12916 7.28862 8.43278 7.04166C8.7364 6.79471 9.08672 6.61154 9.46277 6.5031C9.83882 6.39466 10.2329 6.36319 10.6214 6.41056C11.0099 6.45793 11.3848 6.58318 11.7238 6.77881C12.0628 6.97444 12.3588 7.23643 12.5942 7.54911C12.8295 7.86179 12.9994 8.21873 13.0937 8.59859C13.1879 8.97844 13.2046 9.3734 13.1427 9.75985C13.0807 10.1463 12.9415 10.5163 12.7333 10.8477C12.3327 11.4852 11.7007 11.9427 10.9699 12.124C10.2391 12.3053 9.46654 12.1963 8.81443 11.8199C8.16232 11.4436 7.68144 10.8292 7.47283 10.1057C7.26422 9.38227 7.3441 8.60614 7.6957 7.94035Z" fill="#A86BC0"/>
<path d="M2.21342 7.93994H6.09856C5.9385 8.39539 5.85119 8.88576 5.85119 9.39505C5.85119 10.5126 6.27172 11.5341 6.9629 12.3053H6.57875C5.82855 12.3052 5.09665 12.5369 4.48322 12.9688C3.8698 13.4006 3.40483 14.0115 3.15197 14.7178C2.66354 14.5216 2.20622 14.2555 1.79435 13.9277C0.700111 13.0474 0.0307617 11.7465 0.0307617 10.1226C0.0307617 9.54373 0.26072 8.98856 0.670049 8.57923C1.07938 8.1699 1.63455 7.93994 2.21342 7.93994Z" fill="#A86BC0"/>
<path d="M13.8563 12.3053C15.4351 12.3053 16.7796 13.3107 17.2816 14.7178C17.7764 14.5156 18.2347 14.2522 18.6407 13.9277C19.735 13.0474 20.4043 11.7465 20.4043 10.1226C20.4043 9.54373 20.1743 8.98856 19.765 8.57923C19.3557 8.1699 18.8005 7.93994 18.2216 7.93994H14.3365C14.4966 8.39539 14.5839 8.88576 14.5839 9.39505C14.5852 10.4691 14.1892 11.5057 13.4722 12.3053H13.8563Z" fill="#A86BC0"/>
<path d="M15.8744 15.1106C15.9806 15.3667 16.0388 15.649 16.0388 15.9429C16.0388 17.5668 15.3709 18.8677 14.2752 19.748C13.197 20.6138 11.7506 21.0358 10.2184 21.0358C8.68616 21.0358 7.23978 20.6138 6.16155 19.748C5.06731 18.8677 4.39796 17.5668 4.39796 15.9429C4.39719 15.6561 4.45312 15.3719 4.56254 15.1067C4.67196 14.8416 4.8327 14.6007 5.03553 14.3978C5.23836 14.195 5.47928 14.0343 5.74444 13.9248C6.0096 13.8154 6.29377 13.7595 6.58062 13.7603H13.8562C14.2885 13.7602 14.7111 13.8884 15.0704 14.1289C15.4297 14.3693 15.7095 14.711 15.8744 15.1106Z" fill="#A86BC0"/>
</svg>
