<svg width="13" height="13" viewBox="0 0 13 13" fill="none" xmlns="http://www.w3.org/2000/svg">
<path d="M9.26649 12.3728H9.28357C9.60559 12.3728 9.90992 12.246 10.1405 12.0154L11.7945 10.3614C11.8511 10.3048 11.8961 10.2376 11.9268 10.1636C11.9575 10.0897 11.9733 10.0103 11.9733 9.93024C11.9733 9.85014 11.9575 9.77083 11.9268 9.69685C11.8961 9.62286 11.8511 9.55565 11.7945 9.49906L9.35493 7.05953C9.29834 7.00284 9.23113 6.95787 9.15714 6.92718C9.08315 6.8965 9.00384 6.88071 8.92374 6.88071C8.84364 6.88071 8.76433 6.8965 8.69034 6.92718C8.61635 6.95787 8.54914 7.00284 8.49255 7.05953L7.5204 8.03168C7.0697 7.8975 6.22867 7.59256 5.69563 7.05953C5.16259 6.52649 4.85765 5.68546 4.72348 5.23476L5.69563 4.2626C5.75232 4.20601 5.79729 4.1388 5.82797 4.06481C5.85866 3.99083 5.87445 3.91152 5.87445 3.83142C5.87445 3.75132 5.85866 3.67201 5.82797 3.59802C5.79729 3.52403 5.75232 3.45682 5.69563 3.40023L3.2561 0.9607C3.13951 0.850648 2.98524 0.789343 2.82491 0.789343C2.66458 0.789343 2.51032 0.850648 2.39373 0.9607L0.740336 2.6147C0.50858 2.84646 0.378066 3.16482 0.382945 3.48988C0.396972 4.35836 0.626897 7.37483 3.00422 9.75216C5.38154 12.1295 8.39802 12.3588 9.26649 12.3728ZM2.82552 2.25426L4.40268 3.83142L3.6141 4.62C3.54234 4.69156 3.48962 4.77994 3.46076 4.87709C3.43189 4.97424 3.42779 5.07707 3.44882 5.17621C3.46346 5.24635 3.82146 6.90949 4.83387 7.9219C5.84627 8.9343 7.50942 9.2923 7.57956 9.30694C7.6787 9.32809 7.78155 9.32405 7.87872 9.29517C7.97589 9.2663 8.06427 9.21352 8.13577 9.14166L8.92435 8.35309L10.5015 9.93024L9.27808 11.1531C8.51695 11.1403 5.91275 10.9359 3.86659 8.88917C1.81373 6.83631 1.61491 4.22296 1.60271 3.47708L2.82552 2.25426ZM11.3602 5.66411H12.58C12.58 2.53542 10.2179 0.175781 7.08494 0.175781V1.39555C9.56229 1.39555 11.3602 3.19043 11.3602 5.66411Z" fill="#CACACA"/>
</svg>
