<svg width="252" height="66" viewBox="0 0 252 66" fill="none" xmlns="http://www.w3.org/2000/svg">
<rect x="1.42578" y="1.49463" width="249.153" height="64" rx="6.5" stroke="#A86BC0"/>
<path d="M53.5476 39.4946H51.6726V29.6743H46.6335V39.4946H44.7664V28.0728H53.5476V39.4946ZM63.532 35.1587C63.532 36.5701 63.17 37.6717 62.446 38.4634C61.7221 39.255 60.7143 39.6509 59.4226 39.6509C58.6153 39.6509 57.9018 39.4686 57.282 39.104C56.6622 38.7394 56.1856 38.216 55.8523 37.5337C55.519 36.8514 55.3523 36.0597 55.3523 35.1587C55.3523 33.7576 55.7117 32.6639 56.4304 31.8774C57.1492 31.091 58.1622 30.6978 59.4695 30.6978C60.7195 30.6978 61.7091 31.1014 62.4382 31.9087C63.1674 32.7108 63.532 33.7941 63.532 35.1587ZM57.2429 35.1587C57.2429 37.1535 57.9799 38.1509 59.4539 38.1509C60.9122 38.1509 61.6414 37.1535 61.6414 35.1587C61.6414 33.1847 60.907 32.1978 59.4382 32.1978C58.6674 32.1978 58.1075 32.453 57.7585 32.9634C57.4148 33.4738 57.2429 34.2056 57.2429 35.1587ZM70.5085 30.854H72.5242L68.9539 35.0181L72.8289 39.4946H70.7195L66.9851 35.1118V39.4946H65.1492V30.854H66.9851V35.0493L70.5085 30.854ZM79.1648 39.4946L78.7976 38.2915H78.7351C78.3184 38.8175 77.8992 39.1769 77.4773 39.3696C77.0554 39.5571 76.5138 39.6509 75.8523 39.6509C75.0033 39.6509 74.3393 39.4217 73.8601 38.9634C73.3861 38.505 73.1492 37.8566 73.1492 37.0181C73.1492 36.1274 73.4799 35.4556 74.1414 35.0024C74.8028 34.5493 75.8106 34.3019 77.1648 34.2603L78.657 34.2134V33.7524C78.657 33.2004 78.5268 32.7889 78.2664 32.5181C78.0111 32.242 77.6127 32.104 77.071 32.104C76.6283 32.104 76.2039 32.1691 75.7976 32.2993C75.3914 32.4295 75.0007 32.5832 74.6257 32.7603L74.032 31.4478C74.5007 31.203 75.0138 31.0181 75.571 30.8931C76.1283 30.7629 76.6544 30.6978 77.1492 30.6978C78.2481 30.6978 79.0763 30.9373 79.6335 31.4165C80.196 31.8957 80.4773 32.6483 80.4773 33.6743V39.4946H79.1648ZM76.4304 38.2446C77.0971 38.2446 77.6309 38.0597 78.032 37.6899C78.4382 37.3149 78.6414 36.7915 78.6414 36.1196V35.3696L77.532 35.4165C76.6674 35.4478 76.0372 35.5936 75.6414 35.854C75.2507 36.1092 75.0554 36.5024 75.0554 37.0337C75.0554 37.4191 75.17 37.7186 75.3992 37.9321C75.6283 38.1405 75.9721 38.2446 76.4304 38.2446ZM84.446 34.3071C85.2846 34.3071 85.9018 34.216 86.2976 34.0337C86.6934 33.8462 86.8914 33.5597 86.8914 33.1743C86.8914 32.4712 86.2664 32.1196 85.0164 32.1196C84.183 32.1196 83.3315 32.3071 82.4617 32.6821L81.8679 31.3149C82.8731 30.9035 83.9825 30.6978 85.196 30.6978C86.269 30.6978 87.1023 30.8957 87.696 31.2915C88.2898 31.6821 88.5867 32.2446 88.5867 32.979C88.5867 33.9478 88.032 34.5832 86.9226 34.8853V34.9478C87.6153 35.1353 88.1101 35.4035 88.407 35.7524C88.7091 36.1014 88.8601 36.5337 88.8601 37.0493C88.8601 37.841 88.5111 38.4738 87.8132 38.9478C87.1205 39.4165 86.1518 39.6509 84.907 39.6509C83.5476 39.6509 82.5085 39.4712 81.7898 39.1118V37.5259C82.7429 37.9738 83.7299 38.1978 84.7507 38.1978C85.4851 38.1978 86.0502 38.0962 86.446 37.8931C86.8471 37.6847 87.0476 37.3696 87.0476 36.9478C87.0476 36.5155 86.8471 36.1978 86.446 35.9946C86.045 35.7915 85.4252 35.6899 84.5867 35.6899H83.532V34.3071H84.446ZM95.7585 39.4946L95.3914 38.2915H95.3289C94.9122 38.8175 94.4929 39.1769 94.071 39.3696C93.6492 39.5571 93.1075 39.6509 92.446 39.6509C91.5971 39.6509 90.933 39.4217 90.4539 38.9634C89.9799 38.505 89.7429 37.8566 89.7429 37.0181C89.7429 36.1274 90.0736 35.4556 90.7351 35.0024C91.3966 34.5493 92.4044 34.3019 93.7585 34.2603L95.2507 34.2134V33.7524C95.2507 33.2004 95.1205 32.7889 94.8601 32.5181C94.6049 32.242 94.2065 32.104 93.6648 32.104C93.2221 32.104 92.7976 32.1691 92.3914 32.2993C91.9851 32.4295 91.5945 32.5832 91.2195 32.7603L90.6257 31.4478C91.0945 31.203 91.6075 31.0181 92.1648 30.8931C92.7221 30.7629 93.2481 30.6978 93.7429 30.6978C94.8419 30.6978 95.67 30.9373 96.2273 31.4165C96.7898 31.8957 97.071 32.6483 97.071 33.6743V39.4946H95.7585ZM93.0242 38.2446C93.6908 38.2446 94.2247 38.0597 94.6257 37.6899C95.032 37.3149 95.2351 36.7915 95.2351 36.1196V35.3696L94.1257 35.4165C93.2611 35.4478 92.6309 35.5936 92.2351 35.854C91.8445 36.1092 91.6492 36.5024 91.6492 37.0337C91.6492 37.4191 91.7638 37.7186 91.9929 37.9321C92.2221 38.1405 92.5658 38.2446 93.0242 38.2446ZM105.626 30.854V32.2915H102.813V39.4946H100.969V32.2915H98.157V30.854H105.626ZM108.626 34.3071H110.79C113.201 34.3071 114.407 35.1405 114.407 36.8071C114.407 37.6873 114.1 38.3566 113.485 38.8149C112.871 39.2681 111.972 39.4946 110.79 39.4946H106.79V30.854H108.626V34.3071ZM112.563 36.854C112.563 36.4217 112.399 36.1196 112.071 35.9478C111.743 35.7759 111.279 35.6899 110.68 35.6899H108.626V38.1353H110.712C111.316 38.1353 111.774 38.0259 112.087 37.8071C112.404 37.5884 112.563 37.2707 112.563 36.854ZM123.376 39.6509C122.032 39.6509 120.98 39.2603 120.219 38.479C119.464 37.6925 119.087 36.6118 119.087 35.2368C119.087 33.8254 119.438 32.716 120.141 31.9087C120.844 31.1014 121.811 30.6978 123.04 30.6978C124.18 30.6978 125.081 31.0441 125.743 31.7368C126.404 32.4295 126.735 33.3826 126.735 34.5962V35.5884H120.977C121.003 36.4269 121.23 37.0728 121.657 37.5259C122.084 37.9738 122.686 38.1978 123.462 38.1978C123.972 38.1978 124.446 38.1509 124.884 38.0571C125.326 37.9582 125.8 37.7967 126.305 37.5728V39.0649C125.858 39.2785 125.404 39.4295 124.946 39.5181C124.488 39.6066 123.964 39.6509 123.376 39.6509ZM123.04 32.0884C122.456 32.0884 121.988 32.2733 121.634 32.6431C121.285 33.0129 121.076 33.5519 121.009 34.2603H124.93C124.92 33.5467 124.748 33.0076 124.415 32.6431C124.081 32.2733 123.623 32.0884 123.04 32.0884ZM140.563 38.0728H141.805V42.5337H140.079V39.4946H128.321V30.854H130.157V38.0415H133.524V30.854H135.36V38.0415H138.719V30.854H140.563V38.0728ZM146.657 39.6509C145.313 39.6509 144.261 39.2603 143.501 38.479C142.746 37.6925 142.368 36.6118 142.368 35.2368C142.368 33.8254 142.719 32.716 143.423 31.9087C144.126 31.1014 145.092 30.6978 146.321 30.6978C147.462 30.6978 148.363 31.0441 149.024 31.7368C149.686 32.4295 150.016 33.3826 150.016 34.5962V35.5884H144.259C144.285 36.4269 144.511 37.0728 144.938 37.5259C145.365 37.9738 145.967 38.1978 146.743 38.1978C147.253 38.1978 147.727 38.1509 148.165 38.0571C148.608 37.9582 149.081 37.7967 149.587 37.5728V39.0649C149.139 39.2785 148.686 39.4295 148.227 39.5181C147.769 39.6066 147.246 39.6509 146.657 39.6509ZM146.321 32.0884C145.738 32.0884 145.269 32.2733 144.915 32.6431C144.566 33.0129 144.358 33.5519 144.29 34.2603H148.212C148.201 33.5467 148.029 33.0076 147.696 32.6431C147.363 32.2733 146.904 32.0884 146.321 32.0884Z" fill="#A86BC0"/>
<path d="M43.2585 41.0962H150.79V41.8931H43.2585V41.0962Z" fill="#A86BC0"/>
<path d="M199.746 36.025C200.039 35.7321 200.039 35.2572 199.746 34.9643L194.973 30.1913C194.68 29.8984 194.205 29.8984 193.912 30.1913C193.62 30.4842 193.62 30.9591 193.912 31.252L198.155 35.4946L193.912 39.7373C193.62 40.0302 193.62 40.505 193.912 40.7979C194.205 41.0908 194.68 41.0908 194.973 40.7979L199.746 36.025ZM179.36 36.2446H199.216V34.7446H179.36V36.2446Z" fill="#A86BC0"/>
</svg>
