<svg width="15" height="22" viewBox="0 0 15 22" fill="none" xmlns="http://www.w3.org/2000/svg">
<path d="M12.9589 20.8035C10.8812 20.8035 8.80857 20.8035 6.73087 20.8035C5.51761 20.8035 4.2993 20.8035 3.08604 20.8035C2.83834 20.8035 2.58557 20.8137 2.33787 20.8035C1.96884 20.7883 1.72618 20.5293 1.72618 20.1636C1.71102 18.4267 1.72618 16.6897 1.72618 14.9579C1.72618 12.0884 1.72618 9.21381 1.72618 6.34432C1.72618 5.25746 1.72618 4.17061 1.72618 3.08884C1.72618 2.65206 1.70596 2.21021 1.72618 1.77344C1.74641 1.32651 2.09522 1.17923 2.47941 1.17923C2.83834 1.17923 3.1922 1.17923 3.55112 1.17923C4.86549 1.17923 6.17479 1.17923 7.48915 1.17923C8.83385 1.17923 10.1785 1.17923 11.5182 1.17923C11.9125 1.17923 12.3118 1.17923 12.7062 1.17923C13.0398 1.17923 13.3785 1.19446 13.5201 1.57029C13.5706 1.70742 13.5504 1.89533 13.5504 2.04261C13.5504 2.3321 13.5504 2.62159 13.5504 2.91108C13.5504 3.9573 13.5504 5.0086 13.5504 6.05483C13.5504 8.91416 13.5504 11.7735 13.5504 14.6278C13.5504 16.4561 13.5554 18.2845 13.5504 20.1128C13.5453 20.4734 13.3532 20.7883 12.9589 20.8035C12.3118 20.8238 12.3068 21.8396 12.9589 21.8193C13.8638 21.7888 14.5513 21.0828 14.5614 20.1737C14.5614 19.9858 14.5614 19.7928 14.5614 19.6049C14.5614 18.6806 14.5614 17.7512 14.5614 16.8269C14.5614 13.9218 14.5614 11.0168 14.5614 8.11172C14.5614 6.07006 14.5614 4.02841 14.5614 1.98675C14.5614 1.64139 14.5311 1.31128 14.3643 0.991314C14.0509 0.3971 13.4341 0.15332 12.7972 0.15332C11.8013 0.15332 10.8003 0.15332 9.80445 0.15332C7.35772 0.15332 4.91098 0.15332 2.46425 0.15332C1.80707 0.15332 1.18527 0.427573 0.88196 1.04718C0.730303 1.35698 0.715137 1.67187 0.715137 2.00706C0.715137 2.77395 0.715137 3.53577 0.715137 4.30266C0.715137 7.11121 0.715137 9.91975 0.715137 12.7283C0.715137 15.0341 0.715137 17.3398 0.715137 19.6456C0.715137 19.8233 0.710082 20.0011 0.715137 20.1839C0.735358 21.0879 1.41276 21.7939 2.31765 21.8193C3.0456 21.8396 3.77355 21.8193 4.49645 21.8193C7.13023 21.8193 9.76401 21.8193 12.3927 21.8193C12.5798 21.8193 12.7668 21.8193 12.9539 21.8193C13.606 21.8193 13.606 20.8035 12.9589 20.8035Z" fill="#A86BC0"/>
<path d="M5.58267 3.56018C6.31062 3.56018 9.0765 3.56018 9.80445 3.56018C10.4566 3.56018 10.4566 2.54443 9.80445 2.54443C9.0765 2.54443 6.31062 2.54443 5.58267 2.54443C4.93054 2.54443 4.93054 3.56018 5.58267 3.56018Z" fill="#A86BC0"/>
<path d="M8.64852 18.564C8.64852 19.1227 8.19561 19.5756 7.63693 19.5756C7.07824 19.5756 6.62533 19.1227 6.62533 18.564C6.62533 18.0054 7.07824 17.5525 7.63693 17.5525C8.19561 17.5525 8.64852 18.0054 8.64852 18.564Z" fill="#A86BC0"/>
</svg>
