<svg width="11" height="17" viewBox="0 0 11 17" fill="none" xmlns="http://www.w3.org/2000/svg">
<path d="M5.55273 0.744141C2.79073 0.744141 0.552734 2.97314 0.552734 5.73414C0.552734 10.5081 5.55273 16.7341 5.55273 16.7341C5.55273 16.7341 10.5527 10.5071 10.5527 5.73414C10.5527 2.97414 8.31473 0.744141 5.55273 0.744141ZM5.55273 8.49514C4.83665 8.49514 4.14989 8.21068 3.64355 7.70433C3.1372 7.19798 2.85273 6.51122 2.85273 5.79514C2.85273 5.07906 3.1372 4.3923 3.64355 3.88595C4.14989 3.3796 4.83665 3.09514 5.55273 3.09514C6.26882 3.09514 6.95557 3.3796 7.46192 3.88595C7.96827 4.3923 8.25273 5.07906 8.25273 5.79514C8.25273 6.51122 7.96827 7.19798 7.46192 7.70433C6.95557 8.21068 6.26882 8.49514 5.55273 8.49514Z" fill="#A86BC0"/>
</svg>
