<svg width="609" height="375" viewBox="0 0 609 375" fill="none" xmlns="http://www.w3.org/2000/svg">
<g clip-path="url(#clip0)" filter="url(#filter0_d)">
<path d="M426.589 -0.000159542L17 378.703L181.627 556.757L591.216 178.054L426.589 -0.000159542Z" fill="white"/>
<path d="M334.43 71.4164L347.759 71.9386L346.633 100.659L375.354 101.784L374.229 130.505L402.949 131.63L401.824 160.351L430.544 161.476L429.419 190.197L458.14 191.322L457.014 220.042L485.735 221.168L484.61 249.888L513.33 251.013L512.64 268.632L613.323 175.542L432.884 -19.6132L334.43 71.4164Z" fill="#05ADF8"/>
<path d="M62.99 372.698L59.6719 375.766L187.909 514.462L191.228 511.394L62.99 372.698Z" fill="#008ECD"/>
<path d="M444.794 80.4427C445.536 82.7958 445.666 85.0039 445.182 87.067C444.728 89.1606 443.663 91.0192 441.986 92.6428C440.004 94.5616 437.72 95.6801 435.133 95.9984C432.577 96.2872 429.899 95.8087 427.098 94.5628C424.327 93.2874 421.643 91.3081 419.045 88.6249C416.448 85.9417 414.556 83.1949 413.371 80.3844C412.246 77.575 411.869 74.8977 412.241 72.3526C412.672 69.8084 413.878 67.5769 415.86 65.6581C417.537 64.0345 419.415 63.0144 421.492 62.5979C423.6 62.2118 425.802 62.4125 428.101 63.2C427.681 61.3024 427.71 59.5021 428.188 57.799C428.696 56.0665 429.667 54.5065 431.1 53.119C432.96 51.3183 435.078 50.2721 437.454 49.9804C439.829 49.6887 442.284 50.1186 444.816 51.2701C447.379 52.392 449.827 54.1574 452.159 56.5662C454.52 59.0055 456.22 61.5241 457.259 64.1221C458.357 66.721 458.722 69.203 458.354 71.5681C457.985 73.9332 456.871 76.0161 455.011 77.8168C453.578 79.2043 451.988 80.124 450.239 80.5759C448.522 80.9983 446.707 80.9539 444.794 80.4427ZM446.716 61.8355C445.27 60.3415 443.738 59.4913 442.12 59.285C440.563 59.0798 439.159 59.5823 437.909 60.7926C436.689 61.9734 436.157 63.3454 436.312 64.9086C436.466 66.4718 437.282 68.0157 438.758 69.5402C440.234 71.0648 441.765 71.945 443.352 72.1807C444.939 72.4165 446.342 71.944 447.562 70.7632C448.812 69.5529 449.345 68.1509 449.161 66.5572C449.007 64.934 448.192 63.3601 446.716 61.8355ZM424.488 83.3556C426.289 85.2155 428.117 86.2806 429.974 86.5507C431.89 86.8219 433.55 86.2785 434.952 84.9205C436.355 83.5626 436.937 81.9363 436.697 80.0416C436.487 78.1774 435.482 76.3153 433.681 74.4553C431.91 72.6258 430.096 71.576 428.24 71.3059C426.383 71.0357 424.754 71.5796 423.351 72.9375C421.918 74.325 421.306 75.9508 421.516 77.815C421.726 79.6793 422.717 81.5261 424.488 83.3556ZM466.599 96.6497C470.968 101.162 473.286 105.357 473.553 109.233C473.85 113.139 472.489 116.554 469.471 119.476C467.519 121.366 465.263 122.605 462.703 123.194C460.173 123.753 457.445 123.499 454.521 122.431C451.657 121.364 448.808 119.367 445.974 116.44C443.79 114.184 441.925 111.677 440.379 108.921C438.893 106.166 437.96 103.495 437.582 100.907L446.087 98.3437C446.353 100.449 446.995 102.545 448.011 104.633C449.059 106.69 450.394 108.558 452.018 110.235C453.818 112.095 455.601 113.204 457.366 113.563C459.131 113.922 460.669 113.466 461.98 112.197C463.352 110.869 463.843 109.301 463.452 107.494C463.091 105.717 461.581 103.457 458.925 100.712L450.999 92.5255L470.613 76.7257L489.52 96.2553L483.575 102.012L470.645 88.6566L464.075 94.0427L466.599 96.6497ZM475.054 146.476C472.486 143.824 470.854 140.826 470.158 137.483C469.461 134.14 469.772 130.679 471.091 127.099C472.47 123.519 474.882 120.062 478.327 116.726C481.772 113.39 485.291 111.106 488.883 109.874C492.534 108.642 496.019 108.429 499.338 109.233C502.656 110.037 505.599 111.765 508.168 114.418C510.736 117.07 512.368 120.068 513.064 123.411C513.761 126.754 513.419 130.215 512.041 133.794C510.722 137.374 508.34 140.832 504.895 144.168C501.449 147.504 497.901 149.787 494.249 151.019C490.658 152.251 487.203 152.466 483.884 151.662C480.566 150.858 477.623 149.129 475.054 146.476ZM481.32 140.41C483.21 142.361 485.524 143.074 488.264 142.548C491.033 142.053 494.171 140.108 497.677 136.713C501.184 133.318 503.229 130.245 503.814 127.493C504.429 124.772 503.791 122.436 501.902 120.484C500.042 118.563 497.727 117.85 494.958 118.346C492.219 118.872 489.095 120.832 485.589 124.227C482.082 127.622 480.022 130.68 479.408 133.401C478.823 136.153 479.46 138.489 481.32 140.41ZM513.96 164.606L511.399 167.086L520.964 176.965L517.168 180.64L507.603 170.761L503.487 174.746L496.269 167.291L500.385 163.306L496.09 158.869L499.886 155.194L504.182 159.63L528.285 136.295L541.702 150.153C545.923 154.513 548.3 158.799 548.832 163.009C549.394 167.25 547.906 171.083 544.369 174.507C540.862 177.902 536.999 179.25 532.778 178.551C528.587 177.883 524.381 175.369 520.16 171.009L513.96 164.606ZM537.061 167.051C538.616 165.545 539.259 163.83 538.99 161.904C538.751 160.01 537.627 158.026 535.62 155.952L529.465 149.595L519.769 158.982L525.924 165.34C527.931 167.413 529.878 168.6 531.764 168.901C533.71 169.202 535.476 168.586 537.061 167.051Z" fill="white"/>
<path d="M214.633 240.474C215.826 239.371 215.899 237.509 214.796 236.315C213.692 235.122 211.83 235.049 210.637 236.152C209.443 237.256 209.37 239.118 210.474 240.311C211.577 241.505 213.439 241.578 214.633 240.474Z" fill="#E8E8E8"/>
<path d="M277.363 289.194C280.05 286.709 280.215 282.516 277.73 279.828C275.245 277.14 271.051 276.976 268.364 279.461C265.676 281.946 265.512 286.139 267.997 288.827C270.482 291.515 274.675 291.679 277.363 289.194Z" fill="#E8E8E8"/>
<path d="M293.009 237.169C291.631 235.088 288.826 234.52 286.746 235.899C284.666 237.278 284.097 240.082 285.476 242.162C286.855 244.243 289.659 244.811 291.739 243.432C293.82 242.053 294.388 239.249 293.009 237.169Z" fill="#E8E8E8"/>
<path d="M310.808 344.492C312.001 343.389 312.074 341.527 310.97 340.333C309.867 339.14 308.005 339.067 306.811 340.17C305.618 341.274 305.545 343.136 306.648 344.329C307.752 345.523 309.614 345.596 310.808 344.492Z" fill="#E8E8E8"/>
<path d="M441.212 252.638C441.268 251.193 440.143 249.975 438.698 249.918C437.253 249.862 436.035 250.987 435.979 252.433C435.922 253.878 437.048 255.095 438.493 255.152C439.938 255.208 441.155 254.083 441.212 252.638Z" fill="#E8E8E8"/>
<path d="M370.722 163.478C373.964 160.48 374.163 155.422 371.165 152.179C368.167 148.937 363.109 148.739 359.867 151.737C356.624 154.734 356.426 159.793 359.424 163.035C362.422 166.277 367.48 166.475 370.722 163.478Z" fill="#E8E8E8"/>
<path d="M318.242 178.516C319.939 176.947 320.043 174.298 318.473 172.601C316.904 170.904 314.256 170.8 312.559 172.369C310.861 173.939 310.758 176.587 312.327 178.284C313.896 179.981 316.544 180.085 318.242 178.516Z" fill="#E8E8E8"/>
<path d="M317.24 293.267C318.583 292.025 318.665 289.929 317.423 288.585C316.181 287.242 314.085 287.159 312.741 288.402C311.398 289.644 311.316 291.74 312.558 293.084C313.8 294.427 315.896 294.509 317.24 293.267Z" fill="#E8E8E8"/>
<path d="M306.891 306.929C308.044 305.863 308.114 304.065 307.048 302.912C305.983 301.759 304.184 301.689 303.031 302.755C301.879 303.82 301.808 305.619 302.874 306.771C303.94 307.924 305.738 307.995 306.891 306.929Z" fill="#E8E8E8"/>
<path d="M328.693 314.359C331.35 311.903 331.512 307.759 329.056 305.103C326.6 302.446 322.456 302.284 319.8 304.74C317.144 307.196 316.981 311.34 319.437 313.996C321.893 316.652 326.037 316.815 328.693 314.359Z" fill="#E8E8E8"/>
<path d="M319.46 123.669C318.972 123.141 318.153 123.109 317.626 123.597C317.098 124.084 317.066 124.903 317.554 125.431C318.042 125.958 318.86 125.99 319.388 125.503C319.931 125.032 319.963 124.213 319.46 123.669Z" fill="#E8E8E8"/>
<path d="M384.244 75.1977L382.262 73.0651L380.164 75.0154L379.249 74.0311L381.346 72.0809L379.363 69.9483L380.289 69.0876L382.272 71.2202L384.381 69.2591L385.296 70.2433L383.187 72.2044L385.17 74.337L384.244 75.1977ZM390.151 83.5704L388.952 82.2815L386.327 84.722L385.281 83.5971L391.492 77.8227L392.538 78.9476L389.913 81.3881L391.133 82.7004L395.632 82.2753L396.754 83.4822L391.576 83.9053L390.696 89.4207L389.465 88.0966L390.151 83.5704ZM394.004 93.1193C393.431 92.5022 393.052 91.8205 392.867 91.0741C392.683 90.3278 392.699 89.5925 392.914 88.8682C393.144 88.1445 393.563 87.4993 394.173 86.9328C394.782 86.3662 395.452 85.9981 396.183 85.8285C396.929 85.6594 397.663 85.6974 398.386 85.9426C399.117 86.1805 399.77 86.608 400.343 87.2251C400.917 87.8422 401.293 88.5201 401.47 89.2586C401.662 89.9977 401.643 90.7291 401.412 91.4528C401.197 92.1771 400.785 92.8225 400.176 93.3891C399.567 93.9556 398.889 94.3234 398.143 94.4926C397.413 94.6622 396.682 94.6281 395.951 94.3902C395.227 94.1601 394.578 93.7365 394.004 93.1193ZM394.989 92.2042C395.359 92.6025 395.779 92.8744 396.25 93.0199C396.735 93.1658 397.225 93.1761 397.72 93.0507C398.223 92.918 398.689 92.652 399.119 92.2525C399.549 91.853 399.844 91.4109 400.005 90.9262C400.174 90.4342 400.199 89.9445 400.081 89.4572C399.97 88.9777 399.73 88.5387 399.359 88.1403C398.989 87.7419 398.565 87.4661 398.087 87.3129C397.617 87.1675 397.127 87.1572 396.617 87.282C396.122 87.4074 395.659 87.6699 395.23 88.0694C394.8 88.4688 394.501 88.9146 394.332 89.4066C394.178 89.8991 394.153 90.3888 394.256 90.8756C394.374 91.3629 394.618 91.8058 394.989 92.2042ZM404.791 92.1262L405.837 93.2511L403.201 95.7025L406.491 99.2411L409.128 96.7897L410.174 97.9146L403.963 103.689L402.917 102.564L405.519 100.145L402.228 96.6068L399.627 99.0255L398.581 97.9006L404.791 92.1262ZM408.443 108.648C407.855 108.016 407.465 107.322 407.274 106.568C407.09 105.822 407.105 105.086 407.32 104.362C407.543 103.63 407.959 102.981 408.568 102.415C409.178 101.848 409.851 101.484 410.589 101.322C411.335 101.153 412.069 101.191 412.793 101.436C413.531 101.682 414.194 102.121 414.783 102.754C415.306 103.317 415.657 103.922 415.837 104.57C416.025 105.226 416.016 105.875 415.812 106.516L414.466 106.173C414.581 105.702 414.578 105.252 414.458 104.825C414.338 104.398 414.114 104.009 413.787 103.658C413.41 103.251 412.978 102.968 412.494 102.807C412.016 102.653 411.522 102.639 411.012 102.764C410.517 102.89 410.055 103.152 409.625 103.551C409.188 103.958 408.884 104.408 408.716 104.9C408.562 105.392 408.544 105.882 408.662 106.369C408.788 106.865 409.039 107.315 409.417 107.721C409.744 108.073 410.116 108.324 410.533 108.475C410.95 108.626 411.398 108.661 411.876 108.581L412.133 109.937C411.478 110.095 410.826 110.06 410.178 109.832C409.545 109.605 408.966 109.211 408.443 108.648ZM423.51 112.258L413.879 115.599C412.999 115.921 412.264 116.023 411.672 115.903C411.087 115.791 410.562 115.485 410.097 114.986C409.814 114.681 409.589 114.337 409.422 113.953C409.254 113.585 409.177 113.22 409.19 112.858L410.48 112.554C410.473 113.158 410.666 113.67 411.058 114.092C411.312 114.366 411.597 114.523 411.913 114.565C412.228 114.621 412.63 114.561 413.119 114.382L413.738 114.178L417.387 105.673L418.477 106.845L415.524 113.632L422.486 111.157L423.51 112.258ZM429.23 118.409L423.02 124.184L421.974 123.059L427.2 118.2L424.716 115.528L423.268 116.743C422.395 117.482 421.627 118.057 420.963 118.471C420.307 118.877 419.695 119.112 419.126 119.174C418.558 119.236 418.067 119.045 417.653 118.6C417.464 118.397 417.285 118.133 417.115 117.81L418.13 116.998C418.201 117.121 418.276 117.226 418.356 117.312C418.647 117.624 419.001 117.732 419.42 117.634C419.839 117.536 420.257 117.336 420.676 117.034C421.094 116.732 421.669 116.278 422.401 115.67L424.796 113.64L429.23 118.409ZM431.812 125.416C432.538 126.213 432.918 126.981 432.951 127.722C432.985 128.463 432.681 129.131 432.041 129.727C431.369 130.351 430.639 130.608 429.85 130.496C429.077 130.385 428.306 129.908 427.536 129.065L425.042 126.359L431.252 120.584L432.298 121.709L430.201 123.66L431.812 125.416ZM428.304 128.176C428.769 128.691 429.226 128.979 429.677 129.041C430.135 129.11 430.571 128.952 430.985 128.567C431.391 128.19 431.568 127.785 431.516 127.353C431.471 126.928 431.209 126.451 430.73 125.92L429.381 124.422L426.943 126.688L428.304 128.176ZM440.274 132.261L438.161 129.988L432.935 134.847L431.889 133.722L437.115 128.863L435.001 126.59L435.985 125.675L441.259 131.346L440.274 132.261ZM444.446 134.657C445.245 135.516 445.644 136.368 445.644 137.213C445.65 138.066 445.236 138.882 444.4 139.659L440.65 143.145L439.659 142.079L440.479 141.316C440.016 141.398 439.543 141.335 439.059 141.129C438.591 140.923 438.136 140.582 437.693 140.105C437.046 139.41 436.695 138.696 436.639 137.961C436.59 137.235 436.838 136.618 437.385 136.109C437.932 135.601 438.555 135.393 439.253 135.487C439.96 135.573 440.716 136.049 441.522 136.916L443.178 138.697L443.401 138.49C443.885 138.04 444.125 137.554 444.122 137.033C444.118 136.513 443.862 135.979 443.354 135.432C443.012 135.065 442.616 134.764 442.164 134.528C441.72 134.286 441.284 134.138 440.855 134.084L441.263 132.831C441.819 132.912 442.37 133.113 442.917 133.435C443.471 133.749 443.981 134.157 444.446 134.657ZM438.734 139.487C439.134 139.916 439.572 140.2 440.05 140.338C440.536 140.469 441.02 140.442 441.503 140.255L442.37 139.449L440.757 137.715C439.871 136.762 439.108 136.583 438.467 137.179C438.155 137.469 438.021 137.819 438.067 138.228C438.112 138.638 438.335 139.057 438.734 139.487ZM449.685 150.888L447.212 153.187L446.221 152.12L447.709 150.737L442.534 145.171L448.744 139.396L449.79 140.521L444.564 145.38L447.723 148.779L452.949 143.919L453.995 145.044L448.769 149.903L449.685 150.888ZM456.266 147.486L457.312 148.611L452.789 152.817L460.853 152.419L461.801 153.439L455.591 159.213L454.545 158.088L459.068 153.883L451.015 154.292L450.056 153.261L456.266 147.486ZM468.461 160.602L462.251 166.377L461.314 165.369L463.283 163.538L461.605 161.734L461.485 161.605L458.253 162.076L457.131 160.869L460.657 160.409C460.362 159.809 460.258 159.236 460.346 158.688C460.441 158.133 460.731 157.63 461.216 157.18C461.927 156.519 462.691 156.26 463.508 156.403C464.334 156.539 465.142 157.032 465.934 157.884L468.461 160.602ZM462.248 158.361C461.834 158.746 461.646 159.162 461.682 159.608C461.734 160.056 462.003 160.541 462.49 161.064L464.091 162.787L466.54 160.51L464.982 158.834C463.98 157.756 463.069 157.598 462.248 158.361ZM476.747 171.487L474.634 169.214L469.408 174.073L468.362 172.948L473.588 168.089L471.474 165.816L472.458 164.901L477.732 170.572L476.747 171.487ZM481.921 174.96C482.48 175.562 482.849 176.224 483.026 176.948C483.204 177.671 483.178 178.387 482.948 179.096C482.726 179.812 482.302 180.461 481.677 181.042C481.052 181.623 480.371 182.002 479.632 182.179C478.909 182.357 478.193 182.331 477.484 182.101C476.775 181.872 476.141 181.456 475.582 180.855C475.168 180.409 474.873 179.919 474.696 179.385C474.526 178.858 474.486 178.313 474.574 177.75L471.364 180.735L470.318 179.61L478.801 171.722L479.803 172.8L478.819 173.715C479.395 173.646 479.947 173.723 480.475 173.946C481.011 174.161 481.493 174.5 481.921 174.96ZM476.479 179.846C476.85 180.244 477.27 180.516 477.74 180.661C478.225 180.807 478.716 180.818 479.211 180.692C479.721 180.567 480.191 180.305 480.621 179.906C481.05 179.506 481.342 179.06 481.496 178.568C481.664 178.076 481.69 177.586 481.572 177.099C481.461 176.619 481.22 176.18 480.85 175.782C480.487 175.391 480.062 175.123 479.577 174.977C479.107 174.832 478.621 174.818 478.118 174.935C477.623 175.061 477.161 175.323 476.731 175.723C476.301 176.122 476.002 176.568 475.833 177.06C475.672 177.545 475.647 178.034 475.757 178.529C475.875 179.016 476.116 179.455 476.479 179.846ZM488.381 188.322C488.295 188.402 488.174 188.499 488.019 188.614L483.334 183.576C482.853 184.155 482.633 184.803 482.675 185.522C482.731 186.241 483.043 186.905 483.61 187.514C484.3 188.257 485.105 188.622 486.027 188.61L485.878 189.906C485.288 189.93 484.711 189.811 484.147 189.549C483.59 189.295 483.072 188.91 482.593 188.395C481.983 187.738 481.574 187.033 481.368 186.278C481.169 185.516 481.181 184.769 481.404 184.038C481.634 183.314 482.054 182.669 482.663 182.102C483.265 181.543 483.931 181.171 484.662 180.986C485.401 180.81 486.121 180.832 486.822 181.054C487.539 181.276 488.173 181.684 488.725 182.278C489.277 182.871 489.63 183.526 489.786 184.241C489.956 184.956 489.919 185.668 489.674 186.376C489.437 187.092 489.005 187.741 488.381 188.322ZM487.776 183.16C487.275 182.621 486.689 182.321 486.02 182.259C485.358 182.204 484.732 182.393 484.143 182.824L487.847 186.808C488.312 186.259 488.538 185.648 488.525 184.976C488.527 184.304 488.277 183.699 487.776 183.16ZM493.143 187.147L494.189 188.272L491.553 190.723L494.843 194.262L497.48 191.811L498.526 192.936L492.315 198.71L491.269 197.585L493.871 195.166L490.58 191.628L487.979 194.046L486.933 192.922L493.143 187.147ZM502.638 203.655C502.552 203.735 502.431 203.833 502.276 203.948L497.591 198.909C497.11 199.488 496.89 200.137 496.932 200.855C496.989 201.574 497.3 202.239 497.867 202.848C498.557 203.59 499.363 203.955 500.284 203.943L500.135 205.24C499.545 205.264 498.968 205.145 498.404 204.883C497.847 204.628 497.329 204.243 496.85 203.728C496.24 203.072 495.831 202.366 495.625 201.612C495.426 200.85 495.438 200.103 495.661 199.371C495.891 198.648 496.311 198.002 496.92 197.436C497.522 196.877 498.188 196.505 498.919 196.32C499.658 196.143 500.378 196.165 501.079 196.387C501.796 196.609 502.43 197.017 502.982 197.611C503.534 198.205 503.888 198.859 504.043 199.574C504.213 200.29 504.176 201.002 503.931 201.71C503.694 202.426 503.263 203.074 502.638 203.655ZM502.033 198.494C501.532 197.954 500.946 197.654 500.277 197.592C499.615 197.538 498.989 197.726 498.4 198.158L502.104 202.142C502.569 201.592 502.795 200.982 502.782 200.309C502.784 199.638 502.534 199.033 502.033 198.494ZM510.521 205.719C511.08 206.32 511.448 206.983 511.626 207.706C511.803 208.43 511.777 209.146 511.548 209.854C511.325 210.571 510.902 211.219 510.277 211.801C509.652 212.382 508.97 212.761 508.232 212.938C507.508 213.115 506.792 213.089 506.083 212.859C505.375 212.63 504.741 212.214 504.182 211.613C503.768 211.168 503.472 210.678 503.295 210.143C503.126 209.616 503.085 209.071 503.174 208.508L499.963 211.493L498.917 210.369L507.401 202.481L508.403 203.559L507.419 204.474C507.995 204.404 508.547 204.481 509.074 204.704C509.61 204.919 510.092 205.258 510.521 205.719ZM505.079 210.604C505.449 211.002 505.869 211.274 506.34 211.42C506.825 211.566 507.315 211.576 507.81 211.45C508.32 211.326 508.79 211.063 509.22 210.664C509.65 210.264 509.941 209.818 510.095 209.326C510.264 208.834 510.289 208.344 510.171 207.857C510.06 207.377 509.82 206.938 509.449 206.54C509.086 206.149 508.662 205.881 508.177 205.735C507.706 205.59 507.22 205.576 506.718 205.694C506.223 205.819 505.76 206.081 505.33 206.481C504.901 206.88 504.602 207.326 504.433 207.818C504.272 208.303 504.246 208.792 504.357 209.287C504.475 209.774 504.715 210.213 505.079 210.604ZM516.966 212.651C517.765 213.51 518.164 214.362 518.164 215.207C518.17 216.061 517.756 216.876 516.92 217.653L513.17 221.139L512.179 220.073L512.999 219.31C512.536 219.392 512.063 219.329 511.58 219.123C511.112 218.917 510.656 218.576 510.213 218.1C509.567 217.404 509.215 216.69 509.159 215.955C509.11 215.229 509.359 214.612 509.905 214.103C510.452 213.595 511.075 213.387 511.773 213.481C512.48 213.567 513.236 214.043 514.042 214.91L515.698 216.691L515.921 216.484C516.405 216.034 516.646 215.548 516.642 215.028C516.638 214.507 516.382 213.973 515.874 213.426C515.532 213.059 515.136 212.758 514.684 212.522C514.24 212.28 513.804 212.132 513.375 212.078L513.783 210.825C514.339 210.906 514.89 211.107 515.437 211.429C515.992 211.743 516.501 212.151 516.966 212.651ZM511.254 217.481C511.654 217.91 512.093 218.194 512.571 218.332C513.056 218.463 513.54 218.436 514.023 218.249L514.89 217.443L513.277 215.709C512.391 214.756 511.628 214.577 510.987 215.173C510.675 215.463 510.541 215.813 510.587 216.223C510.632 216.632 510.855 217.051 511.254 217.481Z" fill="white"/>
<path d="M332.688 293.311L343.771 283.064L348.895 288.606L337.811 298.853L332.688 293.311ZM353.763 267.7C357.483 264.261 360.93 262.482 364.105 262.362C367.305 262.219 370.075 263.413 372.415 265.943C373.936 267.588 374.909 269.504 375.336 271.691C375.764 273.83 375.491 276.124 374.517 278.573C373.545 280.974 371.782 283.356 369.226 285.719C367.353 287.45 365.283 288.942 363.015 290.194C360.772 291.423 358.606 292.229 356.518 292.61L353.984 284.463C355.702 284.189 357.369 283.657 358.985 282.866C360.627 282.053 362.093 281.049 363.383 279.856C364.674 278.663 365.476 277.475 365.791 276.292C366.107 275.061 365.856 274.003 365.037 273.117C364.218 272.231 363.219 271.912 362.039 272.158C360.858 272.405 359.307 273.417 357.384 275.195L350.172 281.863L337.147 265.11L354.075 249.458L359.445 255.266L348.741 265.162L351.979 269.35L353.763 267.7ZM394.71 262.156C392.433 264.261 389.906 265.589 387.128 266.139C384.351 266.688 381.497 266.394 378.567 265.255C375.638 264.067 372.852 262.043 370.208 259.184C367.564 256.324 365.776 253.401 364.845 250.414C363.915 247.378 363.833 244.497 364.598 241.771C365.363 239.045 366.885 236.629 369.162 234.524C371.414 232.442 373.929 231.126 376.706 230.576C379.483 230.026 382.336 230.345 385.265 231.533C388.196 232.672 390.983 234.671 393.627 237.531C396.27 240.39 398.057 243.338 398.987 246.374C399.919 249.361 400.002 252.218 399.236 254.944C398.471 257.67 396.963 260.074 394.71 262.156ZM389.025 256.007C390.29 254.837 390.728 253.306 390.339 251.413C389.952 249.471 388.53 247.171 386.073 244.515C383.617 241.858 381.448 240.273 379.565 239.76C377.685 239.199 376.112 239.503 374.847 240.673C373.557 241.866 373.105 243.433 373.492 245.375C373.882 247.268 375.304 249.543 377.761 252.2C380.218 254.857 382.386 256.466 384.266 257.028C386.148 257.54 387.735 257.2 389.025 256.007ZM403.548 230.4C401.549 232.248 399.308 233.099 396.827 232.953C394.345 232.807 392.051 231.595 389.945 229.318C388.565 227.825 387.651 226.253 387.204 224.601C386.756 222.95 386.77 221.365 387.244 219.847C387.72 218.281 388.616 216.889 389.931 215.673C391.956 213.801 394.22 212.951 396.726 213.122C399.207 213.268 401.489 214.467 403.572 216.719C405.677 218.997 406.706 221.378 406.657 223.864C406.609 226.349 405.572 228.528 403.548 230.4ZM405.961 201.485L411.427 196.432L417.849 239.776L412.384 244.829L405.961 201.485ZM400.214 226.794C400.897 226.162 401.16 225.355 401.004 224.374C400.847 223.392 400.172 222.256 398.979 220.966C397.786 219.675 396.706 218.913 395.74 218.68C394.773 218.447 393.949 218.647 393.265 219.278C392.607 219.887 392.356 220.706 392.511 221.736C392.667 222.718 393.33 223.841 394.5 225.107C395.67 226.372 396.75 227.134 397.74 227.392C398.731 227.601 399.556 227.402 400.214 226.794ZM433.879 225.589C431.855 227.46 429.602 228.323 427.12 228.177C424.663 228.008 422.382 226.784 420.277 224.507C418.195 222.255 417.178 219.886 417.226 217.4C417.252 214.89 418.264 212.71 420.263 210.862C422.287 208.99 424.552 208.14 427.057 208.311C429.539 208.457 431.821 209.656 433.903 211.908C436.009 214.186 437.037 216.567 436.989 219.053C436.94 221.538 435.903 223.717 433.879 225.589ZM430.545 221.983C431.228 221.351 431.492 220.544 431.335 219.563C431.178 218.581 430.504 217.445 429.31 216.155C428.117 214.864 427.037 214.102 426.071 213.869C425.105 213.636 424.28 213.836 423.597 214.468C422.913 215.099 422.65 215.906 422.807 216.887C422.963 217.869 423.638 219.005 424.832 220.296C426.025 221.586 427.104 222.348 428.071 222.581C429.037 222.814 429.862 222.615 430.545 221.983Z" fill="#FFB700"/>
<path d="M362.876 303.447L364.446 301.995L367.849 305.675L372.788 301.108L369.385 297.429L370.955 295.977L378.97 304.645L377.4 306.097L374.043 302.466L369.104 307.033L372.461 310.664L370.891 312.115L362.876 303.447ZM377.024 290.214C378.223 289.105 379.411 288.553 380.588 288.557C381.776 288.551 382.909 289.131 383.988 290.298L388.827 295.532L387.338 296.908L386.28 295.763C386.391 296.408 386.302 297.067 386.013 297.739C385.725 298.389 385.248 299.022 384.583 299.637C383.613 300.534 382.617 301.021 381.594 301.096C380.583 301.162 379.724 300.813 379.019 300.05C378.313 299.286 378.026 298.419 378.159 297.447C378.282 296.464 378.948 295.413 380.158 294.294L382.644 291.995L382.357 291.684C381.732 291.008 381.057 290.672 380.332 290.675C379.607 290.678 378.862 291.032 378.099 291.738C377.587 292.212 377.166 292.763 376.836 293.391C376.497 294.008 376.289 294.615 376.213 295.211L374.47 294.638C374.585 293.865 374.867 293.098 375.317 292.338C375.757 291.568 376.326 290.86 377.024 290.214ZM383.726 298.185C384.326 297.63 384.723 297.021 384.917 296.356C385.101 295.68 385.064 295.006 384.807 294.334L383.688 293.124L381.267 295.362C379.937 296.591 379.685 297.653 380.512 298.548C380.915 298.984 381.402 299.171 381.972 299.109C382.541 299.047 383.126 298.739 383.726 298.185ZM396.062 272.764L404.076 281.432L402.506 282.883L395.762 275.589L390.872 280.11L397.616 287.405L396.046 288.857L388.032 280.188L396.062 272.764ZM410.987 267.094C411.098 267.214 411.233 267.382 411.393 267.599L404.36 274.101C405.164 274.774 406.066 275.082 407.066 275.027C408.068 274.951 408.993 274.519 409.844 273.733C410.88 272.775 411.391 271.655 411.378 270.373L413.183 270.585C413.214 271.406 413.046 272.209 412.679 272.993C412.323 273.767 411.785 274.487 411.065 275.152C410.149 275.999 409.166 276.565 408.114 276.849C407.052 277.123 406.013 277.103 404.995 276.79C403.989 276.467 403.092 275.88 402.306 275.03C401.53 274.19 401.014 273.261 400.76 272.242C400.517 271.213 400.551 270.211 400.862 269.235C401.174 268.239 401.745 267.358 402.573 266.591C403.402 265.825 404.315 265.336 405.311 265.122C406.308 264.888 407.299 264.943 408.283 265.286C409.279 265.619 410.18 266.222 410.987 267.094ZM403.798 267.916C403.046 268.612 402.625 269.425 402.536 270.357C402.458 271.279 402.718 272.151 403.316 272.973L408.877 267.831C408.115 267.182 407.265 266.864 406.329 266.88C405.394 266.875 404.551 267.221 403.798 267.916ZM413.89 256.128C414.73 255.352 415.653 254.842 416.661 254.597C417.669 254.353 418.666 254.392 419.651 254.715C420.648 255.027 421.55 255.619 422.356 256.491C423.163 257.364 423.688 258.314 423.931 259.343C424.175 260.351 424.136 261.348 423.814 262.333C423.491 263.319 422.91 264.2 422.071 264.976C421.449 265.551 420.766 265.96 420.021 266.204C419.287 266.438 418.528 266.492 417.745 266.367L421.888 270.849L420.318 272.3L409.37 260.459L410.875 259.068L412.145 260.442C412.05 259.639 412.159 258.871 412.471 258.137C412.774 257.393 413.247 256.723 413.89 256.128ZM420.67 263.723C421.226 263.209 421.606 262.625 421.81 261.971C422.015 261.296 422.032 260.614 421.859 259.924C421.687 259.213 421.324 258.558 420.77 257.958C420.215 257.358 419.595 256.951 418.91 256.735C418.226 256.498 417.544 256.46 416.866 256.623C416.198 256.775 415.585 257.109 415.029 257.623C414.484 258.127 414.109 258.717 413.904 259.392C413.7 260.046 413.678 260.723 413.84 261.422C414.013 262.112 414.376 262.757 414.931 263.357C415.485 263.956 416.105 264.375 416.789 264.612C417.463 264.838 418.145 264.875 418.834 264.723C419.513 264.561 420.125 264.227 420.67 263.723ZM430.39 248.76C431.775 248.005 432.987 248.189 434.025 249.312C434.731 250.075 434.987 250.931 434.792 251.88C434.608 252.818 433.949 253.812 432.815 254.86L428.645 258.716L420.63 250.048L424.653 246.328C425.678 245.381 426.661 244.836 427.602 244.694C428.533 244.541 429.326 244.819 429.981 245.528C430.404 245.986 430.647 246.5 430.709 247.07C430.771 247.619 430.665 248.182 430.39 248.76ZM425.615 252.356L427.97 250.178C428.57 249.624 428.922 249.096 429.025 248.596C429.14 248.085 429.006 247.623 428.623 247.209C427.856 246.38 426.863 246.53 425.641 247.659L423.286 249.837L425.615 252.356ZM431.582 253.756C432.236 253.151 432.631 252.594 432.766 252.084C432.902 251.575 432.768 251.102 432.365 250.666C431.951 250.218 431.491 250.027 430.984 250.091C430.488 250.145 429.919 250.47 429.275 251.065L426.659 253.484L429.063 256.085L431.582 253.756ZM442.494 246.093C441.633 246.89 440.682 247.414 439.642 247.668C438.603 247.921 437.579 247.897 436.572 247.595C435.565 247.272 434.668 246.685 433.882 245.834C433.096 244.984 432.586 244.05 432.353 243.032C432.12 241.993 432.176 240.971 432.52 239.965C432.854 238.948 433.452 238.041 434.313 237.245C435.175 236.449 436.12 235.929 437.149 235.685C438.178 235.421 439.196 235.45 440.203 235.773C441.21 236.076 442.107 236.652 442.894 237.502C443.68 238.353 444.189 239.298 444.422 240.336C444.655 241.354 444.605 242.372 444.271 243.389C443.948 244.395 443.355 245.297 442.494 246.093ZM441.224 244.719C441.78 244.205 442.16 243.621 442.364 242.967C442.569 242.292 442.586 241.61 442.413 240.92C442.23 240.219 441.862 239.569 441.307 238.969C440.753 238.37 440.138 237.957 439.464 237.731C438.78 237.494 438.098 237.456 437.42 237.619C436.752 237.771 436.139 238.105 435.583 238.619C435.027 239.133 434.642 239.722 434.427 240.386C434.222 241.04 434.206 241.723 434.378 242.433C434.55 243.123 434.914 243.768 435.469 244.368C436.023 244.967 436.642 245.386 437.327 245.623C438.012 245.839 438.693 245.876 439.371 245.734C440.05 245.572 440.668 245.233 441.224 244.719ZM453.04 228.212C453.151 228.332 453.287 228.5 453.446 228.716L446.414 235.219C447.217 235.891 448.12 236.2 449.12 236.144C450.121 236.068 451.047 235.637 451.898 234.85C452.933 233.893 453.445 232.773 453.432 231.49L455.237 231.703C455.267 232.523 455.099 233.326 454.732 234.11C454.376 234.884 453.838 235.604 453.119 236.27C452.203 237.116 451.219 237.682 450.168 237.967C449.106 238.24 448.067 238.221 447.049 237.908C446.042 237.584 445.146 236.998 444.36 236.147C443.583 235.308 443.068 234.378 442.814 233.36C442.57 232.331 442.604 231.329 442.916 230.353C443.228 229.356 443.798 228.475 444.627 227.709C445.456 226.943 446.368 226.453 447.364 226.24C448.361 226.006 449.352 226.06 450.337 226.404C451.333 226.737 452.234 227.34 453.04 228.212ZM445.852 229.034C445.1 229.729 444.679 230.543 444.59 231.475C444.512 232.396 444.772 233.268 445.37 234.09L450.931 228.949C450.168 228.299 449.319 227.982 448.383 227.998C447.448 227.993 446.604 228.338 445.852 229.034ZM404.849 300.945C405.568 300.563 406.242 300.395 406.871 300.441C407.5 300.486 408.046 300.76 408.51 301.262C408.984 301.774 409.233 302.393 409.257 303.119C409.271 303.834 409.073 304.594 408.663 305.397C408.254 306.18 407.668 306.924 406.905 307.63C406.261 308.225 405.553 308.728 404.781 309.139C404.009 309.529 403.237 309.788 402.465 309.915L401.835 308.282C402.491 308.161 403.157 307.93 403.833 307.588C404.498 307.236 405.103 306.808 405.648 306.304C406.39 305.618 406.863 304.949 407.067 304.295C407.272 303.62 407.173 303.064 406.77 302.628C406.397 302.224 405.929 302.08 405.368 302.195C404.817 302.299 404.221 302.649 403.577 303.244L401.991 304.71L400.947 303.582L402.419 302.221C403.008 301.677 403.376 301.145 403.522 300.625C403.669 300.105 403.576 299.665 403.243 299.306C402.88 298.913 402.396 298.794 401.791 298.949C401.197 299.094 400.562 299.479 399.886 300.104C399.024 300.9 398.321 301.966 397.774 303.3L396.23 302.483C396.794 300.971 397.653 299.68 398.809 298.612C399.507 297.967 400.225 297.485 400.962 297.167C401.7 296.849 402.393 296.724 403.042 296.791C403.691 296.859 404.227 297.122 404.65 297.58C405.043 298.005 405.255 298.517 405.284 299.118C405.313 299.718 405.168 300.327 404.849 300.945ZM408.226 289.965C409.426 288.856 410.614 288.304 411.791 288.308C412.978 288.302 414.112 288.882 415.19 290.049L420.029 295.283L418.541 296.659L417.482 295.514C417.594 296.159 417.505 296.818 417.216 297.49C416.928 298.14 416.451 298.773 415.786 299.388C414.815 300.285 413.819 300.772 412.797 300.847C411.785 300.913 410.927 300.564 410.221 299.801C409.516 299.037 409.229 298.17 409.362 297.198C409.484 296.215 410.151 295.164 411.361 294.045L413.847 291.746L413.56 291.435C412.935 290.759 412.259 290.423 411.534 290.426C410.809 290.429 410.065 290.783 409.302 291.489C408.789 291.963 408.368 292.514 408.039 293.142C407.699 293.759 407.492 294.366 407.416 294.962L405.673 294.389C405.787 293.616 406.07 292.849 406.52 292.089C406.96 291.319 407.529 290.611 408.226 289.965ZM414.928 297.936C415.528 297.381 415.925 296.772 416.119 296.107C416.303 295.431 416.267 294.757 416.009 294.085L414.89 292.875L412.47 295.113C411.14 296.343 410.888 297.404 411.714 298.299C412.118 298.735 412.604 298.922 413.174 298.86C413.744 298.798 414.329 298.49 414.928 297.936ZM414.842 284L416.412 282.549L419.814 286.229L424.754 281.662L421.351 277.982L422.921 276.53L430.936 285.198L429.366 286.65L426.009 283.019L421.069 287.586L424.427 291.217L422.856 292.669L414.842 284ZM432.925 267.281L440.94 275.949L439.533 277.249L436.993 274.502L434.474 276.831L434.294 276.997L434.937 281.499L433.253 283.056L432.626 278.145C431.79 278.554 430.991 278.696 430.229 278.571C429.456 278.436 428.758 278.03 428.133 277.354C427.215 276.362 426.858 275.297 427.06 274.16C427.252 273.011 427.942 271.888 429.131 270.789L432.925 267.281ZM429.781 275.922C430.315 276.499 430.893 276.764 431.515 276.715C432.138 276.644 432.815 276.272 433.545 275.596L435.949 273.373L432.789 269.955L430.45 272.117C428.945 273.509 428.722 274.777 429.781 275.922ZM443.719 259.849L440.546 262.783L447.29 270.077L445.72 271.529L438.976 264.234L435.803 267.168L434.533 265.794L442.449 258.475L443.719 259.849ZM444.054 256.991L445.624 255.539L451.461 261.852L450.94 250.625L452.363 249.309L460.377 257.977L458.807 259.429L452.97 253.116L453.508 264.328L452.069 265.659L444.054 256.991ZM467.297 243.631C467.408 243.751 467.543 243.919 467.703 244.136L460.67 250.638C461.474 251.31 462.376 251.619 463.376 251.564C464.378 251.487 465.304 251.056 466.154 250.27C467.19 249.312 467.701 248.192 467.689 246.909L469.493 247.122C469.524 247.943 469.356 248.745 468.989 249.529C468.633 250.304 468.095 251.023 467.375 251.689C466.459 252.536 465.476 253.101 464.424 253.386C463.363 253.66 462.323 253.64 461.306 253.327C460.299 253.004 459.402 252.417 458.616 251.566C457.84 250.727 457.325 249.798 457.07 248.779C456.827 247.75 456.861 246.748 457.172 245.772C457.485 244.776 458.055 243.894 458.884 243.128C459.712 242.362 460.625 241.872 461.621 241.659C462.618 241.425 463.609 241.479 464.594 241.823C465.589 242.156 466.49 242.759 467.297 243.631ZM460.108 244.453C459.356 245.148 458.935 245.962 458.846 246.894C458.768 247.816 459.028 248.687 459.627 249.509L465.187 244.368C464.425 243.718 463.575 243.401 462.64 243.417C461.705 243.412 460.861 243.757 460.108 244.453Z" fill="#FFB700"/>
</g>
<path d="M230.846 292.712H69.9287L89.6384 414.21H211.137L230.846 292.712Z" fill="#FFB244"/>
<path d="M243.189 191.848C242.764 182.244 238.869 171.984 230.422 167.433C228.3 166.276 226.025 165.581 223.672 165.234C228.107 170.48 230.267 177.808 230.576 184.828C231.54 206.813 217.578 227.68 198.755 239.097C189.729 244.574 179.701 248.123 169.403 250.206C165.044 251.093 156.867 253.098 149.886 253.446C150.04 255.798 150.85 257.804 152.856 259C159.181 262.741 175.227 258.576 182.015 257.187C192.314 255.104 202.381 251.556 211.368 246.079C230.19 234.7 244.191 213.833 243.189 191.848Z" fill="#0888D9"/>
<path d="M161.61 247.738C164.927 237.555 168.746 227.488 173.876 218.038C182.477 202.186 195.09 187.876 211.598 180.586C219.737 176.999 229.456 175.302 237.286 179.506C238.906 180.393 240.372 181.473 241.683 182.707C239.832 176.305 236.168 170.558 230.382 167.472C222.552 163.268 212.794 164.965 204.694 168.552C188.186 175.842 175.573 190.152 166.972 206.004C161.842 215.454 158.023 225.521 154.706 235.704C152.932 241.104 145.912 254.951 152.855 259.039C154.051 259.733 155.555 260.158 157.329 260.389C158.409 255.568 160.723 250.515 161.61 247.738Z" fill="#6AD1FF"/>
<path d="M58.0469 191.848C58.4712 182.244 62.3669 171.985 70.8139 167.433C72.9353 166.276 75.211 165.582 77.5638 165.235C73.1282 170.48 70.9682 177.809 70.6596 184.829C69.6954 206.814 83.658 227.681 102.481 239.098C111.506 244.575 121.535 248.123 131.833 250.206C136.191 251.093 144.368 253.099 151.35 253.446C151.195 255.799 150.386 257.805 148.38 259C142.054 262.742 126.009 258.576 119.22 257.187C108.922 255.105 98.8549 251.556 89.8679 246.079C71.0839 234.701 57.0827 213.834 58.0469 191.848Z" fill="#0888D9"/>
<path d="M139.625 247.738C136.308 237.555 132.489 227.488 127.359 218.038C118.758 202.186 106.145 187.876 89.637 180.586C81.4986 176.999 71.7787 175.302 63.9488 179.506C62.3289 180.393 60.8632 181.473 59.5518 182.707C61.4032 176.305 65.0674 170.558 70.853 167.472C78.6829 163.268 88.4413 164.965 96.5412 168.552C113.05 175.842 125.662 190.152 134.263 206.004C139.393 215.454 143.212 225.521 146.529 235.704C148.303 241.104 155.323 254.951 148.38 259.039C147.185 259.733 145.68 260.158 143.906 260.389C142.865 255.568 140.55 250.515 139.625 247.738Z" fill="#6AD1FF"/>
<path d="M240.294 292.712H60.4768L58.2783 257.034H242.493L240.294 292.712Z" fill="#FFB244"/>
<path d="M160.26 257.034H140.512V414.21H160.26V257.034Z" fill="#6AD1FF"/>
<path d="M150.232 241.414H150.579C155.94 241.414 160.26 245.772 160.26 251.095V256.996H140.512V251.095C140.512 245.772 144.87 241.414 150.232 241.414Z" fill="#056099"/>
<path opacity="0.1" d="M222.592 343.432L230.846 292.712H69.9287L70.4302 295.836L222.592 343.432Z" fill="black"/>
<defs>
<filter id="filter0_d" x="0" y="-0.000244141" width="608.216" height="597.757" filterUnits="userSpaceOnUse" color-interpolation-filters="sRGB">
<feFlood flood-opacity="0" result="BackgroundImageFix"/>
<feColorMatrix in="SourceAlpha" type="matrix" values="0 0 0 0 0 0 0 0 0 0 0 0 0 0 0 0 0 0 127 0"/>
<feOffset dy="24"/>
<feGaussianBlur stdDeviation="8.5"/>
<feColorMatrix type="matrix" values="0 0 0 0 0 0 0 0 0 0 0 0 0 0 0 0 0 0 0.17 0"/>
<feBlend mode="normal" in2="BackgroundImageFix" result="effect1_dropShadow"/>
<feBlend mode="normal" in="SourceGraphic" in2="effect1_dropShadow" result="shape"/>
</filter>
<clipPath id="clip0">
<rect width="557.834" height="242.498" fill="white" transform="translate(17 378.703) rotate(-42.7563)"/>
</clipPath>
</defs>
</svg>
