<svg width="37" height="36" viewBox="0 0 37 36" fill="none" xmlns="http://www.w3.org/2000/svg">
<path d="M35.7065 6.73486C35.7065 3.58448 33.1428 1.02075 29.9924 1.02075C28.8147 1.02409 27.6669 1.39211 26.7068 2.07424C25.7467 2.75637 25.0214 3.71912 24.6307 4.83016H12.4977C12.107 3.71912 11.3817 2.75637 10.4216 2.07424C9.46153 1.39211 8.31373 1.02409 7.13599 1.02075C3.98561 1.02075 1.42188 3.58448 1.42188 6.73486C1.42188 9.21479 3.01992 11.3081 5.23128 12.0966V24.2277C4.12055 24.6195 3.15821 25.3453 2.47621 26.3055C1.7942 27.2658 1.42593 28.4135 1.42188 29.5913C1.42188 32.7417 3.98561 35.3054 7.13599 35.3054C8.31373 35.3021 9.46153 34.9341 10.4216 34.2519C11.3817 33.5698 12.107 32.6071 12.4977 31.496H24.6288C25.0198 32.6069 25.7451 33.5695 26.7051 34.2516C27.6652 34.9337 28.8129 35.3018 29.9905 35.3054C33.1409 35.3054 35.7046 32.7417 35.7046 29.5913C35.7006 28.4135 35.3323 27.2658 34.6503 26.3055C33.9683 25.3453 33.006 24.6195 31.8952 24.2277V12.0985C33.0065 11.7073 33.9694 10.9817 34.6518 10.0213C35.3342 9.06097 35.7026 7.91296 35.7065 6.73486ZM29.9924 4.83016C30.3697 4.82978 30.7386 4.94133 31.0524 5.15069C31.3662 5.36004 31.6109 5.6578 31.7555 6.00626C31.9 6.35473 31.9379 6.73824 31.8644 7.10826C31.7909 7.47828 31.6093 7.81818 31.3425 8.08494C31.0758 8.3517 30.7359 8.53333 30.3658 8.60683C29.9958 8.68034 29.6123 8.64242 29.2638 8.49788C28.9154 8.35334 28.6176 8.10867 28.4083 7.79484C28.1989 7.481 28.0874 7.11212 28.0877 6.73486C28.0877 5.68537 28.941 4.83016 29.9924 4.83016ZM24.6307 27.6866H12.4977C12.2146 26.8895 11.7574 26.1655 11.1594 25.5672C10.5614 24.9689 9.83764 24.5113 9.04069 24.2277V12.0985C9.83764 11.8149 10.5614 11.3573 11.1594 10.759C11.7574 10.1607 12.2146 9.43667 12.4977 8.63957H24.6288C24.9124 9.43651 25.37 10.1603 25.9683 10.7583C26.5666 11.3562 27.2906 11.8134 28.0877 12.0966V24.2277C27.2908 24.5113 26.567 24.9689 25.969 25.5672C25.3711 26.1655 24.9139 26.8895 24.6307 27.6866ZM7.13599 4.83016C7.51324 4.82978 7.88213 4.94133 8.19596 5.15069C8.50979 5.36004 8.75446 5.6578 8.899 6.00626C9.04355 6.35473 9.08146 6.73824 9.00796 7.10826C8.93445 7.47828 8.75282 7.81818 8.48607 8.08494C8.21931 8.3517 7.87941 8.53333 7.50938 8.60683C7.13936 8.68034 6.75585 8.64242 6.40738 8.49788C6.05892 8.35334 5.76117 8.10867 5.55181 7.79484C5.34245 7.481 5.23091 7.11212 5.23128 6.73486C5.23128 5.68537 6.08459 4.83016 7.13599 4.83016ZM7.13599 31.496C6.64556 31.4741 6.1825 31.2638 5.84322 30.909C5.50394 30.5542 5.31458 30.0822 5.31458 29.5913C5.31458 29.1004 5.50394 28.6284 5.84322 28.2736C6.1825 27.9188 6.64556 27.7085 7.13599 27.6866C7.62641 27.7085 8.08947 27.9188 8.42875 28.2736C8.76804 28.6284 8.95739 29.1004 8.95739 29.5913C8.95739 30.0822 8.76804 30.5542 8.42875 30.909C8.08947 31.2638 7.62641 31.4741 7.13599 31.496ZM29.9924 31.496C29.502 31.4741 29.0389 31.2638 28.6997 30.909C28.3604 30.5542 28.171 30.0822 28.171 29.5913C28.171 29.1004 28.3604 28.6284 28.6997 28.2736C29.0389 27.9188 29.502 27.7085 29.9924 27.6866C30.4829 27.7085 30.9459 27.9188 31.2852 28.2736C31.6245 28.6284 31.8138 29.1004 31.8138 29.5913C31.8138 30.0822 31.6245 30.5542 31.2852 30.909C30.9459 31.2638 30.4829 31.4741 29.9924 31.496Z" fill="#A86BC0" stroke="white" stroke-width="1.11698"/>
</svg>
