<svg width="15" height="13" viewBox="0 0 15 13" fill="none" xmlns="http://www.w3.org/2000/svg">
<path fill-rule="evenodd" clip-rule="evenodd" d="M11.3234 12.4809C11.507 12.608 11.7472 12.6504 11.9732 12.5657C12.1851 12.4809 12.3546 12.2973 12.3969 12.0713C12.9055 9.68408 14.1344 3.66663 14.6005 1.49131C14.6288 1.3218 14.5723 1.1523 14.4451 1.05342C14.318 0.95454 14.1344 0.912165 13.979 0.968667C11.5353 1.8727 4.00641 4.69779 0.927063 5.84195C0.729306 5.91258 0.602177 6.09621 0.616303 6.30809C0.616303 6.51997 0.757557 6.68948 0.955314 6.76011C2.33961 7.16974 4.14767 7.74889 4.14767 7.74889C4.14767 7.74889 4.9952 10.3056 5.43308 11.6051C5.48959 11.7746 5.61672 11.9018 5.78622 11.9442C5.95573 11.9865 6.13936 11.9442 6.25236 11.817C6.95863 11.1531 8.06042 10.1078 8.06042 10.1078C8.06042 10.1078 10.1369 11.6475 11.3234 12.4809ZM4.89632 7.424L5.87098 10.6587L6.08286 8.61054C6.08286 8.61054 9.86848 5.19218 12.0297 3.25699C12.0862 3.20049 12.1003 3.10161 12.0438 3.03098C11.9873 2.96036 11.9025 2.94623 11.8178 2.98861C9.34584 4.58478 4.89632 7.424 4.89632 7.424Z" fill="white"/>
</svg>
