<svg width="33" height="33" viewBox="0 0 33 33" fill="none" xmlns="http://www.w3.org/2000/svg">
<path d="M23.4224 0.138672H9.10322C4.2483 0.138672 0.28125 4.08684 0.28125 8.96065V23.2798C0.28125 28.1347 4.22941 32.1018 9.10322 32.1018H23.4224C28.2773 32.1018 32.2444 28.1536 32.2444 23.2798V8.96065C32.2255 4.08684 28.2773 0.138672 23.4224 0.138672ZM29.3919 23.2609C29.3919 26.5668 26.7094 29.2493 23.4035 29.2493H9.10322C5.79735 29.2493 3.11486 26.5668 3.11486 23.2609V8.94176C3.11486 5.63588 5.79735 2.95339 9.10322 2.95339H23.4224C26.7283 2.95339 29.4108 5.63588 29.4108 8.94176L29.3919 23.2609Z" fill="white"/>
<path d="M23.9144 18.992C23.5366 18.5386 23.1021 18.123 22.6865 17.7263C22.5354 17.5941 22.3843 17.4429 22.2521 17.3107C22.0632 17.1218 21.9687 16.9895 21.9498 16.8762C21.9498 16.7818 22.0065 16.6306 22.1576 16.4228C22.3843 16.1017 22.6299 15.7805 22.8755 15.4594C23.0833 15.176 23.3099 14.8927 23.5177 14.6093L23.5555 14.5526C23.9711 13.9859 24.3867 13.4003 24.6134 12.6825C24.6701 12.4747 24.7456 12.1724 24.5756 11.9079C24.4056 11.6435 24.1222 11.5679 23.8956 11.5301C23.8011 11.5112 23.7066 11.5112 23.6122 11.5112H20.9675C20.5141 11.5112 20.193 11.719 20.023 12.1535C19.8907 12.4936 19.7207 12.9092 19.5318 13.287C19.1729 14.0237 18.7006 14.8738 18.0394 15.5916L18.0016 15.6294C17.9639 15.6861 17.8883 15.7617 17.8505 15.7805C17.775 15.7239 17.6994 15.4783 17.6994 15.3461V15.3272V12.2669C17.6994 12.248 17.6994 12.2291 17.6994 12.2291C17.6427 11.7946 17.5294 11.3601 16.8304 11.209C16.8115 11.209 16.7926 11.209 16.7549 11.209H13.9968C13.4679 11.209 13.2034 11.4546 12.9767 11.7001C12.92 11.7757 12.75 11.9835 12.8256 12.2102C12.92 12.4558 13.1656 12.5124 13.2601 12.5313C13.5623 12.588 13.7134 12.758 13.7701 13.0792C13.8646 13.7026 13.8835 14.3826 13.8079 15.2138C13.789 15.4405 13.7512 15.5916 13.6946 15.7428C13.6757 15.7617 13.6757 15.7994 13.6568 15.8183C13.6379 15.7994 13.6001 15.7994 13.5812 15.7805C13.3734 15.6294 13.2034 15.4027 13.0523 15.1949C12.4289 14.326 11.9188 13.3625 11.4654 12.2669C11.2765 11.8135 10.9365 11.5679 10.4831 11.549C9.63305 11.5301 8.83964 11.5301 8.08401 11.549C7.72508 11.549 7.46061 11.6624 7.32838 11.8891C7.19614 12.1157 7.19614 12.3802 7.34727 12.7202C8.40515 15.0816 9.38747 16.8006 10.4831 18.293C11.2577 19.3509 12.0511 20.0687 12.9389 20.5977C13.8835 21.1455 14.9602 21.41 16.1881 21.41C16.3393 21.41 16.4715 21.41 16.6226 21.41C17.3971 21.3722 17.6994 21.0699 17.7372 20.3332C17.7561 19.9365 17.7938 19.6154 17.945 19.3509C17.9828 19.2753 18.0394 19.2187 18.0772 19.2187C18.115 19.2187 18.1905 19.2375 18.2661 19.2942C18.3983 19.3887 18.5306 19.502 18.6439 19.6343C18.7384 19.7476 18.8517 19.8609 18.9462 19.9743C19.154 20.2199 19.3807 20.4654 19.6262 20.711C20.1552 21.2589 20.7597 21.5044 21.4398 21.4478H23.8956C24.1789 21.4289 24.4245 21.2589 24.5567 21.0133C24.7267 20.711 24.7267 20.3332 24.5567 19.9932C24.3678 19.5587 24.1222 19.2564 23.9144 18.992Z" fill="white"/>
</svg>
