<svg width="12" height="12" viewBox="0 0 12 12" fill="none" xmlns="http://www.w3.org/2000/svg">
<path d="M0.941406 11.9323L1.71187 9.11159C1.23523 8.28236 0.987112 7.34866 0.987112 6.38885C0.987112 3.38534 3.42909 0.943359 6.4326 0.943359C7.88865 0.943359 9.25981 1.51141 10.2849 2.54305C11.31 3.57469 11.8781 4.93933 11.8781 6.39538C11.8781 9.39888 9.43611 11.8409 6.4326 11.8409C5.51849 11.8409 4.62397 11.6123 3.82738 11.1749L0.941406 11.9323ZM3.9645 10.1889C4.73497 10.646 5.46625 10.9202 6.4326 10.9202C8.92682 10.9202 10.9574 8.88959 10.964 6.39538C10.964 3.89463 8.93988 1.864 6.43913 1.864C3.94491 1.864 1.90775 3.89463 1.90775 6.38885C1.90775 7.40743 2.2081 8.17136 2.70433 8.96795L2.24728 10.6395C2.24728 10.6329 3.9645 10.1889 3.9645 10.1889ZM9.18146 7.68166C9.14882 7.6229 9.0574 7.59025 8.92029 7.52496C8.78317 7.45966 8.11718 7.12667 7.99312 7.08096C7.86906 7.03525 7.77765 7.01567 7.68624 7.14625C7.59483 7.28337 7.33365 7.59025 7.2553 7.68166C7.17695 7.77307 7.09859 7.78613 6.96148 7.71431C6.82436 7.64901 6.38689 7.50537 5.86455 7.04178C5.45972 6.68267 5.18549 6.23214 5.10714 6.10156C5.02879 5.96444 5.10061 5.89262 5.1659 5.82079C5.22467 5.76203 5.30302 5.66409 5.36831 5.57921C5.44014 5.50085 5.45972 5.44209 5.50543 5.35068C5.55114 5.25927 5.53155 5.18092 5.49237 5.10909C5.45972 5.0438 5.18549 4.37127 5.07449 4.09704C4.96349 3.82934 4.85249 3.86851 4.76761 3.86198L4.50644 3.85546C4.41503 3.85546 4.27138 3.8881 4.14079 4.02522C4.01674 4.16233 3.66415 4.4888 3.66415 5.16133C3.66415 5.83385 4.15385 6.48026 4.21915 6.57167C4.28444 6.66308 5.17896 8.03425 6.5436 8.62842C6.87007 8.76553 7.12471 8.85042 7.32059 8.91571C7.64706 9.02018 7.94088 9.00712 8.17594 8.96795C8.43711 8.92877 8.97905 8.64148 9.09658 8.32154C9.21411 8.01466 9.21411 7.74042 9.18146 7.68166Z" fill="#CACACA"/>
</svg>
