<svg width="33" height="33" viewBox="0 0 33 33" fill="none" xmlns="http://www.w3.org/2000/svg">
<path d="M23.8921 0.119629H9.57295C4.71803 0.119629 0.750977 4.06778 0.750977 8.94159V23.2608C0.750977 28.1157 4.69914 32.0828 9.57295 32.0828H23.8921C28.747 32.0828 32.7141 28.1346 32.7141 23.2608V8.94159C32.6952 4.06778 28.747 0.119629 23.8921 0.119629ZM29.8616 23.2419C29.8616 26.5478 27.1791 29.2302 23.8732 29.2302H9.57295C6.26707 29.2302 3.58459 26.5478 3.58459 23.2419V8.92271C3.58459 5.61683 6.26707 2.93434 9.57295 2.93434H23.8921C27.198 2.93434 29.8805 5.61683 29.8805 8.92271L29.8616 23.2419Z" fill="white"/>
<path d="M22.9476 8.97958C20.0385 8.77178 13.5589 8.77178 10.6498 8.97958C7.495 9.18738 7.13608 10.7364 7.11719 15.7614C7.13608 20.7674 7.51389 22.3164 10.6498 22.5431C13.5589 22.7509 20.0385 22.7509 22.9476 22.5431C26.1024 22.3353 26.4613 20.7863 26.4991 15.7614C26.4613 10.7364 26.1024 9.18738 22.9476 8.97958ZM14.0312 18.9917V12.5121L20.8319 15.7425L14.0312 18.9917Z" fill="white"/>
</svg>
